<svg xmlns="http://www.w3.org/2000/svg" width="32" height="32" viewBox="0 0 32 32"><defs><style>.a{fill:#fff;stroke:#707070;opacity:0;}.b{fill:#2a5798;}.c{fill:#e39808;}.d{fill:#f8b432;}.e{fill:#fefefe;}.f{fill:#ca8707;}.g{fill:#f1f1f1;}.h{fill:#6e9fdd;}.i{fill:#fbd793;}.j{stroke:none;}.k{fill:none;}</style></defs><g transform="translate(-1220 -873)"><g class="a" transform="translate(1220 873)"><rect class="j" width="32" height="32"/><rect class="k" x="0.5" y="0.5" width="31" height="31"/></g><g transform="translate(1219.832 872.839)"><path class="b" d="M13.252,21.974H2.786a1,1,0,0,1-1.146-1.146V2.795c0-.807.355-1.154,1.17-1.154H29.526c.807,0,1.17.355,1.17,1.154V20.828a1,1,0,0,1-1.138,1.146H19.093a.082.082,0,0,1-.032-.081c.024-.1.113-.137.186-.186a1.936,1.936,0,0,0,.839-1.388c.016-.121-.008-.266.145-.339a1.635,1.635,0,0,1,.484-.032H26.25c.436,0,.436,0,.557-.4a1.989,1.989,0,0,1,1.5-1.469.411.411,0,0,0,.379-.468Q28.675,11.8,28.687,6c0-.2-.016-.371-.274-.428a2.008,2.008,0,0,1-1.573-1.388c-.1-.5-.1-.5-.629-.5H5.909a.3.3,0,0,0-.323.258,2.008,2.008,0,0,1-1.63,1.63.284.284,0,0,0-.258.315V17.472c0,.081.008.161,0,.242a.3.3,0,0,0,.282.355,2.181,2.181,0,0,1,1.041.533,1.915,1.915,0,0,1,.541.992c.056.29.194.371.476.371,1.872-.008,3.736-.008,5.608,0a1.563,1.563,0,0,1,.476.032c.113.04.129.137.145.242a1.961,1.961,0,0,0,.928,1.541.241.241,0,0,1,.113.137C13.284,21.918,13.276,21.95,13.252,21.974Z"/><path class="c" d="M19.06,21.917c.008.016.008.04.016.056,0,2.275-.008,4.559-.008,6.834V30.68L17.5,29.115c-.371-.371-.371-.371-.734-.008-.508.508-1.009,1.009-1.565,1.573V25.427c.169-.024.25.1.347.2.492.484.984.976,1.5,1.493v-3.55a7.417,7.417,0,0,1,.016-.847,1.228,1.228,0,0,1,.654-.541A3.156,3.156,0,0,1,19.06,21.917Z"/><path class="d" d="M17.131,22.692v4.615c-.678-.662-1.307-1.275-1.928-1.888-.137-.04-.161.089-.226.153-.484.476-.968.968-1.452,1.444a.492.492,0,0,1-.274.194V21.966c.008-.016.008-.04.016-.057a.119.119,0,0,1,.113-.04,3.28,3.28,0,0,1,1.606.532,1.787,1.787,0,0,0,1.9.3A.233.233,0,0,1,17.131,22.692Z"/><path class="e" d="M4.948,18.65a2.235,2.235,0,0,0-1.218-.541c-.113-.008-.161-.057-.153-.169a1.3,1.3,0,0,0,0-.177q0-5.955-.008-11.918c0-.258.073-.339.315-.379a1.825,1.825,0,0,0,1.581-1.6c.04-.226.121-.3.363-.3q10.215.012,20.422.008c.589,0,.589,0,.629.589a3.069,3.069,0,0,1,.089.718V17.319c0,.1,0,.2-.008.3a1.089,1.089,0,0,1-1.17,1.122q-1.573.012-3.147,0a12.218,12.218,0,0,1-1.63-.032c-.153-.056-.137-.177-.121-.3a1.875,1.875,0,0,0-.436-1.517,1.778,1.778,0,0,1-.4-.992A1.865,1.865,0,0,0,18.3,14.188a1.662,1.662,0,0,1-.879-.355,1.812,1.812,0,0,0-2.485-.032,1.853,1.853,0,0,1-.992.4,1.853,1.853,0,0,0-1.7,1.719,1.718,1.718,0,0,1-.379.936A1.932,1.932,0,0,0,11.4,18.4c.016.121.04.25-.113.307a1.409,1.409,0,0,1-.452.032H5.489A1.065,1.065,0,0,1,4.948,18.65Z"/><path class="f" d="M11.379,18.642a2.064,2.064,0,0,1,.508-1.928,1.2,1.2,0,0,0,.282-.75,1.926,1.926,0,0,1,1.848-1.856,1.458,1.458,0,0,0,.823-.331,1.923,1.923,0,0,1,2.663.016,1.389,1.389,0,0,0,.8.315,1.925,1.925,0,0,1,1.848,1.848,1.246,1.246,0,0,0,.283.75,2.069,2.069,0,0,1,.508,1.928.439.439,0,0,1-.1.387c-.218.331-.452.653-.654,1a2.29,2.29,0,0,1-.541,1.428,4.115,4.115,0,0,1-.589.46,2.908,2.908,0,0,1-.686.153,2.074,2.074,0,0,0-1.243.629,2.208,2.208,0,0,1-1.606.137,1.8,1.8,0,0,1-.565-.331,2.1,2.1,0,0,0-1.114-.46,5,5,0,0,1-.581-.129,2.13,2.13,0,0,1-1.13-1.88c-.186-.339-.436-.638-.637-.968A.548.548,0,0,1,11.379,18.642Z"/><path class="g" d="M20.184,20.03a1.046,1.046,0,0,1,.25-.541,3.02,3.02,0,0,0,.516-.847h4.744c.807,0,1.178-.371,1.178-1.17V4.554c0-.129.008-.258.008-.4a2.1,2.1,0,0,0,.993,1.13,1.391,1.391,0,0,0,.6.186c.25.008.282.121.282.339q-.012,3.631-.008,7.262v4.72c0,.194-.016.29-.258.323a1.9,1.9,0,0,0-1.662,1.67c-.024.186-.073.25-.266.25Q23.375,20.026,20.184,20.03Z"/><path class="g" d="M11.38,18.642a3.123,3.123,0,0,0,.533.871.938.938,0,0,1,.226.516q-3.2,0-6.39.008c-.153,0-.226-.024-.242-.2a2.051,2.051,0,0,0-.549-1.178C7.1,18.65,9.233,18.65,11.38,18.642Z"/><path class="h" d="M16.149,9.871c-2.937,0-5.866-.008-8.8.008-.3,0-.4-.056-.387-.379.024-.6.008-.6.613-.6H24.936c.468,0,.428-.048.428.42,0,.549,0,.549-.565.549Z"/><path class="h" d="M16.148,7.935q-3.461,0-6.923.008c-.242,0-.331-.056-.331-.315.016-.662,0-.662.645-.662H23.031c.4,0,.4,0,.4.387,0,.581,0,.581-.589.581Z"/><path class="h" d="M16.164,6c-1.347,0-2.7-.008-4.05.008-.226,0-.315-.048-.315-.3.008-.67,0-.67.662-.67,2.558,0,5.124.008,7.681-.008.3,0,.4.056.387.379-.024.6-.008.6-.613.6C18.665,6,17.415,6,16.164,6Z"/><path class="h" d="M8.417,17.617c.412,0,.823.008,1.243,0,.145,0,.21.032.218.2.04.775.048.775-.734.775-.637,0-1.267-.008-1.9.008-.2,0-.282-.04-.282-.258,0-.71-.008-.71.7-.71C7.909,17.617,8.167,17.617,8.417,17.617Z"/><path class="h" d="M23.91,18.585c-.411,0-.823-.008-1.243,0-.145,0-.21-.032-.218-.2-.04-.775-.04-.775.734-.775.637,0,1.267.008,1.9-.008.2,0,.282.04.282.266,0,.71.008.71-.7.71C24.41,18.585,24.16,18.585,23.91,18.585Z"/><path class="i" d="M14.1,19.311a2.368,2.368,0,0,1,.6-3.147,2.312,2.312,0,0,1,2.679-.129,2.043,2.043,0,0,1,.258,1.646,2.478,2.478,0,0,1-3.219,1.807A.759.759,0,0,1,14.1,19.311Z"/><path class="c" d="M14.1,19.312a4.885,4.885,0,0,0,1.081.242,2.409,2.409,0,0,0,2.3-3.171c-.04-.113-.073-.226-.1-.347a2.381,2.381,0,0,1,1.2,2.324,2.418,2.418,0,0,1-2.55,2.154A2.216,2.216,0,0,1,14.1,19.312Z"/></g></g></svg>