<svg xmlns="http://www.w3.org/2000/svg" width="32" height="32" viewBox="0 0 32 32"><defs><style>.a{fill:#fff;stroke:#707070;opacity:0;}.b{fill:#2a5798;}.c{fill:#d1e5ff;}.d{fill:#1e3e6c;}.e{fill:#d7dfef;}.f{fill:#f8b432;}.g{fill:#e39808;}.h{stroke:none;}.i{fill:none;}</style></defs><g transform="translate(-1098.292 -817)"><g class="a" transform="translate(1098.292 817)"><rect class="h" width="32" height="32"/><rect class="i" x="0.5" y="0.5" width="31" height="31"/></g><g transform="translate(1096.543 815.251)"><path class="b" d="M3.105,9.947V9.365A1.372,1.372,0,0,1,3.629,8.5a28.623,28.623,0,0,1,4.6-3.084,26.447,26.447,0,0,1,5.576-2.229,2.323,2.323,0,0,1,1.237,0,26.251,26.251,0,0,1,7.637,3.439A29.391,29.391,0,0,1,25.127,8.4a1.711,1.711,0,0,1,.7,1.614,13.652,13.652,0,0,0-.01,1.54,1.327,1.327,0,0,1-.507,1.086c-.829.7-1.715,1.326-2.6,1.946-1,.6-2,1.208-3.055,1.707a24.452,24.452,0,0,1-4.779,1.757c-.418.1-.49.043-.493-.4,0-.378-.006-.756,0-1.134a.308.308,0,0,0-.287-.354,23.223,23.223,0,0,1-4.423-1.56.762.762,0,0,1-.312-.2c-.062-.155.058-.233.148-.31,1.063-.895,2.1-1.821,3.159-2.721.2-.174.4-.352.606-.529a.977.977,0,0,1,.526-.329,2.761,2.761,0,0,0,1.461-.09,1.155,1.155,0,0,0,.542-.407.659.659,0,0,0-.076-.847A2.139,2.139,0,0,0,13.27,9.07a.835.835,0,0,0-.273.954,4.823,4.823,0,0,1-.853.8c-1.146,1-2.307,1.982-3.442,2.994a.45.45,0,0,1-.215.134,3.482,3.482,0,0,1-1.075-.525,27.814,27.814,0,0,1-3.776-2.62A1.383,1.383,0,0,1,3.105,9.947Z" transform="translate(0 0)"/><path class="c" d="M28.345,15.941a6,6,0,0,1,.988,1.7,10.473,10.473,0,0,1,.5,1.847v.931c-.1.1-.07.233-.1.353a1.132,1.132,0,0,1-.707.843q-3.366,1.366-6.727,2.741a1.968,1.968,0,0,1-.275.069.19.19,0,0,1,.019-.14,3.038,3.038,0,0,0,.235-2.166,7.352,7.352,0,0,0-1.112-2.773c-.062-.095-.153-.178-.131-.31.067-.155.215-.181.345-.233,1.612-.679,3.242-1.313,4.854-1.992a17.458,17.458,0,0,0,2-.866.128.128,0,0,1,.11-.007Z" transform="translate(2.557 1.831)"/><path class="d" d="M3.105,9.079c.247.719.889,1.051,1.428,1.474a24.737,24.737,0,0,0,3.7,2.38,2.723,2.723,0,0,0,.263.106.291.291,0,0,1,.033.14c-.008,1.319.007,2.638-.008,3.957a.639.639,0,0,1-.015.115.7.7,0,0,1-.2.31.811.811,0,0,0,0,1.186.332.332,0,0,1,.035.517c-.172.215-.2.52-.43.7-.419-.319-.833-.647-1.26-.955a1.181,1.181,0,0,1-.489-1.051c.005-1.358-.008-2.716,0-4.074a.438.438,0,0,0-.052-.244.429.429,0,0,0-.177-.174c-.758-.493-1.469-1.051-2.177-1.611A2.03,2.03,0,0,1,3.105,11Z" transform="translate(0 0.851)"/><path class="b" d="M21.9,14.365c0,.984,0,1.969.006,2.952a1.707,1.707,0,0,1-.113.533c-.11.255-.382.241-.574.35-1.557.643-3.117,1.279-4.672,1.928-1.308.5-2.591,1.058-3.89,1.578-.135.054-.271.155-.428.055a24.684,24.684,0,0,1-2.911-1.237c-.09-.068-.076-.17-.082-.264a3.45,3.45,0,0,0-.6-1.785A.327.327,0,0,1,8.674,18a.823.823,0,0,0,0-1.232.8.8,0,0,1-.153-.206.493.493,0,0,1,.013-.371c.116-.1.215-.008.312.037a25.731,25.731,0,0,0,4.02,1.487,2.656,2.656,0,0,0,1.455.032,26.2,26.2,0,0,0,5.841-2.4c.5-.279.993-.574,1.48-.88C21.726,14.419,21.8,14.342,21.9,14.365Z" transform="translate(0.765 1.608)"/><path class="c" d="M17.355,26.428c-.138-.094-.256,0-.373.05L12.433,28.34a.237.237,0,0,1-.057.009.135.135,0,0,1,.022-.137,2.454,2.454,0,0,0,.332-1.895A7.015,7.015,0,0,0,11.6,23.268c-.015-.024-.032-.048-.047-.073-.178-.292-.158-.369.153-.5.564-.238,1.133-.466,1.7-.7,1.326-.549,2.657-1.086,3.987-1.623a.664.664,0,0,1,.439-.1,1.314,1.314,0,0,1,.418.543,7.1,7.1,0,0,1,.993,2.787,3.745,3.745,0,0,1-.058,1.5,1.238,1.238,0,0,1-.4.653A13.868,13.868,0,0,1,17.355,26.428Z" transform="translate(1.19 2.446)"/><path class="e" d="M18.13,20.458a12.818,12.818,0,0,0-1.541.594c-1.537.621-3.064,1.261-4.6,1.88-.206.083-.192.149-.086.3a7.54,7.54,0,0,1,1.161,2.748,4.439,4.439,0,0,1,.023,1.809,1.465,1.465,0,0,1-.39.7,1.288,1.288,0,0,1-1.528-.358,6.571,6.571,0,0,1-1.68-2.949,5.913,5.913,0,0,1-.234-1.855,1.353,1.353,0,0,1,1.019-1.48c.576-.225,1.146-.466,1.72-.7a.221.221,0,0,0,.127-.108,10.888,10.888,0,0,0,1.455-.556c.8-.31,1.6-.65,2.4-.974.149-.06.306-.1.458-.155a.81.81,0,0,1,.8.138,3.545,3.545,0,0,1,.927.887.062.062,0,0,1,0,.043A.061.061,0,0,1,18.13,20.458Z" transform="translate(0.877 2.307)"/><path class="f" d="M17,20.558A.256.256,0,0,0,17,20.506a.989.989,0,0,1,.472-.255c1.3-.543,2.6-1.065,3.9-1.592a.577.577,0,0,1,.192-.054.111.111,0,0,1,.076.037A8.008,8.008,0,0,1,22.829,21.2a4.836,4.836,0,0,1,.153,1.979,1.9,1.9,0,0,1-.371.866,7.387,7.387,0,0,1-1.059.477c-.08.036-.195.037-.2.168-1.016.4-2.026.826-3.042,1.23-.125.05-.251.155-.4.044a1.381,1.381,0,0,0,.469-1.024A6.531,6.531,0,0,0,17,20.558Z" transform="translate(1.986 2.206)"/><path class="f" d="M21.613,24.479l1.05,2.633c.025.061.076.13.02.188s-.143.022-.215,0c-.856-.233-1.714-.452-2.567-.693a.265.265,0,0,0-.364.147c-.448.766-.909,1.524-1.367,2.284l-.187.3-1.11-2.824a.751.751,0,0,1,.407-.249c1.222-.5,2.454-1,3.68-1.5C21.18,24.676,21.4,24.583,21.613,24.479Z" transform="translate(1.968 3.059)"/><path class="f" d="M8.671,16.307a.915.915,0,0,1,.1,1.532c-.114.106-.076.155-.011.252a3.553,3.553,0,0,1,.667,2.166A1.2,1.2,0,0,1,8.1,21.265a.979.979,0,0,1-.355-.847,7.8,7.8,0,0,1,.123-1.968c.047-.251.119-.472.427-.495-.557-.747-.491-1.338.174-1.731a.151.151,0,0,1,.117,0A.154.154,0,0,1,8.671,16.307Z" transform="translate(0.663 1.876)"/><path class="g" d="M21.654,24.565c-.013.137-.134.155-.224.194q-2.256.923-4.515,1.838l-.306-.7c-.007-.151.122-.149.209-.189a9.17,9.17,0,0,0,1.155-.519,17.453,17.453,0,0,0,1.777-.684c.488-.186.969-.388,1.451-.591.076-.032.141-.053.211,0Z" transform="translate(1.931 2.973)"/><path class="g" d="M8.6,16.263c-.548.451-.647.84-.36,1.37a1.087,1.087,0,0,0,.318.318.106.106,0,0,1-.011.043.1.1,0,0,1-.027.035.1.1,0,0,1-.039.02.1.1,0,0,1-.043,0c-.288-.035-.352.149-.388.379a7.114,7.114,0,0,0-.084,2.294,1.409,1.409,0,0,0,.229.552,1.252,1.252,0,0,1-1.069-1.618c.05-.244.13-.483.2-.723.053-.123.1-.246.159-.369a5.576,5.576,0,0,0,.315-.543c.065-.213-.229-.292-.312-.479a.948.948,0,0,1,.371-1.225A.487.487,0,0,1,8.6,16.263Z" transform="translate(0.571 1.861)"/><path class="d" d="M21.908,14.571a10.6,10.6,0,0,1-1.4.886,26.317,26.317,0,0,1-5.23,2.3c-.507.155-1.026.282-1.543.4a1.442,1.442,0,0,1-.7-.119,23.444,23.444,0,0,1-4.462-1.668.481.481,0,0,1-.1-.382q-.005-1.336,0-2.672a.459.459,0,0,1,.1-.379,21.879,21.879,0,0,0,4.856,1.743c.172.037.241.11.238.291-.009.456,0,.912-.006,1.367-.005.219.051.3.281.242a24.12,24.12,0,0,0,4.332-1.53,26.629,26.629,0,0,0,3.444-1.887.309.309,0,0,1,.188-.054Z" transform="translate(0.762 1.408)"/><path class="g" d="M8.681,13.491v3.433l-.01.407-.166-.058a.769.769,0,0,0-.74.059q0-2,.008-4c0-.1-.026-.213.047-.3q2.165-1.886,4.333-3.77a1.051,1.051,0,0,1,.119-.078.087.087,0,0,1,.106.006c.2.212.487.31.7.507a8.962,8.962,0,0,0-1.17.963c-1.021.867-2.03,1.749-3.042,2.627C8.8,13.341,8.7,13.386,8.681,13.491Z" transform="translate(0.666 0.865)"/><path class="f" d="M12.515,9.869a1.936,1.936,0,0,1-.805-.513A.888.888,0,0,1,12.3,8.12a2.124,2.124,0,0,1,2.054.155.762.762,0,0,1,0,1.355A2.174,2.174,0,0,1,12.515,9.869Z" transform="translate(1.223 0.691)"/><path class="e" d="M21.265,19.156l-.044-.007a.321.321,0,0,1-.141-.092,2.53,2.53,0,0,0-1.4-.962.124.124,0,0,1-.065-.054c.175-.129.409-.14.571-.294a3.347,3.347,0,0,0,1.023-.376q2.706-1.086,5.4-2.215a1.217,1.217,0,0,1,1.253.193,1.938,1.938,0,0,1,.694.716,6.508,6.508,0,0,1-1.629.751C25.04,17.607,23.151,18.378,21.265,19.156Z" transform="translate(2.351 1.712)"/><path class="g" d="M20.208,17.664a2.269,2.269,0,0,1,1.609,1.106l-4.6,1.872a5.858,5.858,0,0,0-.835-.79,1.3,1.3,0,0,0-.858-.258,16.935,16.935,0,0,1,1.646-.7c.948-.4,1.9-.786,2.851-1.176A1.5,1.5,0,0,1,20.208,17.664Z" transform="translate(1.774 2.086)"/></g></g></svg>