<svg xmlns="http://www.w3.org/2000/svg" width="32" height="32" viewBox="0 0 32 32"><defs><style>.a{fill:#fff;stroke:#707070;opacity:0;}.b{fill:#2a5798;}.c{fill:#1e3e6c;}.d{fill:#f8b432;}.e{fill:#ca8026;}.f{fill:#e39808;}.g{stroke:none;}.h{fill:none;}</style></defs><g transform="translate(-685.292 -826.898)"><g class="a" transform="translate(685.292 826.898)"><rect class="g" width="32" height="32"/><rect class="h" x="0.5" y="0.5" width="31" height="31"/></g><g transform="translate(684.478 826.147)"><path class="b" d="M27.537,10.169v8.367c-.235.141-.408-.047-.6-.141a4.574,4.574,0,0,0-5.022.392,5.982,5.982,0,0,0-.565.534,4.941,4.941,0,0,0-.973,1.664c-.079.173-.078.392-.282.5-4.347,0-8.694-.047-13.041.016a2.1,2.1,0,0,1-2.134-2.15c.078-3.045.031-6.106.047-9.167a1.333,1.333,0,0,1,.879.235q3.861,1.766,7.737,3.516a2.213,2.213,0,0,1,.847.5,3.937,3.937,0,0,1,.094,1.287,1.721,1.721,0,1,0,3.437.016,4.447,4.447,0,0,1,.078-1.287,4.26,4.26,0,0,1,1.491-.785c2.448-1.13,4.9-2.26,7.376-3.343A.768.768,0,0,1,27.537,10.169Z" transform="translate(0 0.434)"/><path class="b" d="M20.96,6.589c1.522,0,3.044.078,4.567,0a1.969,1.969,0,0,1,2.04,2.041,7.092,7.092,0,0,0-.031.816.8.8,0,0,1-.487.392c-3.029,1.334-6.026,2.763-9.055,4.081a4.18,4.18,0,0,1-3.468,0q-4.567-2.049-9.1-4.128a.678.678,0,0,1-.439-.361c-.016-.816-.173-1.648.534-2.292a1.856,1.856,0,0,1,1.3-.549c1.585.016,3.154,0,4.739-.016a4.579,4.579,0,0,1,1.9-.157q2.8-.047,5.6,0A4.586,4.586,0,0,1,20.96,6.589Z" transform="translate(0.002 0.231)"/><path class="c" d="M20.622,6.82H18.739a.983.983,0,0,1-.173-.722c-.016-.377.016-.738-.016-1.115a.777.777,0,0,0-.785-.785c-1.224-.047-2.464-.047-3.688,0a.758.758,0,0,0-.785.785c-.031.377-.016.738-.016,1.115a.983.983,0,0,1-.173.722H11.222c0-.628-.016-1.256,0-1.884a2.813,2.813,0,0,1,2.793-2.81q1.907-.024,3.813,0a2.8,2.8,0,0,1,2.793,2.81Z" transform="translate(0.34 0)"/><path class="c" d="M4.967,9.289q4.755,2.166,9.526,4.332a.872.872,0,0,1-.141.848c-1.82-.816-3.625-1.633-5.446-2.449-1.318-.6-2.621-1.193-3.939-1.789Z" transform="translate(0.002 0.388)"/><path class="c" d="M17.343,13.621l9.51-4.332v.926c-3.123,1.413-6.262,2.826-9.385,4.238C17.234,14.218,17.3,13.92,17.343,13.621Z" transform="translate(0.669 0.388)"/><path class="d" d="M17.528,13.4c.235.251.063.565.141.848,0,.487,0,.973-.016,1.46a1.884,1.884,0,0,1-3.766,0c-.016-.487-.016-.973-.016-1.46.078-.283-.11-.6.141-.848A4.55,4.55,0,0,0,17.528,13.4Z" transform="translate(0.484 0.61)"/><path class="e" d="M20.592,18.911l-.126-.126a1.352,1.352,0,0,1,.471-.471A1.011,1.011,0,0,1,20.592,18.911Z" transform="translate(0.84 0.876)"/><path class="d" d="M20.751,16.866a4.4,4.4,0,0,1,5.032-.39c.1.058.219.116.336.173A4.705,4.705,0,0,1,27.83,19.4a4.038,4.038,0,0,1-1.141,3.758,4.515,4.515,0,0,1-5.675-.781,4.371,4.371,0,0,1-.7-4.929C20.444,17.242,20.619,17.068,20.751,16.866Z" transform="translate(0.807 0.744)"/><path class="b" d="M25.992,23.36v6.88c-.684-.672-1.28-1.273-1.892-1.859-.262-.243-.437-.572-.815-.672A17.873,17.873,0,0,1,23.3,24.29a.406.406,0,0,1,.349-.215A5.5,5.5,0,0,0,25.7,23.4.267.267,0,0,1,25.992,23.36Z" transform="translate(0.989 1.147)"/><path class="b" d="M23.522,24.219v2.934a.924.924,0,0,1-.1.558c-.81.787-1.605,1.574-2.488,2.433V23.36a.2.2,0,0,1,.2,0,6.419,6.419,0,0,0,2.213.744A.2.2,0,0,1,23.522,24.219Z" transform="translate(0.866 1.147)"/><path class="f" d="M23.623,24.526a4.638,4.638,0,0,1-2.59-.867,4.367,4.367,0,0,1-1.664-4.333,4.1,4.1,0,0,1,1.1-2.08c.1-.029.145,0,.116.116a4.883,4.883,0,0,0-.333,2.874,4.371,4.371,0,0,0,5.9,3.062c.188-.087.362-.3.622-.2-.188.188-.376.361-.55.549A4.854,4.854,0,0,1,23.623,24.526Z" transform="translate(0.777 0.817)"/></g></g></svg>