<svg xmlns="http://www.w3.org/2000/svg" width="103.864" height="93.809" viewBox="0 0 103.864 93.809">
  <g id="_18_Teacher" data-name="18 Teacher" transform="translate(-2.111 -8)">
    <path id="Path_4392" data-name="Path 4392" d="M55.772,72.5c-2.744,1.544-5.8,3.913-8.986,4.36-4.22.594-7.213-2.278-10.33-4.588H12.341A1.737,1.737,0,0,1,10.6,70.54V18.423a5.217,5.217,0,0,1,5.212-5.212H92.253a5.217,5.217,0,0,1,5.212,5.212v35.1c.088.13.187.25.268.385l4.944,8.241V13.212A5.217,5.217,0,0,0,97.465,8H10.6a5.217,5.217,0,0,0-5.212,5.212V74.1c-4.67.86-4.334,8.6.869,8.6h49.51Z" transform="translate(0)" fill="#2a5798"/>
    <path id="Path_4393" data-name="Path 4393" d="M63.266,48.235l-4.224,5.281c3.333.057,5.851-2.486,4.665-5.929C63.563,47.805,63.431,48.029,63.266,48.235Z" transform="translate(41.97 29.184)" fill="#f6b333"/>
    <rect id="Rectangle_2128" data-name="Rectangle 2128" width="19.109" height="24.321" rx="1" transform="translate(15.816 20.16)" fill="#2a5798"/>
    <path id="Path_4394" data-name="Path 4394" d="M40.347,18.474H24.712a1.738,1.738,0,0,1,0-3.474H40.347a1.738,1.738,0,0,1,0,3.474Z" transform="translate(15.425 5.16)" fill="#2a5798"/>
    <path id="Path_4395" data-name="Path 4395" d="M40.347,22.474H24.712a1.738,1.738,0,0,1,0-3.474H40.347a1.738,1.738,0,0,1,0,3.474Z" transform="translate(15.425 8.109)" fill="#2a5798"/>
    <path id="Path_4396" data-name="Path 4396" d="M40.347,26.474H24.712a1.738,1.738,0,0,1,0-3.474H40.347a1.738,1.738,0,0,1,0,3.474Z" transform="translate(15.425 11.058)" fill="#2a5798"/>
    <path id="Path_4397" data-name="Path 4397" d="M40.347,30.474H24.712a1.738,1.738,0,0,1,0-3.474H40.347a1.738,1.738,0,0,1,0,3.474Z" transform="translate(15.425 14.007)" fill="#2a5798"/>
    <path id="Path_4398" data-name="Path 4398" d="M54.679,18.444h-16a3.8,3.8,0,0,0-3.668,4.228,9.8,9.8,0,0,0,3.88,7.821,12.121,12.121,0,1,0,23.675,5.212,11.918,11.918,0,0,0,.152-3.685,3.656,3.656,0,0,0,1.825-3.153v-.56a9.874,9.874,0,0,0-9.863-9.863Z" transform="translate(24.236 7.7)" fill="#f6b333"/>
    <path id="Path_4399" data-name="Path 4399" d="M16.415,41.773l6.746-7.69-2.594-2.358c-4.43-3.683-10.493,3.943-6.532,7.887l2.276,1.876a1.661,1.661,0,0,0,.1.285Z" transform="translate(7.844 16.769)" fill="#f6b333"/>
    <path id="Path_4400" data-name="Path 4400" d="M92.173,49.865l-7.922-13.2a5.39,5.39,0,0,0-4.47-2.536H69.589a1.679,1.679,0,0,0-.955.3q-4.2,4.926-8.339.017a1.677,1.677,0,0,0-.99-.313H50.48a1.763,1.763,0,0,0-.973.3L35.87,42.1a1.726,1.726,0,0,1-1.65-.052L23.355,33.829l-7,7.975L32.187,53.531a5.306,5.306,0,0,0,5.333.313L48.743,47.52V77.556a5.227,5.227,0,0,0,5.212,5.212H74.8a5.227,5.227,0,0,0,5.212-5.212V75.32a11.2,11.2,0,0,1-5.368,3.693,8.266,8.266,0,0,1-7.864-2.794,7.925,7.925,0,0,1-1.245-8.76,17.772,17.772,0,0,1,3.578-4.107,1.725,1.725,0,0,1,.376-1.22L77.1,52.727l-.216-7.115,3.822,6.369a1.738,1.738,0,0,1-.139,1.987L73.175,63.1l7.4,7.4,11.437-14.3a5.445,5.445,0,0,0,.156-6.341Z" transform="translate(10.503 19.041)" fill="#f6b333"/>
    <path id="Path_4401" data-name="Path 4401" d="M47.421,54.263a4.145,4.145,0,0,0-.884,4.594,5.137,5.137,0,0,0,4.5,3.159,4.1,4.1,0,0,0,2.906-1.233l1.852-1.851-6.52-6.52Z" transform="translate(32.498 32.741)" fill="#f6b333"/>
  </g>
</svg>
