<svg xmlns="http://www.w3.org/2000/svg" width="259.341" height="189.936" viewBox="0 0 259.341 189.936"><defs><style>.a{fill:#d1e4ff;}.b{fill:#f6b333;}.c{fill:#191919;}.d{fill:#006bde;}.e{fill:#18315b;}.f{fill:#000b29;}.g{fill:#f97853;}.h{fill:#ea5143;}.i{fill:#ffa681;}.j{fill:#2a5798;}.k{fill:#143c77;}.l{fill:#fff;}.m{fill:#ce8700;}.n{fill:#ffbda1;}.o{fill:#bbe2f2;}</style></defs><g transform="translate(-15.725 -85.328)"><g transform="translate(15.725 119.445)"><path class="a" d="M437.6,321.751c6.9-6.937,12.156-14.776,6.928-16S430.5,318.19,428.972,330.625l-1.532,4.105c1.274-9.043-1.824-20.057-6.361-20.511-4.507-.451-1.779,6.694,1.8,12.8A25.279,25.279,0,0,1,426.5,337.24l-7.238,19.39c1.978-14.326-2.932-31.706-10.109-32.425-7.153-.715-2.824,10.622,2.857,20.316,4.294,7.327,5.449,13.121,5.744,16.149l-1.443,3.866q.946.533,1.9,1.055l8.612-23.069a27.826,27.826,0,0,1,7.776-3.954c6.709-2.269,13.451-5.879,9.751-8.492-3.212-2.267-10.762,2.1-15.963,8.259l2.978-7.978A40.423,40.423,0,0,1,437.6,321.751Z" transform="translate(-187.303 -216.461)"/><path class="a" d="M59.09,161.068c.895-8.378.2-16.476-3.972-14.479s-2.711,15.911,2.964,25.088l1.184,3.583c-4.019-6.76-12.037-12.487-15.329-10.346-3.27,2.127,2.413,5.455,8.112,7.628a21.79,21.79,0,0,1,7.941,4.908l5.591,16.924c-6.394-10.687-19.06-19.713-24.268-16.326-5.189,3.375,3.83,8.655,12.871,12.1A34.656,34.656,0,0,1,66.747,197.9l1.115,3.374q.924-.152,1.844-.316l-6.652-20.134a23.97,23.97,0,0,1,3.09-6.847c3.282-5.14,5.865-11.2,1.971-10.959-3.38.208-6.1,7.21-6.269,14.151l-2.3-6.963A34.829,34.829,0,0,1,59.09,161.068Z" transform="translate(-26.321 -146.282)"/><g transform="translate(203.261 65.571)"><path class="b" d="M379.33,326.2c.088.475.189.993.308,1.544v0c1.243,5.777,4.293,15.234,11.157,17.094,0,0-3.736-19.48,9.579-24.553s11.843-9.9,11.082-18.5-3.7-10.238,5.535-18.293,7.472-20.052,7.472-20.052-8.744,13.7-18.083,14.016-10.974,8.29-10.576,14.219-7.533,6.6-11.825,10.038-5.1,21.5-5.1,21.5S379,324.385,379.33,326.2Z" transform="translate(-378.88 -263.434)"/><g transform="translate(0.45 17.527)"><path class="c" d="M379.684,339.985c.088.475.189.993.308,1.544a29.5,29.5,0,0,1,3.565-7.2c2.987-4.425,7.193-8.06,10.976-9.487,6.024-2.27,8.965-8.178,9.535-19.158.33-6.373,7-10.138,7.066-10.174a.4.4,0,0,0-.392-.708c-.291.161-7.128,4.014-7.483,10.84-.55,10.614-3.33,16.3-9.012,18.445-3.992,1.5-8.24,5.164-11.363,9.79A30.718,30.718,0,0,0,379.684,339.985Z" transform="translate(-379.684 -294.749)"/></g></g><g transform="translate(0 93.279)"><path class="b" d="M72.05,366.526h9.357c-5.056-.836-17.591-6.217-18.708-17.008-1.416-13.668-6.283-13.5-14.483-14.926s-10.46.9-15.667-9.706-16.824-11.948-16.824-11.948,10.588,11.553,8.561,20.333,5,12.287,10.618,13.39,4.275,8.66,6.411,13.513c.975,2.215,4.966,4.511,9.018,6.353Z" transform="translate(-15.725 -312.938)"/><g transform="translate(12.865 17)"><path class="c" d="M61.9,366.445c.409,4.093,2.762,8.961,6.3,13.021.124.143.254.288.385.434H69.65c-.305-.321-.593-.637-.862-.946-3.38-3.883-5.721-8.706-6.11-12.586-.616-6.177-5.389-10.387-15.477-13.648-5.856-1.892-7.7-9.04-7.722-9.114a.39.39,0,0,0-.757.189c.077.311,1.966,7.64,8.238,9.667C56.712,356.614,61.321,360.619,61.9,366.445Z" transform="translate(-38.71 -343.311)"/></g></g><g transform="translate(5.855 25.027)"><path class="a" d="M81.7,287.471c-.2.664-.423,1.387-.676,2.155v0c-2.66,8.051-8.117,21.611-18.2,23.209,0,0,7.976-27.754-10.239-37.038s-15.372-15.95-12.965-28.1,6.857-14.037-5.085-26.947S26.965,191,26.965,191s10.368,20.886,23.642,22.775,14.381,13.514,12.9,21.911,9.733,10.572,15.326,16.138,3.971,31.451,3.971,31.451S82.455,284.937,81.7,287.471Z" transform="translate(-26.186 -190.997)"/><g transform="translate(17.241 27.134)"><path class="d" d="M95.265,308.816c-.2.664-.423,1.387-.676,2.155a42.359,42.359,0,0,0-3.979-10.822c-3.58-6.772-9.023-12.605-14.2-15.222-8.245-4.164-11.532-13.045-10.657-28.8.508-9.143-8.425-15.538-8.517-15.6a.581.581,0,0,1,.667-.95c.39.274,9.553,6.822,9.009,16.614-.847,15.226,2.244,23.77,10.021,27.7,5.463,2.759,10.96,8.634,14.7,15.713A44.008,44.008,0,0,1,95.265,308.816Z" transform="translate(-56.989 -239.476)"/></g></g></g><g transform="translate(15.725 111.368)"><g transform="translate(46.266 130.582)"><path class="e" d="M138.17,382.99c.031,2.11.069,4.306.115,6.527h20.351c.039-2.431.069-4.761.091-6.947.062-5.923.068-10.8.064-13.828,0-2.149-.011-3.368-.011-3.368l-20.752-.22s0,1.793.016,4.724C138.057,373.139,138.093,377.8,138.17,382.99Z" transform="translate(-138.027 -365.155)"/><path class="f" d="M138.056,372.7c.013,3.259.05,7.925.127,13.111a102,102,0,0,0,20.556-.42c.062-5.923.068-10.8.064-13.828Z" transform="translate(-138.04 -367.977)"/></g><g transform="translate(20.733 130.582)"><path class="e" d="M92.438,378.311c.023,3.317.063,7.117.128,11.206h20.353c.05-2.394.091-4.759.124-7.019.071-4.85.107-9.217.125-12.355.016-3.089.016-4.988.016-4.988l-20.761.22s-.016,2.2-.011,5.9C92.411,373.238,92.42,375.615,92.438,378.311Z" transform="translate(-92.41 -365.155)"/><path class="f" d="M92.412,375.2c0,1.958.009,4.335.027,7.031a127.247,127.247,0,0,0,20.6,4.187c.071-4.85.107-9.217.125-12.355Z" transform="translate(-92.411 -369.079)"/></g><g transform="translate(28.76)"><path class="c" d="M132.88,153.249s3.27-3.149,3.259-6.26-2.125-2.192-3.259-5.09-4.506-4.666-6.354-4.312-5.752-6.857-11.046-5.585-4.834,8.059-7.114,9.049-1.644,5.019-.442,5.938,1.71,4.611,2.386,4.529S132.88,153.249,132.88,153.249Z" transform="translate(-106.789 -131.852)"/><g transform="translate(0 19.951)"><path class="g" d="M110.831,168.869s-2.056-2.741-3.585-.475.633,8.962,4.376,7.328Z" transform="translate(-106.751 -167.496)"/><g transform="translate(0.803 2.4)"><path class="h" d="M111.436,175.541a.317.317,0,0,1-.3-.231,4.892,4.892,0,0,0-2.743-2.913.316.316,0,0,1,.224-.592,5.446,5.446,0,0,1,3.128,3.334.317.317,0,0,1-.219.39A.326.326,0,0,1,111.436,175.541Z" transform="translate(-108.185 -171.785)"/></g><g transform="translate(1.576 3.643)"><path class="h" d="M109.883,175.477a.316.316,0,0,1-.266-.487,2.89,2.89,0,0,1,1.187-.957.316.316,0,0,1,.259.578,2.3,2.3,0,0,0-.914.722A.315.315,0,0,1,109.883,175.477Z" transform="translate(-109.567 -174.004)"/></g></g><g transform="translate(24.479 19.951)"><path class="g" d="M151.277,168.869s2.056-2.741,3.585-.475-.633,8.962-4.376,7.328Z" transform="translate(-150.486 -167.496)"/><g transform="translate(0.5 2.4)"><path class="h" d="M151.7,175.541a.317.317,0,0,0,.3-.231,4.89,4.89,0,0,1,2.743-2.913.316.316,0,0,0-.224-.592,5.447,5.447,0,0,0-3.129,3.334.317.317,0,0,0,.219.39A.326.326,0,0,0,151.7,175.541Z" transform="translate(-151.38 -171.785)"/></g><g transform="translate(1.612 3.643)"><path class="h" d="M154.733,175.477a.316.316,0,0,0,.266-.487,2.89,2.89,0,0,0-1.187-.957.316.316,0,0,0-.259.578,2.292,2.292,0,0,1,.913.722A.316.316,0,0,0,154.733,175.477Z" transform="translate(-153.366 -174.004)"/></g></g><path class="i" d="M134.353,192.339V199s-1.986,3.391-4.671,3.622-5.067-2.919-5.067-2.919v-6.893Z" transform="translate(-114.616 -158.484)"/><path class="g" d="M134.353,192.339v2.954c-1.8,2-5,2.5-9.738,1.8v-4.286Z" transform="translate(-114.616 -158.484)"/><path class="i" d="M135.753,155.209a64.815,64.815,0,0,1-.864,8.411c-.123.645-.262,1.253-.418,1.8-1.4,4.906-4.906,13.321-14.718,9.816-4.334-1.547-6.343-6.374-7.238-11.283a47.474,47.474,0,0,1-.655-9.11,6.952,6.952,0,0,1,3.527-5.916c5.792-3.283,11.9-2.059,15.927-.512A6.93,6.93,0,0,1,135.753,155.209Z" transform="translate(-108.997 -138.454)"/><path class="c" d="M113.04,177.064a51.352,51.352,0,0,0,1.852,7.74c.9,2.068,3.358,2.458,4.28,4.206,1.316,2.492,3.322,4.466,6.621,3.263,2.745-1,2.621-2.405,4.159-3.491,2.635-1.861,3.941-3.908,4.047-5.6a53.707,53.707,0,0,1,1.414-6.443l-1.414-.1a36.808,36.808,0,0,1-1.991,3.508c-1.19-2.613-6.922-.712-6.922-.712h-2.219s-5.8-1.82-6.945.921a10.329,10.329,0,0,1-1.531-3.559Zm10.951,3.605c6.574-1.128,5.4,2.721,5.357,2.858v0l0,0A6.518,6.518,0,0,1,128,184.556c-2.547,1.376-2.823,1.169-3.828,1.213a7.556,7.556,0,0,1-3.864-1.054,10.957,10.957,0,0,1-1.841-1.4S117.43,179.784,123.991,180.669Z" transform="translate(-109.52 -151.569)"/><path class="c" d="M135.938,155.137a63.753,63.753,0,0,1-1.243,8.268l-1.4-.193s.356-2.236.514-3.659.427-4.084-.787-4.416-.5-3.364-2.187-4.68-5.431-2.48-7.917-.949-5.314.683-6.46.949-2.7,1.844-2.284,3.321-.841,2.373-1.148,3.9.688,5.718.688,5.718l-1.368.3a52.916,52.916,0,0,1-.922-9.383,7.378,7.378,0,0,1,3.367-6.258c5.792-3.283,12.632-2.2,16.656-.652C134.242,148.473,136.08,152.154,135.938,155.137Z" transform="translate(-108.832 -138.095)"/></g><g transform="translate(16.426 40.594)"><path class="j" d="M139.606,304.592a112.518,112.518,0,0,1-19.205,3.151c-.29.021-.578.043-.869.062q-1.321.089-2.641.147a108.982,108.982,0,0,1-13.071-.221q-1.318-.1-2.635-.236c-.281-.027-.561-.057-.843-.089a114.469,114.469,0,0,1-15.611-2.814c-.052-4.8.007-19.96.3-36.4.034-1.976.072-3.971.116-5.969.461-21.673,1.352-43.672,2.952-45.875,1.535-2.109,6.161-4.789,10.583-7.207l.79-.43c.994-.541,1.966-1.064,2.88-1.56,1.96-1.066,3.649-2.014,4.694-2.746v.6s2.381,3.152,5.064,2.919c2.446-.21,4.308-3.036,4.624-3.542a61.971,61.971,0,0,0,5.628,3.2c.669.354,1.36.717,2.065,1.091l.783.415c4.891,2.594,10.164,5.518,11.747,7.692a2.7,2.7,0,0,1,.339.8c.936,3.171,1.518,13.695,1.872,26.439l0,.138c.016.515.028,1.034.041,1.556,0,.068,0,.137.006.206.116,4.471.2,9.176.271,13.905.006.375.013.751.017,1.126,0,.189,0,.376.006.564q.024,1.4.034,2.789.014,1.026.024,2.051C139.749,283.444,139.677,299.567,139.606,304.592Z" transform="translate(-84.714 -204.378)"/><g transform="translate(47.167 29.811)"><path class="k" d="M176.319,269.162c-1.54-2.515-3.194-5.083-4.751-7.354,0-.006-.008-.012-.011-.017-.654-.953-1.291-1.853-1.9-2.676a.313.313,0,0,0-.031-.042c-.189-.259-.377-.509-.56-.753a.469.469,0,0,1-.067-.133v0a.425.425,0,0,1,.746-.377c1.871,2.479,4.263,6.042,6.526,9.659l0,.138C176.294,268.121,176.306,268.64,176.319,269.162Z" transform="translate(-168.984 -257.64)"/></g><path class="j" d="M176.986,225.907s9.652,17.684,15.536,26.646c0,0,3.346-3.074,7.7-7.186,4.718-4.459,11.171-11.91,11.171-11.91l3.571,4.235s-14.5,26.091-21,29.37-18.487-19.93-18.487-19.93Z" transform="translate(-124.674 -213.857)"/><g transform="translate(3.822 61.529)"><path class="k" d="M99.164,334.524h-.016a.436.436,0,0,1-.421-.452c.506-14.281-6.9-18.908-6.974-18.953a.437.437,0,0,1,.448-.749,13.311,13.311,0,0,1,3.936,4.286c1.731,2.782,3.736,7.72,3.462,15.448A.437.437,0,0,1,99.164,334.524Z" transform="translate(-91.542 -314.308)"/></g><g transform="translate(42.566 44.078)"><path class="k" d="M161.234,307.342a.437.437,0,0,1-.435-.4c-.234-3.007.757-5.2,2.01-7.978.367-.813.747-1.652,1.135-2.595,2.434-5.9,1.211-12.653,1.2-12.72a.436.436,0,0,1,.858-.161c.054.286,1.283,7.074-1.249,13.214-.394.955-.776,1.8-1.146,2.621-1.25,2.767-2.153,4.766-1.935,7.551a.437.437,0,0,1-.4.469Z" transform="translate(-160.765 -283.129)"/></g><g transform="translate(17.64)"><path class="l" d="M116.231,207.146c.186,1.406.46,3.23.759,5.3.091.615.182,1.253.276,1.909.3,2.14.617,4.468.884,6.822.072.632.14,1.266.2,1.9.236,2.331.414,4.647.477,6.8q.032.977.025,1.9a30.272,30.272,0,0,1-.294,4.445q-.191,1.224-.339,2.394-.124.971-.223,1.909c-.255,2.429-.382,4.689-.418,6.821q-.016.97-.006,1.9c.019,2.42.157,4.674.356,6.821.059.643.125,1.274.193,1.9.261,2.345.579,4.578.878,6.786q.13.949.254,1.892c.13,1.01.252,2.019.359,3.035.113,1.077.184,2.337.218,3.734.017.611.025,1.249.027,1.909.009,2.089-.044,4.4-.142,6.823q-.038.948-.085,1.919c-.108,2.248-.25,4.559-.409,6.841q-.071.964-.142,1.917c-.176,2.375-.371,4.689-.569,6.841-.059.653-.119,1.292-.178,1.911-.227,2.369-.447,4.475-.64,6.154a108.76,108.76,0,0,0,13.072.221c.1-1.788.379-4.672.653-8.067.051-.621.1-1.262.148-1.915.163-2.159.312-4.466.409-6.795.028-.638.051-1.279.068-1.917.065-2.324.068-4.634-.032-6.8-.03-.657-.068-1.3-.119-1.925s-.113-1.264-.187-1.866a38.073,38.073,0,0,1-.28-4.95c0-.64.019-1.276.049-1.915.1-2.214.341-4.432.621-6.788.074-.626.153-1.262.231-1.911.252-2.1.516-4.318.723-6.751.055-.624.1-1.262.151-1.915.144-2.087.242-4.328.257-6.771q.006-.944-.007-1.93c-.023-2.115-.112-4.377-.284-6.814-.015-.216-.03-.435-.047-.655-.032-.426-.059-.856-.078-1.287a64.722,64.722,0,0,1,.043-6.789q.051-.96.125-1.921c.176-2.282.433-4.543.729-6.71q.13-.967.271-1.911c.357-2.375.74-4.61,1.092-6.608.117-.658.229-1.29.335-1.892.24-1.349.447-2.551.6-3.569a62.169,62.169,0,0,1-5.628-3.2c-.316.507-2.178,3.331-4.625,3.542-2.683.233-5.064-2.918-5.064-2.918v-.6C119.88,205.131,118.191,206.079,116.231,207.146Z" transform="translate(-116.231 -204.378)"/></g><g transform="translate(13.969 4.292)"><g transform="translate(20.849)"><path class="k" d="M146.921,311.182c.29-.019.579-.04.87-.062,1.718-10.1.727-24.923.358-29.465a49.659,49.659,0,0,1,2.013-16.635c1.289-4.547.5-15.089-.136-23.559-.178-2.378-.348-4.623-.447-6.469-.325-5.963,1.834-17,3.024-22.531l-.782-.415c-1.192,5.476-3.429,16.762-3.09,22.993.1,1.853.271,4.1.449,6.485.63,8.4,1.415,18.862.168,23.262a50.508,50.508,0,0,0-2.042,16.936C147.672,286.272,148.668,301.189,146.921,311.182Z" transform="translate(-146.921 -212.047)"/></g><g transform="translate(0 0.036)"><path class="k" d="M112.925,270.119a55.041,55.041,0,0,1,.322,14.911c-.119,1.51-.242,3.069-.329,4.791-.269,5.4-1.183,16.285-1.588,20.991.282.032.562.062.844.089.405-4.706,1.321-15.615,1.592-21.038.085-1.709.208-3.264.327-4.765a55.823,55.823,0,0,0-.333-15.114c-.218-1.355-.452-2.729-.683-4.1-1.143-6.767-2.327-13.766-1.766-17.119.135-.818.31-1.747.5-2.731.76-4.046,1.707-9.081,1.408-13.449-.3-4.33-2.071-16.056-2.753-20.476l-.791.43c.71,4.622,2.409,15.9,2.7,20.1.291,4.26-.644,9.237-1.4,13.235-.186.988-.363,1.921-.5,2.748-.581,3.493.56,10.247,1.769,17.4C112.473,267.394,112.7,268.766,112.925,270.119Z" transform="translate(-109.672 -212.111)"/></g></g></g><g transform="translate(0 53.028)"><path class="i" d="M72.322,238.575s-8.64,28.813-10.78,39.082-2.305,31.615-2.305,31.615S55.46,317.113,55.37,320.6c-.1,3.72,1.858,6.68,1.635,9.114s2.741,1.113,1.9-3.818,1.538-9.4,2.563-9.254-.848,5.384.062,7.272,2.089-1.78,3.26-4.006c1.217-2.312,1.146-7.355.592-10.955s5.972-25.466,6-31.8l8.264-27.924S76.924,237.574,72.322,238.575Z" transform="translate(-55.367 -231.842)"/><path class="j" d="M83.208,243.281a73.789,73.789,0,0,1-2.64,9.03v0c-.112.337-.227.681-.341,1.03a.317.317,0,0,0-.017.049c-.331.995-.677,2.036-1.033,3.113l-.006.019c-1.465,4.449-3.088,9.539-4.449,14.768-.468,1.79-.906,3.6-1.293,5.4-.5,2.3-.916,4.6-1.224,6.842-1.1,8.09-3.217,18.338-3.217,18.338-3.1,1.272-7.942-.408-7.942-.408s-.125-14.758.566-20.492A153.608,153.608,0,0,1,64.9,263.044a228.971,228.971,0,0,1,12.035-35.685c.142-.331.255-.587.333-.765h1.542C81.847,228.521,84,238.293,83.208,243.281Z" transform="translate(-57.863 -226.593)"/><path class="k" d="M60.6,355.085l.243,3.4s4.605,1.5,8.058.443l.913-3.029A25.644,25.644,0,0,1,60.6,355.085Z" transform="translate(-57.672 -283.167)"/><g transform="translate(15.565 25.297)"><path class="k" d="M90.316,272.21v0a.446.446,0,0,1-.025.146c-.1.287-.21.582-.316.884a.32.32,0,0,0-.017.049c-.34.963-.685,2.01-1.033,3.113l-.006.019a167.46,167.46,0,0,0-4.483,17.557c.008-.927.019-1.858.034-2.789-.468,1.79-.906,3.6-1.293,5.4a65.043,65.043,0,0,1,1.316-7.092,166.222,166.222,0,0,1,5-17.434.424.424,0,0,1,.823.142Z" transform="translate(-83.176 -271.789)"/></g></g></g><g transform="translate(151.815 110.779)"><g transform="translate(62.496 139.731)"><path class="k" d="M371.392,396.251H391.8c-.067-1.416-.134-2.773-.2-4.055-.356-6.989-.658-11.747-.658-11.747l-16.6.737-1.376.063-2.441.109s.236,4.255.6,10.489C371.21,393.225,371.3,394.7,371.392,396.251Z" transform="translate(-370.527 -380.449)"/><path class="k" d="M372.969,381.249l-2.441.109s.236,4.255.6,10.489a148.26,148.26,0,0,0,20.472.349c-.356-6.989-.658-11.747-.658-11.747l-16.6.737Z" transform="translate(-370.527 -380.449)"/><g transform="translate(2.44 0.738)"><path class="k" d="M377.111,396.831c-.373-6.469-.679-12-.847-15.064l-1.376.062c.167,3.054.472,8.555.844,15Z" transform="translate(-374.887 -381.768)"/></g></g><g transform="translate(36.963 139.731)"><path class="k" d="M345.318,396.251c.105-1.753.2-3.415.293-4.946.351-5.938.572-9.947.572-9.947l-2.649-.118-1.374-.062-16.4-.729s-.18,2.836-.426,7.344c-.13,2.4-.28,5.281-.431,8.458Z" transform="translate(-324.908 -380.449)"/><path class="k" d="M325.678,387.793a180.322,180.322,0,0,0,20.273,3.512c.352-5.938.572-9.947.572-9.947l-2.649-.118-1.374-.062-16.395-.729S325.925,383.285,325.678,387.793Z" transform="translate(-325.247 -380.449)"/><g transform="translate(16.404 0.729)"><path class="k" d="M355.595,396.824c.372-6.453.677-11.958.843-15.011l-1.374-.062c-.168,3.066-.474,8.6-.847,15.072Z" transform="translate(-354.216 -381.752)"/></g></g><g transform="translate(34.862 41.532)"><path class="j" d="M372.169,306.383a98.017,98.017,0,0,1-12.472,2.588q-2.169.3-4.335.5-2.923.27-5.843.363a92.506,92.506,0,0,1-9.663-.21,97.9,97.9,0,0,1-18.685-3.245c-.058-5.808.03-26.635.466-46.723.021-.9.041-1.8.063-2.7,0-.191.008-.381.013-.571,0-.208.01-.415.016-.621.014-.638.031-1.273.046-1.9q.049-1.936.1-3.837.034-1.137.068-2.257c0-.155.01-.309.014-.462q.024-.739.046-1.469v0c.006-.151.01-.3.016-.453.014-.448.03-.894.044-1.336.014-.377.027-.747.04-1.12.482-13.551,1.188-24.24,2.2-25.746,1.713-2.555,7.546-5.946,12.238-8.707,1.671-.982,3.668-2,4.81-2.761,1.666,1.342,2.875,2.553,5.345,2.471,2.763-.095,3.445-1.756,4.5-3.181.644.418,2.277,1.758,3.127,2.256.727.429,1.513.883,2.335,1.356,1.269.727,2.619,1.5,3.957,2.285,1.982,1.167,3.935,2.37,5.556,3.52a14.659,14.659,0,0,1,3.54,3.2c.917,1.377,1.511,10.291,1.893,22.022.016.411.027.827.043,1.246,0,.05,0,.1,0,.153.016.427.029.864.039,1.3q.057,1.981.11,4.041c.007.289.014.581.019.871.006.219.013.439.014.655.013.564.025,1.13.038,1.7,0,.114,0,.229.007.343.031,1.505.06,3.031.087,4.571q.013.675.022,1.353C372.329,277,372.249,300.142,372.169,306.383Z" transform="translate(-321.155 -205.003)"/><path class="k" d="M372.431,286.074l-6.583,6.678-6.134-6.218-6.132,6.218-6.156-6.244-6.159,6.244-6.2-6.284-6.2,6.284-6.692-6.786c.014-.638.031-1.273.046-1.9q.049-1.936.1-3.837l6.542-6.636,6.2,6.286,6.2-6.286,6.159,6.244,6.156-6.244,6.132,6.218,6.134-6.218,6.474,6.563c.031,1.505.06,3.031.087,4.571Q372.422,285.4,372.431,286.074Z" transform="translate(-321.606 -235.2)"/><g transform="translate(9.963 69.839)"><path class="j" d="M368.454,345.235h0c-8.815-.039-16.34-4.05-21.1-7.408a48.327,48.327,0,0,1-8.3-7.349.424.424,0,0,1,.649-.546,47.408,47.408,0,0,0,8.158,7.216c4.656,3.282,12.009,7.2,20.595,7.24a.424.424,0,0,1,0,.848Z" transform="translate(-338.954 -329.78)"/></g><g transform="translate(19.367 71.849)"><path class="j" d="M370.353,341.6c-7.506-1.475-14.149-7.224-14.451-7.488a.424.424,0,1,1,.558-.639c.078.068,7.9,6.829,15.864,7.556a.424.424,0,1,1-.077.845A18.5,18.5,0,0,1,370.353,341.6Z" transform="translate(-355.757 -333.371)"/></g><g transform="translate(18.508 4.733)"><path class="j" d="M354.645,223.572a.424.424,0,0,1-.078-.841c10.747-2.039,13.987-8.953,14.018-9.023a.424.424,0,1,1,.773.349c-.136.3-3.456,7.386-14.633,9.507A.425.425,0,0,1,354.645,223.572Z" transform="translate(-354.221 -213.459)"/></g><g transform="translate(0.804 32.946)"><path class="j" d="M327.605,264.377v0a.413.413,0,0,1-.058.135c-.161.258-.329.525-.5.8a.445.445,0,0,0-.025.045c-.538.869-1.1,1.819-1.675,2.822a.033.033,0,0,1-.01.017c-.9,1.578-1.835,3.289-2.749,5.028q.024-.739.046-1.469v0c.006-.151.01-.3.016-.453,1.474-2.736,2.944-5.3,4.177-7.238a.425.425,0,0,1,.774.315Z" transform="translate(-322.592 -263.866)"/></g></g><g transform="translate(73.003)"><path class="i" d="M423.328,203.208s13.744-4.417,17.811-13.436c1.177-2.612-8.514-29.131-8.514-29.131l-4.677.227s1.333,9.2,2.141,14.41c.665,4.284,1.738,9.4,2.1,11.088l.123.569c-.229.04-.46.084-.693.13-6.422,1.3-14.62,5.487-14.62,5.487Z" transform="translate(-401.495 -143.939)"/><g transform="translate(30.123 42.428)"><path class="g" d="M447.264,209.713a.441.441,0,0,0,.615-.1.433.433,0,0,0-.1-.615,34.541,34.541,0,0,0-4.094-2.4l.123.569c-.229.04-.46.084-.693.13A34.711,34.711,0,0,1,447.264,209.713Z" transform="translate(-443.118 -206.603)"/></g><path class="j" d="M390.1,212.266s-4.157,9.756,6.426,15.187c7.325,3.759,24.01-6.055,24.01-6.055l-5.949-12.63S399.325,215.065,390.1,212.266Z" transform="translate(-389.299 -165.128)"/><path class="i" d="M433.834,132.593c-.414.29-.329,2.082-.147,3.77l-.178.029c-.492-2.252-1.471-6.083-2.309-5.352-.549.479.186,3.782.686,5.758l-.311.1c-.631-2.345-1.99-6.863-2.9-5.984-.6.587.555,4.564,1.2,6.593l-.264.1c-.616-1.968-1.931-5.692-2.832-4.817-.816.792,1.522,6.422,1.522,6.422h0l.613,2.21s-.729.315-1.866-.972-2.5-1.512-1.553.348c1.067,2.1,2.647,3.611,3.342,5.1s2.883,1.98,2.883,1.98l4.392-.213s.852-7.423-.786-10.962h0C435.05,134.6,434.555,132.088,433.834,132.593Z" transform="translate(-405.099 -130.799)"/></g><g transform="translate(44.951 5.38)"><path class="e" d="M343.549,153.945c0,7.482,4.606,12.636,12.084,12.636s12.7-5.542,12.7-13.023a16.034,16.034,0,0,0-.984-5.695c-.038-.1-.076-.2-.118-.3-.079-.194-.162-.387-.251-.574-.13-.289-.276-.571-.428-.845a11.075,11.075,0,0,0-10.132-5.732C347.447,140.411,343.549,146.464,343.549,153.945Z" transform="translate(-341.104 -140.411)"/><g transform="translate(0 15.368)"><path class="g" d="M343.305,169.255s-2.078-2.771-3.624-.48.639,9.059,4.423,7.407Z" transform="translate(-339.181 -167.868)"/><g transform="translate(0.811 2.426)"><path class="h" d="M343.917,176a.32.32,0,0,1-.308-.234,4.942,4.942,0,0,0-2.773-2.945.32.32,0,0,1,.227-.6,5.508,5.508,0,0,1,3.162,3.371.319.319,0,0,1-.221.394A.311.311,0,0,1,343.917,176Z" transform="translate(-340.63 -172.202)"/></g><g transform="translate(1.593 3.682)"><path class="h" d="M342.347,175.935a.317.317,0,0,1-.173-.051.32.32,0,0,1-.1-.442,2.92,2.92,0,0,1,1.2-.967.32.32,0,0,1,.261.584,2.31,2.31,0,0,0-.923.73A.319.319,0,0,1,342.347,175.935Z" transform="translate(-342.027 -174.447)"/></g></g><g transform="translate(24.744 15.368)"><path class="g" d="M384.188,169.255s2.078-2.771,3.624-.48-.639,9.059-4.423,7.407Z" transform="translate(-383.389 -167.868)"/><g transform="translate(0.506 2.426)"><path class="h" d="M384.613,176a.32.32,0,0,0,.308-.234,4.942,4.942,0,0,1,2.773-2.945.32.32,0,0,0-.227-.6,5.509,5.509,0,0,0-3.162,3.371.32.32,0,0,0,.222.394A.312.312,0,0,0,384.613,176Z" transform="translate(-384.293 -172.202)"/></g><g transform="translate(1.629 3.682)"><path class="h" d="M387.682,175.935a.314.314,0,0,0,.172-.051.32.32,0,0,0,.1-.442,2.911,2.911,0,0,0-1.2-.967.32.32,0,0,0-.261.584,2.31,2.31,0,0,1,.924.73A.319.319,0,0,0,387.682,175.935Z" transform="translate(-386.3 -174.447)"/></g></g><path class="i" d="M367.081,192.979v6.731s-2.007,3.428-4.722,3.661-5.121-2.951-5.121-2.951v-6.967Z" transform="translate(-347.131 -163.556)"/><path class="g" d="M367.081,192.979v2.987c-1.821,2.021-5.056,2.526-9.843,1.819v-4.332Z" transform="translate(-347.131 -163.556)"/><path class="i" d="M368.5,155.448a65.538,65.538,0,0,1-.873,8.5c-.124.652-.265,1.266-.422,1.816-1.416,4.959-4.959,13.464-14.878,9.921-4.38-1.564-6.41-6.443-7.315-11.405a47.971,47.971,0,0,1-.662-9.209,7.027,7.027,0,0,1,3.565-5.979c5.855-3.319,12.032-2.082,16.1-.518A7,7,0,0,1,368.5,155.448Z" transform="translate(-341.451 -143.31)"/><g transform="translate(12.946 29.393)"><path class="g" d="M363.962,193.957a3.342,3.342,0,0,0,1.559-.437.32.32,0,0,0-.331-.547,2.715,2.715,0,0,1-1.227.345,2.594,2.594,0,0,1-1.164-.343.32.32,0,1,0-.336.544A3.193,3.193,0,0,0,363.962,193.957Z" transform="translate(-362.31 -192.927)"/></g><path class="e" d="M368.159,161H366.71c.16-1.553.389-4.287-.805-4.679-3.776-1.238-1.587-.339-3.291-1.759s-2.195,1.152-5.144,1.05c-2.968-.1-7.673-1.836-8.83-1.549s-1.638-1.594-1.213,0-1.423,3.351-1.733,5a7.729,7.729,0,0,0,0,1.937h-1.208c-.143-2.006-.165-3.873-.139-5.388a7.59,7.59,0,0,1,3.565-6.381c5.855-3.543,12.032-2.222,16.1-.553a7.5,7.5,0,0,1,4.486,7.334C368.429,157.546,368.322,159.286,368.159,161Z" transform="translate(-341.451 -144.193)"/></g><g transform="translate(0 53.711)"><path class="i" d="M298.357,247.509a102.731,102.731,0,0,1-8.3,13.232,34.48,34.48,0,0,1-4.07,4.545c-2.207,1.993-4.36,3.036-6.114,2.151-6.5-3.278-21-29.369-21-29.369l3.57-4.235s6.452,7.451,11.171,11.911c4.352,4.112,7.7,7.186,7.7,7.186.6-.917,1.244-1.921,1.911-2.985.71-1.129,1.446-2.323,2.2-3.553,5.434-8.921,11.463-19.631,11.463-19.631Z" transform="translate(-258.869 -226.762)"/><path class="g" d="M309.21,276.183a34.486,34.486,0,0,1-4.07,4.545l-2.763-15.341c.71-1.129,1.446-2.323,2.2-3.552Z" transform="translate(-278.025 -242.204)"/><path class="j" d="M316.526,226.762l-13.032,20.5,4.374,18.028,10.784-17.56S319.96,235.712,316.526,226.762Z" transform="translate(-278.517 -226.762)"/></g></g><g transform="translate(109.348 113.033)"><g transform="translate(1.717 37.806)"><path class="j" d="M255.361,374.953c-.931-5.158-1.848-10.976-2.682-16.626q-.275-1.874-.538-3.71c-.669-4.677-1.266-9.1-1.746-12.771-.182-1.394-.347-2.682-.5-3.83-.465-3.663-.738-5.939-.738-5.939l-20.58.778-20.643-.778s-.532,4.5-1.384,11.031c-.156,1.188-.322,2.441-.5,3.75-.458,3.426-.982,7.21-1.546,11.084l-.025.17c-.177,1.207-.355,2.423-.541,3.639a.359.359,0,0,1-.008.048v0c-.442,2.938-.9,5.872-1.375,8.695-.194,1.165-.39,2.309-.587,3.424q-.092.521-.184,1.032Z" transform="translate(-201.791 -259.481)"/><g transform="translate(0.184 76.838)"><path class="k" d="M218.2,341.6a1.939,1.939,0,1,1-1.939-1.939A1.94,1.94,0,0,1,218.2,341.6Z" transform="translate(-207.49 -339.656)"/><path class="k" d="M226.8,355.021a1.94,1.94,0,1,1-1.939-1.94A1.94,1.94,0,0,1,226.8,355.021Z" transform="translate(-211.276 -345.567)"/><path class="k" d="M243.715,348.09a1.939,1.939,0,1,1-1.939-1.94A1.939,1.939,0,0,1,243.715,348.09Z" transform="translate(-218.725 -342.515)"/><path class="k" d="M217.011,369.279a1.94,1.94,0,1,1-1.94-1.939A1.94,1.94,0,0,1,217.011,369.279Z" transform="translate(-206.968 -351.845)"/><path class="k" d="M238.153,367.8a1.94,1.94,0,1,1-1.94-1.939A1.94,1.94,0,0,1,238.153,367.8Z" transform="translate(-216.277 -351.192)"/><path class="k" d="M211.171,353.606a1.937,1.937,0,0,1-1.758,1.931c.175-1.309.341-2.562.5-3.75A1.938,1.938,0,0,1,211.171,353.606Z" transform="translate(-205.33 -344.997)"/><path class="k" d="M272.606,388.157a1.94,1.94,0,1,1-1.94-1.939A1.94,1.94,0,0,1,272.606,388.157Z" transform="translate(-231.446 -360.157)"/><path class="k" d="M270.969,369.279a1.94,1.94,0,1,1-1.94-1.939A1.94,1.94,0,0,1,270.969,369.279Z" transform="translate(-230.725 -351.845)"/><path class="k" d="M290.585,376.047a1.94,1.94,0,1,1-.761-3.724,1.54,1.54,0,0,1,.223.015Q290.311,374.17,290.585,376.047Z" transform="translate(-239.88 -354.039)"/><path class="k" d="M274.434,401.992a1.94,1.94,0,1,1-1.939-1.94A1.94,1.94,0,0,1,274.434,401.992Z" transform="translate(-232.251 -366.248)"/><path class="k" d="M289.257,396.46a1.94,1.94,0,1,1-1.939-1.94A1.939,1.939,0,0,1,289.257,396.46Z" transform="translate(-238.777 -363.812)"/><path class="k" d="M258.95,408.016a1.934,1.934,0,0,0-3.2,0Z" transform="translate(-225.734 -369.382)"/><path class="k" d="M214.73,391.171a1.94,1.94,0,1,1-1.939-1.94A1.939,1.939,0,0,1,214.73,391.171Z" transform="translate(-205.964 -361.483)"/><path class="k" d="M207.312,380.361a1.936,1.936,0,0,1-1.687,1.92.361.361,0,0,0,.008-.048c.185-1.216.364-2.431.541-3.639A1.945,1.945,0,0,1,207.312,380.361Z" transform="translate(-203.663 -356.8)"/><path class="k" d="M203.5,402.284a1.944,1.944,0,0,1-1.382,1.859c.2-1.115.393-2.259.587-3.424A1.94,1.94,0,0,1,203.5,402.284Z" transform="translate(-202.119 -366.541)"/><path class="k" d="M223.33,403.456a1.94,1.94,0,1,1-1.94-1.94A1.94,1.94,0,0,1,223.33,403.456Z" transform="translate(-209.75 -366.892)"/><path class="k" d="M241.618,400.742a1.94,1.94,0,1,1-1.939-1.94A1.939,1.939,0,0,1,241.618,400.742Z" transform="translate(-217.802 -365.697)"/><path class="k" d="M228.571,383.7a1.94,1.94,0,1,1-1.94-1.939A1.94,1.94,0,0,1,228.571,383.7Z" transform="translate(-212.058 -358.196)"/><path class="k" d="M247.18,380.238a1.94,1.94,0,1,1-1.94-1.939A1.94,1.94,0,0,1,247.18,380.238Z" transform="translate(-220.251 -356.67)"/><path class="k" d="M255.557,361.952a1.94,1.94,0,1,1-1.94-1.94A1.94,1.94,0,0,1,255.557,361.952Z" transform="translate(-223.939 -348.619)"/><path class="k" d="M286.775,346.519a1.826,1.826,0,0,1-.416.046,1.939,1.939,0,0,1-.079-3.877C286.428,343.838,286.593,345.125,286.775,346.519Z" transform="translate(-238.355 -340.991)"/><path class="k" d="M267.5,348.09a1.94,1.94,0,1,1-1.939-1.94A1.939,1.939,0,0,1,267.5,348.09Z" transform="translate(-229.199 -342.515)"/><path class="k" d="M280.2,360.44a1.94,1.94,0,1,1-1.94-1.939A1.94,1.94,0,0,1,280.2,360.44Z" transform="translate(-234.788 -347.953)"/><path class="k" d="M259.022,391.171a1.94,1.94,0,1,1-1.939-1.94A1.939,1.939,0,0,1,259.022,391.171Z" transform="translate(-225.465 -361.483)"/></g><path class="b" d="M253.989,275.479c-10.857,7.088-30.791,6.532-43.318,0,1.2-7.454,2.772-14.916,2.434-24.837q-.057-1.631-.139-3.239-.073-1.4-.162-2.772c-1.081-16.5-3.9-30-2.513-31.742a13.136,13.136,0,0,1,2.854-2.431c.488-.332,1.01-.669,1.56-1.006,1.3-.793,2.745-1.592,4.2-2.37,3.443-1.838,6.938-3.544,8.69-4.709a11.135,11.135,0,0,0,4.613,1.163,1.271,1.271,0,0,0,.128,0,1.159,1.159,0,0,0,.124,0,11.148,11.148,0,0,0,4.614-1.163c1.626,1.081,4.686,2.589,7.81,4.234a67.644,67.644,0,0,1,6.436,3.738,12.9,12.9,0,0,1,2.749,2.362c.686.864.4,4.654-.189,10.27-.58,5.525-1.449,12.821-1.975,20.841-.146,2.227-.265,4.509-.345,6.825C251.219,260.564,252.793,268.026,253.989,275.479Z" transform="translate(-205.369 -202.374)"/><g transform="translate(12.726 49.536)"><path class="m" d="M253.783,306.2h0c-8.743-.039-16.205-4.016-20.925-7.347a47.872,47.872,0,0,1-8.23-7.289.42.42,0,0,1,.644-.541,47.055,47.055,0,0,0,8.091,7.156c4.618,3.255,11.91,7.142,20.424,7.18a.421.421,0,0,1,0,.841Z" transform="translate(-224.528 -290.877)"/></g><g transform="translate(21.718 51.61)"><path class="m" d="M255.069,302.746c-7.444-1.463-14.033-7.164-14.332-7.426a.421.421,0,1,1,.554-.633c.077.067,7.831,6.772,15.733,7.493a.421.421,0,1,1-.076.838A18.459,18.459,0,0,1,255.069,302.746Z" transform="translate(-240.592 -294.583)"/></g><g transform="translate(24.752 11.231)"><path class="m" d="M246.435,232.47a.421.421,0,0,1-.078-.834c10.659-2.023,13.871-8.88,13.9-8.949a.421.421,0,0,1,.767.346c-.135.3-3.428,7.325-14.512,9.428A.43.43,0,0,1,246.435,232.47Z" transform="translate(-246.015 -222.44)"/></g><path class="i" d="M251.948,206.609c-2.116,4.825-7.317,9.822-14.08,8.654a16.239,16.239,0,0,1-11.9-8.18c3.443-1.839,6.939-3.542,8.69-4.708a11.18,11.18,0,0,0,4.611,1.164,1.12,1.12,0,0,0,.129-.005,1.049,1.049,0,0,0,.126.005,11.2,11.2,0,0,0,4.614-1.164C245.765,203.455,248.826,204.963,251.948,206.609Z" transform="translate(-212.437 -202.374)"/><g transform="translate(18.846 0.354)"><path class="l" d="M250.473,203.006a.332.332,0,0,0-.336.332c0,.271-.113,6.65-5.839,7.144-5.311.462-7.51-4.623-8.189-6.732a.3.3,0,0,0-.284-.207h-.063a.3.3,0,0,0-.284.393c.725,2.176,3.04,7.431,8.45,7.238q.211-.008.427-.026c6.338-.547,6.45-7.735,6.451-7.807A.334.334,0,0,0,250.473,203.006Z" transform="translate(-235.461 -203.006)"/></g></g><g transform="translate(11.713)"><path class="c" d="M248.1,142.43s5.117,7.927,4.557,16.183.755,17.788-6.634,17.369-20.565,2.962-24.754-3.469S248.1,142.43,248.1,142.43Z" transform="translate(-220.192 -138.175)"/><path d="M261.779,168.363s1.328,11.968-4.351,15.263-9.788-.383-9.788-.383S259.61,166.561,261.779,168.363Z" transform="translate(-231.974 -149.533)"/><g transform="translate(2.17 5.951)"><g transform="translate(0 11.462)"><path class="g" d="M227.574,167.3s-2.039-2.719-3.555-.471.627,8.888,4.339,7.267Z" transform="translate(-223.527 -165.939)"/><g transform="translate(0.796 2.38)"><path class="h" d="M228.173,173.917a.315.315,0,0,1-.3-.229,4.849,4.849,0,0,0-2.72-2.889.314.314,0,0,1,.222-.587,5.4,5.4,0,0,1,3.1,3.307.314.314,0,0,1-.3.4Z" transform="translate(-224.948 -170.192)"/></g><g transform="translate(1.563 3.613)"><path class="h" d="M226.633,173.854a.314.314,0,0,1-.263-.484,2.867,2.867,0,0,1,1.177-.949.314.314,0,0,1,.256.573,2.269,2.269,0,0,0-.906.716A.312.312,0,0,1,226.633,173.854Z" transform="translate(-226.319 -172.394)"/></g></g><g transform="translate(24.276 11.462)"><path class="g" d="M267.685,167.3s2.039-2.719,3.555-.471-.627,8.888-4.34,7.267Z" transform="translate(-266.9 -165.939)"/><g transform="translate(0.497 2.38)"><path class="h" d="M268.1,173.917a.314.314,0,0,0,.3-.229,4.847,4.847,0,0,1,2.721-2.889.314.314,0,0,0-.222-.587,5.4,5.4,0,0,0-3.1,3.307.314.314,0,0,0,.217.387A.321.321,0,0,0,268.1,173.917Z" transform="translate(-267.788 -170.192)"/></g><g transform="translate(1.599 3.613)"><path class="h" d="M271.112,173.854a.314.314,0,0,0,.264-.484,2.87,2.87,0,0,0-1.178-.949.314.314,0,0,0-.256.573,2.269,2.269,0,0,1,.906.716A.313.313,0,0,0,271.112,173.854Z" transform="translate(-269.757 -172.394)"/></g></g><path class="i" d="M250.9,190.577v6.6s-1.969,3.363-4.632,3.592-5.025-2.9-5.025-2.9v-6.835Z" transform="translate(-231.327 -165.325)"/><path class="g" d="M250.9,190.577v2.93c-1.787,1.983-4.96,2.685-9.656,1.993v-4.458Z" transform="translate(-231.327 -165.325)"/><path class="i" d="M252.29,153.753a64.352,64.352,0,0,1-.856,8.342c-.123.64-.26,1.242-.414,1.782-1.39,4.866-4.866,13.21-14.6,9.734-4.3-1.534-6.29-6.321-7.178-11.19a47.048,47.048,0,0,1-.649-9.034,6.893,6.893,0,0,1,3.5-5.866c5.744-3.256,11.8-2.042,15.8-.508A6.871,6.871,0,0,1,252.29,153.753Z" transform="translate(-225.754 -145.46)"/><g transform="translate(12.702 25.223)"><path class="g" d="M247.84,191.536a3.128,3.128,0,0,1-1.471-.43.314.314,0,0,1,.329-.534h0a2.525,2.525,0,0,0,1.142.337,2.67,2.67,0,0,0,1.2-.338.314.314,0,0,1,.325.537A3.282,3.282,0,0,1,247.84,191.536Z" transform="translate(-246.22 -190.525)"/></g></g><path class="c" d="M252.938,148.561a1.036,1.036,0,0,1-.756.578,20.029,20.029,0,0,1-.113,2.322c-.387,4.534-1.531,5.331-1.79,4.21a52.333,52.333,0,0,1-.078-6.407,14.782,14.782,0,0,1-1.662-.208l-1.052-4.4L247.12,149c-1.578.549-5.258-.33-5.258-.33l-1.234-4.339-.763,4.175a8.79,8.79,0,0,1-5.323.385l-.679-4.5-1.569,4.5s-5.047,1.811-5.1,0a33.919,33.919,0,0,1,1.39-6.32,9.508,9.508,0,0,1,4.585-5.82,16.711,16.711,0,0,1,15.154-.217C253.136,139.41,252.938,148.561,252.938,148.561Z" transform="translate(-222.969 -134.827)"/><path class="c" d="M226.651,143.029s-4.156,4.942-5.523,13.769-3.26,15.35,2.059,18.264c5.757,3.155,5.258-3.315,5.176-5.074s-4.98-6.565-1.712-20.1C227.706,145.516,226.651,143.029,226.651,143.029Z" transform="translate(-219.65 -138.439)"/><path d="M230.423,175.619v.011c0,.065.006.416.031.965.013.341.034.755.065,1.226.2,2.974.774,8.11,2.473,9.891a5.678,5.678,0,0,0,3.488,1.2v-2.337a9.247,9.247,0,0,1-3.826-3.552,21.853,21.853,0,0,1-2.116-6.524Z" transform="translate(-224.393 -152.788)"/><path class="l" d="M269.913,180.2a.735.735,0,1,1-.735-.735A.735.735,0,0,1,269.913,180.2Z" transform="translate(-241.133 -154.482)"/></g><g transform="translate(0 48.139)"><path class="b" d="M267.22,253.783c-2.082,5.96-11.4,5.526-22.023,2.268l-.046-.014-.1-.031-1.461-.466c-.2-.066-.4-.133-.606-.2q-1.717-.574-3.455-1.236a118.5,118.5,0,0,1-11.223-4.971l.025-.063,1.085-2.82.371-.96s19.686,2.145,29.584.076c.168-.035.331-.07.493-.107a6.164,6.164,0,0,0-.114-.653c-5.244-17.855.491-21.278,2.411-23.769C262.162,220.834,271.15,242.532,267.22,253.783Z" transform="translate(-211.749 -220.834)"/><g transform="translate(47.624 23.769)"><path class="m" d="M288.449,266.954a.428.428,0,0,1-.184.042.421.421,0,0,1-.378-.235c-.749-1.536-3.3-2.45-4.078-2.7.168-.035.331-.07.493-.107-.039-.219-.077-.438-.114-.653,1,.329,3.593,1.33,4.454,3.093A.42.42,0,0,1,288.449,266.954Z" transform="translate(-283.81 -263.3)"/></g><g transform="translate(16.737 24.248)"><path class="m" d="M236.58,266.583c-4.018,0-7.28-.231-7.564-.251a.42.42,0,0,1,.061-.837c.148.011,14.915,1.055,20.737-1.307a.42.42,0,0,1,.316.778C246.907,266.273,241.237,266.583,236.58,266.583Z" transform="translate(-228.627 -264.157)"/></g><g transform="translate(31.841 26.675)"><path class="m" d="M255.612,276.524h0c3.369-.929,6.431-1.834,8.2-2.4,2.455-.788,4.487-3.269,5.41-5.379a.42.42,0,0,1,.769.337c-1,2.282-3.218,4.974-5.923,5.842-1.283.411-3.243,1-5.509,1.646a5.1,5.1,0,0,1-2.949-.045Z" transform="translate(-255.612 -268.492)"/></g><g transform="translate(0.787 0.184)"><path class="b" d="M240.265,252.8c-30.424,10.247-39.783,3.541-39.783,3.541-2.049-18.522,5.5-35.177,5.5-35.177a84.328,84.328,0,0,1,4.751,10.094l.666,14.2-.05.395-.023.186L211.2,247l0,.02.2.042c9.2,1.942,26.033-.228,26.033-.228Z" transform="translate(-200.129 -221.162)"/><g transform="translate(5.914 24.872)"><path class="m" d="M216.044,266.632a29.981,29.981,0,0,0-4.594,4.786.42.42,0,0,1-.67-.508l0,0a30.774,30.774,0,0,1,5.195-5.309l-.126.971,0,.02Z" transform="translate(-210.696 -265.599)"/></g><path class="n" d="M266.763,261.52s3.368-7.651,8.489-6.97l1.544,5.532c-2.8,1.191-3.213,6-7.193,7.4Z" transform="translate(-229.467 -235.844)"/></g><path class="n" d="M216.764,259.122a12.192,12.192,0,0,0-7.725-6.442c-5.6-1.45-9.164,1.189-9.54,2.184s2.111.044,2.111.044a4.832,4.832,0,0,0-2.549,1.981c-.929,1.522,2.262-.12,2.262-.12s-2.288,1-2.579,1.932,2.727-.641,3.294-.611c0,0-2.7,1.071-2.677,2.03s3.1-.605,5.393-.481a36.3,36.3,0,0,1,5.822,1.076,38.6,38.6,0,0,0,5.3.7Z" transform="translate(-198.724 -234.668)"/></g></g><g transform="translate(28.795 85.328)"><g transform="translate(0 5.213)"><g transform="translate(157.695 3.557)"><g transform="translate(0 6.385)"><path class="j" d="M324.579,119.919a3.758,3.758,0,1,1,3.758-3.757A3.762,3.762,0,0,1,324.579,119.919Zm0-6.336a2.579,2.579,0,1,0,2.579,2.579A2.581,2.581,0,0,0,324.579,113.583Z" transform="translate(-320.821 -112.404)"/></g><g transform="translate(32.785)"><path class="j" d="M383.154,108.513a3.758,3.758,0,1,1,3.758-3.758A3.762,3.762,0,0,1,383.154,108.513Zm0-6.336a2.579,2.579,0,1,0,2.579,2.579A2.581,2.581,0,0,0,383.154,102.176Z" transform="translate(-379.396 -100.997)"/></g><g transform="translate(36.948 15.948)"><g transform="translate(3.649)"><path class="b" d="M393.941,133.27a.59.59,0,0,1-.589-.59v-2.6a.589.589,0,0,1,1.179,0v2.6A.59.59,0,0,1,393.941,133.27Z" transform="translate(-393.352 -129.491)"/><g transform="translate(0 4.549)"><path class="b" d="M393.941,141.4a.589.589,0,0,1-.589-.589v-2.6a.589.589,0,0,1,1.179,0v2.6A.589.589,0,0,1,393.941,141.4Z" transform="translate(-393.352 -137.619)"/></g></g><g transform="translate(0 3.574)"><g transform="translate(4.962)"><path class="b" d="M398.623,137.056h-2.335a.589.589,0,1,1,0-1.179h2.335a.589.589,0,0,1,0,1.179Z" transform="translate(-395.699 -135.877)"/></g><path class="b" d="M389.758,137.056h-2.335a.589.589,0,1,1,0-1.179h2.335a.589.589,0,0,1,0,1.179Z" transform="translate(-386.833 -135.877)"/></g></g><g transform="translate(17.099 0.201)"><g transform="translate(3.649)"><path class="b" d="M358.479,105.135a.59.59,0,0,1-.589-.589v-2.6a.589.589,0,0,1,1.179,0v2.6A.589.589,0,0,1,358.479,105.135Z" transform="translate(-357.89 -101.356)"/><g transform="translate(0 4.549)"><path class="b" d="M358.479,113.262a.589.589,0,0,1-.589-.589v-2.6a.589.589,0,0,1,1.179,0v2.6A.589.589,0,0,1,358.479,113.262Z" transform="translate(-357.89 -109.484)"/></g></g><g transform="translate(0 3.574)"><g transform="translate(4.962)"><path class="b" d="M363.162,108.921h-2.335a.59.59,0,0,1,0-1.179h2.335a.59.59,0,0,1,0,1.179Z" transform="translate(-360.237 -107.742)"/></g><path class="b" d="M354.3,108.921H351.96a.59.59,0,0,1,0-1.179H354.3a.59.59,0,1,1,0,1.179Z" transform="translate(-351.371 -107.742)"/></g></g></g><g transform="translate(27.141 0.406)"><path class="b" d="M87.568,99.126a3.758,3.758,0,1,1,3.758,3.757A3.762,3.762,0,0,1,87.568,99.126Zm1.179,0a2.579,2.579,0,1,0,2.579-2.579A2.582,2.582,0,0,0,88.747,99.126Z" transform="translate(-87.568 -95.368)"/></g><g transform="translate(12.051 14.729)"><path class="b" d="M60.607,124.716a3.758,3.758,0,1,1,3.757,3.758A3.762,3.762,0,0,1,60.607,124.716Zm1.179,0a2.579,2.579,0,1,0,2.579-2.579A2.582,2.582,0,0,0,61.786,124.716Z" transform="translate(-60.607 -120.958)"/></g><g transform="translate(0 19.982)"><g transform="translate(3.649)"><path class="j" d="M46.184,134.121a.589.589,0,0,0,.589-.589v-2.6a.589.589,0,0,0-1.179,0v2.6A.589.589,0,0,0,46.184,134.121Z" transform="translate(-45.595 -130.343)"/><g transform="translate(0 4.549)"><path class="j" d="M46.184,142.249a.589.589,0,0,0,.589-.589v-2.6a.589.589,0,0,0-1.179,0v2.6A.59.59,0,0,0,46.184,142.249Z" transform="translate(-45.595 -138.47)"/></g></g><g transform="translate(0 3.574)"><path class="j" d="M39.665,137.908H42a.589.589,0,1,0,0-1.179H39.665a.589.589,0,0,0,0,1.179Z" transform="translate(-39.076 -136.729)"/><g transform="translate(4.962)"><path class="j" d="M48.531,137.908h2.335a.589.589,0,0,0,0-1.179H48.531a.589.589,0,0,0,0,1.179Z" transform="translate(-47.942 -136.729)"/></g></g></g><g transform="translate(13.582)"><g transform="translate(3.649)"><path class="j" d="M70.451,98.421a.589.589,0,0,0,.589-.589v-2.6a.589.589,0,1,0-1.179,0v2.6A.589.589,0,0,0,70.451,98.421Z" transform="translate(-69.862 -94.642)"/><g transform="translate(0 4.549)"><path class="j" d="M70.451,106.548a.589.589,0,0,0,.589-.589v-2.6a.589.589,0,0,0-1.179,0v2.6A.589.589,0,0,0,70.451,106.548Z" transform="translate(-69.862 -102.77)"/></g></g><g transform="translate(0 3.574)"><path class="j" d="M63.932,102.207h2.335a.59.59,0,0,0,0-1.179H63.932a.59.59,0,0,0,0,1.179Z" transform="translate(-63.343 -101.028)"/><g transform="translate(4.962)"><path class="j" d="M72.8,102.207h2.335a.59.59,0,0,0,0-1.179H72.8a.59.59,0,0,0,0,1.179Z" transform="translate(-72.209 -101.028)"/></g></g></g></g><g transform="translate(109.577)"><g transform="translate(18.989 8.357)"><path class="o" d="M270.407,101.549a.416.416,0,0,1-.207-.031c-.715-.3-1.135-.443-1.139-.444a.419.419,0,0,1,.265-.794c.018.006.45.151,1.2.467a.419.419,0,0,1-.119.8Z" transform="translate(-268.776 -100.259)"/><g transform="translate(3.42 1.509)"><path class="b" d="M309.778,142.227c.285.76.551,1.543.793,2.328a.418.418,0,0,0,.444.293.37.37,0,0,0,.079-.016.419.419,0,0,0,.277-.523c-.246-.8-.518-1.6-.809-2.375a.419.419,0,0,0-.784.293Z" transform="translate(-290.237 -119.997)"/><path class="b" d="M312.371,150.661c.192.786.365,1.6.516,2.406a.418.418,0,0,0,.455.34l.032,0a.418.418,0,0,0,.335-.488c-.153-.826-.33-1.651-.525-2.452a.419.419,0,1,0-.813.2Z" transform="translate(-291.385 -123.731)"/><path class="b" d="M315.156,171.038a.418.418,0,0,0,.374-.41c.013-.84.007-1.682-.018-2.5a.419.419,0,1,0-.837.025c.025.81.031,1.639.018,2.467a.418.418,0,0,0,.412.425A.384.384,0,0,0,315.156,171.038Z" transform="translate(-292.404 -131.469)"/><path class="b" d="M314.341,158.87a.419.419,0,0,0-.361.469c.049.378.094.761.134,1.136.046.434.087.876.121,1.315a.418.418,0,0,0,.45.385h.011a.419.419,0,0,0,.373-.449c-.035-.446-.077-.9-.123-1.337-.04-.382-.086-.771-.136-1.156a.418.418,0,0,0-.458-.362Z" transform="translate(-292.097 -127.572)"/><path class="b" d="M307.248,136.388a.419.419,0,0,0,.764-.342c-.341-.762-.71-1.522-1.1-2.258a.418.418,0,1,0-.74.39C306.553,134.9,306.914,135.642,307.248,136.388Z" transform="translate(-288.64 -116.431)"/><path class="b" d="M275.114,103.745c.719.367,1.444.767,2.156,1.188a.419.419,0,0,0,.427-.72c-.727-.43-1.468-.838-2.2-1.213a.419.419,0,0,0-.381.746Z" transform="translate(-274.886 -102.954)"/><path class="b" d="M284.719,109.677a.419.419,0,0,0,.508-.665c-.663-.506-1.349-1-2.04-1.465a.419.419,0,1,0-.468.694C283.4,108.7,284.069,109.181,284.719,109.677Z" transform="translate(-278.253 -104.944)"/><path class="b" d="M297.66,121.63a.418.418,0,0,0,.371.154.414.414,0,0,0,.217-.09.419.419,0,0,0,.065-.588c-.52-.649-1.069-1.292-1.63-1.91a.419.419,0,1,0-.62.563C296.614,120.364,297.151,120.994,297.66,121.63Z" transform="translate(-284.162 -110.045)"/><path class="b" d="M291.553,115.264a.419.419,0,0,0,.584-.6c-.6-.579-1.218-1.15-1.853-1.7a.419.419,0,0,0-.546.634C290.359,114.137,290.97,114.7,291.553,115.264Z" transform="translate(-281.361 -107.318)"/><path class="b" d="M302.926,128.7a.418.418,0,1,0,.714-.436c-.434-.712-.9-1.418-1.376-2.1a.419.419,0,1,0-.686.481C302.047,127.316,302.5,128.008,302.926,128.7Z" transform="translate(-286.605 -113.096)"/></g></g><path class="b" d="M255.462,92.112l1.832-6.784-22.443.193Z" transform="translate(-234.85 -85.328)"/><path class="m" d="M234.85,85.671,254.372,93.9l.052.022.84,1.391.2-3.051Z" transform="translate(-234.85 -85.479)"/><path class="b" d="M269.89,101.8l-1.82-.287.98-1.1Z" transform="translate(-249.477 -91.97)"/><path class="b" d="M251.968,92.888l2.457,1.036-5.06,5.7L234.85,85.672Z" transform="translate(-234.85 -85.479)"/></g></g><g transform="translate(32.022 266.311)"><path class="k" d="M4.477,0H225.685a4.475,4.475,0,0,1,4.475,4.475v0a4.475,4.475,0,0,1-4.475,4.475H4.475A4.475,4.475,0,0,1,0,4.477v0A4.477,4.477,0,0,1,4.477,0Z" transform="translate(0)"/><path class="j" d="M275,412.952v.2H44.841v-.2a4.271,4.271,0,0,1,4.272-4.271H270.729A4.272,4.272,0,0,1,275,412.952Z" transform="translate(-44.841 -408.681)"/></g><g transform="translate(108.386 210.425)"><rect class="k" width="75.643" height="42.448" rx="5.381"/><rect class="k" width="11.715" height="13.355" transform="translate(31.964 42.399)"/><circle class="j" cx="5.814" cy="5.814" r="5.814" transform="translate(31.877 15.93)"/><path class="k" d="M4.738,0H25.48a4.738,4.738,0,0,1,4.738,4.738v0a0,0,0,0,1,0,0H0a0,0,0,0,1,0,0v0A4.738,4.738,0,0,1,4.738,0Z" transform="translate(22.526 51.017)"/></g></g></svg>