<svg xmlns="http://www.w3.org/2000/svg" width="40" height="40" viewBox="0 0 40 40"><defs><style>.a{fill:#d1e5ff;}.b{fill:#199b4d;}.c{fill:#fff;}</style></defs><path class="a" d="M2.346,22.346a20,20,0,1,1,20,20A20.025,20.025,0,0,1,2.346,22.346Z" transform="translate(-2.346 -2.346)"/><path class="b" d="M19.565,5A14.565,14.565,0,1,0,34.13,19.565,14.583,14.583,0,0,0,19.565,5Z" transform="translate(0.436 0.435)"/><path class="c" d="M20.916,9.71,13.8,17.2l-3.391-3.87a1.041,1.041,0,0,0-1.565-.041A1.325,1.325,0,0,0,8.8,15.021l4.174,4.735a1.086,1.086,0,0,0,.783.37,1.213,1.213,0,0,0,.783-.33l7.939-8.317a1.282,1.282,0,0,0,.037-1.729A1.082,1.082,0,0,0,20.916,9.71Z" transform="translate(4.333 5.249)"/></svg>