<svg xmlns="http://www.w3.org/2000/svg" width="27.902" height="28.347" viewBox="0 0 27.902 28.347">
  <g id="add-file" transform="translate(-0.377 0)">
    <path id="Path_3701" data-name="Path 3701" d="M34.4,29.869a5.357,5.357,0,1,0,5.539,5.353A5.455,5.455,0,0,0,34.4,29.869Zm2.662,5.947H35v2.069a.594.594,0,0,1-1.187,0V35.816H31.74a.594.594,0,1,1,0-1.188h2.069V32.56a.594.594,0,1,1,1.187,0v2.069h2.069a.594.594,0,1,1,0,1.188Z" transform="translate(-11.663 -12.229)" fill="#f6b333"/>
    <path id="Path_3702" data-name="Path 3702" d="M24.759,9.214l-12-3.32a.594.594,0,0,0-.317,1.145l12,3.32a.617.617,0,0,0,.159.021.594.594,0,0,0,.158-1.166Z" transform="translate(-4.761 -2.405)" fill="#f6b333"/>
    <path id="Path_3703" data-name="Path 3703" d="M23.034,14.138l-12-3.32a.593.593,0,1,0-.317,1.144l12,3.32a.615.615,0,0,0,.159.021.593.593,0,0,0,.158-1.165Z" transform="translate(-4.055 -4.42)" fill="#f6b333"/>
    <path id="Path_3704" data-name="Path 3704" d="M22.74,16.453a6.871,6.871,0,0,1,1.7.219v-4.85a.148.148,0,0,0-.148-.149H21.843l1.836-6.186a.594.594,0,0,0-.41-.74L6.185.021a.594.594,0,0,0-.727.4L2.675,9.737c0,.007,0,.014,0,.021H.525a.148.148,0,0,0-.148.148v14.42a.148.148,0,0,0,.148.148H16.194a6.366,6.366,0,0,1-.181-1.482,6.644,6.644,0,0,1,6.727-6.541ZM9.7,9.784a.151.151,0,0,0-.084-.026H3.907L6.429,1.321,22.368,5.73l-1.758,5.922c0,.007,0,.013,0,.02H12.454Z" transform="translate(0 0)" fill="#f6b333"/>
  </g>
</svg>
