<svg id="Group_371" data-name="Group 371" xmlns="http://www.w3.org/2000/svg" width="20" height="20" viewBox="0 0 20 20">
  <path id="Ellipse_67" data-name="Ellipse 67" d="M10,0A10,10,0,1,1,0,10,10,10,0,0,1,10,0Z" fill="#2a5798"/>
  <g id="octicon:x-24" transform="translate(10 5.214) rotate(45)">
    <path id="Vector" d="M.114.124a.39.39,0,0,1,.551,0l2.714,2.71L6.093.124a.39.39,0,1,1,.551.55L3.93,3.384l2.714,2.71a.39.39,0,1,1-.551.55L3.379,3.934.665,6.644a.39.39,0,0,1-.551-.55l2.714-2.71L.114.674a.389.389,0,0,1,0-.55Z" transform="translate(0 0)" fill="#fff"/>
  </g>
</svg>
