<svg xmlns="http://www.w3.org/2000/svg" width="25.384" height="27.337" viewBox="0 0 25.384 27.337"><defs><style>.a{fill:#fff;}</style></defs><g transform="translate(-17.065 0)"><g transform="translate(17.065 8.786)"><g transform="translate(0)"><path class="a" d="M39.52,153.6H34.639a.976.976,0,1,0,0,1.953H39.52a.976.976,0,0,1,.976.976v12.692a.976.976,0,0,1-.976.976H19.994a.976.976,0,0,1-.976-.976V156.524a.976.976,0,0,1,.976-.976h4.882a.976.976,0,1,0,0-1.953H19.994a2.929,2.929,0,0,0-2.929,2.929v12.692a2.929,2.929,0,0,0,2.929,2.929H39.52a2.929,2.929,0,0,0,2.929-2.929V156.524A2.929,2.929,0,0,0,39.52,153.6Z" transform="translate(-17.065 -153.595)"/></g></g><g transform="translate(23.911 0)"><path class="a" d="M148.159,5.167,143.278.286a.976.976,0,0,0-1.38,0l-4.882,4.882a.976.976,0,0,0,1.381,1.38l3.215-3.215V19.526a.976.976,0,0,0,1.953,0V3.333l3.215,3.215a.976.976,0,0,0,1.38-1.381Z" transform="translate(-136.741 0)"/></g></g></svg>