<svg xmlns="http://www.w3.org/2000/svg" width="40.966" height="51.481" viewBox="0 0 40.966 51.481"><defs><style>.a{fill:#fefefe;}.b{fill:#70d0e3;}.c{fill:#f6b333;}.d{fill:#ed9e08;}.e{fill:#fe7657;}</style></defs><g transform="translate(-2.691 -0.051)"><g transform="translate(2.691 0.051)"><path class="a" d="M8.756,19.65a16.2,16.2,0,0,1-2.435-.667A9.761,9.761,0,0,1,.583,12.809,2.626,2.626,0,0,1,.112,11.3,9.734,9.734,0,0,1,1.6,4.5,10.348,10.348,0,0,1,4.029,1.916,9.433,9.433,0,0,1,9.355.009c.24-.006.51-.058.686.192a8.131,8.131,0,0,1,.013,2.346c-.118.243-.349.222-.564.238A7.014,7.014,0,0,0,2.918,8.733a7.06,7.06,0,0,0,5.987,8.176,5.371,5.371,0,0,1,1.037.167.318.318,0,0,1,.111.137,5.561,5.561,0,0,1-.09,2.429Z" transform="translate(21.301 31.831)"/><path class="a" d="M.015,19.671V17.157a1.4,1.4,0,0,1,.807-.224A7.064,7.064,0,0,0,7.035,10.1,7,7,0,0,0,5.252,5.174,7.092,7.092,0,0,0,.511,2.82a1.034,1.034,0,0,1-.439-.085L.02,2.677,0,.164a.895.895,0,0,1,1.032,0A10.961,10.961,0,0,1,4.456,1.237,9.581,9.581,0,0,1,9.683,9.171,9.733,9.733,0,0,1,1.377,19.558c-.094.014-.207-.015-.251.107h-.4a.544.544,0,0,0-.5,0Z" transform="translate(31.248 31.81)"/><path class="b" d="M0,.11a.342.342,0,0,1,.5,0Z" transform="translate(31.464 51.371)"/><path class="c" d="M16.166,38.322c-.133.009-.266.026-.4.026H1.895c-1.189,0-1.77-.481-1.895-1.539a1.382,1.382,0,0,0,.033-.5V1.929a1.727,1.727,0,0,0-.026-.5A1.557,1.557,0,0,1,1.68.009C3.447,0,5.215,0,6.981,0c.239.185.182.454.185.695.01,1.088,0,2.177.006,3.267A1.469,1.469,0,0,0,8.791,5.59c2.194.02,4.387,0,6.581.009a1.145,1.145,0,0,1,.818.158.912.912,0,0,1,.126.573q.009,2.095,0,4.191a1.029,1.029,0,0,1-.1.533c-.16.191-.383.156-.594.166a10.513,10.513,0,0,0-1.475.048,1.448,1.448,0,0,0-1.089,2.026,1.3,1.3,0,0,0,1.235.863c.667.013,1.333.019,2-.011,2.355-.019,4.707-.006,7.061-.006a.994.994,0,0,1,.628.126c.049.231-.139.226-.27.258a2.538,2.538,0,0,1-.6.031H17.294c-.97,0-.968,0-.976.948a1.515,1.515,0,0,1-.106.785c-.17.185-.4.146-.611.156a9.989,9.989,0,0,0-1.451.048,1.447,1.447,0,0,0-1.088,2.026,1.3,1.3,0,0,0,1.235.863c.666.013,1.333.019,2-.011,2.354-.019,4.706-.006,7.058-.008a.994.994,0,0,1,.628.126c.07.2-.1.215-.216.251a2.312,2.312,0,0,1-.65.041H17.041c-.675,0-.7.041-.717.709a3,3,0,0,1-.064.948c-.106.222-.317.217-.515.226-.317.015-.628,0-.95.006a2.4,2.4,0,0,0-1.019.219,1.517,1.517,0,0,0-.841,1.371A1.464,1.464,0,0,0,14,24.57a5.013,5.013,0,0,0,2.281.036c2.444-.048,4.888-.016,7.331-.018a.707.707,0,0,1,.475.126c.041.269-.182.234-.324.265a2.844,2.844,0,0,1-.6.024H16.986c-.612,0-.651.049-.66.658v.1c0,.823,0,.827.844.827,2.076,0,4.147-.006,6.229.009.251,0,.589-.126.712.268a.716.716,0,0,1-.518.142c-2.434,0-4.867.031-7.3-.015a5.1,5.1,0,0,0-2.185,0,1.489,1.489,0,0,0-1.18,1.435A1.524,1.524,0,0,0,14,29.8a5.286,5.286,0,0,0,1.59.126c.241.01.515-.05.668.229a1.807,1.807,0,0,1,.069.647v6.736A1.1,1.1,0,0,1,16.166,38.322Z" transform="translate(0.018 6.32)"/><path class="c" d="M.051,16.3c0-.485.021-.973-.011-1.456-.025-.386.126-.479.488-.476,2.277.015,4.555.009,6.833,0,.18,0,.371.053.535-.07.113-.168.309-.186.474-.261a1.463,1.463,0,0,0,.871-1.451,1.356,1.356,0,0,0-1.1-1.265,4.253,4.253,0,0,0-1.045-.108H.769c-.245,0-.5.052-.716-.145L.035,5.742.1,5.675a1.48,1.48,0,0,1,.738-.094H6.965a3.923,3.923,0,0,0,.754-.045A1.508,1.508,0,0,0,8.983,4.279a6.543,6.543,0,0,0,.065-1.3V.667A.883.883,0,0,1,9.2,0h5.119A1.612,1.612,0,0,1,16.15,1.8v23.84H15.119a9.251,9.251,0,0,0-5.546,1.675c-.126.083-.251.163-.377.251-.406-.234-.8-.49-1.2-.731-.18-.134-.388-.075-.583-.077-2.276,0-4.551-.011-6.827,0-.395,0-.6-.072-.544-.515s-.182-1.015.1-1.308.857-.094,1.3-.1c2.01-.011,4.021,0,6.024-.008.18,0,.371.052.534-.075.088-.162.26-.2.406-.275a1.419,1.419,0,0,0,.8-1.658A1.328,1.328,0,0,0,7.76,21.773c-2.3-.008-4.609,0-6.911,0a1.678,1.678,0,0,1-.74-.079.126.126,0,0,1-.069-.148q0-.6.01-1.2c.008-.816-.092-.733.71-.734H7.367c.178,0,.368.052.534-.068.108-.175.305-.192.47-.266a1.392,1.392,0,0,0,.872-1.44A1.413,1.413,0,0,0,8.1,16.546a4.467,4.467,0,0,0-1.047-.1H.766C.521,16.434.263,16.488.051,16.3Z" transform="translate(16.129 6.336)"/><path class="d" d="M9.162,8.117c-2.425,0-4.85-.036-7.275,0A1.744,1.744,0,0,1,.01,6.268c.049-1.3,0-2.608-.01-3.912.009-.215.019-.431.026-.646A1.561,1.561,0,0,1,1.63.167L3.023.157A.976.976,0,0,1,3.645.006c1.037,0,2.073-.011,3.11,0,.6.011,1.19-.019,1.786,0a1.017,1.017,0,0,1,.666.139A.987.987,0,0,1,9.34.774q.008,3.326,0,6.651a.8.8,0,0,1-.167.656Z" transform="translate(7.004 3.963)"/><path class="d" d="M0,8.085.009.188C.171,0,.4.023.611.016c.6-.015,1.2,0,1.8,0,1.219.02,2.44-.078,3.657.054.305.2.647.09.969.093C8.542.177,9.079.68,9.126,2.174a1.9,1.9,0,0,0,.023.2c-.008,1.235-.019,2.471-.024,3.706,0,1.421-.593,2.011-2.01,2.011Q3.557,8.094,0,8.085Z" transform="translate(16.177 3.956)"/><path class="c" d="M.016,8.508,0,.246A.158.158,0,0,1,.094.087,1.323,1.323,0,0,1,.682.005H6.123c.244,0,.5-.041.7.173-.29.609-.614,1.205-.863,1.831A9.705,9.705,0,0,0,5.717,8.5Z" transform="translate(16.167 36.135)"/><path class="d" d="M3.753,4.121H0A6.083,6.083,0,0,1,4.613.112,4.984,4.984,0,0,1,6.16.025a.817.817,0,0,1,.146.611c0,.563.008,1.131,0,1.69a1.683,1.683,0,0,0,.172.816c0,.166-.134.2-.237.192A4.617,4.617,0,0,0,3.753,4.121Z" transform="translate(10.027 0)"/><path class="d" d="M.317,3.189A.442.442,0,0,1,0,2.7c.021-.9.011-1.8.013-2.7A6.153,6.153,0,0,1,6.072,4.014c-.1.117-.241.1-.377.1L2.388,4.1A10.511,10.511,0,0,0,.317,3.189Z" transform="translate(16.17 0.02)"/><path class="e" d="M.024,0C.15.163.1.354.1.533V34.839c0,.177.06.377-.079.53,0-.167-.018-.334-.018-.5V.545C0,.367.016.185.024,0Z" transform="translate(0 7.756)"/><path class="c" d="M7.17,14.461a6.9,6.9,0,0,1-4.516-1.634A7,7,0,0,1,.061,6.279a6.906,6.906,0,0,1,3.368-5.2A6.869,6.869,0,0,1,7.276,0l-.01.015a.616.616,0,0,1,.157.457c0,1.772.039,3.542-.019,5.313a.628.628,0,0,1-.038.167c-.524.628-.628.636-1.257.16a1.45,1.45,0,0,0-2.1.2A1.43,1.43,0,0,0,4.146,8.3c.412.442.9.8,1.345,1.2a1.783,1.783,0,0,0,1.365.524.518.518,0,0,1,.461.15.713.713,0,0,1,.1.377q.028,1.694,0,3.393C7.415,14.158,7.393,14.363,7.17,14.461Z" transform="translate(23.992 34.485)"/><path class="c" d="M.112,5.913V0A7.169,7.169,0,0,1,7.274,7.289a7.149,7.149,0,0,1-6.466,7.1l-.7.078-.1-.02a.729.729,0,0,0,.1-.431v-3.51c0-.126.02-.271-.108-.367-.021-.156.106-.206.2-.28,1.027-.723,1.928-1.595,2.875-2.41a2.9,2.9,0,0,0,.859-.9,1.469,1.469,0,0,0-2.083-1.9c-.486.3-.849.754-1.316,1.079C.412,5.82.315,6,.112,5.913Z" transform="translate(31.148 34.501)"/><path class="a" d="M7,3.152.2,3.159C.172,3.1.183,3.187.171,3.123A6.84,6.84,0,0,1,.186.021L8.139,0a1.645,1.645,0,0,1,1.2.731,9.867,9.867,0,0,0-2.093,2.18A.548.548,0,0,1,7,3.152Z" transform="translate(15.989 33.164)"/><path class="a" d="M2.116.014c1.552.01,3.1.024,4.649.031.985,0,1.97-.019,2.955.006a1.608,1.608,0,0,1,1.65,2.175A1.533,1.533,0,0,1,9.957,3.249L3.3,3.224H2.1A.877.877,0,0,1,1.953,2.6c-.006-.6-.014-1.206,0-1.81C1.963.4,1.8.249,1.415.269c-.3.016-.6.01-.9,0A.626.626,0,0,1,0,.109,9.434,9.434,0,0,1,2.116.014Z" transform="translate(14.065 22.619)"/><path class="a" d="M2.114.014,8.822.043c.367,0,.736-.016,1.1.018a1.571,1.571,0,0,1,1.551,1.578A1.577,1.577,0,0,1,9.956,3.246L3,3.223l-.9-.006A.854.854,0,0,1,1.959,2.6c-.006-.6-.018-1.2,0-1.793C1.973.395,1.8.24,1.4.265a8.323,8.323,0,0,1-.9,0A.6.6,0,0,1,0,.1,10.163,10.163,0,0,1,2.114.014Z" transform="translate(14.07 17.388)"/><path class="a" d="M.175.008c2.578,0,5.152-.018,7.735,0A1.529,1.529,0,0,1,9.522,1.467,1.56,1.56,0,0,1,8.111,3.173L.157,3.151a.447.447,0,0,1-.133-.317C-.011,2.013,0,1.193.024.372A.455.455,0,0,1,.175.008Z" transform="translate(16.017 27.924)"/><path class="a" d="M2.488,3.234c-.3,0-.6.009-.9,0A1.6,1.6,0,0,1,0,1.726,1.573,1.573,0,0,1,1.367.08a7.79,7.79,0,0,1,2.3.01A1.524,1.524,0,0,1,4.933,1.754,1.536,1.536,0,0,1,3.489,3.218c-.333.021-.668,0-1.005,0Z" transform="translate(6.439 17.4)"/><path class="a" d="M2.5,3.22c-.318,0-.636.011-.952,0A1.591,1.591,0,0,1,0,1.687,1.573,1.573,0,0,1,1.4.072a8.374,8.374,0,0,1,2.2,0,1.525,1.525,0,0,1,1.333,1.66,1.533,1.533,0,0,1-1.48,1.48c-.317.018-.635,0-.952,0Z" transform="translate(6.439 22.64)"/><path class="a" d="M2.46,3.169c-.318,0-.636.015-.952,0A1.586,1.586,0,0,1,0,1.593,1.561,1.561,0,0,1,1.5.021c.667-.028,1.337-.029,2,0A1.51,1.51,0,0,1,4.938,1.588,1.531,1.531,0,0,1,3.506,3.162c-.349.023-.7,0-1.052,0Z" transform="translate(6.433 27.921)"/><path class="a" d="M2.46,3.17c-.318,0-.636.014-.952,0A1.577,1.577,0,0,1,1.521.018c.628-.024,1.27-.024,1.9,0a1.522,1.522,0,0,1,1.5,1.556A1.529,1.529,0,0,1,3.407,3.168C3.1,3.187,2.778,3.171,2.46,3.17Z" transform="translate(6.45 33.155)"/><path class="a" d="M3.388.093q.009,1.568.018,3.142a.141.141,0,0,1-.025.058,16.352,16.352,0,0,1-1.954-.052A1.641,1.641,0,0,1,0,1.672,1.613,1.613,0,0,1,1.448.077a5.59,5.59,0,0,1,1.94.016Z" transform="translate(12.787 33.093)"/><path class="a" d="M3.4.058Q3.394,1.627,3.385,3.2A5.312,5.312,0,0,1,1.1,3.153,1.621,1.621,0,0,1,0,1.576,1.644,1.644,0,0,1,1.277.081,13.33,13.33,0,0,1,3.378,0,.139.139,0,0,1,3.4.058Z" transform="translate(12.789 27.873)"/><path class="a" d="M1.284,0c.569,0,1.138.016,1.706,0,.307-.009.411.1.4.406-.018.9-.01,1.808-.013,2.712a10.407,10.407,0,0,1-1.8.026A1.6,1.6,0,0,1,.005,1.637,1.618,1.618,0,0,1,1.284,0Z" transform="translate(12.789 17.492)"/><path class="a" d="M1.29,0C1.859,0,2.427.017,3,0c.312-.01.4.109.4.41-.016.9-.009,1.807-.011,2.711a9.873,9.873,0,0,1-1.853.025A1.592,1.592,0,0,1,0,1.63,1.621,1.621,0,0,1,1.29,0Z" transform="translate(12.79 22.719)"/><path class="a" d="M2.707,0A3.006,3.006,0,0,1,4.782.913L2.405.94,0,.916A3.363,3.363,0,0,1,2.707,0Z" transform="translate(13.781 3.207)"/><path class="a" d="M.167,1.618c.474-.395.942-.8,1.421-1.184A1.6,1.6,0,1,1,3.683,2.852C2.7,3.715,1.712,4.561.72,5.408A3.336,3.336,0,0,1,.3,5.672c-.237,0-.264-.192-.27-.348q-.064-1.653,0-3.306A.8.8,0,0,1,.157,1.69.363.363,0,0,1,.167,1.618Z" transform="translate(31.092 38.797)"/><path class="a" d="M3.728.4q0,1.715.021,3.431c0,.188-.073.4.126.55l-.237.166a2.112,2.112,0,0,1-1.9-.665C1.341,3.493.89,3.165.5,2.781A1.6,1.6,0,0,1,.369.6,1.539,1.539,0,0,1,2.562.352C3,.721,3.319.848,3.728.4Z" transform="translate(27.515 40.091)"/></g></g></svg>