<svg xmlns="http://www.w3.org/2000/svg" width="24" height="24" viewBox="0 0 24 24"><defs><style>.a,.b{fill:#fff;}.a{stroke:#707070;opacity:0;}.c{stroke:none;}.d{fill:none;}</style></defs><g transform="translate(-1334 -1099)"><g class="a" transform="translate(1334 1099)"><rect class="c" width="24" height="24"/><rect class="d" x="0.5" y="0.5" width="23" height="23"/></g><g transform="translate(948.898 714.068)"><path class="b" d="M407.509,396.321v1.219a1.37,1.37,0,0,0-.034.175,9.43,9.43,0,0,1-.946,3.609,10.218,10.218,0,0,1-8.99,5.994,9.476,9.476,0,0,1-5.316-1.207,10.2,10.2,0,0,1-5.508-8.742,9.649,9.649,0,0,1,1.2-5.317,10.251,10.251,0,0,1,7.371-5.362c.4-.076.8-.111,1.2-.164h1.219a1.081,1.081,0,0,0,.157.033,9.623,9.623,0,0,1,3.629.946,10.271,10.271,0,0,1,5.846,7.616C407.423,395.515,407.456,395.92,407.509,396.321Zm-1.3.607a9.1,9.1,0,1,0-9.112,9.107A9.109,9.109,0,0,0,406.209,396.928Z" transform="translate(0 0)"/><path class="b" d="M458.113,490.663c.668-.688,1.315-1.372,1.98-2.037q2.278-2.275,4.571-4.535a.775.775,0,0,1,.523-.278.639.639,0,0,1,.627.366.627.627,0,0,1-.1.7c-.052.062-.112.118-.17.175l-6.882,6.82a.712.712,0,0,1-1.184,0q-1.516-1.486-3.034-2.97a.725.725,0,0,1-.279-.622.656.656,0,0,1,1.017-.464,1.433,1.433,0,0,1,.2.173l2.524,2.474C457.957,490.518,458.006,490.563,458.113,490.663Z" transform="translate(-62.909 -90.713)"/></g></g></svg>