<svg xmlns="http://www.w3.org/2000/svg" xmlns:xlink="http://www.w3.org/1999/xlink" width="164.383" height="110.291" viewBox="0 0 164.383 110.291"><defs><style>.a{fill:none;}.b{fill:#8cacd6;}.c,.l{fill:#7d97f4;}.d{fill:#f0f0f0;}.e,.i,.m,.s{fill:#245799;}.e{opacity:0.2;}.f{fill:url(#a);}.g{fill:#bdd0fb;}.h{fill:url(#b);}.i{opacity:0.4;}.j,.k,.l{opacity:0.83;}.k,.q,.t{fill:#91b3fa;}.n,.u{fill:#fff;}.o{fill:#1d467c;}.p{fill:#f6b333;}.r{fill:#e7f1fd;}.s,.t{opacity:0.6;}.u{opacity:0.65;}.v{fill:#121117;}.w{fill:#454545;}.x{fill:url(#c);}.y{fill:url(#d);}.z{fill:#ffe2a9;}</style><linearGradient id="a" x1="936.57" y1="737.35" x2="1952.35" y2="737.35" gradientUnits="objectBoundingBox"><stop offset="0" stop-color="#dae3fe"/><stop offset="1" stop-color="#e9effd"/></linearGradient><linearGradient id="b" x1="1477.16" y1="1093.35" x2="1996.02" y2="1093.35" xlink:href="#a"/><linearGradient id="c" x1="433.808" y1="1361.27" x2="443.758" y2="1448.14" gradientUnits="objectBoundingBox"><stop offset="0" stop-color="#ff928e"/><stop offset="1" stop-color="#feb3b1"/></linearGradient><linearGradient id="d" x1="330.851" y1="1372.39" x2="340.161" y2="1453.65" xlink:href="#c"/></defs><g transform="translate(0 -1.536)"><g transform="translate(0 1.537)"><path class="a" d="M151.884,31.149c2.771,6.116,8.7,11.041,9.2,17.759.311,4.167-1.594,8.169-3.761,11.738s-4.684,7.02-5.831,11.038c-1.884,6.6,1.785,11.252,5.62,16.092,1.613,2.032,2.938,4.545,2.605,7.124a6.2,6.2,0,0,1-.868,2.422c-2.585,4.269-9.733,5.444-14.288,5.805-4.233.335-8.481.486-12.726.592-10.9.273-21.818.182-32.721-.02-16.6-.308-33.968.194-50.439-2.273C38.509,99.9.553,91.336,24.466,79.181c0,0-42.04-41.891-15.9-64.947a46.122,46.122,0,0,1,23.8-11.5C41.012,1.5,48.8,2.627,57.239,4.508c3.725.829,7.514,1.664,11.32,1.388,3.636-.263,7.13-1.532,10.746-2A22.906,22.906,0,0,1,92.387,5.914c3.942,1.969,7.465,2.625,11.847,1.434,4.283-1.164,8.154-3.484,12.294-5.086A29.363,29.363,0,0,1,134.165.742C144,3.232,149.084,11.129,150.056,20.86a50.483,50.483,0,0,0,.847,7.534,16.707,16.707,0,0,0,.98,2.755Z" transform="translate(2.657 1.883)"/><path class="b" d="M22.815,37.082c4.6-2.841,5.631-11.542,2.716-14.138-1.97-1.753-4.463.417-7.141-1.356-3.421-2.266-1.367-7.132-4.35-13.044C11.5,3.513,5.95-1.022,2.979.2-.13,1.484-1.253,9.423,1.8,13.935c1.986,2.934,4.7,2.891,5.492,5.7.916,3.255-2.27,5-2.06,8.2C5.606,33.585,16.727,40.84,22.815,37.082Z" transform="translate(0 63.736)"/><path class="c" d="M10.467,28.341a.2.2,0,0,0,.156-.293C3.355,15.395.422.323.389.172A.2.2,0,0,0,.03.091.2.2,0,0,0,.006.246c.029.152,2.978,15.288,10.278,28a.2.2,0,0,0,.182.1Z" transform="translate(9.925 74.862)"/><path class="d" d="M4.342,13.928a.094.094,0,0,0,.063-.156C2.224,11.338-.267,7.624.258,3.758A6.68,6.68,0,0,1,1.838.163.094.094,0,1,0,1.707.031a6.778,6.778,0,0,0-1.635,3.7c-.3,2.174.19,5.7,4.193,10.165a.093.093,0,0,0,.077.031Z" transform="translate(1.289 65.396)"/><path class="d" d="M1,12.877a.093.093,0,0,0,.074-.046C3.829,8.108,4.631,4.554,3.457,2.267A4.52,4.52,0,0,0,.1,0a.094.094,0,0,0-.08.153A.093.093,0,0,0,.085.187,4.314,4.314,0,0,1,3.291,2.353C4.433,4.58,3.633,8.072.913,12.734A.094.094,0,0,0,1,12.875Z" transform="translate(22.167 86.767)"/><path class="e" d="M54.542,70.82a4.291,4.291,0,0,1,2.9-3.025A29.615,29.615,0,0,0,67.927,62.07c6.4-5.369,9.944-12.641,10.1-19.333a4.333,4.333,0,0,1,2.557-3.874,41.738,41.738,0,0,0,12.192-8.616c9.957-9.952,13.7-22.387,8.349-27.773S83.372.789,73.417,10.742a41.7,41.7,0,0,0-8.745,12.446A4.354,4.354,0,0,1,60.71,25.8a27.8,27.8,0,0,0-17.334,6.787,30.9,30.9,0,0,0-4,4.031,4.288,4.288,0,0,1-4.247,1.458,28.684,28.684,0,0,0-24.64,6.208c-12,10.058-14,27.493-4.469,38.939S33,95.793,45,85.727A29.255,29.255,0,0,0,54.542,70.82Z" transform="translate(60.819 11.849)"/><path class="f" d="M79.072.235c-1.186,1.686-2.45,3.308-3.738,4.909s-2.618,3.173-3.979,4.714q-4.078,4.628-8.488,8.946t-9.12,8.3c-.389.331-.779.671-1.177,1l-1.194.976c-.8.651-1.588,1.306-2.4,1.932l-1.215.949c-.406.313-.805.639-1.221.938l-2.472,1.843c-.409.313-.835.6-1.252.9l-1.258.891c-.421.295-.838.6-1.263.885l-1.282.86-1.282.86-.641.428c-.214.141-.434.275-.651.413l-2.608,1.641c-.431.28-.879.533-1.319.8l-1.324.786-1.324.786c-.445.256-.9.5-1.346.752l-2.705,1.5-2.743,1.414c-.459.234-.91.477-1.374.7l-1.392.661-1.391.661-.7.331-.348.165-.353.156-2.824,1.232-.706.308-.353.156-.358.142-1.432.569-1.433.566-.716.282c-.238.1-.477.189-.72.272l-2.9,1.029c-.485.169-.966.349-1.454.508l-1.469.462-2.939.917a.158.158,0,0,1-.1-.3H.114l2.913-.973,1.457-.483c.484-.165.961-.352,1.441-.528l2.881-1.069c.241-.086.477-.184.714-.281l.71-.292,1.42-.583,1.421-.58.355-.145.35-.156.7-.313,2.8-1.25.35-.156.345-.168.69-.336,1.38-.671,1.38-.671c.46-.223.908-.469,1.363-.7l2.719-1.424,2.68-1.5c.445-.252.895-.5,1.337-.753l1.318-.787,1.318-.787c.438-.265.882-.518,1.311-.8,3.48-2.156,6.859-4.472,10.183-6.862a179.559,179.559,0,0,0,18.792-15.81q4.426-4.267,8.539-8.845Q73.051,7.264,75.014,4.9q.493-.59.976-1.189t.961-1.2c.637-.8,1.265-1.614,1.869-2.441a.157.157,0,0,1,.255.184Z" transform="translate(72.926 26.485)"/><path class="g" d="M36.072,29.176a13.644,13.644,0,0,0,4.179-9.089,1.563,1.563,0,0,1,.977-1.414,14.921,14.921,0,0,0,4.836-3.33c4.609-4.567,7.213-11.5,4.535-14.222S40.978.924,36.368,5.49a15.638,15.638,0,0,0-3.115,4.216,1.595,1.595,0,0,1-1.545.892,13.329,13.329,0,0,0-9.921,4.063A14.8,14.8,0,0,0,19.3,17.924a1.612,1.612,0,0,1-1.986.7A12.947,12.947,0,0,0,3.7,21.4c-5.139,5.07-4.9,13.809.522,19.186,5.356,5.314,13.75,5.559,18.831.525a12.526,12.526,0,0,0,3.5-6.631,1.575,1.575,0,0,1,1.394-1.286A13.808,13.808,0,0,0,36.072,29.176Z" transform="translate(110.012 61.673)"/><path class="h" d="M40.4.067c-.587.874-1.216,1.719-1.857,2.547s-1.307,1.641-1.981,2.45c-1.358,1.6-2.769,3.16-4.243,4.656a81.943,81.943,0,0,1-9.472,8.314c-1.677,1.272-3.432,2.444-5.223,3.559a59.564,59.564,0,0,1-5.556,3.041c-.48.224-.956.452-1.437.673l-1.462.625c-.485.213-.986.391-1.479.575l-.745.277-.372.138-.378.123-1.517.484c-.251.085-.51.148-.766.22l-.77.206-.77.2c-.257.067-.52.115-.779.173l-1.563.324L0,28.565l1.518-.456c.252-.078.508-.142.758-.227l.748-.256.748-.254c.249-.085.5-.163.744-.262l1.469-.567.368-.14.361-.156.723-.313c.481-.207.966-.4,1.435-.637l1.421-.664c.467-.234.931-.475,1.4-.713.234-.12.467-.234.7-.36l.685-.378.686-.377c.229-.125.459-.248.681-.384l1.346-.8c.226-.13.445-.273.664-.412l.661-.417.663-.414.651-.432c.432-.291.871-.573,1.3-.871l1.276-.9c.424-.3.84-.615,1.261-.922,1.673-1.24,3.3-2.544,4.887-3.894s3.128-2.755,4.638-4.194,2.975-2.926,4.4-4.454c.361-.378.71-.767,1.064-1.15l1.045-1.172q.262-.292.517-.59c.172-.2.342-.4.511-.6.341-.4.676-.8,1-1.206Z" transform="translate(115.026 68.347)"/><path class="i" d="M22.066,60.244c-3.985,1.1-9.461-2.955-11.467-7.667-2.064-4.85.926-7.157.413-14.055-.583-7.838-4.73-8.728-8.167-19.1C2.067,17.076-2.417,3.537,1.748.64,5.6-2.038,17.381,4.017,19.983,12.657c1.856,6.161-2.321,9.1-.138,16.275,1.916,6.294,5.762,6.113,7.676,12.182C29.847,48.5,27.3,58.8,22.066,60.244Z" transform="translate(5.136 35.559)"/><path class="c" d="M11.446,49.018c.491-8.523-2.559-21.4-5.2-30.7C3.378,8.247.359.081.329,0L0,.123C.03.2,3.045,8.36,5.9,18.417,8.542,27.692,11.583,40.526,11.1,49Z" transform="translate(15.599 48.704)"/><g class="j" transform="translate(81.428 57.482)"><path class="k" d="M15.484,19.714a10.415,10.415,0,0,1-1.072-3.8c-.24-3.42,1.742-6.57,3.2-9.515C18.947,3.7,19.945-.336,15.429.022,11.832.308,7.6,3.905,7.122,7.655c-.571,4.439,1.582,10.037-.97,14.065C2.58,27.362,0,26.069,0,35.588a7.889,7.889,0,0,0,4.817,7.547,10.733,10.733,0,0,0,12.132-1.979A12.737,12.737,0,0,0,20.93,30.389C20.351,26.347,17.19,23.28,15.484,19.714Z"/><path class="k" d="M2.981.05A1.5,1.5,0,0,0,2.412.011C1.287.141.825,1.332.494,2.263A5.289,5.289,0,0,0,.045,4.891c.181.934,1.168,1.7,1.886.747C2.746,4.561,3.969,2.9,3.976,1.478A1.4,1.4,0,0,0,2.981.05Z" transform="translate(16.086 9.629)"/><path class="k" d="M13.664,22.069c.46-3.042-.642-6.535-1.191-9.752a15.618,15.618,0,0,1-.156-5.1c.269-1.714,1.068-3.547.332-5.244C11.17-1.45,7.643.106,5.625,2.681,3.283,5.668,2.643,10.551,1.753,14.31a65.41,65.41,0,0,0-1.627,6.9C-.342,25.04.519,27.7,2.342,29.487a5.5,5.5,0,0,0,6.553.881C10.832,29.287,12.922,26.977,13.664,22.069Z" transform="translate(14.574 13.581)"/><path class="l" d="M.992,33.731a.2.2,0,0,1-.2-.168,75.7,75.7,0,0,1-.8-11.1C-.018,16.543.615,7.864,3.733.126A.2.2,0,1,1,4.1.276C2.4,4.514.367,11.8.4,22.46A75.451,75.451,0,0,0,1.191,33.5a.2.2,0,0,1-.164.234Z" transform="translate(19.184 16.119)"/></g><path class="m" d="M0,1.142.731,12.165A3.587,3.587,0,0,0,4.413,15.51l26.339-.751a2.586,2.586,0,0,0,2.5-2.293A48.78,48.78,0,0,0,33.172,0Z" transform="translate(128.636 92.978)"/><path class="n" d="M4.43,14.86a.078.078,0,0,1,0-.149l.594-.017a.068.068,0,0,1,.078.073.078.078,0,0,1-.072.078l-.594.017ZM6.41,14.8a.078.078,0,0,1,0-.149L7,14.637a.072.072,0,0,1,.078.073.078.078,0,0,1-.072.078l-.594.017Zm1.98-.056a.078.078,0,0,1,0-.149l.594-.017a.078.078,0,1,1,0,.149l-.594.017Zm1.98-.056a.078.078,0,0,1,0-.149l.594-.017a.078.078,0,1,1,0,.149l-.594.017Zm-7.306-.013a.078.078,0,0,1-.024,0,3.51,3.51,0,0,1-.554-.248.078.078,0,0,1,.072-.13,3.342,3.342,0,0,0,.53.234.078.078,0,0,1-.024.145Zm9.286-.044a.078.078,0,0,1,0-.149l.594-.017a.078.078,0,0,1,.1.072.078.078,0,0,1-.063.079.078.078,0,0,1-.036,0l-.594.017Zm1.98-.056a.078.078,0,0,1,0-.149l.594-.017a.072.072,0,0,1,.078.073.078.078,0,0,1-.072.078l-.594.017Zm1.98-.056a.078.078,0,0,1,0-.149l.594-.017a.069.069,0,0,1,.078.073.078.078,0,0,1-.072.078l-.594.017Zm1.98-.056a.078.078,0,0,1,0-.149l.594-.017a.069.069,0,0,1,.078.073.078.078,0,0,1-.072.078l-.594.017Zm1.98-.056a.078.078,0,0,1,0-.149l.594-.017a.073.073,0,0,1,.078.073.078.078,0,0,1-.072.078l-.594.017Zm1.98-.056a.078.078,0,0,1,0-.149l.594-.017a.078.078,0,0,1,0,.149l-.594.017Zm1.98-.056a.078.078,0,0,1,0-.149l.594-.017a.072.072,0,0,1,.078.073.078.078,0,0,1-.072.078l-.594.017Zm1.98-.056a.078.078,0,0,1,0-.149l.594-.017a.069.069,0,0,1,.073.043.07.07,0,0,1,0,.03.078.078,0,0,1-.072.078l-.594.017Zm1.98-.056a.078.078,0,0,1,0-.149l.594-.017a.072.072,0,0,1,.072.044.073.073,0,0,1,.006.029.078.078,0,0,1-.072.078l-.594.017Zm1.961-.193a.078.078,0,0,1-.026-.145,2.389,2.389,0,0,0,.509-.268.078.078,0,0,1,.084.123,2.529,2.529,0,0,1-.541.284.078.078,0,0,1-.025,0ZM1.477,13.536a.078.078,0,0,1-.059-.029,3.5,3.5,0,0,1-.328-.513.078.078,0,1,1,.132-.069,3.362,3.362,0,0,0,.311.49.078.078,0,0,1-.058.12Zm30.068-.883a.078.078,0,0,1-.069-.1A2.385,2.385,0,0,0,31.632,12a.078.078,0,0,1,.146.023,2.53,2.53,0,0,1-.169.589.078.078,0,0,1-.064.041ZM.779,11.707A.078.078,0,0,1,.7,11.638l-.04-.6a.078.078,0,0,1,.069-.078.073.073,0,0,1,.078.07l.04.595a.078.078,0,0,1-.069.078ZM31.854,10.7h-.007a.078.078,0,0,1-.067-.078q.026-.288.05-.594a.078.078,0,0,1,.148.012q-.024.306-.051.595a.078.078,0,0,1-.073.066ZM.649,9.721a.078.078,0,0,1-.078-.07l-.04-.595A.078.078,0,0,1,.6,8.979a.073.073,0,0,1,.078.07l.04.6a.078.078,0,0,1-.069.078ZM32,8.712h0a.078.078,0,0,1-.07-.078q.016-.292.029-.595a.074.074,0,0,1,.149.007q-.013.3-.029.6a.078.078,0,0,1-.075.07ZM.517,7.737a.078.078,0,0,1-.078-.07L.4,7.073a.078.078,0,0,1,.148-.01l.04.6a.078.078,0,0,1-.069.078Zm31.55-1.011a.078.078,0,0,1-.073-.078q0-.3.006-.6a.078.078,0,0,1,.156,0q0,.3-.006.6a.078.078,0,0,1-.083.073ZM.385,5.754a.078.078,0,0,1-.078-.07l-.04-.6a.078.078,0,0,1,.069-.078.073.073,0,0,1,.071.042.074.074,0,0,1,.007.028l.04.595a.078.078,0,0,1-.069.078ZM32.058,4.738a.078.078,0,0,1-.078-.073q-.008-.3-.019-.595a.074.074,0,0,1,.149-.007q.012.3.02.6a.078.078,0,0,1-.072.078ZM.254,3.77A.078.078,0,0,1,.176,3.7l-.04-.6a.078.078,0,0,1,.069-.078.073.073,0,0,1,.071.042A.074.074,0,0,1,.283,3.1l.04.6a.078.078,0,0,1-.069.078Zm31.7-1.016a.078.078,0,0,1-.078-.069q-.023-.3-.051-.593a.078.078,0,0,1,.148-.014q.028.3.051.6a.078.078,0,0,1-.069.078ZM.122,1.788a.078.078,0,0,1-.078-.07L0,1.046l.641-.022a.072.072,0,0,1,.072.043A.073.073,0,0,1,.719,1.1a.078.078,0,0,1-.072.078L.16,1.191l.034.518a.078.078,0,0,1-.069.078Zm1.911-.662a.078.078,0,0,1,0-.149l.594-.02A.07.07,0,0,1,2.7,1a.071.071,0,0,1,.005.029.078.078,0,0,1-.072.078l-.594.02Zm1.979-.068a.078.078,0,0,1,0-.149l.594-.02A.073.073,0,0,1,4.684.96a.078.078,0,0,1-.072.078l-.594.02ZM5.993.99a.078.078,0,0,1,0-.149L6.587.82a.078.078,0,0,1,.005.149L6,.99ZM7.973.922a.078.078,0,0,1,0-.149l.594-.02A.072.072,0,0,1,8.639.8a.072.072,0,0,1,.006.029A.078.078,0,0,1,8.573.9l-.594.02ZM9.953.854a.078.078,0,0,1,0-.149l.594-.02a.075.075,0,0,1,.006.15l-.594.02Zm1.98-.068a.078.078,0,0,1,0-.149l.594-.02A.073.073,0,0,1,12.6.659a.074.074,0,0,1,.006.029.078.078,0,0,1-.072.078l-.594.02ZM31.75.779a.078.078,0,0,1-.073-.064Q31.636.42,31.59.126A.074.074,0,0,1,31.736.1q.047.3.087.592a.078.078,0,0,1-.063.084ZM13.913.718a.078.078,0,0,1,0-.149l.594-.02a.073.073,0,0,1,.078.072A.078.078,0,0,1,14.514.7l-.594.02ZM15.893.65a.078.078,0,0,1,0-.149l.594-.02a.069.069,0,0,1,.073.042.07.07,0,0,1,.005.03.078.078,0,0,1-.072.078L15.9.651Zm1.98-.068a.078.078,0,0,1,0-.149l.594-.02a.078.078,0,0,1,.078.072.078.078,0,0,1-.072.078l-.594.02Zm1.98-.068a.078.078,0,0,1,0-.149l.594-.02a.072.072,0,0,1,.078.072.078.078,0,0,1-.072.078l-.594.02Zm1.98-.068a.078.078,0,0,1,0-.149l.594-.02a.07.07,0,0,1,.078.072.078.078,0,0,1-.072.078l-.594.02Zm1.98-.068a.078.078,0,0,1,0-.149l.594-.02a.078.078,0,0,1,.078.072.078.078,0,0,1-.072.078l-.594.02ZM25.794.31a.078.078,0,0,1,0-.149l.594-.02a.072.072,0,0,1,.072.043.072.072,0,0,1,.006.029.078.078,0,0,1-.072.078L25.8.311Zm1.98-.068a.078.078,0,0,1,0-.149l.594-.02a.07.07,0,0,1,.078.072.078.078,0,0,1-.072.078l-.594.02Zm1.98-.068a.078.078,0,0,1,0-.149L30.349,0a.078.078,0,0,1,.094.036.078.078,0,0,1-.052.114.078.078,0,0,1-.036,0l-.594.02Z" transform="translate(129.359 92.976)"/><path class="o" d="M0,1.455.05.6A.653.653,0,0,1,.531.2C1.347.045,3.374-.258,4.378.443l.18.984Z" transform="translate(136.078 84.389)"/><path class="o" d="M1.067,3.178A1.173,1.173,0,0,1,.5,3.2a.514.514,0,0,1-.408-.485L0,.047,1.352,0l.091,2.663a.517.517,0,0,1-.376.515Z" transform="translate(137.547 81.758)"/><path class="o" d="M0,1.455.05.6A.653.653,0,0,1,.531.2C1.347.045,3.374-.258,4.378.443l.18.984Z" transform="translate(149.168 83.937)"/><path class="o" d="M1.076,3.459a1.172,1.172,0,0,1-.568.019A.514.514,0,0,1,.1,2.993L0,.047,1.352,0l.1,2.944a.516.516,0,0,1-.376.516Z" transform="translate(150.626 81.027)"/><path class="o" d="M.742,4.8l14.518-.984a.7.7,0,0,0,.649-.6,5.967,5.967,0,0,0-.018-1.85A1.679,1.679,0,0,0,14.218,0C11.5.029,4.6.268.849,1.91a1.333,1.333,0,0,0-.771.953A3.245,3.245,0,0,0,.094,4.347.623.623,0,0,0,.742,4.8Z" transform="translate(136.689 77.661)"/><path class="m" d="M1.372.778c4.693-.222,25-1.135,30.923-.625a1.2,1.2,0,0,1,1.064.9,40.009,40.009,0,0,1,1.272,8.865,1.055,1.055,0,0,1-.827,1.036L20.423,13.973l-4.784.165L1.191,11.769A1.125,1.125,0,0,1,.25,10.753,47.061,47.061,0,0,1,.2,1.845,1.248,1.248,0,0,1,1.372.778Z" transform="translate(127.952 84.966)"/><path class="n" d="M14.629,11.945h-.012l-.586-.1a.078.078,0,0,1-.086-.054.078.078,0,0,1,.11-.093l.586.1a.078.078,0,0,1-.012.148Zm.857-.03a.078.078,0,0,1,0-.149l.594-.02a.075.075,0,0,1,.006.15l-.594.02Zm1.98-.068a.078.078,0,0,1,0-.149l.594-.02a.071.071,0,0,1,.072.043.071.071,0,0,1,.006.029.078.078,0,0,1-.072.078l-.594.02Zm1.974-.115a.078.078,0,0,1-.016-.148l.58-.13a.078.078,0,0,1,.033.145l-.579.13Zm-6.763-.108h-.012l-.586-.1a.078.078,0,0,1,.024-.147l.586.1a.078.078,0,0,1-.012.148Zm-1.955-.32h-.012l-.586-.1a.078.078,0,1,1,.024-.147l.586.1a.078.078,0,0,1-.012.148ZM21.372,11.3a.078.078,0,0,1-.016-.148l.58-.131a.078.078,0,0,1,.033.145l-.58.131ZM8.766,10.984H8.754l-.588-.1a.075.075,0,0,1,.024-.148l.586.1a.078.078,0,0,1-.012.148ZM23.3,10.859a.078.078,0,0,1-.016-.148l.58-.13a.078.078,0,0,1,.033.145l-.579.13Zm-16.494-.2H6.8l-.586-.1a.075.075,0,0,1,.024-.148l.586.1a.078.078,0,0,1-.012.148Zm18.426-.24a.078.078,0,0,1-.016-.148l.58-.131a.078.078,0,0,1,.033.145l-.58.131ZM4.856,10.345H4.843l-.586-.1a.078.078,0,1,1,.024-.147l.586.1a.078.078,0,0,1-.012.148ZM2.9,10.025H2.888l-.586-.1a.078.078,0,0,1,.024-.147l.586.1a.078.078,0,0,1-.012.148ZM27.17,9.99a.078.078,0,0,1-.016-.148l.58-.13a.078.078,0,0,1,.033.145l-.58.13ZM.945,9.7H.933l-.586-.1a.078.078,0,0,1,.024-.147l.586.1a.078.078,0,0,1-.012.148ZM29.1,9.554a.078.078,0,0,1-.016-.148l.579-.13a.078.078,0,0,1,.033.145l-.58.13Zm1.933-.437a.078.078,0,0,1-.016-.148l.58-.13a.078.078,0,0,1,.033.145l-.58.13ZM.22,8.251a.078.078,0,0,1-.078-.07c-.012-.19-.025-.391-.037-.6a.078.078,0,0,1,.07-.078.071.071,0,0,1,.078.07c.012.206.024.406.037.6a.078.078,0,0,1-.069.078Zm32.15-.038a.078.078,0,0,1-.078-.072q-.012-.3-.03-.594a.078.078,0,0,1,.149-.009q.018.3.03.6a.078.078,0,0,1-.072.078ZM.116,6.265a.078.078,0,0,1-.078-.072C.03,6,.024,5.8.019,5.6a.078.078,0,0,1,.072-.078.078.078,0,0,1,.078.073c.005.2.012.4.019.6a.078.078,0,0,1-.072.078ZM32.224,6.23a.078.078,0,0,1-.074-.066q-.031-.3-.067-.592a.078.078,0,0,1,.147-.018q.036.294.067.595a.078.078,0,0,1-.066.078ZM.078,4.277A.078.078,0,0,1,0,4.2q0-.3.005-.6a.069.069,0,0,1,.048-.071.068.068,0,0,1,.03,0,.078.078,0,0,1,.073.078c0,.2,0,.4-.005.6a.078.078,0,0,1-.076.073Zm31.886-.018a.078.078,0,0,1-.073-.063q-.048-.3-.1-.588a.078.078,0,0,1,.146-.026q.05.288.1.59a.078.078,0,0,1-.062.085Zm-.356-1.954a.078.078,0,0,1-.072-.059q-.063-.306-.124-.583a.078.078,0,1,1,.145-.032q.061.278.124.584a.078.078,0,0,1-.058.088ZM.138,2.293h0a.078.078,0,0,1-.069-.078c.013-.2.029-.4.048-.6a.078.078,0,0,1,.148.014c-.019.192-.034.391-.047.592a.078.078,0,0,1-.076.066ZM.911.9a.078.078,0,0,1,0-.149L1.505.72a.075.075,0,0,1,.007.149L.918.9Zm1.98-.09a.078.078,0,0,1,0-.149L3.485.631A.075.075,0,0,1,3.492.78L2.9.806ZM4.871.72a.078.078,0,0,1,0-.149L5.465.546A.078.078,0,0,1,5.472.7L4.878.72ZM6.852.638a.078.078,0,0,1,0-.149L7.446.465a.078.078,0,0,1,.078.072.078.078,0,0,1-.072.078L6.858.639ZM8.832.56a.078.078,0,0,1,0-.149L9.426.388A.073.073,0,0,1,9.5.432.074.074,0,0,1,9.5.46a.078.078,0,0,1-.072.078L8.838.561Zm1.98-.074a.078.078,0,0,1,0-.149l.594-.021a.078.078,0,0,1,.078.072.078.078,0,0,1-.072.078l-.594.021Zm1.98-.069a.078.078,0,0,1,0-.149l.594-.02a.072.072,0,0,1,.072.043.073.073,0,0,1,.006.029A.078.078,0,0,1,13.392.4L12.8.418ZM31.164.366A.078.078,0,0,1,31.092.31l0-.017q-.223-.02-.476-.035a.078.078,0,0,1,.009-.148q.267.017.5.038a.116.116,0,0,1,.105.083l.012.045a.078.078,0,0,1-.054.091ZM14.772.353a.078.078,0,0,1,0-.149l.594-.018a.078.078,0,0,1,.078.073.078.078,0,0,1-.072.078l-.594.018ZM16.752.3a.078.078,0,0,1,0-.149L17.346.13A.078.078,0,0,1,17.424.2a.078.078,0,0,1-.072.078L16.758.3Zm1.98-.052a.078.078,0,0,1,0-.149L19.327.08a.078.078,0,0,1,0,.149ZM20.713.2a.078.078,0,0,1,0-.149l.594-.011a.078.078,0,0,1,0,.149ZM29.231.194,28.638.177A.078.078,0,0,1,28.565.1a.072.072,0,0,1,.078-.073l.594.016a.078.078,0,0,1,0,.149ZM22.69.169a.078.078,0,0,1,0-.149l.594-.007a.078.078,0,0,1,0,.149ZM27.247.154l-.594,0a.078.078,0,0,1,0-.149l.595,0a.078.078,0,0,1,0,.149Zm-2.575,0a.078.078,0,0,1,0-.149h.594a.078.078,0,0,1,0,.149Z" transform="translate(129.035 86.065)"/><path class="c" d="M5.937,6.228l-4.192.145a1.084,1.084,0,0,1-1.11-.917L.013,1.424A1.084,1.084,0,0,1,1.048.174L6.083,0A1.085,1.085,0,0,1,7.2,1.142L6.982,5.206A1.085,1.085,0,0,1,5.937,6.228Z" transform="translate(142.057 94.742)"/><g transform="translate(142.932 95.504)"><path class="p" d="M4.521,4.74l-3.193.11a.825.825,0,0,1-.845-.7L.009,1.084A.825.825,0,0,1,.8.133L4.63,0A.826.826,0,0,1,5.487.87l-.168,3.09a.826.826,0,0,1-.8.781Z" transform="translate(0 0)"/></g><path class="m" d="M9.028,0l57.5,1.443a5.969,5.969,0,0,1,5.807,5.823l2.159,83.761a4.4,4.4,0,0,1-4.423,4.524L4.142,95.1A4.182,4.182,0,0,1,0,90.811L2.1,6.618A6.774,6.774,0,0,1,9.028,0Z" transform="translate(22.631 11.95)"/><path class="q" d="M11.655,16.11,4.284,15.83A4.479,4.479,0,0,1,0,11.252L.28.078a.078.078,0,1,1,.156,0L.157,11.252a4.32,4.32,0,0,0,4.127,4.414l7.372.281a.078.078,0,0,1,0,.156Z" transform="translate(24.788 89.683)"/><path class="q" d="M.078,1.965A.078.078,0,0,1,0,1.887L.045.078A.083.083,0,0,1,.123,0,.078.078,0,0,1,.2.078L.156,1.887a.078.078,0,0,1-.078.078Z" transform="translate(25.152 84.418)"/><path class="c" d="M3.961.025C11.786,1.291,38.7,5.273,61.071,4.113a1.821,1.821,0,0,1,1.91,1.768L65.337,90.02a2.095,2.095,0,0,1-2.018,2.156c-9.4.322-48.122,1.507-61.878-.289A1.66,1.66,0,0,1,0,90.205L1.685,1.935A1.965,1.965,0,0,1,3.961.025Z" transform="translate(27.89 11.253)"/><path class="r" d="M3.81.024c7.531,1.218,33.435,5.05,54.959,3.934a1.752,1.752,0,0,1,1.841,1.7l2.267,80.97A2.016,2.016,0,0,1,60.934,88.7c-9.049.313-46.311,1.45-59.548-.278A1.6,1.6,0,0,1,0,86.808L1.618,1.862A1.891,1.891,0,0,1,3.81.024Z" transform="translate(28.828 13.455)"/><g transform="translate(63.234 22.339)"><path class="s" d="M21.69,2.1a.3.3,0,0,0,.311-.3V1.253A.332.332,0,0,0,21.69.927L.232,0A.2.2,0,0,0,.018.286l.316.978a.473.473,0,0,0,.407.3Z" transform="translate(0 0)"/></g><g transform="translate(63.151 25.571)"><path class="s" d="M.232,0A.2.2,0,0,0,.018.286l.316.977a.473.473,0,0,0,.407.306l20.946.526a.3.3,0,0,0,.311-.3V1.25a.332.332,0,0,0-.311-.326Z" transform="translate(0)"/></g><g transform="translate(63.073 28.849)"><path class="s" d="M.232,0A.2.2,0,0,0,.018.286l.316.977a.473.473,0,0,0,.407.306l20.946.526a.3.3,0,0,0,.311-.3V1.25a.332.332,0,0,0-.311-.326Z" transform="translate(0 0)"/></g><g transform="translate(37.086 34.97)"><path class="s" d="M49.519,2.8a.288.288,0,0,0,.28-.187.29.29,0,0,0,.018-.118L49.8,1.95a.342.342,0,0,0-.324-.323L.175,0C0-.005-.051.1.052.239L.873,1.333a.733.733,0,0,0,.5.257Z" transform="translate(0 0)"/></g><g transform="translate(37.006 38.201)"><path class="s" d="M.175,0C0-.005-.051.1.052.239L.873,1.333a.733.733,0,0,0,.5.257L49.518,2.8a.289.289,0,0,0,.3-.31l-.022-.541a.342.342,0,0,0-.324-.323Z" transform="translate(0)"/></g><path class="m" d="M8.909,8.923H8.891L2.418,8.907a1.753,1.753,0,0,1-1.8-1.485L.007,1.976a1.2,1.2,0,0,1,.276-.9,1.434,1.434,0,0,1,1-.5h0C1.825.528,2.577.458,3.4.381,5.2.213,7.245.023,8.445,0h.026a1.822,1.822,0,0,1,1.81,1.271,27.307,27.307,0,0,1,.289,6.145A1.616,1.616,0,0,1,8.909,8.923ZM1.321,1.1a.9.9,0,0,0-.631.313.675.675,0,0,0-.156.507l.609,5.446A1.23,1.23,0,0,0,2.422,8.38l6.473.015h.012a1.088,1.088,0,0,0,1.138-.987,27.149,27.149,0,0,0-.27-5.993A1.307,1.307,0,0,0,8.457.532c-1.18.023-3.3.22-5,.378-.83.078-1.585.148-2.133.189Z" transform="translate(36.656 45.614)"/><path class="t" d="M.828.454C2.187.351,5.141.028,6.542,0A1.254,1.254,0,0,1,7.8.86a22.143,22.143,0,0,1,.223,4.849,1.078,1.078,0,0,1-1.131,1L1.722,6.694a1.2,1.2,0,0,1-1.231-1L0,1.343A.842.842,0,0,1,.828.454Z" transform="translate(37.847 46.799)"/><g transform="translate(50.74 48.834)"><path class="s" d="M.247,0A.222.222,0,0,0,0,.186.223.223,0,0,0,.013.3L.731,2.934a.428.428,0,0,0,.389.3l33.03-.245a.305.305,0,0,0,.3-.313L34.4.879A.331.331,0,0,0,34.08.562Z" transform="translate(0 0)"/></g><path class="m" d="M.507,4.686A.992.992,0,0,1,1.88,5.05L3.173,7.338a.319.319,0,0,0,.569-.029L6.857.211a.353.353,0,0,1,.677.148A14,14,0,0,1,3.556,10.11S1.652,9.383.1,6.026a1.047,1.047,0,0,1,.41-1.339Z" transform="translate(38.45 43.421)"/><path class="m" d="M8.909,8.923H8.891L2.418,8.908a1.753,1.753,0,0,1-1.8-1.485L.007,1.978a1.2,1.2,0,0,1,.276-.9,1.433,1.433,0,0,1,1-.5h0C1.825.528,2.577.459,3.4.381,5.2.214,7.246.024,8.445,0h.026a1.822,1.822,0,0,1,1.81,1.271,27.3,27.3,0,0,1,.289,6.144A1.617,1.617,0,0,1,8.909,8.923ZM1.318,1.1a.9.9,0,0,0-.631.313.675.675,0,0,0-.156.507l.609,5.446A1.23,1.23,0,0,0,2.419,8.379l6.473.015H8.9a1.088,1.088,0,0,0,1.138-.987,27.135,27.135,0,0,0-.27-5.993A1.314,1.314,0,0,0,8.455.532c-1.18.023-3.3.22-5,.378-.83.078-1.585.148-2.133.189Z" transform="translate(36.758 59.535)"/><path class="t" d="M.828.454C2.187.351,5.141.028,6.542,0A1.254,1.254,0,0,1,7.8.86a22.143,22.143,0,0,1,.223,4.85,1.078,1.078,0,0,1-1.131,1L1.722,6.693a1.2,1.2,0,0,1-1.231-1L0,1.342A.842.842,0,0,1,.828.454Z" transform="translate(37.95 60.722)"/><g transform="translate(50.841 62.757)"><path class="s" d="M.247,0A.223.223,0,0,0,.013.3L.726,2.934a.428.428,0,0,0,.389.3l33.031-.244a.305.305,0,0,0,.3-.313L34.4.88a.331.331,0,0,0-.321-.317Z" transform="translate(0 0)"/></g><path class="m" d="M.507,4.687a.992.992,0,0,1,1.373.364L3.174,7.338a.319.319,0,0,0,.569-.029L6.858.211a.353.353,0,0,1,.677.148A13.993,13.993,0,0,1,3.555,10.11S1.651,9.383.1,6.025a1.047,1.047,0,0,1,.41-1.338Z" transform="translate(38.553 57.342)"/><path class="m" d="M8.909,8.922H8.892L2.419,8.908a1.753,1.753,0,0,1-1.8-1.485L.008,1.977A1.2,1.2,0,0,1,.28,1.069a1.436,1.436,0,0,1,1-.5C1.823.527,2.574.457,3.4.381,5.113.224,7.242.024,8.442,0a1.847,1.847,0,0,1,1.837,1.271,27.3,27.3,0,0,1,.289,6.144A1.618,1.618,0,0,1,8.909,8.922ZM1.317,1.1a.9.9,0,0,0-.631.313.676.676,0,0,0-.156.507l.609,5.446A1.23,1.23,0,0,0,2.417,8.379l6.473.015a1.114,1.114,0,0,0,1.151-.988,27.138,27.138,0,0,0-.27-5.993A1.323,1.323,0,0,0,8.453.531c-1.18.023-3.3.22-5,.379-.829.078-1.583.147-2.13.189Z" transform="translate(36.254 72.91)"/><path class="t" d="M.828.454C2.187.351,5.141.028,6.542,0A1.254,1.254,0,0,1,7.8.86a22.143,22.143,0,0,1,.223,4.849,1.079,1.079,0,0,1-1.131,1L1.722,6.695a1.2,1.2,0,0,1-1.231-1L0,1.344A.842.842,0,0,1,.828.454Z" transform="translate(37.441 74.092)"/><g transform="translate(50.334 76.13)"><path class="s" d="M.247,0A.223.223,0,0,0,.013.3L.726,2.934a.428.428,0,0,0,.389.3L34.147,2.99a.305.305,0,0,0,.3-.313L34.4.88a.331.331,0,0,0-.321-.317Z" transform="translate(0 0)"/></g><path class="m" d="M.507,4.686A.992.992,0,0,1,1.88,5.05L3.173,7.338a.319.319,0,0,0,.569-.029L6.857.211a.353.353,0,0,1,.677.148A14,14,0,0,1,3.556,10.11S1.652,9.383.1,6.026a1.047,1.047,0,0,1,.41-1.339Z" transform="translate(38.044 70.715)"/><path class="m" d="M8.909,8.921H8.891L2.418,8.907a1.753,1.753,0,0,1-1.8-1.485L.007,1.976a1.2,1.2,0,0,1,.276-.9,1.434,1.434,0,0,1,1-.5C1.825.527,2.577.458,3.4.381,5.2.213,7.246.023,8.445,0a1.842,1.842,0,0,1,1.837,1.271,27.307,27.307,0,0,1,.289,6.145A1.616,1.616,0,0,1,8.909,8.921ZM1.32,1.1a.9.9,0,0,0-.631.313.675.675,0,0,0-.156.507l.609,5.446A1.23,1.23,0,0,0,2.421,8.378l6.473.015h.012a1.088,1.088,0,0,0,1.138-.987,27.146,27.146,0,0,0-.27-5.993A1.331,1.331,0,0,0,8.456.53c-1.18.023-3.3.22-5,.378-.83.078-1.585.148-2.133.189Z" transform="translate(35.618 86.7)"/><path class="t" d="M.828.454C2.187.351,5.14.028,6.542,0A1.254,1.254,0,0,1,7.8.86a22.143,22.143,0,0,1,.223,4.849,1.078,1.078,0,0,1-1.131,1L1.723,6.695a1.2,1.2,0,0,1-1.231-1L0,1.344A.841.841,0,0,1,.828.454Z" transform="translate(36.808 87.885)"/><g transform="translate(49.699 89.918)"><path class="s" d="M.247,0A.222.222,0,0,0,0,.186.223.223,0,0,0,.013.3L.726,2.934a.428.428,0,0,0,.389.3l33.031-.244a.305.305,0,0,0,.3-.313L34.4.88a.331.331,0,0,0-.321-.317Z" transform="translate(0 0)"/></g><path class="m" d="M.507,4.686A.992.992,0,0,1,1.88,5.05L3.173,7.338a.319.319,0,0,0,.569-.029L6.857.211a.353.353,0,0,1,.677.148A14,14,0,0,1,3.556,10.11S1.652,9.383.1,6.026a1.047,1.047,0,0,1,.41-1.339Z" transform="translate(37.414 84.505)"/><path class="m" d="M7,1.356A5.821,5.821,0,0,0,1.875.184,2.544,2.544,0,0,0,.006,2.814L.4,8.831l6.509.745S11.005,4.3,7,1.356ZM4.014,6.129A1.63,1.63,0,1,1,5.176,5.68a1.624,1.624,0,0,1-1.162.449Z" transform="translate(57.254 0)"/><path class="q" d="M.38,5.735a.324.324,0,0,1-.2-.281L.113,4.5a.323.323,0,0,1,.645-.043l.063.959a.323.323,0,0,1-.441.323ZM.256,3.859a.324.324,0,0,1-.2-.281L.006,2.851A2.6,2.6,0,0,1,1.908.174,5.028,5.028,0,0,1,4.375.134a.324.324,0,0,1-.146.632A4.388,4.388,0,0,0,2.075.8,1.945,1.945,0,0,0,.651,2.808L.7,3.536a.323.323,0,0,1-.443.324Z" transform="translate(57.879 0.729)"/><path class="m" d="M0,4.82.078,1.8A1.837,1.837,0,0,1,2.025,0l20.72,1.238a1.79,1.79,0,0,1,1.68,1.727l.1,2.905Z" transform="translate(48.66 7.669)"/><path class="q" d="M.969.181.076.156A.078.078,0,0,1,.024.022.078.078,0,0,1,.08,0L.972.023a.078.078,0,0,1,0,.156Z" transform="translate(55.522 8.705)"/><path class="q" d="M.2,3.365A.324.324,0,0,1,0,3.053l.03-1.221A1.87,1.87,0,0,1,1.948,0l3.28.083a.324.324,0,0,1-.016.649L1.932.649a1.228,1.228,0,0,0-1.255,1.2L.646,3.069A.323.323,0,0,1,.2,3.363Z" transform="translate(49.487 8.349)"/><path class="m" d="M2.125,0,38.4.91a2.685,2.685,0,0,1,2.586,2.3l.026.179a2.306,2.306,0,0,1-2.336,2.647L1.46,5.1A1.5,1.5,0,0,1,0,3.485L.125,1.816A1.958,1.958,0,0,1,2.125,0Z" transform="translate(40.062 11.221)"/><path class="u" d="M.08,3.335A.078.078,0,0,1,.01,3.219,5.829,5.829,0,0,1,6.272.1a.079.079,0,0,1-.029.156A5.708,5.708,0,0,0,5.22.159,5.647,5.647,0,0,0,.152,3.291a.078.078,0,0,1-.072.045Z" transform="translate(73.736 51.107)"/><path class="n" d="M.3.44.053.253A.157.157,0,0,1,.016.065.1.1,0,0,1,.167.019h0L.409.21A.157.157,0,0,1,.442.393.095.095,0,0,1,.3.44Z" transform="translate(54.013 80.413)"/><path class="n" d="M.292.474.052.27A.172.172,0,0,1,.021.064.1.1,0,0,1,.185.025h0L.419.232a.168.168,0,0,1,.027.2.1.1,0,0,1-.154.04Z" transform="translate(53.204 79.734)"/><path class="n" d="M.284.506.05.286A.187.187,0,0,1,.026.063.111.111,0,0,1,.2.032h0L.429.254a.183.183,0,0,1,.02.219A.109.109,0,0,1,.284.506Z" transform="translate(52.424 79.002)"/><path class="n" d="M.268.528.047.294A.2.2,0,0,1,.031.059.117.117,0,0,1,.221.04L.436.274A.2.2,0,0,1,.448.509a.116.116,0,0,1-.181.02Z" transform="translate(51.682 78.231)"/><path class="n" d="M.255.554.044.305A.209.209,0,0,1,.039.055a.123.123,0,0,1,.2-.007h0L.444.3a.207.207,0,0,1,0,.247.121.121,0,0,1-.188.01Z" transform="translate(50.972 77.408)"/><path class="n" d="M.242.575.041.313a.219.219,0,0,1,0-.262A.128.128,0,0,1,.255.057L.45.319A.216.216,0,0,1,.442.578a.127.127,0,0,1-.2,0Z" transform="translate(50.293 76.539)"/><path class="n" d="M.227.6.038.321A.229.229,0,0,1,.054.047a.134.134,0,0,1,.219.02h0L.457.341a.226.226,0,0,1-.019.27A.133.133,0,0,1,.227.6Z" transform="translate(49.653 75.63)"/><path class="n" d="M.212.612.035.325A.235.235,0,0,1,.064.042.142.142,0,0,1,.29.078h0L.461.363A.235.235,0,0,1,.43.642.14.14,0,0,1,.212.612Z" transform="translate(49.048 74.683)"/><path class="n" d="M.2.628.03.329A.245.245,0,0,1,.073.036.149.149,0,0,1,.307.09l.156.3A.241.241,0,0,1,.417.674.147.147,0,0,1,.2.628Z" transform="translate(48.487 73.698)"/><path class="n" d="M.182.645.027.333a.252.252,0,0,1,.058-.3A.156.156,0,0,1,.325.1h0v0L.47.414a.248.248,0,0,1-.06.3A.156.156,0,0,1,.182.645Z" transform="translate(47.964 72.673)"/><path class="n" d="M.16.653.023.333A.258.258,0,0,1,.1.026.165.165,0,0,1,.343.118h0v0L.474.435A.255.255,0,0,1,.4.737.163.163,0,0,1,.16.653Z" transform="translate(47.494 71.62)"/><path class="n" d="M.141.658.019.328A.26.26,0,0,1,.11.019.173.173,0,0,1,.357.132h0L.474.457A.258.258,0,0,1,.382.762a.172.172,0,0,1-.241-.1Z" transform="translate(47.071 70.534)"/><path class="n" d="M.119.663.015.323A.259.259,0,0,1,.123.016.181.181,0,0,1,.369.152v0l.1.332v0A.257.257,0,0,1,.361.8.177.177,0,0,1,.119.663Z" transform="translate(46.707 69.418)"/><path class="n" d="M.1.663.011.315a.258.258,0,0,1,.126-.3A.189.189,0,0,1,.38.168V.174L.464.513v0a.256.256,0,0,1-.127.3A.187.187,0,0,1,.1.663Z" transform="translate(46.393 68.275)"/><path class="n" d="M.077.66.008.306a.256.256,0,0,1,.145-.3A.2.2,0,0,1,.392.189V.2L.457.541v0a.253.253,0,0,1-.146.3A.2.2,0,0,1,.077.66Z" transform="translate(46.142 67.114)"/><path class="n" d="M.054.655.005.294A.253.253,0,0,1,.17,0,.212.212,0,0,1,.4.209V.216l.046.35V.572A.249.249,0,0,1,.284.859.21.21,0,0,1,.054.655Z" transform="translate(45.956 65.929)"/><path class="n" d="M.029.645,0,.281A.247.247,0,0,1,.186,0C.3-.012.4.091.41.236V.243L.435.6V.6A.245.245,0,0,1,.249.878C.137.89.04.782.029.645Z" transform="translate(45.842 64.737)"/><path class="n" d="M.005.632,0,.267A.244.244,0,0,1,.2,0,.237.237,0,0,1,.418.256V.624A.24.24,0,0,1,.213.887.234.234,0,0,1,.005.632Z" transform="translate(45.798 63.531)"/><path class="n" d="M0,.616.018.251A.236.236,0,0,1,.243,0a.251.251,0,0,1,.2.281V.29L.424.643V.649A.234.234,0,0,1,.2.9.25.25,0,0,1,0,.616Z" transform="translate(45.811 62.327)"/><path class="n" d="M0,.6.043.233C.06.085.169-.018.289,0A.266.266,0,0,1,.473.309V.318L.431.667V.673A.229.229,0,0,1,.186.9.268.268,0,0,1,0,.6Z" transform="translate(45.894 61.133)"/><path class="n" d="M.005.573.07.215A.225.225,0,0,1,.334.007.283.283,0,0,1,.5.337V.343L.436.687V.693A.223.223,0,0,1,.172.9.28.28,0,0,1,.005.573Z" transform="translate(46.055 59.95)"/><path class="n" d="M.012.549.1.2C.135.051.262-.036.38.014A.3.3,0,0,1,.527.366h0V.372L.441.708V.714A.218.218,0,0,1,.16.895.3.3,0,0,1,.012.549Z" transform="translate(46.291 58.791)"/><path class="n" d="M.018.518.126.178a.213.213,0,0,1,.3-.156A.313.313,0,0,1,.551.393V.4L.444.727V.733a.215.215,0,0,1-.3.156A.313.313,0,0,1,.018.518Z" transform="translate(46.601 57.667)"/><path class="n" d="M.025.492.153.163A.215.215,0,0,1,.465.029.327.327,0,0,1,.572.42h0V.426L.442.741V.747a.214.214,0,0,1-.311.13A.325.325,0,0,1,.025.492Z" transform="translate(46.979 56.573)"/><path class="n" d="M.033.458.18.145A.209.209,0,0,1,.5.04a.334.334,0,0,1,.085.4V.444L.441.749V.755a.209.209,0,0,1-.318.1.333.333,0,0,1-.09-.4Z" transform="translate(47.42 55.525)"/><path class="n" d="M.038.43.2.127A.207.207,0,0,1,.526.049.34.34,0,0,1,.59.455v0L.434.754v0A.207.207,0,0,1,.109.837.339.339,0,0,1,.038.43Z" transform="translate(47.928 54.513)"/><path class="n" d="M.047.4.224.115A.205.205,0,0,1,.554.06.345.345,0,0,1,.6.472h0v0L.424.757v0A.205.205,0,0,1,.095.815.344.344,0,0,1,.047.4Z" transform="translate(48.476 53.544)"/><path class="n" d="M.055.376.241.1A.205.205,0,0,1,.574.071.348.348,0,0,1,.6.487L.413.755A.2.2,0,0,1,.08.785.347.347,0,0,1,.055.376Z" transform="translate(49.08 52.622)"/><path class="n" d="M.061.354l.2-.263A.205.205,0,0,1,.6.082.35.35,0,0,1,.6.5h0l-.2.256A.205.205,0,0,1,.073.765.35.35,0,0,1,.061.354Z" transform="translate(49.719 51.738)"/><path class="n" d="M.07.329.282.08A.206.206,0,0,1,.618.093a.352.352,0,0,1-.01.42h0L.4.756A.206.206,0,0,1,.065.742a.35.35,0,0,1,0-.413Z" transform="translate(50.396 50.904)"/><path class="n" d="M.081.305.3.071A.208.208,0,0,1,.639.1a.352.352,0,0,1-.026.42h0L.4.759A.208.208,0,0,1,.06.725.351.351,0,0,1,.081.305Z" transform="translate(51.104 50.112)"/><path class="n" d="M.085.286.319.063A.209.209,0,0,1,.655.115a.352.352,0,0,1-.042.42h0L.388.754A.209.209,0,0,1,.053.7.351.351,0,0,1,.085.286Z" transform="translate(51.849 49.358)"/><path class="n" d="M.1.265.334.054A.212.212,0,0,1,.668.126.351.351,0,0,1,.612.544h0L.378.75A.212.212,0,0,1,.043.678.35.35,0,0,1,.1.265Z" transform="translate(52.608 48.649)"/><path class="n" d="M.105.245l.244-.2A.215.215,0,0,1,.683.136.349.349,0,0,1,.612.554h0L.373.747A.214.214,0,0,1,.04.657.349.349,0,0,1,.105.245Z" transform="translate(53.403 47.984)"/><path class="n" d="M.116.227.365.042A.217.217,0,0,1,.7.149.348.348,0,0,1,.612.563h0L.367.745A.217.217,0,0,1,.035.638.347.347,0,0,1,.116.227Z" transform="translate(54.213 47.355)"/><path class="n" d="M.124.21.379.036A.221.221,0,0,1,.708.158a.346.346,0,0,1-.1.412h0L.36.739A.222.222,0,0,1,.031.617.345.345,0,0,1,.124.21Z" transform="translate(55.044 46.769)"/><path class="n" d="M.132.2.392.033A.222.222,0,0,1,.719.17a.344.344,0,0,1-.11.409h0L.354.735A.222.222,0,0,1,.027.6.343.343,0,0,1,.132.2Z" transform="translate(55.892 46.218)"/><path class="n" d="M.14.177.4.027A.229.229,0,0,1,.728.179.341.341,0,0,1,.607.585L.347.731A.228.228,0,0,1,.023.575.341.341,0,0,1,.14.177Z" transform="translate(56.757 45.71)"/><path class="n" d="M.15.162.418.023A.232.232,0,0,1,.739.19a.338.338,0,0,1-.133.4h0L.342.727A.232.232,0,0,1,.021.559.337.337,0,0,1,.15.162Z" transform="translate(57.633 45.239)"/><path class="n" d="M.155.146.427.019A.237.237,0,0,1,.745.2.335.335,0,0,1,.6.6L.333.722A.236.236,0,0,1,.016.54.332.332,0,0,1,.155.146Z" transform="translate(58.525 44.805)"/><path class="n" d="M.164.131.44.016a.238.238,0,0,1,.311.2A.333.333,0,0,1,.6.6L.324.714a.239.239,0,0,1-.311-.2A.325.325,0,0,1,.164.131Z" transform="translate(59.428 44.411)"/><path class="n" d="M.173.115l.279-.1A.249.249,0,0,1,.764.222.323.323,0,0,1,.6.607l-.273.1A.248.248,0,0,1,.011.5.324.324,0,0,1,.179.114Z" transform="translate(60.339 44.056)"/><path class="n" d="M.183.1.464.01a.248.248,0,0,1,.3.221A.32.32,0,0,1,.587.606L.309.7a.248.248,0,0,1-.3-.221A.322.322,0,0,1,.185.1Z" transform="translate(61.262 43.746)"/><path class="n" d="M.188.085.472.007C.6-.029.735.075.764.242A.314.314,0,0,1,.578.607L.3.686C.167.723.036.618.006.451A.315.315,0,0,1,.192.084Z" transform="translate(62.197 43.472)"/><path class="n" d="M.2.072.481.005A.254.254,0,0,1,.766.249.306.306,0,0,1,.57.6L.29.671A.254.254,0,0,1,0,.427.309.309,0,0,1,.2.07Z" transform="translate(63.137 43.237)"/><path class="n" d="M.2.058.489,0C.622-.022.746.093.766.258A.3.3,0,0,1,.562.6L.28.659C.147.685.023.571,0,.405a.3.3,0,0,1,.2-.347Z" transform="translate(64.083 43.045)"/><path class="n" d="M.21.044.5,0A.261.261,0,0,1,.766.267.3.3,0,0,1,.555.6L.271.645C.139.666.018.547,0,.381A.3.3,0,0,1,.213.044Z" transform="translate(65.034 42.889)"/><path class="n" d="M.216.032.506,0a.264.264,0,0,1,.26.274A.286.286,0,0,1,.546.6L.262.63A.264.264,0,0,1,0,.356.288.288,0,0,1,.22.03Z" transform="translate(65.991 42.775)"/><path class="n" d="M.223.018.513,0A.267.267,0,0,1,.763.284.28.28,0,0,1,.537.6L.252.615A.266.266,0,0,1,0,.332.279.279,0,0,1,.227.019Z" transform="translate(66.95 42.704)"/><path class="n" d="M.23.006.52,0A.272.272,0,0,1,.762.292a.276.276,0,0,1-.234.3L.243.6A.272.272,0,0,1,0,.309a.275.275,0,0,1,.234-.3Z" transform="translate(67.91 42.668)"/><path class="n" d="M.236,0l.29.006a.274.274,0,0,1,.234.3A.267.267,0,0,1,.519.6L.234.593A.274.274,0,0,1,0,.292.269.269,0,0,1,.241,0Z" transform="translate(68.871 42.666)"/><path class="n" d="M.244,0l.29.019A.277.277,0,0,1,.757.332C.747.5.64.619.51.611L.225.593A.277.277,0,0,1,0,.281C.01.114.117-.007.248,0Z" transform="translate(69.831 42.703)"/><path class="n" d="M.251,0,.54.031A.282.282,0,0,1,.753.349.256.256,0,0,1,.5.615L.215.585A.281.281,0,0,1,0,.269.258.258,0,0,1,.254,0Z" transform="translate(70.789 42.78)"/><path class="n" d="M.258,0,.546.045a.285.285,0,0,1,.2.324A.251.251,0,0,1,.49.624L.206.582A.285.285,0,0,1,0,.258.251.251,0,0,1,.261,0Z" transform="translate(71.746 42.897)"/><path class="n" d="M.264,0,.551.059A.287.287,0,0,1,.744.39C.724.549.605.657.479.632L.2.578A.288.288,0,0,1,0,.246C.022.088.141-.021.267,0Z" transform="translate(72.697 43.054)"/><path class="n" d="M.271,0,.556.072A.291.291,0,0,1,.739.41a.239.239,0,0,1-.27.229L.188.572A.291.291,0,0,1,0,.235a.24.24,0,0,1,.27-.23Z" transform="translate(73.646 43.256)"/><path class="n" d="M.277.008.56.086A.294.294,0,0,1,.732.43.234.234,0,0,1,.457.646L.179.567A.3.3,0,0,1,.006.224.234.234,0,0,1,.281.007Z" transform="translate(74.587 43.495)"/><path class="n" d="M.288.009.568.1A.3.3,0,0,1,.73.452a.227.227,0,0,1-.28.2L.17.562A.3.3,0,0,1,.008.213a.228.228,0,0,1,.28-.2Z" transform="translate(75.516 43.778)"/><path class="n" d="M.293.01.57.117A.3.3,0,0,1,.721.471.223.223,0,0,1,.438.66L.164.557A.3.3,0,0,1,.013.2.225.225,0,0,1,.3.012Z" transform="translate(76.444 44.103)"/><path class="n" d="M.3.014.573.131A.3.3,0,0,1,.714.49.218.218,0,0,1,.427.666L.156.551A.3.3,0,0,1,.015.192.219.219,0,0,1,.3.015Z" transform="translate(77.359 44.467)"/><path class="n" d="M.3.016.576.144A.306.306,0,0,1,.706.506.215.215,0,0,1,.417.67L.149.545A.306.306,0,0,1,.016.183.215.215,0,0,1,.306.018Z" transform="translate(78.263 44.868)"/><path class="n" d="M.308.019.575.154A.307.307,0,0,1,.7.519.215.215,0,0,1,.407.675L.142.54A.308.308,0,0,1,.019.175.215.215,0,0,1,.311.019Z" transform="translate(79.16 45.301)"/><path class="n" d="M.312.022.577.168A.308.308,0,0,1,.69.535.207.207,0,0,1,.4.677L.135.533A.308.308,0,0,1,.021.167.208.208,0,0,1,.314.024Z" transform="translate(80.047 45.767)"/><path class="n" d="M.315.028.577.185A.313.313,0,0,1,.683.552.2.2,0,0,1,.389.684L.129.528A.313.313,0,0,1,.022.16.205.205,0,0,1,.316.026Z" transform="translate(80.923 46.256)"/><path class="n" d="M.317.025.577.186a.313.313,0,0,1,.1.369.2.2,0,0,1-.3.123L.123.522a.313.313,0,0,1-.1-.369.2.2,0,0,1,.3-.124Z" transform="translate(81.79 46.782)"/><path class="n" d="M.32.029.577.2A.313.313,0,0,1,.668.566a.2.2,0,0,1-.3.116L.119.516A.313.313,0,0,1,.025.147.2.2,0,0,1,.32.031Z" transform="translate(82.647 47.324)"/><path class="n" d="M.321.032.575.206A.313.313,0,0,1,.662.575a.2.2,0,0,1-.3.108L.114.511A.313.313,0,0,1,.027.142a.2.2,0,0,1,.3-.109Z" transform="translate(83.496 47.885)"/><path class="n" d="M.326.035.577.213A.313.313,0,0,1,.655.581a.2.2,0,0,1-.294.1L.111.506A.313.313,0,0,1,.028.137a.2.2,0,0,1,.3-.1Z" transform="translate(84.334 48.469)"/><path class="n" d="M.324.035.573.217A.309.309,0,0,1,.651.584a.193.193,0,0,1-.294.1h0L.108.5A.309.309,0,0,1,.03.132a.194.194,0,0,1,.294-.1Z" transform="translate(85.173 49.066)"/><path class="n" d="M.325.036.572.222A.308.308,0,0,1,.645.589.191.191,0,0,1,.351.68h0L.105.5A.308.308,0,0,1,.031.129.192.192,0,0,1,.325.036Z" transform="translate(85.999 49.677)"/><path class="n" d="M.326.038.571.227A.306.306,0,0,1,.64.592.19.19,0,0,1,.348.679h0L.1.492A.307.307,0,0,1,.032.126.19.19,0,0,1,.325.038Z" transform="translate(86.82 50.297)"/><path class="n" d="M.324.039.569.23A.306.306,0,0,1,.636.594.188.188,0,0,1,.345.678L.1.488A.306.306,0,0,1,.033.124.189.189,0,0,1,.324.038Z" transform="translate(87.639 50.93)"/><path class="n" d="M.324.042.567.235A.3.3,0,0,1,.632.6a.187.187,0,0,1-.29.078L.1.485A.3.3,0,0,1,.033.122.187.187,0,0,1,.324.039Z" transform="translate(88.452 51.566)"/><path class="n" d="M.322.04.565.234a.3.3,0,0,1,.064.36A.186.186,0,0,1,.341.672L.1.479A.3.3,0,0,1,.033.118.187.187,0,0,1,.322.04Z" transform="translate(89.264 52.214)"/><path class="n" d="M.322.039.564.234A.3.3,0,0,1,.626.592.184.184,0,0,1,.34.671L.1.477A.3.3,0,0,1,.033.118.185.185,0,0,1,.32.04Z" transform="translate(90.073 52.859)"/><path class="n" d="M.32.04.562.234A.3.3,0,0,1,.624.59.183.183,0,0,1,.339.669L.1.475A.3.3,0,0,1,.033.118.184.184,0,0,1,.319.04Z" transform="translate(90.882 53.508)"/><path class="n" d="M.318.039.56.233A.3.3,0,0,1,.622.587.183.183,0,0,1,.339.665L.1.472A.3.3,0,0,1,.033.117.183.183,0,0,1,.316.039Z" transform="translate(91.691 54.156)"/><path class="n" d="M.314.039.557.232A.295.295,0,0,1,.621.583.182.182,0,0,1,.34.661L.1.469A.3.3,0,0,1,.032.117.182.182,0,0,1,.314.039Z" transform="translate(92.504 54.8)"/><path class="n" d="M.313.038.556.229A.293.293,0,0,1,.621.578a.181.181,0,0,1-.28.078L.1.466A.293.293,0,0,1,.032.116.181.181,0,0,1,.311.038Z" transform="translate(93.316 55.44)"/><path class="n" d="M.31.037.555.225A.291.291,0,0,1,.621.572.18.18,0,0,1,.344.655L.1.467A.291.291,0,0,1,.031.12.18.18,0,0,1,.309.036Z" transform="translate(94.132 56.073)"/><path class="n" d="M.3.036.551.221A.287.287,0,0,1,.619.563.179.179,0,0,1,.346.648L.1.464A.287.287,0,0,1,.029.121.18.18,0,0,1,.3.034h0Z" transform="translate(94.954 56.7)"/><path class="n" d="M.3.033.548.215a.283.283,0,0,1,.07.337A.177.177,0,0,1,.349.64L.1.459A.284.284,0,0,1,.028.122.178.178,0,0,1,.3.032h0Z" transform="translate(95.78 57.315)"/><path class="n" d="M.3.031.545.208A.278.278,0,0,1,.619.54.176.176,0,0,1,.355.632L.1.455A.279.279,0,0,1,.025.123.176.176,0,0,1,.291.029h0Z" transform="translate(96.612 57.917)"/><path class="n" d="M.286.029.537.2A.273.273,0,0,1,.615.526a.174.174,0,0,1-.259.1L.1.451A.274.274,0,0,1,.024.125a.175.175,0,0,1,.261-.1h0Z" transform="translate(97.457 58.505)"/><path class="n" d="M.284.027.538.193A.268.268,0,0,1,.616.511a.173.173,0,0,1-.255.1L.1.447A.269.269,0,0,1,.022.127a.173.173,0,0,1,.256-.1h0Z" transform="translate(98.301 59.071)"/><path class="n" d="M.273.023.53.18A.263.263,0,0,1,.614.492.172.172,0,0,1,.365.6L.106.441A.264.264,0,0,1,.02.129.173.173,0,0,1,.271.022h0Z" transform="translate(99.163 59.622)"/><path class="n" d="M.267.02l.26.152A.258.258,0,0,1,.616.478.17.17,0,0,1,.372.59L.109.438A.258.258,0,0,1,.018.132.172.172,0,0,1,.264.019Z" transform="translate(100.026 60.148)"/><path class="n" d="M.259.019.522.161a.251.251,0,0,1,.093.3A.17.17,0,0,1,.377.577L.112.434a.252.252,0,0,1-.095-.3A.171.171,0,0,1,.256.016Z" transform="translate(100.904 60.645)"/><path class="n" d="M.253.015.518.149a.246.246,0,0,1,.1.291A.17.17,0,0,1,.384.565L.115.431a.247.247,0,0,1-.1-.292A.17.17,0,0,1,.248.013h0Z" transform="translate(101.788 61.117)"/><path class="n" d="M.243.014.512.139a.24.24,0,0,1,.1.284A.169.169,0,0,1,.39.553L.118.429A.24.24,0,0,1,.013.146.17.17,0,0,1,.24.014Z" transform="translate(102.687 61.551)"/><path class="n" d="M.23.013.5.126A.235.235,0,0,1,.612.4.169.169,0,0,1,.393.538L.122.426A.235.235,0,0,1,.011.15.17.17,0,0,1,.231.011Z" transform="translate(103.597 61.957)"/><path class="n" d="M.227.01.5.112A.227.227,0,0,1,.616.378.169.169,0,0,1,.4.523L.126.422A.227.227,0,0,1,.009.155.171.171,0,0,1,.222.008Z" transform="translate(104.508 62.324)"/><path class="n" d="M.218.007.495.1A.22.22,0,0,1,.616.353a.17.17,0,0,1-.2.152L.13.417A.22.22,0,0,1,.007.16.17.17,0,0,1,.213,0h0Z" transform="translate(105.434 62.65)"/><path class="n" d="M.208.008l.28.078A.213.213,0,0,1,.615.333a.171.171,0,0,1-.2.156L.134.411A.213.213,0,0,1,.006.163.171.171,0,0,1,.2,0h0Z" transform="translate(106.371 62.931)"/><path class="n" d="M.2,0,.48.063A.206.206,0,0,1,.613.3.171.171,0,0,1,.424.464L.139.4A.206.206,0,0,1,0,.169.172.172,0,0,1,.194,0h0Z" transform="translate(107.314 63.173)"/><path class="n" d="M.189,0,.473.047A.2.2,0,0,1,.611.273a.172.172,0,0,1-.18.173L.143.4A.2.2,0,0,1,0,.175.173.173,0,0,1,.184,0Z" transform="translate(108.264 63.364)"/><path class="n" d="M.178,0l.285.03A.19.19,0,0,1,.607.245a.174.174,0,0,1-.171.18L.148.4A.191.191,0,0,1,0,.182.175.175,0,0,1,.173,0Z" transform="translate(109.225 63.5)"/><path class="n" d="M.164,0,.449.016a.183.183,0,0,1,.15.2A.175.175,0,0,1,.437.406L.152.392A.184.184,0,0,1,0,.188.176.176,0,0,1,.164,0h0Z" transform="translate(110.186 63.583)"/><path class="n" d="M.155,0H.442a.2.2,0,0,1,0,.384H.153A.2.2,0,0,1,.153,0Z" transform="translate(111.147 63.615)"/><path class="n" d="M.149.016.434,0A.169.169,0,0,1,.589.18a.177.177,0,0,1-.143.2L.157.395A.169.169,0,0,1,0,.215a.179.179,0,0,1,.144-.2h0Z" transform="translate(112.107 63.581)"/><path class="n" d="M.142.03.426,0a.162.162,0,0,1,.16.169.178.178,0,0,1-.134.2L.164.4A.162.162,0,0,1,0,.234a.18.18,0,0,1,.135-.2h0Z" transform="translate(113.065 63.496)"/><path class="n" d="M.133.046.416,0A.156.156,0,0,1,.567.095.157.157,0,0,1,.58.156a.179.179,0,0,1-.125.2L.168.408A.156.156,0,0,1,.016.314.157.157,0,0,1,0,.252.18.18,0,0,1,.129.046h0Z" transform="translate(114.02 63.361)"/><path class="n" d="M.125.061.407,0A.15.15,0,0,1,.572.147.18.18,0,0,1,.456.353L.171.416A.151.151,0,0,1,0,.27.181.181,0,0,1,.121.061h0Z" transform="translate(114.972 63.176)"/><path class="n" d="M.117.08.4,0A.144.144,0,0,1,.563.137.18.18,0,0,1,.456.346L.173.424A.145.145,0,0,1,.005.289.181.181,0,0,1,.113.078Z" transform="translate(115.916 62.94)"/><path class="n" d="M.11.092.387,0A.139.139,0,0,1,.555.128a.18.18,0,0,1-.1.209L.176.428A.14.14,0,0,1,.006.3a.181.181,0,0,1,.1-.212h0Z" transform="translate(116.855 62.666)"/><path class="n" d="M.1.107.376,0A.134.134,0,0,1,.545.119a.18.18,0,0,1-.09.21L.177.435A.134.134,0,0,1,.007.321.181.181,0,0,1,.1.109h0Z" transform="translate(117.786 62.337)"/><path class="n" d="M.095.123.366.007a.129.129,0,0,1,.169.1A.179.179,0,0,1,.453.321L.179.44a.129.129,0,0,1-.171-.1A.18.18,0,0,1,.091.124h0Z" transform="translate(118.702 61.967)"/><path class="n" d="M.087.138.354.009A.124.124,0,0,1,.523.1a.179.179,0,0,1-.074.21L.18.445A.125.125,0,0,1,.01.352.179.179,0,0,1,.088.14Z" transform="translate(119.609 61.548)"/><path class="n" d="M.082.153.345.011A.119.119,0,0,1,.512.094.176.176,0,0,1,.447.3L.181.448A.12.12,0,0,1,.012.37.178.178,0,0,1,.077.158h0Z" transform="translate(120.5 61.087)"/><path class="n" d="M.074.17.332.014A.114.114,0,0,1,.5.086a.173.173,0,0,1-.057.2L.179.447A.114.114,0,0,1,.014.376.175.175,0,0,1,.07.168h0Z" transform="translate(121.379 60.583)"/><path class="n" d="M.068.183.322.016a.108.108,0,0,1,.16.062.169.169,0,0,1-.049.2L.178.45A.109.109,0,0,1,.015.389a.171.171,0,0,1,.049-.2h0Z" transform="translate(122.241 60.041)"/><path class="n" d="M.058.2.306.018A.1.1,0,0,1,.462.07a.164.164,0,0,1-.04.2L.172.45A.1.1,0,0,1,.017.4.167.167,0,0,1,.057.2h0Z" transform="translate(123.089 59.455)"/><path class="n" d="M.052.215.294.023A.1.1,0,0,1,.45.066a.157.157,0,0,1-.033.19l-.243.2A.1.1,0,0,1,.018.41.162.162,0,0,1,.052.217h0Z" transform="translate(123.912 58.824)"/><path class="n" d="M.049.227l.234-.2A.094.094,0,0,1,.43.057.157.157,0,0,1,.4.241L.17.45A.095.095,0,0,1,.02.417.157.157,0,0,1,.046.229Z" transform="translate(124.718 58.159)"/><path class="n" d="M.044.241.273.026A.089.089,0,0,1,.416.051.15.15,0,0,1,.4.23L.167.45A.091.091,0,0,1,.021.426.152.152,0,0,1,.041.244Z" transform="translate(125.499 57.448)"/><path class="n" d="M.038.255.26.028A.086.086,0,0,1,.4.045.145.145,0,0,1,.385.217L.163.451A.086.086,0,0,1,.023.436.147.147,0,0,1,.036.261h0Z" transform="translate(126.262 56.702)"/><path class="n" d="M.034.268.248.03A.082.082,0,0,1,.381.039.139.139,0,0,1,.374.205L.16.448A.082.082,0,0,1,.025.44.141.141,0,0,1,.031.272Z" transform="translate(126.995 55.919)"/><path class="n" d="M.03.282.235.033a.078.078,0,0,1,.127,0,.133.133,0,0,1,0,.156L.156.446a.078.078,0,0,1-.129,0,.135.135,0,0,1,0-.161h0Z" transform="translate(127.701 55.099)"/><path class="n" d="M.03.291l.2-.26a.078.078,0,0,1,.121,0,.127.127,0,0,1,0,.151l-.2.264A.078.078,0,0,1,.029.448a.128.128,0,0,1,0-.156H.03Z" transform="translate(128.378 54.243)"/><path class="n" d="M.021.306.209.035A.071.071,0,0,1,.324.025.121.121,0,0,1,.333.169L.146.443A.072.072,0,0,1,.029.455.122.122,0,0,1,.02.309h0Z" transform="translate(129.032 53.348)"/><path class="n" d="M.018.317.2.037A.068.068,0,0,1,.305.021.114.114,0,0,1,.319.157L.141.441A.069.069,0,0,1,.031.459.116.116,0,0,1,.017.32h0Z" transform="translate(129.649 52.422)"/><path class="n" d="M.016.329.184.038a.065.065,0,0,1,.1-.021A.107.107,0,0,1,.3.145L.136.439a.066.066,0,0,1-.1.022A.109.109,0,0,1,.014.331h0Z" transform="translate(130.234 51.466)"/><path class="n" d="M.014.339l.156-.3a.061.061,0,0,1,.1-.025.1.1,0,0,1,.02.12L.13.437a.063.063,0,0,1-.1.027A.1.1,0,0,1,.011.342h0Z" transform="translate(130.783 50.474)"/><path class="n" d="M.011.354.149.042A.059.059,0,0,1,.238.01.093.093,0,0,1,.264.12L.126.439a.061.061,0,0,1-.09.034A.095.095,0,0,1,.008.36h0Z" transform="translate(131.289 49.444)"/><path class="n" d="M.006.375.115.046A.058.058,0,0,1,.193,0,.085.085,0,0,1,.226.1L.117.44A.059.059,0,0,1,.039.483a.086.086,0,0,1-.034-.1h0Z" transform="translate(131.724 48.362)"/><path class="n" d="M0,.4.07.053A.058.058,0,0,1,.139,0,.074.074,0,0,1,.181.086L.115.44a.059.059,0,0,1-.07.055A.078.078,0,0,1,0,.407Z" transform="translate(132.044 47.219)"/><path class="n" d="M0,.424.01.069v0A.059.059,0,0,1,.064,0,.062.062,0,0,1,.116.068L.109.431A.062.062,0,0,1,.053.5.063.063,0,0,1,0,.427H0Z" transform="translate(132.207 46.027)"/><path class="n" d="M.069.424,0,.079v0A.063.063,0,0,1,.038,0,.049.049,0,0,1,.091.026.049.049,0,0,1,.1.046L.168.4A.065.065,0,0,1,.131.478.051.051,0,0,1,.077.453.051.051,0,0,1,.07.432Z" transform="translate(132.083 44.852)"/><path class="n" d="M.145.4.007.089v0A.063.063,0,0,1,.024.007.04.04,0,0,1,.085.028L.229.345A.066.066,0,0,1,.212.423.041.041,0,0,1,.149.4h0Z" transform="translate(131.7 43.757)"/><path class="n" d="M.217.332.012.086a.06.06,0,0,1,0-.072.035.035,0,0,1,.057,0l.213.25a.062.062,0,0,1,0,.074.037.037,0,0,1-.059,0h0Z" transform="translate(131.087 42.858)"/><path class="n" d="M.29.221.028.087h0A.05.05,0,0,1,0,.028.034.034,0,0,1,.05,0L.324.138A.052.052,0,0,1,.345.2.036.036,0,0,1,.3.226h0Z" transform="translate(130.26 42.27)"/><g transform="translate(92.447 51.302)"><path class="v" d="M3.883,2.746a.34.34,0,0,0-.009-.089A4.624,4.624,0,0,0,1.624,0L.754.069A9.068,9.068,0,0,0,.012,2.8a.108.108,0,0,0,.009.034A20.564,20.564,0,0,0,3.883,2.746Z" transform="translate(14.854 55.445)"/><path class="w" d="M0,.08A.379.379,0,0,0,.1.259a.377.377,0,0,0,.177.1A11.851,11.851,0,0,0,3.6.313.316.316,0,0,0,3.786.2.318.318,0,0,0,3.861,0,20.565,20.565,0,0,1,0,.08Z" transform="translate(14.874 58.195)"/><path class="x" d="M1.532,0,1.151,1.839a.3.3,0,0,1-.256.248,2.531,2.531,0,0,1-.589-.009.378.378,0,0,1-.3-.444L.272,0Z" transform="translate(15.658 54.085)"/><path class="w" d="M3.828.234A5.124,5.124,0,0,0,5.485,0V.284A.183.183,0,0,1,5.31.471L.211.438A.234.234,0,0,1,.023.1C.69.151,2.392.274,3.828.234Z" transform="translate(3.657 58.023)"/><path class="v" d="M0,2.507a.235.235,0,0,1,.02-.038A6.5,6.5,0,0,1,3.883.034L4.973,0a5.241,5.241,0,0,1,.493,2.408,4.949,4.949,0,0,1-1.657.234A37.636,37.636,0,0,1,0,2.507Z" transform="translate(3.679 55.614)"/><path class="y" d="M1.409.262C1.4.34,1.248,1.579,1.19,2.059a.234.234,0,0,1-.2.214,2.483,2.483,0,0,1-.747-.012A.323.323,0,0,1,0,1.938V0Z" transform="translate(7.442 53.698)"/><path class="v" d="M9.278,0s1.74,15.517.773,25.216a7.46,7.46,0,0,1-1.74-.194S6.5,9.85,5.919,5.508A.146.146,0,0,0,5.633,5.5C4.911,9.151,2.077,23.471,1.74,24.827a2.386,2.386,0,0,1-1.74,0S1.546,4.073,2.706.388Z" transform="translate(7.187 29.934)"/><path class="p" d="M13.143.418S5.8-.745,0,.809L.389,6.822S1.936,15.163,3.1,18.848c0,0,4.445.776,6.572-.391,0,0,1.74-10.471,2.706-12.026A26.593,26.593,0,0,0,13.143.418Z" transform="translate(6.8 11.475)"/><path class="z" d="M2.743,0l.732,4.966S1.431,5.908,0,4.925l.311-3.5Z" transform="translate(12.098 6.595)"/><path class="p" d="M0,16.192S16.6,11.66,8.358,0L7.8.792s2.483,7.9-5.742,8.647C2.058,9.439-.072,14.952,0,16.192Z" transform="translate(16.636 2.4)"/><path class="z" d="M2.629,2.46S2.816.208,1.7.021.2.959.013,1.521,1.7,3.209,2.07,3.209,2.629,2.46,2.629,2.46Z" transform="translate(22.421 0)"/><path class="p" d="M10.651,16.192S-5.945,11.66,2.3,0l.558.792S.371,8.689,8.595,9.44C8.595,9.435,10.725,14.948,10.651,16.192Z" transform="translate(0 2.968)"/><path class="z" d="M.012,2.46S-.175.208.946.021s1.5.938,1.683,1.5S.946,3.209.572,3.209.012,2.46.012,2.46Z" transform="translate(2.228 0.562)"/><path class="z" d="M1.367.242C1.326.3,0,4.737,0,4.737l2.542.7,1.88-4.02S2.062-.7,1.367.242Z" transform="translate(10.744 3.211)"/><path class="v" d="M3.892,3.755,3.065,5.948a.325.325,0,0,1-.042.078c-.109.148-.52.631-.986.178A2.909,2.909,0,0,0,.854,5.353a.326.326,0,0,0-.376.227A14.2,14.2,0,0,0,0,7.725a.326.326,0,0,0,.257.358A10.492,10.492,0,0,0,2.7,8.338a.326.326,0,0,0,.279-.184C3.229,7.625,4.009,6.022,4.3,5.608c.269-.391.907-.363,1.174-.334A.32.32,0,0,0,5.715,5.2.851.851,0,0,0,5.8,3.841a.329.329,0,0,1,.018-.469A.852.852,0,0,0,5.95,2.111a1.2,1.2,0,0,0-1.42-.373.326.326,0,0,1-.389-.156.258.258,0,0,0-.263-.13.322.322,0,0,1-.336-.338A.978.978,0,0,0,2.811.077C1.7-.3.983.771.9,1.578s1.139,1.142,1.865,1.1c.551-.03.949.527,1.107.8a.326.326,0,0,1,.023.279Z" transform="translate(10.299 1.477)"/><path class="z" d="M0,1.459S.21.061.793,0s1.138.435.545,1.21C.6,2.177,0,1.459,0,1.459Z" transform="translate(14.29 6.422)"/></g><path class="z" d="M1.3,0,1.159,2.7s.835,9.025,1.012,13.021A3.14,3.14,0,0,1,1.709,17.5L0,20.282,4.343,17.71l.086-.532L3.718,16.2,4.653,5.007a3.444,3.444,0,0,0-.389-1.9l-.9-1.693Z" transform="translate(117.674 89.606)"/><path class="m" d="M.367,4.135H1.753a.834.834,0,0,0,.663-.326c.432-.563,1.324-1.663,1.755-1.691.576-.038.5,2.017.5,2.017H5L5.4,1.581A1.514,1.514,0,0,0,4.614,0h0a2.128,2.128,0,0,1-.846,1.407C3.055,1.836.862,3.387.862,3.387A1.974,1.974,0,0,0,.3,3.4.37.37,0,0,0,.367,4.135Z" transform="translate(117.021 106.156)"/><path class="z" d="M1.307,0,1.013,1.732S2,11.722,2.171,15.72A3.14,3.14,0,0,1,1.709,17.5L0,20.284l4.343-2.572.086-.532L3.718,16.2,4.652,5.009a3.444,3.444,0,0,0-.389-1.9l-.9-1.693Z" transform="translate(121.408 89.606)"/><path class="p" d="M8.853,4.231C8.619,2.321,6.233.519,6.233.519A5.726,5.726,0,0,1,1.076,0,10.465,10.465,0,0,0,.129,3.9C.117,5.869,0,18.509,0,18.509a13.5,13.5,0,0,0,7.074.746C6.806,14.705,9.089,6.142,8.853,4.231Z" transform="translate(118.818 73.91)"/><path class="v" d="M0,.5s2.528-1.78,3.878,1.4c.247.581,1.67.677,1.816,1.856A1.351,1.351,0,0,0,6.822,4.94c1.505.234,3.824,1.016,4.2,3.638.283,2-.734,2.761-1.8,3.023a1.518,1.518,0,0,0-1.146,1.752c.156.762-.078,1.641-1.389,2.338C3.735,17.254.793,12,.793,12l-.6-9.178Z" transform="translate(120.743 54.315)"/><path class="m" d="M.366,4.135H1.752a.834.834,0,0,0,.663-.326c.432-.563,1.324-1.663,1.755-1.691.576-.038.5,2.017.5,2.017h.323L5.4,1.581A1.514,1.514,0,0,0,4.613,0h0a2.128,2.128,0,0,1-.846,1.407C3.054,1.836.861,3.387.861,3.387A1.974,1.974,0,0,0,.3,3.4.37.37,0,0,0,.366,4.135Z" transform="translate(120.756 106.156)"/><path class="m" d="M7.437,11.94A11.024,11.024,0,0,1,8.6,3.523,1.877,1.877,0,0,0,7.663.812,14.642,14.642,0,0,0,2.933,0a1.351,1.351,0,0,0-1.11.556C1.086,1.558-.3,3.74.06,5.5c.287,1.389,2.222,6.943,2.222,6.943A5.718,5.718,0,0,0,7.437,11.94Z" transform="translate(117.589 62.559)"/><path class="z" d="M2.333.517l.966,4.8c.115.48-.575.584-1.064.625A1.466,1.466,0,0,1,.586,5.195a.588.588,0,0,1-.062-.2L.006,1.216A.679.679,0,0,1,.4.5l1-.445a.676.676,0,0,1,.93.459Z" transform="translate(119.94 57.614)"/><path class="z" d="M1.874.169a4.893,4.893,0,0,0-1.706,2.8C-.359,4.982.449,5.717,1.286,5.686A3.869,3.869,0,0,0,4.409,3.966C5.478,2.526,3.419-.781,1.874.169Z" transform="translate(118.382 54.429)"/><path class="v" d="M2.9,4.867S3.37,1.976.963,2.388l-.491.5A1.57,1.57,0,0,1,.627.561a2.65,2.65,0,0,1,4.086,1.13c.972,1.838,1.324,3.126.472,4.249s-1.467.144-1.467.144.4-.978.083-1.4-.731.234-.731.234Z" transform="translate(118.838 52.701)"/><path class="z" d="M0,1.133S.23-.356.983.08.693,1.47.275,1.793Z" transform="translate(122.066 56.685)"/><path class="z" d="M.026,5.928a.186.186,0,0,1,.21-.273A3.047,3.047,0,0,0,2.69,5.51c.038-.027.078-.051.112-.074-.078-.093.786-.72,1.08-.284C5.151,6.48,6.788,8.3,9.644,6.925c2.12-1.016,2.13-4.027,1.994-5.51a1.244,1.244,0,0,1,.849-1.3,1.523,1.523,0,0,1,1.791.443,1.434,1.434,0,0,1,.311.992C14.5,3.116,13.934,8.216,10.313,9.3c-4.292,1.282-6.82-2.9-6.82-2.9S1.274,8.036.026,5.928Z" transform="translate(112.257 64.231)"/><path class="z" d="M0,1.026A2.734,2.734,0,0,0,.3.111c-.016-.3.6.059.892.49C.769,1.047.057,1.421,0,1.026Z" transform="translate(114.917 68.731)"/></g></g></svg>