<svg xmlns="http://www.w3.org/2000/svg" width="24" height="24" viewBox="0 0 24 24"><defs><style>.a{fill:#fff;stroke:#707070;opacity:0;}.b{fill:#546984;}.c{stroke:none;}.d{fill:none;}</style></defs><g transform="translate(-18796 -1240)"><g class="a" transform="translate(18796 1240)"><rect class="c" width="24" height="24"/><rect class="d" x="0.5" y="0.5" width="23" height="23"/></g><g transform="translate(18795.889 1240.108)"><path class="b" d="M4.331,19.693a4.25,4.25,0,0,1-2.982-1.221l-.088-.088a4.182,4.182,0,0,1-1.261-3,4.567,4.567,0,0,1,1.349-3.251L11.8,1.8A5.848,5.848,0,0,1,20,1.561,5.4,5.4,0,0,1,21.586,5.42a6.071,6.071,0,0,1-1.821,4.29l-9.4,9.309a.675.675,0,1,1-.924-.958l9.37-9.309A4.722,4.722,0,0,0,20.237,5.42a4.047,4.047,0,0,0-1.187-2.9,4.5,4.5,0,0,0-6.3.236L2.327,13.1a3.224,3.224,0,0,0-.978,2.293,2.84,2.84,0,0,0,.836,2.024l.088.088a3.13,3.13,0,0,0,4.385-.142l9.005-8.9a1.821,1.821,0,0,0,.526-1.309,1.585,1.585,0,0,0-.465-1.133,1.761,1.761,0,0,0-2.469.088L7.049,12.253a.675.675,0,0,1-.951-.958l6.233-6.172A3.116,3.116,0,0,1,16.7,5.035a2.921,2.921,0,0,1,.836,2.111A3.157,3.157,0,0,1,16.587,9.4L7.609,18.331a4.661,4.661,0,0,1-3.278,1.363Z" transform="translate(1.111 1.892)"/></g></g></svg>