<svg xmlns="http://www.w3.org/2000/svg" width="20" height="16" viewBox="0 0 20 16"><defs><style>.a{fill:#ed9e08;}.b{fill:#f6b333;}.c{fill:#fbd793;}</style></defs><g transform="translate(0 7)"><path class="a" d="M17.9,9.177H1.988A2.349,2.349,0,0,1,0,7.177v-7l9.942,2,9.942-2v7a2.349,2.349,0,0,1-1.988,2Z" transform="translate(0 -0.177)"/></g><g transform="translate(6.943 0)"><path class="a" d="M4.939,3.646h-4a1.543,1.543,0,0,1-1-1v-1c0-.7.3-2,1-2h4c.7,0,1,1.3,1,2v1A1.543,1.543,0,0,1,4.939,3.646Zm-4-1h4v-1c0-.05.05,0,0,0h-4c-.05,0,0-.05,0,0v1Z" transform="translate(0.061 0.354)"/></g><g transform="translate(0 2.856)"><path class="b" d="M9.942,7.293c-.047,0,.046.012,0,0L0,4.293v-4c0-.324.673,0,.994,0h17.9c.322,0,.994-.324.994,0v4c0,.269.259-.065,0,0l-9.942,3c-.046.012.047,0,0,0Z" transform="translate(0 -0.149)"/></g><path class="c" d="M4.939-.414h-4a1.543,1.543,0,0,0-1,1v2a1.543,1.543,0,0,0,1,1h4a1.543,1.543,0,0,0,1-1v-2A1.543,1.543,0,0,0,4.939-.414Z" transform="translate(7.003 7.414)"/></svg>