<svg xmlns="http://www.w3.org/2000/svg" width="20.138" height="17.709" viewBox="0 0 20.138 17.709"><defs><style>.a{fill:#2a5798;}</style></defs><g transform="translate(-335.996 -360.654)"><path class="a" d="M356.134,424v13.019a.411.411,0,0,0-.028.073,1.754,1.754,0,0,1-1.792,1.5q-8.248.005-16.5-.006a1.969,1.969,0,0,1-.813-.182,1.73,1.73,0,0,1-1.01-1.7q0-6.242,0-12.484v-.163a.345.345,0,0,1,.089.156l1.994,5.976a1.787,1.787,0,0,0,1.843,1.326h3.193c0,.192,0,.361,0,.53a.6.6,0,0,0,.648.649q2.3,0,4.6,0a.6.6,0,0,0,.651-.646c0-.174,0-.348,0-.533h3.17a1.79,1.79,0,0,0,1.87-1.342q1-3,2-6C356.077,424.115,356.108,424.058,356.134,424Z" transform="translate(0 -60.231)"/><path class="a" d="M356.937,363.024h4.926a6.619,6.619,0,0,1,0-.768,1.728,1.728,0,0,1,1.745-1.589q2.359-.025,4.719,0a1.76,1.76,0,0,1,1.773,1.777c.005.183,0,.366,0,.568h4.926l-.073.222-2.1,6.314a.657.657,0,0,1-.763.553h-3.167c0-.194,0-.375,0-.556a.587.587,0,0,0-.615-.622q-2.33-.005-4.66,0a.59.59,0,0,0-.623.634c0,.175,0,.351,0,.545h-.151q-1.544,0-3.087,0a.6.6,0,0,1-.656-.453q-1.093-3.267-2.179-6.536A.785.785,0,0,1,356.937,363.024Zm11.99-.011c0-.173,0-.323,0-.473a.611.611,0,0,0-.7-.7H365.7c-.681,0-1.362,0-2.043,0a.55.55,0,0,0-.594.439,4.717,4.717,0,0,0-.008.732Z" transform="translate(-19.911)"/><path class="a" d="M508.618,554.219H505.1v-1.158h3.513Z" transform="translate(-160.795 -182.947)"/></g></svg>