<svg xmlns="http://www.w3.org/2000/svg" xmlns:xlink="http://www.w3.org/1999/xlink" width="125.341" height="113.749" viewBox="0 0 125.341 113.749">
  <defs>
    <clipPath id="clip-path">
      <path id="path518" d="M800.388-380.941c-10.322-.3-23.015-.469-36.737-.469s-26.415.174-36.737.469a57.516,57.516,0,0,1-22.728-45.674c0-32.091,26.623-62.717,59.466-62.717s59.465,30.627,59.465,62.717q0,2.582-.227,5.108c-.106,0-.209-.008-.311-.008-5.454,0-5.562,7.19-9.986,8.8.844-3.747,3.084-10.839.787-12.261h0a3.8,3.8,0,0,0-2.005-.615c-2.574,0-4.72,3.091-4.245,8.13.264,2.8.288,3.622-.44,3.622a24.757,24.757,0,0,1-3.088-.9,2.62,2.62,0,0,0-.694-.108c-2,0-.723,3.54,1.112,6.945a4.725,4.725,0,0,1-.985-.516,13.154,13.154,0,0,1-3.263-3.641c-1.228-1.819-2.447-2.534-3.512-2.534-3.485,0-5.32,7.666-.391,9.444,3.642,1.313,3.48,1.476,3.164,5.643s5.485,4.378,5.485,4.378a10.4,10.4,0,0,0,1.659.17,4.161,4.161,0,0,0,3.007,1.565,3.862,3.862,0,0,0,2.222-.795,4.569,4.569,0,0,0,.822.085h.082a5.659,5.659,0,0,0,.642-.038,59.036,59.036,0,0,1-12.563,13.192m-64.906-67.338a5.392,5.392,0,0,0-5.344,4.653c-1.154,8.377-2.974,25.748.63,32.473a4.811,4.811,0,0,0,4.248,2.517h19.757c-2.954-1.06-4.225-5.792-4.6-11.638l3.767-17.244a7.567,7.567,0,0,0-2.436-5.866c.067-.488.132-.948.193-1.375a3.1,3.1,0,0,0,0-.917c3.064-.888,4.116-5.084,4.115-7.615a4.056,4.056,0,0,0-.275-1.726c.049-.018,6.139-2.213,2.351-7.548a1.86,1.86,0,0,1-1.893,1.271,4.522,4.522,0,0,1-1.669-.375,15.824,15.824,0,0,0-5.571-1.164,5.455,5.455,0,0,0-3.9,1.269c-2.211,2.176-3.885,6.213-1.515,9.277a1.725,1.725,0,0,0,1.492,1.9l-.444,2.1h-8.9m-14.05,18.129h0c2.271,0,4.111-2.113,4.111-4.719h0c0-2.607-1.84-5.218-4.111-5.218h-.018c-2.263.013-4.093,2.618-4.093,5.218s1.831,4.709,4.093,4.719h.018m97.9,23.976a5.7,5.7,0,0,1-.528-1.975c0-.93.594-1.668,2.173-2.962q-.711,2.515-1.645,4.937m-73.57-46.908a4.01,4.01,0,0,0-.717-.867,4.007,4.007,0,0,1,.718.866h0" transform="translate(-704.185 489.332)"/>
    </clipPath>
    <linearGradient id="linear-gradient" x1="-3.124" y1="2.382" x2="-3.124" y2="2.382" gradientUnits="objectBoundingBox">
      <stop offset="0" stop-color="#fff"/>
      <stop offset="1" stop-color="#c6e6f8"/>
    </linearGradient>
    <clipPath id="clip-path-2">
      <path id="path536" d="M818.229-282.5H749.767q-1.279-.881-2.507-1.826c10.322-.3,23.014-.469,36.737-.469s26.415.174,36.737.469q-1.227.943-2.507,1.826" transform="translate(-747.261 284.793)"/>
    </clipPath>
    <linearGradient id="linear-gradient-2" x1="-5.366" y1="65.48" x2="-5.365" y2="65.48" gradientUnits="objectBoundingBox">
      <stop offset="0" stop-color="#edf8fa"/>
      <stop offset="1" stop-color="#cae8f5"/>
    </linearGradient>
    <clipPath id="clip-path-3">
      <path id="path578" d="M736.84-386.062h0m0-9.937h0" transform="translate(-736.84 395.999)"/>
    </clipPath>
    <linearGradient id="linear-gradient-3" x1="-276045.938" y1="21.027" x2="-275995.969" y2="21.027" gradientUnits="objectBoundingBox">
      <stop offset="0" stop-color="#cfdbe4"/>
      <stop offset="1" stop-color="#a0c5e1"/>
    </linearGradient>
    <clipPath id="clip-path-4">
      <path id="path648" d="M909.035-308.868h0a5.663,5.663,0,0,0,.642-.038h0a5.661,5.661,0,0,1-.642.038m-.027,0h0m-.026,0h0m-.024,0h0" transform="translate(-908.954 308.906)"/>
    </clipPath>
    <linearGradient id="linear-gradient-4" x1="-663.163" y1="4290.06" x2="-663.065" y2="4290.06" xlink:href="#linear-gradient-3"/>
    <clipPath id="clip-path-5">
      <path id="path668" d="M892.516-335.449a4.739,4.739,0,0,1-.985-.516,4.723,4.723,0,0,0,.985.516h0" transform="translate(-891.531 335.965)"/>
    </clipPath>
    <linearGradient id="linear-gradient-5" x1="-477.607" y1="343.754" x2="-477.536" y2="343.754" gradientUnits="objectBoundingBox">
      <stop offset="0" stop-color="#c7d4e0"/>
      <stop offset="1" stop-color="#9bbfdd"/>
    </linearGradient>
    <clipPath id="clip-path-6">
      <path id="path690" d="M909.644-355.093c.844-3.748,3.083-10.839.787-12.261,2.3,1.422.057,8.514-.787,12.261h0" transform="translate(-909.644 367.354)"/>
    </clipPath>
    <linearGradient id="linear-gradient-6" x1="-267.692" y1="15.809" x2="-267.653" y2="15.809" gradientUnits="objectBoundingBox">
      <stop offset="0" stop-color="#8f9da7"/>
      <stop offset="1" stop-color="#6f8fa7"/>
    </linearGradient>
  </defs>
  <g id="g10" transform="translate(-698.11 491.009)">
    <g id="g12" transform="translate(698.11 -491.009)">
      <g id="g504" transform="translate(34.4 79.584)">
        <text id="text512" transform="translate(0 4)" fill="#386090" font-size="4" font-family="Quicksand"><tspan x="0" y="0">Lorem ipsum dolor sit amet </tspan><tspan x="0" y="5">consectetuer adipiscing elit, sed diam </tspan><tspan x="0" y="10">nonummy nibh euismod tincidunt ut.</tspan></text>
      </g>
      <g id="g514" transform="translate(3.205 0.885)">
        <g id="g516" clip-path="url(#clip-path)">
          <path id="path528" d="M800.388-380.941c-10.322-.3-23.015-.469-36.737-.469s-26.415.174-36.737.469a57.516,57.516,0,0,1-22.728-45.674c0-32.091,26.623-62.717,59.466-62.717s59.465,30.627,59.465,62.717q0,2.582-.227,5.108c-.106,0-.209-.008-.311-.008-5.454,0-5.562,7.19-9.986,8.8.844-3.747,3.084-10.839.787-12.261h0a3.8,3.8,0,0,0-2.005-.615c-2.574,0-4.72,3.091-4.245,8.13.264,2.8.288,3.622-.44,3.622a24.757,24.757,0,0,1-3.088-.9,2.62,2.62,0,0,0-.694-.108c-2,0-.723,3.54,1.112,6.945a4.725,4.725,0,0,1-.985-.516,13.154,13.154,0,0,1-3.263-3.641c-1.228-1.819-2.447-2.534-3.512-2.534-3.485,0-5.32,7.666-.391,9.444,3.642,1.313,3.48,1.476,3.164,5.643s5.485,4.378,5.485,4.378a10.4,10.4,0,0,0,1.659.17,4.161,4.161,0,0,0,3.007,1.565,3.862,3.862,0,0,0,2.222-.795,4.569,4.569,0,0,0,.822.085h.082a5.659,5.659,0,0,0,.642-.038,59.036,59.036,0,0,1-12.563,13.192m-64.906-67.338a5.392,5.392,0,0,0-5.344,4.653c-1.154,8.377-2.974,25.748.63,32.473a4.811,4.811,0,0,0,4.248,2.517h19.757c-2.954-1.06-4.225-5.792-4.6-11.638l3.767-17.244a7.567,7.567,0,0,0-2.436-5.866c.067-.488.132-.948.193-1.375a3.1,3.1,0,0,0,0-.917c3.064-.888,4.116-5.084,4.115-7.615a4.056,4.056,0,0,0-.275-1.726c.049-.018,6.139-2.213,2.351-7.548a1.86,1.86,0,0,1-1.893,1.271,4.522,4.522,0,0,1-1.669-.375,15.824,15.824,0,0,0-5.571-1.164,5.455,5.455,0,0,0-3.9,1.269c-2.211,2.176-3.885,6.213-1.515,9.277a1.725,1.725,0,0,0,1.492,1.9l-.444,2.1h-8.9m-14.05,18.129h0c2.271,0,4.111-2.113,4.111-4.719h0c0-2.607-1.84-5.218-4.111-5.218h-.018c-2.263.013-4.093,2.618-4.093,5.218s1.831,4.709,4.093,4.719h.018m97.9,23.976a5.7,5.7,0,0,1-.528-1.975c0-.93.594-1.668,2.173-2.962q-.711,2.515-1.645,4.937m-73.57-46.908a4.01,4.01,0,0,0-.717-.867,4.007,4.007,0,0,1,.718.866h0" transform="translate(-704.185 489.332)" fill="url(#linear-gradient)"/>
        </g>
      </g>
      <path id="path530" d="M760.781-279.431c-34.612,0-62.671-1.107-62.671-2.471,0-.823,10.221-1.553,25.934-2q1.227.943,2.507,1.826h68.461q1.278-.881,2.507-1.826c15.712.449,25.933,1.178,25.933,2,0,1.364-28.059,2.471-62.67,2.471" transform="translate(-698.11 393.18)" fill="#edf8f9"/>
      <g id="g532" transform="translate(25.934 108.807)">
        <g id="g534" clip-path="url(#clip-path-2)">
          <path id="path546" d="M818.229-282.5H749.767q-1.279-.881-2.507-1.826c10.322-.3,23.014-.469,36.737-.469s26.415.174,36.737.469q-1.227.943-2.507,1.826" transform="translate(-747.261 284.793)" fill="url(#linear-gradient-2)"/>
        </g>
      </g>
      <path id="path548" d="M775.578-309.179h-2.851v-27.265h2.851v27.265" transform="translate(-733.356 417.998)" fill="#abc9cd"/>
      <path id="path550" d="M775.578-332.61h-2.851v-3.833h2.851v3.833" transform="translate(-733.356 417.998)" fill="#85b3b9"/>
      <path id="path552" d="M776.049-284.751h-23.9a1.652,1.652,0,0,0-1.653,1.651v.851H777.7v-.851a1.652,1.652,0,0,0-1.653-1.651" transform="translate(-722.855 393.58)" fill="#abc9cd"/>
      <path id="path554" d="M756.912-371.883h19.757c-7.189-2.581-4.408-26.9-3.079-36.123a3.082,3.082,0,0,0-3.053-3.52h-13.16a5.392,5.392,0,0,0-5.344,4.653c-1.154,8.377-2.974,25.748.63,32.473a4.811,4.811,0,0,0,4.248,2.517" transform="translate(-722.875 453.464)" fill="#abc9cd"/>
      <path id="path556" d="M743.336-477.16a13.85,13.85,0,0,0-13.849-13.849,13.849,13.849,0,0,0-13.849,13.849,13.849,13.849,0,0,0,13.849,13.85,13.85,13.85,0,0,0,13.849-13.85" transform="translate(-706.389 491.009)" fill="#4e8ad0"/>
      <path id="path558" d="M743.069-474.885a11.307,11.307,0,0,0-11.308-11.308,11.308,11.308,0,0,0-11.308,11.308,11.308,11.308,0,0,0,11.308,11.308,11.308,11.308,0,0,0,11.308-11.308" transform="translate(-708.664 488.734)" fill="#d1eaf0"/>
      <path id="path560" d="M735.168-468.731a.7.7,0,0,1-.5-.206.7.7,0,0,1,0-.995l2.948-2.948v-7.748a.7.7,0,0,1,.7-.7.7.7,0,0,1,.7.7v8.04a.7.7,0,0,1-.206.5l-3.154,3.155a.7.7,0,0,1-.5.206" transform="translate(-715.283 486.438)" fill="#4e8ad0"/>
      <path id="path562" d="M741.776-466.6a1.62,1.62,0,0,0-1.62-1.62,1.62,1.62,0,0,0-1.62,1.62,1.62,1.62,0,0,0,1.62,1.62,1.619,1.619,0,0,0,1.62-1.62" transform="translate(-717.206 480.245)" fill="#213548"/>
      <path id="path564" d="M868.216-440.332H844.58a2.194,2.194,0,0,0-2.194,2.194v10.648a2.195,2.195,0,0,0,2.194,2.195h1.651v2.575a.412.412,0,0,0,.689.306l3.2-2.881h18.1a2.194,2.194,0,0,0,2.193-2.195v-10.648a2.194,2.194,0,0,0-2.193-2.194" transform="translate(-766.261 467.071)" fill="#78c0ec"/>
      <path id="path566" d="M858.153-426.642a.967.967,0,0,1-.967.967.966.966,0,0,1-.966-.967.966.966,0,0,1,.966-.967.966.966,0,0,1,.967.967" transform="translate(-772.796 461.061)" fill="#386090"/>
      <path id="path568" d="M869.419-426.642a.967.967,0,0,1-.967.967.967.967,0,0,1-.967-.967.966.966,0,0,1,.967-.967.966.966,0,0,1,.967.967" transform="translate(-778.117 461.061)" fill="#386090"/>
      <path id="path570" d="M879.934-426.642a.967.967,0,0,1-.967.967.967.967,0,0,1-.966-.967.966.966,0,0,1,.966-.967.966.966,0,0,1,.967.967" transform="translate(-783.085 461.061)" fill="#386090"/>
      <path id="path572" d="M737.3-390.781c0-2.607-1.84-5.218-4.111-5.218s-4.111,2.611-4.111,5.218,1.84,4.719,4.111,4.719,4.111-2.113,4.111-4.719" transform="translate(-712.74 446.13)" fill="#7abbe9"/>
      <g id="g574" transform="translate(20.435 50.131)">
        <g id="g576" clip-path="url(#clip-path-3)">
          <path id="path588" d="M736.84-386.062h0m0-9.937h0" transform="translate(-736.84 395.999)" fill="url(#linear-gradient-3)"/>
        </g>
      </g>
      <path id="path590" d="M735.928-386.062h-.018a3.643,3.643,0,0,1-1.038-.163,4.653,4.653,0,0,0,3.056-4.557,5.423,5.423,0,0,0-3.056-5.02,3.041,3.041,0,0,1,1.038-.2h.018c2.271,0,4.111,2.611,4.111,5.218s-1.84,4.719-4.111,4.719" transform="translate(-715.476 446.13)" fill="#66a3da"/>
      <path id="path592" d="M727.99-380.875l.737,6.671a1.646,1.646,0,0,0,1.636,1.465h4.252a1.646,1.646,0,0,0,1.636-1.465l.737-6.671a.613.613,0,0,0-.609-.68H728.6a.613.613,0,0,0-.609.68" transform="translate(-712.222 439.307)" fill="#d1eaf0"/>
      <path id="path594" d="M728.6-380.558h7.779a.6.6,0,0,1,.537.342l.072-.659a.613.613,0,0,0-.609-.68H728.6a.613.613,0,0,0-.609.68l.073.659a.6.6,0,0,1,.536-.342" transform="translate(-712.222 439.307)" fill="#abc9cd"/>
      <path id="path596" d="M739.9-381.555h-2.7a.613.613,0,0,1,.609.68l-.737,6.671a1.646,1.646,0,0,1-1.636,1.465h2.7a1.646,1.646,0,0,0,1.636-1.465l.737-6.671a.613.613,0,0,0-.609-.68" transform="translate(-715.742 439.307)" fill="#abc9cd"/>
      <path id="path598" d="M808.207-292.827l-.279,1.928,1.467,1.877,3.721-1.821.4-1.763-4.631-.7-.68.479" transform="translate(-749.984 397.621)" fill="#f0b95d"/>
      <path id="path600" d="M810.75-284.467l.384-.476a.179.179,0,0,1,.276,0l.386.452a.8.8,0,0,0,.625.283l8.644-.147a.465.465,0,0,0,.015-.654c-1.267-1.278-8.086-3.489-8.425-3.675s-2.425,1.434-5.188-.056a29.313,29.313,0,0,0-.512,3.566.988.988,0,0,0,1,1.042l2.193-.038a.789.789,0,0,0,.6-.293" transform="translate(-749.525 395.466)" fill="#213548"/>
      <path id="path602" d="M777.516-355.174s-3.589,3.968,2.983,8.28c4.612,3.024,8.245,2.1,11.139,3.934a2.439,2.439,0,0,1,1.243,1.872l.146,18.549.35.174a6.372,6.372,0,0,0,5.542.061l2.617-21.164a5.738,5.738,0,0,0-1.6-3.838c-5.026-6.393-13.924-8.559-16.177-8.928a12.579,12.579,0,0,0-6.246,1.062" transform="translate(-735.157 427.391)" fill="#213548"/>
      <path id="path604" d="M781.094-292.823l-.305,1.925,1.441,1.9,3.745-1.771.426-1.757-4.621-.763-.687.47" transform="translate(-737.165 397.615)" fill="#f0b95d"/>
      <path id="path606" d="M783.507-284.434l.391-.471a.179.179,0,0,1,.276,0l.379.457a.807.807,0,0,0,.623.291l8.646-.029a.465.465,0,0,0,.023-.654c-1.249-1.3-8.037-3.6-8.373-3.79s-2.445,1.4-5.186-.126a29.2,29.2,0,0,0-.562,3.558.987.987,0,0,0,.984,1.055l2.195-.008a.789.789,0,0,0,.606-.286" transform="translate(-736.66 395.471)" fill="#213548"/>
      <path id="path608" d="M756.4-361.32s-4.349,4.847,1.94,10.322c4.411,3.84,8.37,2.2,11.149,4.541a2.585,2.585,0,0,1,1.037,2.145l-1.986,18.868.15.1a5.976,5.976,0,0,0,5.8.4l4.917-19.883a6.085,6.085,0,0,0-1.128-4.263c-4.364-7.44-11.216-11.874-13.531-12.586-3.008-.924-8.346.362-8.346.362" transform="translate(-724.953 430.078)" fill="#213548"/>
      <path id="path610" d="M794.6-343.393a8.614,8.614,0,0,0-1.013-.352,8.651,8.651,0,0,0-1.1-2.568,34.053,34.053,0,0,0-7.471-8.759,5.124,5.124,0,0,0,2.814-1.048,29.616,29.616,0,0,1,4.721,1.28c2.139,3.574,2.132,9.378,2.054,11.446" transform="translate(-739.159 427.292)" fill="#18283a"/>
      <path id="path612" d="M767.992-409.361s-6.272-.836-8.879,4.051-6.5,24.047-3.1,24.629a37.4,37.4,0,0,0,9.979.943c6.123-.448,7.453-1.012,7.895-2.176l3.9-17.854a7.548,7.548,0,0,0-2.961-6.3,21.258,21.258,0,0,0-6.838-3.29" transform="translate(-724.835 452.467)" fill="#d1eaf0"/>
      <path id="path614" d="M795.331-394.106s.082,10.752,3.462,11.4,12.382.448,12.382.448v3.421H791.869l3.462-15.273" transform="translate(-742.398 445.235)" fill="#abc9cd"/>
      <path id="path616" d="M784.99-410.119l.761-3.8-4.933-3.757-.945,4.483s1.556,6.845,5.117,3.076" transform="translate(-736.732 456.371)" fill="#ea8537"/>
      <path id="path618" d="M789.545-431.292s-2.58,1.256-6.361-1.048a8.942,8.942,0,0,1-3.411,2.984s-1.317-2.207-2.075-.553a3.5,3.5,0,0,0-.348,1.35c-2.373-3.065-.7-7.1,1.513-9.28,2.1-2.066,6.636-1.245,9.471-.1,3.01,1.211,3.563-.9,3.563-.9,3.8,5.357-2.351,7.548-2.351,7.548" transform="translate(-734.995 466.493)" fill="#213548"/>
      <path id="path620" d="M780.8-423.3s-1.316-2.207-2.074-.554c-.919,2.006.118,3.264,1.363,3.264,0,0,.988,5.218,5.781,4.849s5.486-8.067,4.7-9.5c0,0-2.581,1.256-6.361-1.049A8.916,8.916,0,0,1,780.8-423.3" transform="translate(-736.026 460.436)" fill="#f0b95d"/>
      <path id="path622" d="M839.609-397.5H819.6a2.075,2.075,0,0,0-2.033,1.661L814.9-382.78h24.248l2.494-12.228a2.075,2.075,0,0,0-2.033-2.49" transform="translate(-753.278 446.838)" fill="#d1eaf0"/>
      <path id="path624" d="M830.217-369.6H797.146a.988.988,0,0,0-.988.988v.319a.988.988,0,0,0,.988.988h33.071a.988.988,0,0,0,.988-.988v-.319a.987.987,0,0,0-.988-.988" transform="translate(-744.425 433.659)" fill="#7eaab0"/>
      <path id="path626" d="M838.833-369.6H814.4a.988.988,0,0,1,.987.988v.319a.988.988,0,0,1-.987.988h24.435a.988.988,0,0,0,.988-.988v-.319a.988.988,0,0,0-.988-.988" transform="translate(-753.041 433.66)" fill="#abc9cd"/>
      <path id="path628" d="M778.551-387.246c-3.9-.454-14.826-1.569-16.7-1.762-2.363-.245,2.769-9.775,3.34-13.034s-1.914-3.38-1.914-3.38a3.98,3.98,0,0,0-4.236,1.974c-2.667,4.04-5.639,15.85-4.073,18.765a1.054,1.054,0,0,0,.932.552h22.65v-3.114" transform="translate(-724.763 450.606)" fill="#d1eaf0"/>
      <path id="path630" d="M783.815-387.246s-14.072-.968-17.106-1.375c-2.354-.316,2.552-10.081,3.122-13.339s-1.954-3.123-1.954-3.123a6.05,6.05,0,0,0-2.2.206,4.073,4.073,0,0,1,2.864-.547s2.483.124,1.913,3.382-4.969,12.586-3.482,12.952c1.828.451,12.945,1.392,16.841,1.844" transform="translate(-730.028 450.605)" fill="#abc9cd"/>
      <path id="path632" d="M800.051-367.449H805.3a.5.5,0,0,0,.416-.766c-.491-.756-1.268-1.822-1.837-2a24.98,24.98,0,0,0-3.828.087v2.683" transform="translate(-746.264 433.975)" fill="#f0b95d"/>
      <path id="path634" d="M792.527-406.435l.03,0a4.244,4.244,0,0,0,.862-.155h0a4.242,4.242,0,0,1-.862.155l-.03,0" transform="translate(-742.71 451.134)" fill="#d39b64"/>
      <path id="path636" d="M799.243-424a.007.007,0,0,1,0,0,4.177,4.177,0,0,0,1.188-.3,4.06,4.06,0,0,1-1.189.3" transform="translate(-745.882 459.496)" fill="#a26b3e"/>
      <path id="path638" d="M790.154-414.782a5.075,5.075,0,0,1-1.734-.294l.108.016a5.377,5.377,0,0,0,.857.072c3.338,0,3.716-3.545,3.716-3.545s.38.028.678.028c.075,0,.144,0,.2-.006.286-.022-.176-2.88-.088-3.8.061-.646.175-1.326.239-1.682a4.061,4.061,0,0,0,1.189-.3h0a4.057,4.057,0,0,1,.275,1.726c0,2.531-1.051,6.727-4.115,7.615a4.242,4.242,0,0,1-.862.155l-.03,0c-.148.011-.293.016-.433.016" transform="translate(-740.769 459.496)" fill="#ec9641"/>
      <path id="path640" d="M908.134-334.249s6.593-3.27,4.8-8.228-2.9-5.168.528-7.964,8.386-9.81,2.109-10.337-5.96,7.806-11.182,8.966-8.07,23,3.745,17.563" transform="translate(-793.414 429.504)" fill="#7abbe9"/>
      <path id="path642" d="M910.324-315.482h0a9.117,9.117,0,0,0,2.749-.829s5.1-2.531,5.109-6.517c0,3.986-5.109,6.517-5.109,6.517a9.117,9.117,0,0,1-2.749.829" transform="translate(-798.353 411.567)" fill="#cfdbe4"/>
      <g id="g644" transform="translate(111.248 96.084)">
        <g id="g646" clip-path="url(#clip-path-4)">
          <path id="path658" d="M909.035-308.868h0a5.663,5.663,0,0,0,.642-.038h0a5.661,5.661,0,0,1-.642.038m-.027,0h0m-.026,0h0m-.024,0h0" transform="translate(-908.954 308.906)" fill="url(#linear-gradient-4)"/>
        </g>
      </g>
      <path id="path660" d="M908.3-333.381h-.081a4.632,4.632,0,0,1-.822-.085,11.457,11.457,0,0,0,2.7-2.994,12.436,12.436,0,0,0,3.247-10.374c-.44-2.9,1.583-4.485,5.364-8.97,2.271-2.694.514-4.149-1.252-4.882a5.485,5.485,0,0,1,1.128-.113q.264,0,.545.023c2.188.184,3.011,1.157,3.009,2.464,0,2.442-2.885,6.053-5.118,7.874-1.621,1.321-2.228,2.066-2.228,3.006,0,1.049.754,2.343,1.7,4.958a4.988,4.988,0,0,1,.309,1.711c0,3.986-5.109,6.517-5.109,6.517a9.119,9.119,0,0,1-2.749.829,5.662,5.662,0,0,1-.642.038" transform="translate(-796.97 429.503)" fill="#66a3da"/>
      <path id="path662" d="M883.9-328.2s-5.8-.211-5.485-4.378.478-4.329-3.164-5.643c-6.435-2.321-1.341-14.679,3.9-6.91,3.639,5.393,5.221,4.18,7.594,4.6s7.542,14.174-2.848,12.328" transform="translate(-780.362 423.3)" fill="#7abbe9"/>
      <g id="g664" transform="translate(102.056 81.807)">
        <g id="g666" clip-path="url(#clip-path-5)">
          <path id="path678" d="M892.516-335.449a4.739,4.739,0,0,1-.985-.516,4.723,4.723,0,0,0,.985.516h0" transform="translate(-891.531 335.965)" fill="url(#linear-gradient-5)"/>
        </g>
      </g>
      <path id="path680" d="M885.4-328.065c-.1-.008-.2-.015-.3-.025a8.516,8.516,0,0,0-.023-.862c.216.223.381.389.474.482l-.154.405m.466-8.047a8.265,8.265,0,0,1-1.647-.369,8.5,8.5,0,0,0-2.149-.37,3.369,3.369,0,0,0-.552.043c-1.977-2.661-4.072-4.879-4.266-6.548a2.115,2.115,0,0,0-2.338-2.071,6.515,6.515,0,0,0-1.843.315c.57-1.458,1.65-2.553,2.967-2.553,1.064,0,2.281.716,3.508,2.533a13.145,13.145,0,0,0,3.264,3.641,4.742,4.742,0,0,0,.985.516c.536.995,1.12,1.978,1.685,2.858,1,1.565.961,2.006.386,2.006" transform="translate(-780.757 423.299)" fill="#63a0d7"/>
      <path id="path682" d="M892.186-338.237s-7.2-7.04-4.747-8.228a5.084,5.084,0,0,1,3.328.133c1.729.47,2.913.941,1.261-1.636-2.689-4.192-5.822-10.724-2.1-9.7s3.988,2.158,3.528-2.725c-.6-6.317,2.927-9.573,6.25-7.516s-2.849,15.981-.554,14.478,4.193-2.768,4.668-.949-6.569,8.963-3.956,7.753c3.244-1.5,3.719,1.187,2.69,2.848s-5.3,11.55-10.364,5.537" transform="translate(-787.302 433.149)" fill="#386090"/>
      <path id="path684" d="M913.739-324.566h0l.006-.01-.006.01h0m.019-.03,0-.008,0,.008m-3.141-2.681a1.2,1.2,0,0,0,.419-.131,1.2,1.2,0,0,1-.419.131m.461-.15.006,0-.006,0m.025-.011a3.987,3.987,0,0,1,1.6-.417,3.984,3.984,0,0,0-1.6.417m1.609-.417h0" transform="translate(-798.491 413.941)" fill="#4879a6"/>
      <g id="g686" transform="translate(111.613 65.245)">
        <g id="g688" clip-path="url(#clip-path-6)">
          <path id="path700" d="M909.644-355.093c.844-3.748,3.083-10.839.787-12.261,2.3,1.422.057,8.514-.787,12.261h0" transform="translate(-909.644 367.354)" fill="url(#linear-gradient-6)"/>
        </g>
      </g>
      <path id="path702" d="M909.329-341.786c-.381,0-.26-.932.054-2.33h0c-.314,1.4-.435,2.331-.054,2.33h0m.1-.017h0m0,0h0m0,0h0m0,0h0m0,0,.027-.01-.027.01m.029-.011h0m.005,0h0m.006,0h0m0,0h0m.134-.075.056-.036-.056.036m.116-.075.064-.042-.064.042m.118-.078.141-.092-.141.092m.147-.1a9,9,0,0,1,3.162-1.592A9,9,0,0,0,910-342.149m4.3-.659s0,0,0-.006,0,0,0,.006m0-.013c0-.01,0-.019-.007-.028,0,.009,0,.018.007.028m-.991-.927h0" transform="translate(-797.77 421.622)" fill="#4879a6"/>
      <path id="path704" d="M901.7-336.323a3.318,3.318,0,0,1-1.667-.471c.069-5.48,6.24-12.881,4.825-12.881a1.786,1.786,0,0,0-.708.253,2.5,2.5,0,0,1-1.119.341c-2.269,0-1.1-5.947.68-12.916.955-3.736-.423-5.119-2.143-5.54a3.4,3.4,0,0,1,2.336-.973,3.77,3.77,0,0,1,1.99.61h0c2.3,1.422.057,8.513-.787,12.261-.314,1.4-.435,2.33-.054,2.33h0a.323.323,0,0,0,.1-.017h.013l.027-.01h.009l0,0h0a.864.864,0,0,0,.132-.074h0l.056-.036.061-.039.064-.042.054-.036.141-.092.006,0a9,9,0,0,1,3.162-1.592c.047,0,.094-.007.139-.007h0c.474,0,.817.26.984.9h0c0,.009.005.018.007.028a.02.02,0,0,0,0,.007s0,0,0,.006c.333,1.737-5.524,7.849-4.406,7.849h.009a1.2,1.2,0,0,0,.419-.131l.013-.006.029-.013.006,0,.019-.008a3.986,3.986,0,0,1,1.6-.417h0c1.7,0,1.842,1.931,1.052,3.25l0,.008-.013.02-.006.01h0c-.793,1.281-3.515,7.447-7.042,7.447" transform="translate(-793.489 433.145)" fill="#2c4a6c"/>
      <path id="path706" d="M887.437-310.713,888.83-298.1a3.114,3.114,0,0,0,3.094,2.77h8.042a3.112,3.112,0,0,0,3.093-2.77l1.394-12.615A1.159,1.159,0,0,0,903.3-312h-14.71a1.159,1.159,0,0,0-1.152,1.286" transform="translate(-787.538 406.451)" fill="#d1eaf0"/>
      <path id="path708" d="M909.956-312h-5.1a1.159,1.159,0,0,1,1.152,1.286L904.614-298.1a3.112,3.112,0,0,1-3.093,2.77h5.1a3.112,3.112,0,0,0,3.093-2.77l1.394-12.615A1.159,1.159,0,0,0,909.956-312" transform="translate(-794.195 406.451)" fill="#abc9cd"/>
      <path id="path710" d="M809.108-365H722.887a1.752,1.752,0,0,0-1.752,1.752v.568a1.753,1.753,0,0,0,1.752,1.753h86.222a1.753,1.753,0,0,0,1.753-1.753v-.568A1.753,1.753,0,0,0,809.108-365" transform="translate(-708.986 431.489)" fill="#4e8ad0"/>
      <path id="path712" d="M809.108-365H722.887a1.752,1.752,0,0,0-1.752,1.752v.568a1.748,1.748,0,0,0,.09.531,1.747,1.747,0,0,1,1.662-1.222h86.221a1.746,1.746,0,0,1,1.662,1.222,1.727,1.727,0,0,0,.091-.531v-.568A1.753,1.753,0,0,0,809.108-365" transform="translate(-708.986 431.489)" fill="#3670b1"/>
      <path id="path714" d="M755.576-316.64h-2.882l-20.049-40.607h2.882l20.048,40.607" transform="translate(-714.424 427.825)" fill="#386090"/>
      <path id="path716" d="M715.973-316.64h2.882L738.9-357.247h-2.881L715.973-316.64" transform="translate(-706.548 427.825)" fill="#386090"/>
      <path id="path718" d="M873.217-316.64h-2.882l-20.049-40.607h2.882l20.049,40.607" transform="translate(-769.993 427.825)" fill="#386090"/>
      <path id="path720" d="M833.614-316.64H836.5l20.049-40.607h-2.882L833.614-316.64" transform="translate(-762.117 427.825)" fill="#386090"/>
      <path id="path722" d="M736.323-355.638l-.794-1.609h-2.882l.794,1.609h2.882" transform="translate(-714.424 427.825)" fill="#1f334e"/>
      <path id="path724" d="M755.346-355.638l.794-1.609h-2.882l-.794,1.609h2.882" transform="translate(-723.786 427.825)" fill="#1f334e"/>
      <path id="path726" d="M853.963-355.638l-.794-1.609h-2.882l.794,1.609h2.882" transform="translate(-769.993 427.825)" fill="#1f334e"/>
      <path id="path728" d="M872.987-355.638l.794-1.609H870.9l-.794,1.609h2.882" transform="translate(-779.354 427.825)" fill="#1f334e"/>
    </g>
  </g>
</svg>
