<svg xmlns="http://www.w3.org/2000/svg" width="14.971" height="14.721" viewBox="0 0 14.971 14.721"><defs><style>.a{fill:#d25627;}.b{fill:#f6b333;}.c{fill:#fff;}.d{fill:#f0c419;}.e{fill:#e57e25;}</style></defs><path class="a" d="M2.745,2.146A.25.25,0,0,1,2.5,1.9V1.5a1,1,0,1,0-2,0v.4a.25.25,0,1,1-.5,0V1.5a1.5,1.5,0,1,1,2.994,0v.4A.25.25,0,0,1,2.745,2.146Z" transform="translate(5.988)"/><path class="a" d="M.25,1.209A.25.25,0,0,1,.069.787a7.588,7.588,0,0,1,.8-.73A.25.25,0,1,1,1.181.45a7.074,7.074,0,0,0-.751.682.25.25,0,0,1-.181.077Z" transform="translate(1.58 0.726)"/><path class="a" d="M.249,2.308a.25.25,0,0,1-.235-.334A7.472,7.472,0,0,1,1,.1a.25.25,0,0,1,.4.293A6.966,6.966,0,0,0,.484,2.143a.25.25,0,0,1-.235.165Z" transform="translate(0 2.183)"/><path class="a" d="M.249,2.789a.25.25,0,0,1-.229-.349A6.553,6.553,0,0,1,1.792.066a.25.25,0,1,1,.322.381A6.049,6.049,0,0,0,.478,2.639a.25.25,0,0,1-.228.15Z" transform="translate(1.094 1.649)"/><path class="a" d="M1.032,1.209a.25.25,0,0,1-.181-.077A7.074,7.074,0,0,0,.1.45.25.25,0,1,1,.409.057a7.588,7.588,0,0,1,.8.73.25.25,0,0,1-.181.422Z" transform="translate(12.109 0.726)"/><path class="a" d="M1.206,2.308a.25.25,0,0,1-.235-.165A6.966,6.966,0,0,0,.048.4.25.25,0,0,1,.452.1,7.472,7.472,0,0,1,1.44,1.974a.25.25,0,0,1-.235.334Z" transform="translate(13.516 2.183)"/><path class="a" d="M1.96,2.787a.25.25,0,0,1-.229-.15A6.049,6.049,0,0,0,.095.445.25.25,0,1,1,.416.064,6.553,6.553,0,0,1,2.188,2.437a.25.25,0,0,1-.229.349Z" transform="translate(11.668 1.651)"/><path class="b" d="M0,9.482V5.24a5.24,5.24,0,1,1,10.48,0V9.482" transform="translate(2.246 1.747)"/><path class="c" d="M.25.647A.25.25,0,0,1,.162.164a4.449,4.449,0,0,1,.5-.155A.25.25,0,1,1,.779.493a4,4,0,0,0-.44.138A.245.245,0,0,1,.25.647Z" transform="translate(5.738 2.62)"/><path class="c" d="M.25,3.743A.25.25,0,0,1,0,3.493,4.485,4.485,0,0,1,1.6.059.25.25,0,1,1,1.922.44,3.986,3.986,0,0,0,.5,3.493a.25.25,0,0,1-.25.25Z" transform="translate(2.994 3.493)"/><path class="d" d="M9.981,0h1.5a1,1,0,0,1,0,2H1A1,1,0,0,1,1,0Z" transform="translate(1.247 11.228)"/><path class="e" d="M0,0A1.5,1.5,0,0,0,1.5,1.5,1.5,1.5,0,0,0,2.994,0Z" transform="translate(5.988 13.224)"/><path class="a" d="M.749.5H.25a.25.25,0,0,1,0-.5h.5a.25.25,0,0,1,0,.5Z" transform="translate(10.979 9.981)"/><path class="a" d="M3.743.5H.25a.25.25,0,0,1,0-.5H3.743a.25.25,0,0,1,0,.5Z" transform="translate(6.238 9.981)"/></svg>