<svg xmlns="http://www.w3.org/2000/svg" width="24" height="24" viewBox="0 0 24 24"><defs><style>.a{fill:#fff;opacity:0;}.b{fill:#262626;}</style></defs><g transform="translate(-595 -857)"><rect class="a" width="24" height="24" transform="translate(595 857)"/><g transform="translate(595 857)"><path class="b" d="M0,3A3,3,0,0,1,3,0h8.4a3,3,0,0,1,3,3V18.6a.6.6,0,0,1-.953.485L7.2,14.542.953,19.085A.6.6,0,0,1,0,18.6ZM3,1.2A1.8,1.8,0,0,0,1.2,3V17.422l5.647-4.106a.6.6,0,0,1,.706,0L13.2,17.422V3a1.8,1.8,0,0,0-1.8-1.8Z" transform="translate(4.8 2.4)"/></g></g></svg>