<svg xmlns="http://www.w3.org/2000/svg" width="24" height="24" viewBox="0 0 24 24"><defs><style>.a{fill:#fff;stroke:#707070;opacity:0;}.b{fill:#1c1b1b;}.c{stroke:none;}.d{fill:none;}</style></defs><g transform="translate(-1084 -509)"><g class="a" transform="translate(1084 509)"><rect class="c" width="24" height="24"/><rect class="d" x="0.5" y="0.5" width="23" height="23"/></g><g transform="translate(633.555 58.546)"><path class="b" d="M462.917,470.454h-.937c-.051-.009-.1-.021-.152-.028-.35-.051-.7-.079-1.049-.154a8,8,0,0,1-6.153-9.457,7.68,7.68,0,0,1,2.99-4.72,7.988,7.988,0,0,1,10.829,11.642,7.855,7.855,0,0,1-4.617,2.592C463.526,470.383,463.221,470.414,462.917,470.454Zm-5.033-2.863a6.863,6.863,0,0,0,9.691-9.69Zm8.864-10.5a6.869,6.869,0,0,0-9.658,9.657Z" transform="translate(0 0)"/></g></g></svg>