<svg xmlns="http://www.w3.org/2000/svg" width="16" height="16" viewBox="0 0 16 16"><defs><style>.a{fill:#2a5798;}</style></defs><g transform="translate(-335.233 -335.326)"><path class="a" d="M351.892,456.8v10.02a.483.483,0,0,0-.025.073,1.392,1.392,0,0,1-.495.855,1.669,1.669,0,0,1-.73.321h-13.5c-.009-.005-.017-.014-.026-.016a1.443,1.443,0,0,1-1.227-1.506c.01-3.187,0-6.375,0-9.562V456.8Zm-11.324,5.65h2.28a.482.482,0,0,0,.546-.547q0-1.795,0-3.589a.482.482,0,0,0-.548-.545h-4.53a.482.482,0,0,0-.546.547q0,1.795,0,3.589a.482.482,0,0,0,.548.545Zm3.326,1.873h5.514a1.678,1.678,0,0,0,.187,0,.465.465,0,0,0,.376-.66.506.506,0,0,0-.516-.274q-5.561,0-11.121,0a1.267,1.267,0,0,0-.14,0,.466.466,0,0,0,0,.928,1.756,1.756,0,0,0,.187,0Zm-.016,1.873h5.529a1.687,1.687,0,0,0,.187,0,.465.465,0,0,0,.376-.66.506.506,0,0,0-.516-.274q-5.561,0-11.121,0a1.28,1.28,0,0,0-.14,0,.466.466,0,0,0,0,.928,1.725,1.725,0,0,0,.187,0Zm3.3-6.555q-1.164,0-2.327,0a.478.478,0,0,0-.482.3.47.47,0,0,0,.483.635q1.843,0,3.686,0c.333,0,.666,0,1,0a.468.468,0,1,0-.016-.934C348.736,459.638,347.955,459.641,347.174,459.641Zm0,1.873q-1.164,0-2.327,0a.477.477,0,0,0-.482.3.47.47,0,0,0,.483.635q1.843,0,3.686,0c.333,0,.666,0,1,0a.468.468,0,1,0-.016-.934C348.736,461.511,347.955,461.513,347.174,461.513Z" transform="translate(-0.659 -116.742)"/><path class="a" d="M351.943,337.246v2.538H335.96a.446.446,0,0,1-.012-.063c0-.773-.01-1.545.006-2.318a1.512,1.512,0,0,1,.14-.6,1.377,1.377,0,0,1,1.349-.809H350.45a1.439,1.439,0,0,1,1.189.544A1.721,1.721,0,0,1,351.943,337.246Zm-13.185,1.092a.467.467,0,1,0-.463.473A.473.473,0,0,0,338.758,338.338Zm1.875.011a.468.468,0,1,0-.475.462A.473.473,0,0,0,340.632,338.349Zm1.406-.476a.469.469,0,1,0,.468.468A.473.473,0,0,0,342.038,337.873Z" transform="translate(-0.71 -0.666)"/><path class="a" d="M412.064,505.887v2.8h-3.74v-2.8Z" transform="translate(-70.265 -163.928)"/></g></svg>