<svg xmlns="http://www.w3.org/2000/svg" width="104.348" height="85.495" viewBox="0 0 104.348 85.495">
  <g id="books" transform="translate(0 -46.252)">
    <path id="Path_4403" data-name="Path 4403" d="M149.556,64.614h-3.264V52.373h3.264a3.06,3.06,0,1,0,0-6.121H72.865a12.241,12.241,0,1,0,0,24.482h3.065v-9.17a3.06,3.06,0,0,1,3.06-3.06h18.29a3.06,3.06,0,0,1,3.06,3.06v9.17c3.217,0,44.307.036,49.215,0a3.06,3.06,0,1,0,0-6.12Z" transform="translate(-48.269)" fill="#2a5798"/>
    <path id="Path_4404" data-name="Path 4404" d="M177.93,145.8v-9.4H165.76v9.338c1.934-1.123,3.265-2.8,6.018-2.8C174.516,142.939,175.836,144.593,177.93,145.8Z" transform="translate(-131.977 -71.775)" fill="#f6b333"/>
    <path id="Path_4405" data-name="Path 4405" d="M149.556,351.742a3.06,3.06,0,1,0,0-6.121H124.844v3.264a3.062,3.062,0,0,1-4.75,2.552l-7.522-4.981-7.368,4.967a3.064,3.064,0,0,1-4.771-2.538v-3.264H72.865a12.241,12.241,0,1,0,0,24.482h76.691a3.06,3.06,0,1,0,0-6.121h-3.264V351.741h3.264Z" transform="translate(-48.269 -238.356)" fill="#2a5798"/>
    <path id="Path_4406" data-name="Path 4406" d="M52.165,210.795a3.06,3.06,0,0,1,3.06-3.06h18.29a3.06,3.06,0,0,1,3.06,3.06v9.15h3.175a12.241,12.241,0,1,0,0-24.482H52.073v3.06a3.062,3.062,0,0,1-4.752,2.55l-7.52-4.988-7.366,4.974a3.064,3.064,0,0,1-4.773-2.536v-3.06H3.06a3.06,3.06,0,1,0,0,6.121H6.325v12.241H3.06a3.06,3.06,0,1,0,0,6.121c.761,0,36.538,0,49.1,0Z" transform="translate(0 -118.801)" fill="#f6b333"/>
    <path id="Path_4407" data-name="Path 4407" d="M292.006,292.632c2.737,0,4.056,1.651,6.151,2.853v-9.778h-12.17v9.721c1.942-1.126,3.267-2.8,6.019-2.8Z" transform="translate(-227.702 -190.654)" fill="#f6b333"/>
  </g>
</svg>
