<svg xmlns="http://www.w3.org/2000/svg" width="20.945" height="29.921" viewBox="0 0 20.945 29.921"><defs><style>.a{fill:#f6b333;}.b{fill:#ed9e08;}</style></defs><g transform="translate(0 0)"><path class="a" d="M17.727,0H4.279A4.322,4.322,0,0,0,0,4.364V29.3a.624.624,0,0,0,.378.576.6.6,0,0,0,.234.047.605.605,0,0,0,.433-.182l6.9-7.049c2.7,2.719,6.425,6.483,6.824,6.947a.6.6,0,0,0,.847.174.621.621,0,0,0,.227-.283.388.388,0,0,0,.048-.231V3.117a1.852,1.852,0,0,1,1.834-1.87.617.617,0,0,0,.611-.623A.617.617,0,0,0,17.727,0Z" transform="translate(0 0)"/><path class="b" d="M2.606,0A2.606,2.606,0,0,1,5.213,2.606V4.561a.652.652,0,0,1-.652.652H0V2.606A2.606,2.606,0,0,1,2.606,0Z" transform="translate(15.732 0)"/></g></svg>