<svg xmlns="http://www.w3.org/2000/svg" width="34.432" height="30.264" viewBox="0 0 34.432 30.264">
  <g id="calendar_1_" data-name="calendar (1)" transform="translate(0 -30.988)">
    <path id="Path_4035" data-name="Path 4035" d="M1.007,167.129H27.371a1.01,1.01,0,0,0,.646-.233c.253-.212,6.029-5.181,6.382-15.907H6.085C5.734,160.725.414,165.3.359,165.347a1.01,1.01,0,0,0,.648,1.782Z" transform="translate(0 -111.93)" fill="#f6b333"/>
    <path id="Path_4036" data-name="Path 4036" d="M118.281,33.006h-5.044V32a1.009,1.009,0,1,0-2.018,0v1.009h-5.111V32a1.009,1.009,0,1,0-2.018,0v1.009H99.046V32a1.009,1.009,0,1,0-2.018,0v1.009H91.985a1,1,0,0,0-1.009,1.009v3.026H119.29V34.014A1,1,0,0,0,118.281,33.006Z" transform="translate(-84.858 0)" fill="#f6b333"/>
    <path id="Path_4037" data-name="Path 4037" d="M114.171,305.421a3.036,3.036,0,0,1-1.942.7H90.977v3.026a1.008,1.008,0,0,0,1.009,1.009h26.3a1.008,1.008,0,0,0,1.009-1.009V297.843A19.994,19.994,0,0,1,114.171,305.421Z" transform="translate(-84.858 -248.908)" fill="#f6b333"/>
  </g>
</svg>
