<svg xmlns="http://www.w3.org/2000/svg" width="24" height="24" viewBox="0 0 24 24"><defs><style>.a{fill:#ebf0f3;}.b{fill:#ed9e08;}.c{fill:#f8b432;}.d{fill:#bb7d06;}</style></defs><g transform="translate(-2 -1.751)"><g transform="translate(2 1.751)"><path class="a" d="M21.094,0H2.906A2.848,2.848,0,0,0,0,2.786V19.014A2.848,2.848,0,0,0,2.906,21.8H21.094A2.848,2.848,0,0,0,24,19.014V2.786A2.848,2.848,0,0,0,21.094,0Z" transform="translate(0 2.2)"/><path class="b" d="M24,6.273V2.836A2.872,2.872,0,0,0,21.094,0H2.906A2.872,2.872,0,0,0,0,2.836V6.273Z" transform="translate(0 1.256)"/><path class="c" d="M24,5.971V2.836A2.872,2.872,0,0,0,21.094,0H2.906A2.872,2.872,0,0,0,0,2.836V5.971Z" transform="translate(0 2.2)"/><path class="b" d="M.99,0a.99.99,0,1,0,.99.99A.99.99,0,0,0,.99,0Z" transform="translate(3.754 3.658)"/><path class="d" d="M.53,0A.53.53,0,0,0,0,.53V4.656a.53.53,0,1,0,1.059,0V.53A.53.53,0,0,0,.53,0Z" transform="translate(4.222)"/><path class="b" d="M.99,0a.99.99,0,1,0,.99.99A.99.99,0,0,0,.99,0Z" transform="translate(8.591 3.658)"/><path class="d" d="M.53,0A.53.53,0,0,0,0,.53V4.656a.53.53,0,0,0,1.059,0V.53A.53.53,0,0,0,.53,0Z" transform="translate(9.054)"/><path class="b" d="M.99,0a.99.99,0,1,0,.99.99A.99.99,0,0,0,.99,0Z" transform="translate(13.429 3.658)"/><path class="d" d="M.53,0A.53.53,0,0,0,0,.53V4.656a.53.53,0,1,0,1.059,0V.53A.53.53,0,0,0,.53,0Z" transform="translate(13.887)"/><path class="b" d="M.99,0a.99.99,0,1,0,.99.99A.99.99,0,0,0,.99,0Z" transform="translate(18.266 3.658)"/><path class="d" d="M.53,0A.53.53,0,0,0,0,.53V4.656a.53.53,0,1,0,1.059,0V.53A.53.53,0,0,0,.53,0Z" transform="translate(18.719)"/><g transform="translate(4.932 11.692)"><path class="c" d="M0,0H2.141V2.141H0Z" transform="translate(3.998)"/><path class="c" d="M0,0H2.141V2.141H0Z" transform="translate(7.996)"/><path class="c" d="M0,0H2.141V2.141H0Z" transform="translate(11.994)"/><path class="c" d="M0,0H2.141V2.141H0Z" transform="translate(0 3.356)"/><path class="c" d="M0,0H2.141V2.141H0Z" transform="translate(3.998 3.356)"/><path class="c" d="M0,0H2.141V2.141H0Z" transform="translate(7.996 3.356)"/><path class="c" d="M0,0H2.141V2.141H0Z" transform="translate(11.994 3.356)"/><path class="c" d="M0,0H2.141V2.141H0Z" transform="translate(0 6.713)"/><path class="c" d="M0,0H2.141V2.141H0Z" transform="translate(3.998 6.713)"/><path class="c" d="M0,0H2.141V2.141H0Z" transform="translate(7.996 6.713)"/></g></g></g></svg>