<svg xmlns="http://www.w3.org/2000/svg" width="16" height="14.667" viewBox="0 0 16 14.667"><defs><style>.a{fill:#fff;}</style></defs><g transform="translate(0 0)"><path class="a" d="M12,8a4,4,0,1,1-1.172-2.828A4,4,0,0,1,12,8ZM10.667,8a2.667,2.667,0,1,0-.781,1.886A2.667,2.667,0,0,0,10.667,8ZM6.157,0A2,2,0,0,0,4.368,1.107l-.78,1.56H2.667A2.667,2.667,0,0,0,0,5.333V12a2.667,2.667,0,0,0,2.667,2.667H13.333A2.667,2.667,0,0,0,16,12V5.333a2.667,2.667,0,0,0-2.667-2.667h-.921l-.78-1.56A2,2,0,0,0,9.843,0Zm-.6,1.7a.667.667,0,0,1,.6-.368H9.843a.667.667,0,0,1,.6.368L11.4,3.632A.667.667,0,0,0,12,4h1.333a1.333,1.333,0,0,1,1.333,1.333V12a1.333,1.333,0,0,1-1.333,1.333H2.667A1.333,1.333,0,0,1,1.333,12V5.333A1.333,1.333,0,0,1,2.667,4H4a.667.667,0,0,0,.6-.368L5.561,1.7Z"/></g></svg>