<svg xmlns="http://www.w3.org/2000/svg" width="32" height="32" viewBox="0 0 32 32"><defs><style>.a{fill:#e7f1fd;}</style></defs><g transform="translate(-322.679 -93.679)"><circle class="a" cx="16" cy="16" r="16" transform="translate(322.679 93.679)"/><g transform="translate(333.453 104.453)"><path d="M.176.191a.6.6,0,0,1,.851,0L5.219,4.377,9.41.191a.6.6,0,1,1,.851.85L6.07,5.226l4.191,4.185a.6.6,0,1,1-.851.85L5.219,6.076,1.027,10.261a.6.6,0,0,1-.851-.85L4.368,5.226.176,1.041a.6.6,0,0,1,0-.85Z" transform="translate(0 0)"/></g></g></svg>