<svg xmlns="http://www.w3.org/2000/svg" width="534.524" height="394.96" viewBox="0 0 534.524 394.96"><defs><style>.a{fill:#f5f5f5;}.b{fill:#e0e0e0;}.c{fill:none;stroke:#fff;stroke-miterlimit:10;}.d{opacity:0.2;}.e{fill:#2a5798;}.f{fill:#263238;}.g{fill:#1b1c1d;}.h{fill:#ffb27d;}.i{fill:#a36957;}.j{fill:#455a64;}.k{fill:#f6b333;}.l{opacity:0.3;}.m{fill:#030303;}.n{fill:#184382;}.o{opacity:0.5;}.p{fill:#fff;}</style></defs><g transform="translate(-86.334 2)"><g transform="translate(106.261 -2)"><g transform="translate(0 108.449)"><g transform="translate(0 0)"><rect class="a" width="119.726" height="176.292" transform="matrix(0.831, -0.556, 0.556, 0.831, 0, 66.563)"/></g><g transform="translate(95.515 114.653)"><g transform="translate(0 17.807)"><path class="b" d="M265.968,278.751l-1.129,6.989-49.471-7.127,1.129-6.989Z" transform="translate(-215.368 -271.624)"/></g><g transform="translate(17.815)"><path class="b" d="M243.325,251.546l7.1,1.023-7.871,48.708-7.1-1.023Z" transform="translate(-235.454 -251.546)"/></g></g><g transform="translate(107.132 55.627)"><path class="c" d="M228.466,184.995" transform="translate(-228.466 -184.995)"/></g><g transform="translate(30.831 52.743)"><path class="b" d="M187.24,181.745c.071.106-9.9,6.9-22.272,15.175s-22.46,14.9-22.531,14.792,9.9-6.9,22.274-15.176S187.169,181.639,187.24,181.745Z" transform="translate(-142.436 -181.744)"/></g><g transform="translate(37.897 43.557)"><path class="b" d="M224.738,171.387c.071.106-16.514,11.323-37.038,25.05s-37.227,24.775-37.3,24.669,16.51-11.32,37.041-25.053S224.667,171.28,224.738,171.387Z" transform="translate(-150.403 -171.386)"/></g><g transform="translate(45.233 54.525)"><path class="b" d="M233.009,183.753c.071.106-16.514,11.323-37.037,25.051s-37.227,24.774-37.3,24.669,16.51-11.321,37.04-25.053S232.938,183.647,233.009,183.753Z" transform="translate(-158.675 -183.752)"/></g><g transform="translate(52.569 65.493)"><path class="b" d="M241.28,196.12c.071.106-16.513,11.322-37.037,25.05s-37.227,24.775-37.3,24.669,16.51-11.321,37.04-25.053S241.209,196.013,241.28,196.12Z" transform="translate(-166.946 -196.119)"/></g><g transform="translate(59.905 76.461)"><path class="b" d="M249.552,208.486c.071.106-16.514,11.323-37.038,25.05s-37.227,24.775-37.3,24.669,16.51-11.32,37.041-25.052S249.481,208.38,249.552,208.486Z" transform="translate(-175.217 -208.485)"/></g></g><g transform="translate(348.707 206.656)"><g transform="translate(0 0)"><rect class="a" width="100.549" height="148.055" transform="translate(0 55.901) rotate(-33.777)"/></g><g transform="translate(80.217 96.289)"><g transform="translate(0 14.955)"><path class="b" d="M633.781,364.416l-.948,5.87L591.285,364.3l.948-5.87Z" transform="translate(-591.285 -358.431)"/></g><g transform="translate(14.962)"><path class="b" d="M614.765,341.569l5.962.859-6.61,40.906-5.962-.859Z" transform="translate(-608.155 -341.569)"/></g></g><g transform="translate(89.972 46.718)"><path class="c" d="M602.285,285.678" transform="translate(-602.285 -285.678)"/></g><g transform="translate(25.892 44.295)"><path class="b" d="M567.662,282.948c.071.106-8.3,5.826-18.685,12.775s-18.872,12.5-18.943,12.392,8.294-5.824,18.687-12.776S567.591,282.842,567.662,282.948Z" transform="translate(-530.034 -282.946)"/></g><g transform="translate(31.827 36.58)"><path class="b" d="M599.154,274.249c.071.106-13.848,9.541-31.084,21.069S536.8,316.111,536.726,316s13.845-9.538,31.087-21.071S599.083,274.143,599.154,274.249Z" transform="translate(-536.726 -274.248)"/></g><g transform="translate(37.988 45.792)"><path class="b" d="M606.1,284.635c.071.106-13.848,9.54-31.085,21.069S543.744,326.5,543.673,326.39s13.845-9.538,31.087-21.07S606.03,284.528,606.1,284.635Z" transform="translate(-543.673 -284.634)"/></g><g transform="translate(44.149 55.002)"><path class="b" d="M613.047,295.02c.071.106-13.847,9.541-31.084,21.069s-31.274,20.793-31.345,20.687,13.845-9.538,31.087-21.071S612.976,294.914,613.047,295.02Z" transform="translate(-550.619 -295.019)"/></g><g transform="translate(50.31 64.214)"><path class="b" d="M619.994,305.406c.071.106-13.848,9.54-31.085,21.069s-31.273,20.793-31.344,20.686,13.845-9.538,31.087-21.07S619.923,305.3,619.994,305.406Z" transform="translate(-557.566 -305.405)"/></g></g><g transform="translate(137.056 65.049)"><g transform="translate(0 0)"><rect class="a" width="103.414" height="152.274" transform="matrix(0.882, 0.472, -0.472, 0.882, 71.813, 0)"/></g><g transform="translate(44.132 100.445)"><g transform="translate(10.977)"><path class="b" d="M344.812,227.192l-5.786,1.981-14.686-40.6,5.786-1.981Z" transform="translate(-324.341 -186.594)"/></g><g transform="translate(0 11.473)"><path class="b" d="M352.283,199.529l2.107,5.826-40.319,13.808-2.107-5.826Z" transform="translate(-311.964 -199.529)"/></g></g><g transform="translate(123.711 77.194)"><path class="c" d="M401.689,160.379" transform="translate(-401.689 -160.379)"/></g><g transform="translate(72.043 30.059)"><path class="b" d="M384.489,129.193c-.071.134-9.321-4.673-20.655-10.736s-20.471-11.087-20.4-11.22,9.319,4.673,20.658,10.737S384.561,129.06,384.489,129.193Z" transform="translate(-343.434 -107.234)"/></g><g transform="translate(66.866 39.742)"><path class="b" d="M405.712,154.582c-.071.133-15.378-7.914-34.185-17.973s-34-18.324-33.93-18.457,15.375,7.912,34.188,17.973S405.784,154.448,405.712,154.582Z" transform="translate(-337.597 -118.151)"/></g><g transform="translate(61.491 49.792)"><path class="b" d="M399.652,165.914c-.072.133-15.379-7.914-34.186-17.973s-34-18.324-33.93-18.458,15.376,7.912,34.189,17.974S399.723,165.78,399.652,165.914Z" transform="translate(-331.536 -129.482)"/></g><g transform="translate(56.116 59.842)"><path class="b" d="M393.591,177.245c-.071.134-15.378-7.914-34.185-17.972s-34-18.324-33.93-18.458,15.375,7.912,34.189,17.974S393.663,177.112,393.591,177.245Z" transform="translate(-325.476 -140.814)"/></g><g transform="translate(50.74 69.893)"><path class="b" d="M387.531,188.577c-.072.134-15.379-7.914-34.185-17.972s-34-18.324-33.931-18.458,15.376,7.912,34.189,17.974S387.6,188.444,387.531,188.577Z" transform="translate(-319.415 -152.146)"/></g></g><rect class="d" width="2.291" height="39.009" transform="translate(254.1)"/></g><g transform="translate(307.087)"><g transform="translate(0 38.984)"><path class="e" d="M335.233,91.169H442.072s-9.864-47.214-54.23-47.214C348.382,43.955,335.233,91.169,335.233,91.169Z" transform="translate(-335.233 -43.955)"/></g><rect class="e" width="2.291" height="39.009" transform="translate(52.274)"/></g><g transform="translate(86.334 389.861)"><path class="f" d="M598.38,439.8c0,.128-114.634.231-256.011.231-141.425,0-256.036-.1-256.036-.231s114.61-.231,256.036-.231C483.746,439.568,598.38,439.672,598.38,439.8Z" transform="translate(-86.334 -439.568)"/></g><g transform="translate(105.261 334.546)"><g transform="translate(6.133)"><path class="e" d="M117.868,377.2a11.18,11.18,0,0,1,7.792,3.99,19.738,19.738,0,0,1,3.966,7.992c1.5,5.609.578,12.227-1.022,17.808-6.071-2.17-9.816-8.646-11.509-12.05-2.676-5.38-4.245-16.729.773-17.741" transform="translate(-114.589 -377.201)"/></g><g transform="translate(27.369 20.505)"><path class="e" d="M140.049,416.4a9.538,9.538,0,0,1-.447-9.566,12.671,12.671,0,0,1,7.628-6.131,5.336,5.336,0,0,1,4.49.215,4.081,4.081,0,0,1,1.57,3.824,8.265,8.265,0,0,1-1.746,3.925c-2.952,4-6.543,7.323-11.494,7.734" transform="translate(-138.532 -400.32)"/></g><g transform="translate(27.786 27.282)"><path class="f" d="M140.77,436.008a6.7,6.7,0,0,1-.271-1.165l-.624-3.2a33.475,33.475,0,0,1-.664-10.735,20.49,20.49,0,0,1,3.982-9.949,13.957,13.957,0,0,1,2.3-2.328,8.562,8.562,0,0,1,.723-.519c.169-.112.263-.164.271-.153a21.875,21.875,0,0,0-3.061,3.18,21.158,21.158,0,0,0-3.8,9.825,36.045,36.045,0,0,0,.54,10.627c.217,1.357.393,2.457.493,3.22A6.319,6.319,0,0,1,140.77,436.008Z" transform="translate(-139.003 -407.961)"/></g><g transform="translate(11.368 8.536)"><path class="f" d="M120.494,386.826a2.449,2.449,0,0,1,.244.46c.162.349.37.8.626,1.352.537,1.177,1.29,2.89,2.2,5.014,1.829,4.247,4.274,10.151,6.827,16.73s4.726,12.592,6.239,16.962c.757,2.184,1.354,3.957,1.752,5.188.184.583.333,1.054.449,1.42a2.362,2.362,0,0,1,.129.5,2.485,2.485,0,0,1-.209-.477l-.524-1.393-1.877-5.143c-1.584-4.343-3.8-10.332-6.351-16.909s-4.951-12.492-6.709-16.767l-2.082-5.064c-.226-.568-.41-1.026-.553-1.383A2.411,2.411,0,0,1,120.494,386.826Z" transform="translate(-120.492 -386.826)"/></g><g transform="translate(0 32.145)"><path class="e" d="M130.02,424.229a22.308,22.308,0,0,0-17.314-10.758c-1.794-.13-3.954.171-4.754,1.783s.271,3.526,1.493,4.851a19.063,19.063,0,0,0,20.642,4.608" transform="translate(-107.674 -413.444)"/></g><g transform="translate(7.765 36.963)"><path class="f" d="M116.429,418.89a5.816,5.816,0,0,1,1.124.042,10.882,10.882,0,0,1,1.311.152c.506.095,1.094.15,1.721.324a19.782,19.782,0,0,1,2.045.568,22.173,22.173,0,0,1,2.281.867,24.844,24.844,0,0,1,4.8,2.849,24.316,24.316,0,0,1,3.972,3.93,21.22,21.22,0,0,1,1.4,2,17.831,17.831,0,0,1,1.04,1.852,16.5,16.5,0,0,1,.715,1.6,10.061,10.061,0,0,1,.446,1.242,5.834,5.834,0,0,1,.293,1.086c-.09.032-.522-1.519-1.717-3.79a19.485,19.485,0,0,0-1.071-1.8,22.469,22.469,0,0,0-1.408-1.946,25.228,25.228,0,0,0-3.926-3.839,25.788,25.788,0,0,0-4.707-2.828,23.15,23.15,0,0,0-2.232-.89,20.878,20.878,0,0,0-2.005-.61C118.024,419.068,116.419,418.982,116.429,418.89Z" transform="translate(-116.429 -418.876)"/></g></g><g transform="translate(444.611 60.385)"><g transform="translate(57.727 31.322)"><path class="g" d="M568.667,105.24c-2.608.6-3.878,3.6-4.125,6.266s.093,5.478-1.026,7.91c-1.259,2.736-4.268,4.753-4.368,7.763-.061,1.836,1.029,3.562.977,5.4-.086,3.016-3.16,5.293-3.322,8.305-.116,2.169,1.329,4.25.981,6.394-.271,1.668-1.569,2.983-2.118,4.581-1.1,3.187,1.094,6.694,3.946,8.489a12.933,12.933,0,0,0,18.844-6.021c1.578-3.831,1.233-8.144.89-12.271q-1.6-19.3-2.382-38.653" transform="translate(-555.378 -103.399)"/><g transform="translate(5.714 2.86)"><path class="g" d="M561.824,151.005a3.127,3.127,0,0,0,1.192-1.417,5.03,5.03,0,0,0,.3-2.165,11.991,11.991,0,0,0-.647-2.872,8.194,8.194,0,0,1-.463-3.636,8.294,8.294,0,0,1,2.114-3.63,8.094,8.094,0,0,0,1.2-1.82,2.939,2.939,0,0,0,.139-2.127c-.458-1.449-1.878-2.515-2.529-4.187a4.519,4.519,0,0,1-.143-2.588,10.5,10.5,0,0,1,.856-2.322,19.867,19.867,0,0,0,1.762-4.173c.623-2.813.332-5.5.756-7.7a8.554,8.554,0,0,1,2.242-4.726,5.049,5.049,0,0,1,1.172-.835,2.024,2.024,0,0,1,.469-.176,7.165,7.165,0,0,0-1.514,1.138,8.629,8.629,0,0,0-2.048,4.654,29.023,29.023,0,0,0-.247,3.584,21.92,21.92,0,0,1-.417,4.163,19.8,19.8,0,0,1-1.768,4.271c-.667,1.393-1.28,3.027-.689,4.554.563,1.51,1.992,2.582,2.528,4.213a3.385,3.385,0,0,1-.165,2.438,8.471,8.471,0,0,1-1.272,1.913,8.027,8.027,0,0,0-2.067,3.428,7.982,7.982,0,0,0,.4,3.48,11.827,11.827,0,0,1,.591,2.95,5.061,5.061,0,0,1-.4,2.248,2.7,2.7,0,0,1-.909,1.119A1.465,1.465,0,0,1,561.824,151.005Z" transform="translate(-561.821 -106.624)"/></g></g><path class="h" d="M547.964,180.366l-8.006,23.079-33.386,1.79L501,217.624l34.856,3.527a13.17,13.17,0,0,0,17.429-7.73l9.3-25.965Z" transform="translate(-491.502 -80.781)"/><g transform="translate(63.476 164.265)"><path class="h" d="M623.9,406.2s-24.468-77.709-24.986-80.232c-.469-2.28,8.88-58.2,10.057-72.676l-33.059,1.233,0,.241-14.052.779,12.585,158.93h15.213l-1.508-52.728c9.38,25.186,22.824,50.851,22.824,50.851Z" transform="translate(-561.86 -253.293)"/><g transform="translate(21.029 93.791)"><path class="i" d="M591.453,392.6c.013-.482-.185-17.667-.185-17.667-.19,1.028-5.832-14.921-5.7-15.89C585.643,358.545,591.453,392.6,591.453,392.6Z" transform="translate(-585.57 -359.042)"/></g><g transform="translate(20.265 86.246)"><path class="i" d="M584.831,350.535a3.553,3.553,0,0,0-.1.963,25.419,25.419,0,0,0,.02,2.634c.021.558.079,1.165.152,1.817s.172,1.348.323,2.07a35.3,35.3,0,0,0,1.244,4.63c1.1,3.215,2.323,6.027,3.188,8.067q.616,1.4,1.059,2.4a3.558,3.558,0,0,0,.451.856,3.632,3.632,0,0,0-.269-.93c-.2-.586-.515-1.428-.91-2.463-.781-2.075-1.947-4.908-3.042-8.094a40.175,40.175,0,0,1-1.266-4.561c-.161-.709-.263-1.393-.364-2.032s-.167-1.239-.211-1.789c-.1-1.1-.152-1.992-.179-2.61A3.614,3.614,0,0,0,584.831,350.535Z" transform="translate(-584.709 -350.535)"/></g></g><g transform="translate(65.304 324.124)"><g transform="translate(0.002)"><path class="j" d="M574.393,435.641l-.006-1.429,15.583-.678.042,5.894-.961.065c-4.277.25-21.766.971-24.629.114C561.229,438.648,574.393,435.641,574.393,435.641Z" transform="translate(-563.923 -433.534)"/></g><g transform="translate(0 5.528)"><path class="f" d="M590.23,439.775a1.35,1.35,0,0,1-.266.03l-.765.049-2.818.132c-2.38.094-5.669.18-9.3.2s-6.925-.043-9.306-.116l-2.819-.106-.765-.043a1.36,1.36,0,0,1-.267-.027,1.461,1.461,0,0,1,.268-.01l.767.007,2.819.047c2.38.039,5.669.075,9.3.06s6.92-.082,9.3-.142l2.819-.072.766-.014A1.472,1.472,0,0,1,590.23,439.775Z" transform="translate(-563.921 -439.767)"/></g><g transform="translate(3.927 3.616)"><path class="f" d="M569.845,440.034a4.1,4.1,0,0,0-1.5-2.419,2.5,2.5,0,0,1,1.5,2.419Z" transform="translate(-568.349 -437.61)"/></g><g transform="translate(9.159 2.412)"><path class="f" d="M575.079,437.543c-.044.027-.264-.238-.491-.593s-.376-.666-.333-.694.263.237.49.592S575.122,437.515,575.079,437.543Z" transform="translate(-574.247 -436.254)"/></g><g transform="translate(10.268 2.162)"><path class="f" d="M576.473,436.842c-.035.039-.279-.123-.547-.362s-.458-.465-.423-.5.28.123.548.362S576.507,436.8,576.473,436.842Z" transform="translate(-575.498 -435.971)"/></g><g transform="translate(10.411 1.484)"><path class="f" d="M577.28,435.289a1.808,1.808,0,0,1-.809.106,1.843,1.843,0,0,1-.811-.082,1.822,1.822,0,0,1,.808-.106A1.846,1.846,0,0,1,577.28,435.289Z" transform="translate(-575.66 -435.207)"/></g><g transform="translate(10.465 0.519)"><path class="f" d="M577.555,434.134a2.283,2.283,0,0,1-1.834.145,5.075,5.075,0,0,1,.918-.066A5.01,5.01,0,0,1,577.555,434.134Z" transform="translate(-575.721 -434.119)"/></g><g transform="translate(6.534 0.964)"><path class="f" d="M574.213,436.007a2.858,2.858,0,0,1-1,0,5.843,5.843,0,0,1-1.062-.23,2.915,2.915,0,0,1-.608-.248.535.535,0,0,1-.247-.308.391.391,0,0,1,.15-.4,1.827,1.827,0,0,1,2.261.526,1.775,1.775,0,0,1,.327.663.565.565,0,0,1,.027.27,2.829,2.829,0,0,0-.458-.849,1.8,1.8,0,0,0-.852-.55,1.55,1.55,0,0,0-1.188.085c-.158.118-.095.3.081.408a3.022,3.022,0,0,0,.561.238,6.891,6.891,0,0,0,1.027.263C573.833,435.977,574.213,435.977,574.213,436.007Z" transform="translate(-571.288 -434.621)"/></g><g transform="translate(9.076 0.469)"><path class="f" d="M574.279,435.995a.985.985,0,0,1-.117-.691,1.624,1.624,0,0,1,.27-.729,1,1,0,0,1,.827-.511.4.4,0,0,1,.309.459,1.1,1.1,0,0,1-.168.446,3,3,0,0,1-.468.6,1.432,1.432,0,0,1-.568.405c-.018-.024.2-.179.471-.5a3.491,3.491,0,0,0,.415-.6c.136-.211.228-.59-.022-.634-.249-.023-.5.226-.655.425a1.656,1.656,0,0,0-.279.649A3.732,3.732,0,0,0,574.279,435.995Z" transform="translate(-574.154 -434.063)"/></g><g transform="translate(20.482 1.195)"><path class="f" d="M592.509,434.982c0,.035-.444-.041-1.144.044a4.856,4.856,0,0,0-4.05,3.251c-.234.665-.255,1.112-.29,1.108a.88.88,0,0,1,0-.312,4.057,4.057,0,0,1,.166-.837,4.71,4.71,0,0,1,4.162-3.342,4.073,4.073,0,0,1,.852.019A.876.876,0,0,1,592.509,434.982Z" transform="translate(-587.014 -434.881)"/></g><g transform="translate(13.983 4.282)"><path class="f" d="M584.218,438.382a12.739,12.739,0,0,1-4.531.025c.005-.055,1.017.012,2.266,0S584.212,438.327,584.218,438.382Z" transform="translate(-579.687 -438.362)"/></g><g transform="translate(21.111 4.263)"><path class="f" d="M588.165,438.346c.037.037-.083.215-.185.447s-.158.439-.211.436-.081-.245.04-.513S588.131,438.309,588.165,438.346Z" transform="translate(-587.724 -438.34)"/></g><g transform="translate(22.105 2.832)"><path class="f" d="M589.431,436.734c.037.036-.062.2-.223.361s-.319.266-.357.23.063-.2.223-.361S589.394,436.7,589.431,436.734Z" transform="translate(-588.845 -436.727)"/></g><g transform="translate(23.444 2.094)"><path class="f" d="M591.238,435.983c-.011.053-.217.051-.444.133s-.391.2-.432.168.088-.249.371-.346S591.253,435.935,591.238,435.983Z" transform="translate(-590.354 -435.895)"/></g><g transform="translate(25.025 1.836)"><path class="f" d="M592.605,435.639c.019.049-.07.129-.2.178s-.247.052-.267,0,.07-.129.2-.179S592.586,435.591,592.605,435.639Z" transform="translate(-592.137 -435.604)"/></g></g><g transform="translate(104.184 316.554)"><path class="j" d="M615.86,433.3l-.592-1.3,13.938-7,2.453,5.359-.851.453c-3.8,1.98-19.459,9.8-22.421,10.192C605.083,441.436,615.86,433.3,615.86,433.3Z" transform="translate(-607.758 -424.998)"/><g transform="translate(0.001 4.944)"><path class="f" d="M631.712,430.573a1.544,1.544,0,0,1-.232.137l-.678.358-2.516,1.274c-2.132,1.061-5.1,2.487-8.406,3.991s-6.335,2.8-8.537,3.706l-2.615,1.057-.716.275a1.408,1.408,0,0,1-.255.084,1.358,1.358,0,0,1,.239-.119l.7-.308,2.592-1.112c2.187-.939,5.2-2.253,8.51-3.755s6.279-2.908,8.426-3.938L630.77,431l.694-.326A1.5,1.5,0,0,1,631.712,430.573Z" transform="translate(-607.759 -430.572)"/></g><g transform="translate(2.751 12.343)"><path class="f" d="M613.216,440.529a4.1,4.1,0,0,0-2.356-1.594,2.5,2.5,0,0,1,2.356,1.594Z" transform="translate(-610.86 -438.914)"/></g><g transform="translate(7.034 9.11)"><path class="f" d="M616.97,436.114c-.028.043-.338-.109-.691-.34s-.616-.454-.588-.5.338.109.691.341S617,436.071,616.97,436.114Z" transform="translate(-615.689 -435.27)"/></g><g transform="translate(7.944 8.42)"><path class="f" d="M617.955,434.9c-.016.05-.306,0-.648-.106s-.608-.236-.592-.286.306,0,.648.106S617.97,434.854,617.955,434.9Z" transform="translate(-616.714 -434.492)"/></g><g transform="translate(7.834 7.161)"><path class="f" d="M618.06,433.083c.021.047-.289.239-.695.427a1.825,1.825,0,0,1-.773.258c-.022-.047.288-.239.694-.428A1.829,1.829,0,0,1,618.06,433.083Z" transform="translate(-616.591 -433.072)"/></g><g transform="translate(7.51 6.115)"><path class="f" d="M617.84,431.9c.034.036-.251.36-.714.612a1.579,1.579,0,0,1-.9.272,4.891,4.891,0,0,1,.81-.437A5.059,5.059,0,0,1,617.84,431.9Z" transform="translate(-616.226 -431.892)"/></g><g transform="translate(4.22 8.326)"><path class="f" d="M615.573,435a2.873,2.873,0,0,1-.91.405,5.8,5.8,0,0,1-1.062.225,2.87,2.87,0,0,1-.656.023.54.54,0,0,1-.352-.18.39.39,0,0,1-.027-.425,1.826,1.826,0,0,1,2.278-.446,1.78,1.78,0,0,1,.571.471c.106.138.144.229.134.234a2.812,2.812,0,0,0-.764-.586,1.792,1.792,0,0,0-1-.153,1.545,1.545,0,0,0-1.047.564c-.1.172.037.316.24.339a2.982,2.982,0,0,0,.609-.013,6.777,6.777,0,0,0,1.045-.181C615.214,435.127,615.561,434.971,615.573,435Z" transform="translate(-612.515 -434.385)"/></g><g transform="translate(6.596 6.922)"><path class="f" d="M615.661,434.972a.983.983,0,0,1-.39-.583,1.645,1.645,0,0,1-.053-.775,1,1,0,0,1,.546-.805c.223-.068.742.38.778.547.056.167-.262.081-.278.221a3.053,3.053,0,0,1-.18.743,1.422,1.422,0,0,1-.353.6c-.026-.015.107-.245.227-.645a3.476,3.476,0,0,0,.133-.718c.038-.247-.033-.631-.279-.569-.237.082-.366.412-.423.656a1.645,1.645,0,0,0,.011.707A3.673,3.673,0,0,0,615.661,434.972Z" transform="translate(-615.195 -432.802)"/></g><g transform="translate(18.355 1.209)"><path class="f" d="M632.012,426.364c.011.034-.422.145-1.026.51a4.855,4.855,0,0,0-2.362,4.624c.059.7.223,1.119.189,1.13a.9.9,0,0,1-.129-.285,4.058,4.058,0,0,1-.192-.831,4.712,4.712,0,0,1,2.427-4.754,4.092,4.092,0,0,1,.786-.333A.92.92,0,0,1,632.012,426.364Z" transform="translate(-628.453 -426.361)"/></g><g transform="translate(12.214 7.008)"><path class="f" d="M625.652,432.9a12.717,12.717,0,0,1-4.123,1.878c-.018-.051.933-.405,2.068-.925S625.625,432.855,625.652,432.9Z" transform="translate(-621.529 -432.899)"/></g><g transform="translate(18.922 5.735)"><path class="f" d="M629.265,431.466c.05.019.013.23.015.483s.035.466-.015.484-.174-.19-.173-.483S629.219,431.445,629.265,431.466Z" transform="translate(-629.092 -431.464)"/></g><g transform="translate(19.238 3.964)"><path class="f" d="M629.759,429.469c.049.018.025.207-.054.42s-.183.373-.232.356-.024-.206.055-.42S629.711,429.451,629.759,429.469Z" transform="translate(-629.449 -429.467)"/></g><g transform="translate(20.076 2.671)"><path class="f" d="M631.09,428.035c.012.052-.177.136-.351.3s-.273.345-.325.33-.022-.263.2-.467S631.085,427.984,631.09,428.035Z" transform="translate(-630.393 -428.009)"/></g><g transform="translate(21.346 1.923)"><path class="f" d="M632.188,427.177c.037.036-.012.145-.108.244s-.2.149-.241.113.011-.146.107-.245S632.151,427.141,632.188,427.177Z" transform="translate(-631.826 -427.166)"/></g></g><g transform="translate(48.283 75.836)"><g transform="translate(0.172)"><path class="k" d="M604.915,215.714l-2.6-31.66,13.33.238s.617-4.668-1.346-14.908c-1.2-6.279-5.386-10.129-10.076-12.418v-.084l-.406-.106a38.089,38.089,0,0,0-12.209-3.186l-16.361.189s-12.5-1.559-19.416,7.351c-2.665,3.431-10.911,26.922-10.911,26.922l19.638,9.458-1.869-13.026s.371,9.444,1.577,12.436c.671,1.667,2.615,6.844,2.615,6.844l-.254,15.622Z" transform="translate(-544.924 -153.589)"/><g transform="translate(48.536 18.869)"><path class="k" d="M602.077,181.864l-2.428,10.346h22.91l-1.507-17.346Z" transform="translate(-599.649 -174.864)"/></g><g transform="translate(50.695 35.724)"><path class="f" d="M622.834,194.359a17.058,17.058,0,0,0-3.032-.3c-1.878-.11-4.475-.2-7.347-.19s-5.47.138-7.346.287a16.365,16.365,0,0,0-3.025.373,20.46,20.46,0,0,0,3.045-.017c1.876-.058,4.466-.125,7.33-.139s5.454.024,7.332.043A19.447,19.447,0,0,0,622.834,194.359Z" transform="translate(-602.083 -193.868)"/></g><g transform="translate(49.895 18.784)"><path class="f" d="M601.263,174.768a13.736,13.736,0,0,0-.076,2.632c.018,1.623.076,3.864.172,6.339s.211,4.714.32,6.334a13.631,13.631,0,0,0,.28,2.617,13.54,13.54,0,0,0,.076-2.631c-.017-1.623-.075-3.865-.172-6.34s-.211-4.714-.319-6.333A13.6,13.6,0,0,0,601.263,174.768Z" transform="translate(-601.181 -174.768)"/></g><g class="l" transform="translate(29.13 27.745)"><path d="M577.768,184.872s5.093,37.754,19.407,36.755c0,0,6.444-.076,8.517-4.36v-1.686Z" transform="translate(-577.768 -184.872)"/></g></g><g class="l" transform="translate(47.409 21.01)"><path d="M600.924,177.277l-2.74,18.508,1.774,3.248,2.921-6.35-1.236-.029Z" transform="translate(-598.184 -177.277)"/></g><g transform="translate(17.55 26.252)"><path class="f" d="M569.1,207.111a3.881,3.881,0,0,1-.387-.884c-.223-.578-.518-1.425-.86-2.478a75.313,75.313,0,0,1-2.192-8.378,60.547,60.547,0,0,1-1.086-8.6c-.053-1.108-.069-2-.053-2.624a3.871,3.871,0,0,1,.066-.963c.074,0,.123,1.367.313,3.565a79.9,79.9,0,0,0,1.212,8.528c.658,3.3,1.448,6.247,2.051,8.373q.422,1.478.718,2.517A3.9,3.9,0,0,1,569.1,207.111Z" transform="translate(-564.518 -183.188)"/></g><g transform="translate(26.739 57.25)"><path class="f" d="M576.061,221.912c-.122.037-.476-.778-.791-1.819a4.388,4.388,0,0,1-.349-1.953c.121-.037.476.777.791,1.819A4.4,4.4,0,0,1,576.061,221.912Z" transform="translate(-574.879 -218.139)"/></g><g transform="translate(29.376 55.344)"><path class="f" d="M578.376,221.524a8.177,8.177,0,0,1-.082-5.534,18.62,18.62,0,0,1,.019,2.768A18.648,18.648,0,0,1,578.376,221.524Z" transform="translate(-577.851 -215.99)"/></g><g transform="translate(0 34.25)"><path class="f" d="M564.939,202.308c-.058.114-4.628-2.054-10.207-4.842s-10.059-5.142-10-5.256,4.626,2.053,10.208,4.843S565,202.194,564.939,202.308Z" transform="translate(-544.73 -192.206)"/></g></g><g transform="translate(69.708 29.847)"><g transform="translate(0 5.888)"><path class="h" d="M575.724,151.726c.1-4.487.127-9.212.127-9.212s-5.755-1.109-6.757-8.681c-.957-7.221,1.718-24.166,1.718-24.166h0c8.407-3.178,17.142-.3,22.9,6.514h0l-1.43,36.429a7.821,7.821,0,0,1-8.462,7.243h0A8.261,8.261,0,0,1,575.724,151.726Z" transform="translate(-568.887 -108.375)"/><g transform="translate(1.114 12.594)"><g transform="translate(0.373 1.39)"><path class="h" d="M570.565,124.992a.968.968,0,0,0,.907,1,.925.925,0,0,0,1.019-.846.968.968,0,0,0-.906-1A.926.926,0,0,0,570.565,124.992Z" transform="translate(-570.563 -124.141)"/></g><path class="h" d="M570.157,123.543c.116.129.863-.394,1.9-.365s1.79.57,1.906.445c.057-.055-.059-.286-.386-.537a2.659,2.659,0,0,0-1.522-.513,2.555,2.555,0,0,0-1.519.448C570.214,123.261,570.1,123.486,570.157,123.543Z" transform="translate(-570.143 -122.574)"/></g><g transform="translate(11.963 13.253)"><g transform="translate(0.083 1.388)"><path class="h" d="M582.471,125.733a.967.967,0,0,0,.907,1,.924.924,0,0,0,1.019-.846.969.969,0,0,0-.906-1A.926.926,0,0,0,582.471,125.733Z" transform="translate(-582.469 -124.882)"/></g><path class="h" d="M582.389,124.286c.117.13.865-.394,1.9-.364,1.04.014,1.791.569,1.907.445.057-.055-.058-.286-.387-.537a2.647,2.647,0,0,0-1.521-.513,2.542,2.542,0,0,0-1.519.448C582.447,124,582.332,124.228,582.389,124.286Z" transform="translate(-582.375 -123.317)"/></g><g transform="translate(5.369 13.183)"><path class="h" d="M577.572,131.9a6.84,6.84,0,0,0-1.682-.349c-.265-.035-.515-.094-.555-.277a1.355,1.355,0,0,1,.2-.783q.4-.955.838-2a34.7,34.7,0,0,0,1.9-5.248,34.81,34.81,0,0,0-2.319,5.082q-.422,1.055-.805,2.017a1.539,1.539,0,0,0-.165,1.039.667.667,0,0,0,.427.4,1.807,1.807,0,0,0,.451.074A6.8,6.8,0,0,0,577.572,131.9Z" transform="translate(-574.94 -123.238)"/></g><g transform="translate(6.964 31.706)"><path class="h" d="M576.739,146.556a19.189,19.189,0,0,0,10.169-2.433s-2.584,5.117-10.114,4.216Z" transform="translate(-576.739 -144.123)"/></g></g><g transform="translate(1.486)"><path class="g" d="M590.418,124.328c-.9,2.079-3.086,3.681-2.783,5.926.2,1.448,1.125,2.8.945,4.25-.227,1.822-2.12,3.085-2.388,4.9-.328,2.228,1.839,3.959,2.7,6.038,1.26,3.027-.352,6.432-.39,9.711a10.412,10.412,0,0,0,9.219,10.127c2.025.167,4.306-.444,5.355-2.184.866-1.436.694-3.259,1.212-4.852.774-2.373,3.036-4.111,3.513-6.561.869-4.467-4.529-8.164-4.174-12.7.152-1.938,1.348-3.629,1.857-5.506A8.068,8.068,0,0,0,603.9,126.3c-1.332-1.585-3.266-2.627-4.4-4.358-1.287-1.964-1.331-4.453-1.817-6.75a17,17,0,0,0-27.008-9.961s-1.29,5.846,4.71,6.823,8.781-.151,9.458,2.255a6.359,6.359,0,0,0,1.8,5.493C589.125,122.482,591.457,121.92,590.418,124.328Z" transform="translate(-570.563 -101.736)"/><g transform="translate(19.443 16.349)"><path class="g" d="M602.472,166.955a2.465,2.465,0,0,1-.548-.057,8.11,8.11,0,0,1-1.526-.412,10.765,10.765,0,0,1-4.642-3.437,12.161,12.161,0,0,1-1.974-3.513,14.109,14.109,0,0,1-.806-4.553,18.545,18.545,0,0,1,.639-5.064,22.1,22.1,0,0,1,.849-2.566,25.541,25.541,0,0,0,.974-2.548,4.791,4.791,0,0,0-.009-2.6,14.157,14.157,0,0,0-1.008-2.428,16.2,16.2,0,0,1-1.033-2.4,5.194,5.194,0,0,1-.186-2.549c.353-1.671,1.368-2.907,1.967-4.176a7.943,7.943,0,0,0,.8-3.778,8.928,8.928,0,0,0-1.978-5.232,15.818,15.818,0,0,0-1.507-1.467,6.132,6.132,0,0,1,1.643,1.35,8.9,8.9,0,0,1,2.168,5.335,8.207,8.207,0,0,1-.785,3.959c-.611,1.315-1.591,2.561-1.894,4.09s.418,3.127,1.207,4.671a14.428,14.428,0,0,1,1.047,2.508,5.258,5.258,0,0,1,.012,2.842,25.477,25.477,0,0,1-.992,2.6,21.835,21.835,0,0,0-.839,2.512,18.354,18.354,0,0,0-.651,4.942,12.8,12.8,0,0,0,2.611,7.87,10.943,10.943,0,0,0,4.452,3.472C601.72,166.826,602.483,166.9,602.472,166.955Z" transform="translate(-592.485 -120.169)"/></g><g transform="translate(2.145 2.675)"><path class="g" d="M599.384,120.457a6.289,6.289,0,0,1-1.322.2,13.775,13.775,0,0,1-3.653-.1,6.945,6.945,0,0,1-4.609-2.8,15.007,15.007,0,0,1-1.21-2.977,4.92,4.92,0,0,0-2.02-2.493c-1.941-1.23-4.224-1.381-6.221-1.624a10.8,10.8,0,0,1-5.17-1.61,5.125,5.125,0,0,1-2.116-2.962,3.191,3.191,0,0,1-.068-1,1.023,1.023,0,0,1,.072-.342,6.523,6.523,0,0,0,.171,1.3,5.1,5.1,0,0,0,2.129,2.738,10.772,10.772,0,0,0,5.032,1.455c1.98.223,4.343.347,6.421,1.659a5.337,5.337,0,0,1,2.192,2.718,15.336,15.336,0,0,0,1.147,2.911,6.7,6.7,0,0,0,4.313,2.706,15.519,15.519,0,0,0,3.58.238A9,9,0,0,1,599.384,120.457Z" transform="translate(-572.981 -104.752)"/></g><g transform="translate(3.772 1.524)"><path class="g" d="M597.39,113.087a2.7,2.7,0,0,1-1.039.153,6.359,6.359,0,0,1-4.448-1.776,8.43,8.43,0,0,1-1.376-1.836c-.8-1.349-1.57-3.013-3.228-3.7a10.608,10.608,0,0,0-4.969-.437,15.187,15.187,0,0,1-4.241-.035,5.282,5.282,0,0,1-2.617-1.173,3.012,3.012,0,0,1-.522-.585c-.1-.149-.145-.231-.132-.24.037-.028.248.286.768.686a5.447,5.447,0,0,0,2.557.991,15.98,15.98,0,0,0,4.15-.067,10.684,10.684,0,0,1,5.193.438,5.128,5.128,0,0,1,2.117,1.759,23.477,23.477,0,0,1,1.291,2.15,8.317,8.317,0,0,0,1.278,1.778,6.1,6.1,0,0,0,1.526,1.126,6.579,6.579,0,0,0,2.657.742C597.015,113.1,597.384,113.047,597.39,113.087Z" transform="translate(-574.816 -103.454)"/></g><g transform="translate(25.816 18.831)"><path class="g" d="M605.932,165.357c-.045-.02.238-.592.565-1.682a15.27,15.27,0,0,0,.591-4.754,14.607,14.607,0,0,0-1.891-6.773c-.648-1.162-1.635-2.2-2.437-3.472a6.276,6.276,0,0,1-.894-2.141,4.84,4.84,0,0,1,.2-2.394c.5-1.531,1.388-2.821,1.58-4.229a5.829,5.829,0,0,0-1.15-3.845,17.7,17.7,0,0,1-.95-1.763,6.341,6.341,0,0,1-.5-1.852,16.419,16.419,0,0,1,.1-3.382,8.945,8.945,0,0,0-.42-4.713,4.275,4.275,0,0,0-1.047-1.388c0-.007.041.01.107.051a1.8,1.8,0,0,1,.283.2,3.281,3.281,0,0,1,.819,1.056,8.786,8.786,0,0,1,.584,4.82,16.655,16.655,0,0,0-.045,3.307,8.4,8.4,0,0,0,1.438,3.445,11.714,11.714,0,0,1,.965,1.886,4.471,4.471,0,0,1,.267,2.239c-.216,1.552-1.13,2.864-1.588,4.306a4.4,4.4,0,0,0-.184,2.171,5.861,5.861,0,0,0,.826,1.986c.761,1.226,1.752,2.281,2.421,3.5a14.644,14.644,0,0,1,1.849,6.977,14.347,14.347,0,0,1-.746,4.816,10.487,10.487,0,0,1-.511,1.225A1.746,1.746,0,0,1,605.932,165.357Z" transform="translate(-599.67 -122.968)"/></g></g></g><g transform="translate(60.82 135.595)"><g transform="translate(0 0)"><path class="m" d="M565.19,341.7s-5.973-56.623-6.316-77.546,9.407-41.566,9.407-41.566l38.211-1.616s7.553,21.229,7.688,30.146c.263,17.329-4.6,34.442-4.043,48.188l1.278,42.394" transform="translate(-558.865 -220.967)"/></g></g><g transform="translate(69.188 67.534)"><path class="h" d="M606.353,188.793l-7.388.175a12.085,12.085,0,0,1-1.671,4.192c-6.178-10.725-10.969-25.094-12.158-30.867.173-.577.378-1.215.634-1.928a8.188,8.188,0,0,0-.1-3.248c-.207-1.285-.567-3.016-.675-3.816-.329-2.44-.722-2.823-1.573-2.547-1.158.375.475,6.853-.474,6.993-.51.075-1.133-2.144-1.314-3.965s-1-7.422-1.606-7.8c-.883-.547-1.651.318-1.428,2.131.225,1.836.51,7.308-.452,7.382s-1.745-9.212-1.745-9.212.15-2.02-.964-1.973c-2.01.088-.439,9.878-.267,10.8.12.646-.924.764-1.016.064-.095-.721-.58-9.287-2.625-9.218-1.571.053,1.216,8.067.334,9.925s-1.495-6.31-2.993-6.2c-.558.042-.971.151.055,4.772a104.275,104.275,0,0,0,3.585,10.834c2.376,12.815,12.8,53.815,29.154,46.31,9.148-4.2,12.859-22.812,12.859-22.812Z" transform="translate(-568.301 -144.238)"/><g transform="translate(6.155)"><path class="i" d="M575.61,155.737a.5.5,0,0,0,.213-.029.474.474,0,0,0,.333-.512c-.021-.551-.107-1.353-.235-2.389a34.476,34.476,0,0,1-.408-3.779c-.012-.742.007-1.541.05-2.387a8.317,8.317,0,0,1,.13-1.277c.069-.4.338-.861.648-.806l.035.006h.015c.316-.014.562.231.663.608a3.492,3.492,0,0,1,.116,1.187v.028a71.859,71.859,0,0,0,.948,7.406c.072.331.145.664.248,1a4.808,4.808,0,0,0,.185.508,1.575,1.575,0,0,0,.151.263.482.482,0,0,0,.371.232.663.663,0,0,0,.558-.466,2.679,2.679,0,0,0,.166-.545,8.191,8.191,0,0,0,.143-1.082,32.345,32.345,0,0,0-.059-4.436,10.257,10.257,0,0,1-.092-2.222,1.232,1.232,0,0,1,.436-.827.479.479,0,0,1,.381-.049.9.9,0,0,1,.211.091.289.289,0,0,1,.1.131,11.088,11.088,0,0,1,.615,2.229c.157.786.294,1.585.419,2.394s.239,1.627.336,2.452a17,17,0,0,0,.409,2.522,8.388,8.388,0,0,0,.4,1.253,2.24,2.24,0,0,0,.365.627.526.526,0,0,0,.53.193.567.567,0,0,0,.363-.4,4.36,4.36,0,0,0,.093-1.38c-.019-.44-.055-.875-.092-1.31-.063-.747-.135-1.486-.16-2.214a7.428,7.428,0,0,1,.027-1.067,1.7,1.7,0,0,1,.107-.463.417.417,0,0,1,.085-.132c.014-.014.023-.008.035-.022l.115-.033c.588-.243.784.576.94,1.235.137.687.223,1.4.361,2.1.234,1.4.532,2.785.688,4.12a4.765,4.765,0,0,1-.078,1.909l-.623,1.9-.019.057.013.059a102.6,102.6,0,0,0,3.968,12.824c1.4,3.784,2.808,7.055,4.048,9.73s2.343,4.74,3.11,6.146l.922,1.586a3.782,3.782,0,0,0,.342.533,3.7,3.7,0,0,0-.272-.572c-.211-.4-.495-.939-.855-1.62-.72-1.428-1.785-3.507-2.98-6.2s-2.565-5.962-3.937-9.746a105.42,105.42,0,0,1-3.88-12.781l-.005.116.622-1.877a5.155,5.155,0,0,0,.109-2.122c-.159-1.387-.449-2.734-.68-4.138-.137-.694-.221-1.406-.364-2.133a4.21,4.21,0,0,0-.362-1.1,1.071,1.071,0,0,0-.49-.493,1.093,1.093,0,0,0-.7-.028l-.149.043a.76.76,0,0,0-.2.114.86.86,0,0,0-.224.315,2.176,2.176,0,0,0-.148.606,7.889,7.889,0,0,0-.03,1.144c.026.752.1,1.5.161,2.241.036.433.073.863.091,1.289a4.173,4.173,0,0,1-.066,1.192c-.022.093-.067.075-.016.121l0,0c0-.029.007.045,0,.033v-.009a.055.055,0,0,1,0-.03c0-.008.024-.039.012-.042a.131.131,0,0,1-.053-.049,1.9,1.9,0,0,1-.271-.481,8.155,8.155,0,0,1-.376-1.177,16.734,16.734,0,0,1-.4-2.459c-.1-.835-.216-1.657-.343-2.471s-.266-1.619-.428-2.414a11.005,11.005,0,0,0-.674-2.369.8.8,0,0,0-.278-.311,1.379,1.379,0,0,0-.331-.139.966.966,0,0,0-.749.1,1.661,1.661,0,0,0-.655,1.155,4.2,4.2,0,0,0-.015,1.215c.044.379.081.75.111,1.125a32.193,32.193,0,0,1,.08,4.368,7.889,7.889,0,0,1-.129,1.024,2.292,2.292,0,0,1-.135.459.572.572,0,0,1-.1.166c-.032.074-.06-.017-.058.1.045-.09,0-.04-.033-.116a1.246,1.246,0,0,1-.106-.184,4.415,4.415,0,0,1-.168-.454c-.1-.315-.174-.641-.246-.964a73.687,73.687,0,0,1-1-7.348v.028a3.8,3.8,0,0,0-.145-1.319,1.343,1.343,0,0,0-.347-.591.921.921,0,0,0-.657-.239l.049.005a.765.765,0,0,0-.764.366,1.9,1.9,0,0,0-.272.689,8.255,8.255,0,0,0-.119,1.332c-.032.853-.038,1.656-.014,2.406a31.632,31.632,0,0,0,.49,3.8c.154,1.031.27,1.831.319,2.37a.419.419,0,0,1-.259.464C575.681,155.718,575.608,155.726,575.61,155.737Z" transform="translate(-575.241 -144.228)"/></g></g><path class="h" d="M508.243,208.231a19.051,19.051,0,0,0-5.138.589c-4.58,1.205-12.487,6-12.814,11.917h5.742s-3.216,6.846-2.271,6.212a73.9,73.9,0,0,0,7.333-6.6Z" transform="translate(-490.291 -83.931)"/><g transform="translate(94.394)"><path class="g" d="M598.616,89.335c-.127.011-.648-4.737-1.165-10.6s-.831-10.634-.7-10.646.647,4.736,1.164,10.606S598.743,89.323,598.616,89.335Z" transform="translate(-596.72 -68.084)"/><g transform="translate(9.381 0.289)"><path class="g" d="M625.007,68.411c.1.074-3.776,5.706-8.665,12.577S607.4,93.372,607.3,93.3s3.776-5.7,8.667-12.577S624.9,68.337,625.007,68.411Z" transform="translate(-607.297 -68.41)"/></g><g transform="translate(17.24 25.801)"><path class="g" d="M636.477,97.187c.026.124-4.5,1.161-10.113,2.314s-10.181,1.987-10.207,1.862,4.5-1.161,10.113-2.314S636.452,97.062,636.477,97.187Z" transform="translate(-616.158 -97.175)"/></g></g></g><g transform="translate(162.823 166.949)"><g transform="translate(0)"><g transform="translate(76.623 30.186)"><path class="n" d="M294.436,233.156,263.074,394.4,258.968,415.5l209.369-1.032c9.4-.046,17.723-8.389,20.747-20.785l37.126-152.228c2.3-9.409-2.741-19.2-9.873-19.189l-211.905.223C299.751,222.5,295.661,226.863,294.436,233.156Z" transform="translate(-258.968 -222.27)"/></g><path class="e" d="M438.484,379.624,416.316,200.992c-.908-7.319-6.739-12.779-13.622-12.757l-48.609.159a13.247,13.247,0,0,0-9.6,4.258L321.4,217.188l-135.189.706c-8.262.043-14.608,7.86-13.513,16.643l20.581,165.1c.912,7.308,6.731,12.761,13.605,12.748l235.607-.466c26.241.544,28.746-7.206,28.746-7.206C441.165,411.38,438.486,379.644,438.484,379.624Z" transform="translate(-172.575 -188.235)"/><g class="o" transform="translate(95.171 98.691)"><path class="p" d="M349.026,356.7l-7.946,8.534-61.2-55.055,7.946-8.534Z" transform="translate(-279.88 -299.75)"/><path class="p" d="M338.068,299.509l8.782,7.9-55.375,59.474-8.782-7.9Z" transform="translate(-280.199 -299.509)"/></g></g></g><g transform="translate(433.837 51.558)"><g transform="translate(21.25 16.295)"><path class="e" d="M509.391,100.7a1.655,1.655,0,0,1-1-1.451l-.355-8.234a1.655,1.655,0,0,1,2.034-1.682,5.143,5.143,0,0,0,4-.791,4.632,4.632,0,0,0,2.07-3.032,4.741,4.741,0,0,0-1-3.562,5.282,5.282,0,0,0-3.5-2.1,6.2,6.2,0,0,0-6.3,4.467,1.655,1.655,0,1,1-3.194-.867,9.534,9.534,0,0,1,9.869-6.889,8.538,8.538,0,0,1,5.756,3.4,8.056,8.056,0,0,1,1.622,6.09,7.947,7.947,0,0,1-3.5,5.252,8.667,8.667,0,0,1-4.489,1.465l.275,6.347a1.657,1.657,0,0,1-2.305,1.593Z" transform="translate(-502.103 -76.504)"/><g transform="translate(7.01 26.298)"><path class="e" d="M512.71,107.416a1.354,1.354,0,1,1-1.443-1.258A1.354,1.354,0,0,1,512.71,107.416Z" transform="translate(-510.006 -106.155)"/></g></g><path class="f" d="M478.181,87.012a3.411,3.411,0,0,0,.081-.54c.042-.386.1-.911.174-1.586a18.657,18.657,0,0,1,.428-2.549c.117-.5.177-1.049.359-1.608s.357-1.159.551-1.791a30.5,30.5,0,0,1,4.411-8.45,29.742,29.742,0,0,1,27.494-11.576c.68.065,1.35.247,2.034.365a13.939,13.939,0,0,1,2.041.492,28.172,28.172,0,0,1,7.932,3.6,29.669,29.669,0,0,1,11.723,14.722,28.962,28.962,0,0,1,1.739,10.118,28.444,28.444,0,0,1-1.855,10.414l-.4,1.013-.053.134.054.125c2.225,5.124,4.406,10.148,6.521,15.018l.372-.424-13.282-5.1-.164-.063-.129.124a29.7,29.7,0,0,1-12.544,7.242,29.5,29.5,0,0,1-23.947-3.717,30.388,30.388,0,0,1-7.478-6.963,29.413,29.413,0,0,1-5.674-13.6q-.158-1.3-.279-2.307-.025-1-.044-1.695c-.014-.435-.026-.779-.034-1.039a1.8,1.8,0,0,0-.029-.353,1.977,1.977,0,0,0-.021.352c0,.26-.008.6-.013,1.041q0,.7,0,1.7.1,1.016.234,2.326a32.324,32.324,0,0,0,1.516,6.263,32.651,32.651,0,0,0,4.067,7.539,30.615,30.615,0,0,0,7.532,7.112,29.869,29.869,0,0,0,24.31,3.881,30.184,30.184,0,0,0,12.8-7.345l-.294.061,13.275,5.125.669.258-.3-.682-6.512-15.022v.259l.41-1.035A29.041,29.041,0,0,0,537.747,88.2a29.581,29.581,0,0,0-1.787-10.34,30.2,30.2,0,0,0-11.982-15,28.667,28.667,0,0,0-8.086-3.636,14.411,14.411,0,0,0-2.077-.493c-.7-.119-1.378-.3-2.069-.365A29.217,29.217,0,0,0,493.3,61.98a29.838,29.838,0,0,0-9.38,8.292,30.357,30.357,0,0,0-4.367,8.586q-.279.961-.528,1.815c-.175.565-.228,1.124-.335,1.626a17.567,17.567,0,0,0-.374,2.573c-.049.678-.087,1.209-.115,1.6A3.793,3.793,0,0,0,478.181,87.012Z" transform="translate(-478.144 -58.132)"/></g></g></svg>