<svg xmlns="http://www.w3.org/2000/svg" width="354.444" height="377" viewBox="0 0 354.444 377"><defs><style>.a{fill:#f5f5f5;}.b{fill:#e0e0e0;}.c{fill:#e7f1fd;}.d{fill:#263238;}.e{fill:#2a5798;}.f{fill:#fafafa;}.g{fill:#ebebeb;}.h{fill:#f6b333;}.i{fill:#eb996e;}.j{fill:#ffbe9d;}.k{fill:#3e528b;}.l,.p,.r{fill:#1c1b1b;}.l,.m{opacity:0.2;}.n{fill:#455a64;}.o{fill:#e8505b;}.p{opacity:0.3;}.q,.r{opacity:0.7;}</style></defs><g transform="translate(0 156.046)"><path class="a" d="M0,14.162v43.21A14.181,14.181,0,0,0,14.163,71.534H169.233A14.181,14.181,0,0,0,183.4,57.373V20.789L202.734.546,14.254,0A14.085,14.085,0,0,0,0,14.162Z" transform="translate(0 0)"/><g transform="translate(19.792 21.152)"><path class="b" d="M140.724,4.993,0,4.357.091,0,140.815.726Z"/></g><g transform="translate(19.792 35.404)"><path class="b" d="M140.724,4.993,0,4.357.091,0,140.815.635Z"/></g><g transform="translate(104.894 49.636)"><path class="b" d="M0,0H4.357V55.654H0Z" transform="matrix(0.005, -1, 1, 0.005, 0, 4.357)"/></g></g><g transform="translate(143.72 305.466)"><path class="a" d="M0,14.162v43.21A14.18,14.18,0,0,0,14.163,71.534H169.233A14.18,14.18,0,0,0,183.4,57.373V20.789L202.734.546,14.254,0A14.085,14.085,0,0,0,0,14.162Z" transform="translate(0 0)"/><g transform="translate(20.518 20.063)"><path class="b" d="M140.724,4.993,0,4.357V0L140.724.635Z"/></g><g transform="translate(20.518 34.315)"><path class="b" d="M140.724,4.993,0,4.267V0L140.724.635Z"/></g><g transform="translate(105.486 48.522)"><path class="b" d="M0,0H4.357V55.654H0Z" transform="matrix(0.005, -1, 1, 0.005, 0, 4.357)"/></g></g><path class="a" d="M0,0H91.426A8.137,8.137,0,0,1,99.6,8.17V52.923a8.137,8.137,0,0,1-8.171,8.17H13.8a8.137,8.137,0,0,1-8.171-8.17V5.719Z" transform="translate(82.891 7.262)"/><g transform="translate(1.452 41.395)"><path class="b" d="M134.46,9.35V38.036a9.434,9.434,0,0,1-9.442,9.441H22.244A9.434,9.434,0,0,1,12.8,38.036V13.8L0,.363,125.018,0A9.415,9.415,0,0,1,134.46,9.35Z"/><g transform="translate(27.963 14.071)"><path class="a" d="M0,3.268l93.332-.454V0L0,.454Z"/></g><g transform="translate(27.963 23.511)"><path class="a" d="M0,3.268l93.332-.454V0L0,.454Z"/></g><g transform="translate(27.957 32.952)"><path class="a" d="M0,0H36.952V2.9H0Z" transform="matrix(1, -0.005, 0.005, 1, 0, 0.182)"/></g></g><g transform="translate(196.288 174.384)"><path class="b" d="M134.46,9.35V38.036a9.434,9.434,0,0,1-9.442,9.441H22.244A9.434,9.434,0,0,1,12.8,38.036V13.8L0,.363,125.018,0A9.357,9.357,0,0,1,134.46,9.35Z"/><g transform="translate(27.963 14.071)"><path class="a" d="M0,3.268,93.332,2.9V0L0,.454Z"/></g><g transform="translate(27.963 23.511)"><path class="a" d="M0,3.268,93.332,2.9V0L0,.454Z"/></g><g transform="translate(27.959 32.953)"><path class="a" d="M0,0H36.952V2.9H0Z" transform="matrix(1, -0.005, 0.005, 1, 0, 0.182)"/></g></g><g transform="translate(228.889 216.333)"><path class="c" d="M13.794,109.831C-1.55,94.853-1.822,71.7,2.172,51.552c.636-3.359.908-6.99,3-9.713s6.174-4.085,8.988-2.179c2.27,1.634,2.905,4.72,3.9,7.353a20.4,20.4,0,0,0,6.718,8.9c2,1.452,4.54,2.542,6.809,1.725,3.178-1.089,4.176-5.084,4.721-8.442l3-18.791c.545-3.359,1.089-6.808,2.633-9.8s4.358-5.628,7.717-5.991,6.991,2.088,7.172,5.537c.091,1.452-.454,2.814-.545,4.176-.091,1.452.272,3.086,1.543,3.631,1.271.635,2.815-.091,3.9-.908,3.995-2.814,7.082-6.808,9.987-10.8S77.528,8.16,81.251,4.983,89.876-.464,94.687.081s9.533,4.357,9.9,9.259c.454,4.9-3.087,9.259-6.718,12.618A76.764,76.764,0,0,1,79.8,34.3a6.179,6.179,0,0,0-3.087,2.36c-1.089,2.088.636,4.72,2.724,5.81,2.361,1.271,5.084,1.452,7.717,2.179,2.542.726,5.175,2.36,5.811,4.993.817,3.631-2.633,6.808-5.9,8.715a66.51,66.51,0,0,1-20.791,7.9c-2.633.545-5.357.908-7.626,2.269-2.27,1.452-3.995,4.267-3.178,6.808s3.813,3.813,6.446,3.813c2.633-.091,5.175-1.089,7.808-1.634,4.9-1,10.8.272,13.074,4.811,1.543,2.9,1.089,6.627-.363,9.622a23.061,23.061,0,0,1-6.446,7.444,65.957,65.957,0,0,1-30.778,14.888C33.858,116.095,23.78,115.459,13.794,109.831Z" transform="translate(0 0)"/><g transform="translate(11.071 4.166)"><path class="d" d="M0,120.644A155.431,155.431,0,0,1,9.987,93.864a295.37,295.37,0,0,1,17.25-30.411c1.634-2.633,3.268-5.174,4.9-7.716s3.268-5.084,4.993-7.444A143.1,143.1,0,0,1,47.846,35.313c3.632-3.994,7.172-7.625,10.532-10.984S64.915,17.883,68,15.16A119.4,119.4,0,0,1,83.254,3.54C85.161,2.269,86.7,1.452,87.7.817a7.979,7.979,0,0,1,1.18-.635C89.156,0,89.247,0,89.337,0a2.688,2.688,0,0,1-.363.272A9.574,9.574,0,0,1,87.794,1c-1,.635-2.451,1.543-4.358,2.814a143.739,143.739,0,0,0-15.071,11.71c-3,2.723-6.174,5.81-9.533,9.169s-6.9,7.081-10.441,10.984A139.912,139.912,0,0,0,37.769,48.657c-1.725,2.36-3.268,4.811-4.9,7.444-1.634,2.542-3.268,5.174-4.9,7.716a304.35,304.35,0,0,0-17.25,30.32A148.542,148.542,0,0,0,.636,120.825"/></g><g transform="translate(48.294 14.605)"><path class="d" d="M.091,37.764A9.764,9.764,0,0,1,0,36.311V32.226c.091-3.45.363-8.17.636-13.344S1.18,8.987,1.18,5.537V1.452c0-1,0-1.452.091-1.452,0,0,.091.545.182,1.452.091,1,.182,2.36.182,4.085.091,3.45,0,8.17-.363,13.344C1,24.056.636,28.686.454,32.226c-.091,1.634-.182,3-.182,4.085C.182,37.219.182,37.764.091,37.764Z"/></g><g transform="translate(48.566 50.119)"><path class="d" d="M44.306,1.251s-.636,0-1.725-.091S39.857.979,37.859.888C33.865.707,28.236.525,22.153.707c-6.174.182-11.712.545-15.707.908-2,.182-3.632.363-4.721.454S0,2.25,0,2.25a17.286,17.286,0,0,1,1.725-.363c1.089-.182,2.724-.454,4.721-.726A137.365,137.365,0,0,1,22.244.071a138.614,138.614,0,0,1,15.8.363c2,.182,3.632.363,4.721.545A7.531,7.531,0,0,1,44.306,1.251Z" transform="translate(0 0)"/></g><g transform="translate(9.073 38.571)"><path class="d" d="M12.62,58.733a2.926,2.926,0,0,1-.182-.545c-.091-.454-.272-1-.454-1.725-.454-1.452-1-3.631-1.634-6.264C9.079,44.935,7.536,37.582,5.992,29.412S3,13.889,1.816,8.624C1.271,6.082.817,3.9.454,2.36.272,1.634.182,1.089.091.635A2.9,2.9,0,0,1,0,0,2.928,2.928,0,0,1,.182.545c.091.454.272,1,.454,1.725.454,1.452,1,3.631,1.634,6.264C3.541,13.8,5.084,21.151,6.628,29.321s3,15.523,4.176,20.788c.545,2.542,1,4.72,1.362,6.264.182.726.272,1.271.363,1.725C12.62,58.461,12.711,58.733,12.62,58.733Z"/></g><g transform="translate(21.692 88.158)"><path class="d" d="M60.466.068a2.838,2.838,0,0,1-.636.182c-.454.091-1.089.182-1.725.272-1.634.272-3.813.545-6.446,1-5.447.817-12.983,2.088-21.336,3.45S14.436,7.512,8.988,8.238c-2.724.363-4.993.635-6.537.817-.726.091-1.271.091-1.816.182H0a2.838,2.838,0,0,1,.636-.182c.454-.091,1.089-.182,1.725-.272,1.634-.272,3.813-.545,6.446-1C14.254,6.967,21.79,5.7,30.142,4.335S46.031,1.793,51.478,1.067C54.2.7,56.471.431,58.015.25c.726-.091,1.271-.091,1.816-.182C60.194-.023,60.466-.023,60.466.068Z" transform="translate(0 0)"/></g></g><g transform="translate(56.779 90.894)"><path class="c" d="M3.611,19.475A9.933,9.933,0,0,1,.161,9.943,12.992,12.992,0,0,1,5.971,1.319,5.748,5.748,0,0,1,10.6.139,4.43,4.43,0,0,1,13.416,3.5a8.628,8.628,0,0,1-.545,4.539C11.146,13.03,8.513,17.478,3.611,19.475Z" transform="translate(29.492 11.636)"/><path class="c" d="M25.179,6.042A23.42,23.42,0,0,0,4.3.6C2.481,1.049.393,2.047.03,3.863c-.272,1.906,1.362,3.45,3,4.448A20.086,20.086,0,0,0,25.36,6.5" transform="translate(3.386 33.602)"/><path class="c" d="M1.871.337a12.1,12.1,0,0,1,9.17,1.543,21.3,21.3,0,0,1,6.537,6.808c3.268,5.174,4.449,12.164,4.63,18.337C15.4,26.754,9.588,21.4,6.774,18.493,2.325,13.863-2.85,2.879,1.871.337Z" transform="translate(0 0)"/><g transform="translate(32.892 19.673)"><path class="d" d="M5.932,29.23c-.363-.726-1.089-1.271-1.725-2.542A42.47,42.47,0,0,1,.393,15.7,22.063,22.063,0,0,1,1.211,4.176,19.983,19.983,0,0,1,2.845,1a8.646,8.646,0,0,1,.817-1,28.023,28.023,0,0,0-2,4.267,22.376,22.376,0,0,0-.636,11.256A50.745,50.745,0,0,0,4.661,26.416" transform="translate(0)"/></g><g transform="translate(6.583 8.326)"><path class="d" d="M32.331,40.668c-.908-1.18-2.088-2.723-3.541-4.539-3-3.9-7.172-9.259-11.8-15.069S8.09,9.986,4.913,6.173C3.46,4.357,2.189,2.814,1.281,1.725.464.635-.081.091.01,0c0,0,.545.545,1.453,1.543S3.732,3.994,5.276,5.9c3.178,3.722,7.536,8.9,12.257,14.706,4.63,5.81,8.716,11.256,11.621,15.16,1.453,2,2.633,3.631,3.359,4.72" transform="translate(0)"/></g><g transform="translate(11.949 37.32)"><path class="d" d="M0,.871C0,.781.454.69,1.18.508,1.543.417,2.088.327,2.633.236A11.334,11.334,0,0,1,4.539.054,23.791,23.791,0,0,1,9.533.236a26.522,26.522,0,0,1,5.992,1.543,28.043,28.043,0,0,1,5.447,2.9,23.692,23.692,0,0,1,3.813,3.268A9.093,9.093,0,0,1,26.057,9.4c.363.454.636.817.908,1.18.454.635.363,1,.363,1a33.807,33.807,0,0,0-2.814-3.268A29.368,29.368,0,0,0,20.7,5.229a26.889,26.889,0,0,0-5.357-2.723A30.762,30.762,0,0,0,9.533.962,33.709,33.709,0,0,0,4.63.6C1.725.6,0,1.053,0,.871Z"/></g></g><g transform="translate(93.423 51.653)"><path class="e" d="M127.561,309.1,22.7,308.644A22.821,22.821,0,0,1,0,285.678L1.09,22.785A22.957,22.957,0,0,1,24.06,0L128.922.454a22.821,22.821,0,0,1,22.7,22.967L150.53,286.313A22.957,22.957,0,0,1,127.561,309.1Z" transform="translate(0)"/><g transform="translate(6.9 9.169)"><path class="f" d="M121.84.454,101.5.363A5.137,5.137,0,0,0,96.51,5.537V9.259a5.137,5.137,0,0,1-4.993,5.174l-39.675-.182a5.061,5.061,0,0,1-4.9-5.174V5.356a5.061,5.061,0,0,0-4.9-5.174H34.863L17.159,0A16,16,0,0,0,1.089,15.886L0,272.424a16,16,0,0,0,15.888,16.068l104.681.454a16,16,0,0,0,16.07-15.886l1.089-256.538A15.944,15.944,0,0,0,121.84.454Z"/></g><g transform="translate(65.184 271.758)"><path class="e" d="M4.164,2.179A2.132,2.132,0,0,1,2.082,4.358,2.132,2.132,0,0,1,0,2.179,2.132,2.132,0,0,1,2.082,0,2.132,2.132,0,0,1,4.164,2.179Z" transform="matrix(0.004, -1, 1, 0.005, 0, 4.164)"/></g><g transform="translate(71.845 271.761)"><path class="e" d="M4.164,2.179A2.132,2.132,0,0,1,2.082,4.358,2.132,2.132,0,0,1,0,2.179,2.132,2.132,0,0,1,2.082,0,2.132,2.132,0,0,1,4.164,2.179Z" transform="matrix(0.004, -1, 1, 0.005, 0, 4.164)"/></g><g transform="translate(78.595 271.868)"><path class="e" d="M4.164,2.179A2.132,2.132,0,0,1,2.082,4.358,2.132,2.132,0,0,1,0,2.179,2.132,2.132,0,0,1,2.082,0,2.132,2.132,0,0,1,4.164,2.179Z" transform="matrix(0.004, -1, 1, 0.005, 0, 4.164)"/></g></g><path class="g" d="M0,0C1.725.272,104.59,20.425,104.59,20.425V0Z" transform="translate(132.735 184.914)"/><path class="g" d="M0,15.351S111.944-.444,110.945.01,0,.01,0,.01V15.351Z" transform="translate(100.323 299.194)"/><g transform="translate(230.063 15.069)"><path class="d" d="M.545,12.618c0,6.969-.122,12.618-.272,12.618S0,19.587,0,12.618.122,0,.272,0,.545,5.649.545,12.618Z"/></g><g transform="translate(251.92 43.836)"><path class="d" d="M25.239.272c0,.15-5.65.272-12.62.272S0,.423,0,.272,5.65,0,12.62,0,25.239.122,25.239.272Z" transform="matrix(0.915, -0.404, 0.404, 0.915, 0, 10.19)"/></g><g transform="translate(244.861)"><path class="d" d="M29.144,0a4.714,4.714,0,0,1-.272.454,13.322,13.322,0,0,1-.817,1.362c-.636,1.18-1.725,2.814-3,4.9-2.542,4.085-6.174,9.622-10.35,15.7S6.9,33.951,4.267,38.036c-1.271,2-2.361,3.631-3.087,4.811-.363.545-.636,1-.817,1.271s-.272.454-.363.454a4.714,4.714,0,0,1,.272-.454,13.322,13.322,0,0,1,.817-1.362c.636-1.18,1.725-2.814,3-4.9,2.542-4.085,6.174-9.622,10.35-15.7S22.244,10.621,24.876,6.536c1.271-2,2.361-3.631,3.087-4.811.363-.545.636-1,.817-1.271S29.053,0,29.144,0Z"/></g><g transform="translate(124.11 106.845)"><path class="h" d="M212.63,0H7.99A7.943,7.943,0,0,0,0,7.988V71.442a7.943,7.943,0,0,0,7.99,7.988H23.242c1.271,6.627,2.633,14.978,2.633,14.978l13.8-14.978H212.63a7.943,7.943,0,0,0,7.99-7.988V7.988A8,8,0,0,0,212.63,0Z"/><g transform="translate(19.338 24.419)"><g transform="translate(0.09 9.804)"><path class="a" d="M108.766.272c0,.091-24.332.272-54.383.272S0,.454,0,.272C0,.182,24.332,0,54.383,0,84.344,0,108.766.091,108.766.272Z"/></g><g transform="translate(0.089)"><path class="a" d="M108.766.272c0,.091-24.332.272-54.383.272S0,.454,0,.272C0,.182,24.332,0,54.383,0,84.344.091,108.766.182,108.766.272Z"/></g><g transform="translate(0.09 19.426)"><path class="a" d="M108.766.272c0,.091-24.332.272-54.383.272S0,.454,0,.272C0,.182,24.332,0,54.383,0,84.344,0,108.766.091,108.766.272Z"/></g><g transform="translate(0 29.412)"><path class="a" d="M71.361.272c0,.15-15.975.272-35.68.272S0,.423,0,.272,15.975,0,35.68,0,71.361.122,71.361.272Z"/></g></g></g><g transform="translate(32.23 221.044)"><path class="e" d="M211.995,0H5.629A5.657,5.657,0,0,0,0,5.628V72.8a5.657,5.657,0,0,0,5.629,5.628H155.523l13.618,14.8s1.453-8.352,2.633-14.8h40.22a5.657,5.657,0,0,0,5.629-5.628V5.628A5.6,5.6,0,0,0,211.995,0Z"/><g transform="translate(95.057 24.601)"><g transform="translate(0.09 9.713)"><path class="a" d="M108.766.272c0,.091-24.332.272-54.383.272S0,.454,0,.272C0,.182,24.332,0,54.383,0S108.766.182,108.766.272Z"/></g><g transform="translate(0.089)"><path class="a" d="M108.766.272c0,.091-24.332.272-54.383.272S0,.454,0,.272,24.332,0,54.383,0,108.766.091,108.766.272Z"/></g><g transform="translate(0.09 19.336)"><path class="a" d="M108.766.272c0,.091-24.332.272-54.383.272S0,.454,0,.272,24.332,0,54.383,0C84.435.091,108.766.182,108.766.272Z" transform="translate(0 0)"/></g><g transform="translate(0 29.321)"><path class="a" d="M71.361.272c0,.15-15.975.272-35.68.272S0,.423,0,.272,15.975,0,35.68,0,71.361.122,71.361.272Z"/></g></g></g><g transform="translate(255.793 51.788)"><g transform="translate(0.058)"><path class="d" d="M4.524,28.187c.091-1.634-1.362-3.994-2.724-5.265a5.491,5.491,0,0,1-1.543-5.81c.545-2.088,1.907-1.906,2.361-3.086a10.2,10.2,0,0,0,.272-2.9,5.919,5.919,0,0,1,7.172-5.084A8.615,8.615,0,0,1,17.235.046,8.563,8.563,0,0,1,25.5,4.4a6.415,6.415,0,0,1,9.351,5.174,4.641,4.641,0,0,1,6.083.908,5.773,5.773,0,0,1,.454,6.354,7.643,7.643,0,0,1-5.447,3.631,10.854,10.854,0,0,1-6.537-1.18,19.526,19.526,0,0,1-5.357-4.085" transform="translate(24.888)"/><path class="b" d="M78.624,38.4c0,21.207-17.6,38.4-39.312,38.4S0,59.606,0,38.4,17.6,0,39.312,0,78.624,17.192,78.624,38.4Z" transform="translate(4.988 55.693)"/><g transform="translate(0 9.305)"><g transform="translate(6.078)"><path class="i" d="M19.974,11.166,15.616,0,0,9.8,13.891,31.228C13.982,31.228,19.611,23.965,19.974,11.166Z" transform="translate(57.652 73.621)"/><g transform="translate(19.132)"><g transform="translate(0 1.492)"><g transform="translate(5.016)"><path class="j" d="M10.442,59.148a10.48,10.48,0,0,0,10.532-9.895c.272-4.63.454-9.078.454-9.078s8.534-.635,9.351-8.987.908-27.778.908-27.778A29.8,29.8,0,0,0,1.817,4.681L1,5.226,0,48.618A10.4,10.4,0,0,0,10.442,59.148Z" transform="translate(0 0)"/><g transform="translate(13.414 15.393)"><g transform="translate(0.431 0.908)"><path class="d" d="M1.59.09a1.263,1.263,0,0,1,.817,1.543,1.263,1.263,0,0,1-1.543.817A1.263,1.263,0,0,1,.047.907,1.107,1.107,0,0,1,1.59.09Z" transform="translate(0 0)"/></g><path class="d" d="M4.29,1.362C4.109,1.543,3.382.817,2.2.726S.114,1.18.023,1C-.068.908.114.635.477.454A3.008,3.008,0,0,1,2.2,0,3.065,3.065,0,0,1,3.836.635C4.29,1.089,4.381,1.362,4.29,1.362Z" transform="translate(0)"/></g><g transform="translate(26.399 15.484)"><g transform="translate(0.157 0.817)"><path class="d" d="M1.59.09a1.263,1.263,0,0,1,.817,1.543,1.263,1.263,0,0,1-1.543.817A1.263,1.263,0,0,1,.047.907,1.161,1.161,0,0,1,1.59.09Z" transform="translate(0 0)"/></g><path class="d" d="M4.29,1.362C4.109,1.543,3.382.817,2.2.726S.114,1.18.023,1C-.068.908.114.635.477.454A3.008,3.008,0,0,1,2.2,0,3.065,3.065,0,0,1,3.836.635C4.29,1,4.381,1.271,4.29,1.362Z" transform="translate(0)"/></g><g transform="translate(21.882 15.663)"><path class="d" d="M0,10.169A5.922,5.922,0,0,1,1.907,9.9c.272,0,.545-.091.545-.182a1.237,1.237,0,0,0-.182-.908C2,7.991,1.816,7.264,1.543,6.357.545,2.907-.091.093.091,0S1.18,2.725,2.179,6.175a24.333,24.333,0,0,1,.636,2.451A1.994,1.994,0,0,1,2.905,9.9c-.091.272-.363.363-.545.454H1.816A4.551,4.551,0,0,1,0,10.169Z" transform="translate(0 0)"/></g><g transform="translate(10.623 36.09)"><path class="i" d="M10.8,3.994A20.05,20.05,0,0,1,0,0S2.088,6.264,10.622,6.173Z"/></g></g><g transform="translate(0 16.292)"><path class="j" d="M5.744,1.28A1.285,1.285,0,0,0,4.564.009C3.021-.082.388.463.025,4.82c-.454,6.173,5.538,4.72,5.629,4.539C5.654,9.268,5.744,3.731,5.744,1.28Z" transform="translate(0 0)"/><g transform="translate(1.833 2.097)"><path class="i" d="M2.46,4.811a1.123,1.123,0,0,1-.272.182,1.228,1.228,0,0,1-.817,0A2.756,2.756,0,0,1,.281,2.542,3.06,3.06,0,0,1,.735,1,1.044,1.044,0,0,1,1.643.272a.546.546,0,0,1,.636.363c.091.182,0,.272.091.272,0,0,.182-.091.091-.363A.688.688,0,0,0,2.278.182,1.291,1.291,0,0,0,1.734,0,1.454,1.454,0,0,0,.553.908,4.818,4.818,0,0,0,.009,2.633,2.891,2.891,0,0,0,1.37,5.447a1.154,1.154,0,0,0,1-.091C2.46,4.993,2.551,4.811,2.46,4.811Z" transform="translate(0)"/></g></g><g transform="translate(17.21 11.847)"><path class="d" d="M.065,1.64c.272.363,1.362.182,2.815.182,1.362-.091,2.451-.091,2.724-.454C5.876.914,4.514-.085,2.789.006.883.1-.3,1.277.065,1.64Z" transform="translate(0 0)"/></g><g transform="translate(30.782 11.846)"><path class="d" d="M.02,1.278C.2,1.823,1.2,2,2.38,2s2.179-.182,2.27-.726C4.832.733,3.742.007,2.29.007.928-.084-.162.733.02,1.278Z" transform="translate(0 0)"/></g></g><path class="d" d="M32.909,7.625S27.825,10.076,21.2,6.808C16.839,4.63,11.755,3.54,10.666,4.448S9.3,9.8,5.037,11.075c0,0,.272,8.533-3.087,8.261C-1.5,19.063.679,5.81.679,5.81L9.031,1.725,18.11,0l8.534,1.18L33.272,3Z" transform="translate(4.974)"/></g><g transform="translate(0 42.575)"><g transform="translate(0 6.232)"><path class="k" d="M0,8.2C8.9-.967,24.6.032,24.6.032L37.587,9.291,44.941.758a46.94,46.94,0,0,1,14.98,4.63l.545.182V5.66c5.72,3.086,13.8,10.53,21.426,17.7l-9.17,8.533L62.554,40.973v.182c-.091.545,1.453,12.981,3,22.422A38.528,38.528,0,0,1,31.323,73.925C27.146,73.2,25.149,72.2,21.245,71.2a13.958,13.958,0,0,1-10.35-12.346c-.726-7.9-1.18-17.7-1.18-17.7" transform="translate(0 0)"/><g transform="translate(53.022 2.392)"><path class="d" d="M0,0A9.969,9.969,0,0,1,.545,1.452c.363.908.817,2.36,1.362,4.085C3,8.987,4.358,13.8,5.629,19.063,6.9,24.419,7.9,29.321,8.534,32.862c.272,1.816.545,3.177.636,4.176a9.643,9.643,0,0,1,.182,1.543,12.423,12.423,0,0,1-.363-1.543c-.182-1.089-.454-2.451-.817-4.176-.726-3.54-1.725-8.352-3-13.707S2.542,9.078,1.543,5.628C1.089,3.994.636,2.542.363,1.543A12.427,12.427,0,0,0,0,0Z"/></g><g transform="translate(61.288 20.525)"><path class="d" d="M22.7.272c0,.15-5.081.272-11.348.272S0,.423,0,.272,5.081,0,11.348,0,22.7.122,22.7.272Z" transform="matrix(0.775, -0.632, 0.632, 0.775, 0, 14.334)"/></g><path class="l" d="M7.99,0,0,26.235l3,1.543L5.9,20.334S8.9,4.72,7.99,0Z" transform="translate(3.722 20.82)"/><g class="m" transform="translate(40.855 0.577)"><path class="l" d="M11.349,1.816C15.616,4.085,4.9,9.532,0,9.35L3.541,0C3.541.091,9.9,1.089,11.349,1.816Z"/></g></g><path class="k" d="M0,6.9V0S13.528,3.45,14.072,11.62c0,0,1.725-8.987,8.716-9.441l1,12.618-8.171,7.081H7.354L.817,16.249,0,7.535" transform="translate(23.242)"/><g transform="translate(37.188 12.89)"><path class="d" d="M3.213,37.582V32.045c0-3.45-.091-8.17-.545-13.344S1.579,8.805.944,5.447C.671,3.813.4,2.451.217,1.452.036.545-.055,0,.036,0A13.339,13.339,0,0,1,.4,1.452a33.135,33.135,0,0,1,.817,3.994c.636,3.359,1.362,8.079,1.816,13.344a120.35,120.35,0,0,1,.363,13.435c-.091,1.725-.091,3.086-.182,4.085A4.866,4.866,0,0,1,3.213,37.582Z" transform="translate(0)"/></g><g transform="translate(22.861 5.537)"><path class="d" d="M13.818,3.631A1.42,1.42,0,0,0,13,3.722a2.767,2.767,0,0,0-1.362,1.725A36.13,36.13,0,0,0,9.1,12.981l-.091.272-.272-.182c-.817-.454-1.634-1-2.451-1.543A45.49,45.49,0,0,1,1.925,8.17a5.149,5.149,0,0,1-1.453-2A6.2,6.2,0,0,1,.018,4.085a12.4,12.4,0,0,1,.272-3L.563,0A9.887,9.887,0,0,1,.472,1.089a13.809,13.809,0,0,0-.182,3,8.919,8.919,0,0,0,.454,2A5.347,5.347,0,0,0,2.2,7.9c1.271,1.089,2.814,2.179,4.358,3.268.817.545,1.634,1.089,2.451,1.543l-.363.182a35.209,35.209,0,0,1,2.724-7.535,5.147,5.147,0,0,1,.726-1.18A1.383,1.383,0,0,1,13,3.631C13.546,3.45,13.909,3.631,13.818,3.631Z" transform="translate(0)"/></g><g transform="translate(38.314 2.179)"><path class="d" d="M7.717,0a5,5,0,0,1,.091,1.089c.091.817.091,1.816.182,3q.136,1.906.545,4.357a8.2,8.2,0,0,1,.182,2.633A4.1,4.1,0,0,1,6.9,13.344a28.61,28.61,0,0,0-3,2.269l-.363.363v-.545a15.931,15.931,0,0,0-2-6.718A13.013,13.013,0,0,0,0,6.354L.545,6.9A12.114,12.114,0,0,1,1.816,8.624a15.433,15.433,0,0,1,2.179,6.9l-.363-.091a26.427,26.427,0,0,1,3-2.36,4.839,4.839,0,0,0,1.634-2A7.463,7.463,0,0,0,8.08,8.624c-.272-1.634-.363-3.177-.454-4.357C7.536,3,7.536,2,7.536,1.271A10.229,10.229,0,0,1,7.717,0Z"/></g></g></g><g transform="translate(0 46.478)"><g transform="translate(4.874)"><path class="d" d="M20.519,0C19.974.635,0,27.324,0,27.324l2.814,1.634L23.333,2.633Z" transform="translate(70.386)"/><path class="j" d="M10.737,8.579S31.71,38.808,32.981,39.353C35.432,40.533,64.213,15.66,66.936,13.3c.363-.545,1.18-1.543,2.724-3.722,0,0,2.27-10.349,4.721-9.532s-1.362,5.265.272,9.169c1.543,3.9,8.807-5.447,9.079-6.264L85.548.5s1.907,5.537,1.816,7.807c-.454,7.444-7.445,16.158-7.445,16.158S48.506,63.409,26.9,64.589c-6.174.363-17.25-17.248-24.6-30.411A18.048,18.048,0,0,1,7.469,10.758Z" transform="translate(0 12.481)"/><g transform="translate(83.725 16.794)"><path class="i" d="M.008,5.447c-.091,0,.636-1.271,1.362-2.723A21.139,21.139,0,0,1,2.731,0,10.69,10.69,0,0,1,1.642,2.814,9.9,9.9,0,0,1,.008,5.447Z" transform="translate(0)"/></g></g><g transform="translate(0 6.354)"><path class="k" d="M11.979,0S-10.537,7.988,6.169,45.934l26.057-15.7-3.722-8.9Z" transform="translate(0)"/><g transform="translate(6.26 0.6)"><path class="d" d="M3.995.036A6.926,6.926,0,0,1,6.718.308a11.284,11.284,0,0,1,3,1.271A14.442,14.442,0,0,1,12.983,4.3a36.537,36.537,0,0,1,6.083,9.169c1.907,3.722,3.722,7.9,5.538,12.255q.817,2.043,1.634,3.813l.091.182-.182.091c-7.536,4.085-14.072,7.988-18.7,10.8C5.084,42.066,3.268,43.246,2,44.063c-.636.363-1.089.726-1.453.908L0,45.243a3.277,3.277,0,0,1,.454-.363c.363-.272.817-.545,1.453-1,1.271-.908,3.087-2.088,5.357-3.54,4.63-2.9,11.167-6.808,18.7-10.984l-.091.272-1.634-3.813c-1.816-4.448-3.632-8.624-5.447-12.255A40.346,40.346,0,0,0,12.8,4.484,16.441,16.441,0,0,0,9.624,1.761,8.87,8.87,0,0,0,6.718.49,26.288,26.288,0,0,0,3.995.036Z" transform="translate(0 0)"/></g></g></g></g><g transform="translate(40.396 6.582)"><path class="n" d="M18.34,0a.53.53,0,0,1,.091.363c0,.272.091.635.091,1.18a6.559,6.559,0,0,1-1.725,3.9A6.079,6.079,0,0,1,10.713,6.99,5.449,5.449,0,0,1,7.626,4.72a3.244,3.244,0,0,1-.454-2.088A2.756,2.756,0,0,1,8.262.726,2.337,2.337,0,0,1,10.441.545,2.542,2.542,0,0,1,11.893,2a3.811,3.811,0,0,1-.636,3.813A4.672,4.672,0,0,1,5.266,7.081,8.619,8.619,0,0,0,3,6.264a2.622,2.622,0,0,0-1.725.182C.363,6.9,0,7.353,0,7.262L.272,6.99l.363-.363c.182-.091.363-.272.545-.363A2.867,2.867,0,0,1,3,5.991a9.154,9.154,0,0,1,2.361.817,7.116,7.116,0,0,0,1.271.454,3.908,3.908,0,0,0,1.453,0A4.547,4.547,0,0,0,10.8,5.628a3.657,3.657,0,0,0,.545-3.359,2.2,2.2,0,0,0-3-1.18,2.118,2.118,0,0,0-.908,1.543,2.838,2.838,0,0,0,.363,1.725,4.954,4.954,0,0,0,2.814,2.088,5.835,5.835,0,0,0,5.72-1.362,6.7,6.7,0,0,0,1.816-3.722A2.022,2.022,0,0,0,18.34,0Z"/></g><g transform="translate(49.352 38.53)"><path class="d" d="M4.483,2.275c0,.091-.272.182-.817.182A4.39,4.39,0,0,1,1.759,2,3.411,3.411,0,0,1,.306.732C.034.278-.057.005.034.005a8.264,8.264,0,0,0,2,1.543A7.364,7.364,0,0,0,4.483,2.275Z"/></g><g transform="translate(27.051 35.177)"><path class="d" d="M3,1.634a1.022,1.022,0,0,1,0,1,1.5,1.5,0,0,1-.908.726A1.775,1.775,0,0,1,.636,3,1.931,1.931,0,0,1,0,1.634,1.5,1.5,0,0,1,.454.545,1.308,1.308,0,0,1,1.362,0C1.362.091,1,.272.726.726A1.4,1.4,0,0,0,.908,2.542a1.081,1.081,0,0,0,1,.272,1.433,1.433,0,0,0,.726-.454C3,2,2.905,1.634,3,1.634Z"/></g><g transform="translate(53.924 9.668)"><path class="n" d="M6.355,0a3.7,3.7,0,0,1,.454,1.634,5.548,5.548,0,0,1-1.362,3.9A5.7,5.7,0,0,1,1.725,7.444,3.909,3.909,0,0,1,0,7.262a12.772,12.772,0,0,1,1.634-.091A5.839,5.839,0,0,0,4.993,5.265,5.862,5.862,0,0,0,6.355,1.634C6.446.635,6.265,0,6.355,0Z" transform="translate(0 0)"/></g></g><g transform="translate(2.499 85.369)"><path class="b" d="M30.141.272c0,.15-6.747.272-15.071.272S0,.423,0,.272,6.747,0,15.071,0,30.141.122,30.141.272Z" transform="matrix(0.896, -0.443, 0.443, 0.896, 0, 13.357)"/></g><g transform="translate(0 75.076)"><path class="b" d="M27.236.272c0,.15-6.1.272-13.618.272S0,.423,0,.272,6.1,0,13.618,0,27.236.122,27.236.272Z" transform="matrix(0.881, -0.473, 0.473, 0.881, 0, 12.879)"/></g><g transform="translate(0.597 66.949)"><path class="b" d="M18.34,0a20.453,20.453,0,0,1-2.633,1.543c-1.816,1-3.995,2.269-6.537,3.631C6.718,6.627,4.449,7.9,2.724,8.9A22.242,22.242,0,0,1,0,10.349,15.052,15.052,0,0,1,2.542,8.624c1.634-1,3.9-2.36,6.446-3.813s4.9-2.633,6.628-3.54A19.8,19.8,0,0,1,18.34,0Z"/></g><g transform="translate(29.456 57.599)"><path class="b" d="M9.365,7.444c0,.091-.726,0-1.725-.454A16.18,16.18,0,0,1,4.008,4.63a42.7,42.7,0,0,1-3-3.177C.286.545-.077,0,.014,0A6.882,6.882,0,0,1,1.285,1.271c.726.817,1.816,2,3,3.086A20.984,20.984,0,0,0,7.822,6.808,8.146,8.146,0,0,1,9.365,7.444Z" transform="translate(0)"/></g><g transform="translate(47.169 60.05)"><path class="b" d="M4.907,0A5.331,5.331,0,0,1,3,2.723C1.547,3.9,0,4.267,0,4.085-.087,3.994,1.366,3.45,2.728,2.36A15.03,15.03,0,0,0,4.907,0Z" transform="translate(0)"/></g><g transform="translate(25.202 73.758)"><path class="b" d="M50.479,0a1.318,1.318,0,0,1-.545.091c-.363.091-.908.091-1.453.182C47.211.454,45.4.545,43.125.726c-4.54.363-10.895.726-17.795,1C18.34,2,12.075,2.088,7.445,2,5.175,2,3.268,1.906,2,1.906c-.636,0-1.089-.091-1.453-.091S0,1.816,0,1.725H7.445c4.54-.091,10.895-.182,17.795-.454C32.23,1,38.495.726,43.034.454,45.3.272,47.12.182,48.391.091,49.027.091,49.481,0,49.844,0Z"/></g><g transform="translate(30.286 84.469)"><path class="b" d="M38.223,0s-.545.091-1.453.272c-1,.091-2.361.272-4.086.454-3.45.363-8.262.635-13.528.908-5.266.182-10.078.272-13.528.272-1.725,0-3.178-.091-4.086-.091A10.427,10.427,0,0,1,0,1.725a10.427,10.427,0,0,1,1.543-.091c1.089,0,2.451,0,4.086-.091,3.45-.091,8.262-.182,13.528-.363S29.234.726,32.684.454C34.319.363,35.771.272,36.77.182A8.228,8.228,0,0,1,38.223,0Z" transform="translate(0 0)"/></g><g transform="translate(31.647 97.778)"><path class="b" d="M20.609.036a13.481,13.481,0,0,1-3,.454c-1.907.182-4.449.363-7.263.545S4.9,1.216,3,1.216s-3-.091-3-.091A21.766,21.766,0,0,1,3,.943c2-.091,4.54-.182,7.354-.363S15.616.308,17.613.217A14.712,14.712,0,0,1,20.609.036Z"/></g><g transform="translate(19.029 66.057)"><path class="b" d="M12.438.257c0,.091-2.814.182-6.174.272C2.814.711.091.892,0,.711A30.19,30.19,0,0,1,6.174.075C9.624-.106,12.438.075,12.438.257Z" transform="translate(0 0)"/></g><g transform="translate(53.599 65.427)"><path class="b" d="M.545,8.08a60.177,60.177,0,0,1-.272,8.08A60.174,60.174,0,0,1,0,8.08,60.174,60.174,0,0,1,.272,0,60.177,60.177,0,0,1,.545,8.08Z" transform="matrix(0.004, -1, 1, 0.004, 0, 0.545)"/></g><g transform="translate(47.808 121.043)"><path class="b" d="M23.333.01a8.393,8.393,0,0,1-.817.454c-.545.272-1.362.635-2.361,1.089a62.4,62.4,0,0,1-8.171,2.633,50.19,50.19,0,0,1-8.443,1.18c-1.089.091-2,.091-2.633.091S0,5.457,0,5.366,1.362,5.275,3.541,5a62.845,62.845,0,0,0,8.353-1.362A70.894,70.894,0,0,0,20.065,1.19C22.062.464,23.333-.081,23.333.01Z"/></g></g><g transform="translate(26.239 165.216)"><path class="b" d="M78.624,37.491c0,20.706-17.6,37.491-39.312,37.491S0,58.2,0,37.491,17.6,0,39.312,0,78.624,16.785,78.624,37.491Z" transform="translate(16.16 56.191)"/><g transform="translate(29.509)"><path class="d" d="M17.884,0C11.619.363,9.168,6.808,8.442,8.261a13.707,13.707,0,0,0-1,4.72,12.071,12.071,0,0,1-1.18,4.72C4.9,19.88,2,21.06,1.179,23.511.271,26.326,2.54,29.23,2,32.135,1.633,33.679.543,34.949.18,36.493A6.269,6.269,0,0,0,1,41.213c2.088,3.54,6.265,5.265,10.35,5.447s8.08-1.089,11.893-2.269" transform="translate(0 3.268)"/><path class="d" d="M5.579,0a3.866,3.866,0,0,0,.908,3.994A31.486,31.486,0,0,0,9.846,6.718a5.407,5.407,0,0,1,2.27,3.54c.091,1.362-.545,2.633-.363,3.994.454,3.359,5.9,4.448,6.174,7.807.182,2.269-2.179,4.357-1.453,6.536a15.016,15.016,0,0,0,1.362,2.269c1.543,2.542.454,6.082-1.725,8.079a13.013,13.013,0,0,1-8.262,2.814c-2.542.091-5.357-.272-6.809-2.36C-.322,37.582-.05,35.04.222,32.771,1.493,22.15,1.312,11.347,1.04.635" transform="translate(39.815 11.347)"/><g transform="translate(10.399 2.521)"><g transform="translate(0.15 5.389)"><path class="j" d="M8.969,52.639c.091-5.628,0-11.438,0-11.438S1.8,39.93.435,30.489C-.927,21.5,1.343,2.166,1.343,2.166,11.784-1.919,23.5-.375,30.759,8.067L29.67,53.456c-.091,5.265-4.812,9.35-10.441,9.169C13.509,62.443,8.969,57.995,8.969,52.639Z" transform="translate(0 0)"/><g transform="translate(1.343 14.966)"><g transform="translate(1.998 0.999)"><path class="d" d="M0,1.089A1.279,1.279,0,0,0,1.18,2.36,1.273,1.273,0,0,0,2.451,1.271,1.279,1.279,0,0,0,1.271,0,1.154,1.154,0,0,0,0,1.089Z"/></g><path class="d" d="M0,1.18C.182,1.362,1.089.635,2.361.726c2.451.363,2.361.726,2.361.545C4.812,1.18,4.63.908,4.267.635A3.372,3.372,0,0,0,2.361,0,3.655,3.655,0,0,0,.454.545.988.988,0,0,0,0,1.18Z"/></g><g transform="translate(14.847 15.42)"><g transform="translate(1.748 0.908)"><path class="d" d="M0,1.089A1.279,1.279,0,0,0,1.18,2.36,1.273,1.273,0,0,0,2.451,1.271,1.279,1.279,0,0,0,1.271,0,1.154,1.154,0,0,0,0,1.089Z" transform="translate(0 0)"/></g><path class="d" d="M.023,1.18C.2,1.362,1.113.635,2.384.726a9.649,9.649,0,0,1,2.361.545C4.835,1.18,4.653.908,4.29.635A3.372,3.372,0,0,0,2.384,0,3.654,3.654,0,0,0,.477.545C.114.817-.068,1.089.023,1.18Z"/></g><g transform="translate(6.73 15.055)"><path class="d" d="M3.33,10.8a9.357,9.357,0,0,0-2.088-.363c-.363,0-.636-.091-.726-.363a1.521,1.521,0,0,1,.272-1c.363-.817.636-1.634,1-2.542C3.148,3,4.237,0,4.056,0,3.874-.089,2.694,2.816,1.241,6.357.878,7.264.606,8.081.243,8.9c-.091.363-.363.817-.182,1.271a.67.67,0,0,0,.545.454,1.152,1.152,0,0,0,.545.091A5.784,5.784,0,0,0,3.33,10.8Z" transform="translate(0 0)"/></g><g transform="translate(8.97 38.024)"><path class="i" d="M0,3.177A24.294,24.294,0,0,0,12.62,0S9.533,6.445.091,5.447Z"/></g><g transform="translate(10.454 28.203)"><path class="i" d="M.15.834A2.223,2.223,0,0,1,2.239.017,2.359,2.359,0,0,1,3.691.834a1.374,1.374,0,0,1,.091,1.543,1.677,1.677,0,0,1-1.725.454,4.942,4.942,0,0,1-1.634-1C.241,1.742.15,1.56.06,1.469A.538.538,0,0,1,.15.834Z" transform="translate(0 0)"/></g><g transform="translate(9.696 26.858)"><path class="d" d="M4.176,0C3.995,0,3.9,1.362,2.724,2.36S0,3.177,0,3.359c0,.091.363.272,1,.272A3.924,3.924,0,0,0,3.268,2.9a2.962,2.962,0,0,0,1.089-2C4.449.272,4.267,0,4.176,0Z"/></g></g><path class="d" d="M26.823,6.829c-3.45,4.9-12.529,9.986-19.066,11.075.726-1,4.721-3.45,5.538-4.448-3,2.179-7.172,5.174-11.076,5.356A3.31,3.31,0,0,1,.857,18.63c-.545-.272-.636-.908-.726-1.452A38.368,38.368,0,0,1,.4,8.645,9.772,9.772,0,0,1,3.763,2.562C6.3.656,9.846.111,13.3.021A21.411,21.411,0,0,1,21.648,1.11c2.633,1,4.812,3.086,5.175,5.447" transform="translate(0)"/><g transform="translate(18.936 1.036)"><path class="d" d="M17.783,27.67a57.567,57.567,0,0,0,.908-6.264C18.963,16.6,17.6-1.288.9.074L.26,5.157s-2.542,17.429,8.262,17.52A19.806,19.806,0,0,0,14.06,32.935C13.879,33.026,16.784,32.935,17.783,27.67Z" transform="translate(0 0)"/></g><g transform="translate(26.914 23.691)"><path class="j" d="M.454.113a4.826,4.826,0,0,1,3,.272,3.928,3.928,0,0,1,2.179,2,4.253,4.253,0,0,1,0,3A7.022,7.022,0,0,1,3.9,7.92,3.95,3.95,0,0,1,2.088,9.1,2.4,2.4,0,0,1,0,8.737"/></g><g transform="translate(27.809 25.075)"><path class="i" d="M.013,4.811c-.091,0,.272.635,1.271.454a1.8,1.8,0,0,0,1.18-1A4.338,4.338,0,0,0,3.01,2.633,3.126,3.126,0,0,0,2.646.817,1.836,1.836,0,0,0,1.375,0C.467,0,.1.635.2.635.286.726.649.363,1.285.545c.636.091,1.18.908,1,2-.091,1-.545,2-1.089,2.179C.558,4.993.1,4.72.013,4.811Z" transform="translate(0)"/></g></g><path class="d" d="M1.428,7.434A5.8,5.8,0,0,0,5.7,7.979a5.619,5.619,0,0,0,3.45-2.633A4.131,4.131,0,0,0,9.69,2.623,3.864,3.864,0,0,0,6.875.172,5.82,5.82,0,0,0,1.609,1.443,5,5,0,0,0,.248,6.617a4.5,4.5,0,0,0,4.358,3" transform="translate(38.154 0.01)"/><path class="d" d="M5.57,0A12.459,12.459,0,0,0,2.937,2.269,4.148,4.148,0,0,0,1.848,5.447a6.8,6.8,0,0,1,.182,1.906A4.926,4.926,0,0,1,.668,9.622a5.374,5.374,0,0,0,.817,6.264,9.041,9.041,0,0,0,6.174,2.542,6.8,6.8,0,0,0,3.813-.908,6.183,6.183,0,0,0,2.179-5.084" transform="translate(35.555 34.586)"/><g transform="translate(32.226 11.254)"><path class="n" d="M9.989,0a5,5,0,0,1-1,1.725,25.721,25.721,0,0,1-3.178,3.54A22.888,22.888,0,0,1,1.818,7.9,9.9,9.9,0,0,1,0,8.626C-.089,8.445,2.726,7.355,5.54,4.9A50.187,50.187,0,0,0,9.989,0Z" transform="translate(0 0)"/></g><g transform="translate(36.13 11.164)"><path class="n" d="M7.81,0a7,7,0,0,1-.272,2.269A21.944,21.944,0,0,1,5.449,7.445a17.929,17.929,0,0,1-3.541,4.267A9.474,9.474,0,0,1,0,13.074a28.967,28.967,0,0,0,5.084-5.9A27.131,27.131,0,0,0,7.81,0Z" transform="translate(0)"/></g><g transform="translate(7.607 18.7)"><path class="n" d="M.109,0C.29,0,.472,1.543.926,3.45c.545,1.816,1.18,3.268,1.089,3.359A7.475,7.475,0,0,1,.472,3.631C-.073,1.634-.073,0,.109,0Z"/></g><g transform="translate(44.023 20.879)"><path class="n" d="M3.731,29.957a2.737,2.737,0,0,0,1.362.454,2.513,2.513,0,0,0,1.634-.545,2.925,2.925,0,0,0,1.18-1.816,6.859,6.859,0,0,0,0-2.723A23.224,23.224,0,0,0,7,22.241a6.943,6.943,0,0,1-.363-3.631c.182-1.362,1.089-2.451,1.453-3.631a4.35,4.35,0,0,0-.272-3.54A4.574,4.574,0,0,0,5.365,9.169a8.049,8.049,0,0,1-1.543-.726A3.7,3.7,0,0,1,2.551,7.353a5.539,5.539,0,0,1-.545-2.814,8.909,8.909,0,0,0-.091-2.269A3.494,3.494,0,0,0,1.189.726,1.984,1.984,0,0,0,.009,0H.372a2.564,2.564,0,0,1,1,.635,3.453,3.453,0,0,1,.817,1.634,9.965,9.965,0,0,1,.182,2.36,4.612,4.612,0,0,0,.545,2.633A5.462,5.462,0,0,0,5.547,8.9a4.784,4.784,0,0,1,2.724,2.451,4.874,4.874,0,0,1,.272,3.9c-.454,1.271-1.271,2.36-1.453,3.54a8.786,8.786,0,0,0,.363,3.45,24.326,24.326,0,0,1,.908,3.177,6.25,6.25,0,0,1-.091,2.9,3.6,3.6,0,0,1-1.362,2,2.736,2.736,0,0,1-1.725.454,1.535,1.535,0,0,1-1.089-.363A5.226,5.226,0,0,0,3.731,29.957Z" transform="translate(0)"/></g><g transform="translate(41.166 34.677)"><path class="n" d="M.05,15.523a.886.886,0,0,0,.545.454,1.509,1.509,0,0,0,1.725-.454,2.661,2.661,0,0,0-.182-2.814c-.545-1-1.543-2-1.816-3.54A2.213,2.213,0,0,1,.868,7.081,16.255,16.255,0,0,0,2.139,5.719a3.836,3.836,0,0,0,.636-2.9A8.567,8.567,0,0,0,2.229.726C2.048.272,1.957,0,2.048,0a4.328,4.328,0,0,1,.363.726,7.149,7.149,0,0,1,.636,2.088,3.806,3.806,0,0,1-.636,3.177C2.048,6.536,1.5,6.9,1.14,7.353A1.921,1.921,0,0,0,.777,9.078c.182,1.271,1.18,2.269,1.725,3.45a3.227,3.227,0,0,1,0,3.268,1.429,1.429,0,0,1-1.18.635,1.8,1.8,0,0,1-1-.182C-.04,15.886-.04,15.523.05,15.523Z" transform="translate(0)"/></g><g transform="translate(2.995 24.964)"><path class="n" d="M2.633,22.876l-.726-.726A8.82,8.82,0,0,1,.363,19.79a4.617,4.617,0,0,1-.363-2,3.428,3.428,0,0,1,.817-2.179c.545-.635,1.362-1,1.907-1.634a2.64,2.64,0,0,0,.363-2.36,10.844,10.844,0,0,0-1-2.36A10.587,10.587,0,0,1,1.18,6.9,2.761,2.761,0,0,1,1.634,4.63,10.638,10.638,0,0,1,3,3.177,3.9,3.9,0,0,0,4.54,1c.091-.635-.091-1,0-1a1.123,1.123,0,0,1,.182.272,2.015,2.015,0,0,1,.091.817A4.4,4.4,0,0,1,3.268,3.54,6.638,6.638,0,0,0,2,4.993a2.521,2.521,0,0,0-.363,2,6.591,6.591,0,0,0,.908,2.269A13.356,13.356,0,0,1,3.632,11.8a3.2,3.2,0,0,1-.454,2.723c-.636.726-1.453,1-1.907,1.634a3.122,3.122,0,0,0-.726,1.906A5.852,5.852,0,0,0,.817,19.88a8.882,8.882,0,0,0,1.453,2.36C2.361,22.513,2.633,22.785,2.633,22.876Z"/></g><g transform="translate(38.403 4.776)"><path class="o" d="M5.084,3.848a11.081,11.081,0,0,0-2.179-2.36A12.154,12.154,0,0,0,0,.035,4.609,4.609,0,0,1,3.178,1.124,4.717,4.717,0,0,1,5.084,3.848Z" transform="translate(0 0)"/></g><g transform="translate(42.942)"><path class="n" d="M1.816,0c.091,0,.363.363.636,1a5.083,5.083,0,0,1,.091,2.9A4.972,4.972,0,0,1,1,6.354C.454,6.808,0,6.99,0,6.9s.363-.272.817-.817A7.487,7.487,0,0,0,2.179,3.813,6.592,6.592,0,0,0,2.27,1.18C1.907.363,1.725,0,1.816,0Z"/></g></g><path class="p" d="M0,5.174S22.516,26.6,35.953,22.694,53.294,8.715,53.294,8.715l.363-3.631L52.3,4.176.636,0Z" transform="translate(28.145 106.482)"/><g transform="translate(0 53.196)"><g transform="translate(13.982 2.088)"><path class="i" d="M0,11.166,4.358,0,19.974,9.8,6.083,31.228S.454,23.875,0,11.166Z" transform="translate(0.818 25.145)"/><path class="h" d="M18.43,5.447c7.263-3.813,16.615-4.9,16.615-4.9C37.769,5.991,46.394,6.718,51.569,3l4.358-3s.636,0,1.816.091a23.423,23.423,0,0,1,20.791,18.7,46.108,46.108,0,0,1,1.089,11.8c-.545,9.895-10.8,10.8-10.8,10.8s-.545,9.8-1.18,17.7A14.726,14.726,0,0,1,58.65,71.9a36.834,36.834,0,0,1-11.44,3.54,38.609,38.609,0,0,1-34.137-11.8c1.543-9.441,3.087-21.7,2.905-22.241v-.182L5.811,32.135,0,27.324C.091,27.324,12.711,8.533,18.43,5.447Z"/></g><g transform="translate(29.053 12.527)"><path class="f" d="M15.979,1.18A5.224,5.224,0,0,0,13.437.454a4.4,4.4,0,0,0-2.633.908c-.363.363-.726.817-1.18,1.271A2.644,2.644,0,0,1,7.99,3.722a2.3,2.3,0,0,1-1.907-.545c-.545-.363-1-.726-1.453-1A3.435,3.435,0,0,0,2,1.906,3.55,3.55,0,0,0,.454,3C.182,3.359.091,3.631,0,3.54a1.6,1.6,0,0,1,.272-.726A3.82,3.82,0,0,1,1.816,1.543a3.222,3.222,0,0,1,3,.182c.545.272,1,.635,1.453.908a2.377,2.377,0,0,0,1.543.454A2.789,2.789,0,0,0,9.17,2.179,5.624,5.624,0,0,1,10.441.908,4.573,4.573,0,0,1,13.346,0a3.175,3.175,0,0,1,1.907.545C15.8.908,15.979,1.089,15.979,1.18Z" transform="translate(0)"/></g><g transform="translate(39.494 23.313)"><path class="f" d="M15.888,3.92a6.681,6.681,0,0,0-2.179-1.452,3.99,3.99,0,0,0-2.724,0,11.712,11.712,0,0,0-1.453.817,3.357,3.357,0,0,1-1.907.545A2.644,2.644,0,0,1,5.992,2.74c-.363-.454-.726-1-1.089-1.362A3.072,3.072,0,0,0,2.451.289,3.077,3.077,0,0,0,.636.834c-.363.272-.545.454-.636.454A1.283,1.283,0,0,1,.454.743,3.786,3.786,0,0,1,2.361.017,3.411,3.411,0,0,1,5.175,1.106L6.265,2.468a2.291,2.291,0,0,0,1.362.908,2.8,2.8,0,0,0,1.634-.454A12.681,12.681,0,0,1,10.8,2.1a4.2,4.2,0,0,1,3,.091,3.455,3.455,0,0,1,1.634,1.18A1.283,1.283,0,0,1,15.888,3.92Z" transform="translate(0 0)"/></g><g transform="translate(63.281 6.912)"><path class="f" d="M15.071.441A6.322,6.322,0,0,0,12.438.259a4.134,4.134,0,0,0-2.361,1.452A10.134,10.134,0,0,0,9.17,3.164,3.463,3.463,0,0,1,7.808,4.617a2.963,2.963,0,0,1-2-.091c-.545-.182-1.089-.454-1.634-.635a2.89,2.89,0,0,0-2.633.363A3.4,3.4,0,0,0,.272,5.615,5.4,5.4,0,0,0,0,6.251a4.112,4.112,0,0,1,.091-.726A3.2,3.2,0,0,1,1.362,3.981a3.638,3.638,0,0,1,3-.454c.545.182,1.089.454,1.634.635a2.531,2.531,0,0,0,1.634.091,2.483,2.483,0,0,0,1.18-1.18A8.62,8.62,0,0,1,9.715,1.53,4.089,4.089,0,0,1,12.347.078a4.6,4.6,0,0,1,2,.091A1.4,1.4,0,0,1,15.071.441Z" transform="translate(0 0)"/></g><g transform="translate(55.564 18.7)"><path class="f" d="M12.166,3.54c-.091.091-.454-.726-1.634-1.18a3.985,3.985,0,0,0-2.088-.091,12.637,12.637,0,0,0-1.18.545,2.782,2.782,0,0,1-1.543.363,2.21,2.21,0,0,1-1.271-.908c-.272-.363-.545-.817-.726-1.089A2.233,2.233,0,0,0,1.907.272,3.076,3.076,0,0,0,0,.908,2.015,2.015,0,0,1,.363.454,2.823,2.823,0,0,1,1.907,0,3,3,0,0,1,4.086,1L4.9,2.088a1.615,1.615,0,0,0,1,.726C6.718,3,7.536,2.179,8.353,2a3.4,3.4,0,0,1,2.361.182C11.984,2.723,12.257,3.631,12.166,3.54Z"/></g><g transform="translate(32.23 31.318)"><path class="f" d="M12.166,3.54c-.091.091-.454-.726-1.634-1.18a3.985,3.985,0,0,0-2.088-.091,12.638,12.638,0,0,0-1.18.545,2.782,2.782,0,0,1-1.543.363,2.21,2.21,0,0,1-1.271-.908c-.272-.363-.545-.817-.726-1.089A2.233,2.233,0,0,0,1.907.272,3.076,3.076,0,0,0,0,.908,2.015,2.015,0,0,1,.363.454,2.823,2.823,0,0,1,1.907,0,3,3,0,0,1,4.086,1L4.9,2.088a1.615,1.615,0,0,0,1,.726C6.718,3,7.536,2.179,8.353,2a3.4,3.4,0,0,1,2.361.182A2.366,2.366,0,0,1,12.166,3.54Z"/></g><g transform="translate(53.838 34.132)"><path class="f" d="M12.347,1A3.968,3.968,0,0,0,10.441.454a2.91,2.91,0,0,0-2,.635A8.559,8.559,0,0,0,7.536,2a2.316,2.316,0,0,1-1.362.817A2.232,2.232,0,0,1,4.63,2.36L3.541,1.543a2.3,2.3,0,0,0-2-.272A2.86,2.86,0,0,0,0,2.451a1.405,1.405,0,0,1,.182-.545,3.076,3.076,0,0,1,1.271-1,2.751,2.751,0,0,1,2.361.182L4.9,1.906a1.43,1.43,0,0,0,1.18.363C6.9,2.179,7.445,1.18,8.171.635A3.778,3.778,0,0,1,10.441,0C11.893.182,12.438,1,12.347,1Z"/></g><g transform="translate(46.667 44.118)"><path class="f" d="M12.347,1A3.968,3.968,0,0,0,10.441.454a2.91,2.91,0,0,0-2,.635A8.559,8.559,0,0,0,7.536,2a2.316,2.316,0,0,1-1.362.817A2.232,2.232,0,0,1,4.63,2.36L3.541,1.543a2.3,2.3,0,0,0-2-.272A2.86,2.86,0,0,0,0,2.451a1.4,1.4,0,0,1,.182-.545,3.076,3.076,0,0,1,1.271-1,2.751,2.751,0,0,1,2.361.182L4.9,1.906a1.43,1.43,0,0,0,1.18.363C6.9,2.179,7.445,1.18,8.171.635A3.778,3.778,0,0,1,10.441,0,2.419,2.419,0,0,1,12.347,1Z" transform="translate(0)"/></g><g transform="translate(31.595 66.268)"><path class="f" d="M12.166,3.54c-.091.091-.454-.726-1.634-1.18a3.274,3.274,0,0,0-2.088,0,12.637,12.637,0,0,0-1.18.545,2.782,2.782,0,0,1-1.543.363A2.21,2.21,0,0,1,4.449,2.36a7.572,7.572,0,0,1-.726-1.089A2.233,2.233,0,0,0,1.907.363,3.906,3.906,0,0,0,0,1,2.015,2.015,0,0,1,.363.545,2.706,2.706,0,0,1,1.816,0,2.876,2.876,0,0,1,3.995.908L4.812,2a1.9,1.9,0,0,0,1,.726c.817.091,1.634-.635,2.451-.908A3.4,3.4,0,0,1,10.622,2,2.9,2.9,0,0,1,12.166,3.54Z"/></g><g transform="translate(49.209 74.226)"><path class="f" d="M12.347.848A4.627,4.627,0,0,0,10.441.212a3.339,3.339,0,0,0-2,.545,8.559,8.559,0,0,0-.908.908,2.316,2.316,0,0,1-1.362.817,1.876,1.876,0,0,1-1.453-.454L3.632,1.211a2.3,2.3,0,0,0-2-.272A3.378,3.378,0,0,0,0,2.119a1.09,1.09,0,0,1,.272-.545A2.419,2.419,0,0,1,1.543.666,2.513,2.513,0,0,1,3.9.938l1.089.817a1.43,1.43,0,0,0,1.18.363C6.991,2.028,7.536,1.029,8.262.575a3.139,3.139,0,0,1,2.27-.545C11.893.121,12.438.848,12.347.848Z" transform="translate(0 0)"/></g><path class="d" d="M2.814,0c.545.635,20.519,27.324,20.519,27.324l-2.814,1.634L0,2.633Z"/><path class="j" d="M74.36,6.491s-18.7,32.317-19.974,32.862C51.935,40.533,23.155,15.66,20.431,13.3c-.363-.545-1.18-1.543-2.724-3.722,0,0-2.27-10.349-4.721-9.532s1.362,5.265-.272,9.169c-1.543,3.9-8.807-5.447-9.079-6.264L1.819.5S-.088,6.037,0,8.307c.454,7.444,7.445,16.158,7.445,16.158S35.865,60.141,57.473,61.321c6.174.363,18.067-17.52,25.421-30.683C87.343,22.65,85.255,14.57,77.9,9.215Z" transform="translate(6.352 12.572)"/><g transform="translate(7.161 16.794)"><path class="i" d="M2.735,5.447A13.577,13.577,0,0,1,1.1,2.814,12.122,12.122,0,0,1,.012,0C.1,0,.647,1.271,1.373,2.723A20.494,20.494,0,0,1,2.735,5.447Z" transform="translate(0)"/></g><path class="h" d="M18.158,0C17.432.454,0,32.771,0,32.771l22.425,17.52a261.139,261.139,0,0,0,8.9-26.053c.817-3.177.363-11.62-.817-14.888-1.634-4.63-4.176-3.45-7.99-6.173Z" transform="translate(61.647 10.076)"/><g class="q" transform="translate(61.283 9.169)"><path class="r" d="M25.875.908S25.694.817,25.24.545a4.982,4.982,0,0,0-2-.454,5.216,5.216,0,0,0-2.905,1.18,12.492,12.492,0,0,0-2.905,3.177c-.908,1.271-1.725,2.9-2.724,4.539-.908,1.634-1.907,3.45-3,5.265-2.088,3.722-4.449,7.807-6.9,12.073C3.359,28.958,1.907,31.409.545,33.769L.454,33.5C6.537,38.308,11.8,42.484,15.616,45.48c1.816,1.452,3.359,2.633,4.358,3.54.454.363.908.726,1.18,1a1.087,1.087,0,0,1,.363.363,4.72,4.72,0,0,1-.454-.272c-.272-.272-.726-.545-1.18-.908-1.089-.817-2.633-2-4.449-3.45-3.813-3-9.17-7.081-15.253-11.892L0,33.769l.091-.182c1.362-2.36,2.814-4.9,4.267-7.444,2.451-4.267,4.812-8.352,6.9-11.983,1.089-1.816,2.088-3.631,3-5.265,1-1.634,1.816-3.177,2.724-4.539a20.408,20.408,0,0,1,3-3.177A6,6,0,0,1,23.061,0a3.5,3.5,0,0,1,2,.545c.182.091.363.272.454.272C25.875.817,25.875.908,25.875.908Z"/></g><g transform="translate(68.365 36.856)"><path class="f" d="M12.166,3.54c-.091.091-.454-.726-1.634-1.18a3.985,3.985,0,0,0-2.088-.091,12.637,12.637,0,0,0-1.18.545,2.782,2.782,0,0,1-1.543.363,2.21,2.21,0,0,1-1.271-.908c-.272-.363-.545-.817-.726-1.089A2.233,2.233,0,0,0,1.907.272,3.076,3.076,0,0,0,0,.908,2.015,2.015,0,0,1,.363.454,2.823,2.823,0,0,1,1.907,0,3,3,0,0,1,4.086,1L4.9,2.088a1.615,1.615,0,0,0,1,.726C6.718,3,7.536,2.179,8.353,2a3.4,3.4,0,0,1,2.361.182A2.366,2.366,0,0,1,12.166,3.54Z" transform="translate(0)"/></g><g transform="translate(79.713 29.948)"><path class="f" d="M11.076,6.272A4.622,4.622,0,0,0,9.805,4.729a3.274,3.274,0,0,0-2-.635,8.058,8.058,0,0,0-1.271.272,2.292,2.292,0,0,1-1.543-.091A2.261,2.261,0,0,1,3.995,3c-.182-.454-.272-.908-.454-1.271A2.3,2.3,0,0,0,2,.371,3.4,3.4,0,0,0,0,.462.67.67,0,0,1,.454.19,2.147,2.147,0,0,1,2,.1,2.715,2.715,0,0,1,3.813,1.642c.182.454.272.817.454,1.271a1.705,1.705,0,0,0,.726,1c.726.363,1.725-.182,2.633-.182a3.177,3.177,0,0,1,2.179.817C11.076,5.364,11.076,6.272,11.076,6.272Z" transform="translate(0 0)"/></g><g transform="translate(80.167 16.604)"><path class="f" d="M11.076,6.272A4.622,4.622,0,0,0,9.805,4.729a3.274,3.274,0,0,0-2-.635,8.058,8.058,0,0,0-1.271.272,2.292,2.292,0,0,1-1.543-.091A2.261,2.261,0,0,1,3.995,3c-.182-.454-.272-.908-.454-1.271A2.3,2.3,0,0,0,2,.371,3.4,3.4,0,0,0,0,.462.671.671,0,0,1,.454.19,2.147,2.147,0,0,1,2,.1,2.715,2.715,0,0,1,3.813,1.642c.182.454.272.817.454,1.271a1.705,1.705,0,0,0,.726,1c.726.363,1.725-.182,2.633-.182a3.177,3.177,0,0,1,2.179.817C11.076,5.273,11.167,6.272,11.076,6.272Z" transform="translate(0 0)"/></g><g transform="translate(75.266 47.287)"><path class="f" d="M11.076,6.272A4.622,4.622,0,0,0,9.805,4.729a3.274,3.274,0,0,0-2-.635,8.058,8.058,0,0,0-1.271.272,2.292,2.292,0,0,1-1.543-.091A2.261,2.261,0,0,1,3.995,3c-.182-.454-.272-.908-.454-1.271A2.3,2.3,0,0,0,2,.371,3.4,3.4,0,0,0,0,.462.67.67,0,0,1,.454.19,2.147,2.147,0,0,1,2,.1,2.715,2.715,0,0,1,3.813,1.642c.182.454.272.817.454,1.271a1.705,1.705,0,0,0,.726,1c.726.363,1.725-.182,2.633-.182a3.178,3.178,0,0,1,2.179.817C11.076,5.364,11.076,6.272,11.076,6.272Z" transform="translate(0 0)"/></g></g></g></svg>