<svg xmlns="http://www.w3.org/2000/svg" width="24" height="24" viewBox="0 0 24 24"><defs><style>.a{fill:#fff;opacity:0;}.b{fill:#1c1b1b;}.c,.e{fill:none;}.c{stroke:#1c1b1b;}.d{stroke:none;}</style></defs><g transform="translate(-3.188 -3.188)"><path class="a" d="M24,2.133v14.4a2.14,2.14,0,0,1-2.133,2.133h-11.2L5.333,24V18.667h-3.2A2.14,2.14,0,0,1,0,16.533V2.133A2.14,2.14,0,0,1,2.133,0H21.867A2.14,2.14,0,0,1,24,2.133Z" transform="translate(3.187 3.187)"/><path class="a" d="M2.414,16.664V2.15A2.154,2.154,0,0,1,4.559,0H2.146A2.154,2.154,0,0,0,0,2.15V16.664a2.154,2.154,0,0,0,2.146,2.15H4.559A2.154,2.154,0,0,1,2.414,16.664Z" transform="translate(3.188 3.188)"/><path class="a" d="M2.44,0H0V5.33l2.44-2.4Z" transform="translate(8.482 21.858)"/><g transform="translate(-0.989 -0.989)"><path class="b" d="M5.132,21.419a.669.669,0,0,1-.669-.669V16.956H2.454A2.456,2.456,0,0,1,0,14.5V2.454A2.456,2.456,0,0,1,2.454,0h16.51a2.456,2.456,0,0,1,2.454,2.454V14.5a2.456,2.456,0,0,1-2.454,2.454H9.871L5.605,21.222a.67.67,0,0,1-.474.2ZM2.454,1.339A1.117,1.117,0,0,0,1.339,2.454V14.5a1.117,1.117,0,0,0,1.116,1.116H5.132a.67.67,0,0,1,.669.669v2.846l3.32-3.32a.668.668,0,0,1,.473-.2h9.371A1.117,1.117,0,0,0,20.08,14.5V2.454a1.117,1.117,0,0,0-1.116-1.116Z" transform="translate(5.467 5.467)"/><g class="c" transform="translate(9.176 11.176)"><circle class="d" cx="2" cy="2" r="2"/><circle class="e" cx="2" cy="2" r="1.5"/></g><g class="c" transform="translate(14.176 11.176)"><circle class="d" cx="2" cy="2" r="2"/><circle class="e" cx="2" cy="2" r="1.5"/></g><g class="c" transform="translate(19.176 11.176)"><circle class="d" cx="2" cy="2" r="2"/><circle class="e" cx="2" cy="2" r="1.5"/></g></g></g></svg>