<svg xmlns="http://www.w3.org/2000/svg" width="24" height="24" viewBox="0 0 24 24"><defs><style>.a{fill:#fff;}.b{fill:#f6b333;}</style></defs><g transform="translate(-4.195 -4.195)"><path class="a" d="M21,0H3A3,3,0,0,0,0,3V16.5a3,3,0,0,0,3,3H4.5v3.75a.749.749,0,0,0,.432.679A.761.761,0,0,0,5.25,24a.75.75,0,0,0,.48-.174L10.922,19.5H21a3,3,0,0,0,3-3V3A3,3,0,0,0,21,0Z" transform="translate(4.195 4.195)"/><g transform="translate(10.6 10.33)"><path class="b" d="M6.294,1.4H.7A.7.7,0,0,1,.7,0H6.294a.7.7,0,0,1,0,1.4Z" transform="translate(0 4.196)"/><path class="b" d="M10.491,1.4H.7A.7.7,0,0,1,.7,0h9.791a.7.7,0,1,1,0,1.4Z"/></g></g></svg>