<svg id="_352521_location_on_icon" data-name="352521_location_on_icon" xmlns="http://www.w3.org/2000/svg" width="28" height="28" viewBox="0 0 28 28">
  <path id="Path_3583" data-name="Path 3583" d="M0,0H28V28H0Z" fill="none"/>
  <g id="map_1_" data-name="map (1)" transform="translate(3.5 3)">
    <path id="Path_3693" data-name="Path 3693" d="M32.128,272.066h-.942a.618.618,0,0,0-.568.374l-2.607,6.07,6.191-3.162A29.2,29.2,0,0,1,32.128,272.066Zm0,0" transform="translate(-26.863 -260.428)" fill="#f6b333"/>
    <path id="Path_3694" data-name="Path 3694" d="M180.29,272.44a.618.618,0,0,0-.568-.374h-.942a33.032,33.032,0,0,1-3.836,5.528,1.856,1.856,0,0,1-2.8,0c-.075-.087-.469-.543-1.012-1.244l-1.116.57,4.222,4.214,8-4.148Zm0,0" transform="translate(-163.046 -260.428)" fill="#f6b333"/>
    <path id="Path_3695" data-name="Path 3695" d="M.387,407.579l-.337.784a.617.617,0,0,0,.568.859H9.685a2.507,2.507,0,0,1,.362-.2L5.818,404.8Zm0,0" transform="translate(0 -387.722)" fill="#f6b333"/>
    <path id="Path_3696" data-name="Path 3696" d="M309.592,422.68l-1.265-2.946-7.339,3.8h8.037a.617.617,0,0,0,.568-.859Zm0,0" transform="translate(-288.643 -402.04)" fill="#f6b333"/>
    <path id="Path_3697" data-name="Path 3697" d="M242.177,121.413a.618.618,0,1,0-.618.616A.618.618,0,0,0,242.177,121.413Zm0,0" transform="translate(-231.059 -115.363)" fill="#f6b333"/>
    <path id="Path_3698" data-name="Path 3698" d="M126.5,16.316c.208-.239,5.092-5.889,5.092-9.773,0-8.009-11.117-8.107-11.117,0,0,3.884,4.885,9.534,5.092,9.773a.619.619,0,0,0,.932,0ZM124.182,6.05A1.853,1.853,0,1,1,126.035,7.9,1.853,1.853,0,0,1,124.182,6.05Zm0,0" transform="translate(-115.535 0)" fill="#f6b333"/>
  </g>
</svg>
