<svg xmlns="http://www.w3.org/2000/svg" width="16" height="16" viewBox="0 0 16 16">
  <g id="Group_371" data-name="Group 371" transform="translate(-331.639 -94.639)">
    <g id="octicon:x-24" transform="translate(331.639 94.639)">
      <path id="Vector" d="M.27.293a.923.923,0,0,1,1.3,0L7.988,6.7,14.4.293a.921.921,0,1,1,1.3,1.3L9.291,8l6.416,6.406a.921.921,0,1,1-1.3,1.3L7.988,9.3,1.572,15.707a.921.921,0,0,1-1.3-1.3L6.685,8,.27,1.594a.919.919,0,0,1,0-1.3Z" transform="translate(0 0)" fill="#1c1b1b"/>
    </g>
  </g>
</svg>
