<svg xmlns="http://www.w3.org/2000/svg" width="24" height="24" viewBox="0 0 24 24"><defs><style>.a,.b{fill:#fff;}.a{stroke:#707070;opacity:0;}.c{stroke:none;}.d{fill:none;}</style></defs><g transform="translate(-3120 -160)"><g class="a" transform="translate(3120 160)"><rect class="c" width="24" height="24"/><rect class="d" x="0.5" y="0.5" width="23" height="23"/></g><g transform="translate(2792.362 69.362)"><g transform="translate(331.639 94.639)"><path class="b" d="M.27.293a.923.923,0,0,1,1.3,0L7.988,6.7,14.4.293a.921.921,0,1,1,1.3,1.3L9.291,8l6.416,6.406a.921.921,0,1,1-1.3,1.3L7.988,9.3,1.572,15.707a.921.921,0,0,1-1.3-1.3L6.685,8,.27,1.594a.919.919,0,0,1,0-1.3Z" transform="translate(0 0)"/></g></g></g></svg>