<svg xmlns="http://www.w3.org/2000/svg" width="36.259" height="36.937" viewBox="0 0 36.259 36.937">
  <g id="Asset_1_6" data-name="Asset 1 6" opacity="0.2">
    <g id="Layer_2" data-name="Layer 2">
      <g id="Layer_1" data-name="Layer 1">
        <path id="Vector" d="M16.645,36.449l.844-2.907a.568.568,0,0,0-.028-.4.581.581,0,0,0-.29-.286,35.069,35.069,0,0,1-3.816-1.88,19.632,19.632,0,0,1-7.286-8.079A18.877,18.877,0,0,1,4.1,14.832c-.03-1.869-.029-6.659-.022-10.076a.55.55,0,0,1,.039-.214.557.557,0,0,1,.119-.183.566.566,0,0,1,.181-.124.573.573,0,0,1,.216-.047h11.3a.575.575,0,0,0,.216-.047.568.568,0,0,0,.181-.125.558.558,0,0,0,.119-.184.552.552,0,0,0,.038-.215V.572a.556.556,0,0,0-.158-.4.573.573,0,0,0-.4-.173H.564A.577.577,0,0,0,.347.047.569.569,0,0,0,.164.172a.56.56,0,0,0-.12.184A.553.553,0,0,0,.006.572V2.3c0,2.976-.021,10.181.017,12.6a23.116,23.116,0,0,0,2.4,9.868A23.994,23.994,0,0,0,11.2,34.518a44.82,44.82,0,0,0,4.7,2.288.558.558,0,0,0,.457-.01.549.549,0,0,0,.184-.142.539.539,0,0,0,.107-.2Z" transform="translate(0)" fill="#f6b333"/>
        <path id="Vector-2" data-name="Vector" d="M6.894,0A21.689,21.689,0,0,1,4.159,2.129,35.943,35.943,0,0,1,.342,4.069a.59.59,0,0,0-.29.3.6.6,0,0,0-.028.416l.846,3A.563.563,0,0,0,.976,8a.552.552,0,0,0,.183.149.542.542,0,0,0,.458.013A44.092,44.092,0,0,0,6.317,5.8,25.455,25.455,0,0,0,9.8,3.04Z" transform="translate(19.096 28.734)" fill="#2a5798"/>
        <path id="Vector-3" data-name="Vector" d="M16.481,2.377V.59a.584.584,0,0,0-.158-.412.565.565,0,0,0-.4-.178H.55A.565.565,0,0,0,.156.18.584.584,0,0,0,0,.59V3.732a.586.586,0,0,0,.038.222.579.579,0,0,0,.119.19.568.568,0,0,0,.181.129.56.56,0,0,0,.216.049h11.3a.562.562,0,0,1,.392.179.581.581,0,0,1,.155.408c0,3.528,0,8.474-.022,10.4a19.994,19.994,0,0,1-1.967,8.32c-.242.509-.5,1-.776,1.479l2.967,3.1a25.111,25.111,0,0,0,1.457-2.64,24.485,24.485,0,0,0,2.4-10.186C16.5,12.879,16.489,5.453,16.481,2.377Z" transform="translate(19.769 0.081)" fill="#2a5798"/>
        <path id="Vector-4" data-name="Vector" d="M25.733,22.741l-4.858-4.98-.813-.825L20,16.877a11.113,11.113,0,0,0,.768-1.348,10.7,10.7,0,0,0,1.051-4.657A10.912,10.912,0,0,0,5.217,1.6,11.09,11.09,0,0,0,3.436,2.957,10.871,10.871,0,0,0,.471,7.7,10.262,10.262,0,0,0,.153,9.053a10.09,10.09,0,0,0-.142,1.357c0,.158-.011.309-.011.461a11.3,11.3,0,0,0,.1,1.491c.024.195.059.4.11.645.04.19.084.391.138.6a.21.21,0,0,0,.017.057,10.775,10.775,0,0,0,1.113,2.669,11.006,11.006,0,0,0,.806,1.188c.243.317.477.572.692.8s.445.45.681.662a10.921,10.921,0,0,0,13.283.95l.035.035,5.663,5.8a2.164,2.164,0,1,0,3.093-3.027ZM18.319,10.875a7.4,7.4,0,0,1-14.794,0,4.208,4.208,0,0,1,.016-.447,7.216,7.216,0,0,1,.2-1.312,7.4,7.4,0,0,1,14.577,1.755Z" transform="translate(7.199 5.594)" fill="#2a5798"/>
        <path id="Vector-5" data-name="Vector" d="M5.366,9.935c1.967-2.034,6.52-7.015,8.3-8.837,1.191-1.222,2.256-1.421,3.09-.608.862.844.66,1.994-.58,3.256-2.077,2.116-6.941,7.384-9.031,9.489-1.31,1.321-2.067,1.314-3.378,0C2.749,12.218,1.734,11.2.742,10.163c-.929-.986-.98-2.055-.186-2.837a1.879,1.879,0,0,1,2.7.236C3.97,8.261,4.6,9.06,5.366,9.935Z" transform="translate(13.166 6.9)" fill="#f6b333"/>
      </g>
    </g>
  </g>
</svg>
