<svg xmlns="http://www.w3.org/2000/svg" width="20.981" height="20.651" viewBox="0 0 20.981 20.651"><defs><style>.a{fill:#fff;}</style></defs><g transform="translate(-336.062 -339.096)"><path class="a" d="M409.938,355.619v.451c-.008.011-.02.021-.023.033A1.4,1.4,0,0,1,408,357.112c-1.054-.391-2.128-.731-3.189-1.1a.572.572,0,0,0-.465.021,8.716,8.716,0,0,1-5.78.542,8.863,8.863,0,1,1,10.352-5.388,1.823,1.823,0,0,0-.023,1.447C409.277,353.613,409.594,354.621,409.938,355.619Zm-9.242-8.4h-3.583c-.479,0-.774.236-.779.621s.294.634.786.634h7.125a1.473,1.473,0,0,0,.285-.023.609.609,0,0,0,.491-.6.633.633,0,0,0-.7-.633Q402.508,347.219,400.7,347.221Zm-.02-1.316h3.255c.171,0,.342.007.512,0a.62.62,0,0,0,.575-.545.606.606,0,0,0-.409-.657,1.325,1.325,0,0,0-.384-.042q-3.542,0-7.084,0a1.754,1.754,0,0,0-.286.016.582.582,0,0,0-.485.416.622.622,0,0,0,.641.817C398.232,345.907,399.454,345.9,400.676,345.9Zm-1.414,3.891h0c-.751,0-1.5,0-2.253,0a.627.627,0,0,0-.675.617.62.62,0,0,0,.666.623q2.242,0,4.485,0a.823.823,0,0,0,.261-.037.618.618,0,0,0-.211-1.2C400.777,349.792,400.019,349.8,399.261,349.8Z" transform="translate(-52.894)"/><path class="a" d="M337.685,534.234c.952,5.114,3.983,8.1,9.136,8.992-.278.183-.554.391-.852.557a6.209,6.209,0,0,1-4.289.72,11.836,11.836,0,0,1-1.465-.436.528.528,0,0,0-.369-.011c-.746.262-1.492.525-2.245.768a1.147,1.147,0,0,1-1.538-1.145,1.658,1.658,0,0,1,.1-.417q.363-1.075.738-2.147a.458.458,0,0,0-.009-.368,6.605,6.605,0,0,1-.542-2.973A6.415,6.415,0,0,1,337.685,534.234Z" transform="translate(0 -185.141)"/></g></svg>