<svg xmlns="http://www.w3.org/2000/svg" width="17.095" height="16.825" viewBox="0 0 17.095 16.825"><defs><style>.a{fill:#2a5798;}</style></defs><path class="a" d="M406.579,352.557v.367c-.006.009-.017.017-.018.027a1.14,1.14,0,0,1-1.56.822c-.859-.319-1.733-.6-2.6-.9a.466.466,0,0,0-.379.017,7.1,7.1,0,0,1-4.709.442,7.221,7.221,0,1,1,8.434-4.39,1.485,1.485,0,0,0-.018,1.178C406.04,350.923,406.3,351.744,406.579,352.557Zm-7.53-6.842H396.13c-.391,0-.631.192-.634.506s.24.517.641.517h5.8a1.2,1.2,0,0,0,.232-.019.5.5,0,0,0,.4-.487.516.516,0,0,0-.571-.516Q400.526,345.714,399.049,345.716Zm-.016-1.072h2.652c.139,0,.278.006.417,0a.505.505,0,0,0,.468-.444.494.494,0,0,0-.334-.535,1.08,1.08,0,0,0-.312-.034q-2.886,0-5.772,0a1.432,1.432,0,0,0-.233.013.474.474,0,0,0-.4.339.506.506,0,0,0,.523.666C397.043,344.645,398.038,344.643,399.033,344.643Zm-1.152,3.17h0c-.612,0-1.224,0-1.835,0a.511.511,0,0,0-.55.5.5.5,0,0,0,.542.508q1.827,0,3.654,0a.67.67,0,0,0,.212-.03.5.5,0,0,0-.172-.978C399.115,347.81,398.5,347.813,397.881,347.813Z" transform="translate(-389.485 -339.096)"/><path class="a" d="M337.384,534.234a8.4,8.4,0,0,0,7.443,7.325c-.226.149-.451.319-.694.454a5.058,5.058,0,0,1-3.494.587,9.642,9.642,0,0,1-1.194-.355.43.43,0,0,0-.3-.009c-.608.213-1.216.428-1.829.626a.934.934,0,0,1-1.253-.933,1.351,1.351,0,0,1,.079-.339q.3-.876.6-1.749a.373.373,0,0,0-.007-.3,5.381,5.381,0,0,1-.441-2.422A5.227,5.227,0,0,1,337.384,534.234Z" transform="translate(-336.061 -526.089)"/></svg>