<svg xmlns="http://www.w3.org/2000/svg" width="26.66" height="35.067" viewBox="0 0 26.66 35.067"><defs><style>.a{fill:#f4b947;}.b{fill:#ed9e25;}</style></defs><g transform="translate(-433.904 -400.735)"><path class="a" d="M445.728,560.479c-.625-.046-1.25-.084-1.874-.138a20.657,20.657,0,0,1-7.4-1.775,6.354,6.354,0,0,1-2.331-1.754,1.007,1.007,0,0,1-.215-.58,38.893,38.893,0,0,1,.385-6.039,6.628,6.628,0,0,1,4.417-5.725,22.048,22.048,0,0,1,4.481-1.2.431.431,0,0,1,.318.106,5.051,5.051,0,0,0,3.132,1.288,5.845,5.845,0,0,0,3.379-.622c.336-.185.626-.451.946-.667a.5.5,0,0,1,.32-.1,21.909,21.909,0,0,1,4.575,1.245,6.555,6.555,0,0,1,3.378,2.81,8.066,8.066,0,0,1,.993,3.247c.162,1.873.243,3.755.334,5.633a1,1,0,0,1-.215.613,7.305,7.305,0,0,1-3.077,2.093,22.013,22.013,0,0,1-6.726,1.438c-.579.046-1.157.09-1.736.135Z" transform="translate(0 -124.677)"/><path class="b" d="M483.525,408.661a13.572,13.572,0,0,1,.542-3.881,5.427,5.427,0,0,1,4.752-3.907,10.824,10.824,0,0,1,4.379.188,5.073,5.073,0,0,1,3.794,3.545,13,13,0,0,1,.135,7.814,7.5,7.5,0,0,1-4.2,4.953,5.734,5.734,0,0,1-5.842-.618,8.178,8.178,0,0,1-3.352-5.373c-.176-.888-.2-1.807-.295-2.711Z" transform="translate(-43.332)"/></g></svg>