<svg xmlns="http://www.w3.org/2000/svg" xmlns:xlink="http://www.w3.org/1999/xlink" width="389.899" height="185.163" viewBox="0 0 389.899 185.163"><defs><style>.a{fill:#1e4174;}.b,.o{fill:#143c77;}.af,.c,.k,.q,.t{fill:none;}.ab,.ad,.d{fill:#2a5798;}.e{fill:#f6b333;}.f{fill:#e09736;}.g,.h{fill:#d1e4ff;}.h,.w,.x{stroke:#3b55ce;stroke-width:1.05px;}.ab,.ad,.h,.k,.o,.t,.w,.x{stroke-linecap:round;}.ab,.ad,.af,.h,.k,.o,.q,.t,.w,.x{stroke-miterlimit:10;}.i{fill:#3b55ce;}.j{clip-path:url(#a);}.ad,.k,.o{stroke:#aaeeed;}.k,.o,.q{stroke-width:0.551px;}.l{fill:#ff9a8d;}.m{fill:#0f0f0f;}.n{clip-path:url(#b);}.p{clip-path:url(#c);}.af,.q{stroke:#274d79;}.r{fill:#131414;}.s{fill:#ba5964;}.t{stroke:#001c45;stroke-width:0.788px;}.u{fill:#dd7a79;}.v,.w{fill:#e7f1fd;}.x{fill:#d6e7fe;}.y{fill:#1c1b1b;}.z{fill:#274d79;}.aa{clip-path:url(#d);}.ab{stroke:#8fc9c6;}.ab,.ad,.af{stroke-width:0.525px;}.ac{clip-path:url(#e);}.ae{clip-path:url(#f);}.ag{fill:#001c45;}</style><clipPath id="a"><path class="a" d="M480.834,265.208c-.054,1.361.267,4.674-.394,6.086-1.6.8-4.469.195-6.474-.859s-3.773-.321-6.491-.81c-2.667-.48-4.684-1.741-4.955-2.972-.3-1.343,4.523-1.164,7.885-1.371a14.648,14.648,0,0,0,5.989-1.522Z" transform="translate(-462.507 -263.761)"/></clipPath><clipPath id="b"><path class="b" d="M495.249,264.146c.914,1.011,3.461,3.156,3.975,4.626-.582,1.7-3.058,3.264-5.228,3.914s-2.922,2.409-5.206,3.959c-2.242,1.522-4.566,2.031-5.62,1.341-1.151-.753,2.419-3.995,4.677-6.494a14.656,14.656,0,0,0,3.216-5.275Z" transform="translate(-482.947 -264.146)"/></clipPath><clipPath id="c"><path class="c" d="M521.242,211.4a41.548,41.548,0,0,0,2.964,5.12c.9,1.527,3.668,5.6,2.066,9.882-1.718,4.6-5.536,5.739-9.488,5.739h-9.2c-2.7,0-19.264-4.073-19.264-4.073a7.279,7.279,0,0,1,2.849,4.073c.936,2.974,2.82,22.888,2.82,22.888a6.145,6.145,0,0,1-5.1,1.566s-5.015-15.427-7.024-21.16c-2.076-5.923-4.559-11.786-4.094-14.363.653-3.614,6.916-3.722,12.087-3.543s17.077.627,19.5.286l-1.255-4.327Z" transform="translate(-477.715 -211.404)"/></clipPath><clipPath id="d"><path class="d" d="M304.778,346.162c-.255,1.273-1.292,4.273-1,5.728,1.3,1.1,4.1,1.179,6.191.651s3.568.546,6.2.7c2.578.15,4.73-.566,5.255-1.646.574-1.178-3.93-2.09-7-3.032a13.977,13.977,0,0,1-5.209-2.749Z" transform="translate(-303.729 -345.814)"/></clipPath><clipPath id="e"><path class="d" d="M260,334.348c-1.3.092-4.462-.117-5.787.555-.72,1.551-.053,4.263,1.01,6.144s.417,3.584.963,6.16c.536,2.527,1.8,4.411,2.977,4.633,1.288.242.976-4.343,1.074-7.553a13.979,13.979,0,0,1,1.272-5.75Z" transform="translate(-253.91 -334.348)"/></clipPath><clipPath id="f"><path class="c" d="M267.036,329.086s23.252-12.594,24.812-13.806,10.909-33.245,11.63-35.313c0,0,6.888-5.612,7.84-10.059l-15.925-10.423c-1.217,2.616-1.207,4.362-4.45,10.908-3.1,6.25-4.217,23.857-7.195,38.778a27.028,27.028,0,0,0-4.786,1.867c-2.811,1.34-14.717,13.935-14.717,13.935A5.819,5.819,0,0,0,267.036,329.086Z" transform="translate(-264.247 -259.485)"/></clipPath></defs><g transform="translate(-208.326 -152.75)"><g transform="translate(208.326 153.224)"><g transform="translate(201.071 73.467)"><rect class="e" width="162.33" height="109.794" transform="translate(0 0)"/><path class="f" d="M430.2,234.291l76.192,69.517a7.377,7.377,0,0,0,9.946,0l76.192-69.517Z" transform="translate(-430.196 -234.291)"/><path class="f" d="M600.922,346.68l-81.165-84.712,81.165,77.5Z" transform="translate(-438.592 -236.886)"/><path class="f" d="M430.2,346.68l81.165-84.712-81.165,77.5Z" transform="translate(-430.196 -236.886)"/><path class="e" d="M430.2,234.291l75.023,63.384a9.516,9.516,0,0,0,12.282,0l75.024-63.384Z" transform="translate(-430.196 -234.291)"/></g><g transform="translate(345.649 142.039)"><path class="g" d="M594.51,351.178s-5.137-2.32-4.761-7.833,4.134-6.641,7.391-8.646,3.508-5.388,3.634-9.522,2.882-8.27,8.395-8.019,7.548,1.378,11.542-3.383,9.382-4.635,11.636-2a7.373,7.373,0,0,1-1.02,10.28c-4.161,3.8-5.238,4.753-6.441,8.931-1.631,5.668.722,11.191-1.374,13.826-2.8,3.521-5.824,2.655-8.706,3.8s-2.986,2.571-2.986,2.571Z" transform="translate(-589.729 -309.956)"/><path class="h" d="M628.624,316.006c-8.431,4.917-23.1,19.868-25.591,35.739" transform="translate(-590.976 -310.523)"/></g><g transform="translate(230.174)"><path class="i" d="M489.91,176.128a2.527,2.527,0,1,1,2.528,2.527A2.528,2.528,0,0,1,489.91,176.128Z" transform="translate(-464.897 -155.134)"/><g transform="translate(0 95.209)"><path class="b" d="M462.5,266.953c-.343.387-.379,1.326,1.222,2.495s4.9,1.632,6.235,1.689a7.915,7.915,0,0,1,4,.726c1.8.853,4.943,1.428,6.074.861.417-.3.385-1.13.385-1.13Z" transform="translate(-462.31 -259.094)"/><g transform="translate(0.178 4.966)"><path class="a" d="M480.834,265.208c-.054,1.361.267,4.674-.394,6.086-1.6.8-4.469.195-6.474-.859s-3.773-.321-6.491-.81c-2.667-.48-4.684-1.741-4.955-2.972-.3-1.343,4.523-1.164,7.885-1.371a14.648,14.648,0,0,0,5.989-1.522Z" transform="translate(-462.507 -263.761)"/><g class="j"><path class="k" d="M475.8,266.363a6.08,6.08,0,0,0-.908-2.692" transform="translate(-463.668 -263.753)"/><path class="k" d="M472.921,266.771a6.08,6.08,0,0,0-.908-2.692" transform="translate(-463.398 -263.791)"/><path class="k" d="M470.041,267.18a6.092,6.092,0,0,0-.908-2.692" transform="translate(-463.128 -263.829)"/></g></g><path class="l" d="M483.686,259.945l-1.416,4.75a2.4,2.4,0,0,0-.97.288c-.322.235-.9,1.129-1.326,1.044-1.689-.334-2.145-2.78-2.145-2.78l1.2-4.966Z" transform="translate(-463.765 -258.281)"/></g><path class="m" d="M508.221,213.709l-.642,5.005-17.468-.357a5.605,5.605,0,0,0-5.332,4.1c-1.219,4.18-5.783,32.23-5.783,32.23a7.619,7.619,0,0,0,4.947,1.416s8.235-17.034,9.414-21.713a24.281,24.281,0,0,0,.586-8.625L515,223.938Z" transform="translate(-463.874 -158.894)"/><g transform="translate(18.702 96.356)"><path class="b" d="M483.193,278.466c.025.516.655,1.213,2.618.929s4.64-2.257,5.638-3.152a7.912,7.912,0,0,1,3.37-2.282c1.881-.648,4.531-2.436,4.944-3.632.089-.5-.516-1.078-.516-1.078Z" transform="translate(-482.97 -260.457)"/><g transform="translate(0 4.168)"><path class="b" d="M495.249,264.146c.914,1.011,3.461,3.156,3.975,4.626-.582,1.7-3.058,3.264-5.228,3.914s-2.922,2.409-5.206,3.959c-2.242,1.522-4.566,2.031-5.62,1.341-1.151-.753,2.419-3.995,4.677-6.494a14.656,14.656,0,0,0,3.216-5.275Z" transform="translate(-482.947 -264.146)"/><g class="n"><path class="o" d="M492.273,269.71a6.08,6.08,0,0,0-2.532-1.29" transform="translate(-483.584 -264.547)"/><path class="o" d="M490.5,272.017a6.079,6.079,0,0,0-2.532-1.29" transform="translate(-483.418 -264.763)"/><path class="o" d="M488.727,274.324a6.086,6.086,0,0,0-2.532-1.29" transform="translate(-483.252 -264.979)"/></g></g><path class="l" d="M495.148,259.547l.767,4.168a2.4,2.4,0,0,0-.491.885c-.066.392.146,1.436-.217,1.674-1.442.942-3.478-.487-3.478-.487l-1.682-5.155Z" transform="translate(-483.613 -259.547)"/></g><path class="m" d="M521.242,211.4a41.556,41.556,0,0,0,2.964,5.12c.9,1.527,3.668,5.6,2.066,9.882-1.718,4.6-5.536,5.739-9.488,5.739h-9.2c-2.7,0-19.264-4.073-19.264-4.073a7.279,7.279,0,0,1,2.849,4.073c.936,2.974,2.82,22.888,2.82,22.888a6.145,6.145,0,0,1-5.1,1.566s-4.964-15.445-7.024-21.16c-2.154-5.969-4.559-11.786-4.094-14.363.652-3.614,6.916-3.722,12.087-3.543s17.077.627,19.5.286l-1.255-4.327Z" transform="translate(-463.754 -158.678)"/><path class="m" d="M527.117,226.406c1.6-4.286-1.168-8.355-2.066-9.882a41.439,41.439,0,0,1-2.964-5.12l-13.141,2.089.8,2.767s7.287,1,10.465-2.767a32.119,32.119,0,0,1,3,5.651c.928,2.923.674,7.663-5.048,8.8s-26.841-1.967-29.637-2.278-1.864,1.3-.311,4.587,2.2,9.172,3.6,16.225c.892,4.5,1.9,9.41,1.9,9.41a5.061,5.061,0,0,0,1.125-.855s-1.884-19.914-2.82-22.888a7.279,7.279,0,0,0-2.849-4.073s16.569,4.073,19.264,4.073h9.2C521.581,232.146,525.4,231,527.117,226.406Z" transform="translate(-464.599 -158.678)"/><g transform="translate(13.961 52.726)"><g class="p"><path class="q" d="M488.753,259.022a7.637,7.637,0,0,0,6.6-2.006" transform="translate(-478.75 -215.68)"/></g></g><path class="r" d="M517.732,158.559s-2.634-2.229-7.55-1.763c-3.914.371-6.776,2.646-7.676,5.509a9.646,9.646,0,0,0,4.116,11.032s-1.473.8.163,2.356c0,0-2.536.62-3.354,2.027s0,2.728.491,4.318.654,1.836-1.473,3.962-3.956,5.89-.955,10.716,8.217,8.872,15.465,8.488c7.333-.389,15.611-2.832,17.689-14.127s-5.039-13.866-7-13.358a23.5,23.5,0,0,0,1.512-11.039c-.654-6.217-3.688-9.009-6.242-9.21C519.159,157.175,517.732,158.559,517.732,158.559Z" transform="translate(-465.836 -153.553)"/><path class="l" d="M514.7,183.138a11.351,11.351,0,0,0-3.447,1.2c-.858.669-9.331,13.864-9.331,13.864s-7.806-12.216-8.966-13.671c-1.216-1.525-7.164-3.432-8.246-3.215-1.339.267-.615,1.937-.343,3.022.156.622.4,2.341,1.5,3.1s5.021,1.352,5.021,1.352,7.023,14.781,8.475,17c.939,1.434,1.973,1.451,3.715-.465,1.687-1.854,8.416-10.68,8.416-10.68Z" transform="translate(-464.337 -155.856)"/><path class="d" d="M517.345,183.328c-1.549.56-2.975.525-3.757,1.522s-1.459,5.554-1.459,5.554,3.881-.771,4.915-2.807a9.831,9.831,0,0,0,1.061-3.876Z" transform="translate(-466.98 -156.046)"/><path class="d" d="M522.421,180.525a2.716,2.716,0,0,0,1.311.47c.865.126,3.688.74,4.258,1.8,1.37,1.891-.034,8.094-.833,12.447-.487,2.654-5.191,8.613-1.978,14.692,0,0-7.24,4.274-14.547.666-.763-3.618.134-6.139.159-10.211a9.037,9.037,0,0,1-2.151-4.518c-.347-4.967,4.62-6.482,8.489-12.012,1.08-1.543,1.9-1.468,3.367-2.594A3.471,3.471,0,0,1,522.421,180.525Z" transform="translate(-466.651 -155.783)"/><path class="l" d="M525.941,182.853c2.187-1.379,3.961.322,5,2.808s6.505,17.933,6.985,19.852-1.631,20.915-2.207,22.019-1.177,1.89-3.371,1.89h-10.08a3.29,3.29,0,0,1,2.226-1.46c1.727-.43,6.62-.574,7.58-2.109s.551-19.253.551-19.253-6.072-12.971-7.415-16.195S524.388,183.831,525.941,182.853Z" transform="translate(-467.93 -155.955)"/><path class="d" d="M527.166,181.97c-1.3,0-4.262,2.945-1.757,8.393,0,0,3.248-4.607,6.223-3.487C531.631,186.876,530.331,181.231,527.166,181.97Z" transform="translate(-468.134 -155.913)"/><g transform="translate(43.134 4.468)"><path class="l" d="M520.55,175.026l2.285,2.033,1.01,3.421a8.966,8.966,0,0,0-1.987,1.793c-.672,1.014-2.18,3.453-3.994,3.66a14.753,14.753,0,0,0-.092-3.383c-.275-1.184-1.1-3.533-1.1-3.533Z" transform="translate(-510.54 -159.736)"/><path class="s" d="M520.55,175.026a12.273,12.273,0,0,1,.409,2.886,7.405,7.405,0,0,1-3.187,4.637c-.275-1.184-1.1-3.533-1.1-3.533Z" transform="translate(-510.54 -159.736)"/><path class="l" d="M514.126,159.663c-2.127.194-4.26,3.142-4.22,5.824s.661,4.142.49,6.036a11.73,11.73,0,0,0,.637,5.707c.529,1.321,1.908,1.619,3.744,1.175a13.482,13.482,0,0,0,4.509-2.534c.529-.509.63-2.291.63-2.291a5.257,5.257,0,0,0,3.66-2.665C524.725,168.619,524.517,158.717,514.126,159.663Z" transform="translate(-509.905 -158.289)"/><path class="r" d="M520.062,173.444A3.446,3.446,0,0,0,522.148,170c-.209-2.613-3.728-2.706-3.585-.407a7.8,7.8,0,0,1-3.96-2.246,12.6,12.6,0,0,1-3.132-6c.6-4.116,7.344-2.66,7.344-2.66s3.417-1.477,6.327.462c2.082,1.388,3.144,6.372,1.456,10.522a12.885,12.885,0,0,1-4.251,5.8Z" transform="translate(-510.052 -158.154)"/><g transform="translate(9.334 11.218)"><path class="s" d="M521.518,170.616a1.444,1.444,0,0,0-1.277.143c-.12.1.085.294.2.251.648-.241,1.441-.275,1.761.484.017.04.045,0,.04-.029A1.057,1.057,0,0,0,521.518,170.616Z" transform="translate(-520.205 -170.532)"/><path class="s" d="M521.24,170.691c-.072-.034-.236.145-.221.195a.878.878,0,0,1,.353.312,1.165,1.165,0,0,1,.154.733,1.31,1.31,0,0,1-1.046,1.257c-.012,0-.031.035-.012.04a1.257,1.257,0,0,0,1.3-.922A1.344,1.344,0,0,0,521.24,170.691Z" transform="translate(-520.229 -170.547)"/></g></g><path class="l" d="M517.9,183.836c.036.736-1.352,2.356-1.01,3.476s2.665,1.271,3.92,0,1.987-5.256,3.695-6.339a.97.97,0,0,1-.845-.689Z" transform="translate(-467.421 -155.761)"/><path class="b" d="M490.025,179.933s-.684,6.037,1.648,10.868a1.007,1.007,0,0,1-.431,1.31l-2.842,1.579a1.016,1.016,0,0,1-1.5-.7,30.282,30.282,0,0,1,.557-13.356Z" transform="translate(-464.569 -155.7)"/><path class="l" d="M486.969,181.688c.72.2,1.761.65,1.79,1.333s-1.1.714-1.1.714.8.357.863.863-.446,1.01-1.19,1.01c0,0,.769.261.533.949s-1.366.121-1.589.627a3.215,3.215,0,0,1-.728-2.112C485.488,183.617,486.969,181.688,486.969,181.688Z" transform="translate(-464.488 -155.892)"/><path class="l" d="M493.346,184.451a5.234,5.234,0,0,0-2.913-2.884c-1.324-.519-1.951-1.54-2.3-1.02s.592,2.16,2.041,2.654Z" transform="translate(-464.724 -155.772)"/><path class="b" d="M485.538,178.913l5.872.74c1.507.181,2.441-7.565.933-7.747l-5.764-.97Z" transform="translate(-464.487 -154.885)"/><path class="d" d="M484.9,169.912c-2.142-.242-9.51-3.688-11.112-9.886-6.042-.767-8.874,21.554-2.832,22.32,1.663-3.854,9.942-4.831,12.9-4.458C485,178.038,486.045,170.062,484.9,169.912Z" transform="translate(-462.806 -153.86)"/><path class="t" d="M513.739,153.224a8.38,8.38,0,0,1,5.289,5.006" transform="translate(-467.131 -153.224)"/></g><g transform="translate(93.411 15.265)"><path class="u" d="M313.616,232.2c4.844,4.414,10.11,7.41,16.215,6.249,8.6-1.637,15.31-10.4,15.31-10.4a30.211,30.211,0,0,1,2.215,3.177c0,.289-5.681,11.555-15.985,13.866s-19.569-5.071-19.569-5.071Z" transform="translate(-311.438 -175.504)"/><path class="d" d="M403.93,287.613a14.332,14.332,0,0,0,18.031,4.568l11.47-5.654a4.758,4.758,0,0,1,6.117,1.713l20.733,32.577a4.754,4.754,0,0,1-1.665,6.694c-6.7,3.794-20.554,10.212-35.8,8.969-21.4-1.744-35.338-21.644-58.908-58.681s-35.7-58.086-28.215-78.214c5.331-14.341,17.011-24.17,23.286-28.637a4.754,4.754,0,0,1,6.769,1.327l11.044,17.353,9.688,15.223a4.758,4.758,0,0,1-1.039,6.268l-9.979,8a14.334,14.334,0,0,0-3.5,18.269Z" transform="translate(-313.471 -170.068)"/><path class="b" d="M378.87,217.852l8.4-6.732a4.758,4.758,0,0,0,1.039-6.268l-10.96-17.222-9.9-15.518a4.742,4.742,0,0,0-6.639-1.164,77.564,77.564,0,0,0-7.8,6.377Z" transform="translate(-315.301 -170.069)"/><path class="b" d="M458.874,343.867a77.508,77.508,0,0,0,9.073-4.36,4.741,4.741,0,0,0,1.771-6.482l-21.3-33.387a4.749,4.749,0,0,0-5.652-1.115l-9.752,4.808Z" transform="translate(-322.8 -182.064)"/><path class="f" d="M313.89,232.9l3.924,2.939s1.77,5.427-1.219,8.249l-5.2-3.148Z" transform="translate(-311.4 -175.958)"/></g><g transform="translate(6.024 148.513)"><path class="g" d="M237.122,351.848a23.676,23.676,0,0,0,6.356-8.082c2.572-5.375.283-10.065-3.316-9.382-3.836.727-4.368-2.408-5.424-6.376-1.267-4.761-7.422-11.541-12.448-10.86-6.482.879-2.383,7.814-1.722,10.329s2.3,5.414-1.722,5.809c-3.662.361-5.265,3.684-2.413,7.088,2.713,3.236,5.666,3.187,5.8,6.472s2.177,4.211,3.9,5Z" transform="translate(-214.973 -317.099)"/><path class="h" d="M226.034,323.488s8.831,11.53,6.6,28.958" transform="translate(-216.01 -317.698)"/></g><g transform="translate(101.96 159.995)"><path class="v" d="M325.952,353.035a9.6,9.6,0,0,0,1-8.215c-1.948-6.264-7.76-9.159-5.664-13.259,1.744-3.41,6.955-1.685,9.719,2.913,2.654,4.416,2.858,13.724-1.334,18.562Z" transform="translate(-320.833 -329.769)"/><path class="w" d="M325.85,333.719s8,8.656,2.763,19.687" transform="translate(-321.304 -330.139)"/></g><g transform="translate(108.834 150.804)"><path class="g" d="M332.591,352.085a26.558,26.558,0,0,0,9.355-11.318c3.31-7.628,3.454-16.551,0-19.717-3.227-2.958-7.052-1.152-8.06,4.029s1.3,18.321-5.468,27.006Z" transform="translate(-328.418 -319.627)"/><path class="x" d="M339.192,322.784a45.776,45.776,0,0,1-1.3,16.14,38.614,38.614,0,0,1-6.62,13.457" transform="translate(-328.686 -319.923)"/></g><g transform="translate(159.245 151.142)"><path class="g" d="M422.91,352.12a34.053,34.053,0,0,0-8.326-20.6c-8.46-9.937-18.136-13.494-26.5-10.48-6.224,2.243-4.625,9.45.464,12.518,6.023,3.633,28.582,5.1,29.388,18.562Z" transform="translate(-384.043 -320)"/><path class="h" d="M389.5,326.458C400.99,325.8,418.587,336.4,421,352.722" transform="translate(-384.555 -320.603)"/></g><g transform="translate(192.152 154.424)"><path class="v" d="M428.939,352.459s5.565-5.934,4.491-17.365S422.3,320.826,420.5,326.354c-1.421,4.346,8.368,14.473,4.877,26.106Z" transform="translate(-420.354 -323.622)"/><path class="w" d="M425.891,327.524c2.157,2.792,6.3,14.216,2.074,25.3" transform="translate(-420.873 -323.988)"/></g><path class="y" d="M583.53,356.722H209.753a1.427,1.427,0,0,1-1.427-1.427h0a1.428,1.428,0,0,1,1.427-1.427H583.53a1.428,1.428,0,0,1,1.427,1.427h0A1.427,1.427,0,0,1,583.53,356.722Z" transform="translate(-208.326 -172.033)"/></g><g transform="translate(248.693 193.059)"><g transform="translate(0 56.396)"><g transform="translate(46.075 73.573)"><path class="z" d="M321.422,352.193c.231.435.055,1.313-1.689,2.038s-4.9.419-6.154.172a7.552,7.552,0,0,0-3.873-.222c-1.857.389-4.9.218-5.82-.56-.32-.369-.1-1.133-.1-1.133Z" transform="translate(-303.71 -341.68)"/><g transform="translate(0.018 4.732)"><path class="d" d="M304.778,346.162c-.255,1.273-1.292,4.273-1,5.728,1.3,1.1,4.1,1.179,6.191.651s3.568.546,6.2.7c2.578.15,4.73-.566,5.255-1.646.574-1.178-3.93-2.09-7-3.032a13.977,13.977,0,0,1-5.209-2.749Z" transform="translate(-303.729 -345.814)"/><g class="aa"><path class="ab" d="M310.931,348.678a5.8,5.8,0,0,1,1.443-2.292" transform="translate(-304.405 -345.868)"/><path class="ab" d="M313.509,349.7a5.79,5.79,0,0,1,1.443-2.292" transform="translate(-304.646 -345.964)"/><path class="ab" d="M316.086,350.724a5.8,5.8,0,0,1,1.444-2.292" transform="translate(-304.888 -346.059)"/></g></g><path class="l" d="M304.886,340.593v5.08a2.3,2.3,0,0,1,.834.485c.246.288.581,1.247.994,1.263,1.641.068,2.609-2.1,2.609-2.1l.617-4.618Z" transform="translate(-303.82 -340.593)"/></g><g transform="translate(0 65.555)"><path class="z" d="M259.063,351.9c-.358.338-1.252.4-2.413-1.09s-1.7-4.616-1.793-5.89a7.552,7.552,0,0,0-.81-3.794c-.865-1.688-1.506-4.666-1-5.761.271-.406,1.065-.4,1.065-.4Z" transform="translate(-252.869 -332.047)"/><g transform="translate(0.944 2.358)"><path class="d" d="M260,334.348c-1.3.092-4.462-.117-5.787.555-.72,1.551-.053,4.263,1.01,6.144s.417,3.584.963,6.16c.536,2.527,1.8,4.411,2.977,4.633,1.288.242.976-4.343,1.074-7.553a13.979,13.979,0,0,1,1.272-5.75Z" transform="translate(-253.91 -334.348)"/><g class="ac"><path class="ad" d="M259.606,340.9a5.806,5.806,0,0,1,2.592.786" transform="translate(-254.444 -334.962)"/><path class="ad" d="M259.3,343.653a5.793,5.793,0,0,1,2.592.786" transform="translate(-254.416 -335.22)"/><path class="ad" d="M259,346.41a5.793,5.793,0,0,1,2.592.786" transform="translate(-254.387 -335.479)"/></g></g><path class="l" d="M263.783,331.746,260.5,334.1a2.287,2.287,0,0,1-.247.933c-.214.313-1.049.89-.956,1.293.369,1.6,2.712,1.962,2.712,1.962l4.56-2.432Z" transform="translate(-253.471 -331.746)"/></g><path class="d" d="M314.048,260.738c-5.689,0-9.924.429-9.924.429-1.82.8-4.942,4.932-5.861,7.556s.444,6.295.924,8.553c2.671,12.582,5.4,21.324,6.442,26.312.634,3.05-1.627,3.538-1.648,8.372-.03,6.919.256,21.67.256,21.67a6.651,6.651,0,0,0,4.947.392s4.27-24.328,4.738-27.112c.759-4.515,1.021-6.409,1.107-14.221C315.147,281.7,314.048,260.738,314.048,260.738Z" transform="translate(-257.095 -259.535)"/><path class="d" d="M310.818,270.145c-.952,4.453-7.335,9.81-7.335,9.81-.723,2.074-10.078,34.1-11.638,35.322s-24.807,13.8-24.807,13.8a5.263,5.263,0,0,1-2.208-2.322,6.607,6.607,0,0,1-.533-1.523,2.141,2.141,0,0,1-.038-.218.163.163,0,0,1-.01-.048s11.9-12.59,14.711-13.931a26.344,26.344,0,0,1,4.787-1.865v-.01c3.2-14.88,3.1-26.511,5.69-34.732a36.2,36.2,0,0,1,1.5-4.044c.666-1.456,1.17-2.674,1.58-3.711.171-.447.324-.856.466-1.247s.266-.751.372-1.084c.076-.229.142-.448.209-.647.295-.933.5-1.685.732-2.4.105-.314.209-.618.324-.933.067-.152.124-.314.19-.466s.133-.324.209-.486h.01v.01l4.443,3.311,2.141,1.589Z" transform="translate(-253.935 -259.41)"/><path class="d" d="M301.618,264.32a21.143,21.143,0,0,1-2.712,2.912c-3.3,2.874-5.3,7.344-7.056,16.609-1.984,10.437-5.314,25.955-5.714,26.916s-3.331.6-8.7,4.52c-4.054,2.959-9.943,9.116-12.608,11.476a6.607,6.607,0,0,1-.533-1.523c-.019-.105-.029-.18-.038-.218a.163.163,0,0,1-.01-.048s11.9-12.59,14.711-13.931a26.344,26.344,0,0,1,4.787-1.865v-.01c3.053-14.88,3.1-26.511,5.69-34.732a34.237,34.237,0,0,1,1.513-4.035c.666-1.455,1.171-2.673,1.571-3.72.18-.447.333-.866.466-1.247s.266-.751.372-1.084c.076-.229.142-.448.209-.647.295-.933.5-1.685.732-2.4.105-.314.209-.618.324-.933.067-.152.124-.314.19-.466s.143-.314.219-.476v-.01l4.443,3.321Z" transform="translate(-253.935 -259.41)"/><path class="d" d="M313.571,271.122s-2.909,3.812-10.909,4.111a16.96,16.96,0,0,1-9.042-2.01l2.158-3.384Z" transform="translate(-256.689 -260.388)"/><g transform="translate(10.312 0.068)"><g class="ae"><path class="af" d="M307.445,261.59c-3.35,4.3-7.624,6.9-9.4,9.852s-2.766,9.324-5.069,20.968c-2.287,11.568-4.372,19.446-5,20.142s-4.558,1.387-10.689,5.5a131.749,131.749,0,0,0-13.239,10.706" transform="translate(-264.228 -259.682)"/><path class="af" d="M307.029,272.822s-1.33,7.325-7.847,6.1" transform="translate(-267.522 -260.735)"/><path class="af" d="M265.64,329.225a8.253,8.253,0,0,0,3.93,6.334" transform="translate(-264.378 -266.023)"/></g></g></g><g transform="translate(48.795 18.332)"><path class="l" d="M306.711,223.97l5.51,4.721,3.157-7.494-6.561-3.787Z" transform="translate(-306.711 -217.409)"/><path class="s" d="M314.654,223.414s-6.5-1.821-5.627-6l6.561,3.786Z" transform="translate(-306.921 -217.409)"/></g><path class="e" d="M310.965,229.182a6.453,6.453,0,0,1,2.265,4.217c.3,2.663.536,6.648.76,12.435.2,5.254.733,20.5.733,20.5s-4.023,2.637-10.78,2.1c-6.454-.517-9.239-3.69-9.239-3.69s.672-21.438,2.794-29.876c3.134-8.7,8.087-10.214,8.087-10.214Z" transform="translate(-256.79 -199.755)"/><g transform="translate(44.266)"><path class="l" d="M308.6,216.143a14.924,14.924,0,0,0,.759,1.5c.386.641,5.791,2.834,7.217,3.007s3.32-.116,2.943-4.876-1.587-8.881-4.768-11.036-7.64.2-9.566,3.249S305.318,217.021,308.6,216.143Z" transform="translate(-301.97 -197.81)"/><path class="ag" d="M308.349,215.513h0l-.7,2.191s-.546.261-1.924-1.452c-1.508-1.873-4.259-5.072-3.989-7.1.354-2.666,3.409-3.628,3.409-3.628a13.628,13.628,0,0,1,7.65-7.545c6.093-2.617,8.785,1.788,4.1,5.039,0,0,3.258,1.627,1.2,2.861s-7.937,1.08-7.937,1.08,2.886,1.1,2.027,1.919-4.584.48-4.584.48l.466,1.877a2.375,2.375,0,0,0-2.338.517C304.745,212.928,306.253,216.13,308.349,215.513Z" transform="translate(-301.714 -197.18)"/><path class="t" d="M304.572,200.056s-1.815,3.93,1.6,6.572a4.442,4.442,0,0,1-4.123-3.334" transform="translate(-301.745 -197.45)"/><g transform="translate(4.306 14.889)"><path class="s" d="M306.915,213.876a1.377,1.377,0,0,1,1.209-.2c.134.058,0,.292-.12.282-.656-.053-1.393.121-1.491.9-.005.042-.042.01-.044-.016A1.007,1.007,0,0,1,306.915,213.876Z" transform="translate(-306.465 -213.61)"/><path class="s" d="M307.252,213.877c.057-.05.254.072.253.122a.834.834,0,0,0-.245.377,1.113,1.113,0,0,0,.048.712,1.249,1.249,0,0,0,1.284.884c.011,0,.037.024.021.034a1.2,1.2,0,0,1-1.427-.511A1.282,1.282,0,0,1,307.252,213.877Z" transform="translate(-306.509 -213.634)"/></g></g><path class="f" d="M303.84,229.858c-1.333.705-3.084,4.553-1.84,8.711s2.856,8.446,2.856,8.446,6.423-1.517,8.114-5.609c0,0-2.268-5.544-3.324-7.787S307.208,228.077,303.84,229.858Z" transform="translate(-257.435 -200.196)"/><path class="f" d="M310.988,255.459a18.149,18.149,0,0,0,4.5,3.459c-.086-2.423-.178-4.471-.259-6.716l-4.807-6.385-3.16-.855-1.134,3.275S308.687,253.157,310.988,255.459Z" transform="translate(-257.861 -201.659)"/><path class="l" d="M305.454,229.845c-3.037.807-4.072,5.163-1.016,11.911,2.93,6.47,7.652,12.392,10.555,14.414s14.148,1.357,23.552-1.424c0,0,5.359-1.924,6.849-3.244,3.321-2.943,3.483-6.85,1.045-6.269s-6.288,3.223-6.288,3.223-1.021-2.011-1.763-3.577c0,0-.659.172-.891,1.565s-.211,3.335-.617,3.618c-1.08.753-16.154,2.022-17.955.247-2.038-2.009-4.993-7.341-7.091-12.263C309.516,232.6,308.559,229.02,305.454,229.845Z" transform="translate(-257.53 -200.231)"/><path class="e" d="M304.394,229.055c-1.334.706-3.085,4.554-1.841,8.711s2.857,8.447,2.857,8.447,6.029-.913,8.589-4.375c0,0-2.744-6.777-3.8-9.021S307.761,227.274,304.394,229.055Z" transform="translate(-257.486 -200.121)"/></g></g></svg>