<svg xmlns="http://www.w3.org/2000/svg" xmlns:xlink="http://www.w3.org/1999/xlink" width="553" height="371.029" viewBox="0 0 553 371.029"><defs><style>.a{opacity:0.1;}.b{fill:none;}.c{fill:#8cacd6;}.d,.m{fill:#7d97f4;}.e{fill:#f0f0f0;}.f,.j,.n,.t{fill:#245799;}.f{opacity:0.2;}.g{fill:url(#a);}.h{fill:#bdd0fb;}.i{fill:url(#b);}.j{opacity:0.4;}.k,.l,.m{opacity:0.83;}.l,.r,.u{fill:#91b3fa;}.o,.v{fill:#fff;}.p{fill:#1d467c;}.q{fill:#f6b333;}.s{fill:#e7f1fd;}.t,.u{opacity:0.6;}.v{opacity:0.65;}.w{fill:#121117;}.x{fill:#454545;}.y{fill:url(#c);}.z{fill:url(#d);}.aa{fill:#ffe2a9;}</style><linearGradient id="a" x1="936.57" y1="737.35" x2="1952.35" y2="737.35" gradientUnits="objectBoundingBox"><stop offset="0" stop-color="#dae3fe"/><stop offset="1" stop-color="#e9effd"/></linearGradient><linearGradient id="b" x1="1477.16" y1="1093.35" x2="1996.02" y2="1093.35" xlink:href="#a"/><linearGradient id="c" x1="433.808" y1="1361.27" x2="443.758" y2="1448.14" gradientUnits="objectBoundingBox"><stop offset="0" stop-color="#ff928e"/><stop offset="1" stop-color="#feb3b1"/></linearGradient><linearGradient id="d" x1="330.851" y1="1372.39" x2="340.161" y2="1453.65" xlink:href="#c"/></defs><g class="a" transform="translate(0 -1.536)"><g transform="translate(0 1.537)"><g transform="translate(0)"><path class="b" d="M510.95,104.789c9.32,20.575,29.268,37.142,30.947,59.744,1.048,14.019-5.362,27.481-12.652,39.487s-15.756,23.617-19.615,37.134c-6.337,22.2,6.007,37.854,18.908,54.134,5.425,6.835,9.883,15.291,8.765,23.966a20.845,20.845,0,0,1-2.921,8.149c-8.7,14.361-32.744,18.315-48.066,19.529-14.24,1.128-28.532,1.635-42.811,1.993-36.673.92-73.4.613-110.077-.066-55.856-1.036-114.271.652-169.682-7.647-34.2-5.123-161.886-33.948-81.441-74.838,0,0-141.428-140.925-53.5-218.489,22.648-19.979,50.017-34.413,80.066-38.7,29.1-4.148,55.288-.35,83.688,5.975,12.532,2.789,25.278,5.6,38.083,4.669,12.233-.886,23.987-5.152,36.149-6.737,14.918-1.943,30.614.11,44.008,6.8,13.26,6.624,25.113,8.83,39.856,4.824C365.061,20.805,378.086,13,392.011,7.609,410.827.325,431.788-2.454,451.343,2.5c33.1,8.378,50.187,34.944,53.459,67.68.846,8.47.741,17.087,2.85,25.344a56.2,56.2,0,0,0,3.3,9.269Z" transform="translate(8.937 6.336)"/><path class="c" d="M76.752,124.746c15.487-9.558,18.944-38.829,9.137-47.562-6.627-5.9-15.012,1.4-24.024-4.561C50.358,65,57.266,48.631,47.233,28.742,38.7,11.818,20.016-3.439,10.022.68-.437,4.991-4.215,31.7,6.057,46.88c6.68,9.871,15.822,9.726,18.475,19.161C27.613,76.99,16.9,82.847,17.6,93.624,18.861,112.983,56.27,137.391,76.752,124.746Z" transform="translate(0 214.415)"/><path class="d" d="M35.212,95.343a.66.66,0,0,0,.524-.986C11.288,51.79,1.42,1.087,1.31.579A.657.657,0,0,0,.1.307a.662.662,0,0,0-.08.519c.1.51,10.02,51.429,34.578,94.185a.657.657,0,0,0,.613.331Z" transform="translate(33.388 251.841)"/><path class="e" d="M14.606,46.855a.316.316,0,0,0,.212-.526C7.483,38.141-.9,25.649.866,12.642A22.473,22.473,0,0,1,6.184.55.315.315,0,1,0,5.741.1,22.8,22.8,0,0,0,.24,12.555c-1,7.313.639,19.19,14.106,34.195a.314.314,0,0,0,.259.105Z" transform="translate(4.337 219.997)"/><path class="e" d="M3.363,43.318a.314.314,0,0,0,.249-.155C12.88,27.277,15.578,15.319,11.628,7.625,8.115.79.419,0,.343,0A.316.316,0,0,0,.073.517.314.314,0,0,0,.286.63c.073,0,7.439.752,10.787,7.287,3.84,7.489,1.147,19.24-8,34.923a.315.315,0,0,0,.293.473Z" transform="translate(74.57 291.89)"/><path class="f" d="M183.484,238.246a14.436,14.436,0,0,1,9.747-10.176,99.629,99.629,0,0,0,35.282-19.261c21.538-18.062,33.451-42.525,33.978-65.038a14.578,14.578,0,0,1,8.6-13.033c13.661-6.1,27.963-15.946,41.016-28.985,33.5-33.48,46.072-75.311,28.087-93.431s-59.725-5.668-93.216,27.815c-13.315,13.309-23.314,27.936-29.42,41.868a14.647,14.647,0,0,1-13.328,8.8c-19.337.155-40.4,7.813-58.313,22.833A103.959,103.959,0,0,0,132.461,123.2a14.426,14.426,0,0,1-14.287,4.905c-27.746-6.209-58.633.542-82.892,20.885C-5.082,182.827-11.8,241.479,20.249,279.983s90.777,42.273,131.141,8.412A98.418,98.418,0,0,0,183.484,238.246Z" transform="translate(204.6 39.863)"/><path class="g" d="M266,.792c-3.99,5.673-8.241,11.128-12.574,16.514s-8.807,10.673-13.386,15.857q-13.718,15.57-28.553,30.1-14.8,14.545-30.68,27.933c-1.31,1.115-2.62,2.258-3.958,3.352l-4.016,3.283c-2.677,2.19-5.341,4.393-8.086,6.5l-4.086,3.194c-1.367,1.051-2.709,2.15-4.107,3.155l-8.317,6.2c-1.375,1.051-2.808,2.016-4.212,3.026l-4.233,3c-1.417.991-2.819,2-4.249,2.976l-4.314,2.892-4.314,2.892-2.156,1.441c-.72.476-1.459.925-2.19,1.391l-8.773,5.52c-1.451.941-2.957,1.793-4.437,2.681l-4.453,2.645-4.453,2.645c-1.5.862-3.018,1.685-4.527,2.529l-9.1,5.031L77.6,160.294c-1.543.789-3.062,1.6-4.623,2.342l-4.684,2.224-4.681,2.224L61.27,168.2l-1.171.555-1.187.526-9.5,4.146-2.376,1.036-1.187.526-1.205.478-4.817,1.914-4.82,1.9-2.41.949c-.8.321-1.606.636-2.423.915L20.408,184.6c-1.632.568-3.248,1.175-4.891,1.709l-4.94,1.554L.691,190.951a.53.53,0,0,1-.325-1.009H.384l9.8-3.273,4.9-1.625c1.629-.555,3.232-1.186,4.849-1.777l9.692-3.6c.809-.289,1.606-.618,2.4-.946l2.389-.983L39.2,175.78l4.781-1.951,1.194-.489,1.179-.526,2.358-1.052,9.43-4.206,1.176-.526,1.16-.565,2.321-1.13,4.642-2.258,4.642-2.258c1.548-.752,3.054-1.577,4.584-2.366l9.147-4.79,9.016-5.031c1.5-.846,3.01-1.669,4.5-2.531l4.432-2.647,4.432-2.647c1.472-.891,2.968-1.743,4.411-2.684,11.707-7.253,23.073-15.044,34.255-23.083a604.054,604.054,0,0,0,63.22-53.185Q224.964,47.5,238.8,32.1q6.95-7.663,13.553-15.631,1.658-1.985,3.282-4t3.232-4.038c2.143-2.7,4.257-5.428,6.287-8.212a.529.529,0,0,1,.859.618Z" transform="translate(245.33 89.099)"/><path class="h" d="M121.35,98.152c8.927-8.846,13.716-20.042,14.059-30.578a5.257,5.257,0,0,1,3.287-4.755,50.2,50.2,0,0,0,16.267-11.2c15.5-15.362,24.265-38.7,15.256-47.843s-32.367-.668-47.874,14.695a52.608,52.608,0,0,0-10.478,14.182,5.364,5.364,0,0,1-5.2,3C95.406,35.031,83,39.7,73.294,49.323A49.774,49.774,0,0,0,64.912,60.3a5.424,5.424,0,0,1-6.682,2.366c-15.751-5.725-33.574-2.71-45.766,9.316-17.289,17.055-16.487,46.455,1.755,64.544,18.02,17.876,46.256,18.7,63.348,1.767a42.139,42.139,0,0,0,11.764-22.308,5.3,5.3,0,0,1,4.689-4.327A46.45,46.45,0,0,0,121.35,98.152Z" transform="translate(370.091 207.473)"/><path class="i" d="M135.9.226c-1.975,2.939-4.089,5.783-6.248,8.57s-4.4,5.52-6.664,8.241c-4.568,5.389-9.315,10.631-14.274,15.665a275.663,275.663,0,0,1-31.864,27.97C71.206,64.951,65.3,68.894,59.28,72.643A200.377,200.377,0,0,1,40.59,82.874c-1.614.754-3.217,1.522-4.836,2.263l-4.919,2.1c-1.632.715-3.316,1.314-4.977,1.935l-2.507.933-1.252.465-1.273.415-5.1,1.63c-.843.287-1.716.5-2.578.739l-2.591.694-2.591.683c-.864.226-1.75.386-2.62.584L.086,96.41,0,96.1l5.108-1.533c.849-.263,1.711-.478,2.549-.765l2.515-.862,2.515-.854c.838-.287,1.684-.547,2.5-.881L20.131,89.3l1.236-.471,1.215-.526,2.431-1.051c1.619-.7,3.251-1.359,4.828-2.142l4.781-2.234c1.572-.789,3.13-1.6,4.694-2.4.786-.4,1.572-.789,2.339-1.212l2.305-1.272,2.308-1.267c.77-.421,1.543-.836,2.292-1.293l4.527-2.681c.76-.436,1.5-.917,2.234-1.385l2.224-1.4,2.229-1.393,2.19-1.454c1.454-.978,2.929-1.927,4.364-2.931l4.293-3.034c1.428-1.012,2.826-2.069,4.241-3.1,5.629-4.172,11.1-8.557,16.44-13.1s10.523-9.269,15.6-14.109,10.009-9.845,14.8-14.984c1.213-1.272,2.389-2.579,3.581-3.87L128.8,8.044q.88-.983,1.739-1.985c.579-.662,1.15-1.333,1.718-2,1.147-1.333,2.274-2.689,3.379-4.056Z" transform="translate(386.957 229.925)"/><path class="j" d="M74.232,202.667c-13.407,3.7-31.827-9.939-38.575-25.793-6.944-16.317,3.115-24.077,1.388-47.283C35.083,103.224,21.132,100.23,9.572,65.333,6.952,57.447-8.131,11.9,5.881,2.153,18.837-6.855,58.471,13.512,67.225,42.578,73.467,63.3,59.416,73.2,66.761,97.33c6.447,21.175,19.384,20.565,25.823,40.98C100.409,163.159,91.835,197.809,74.232,202.667Z" transform="translate(17.279 119.623)"/><path class="d" d="M38.5,164.9C40.155,136.23,29.9,92.913,21,61.621,11.363,27.744,1.208.273,1.108,0L0,.415C.1.678,10.242,28.122,19.864,61.957c8.872,31.2,19.1,74.375,17.462,102.879Z" transform="translate(52.476 163.844)"/><g class="k" transform="translate(273.932 193.375)"><path class="l" d="M52.089,66.32a35.036,35.036,0,0,1-3.607-12.768c-.807-11.506,5.86-22.1,10.756-32.01C63.738,12.436,67.1-1.131,51.9.075,39.8,1.037,25.58,13.138,23.958,25.753c-1.92,14.934,5.323,33.764-3.264,47.318C8.678,92.047,0,87.7,0,119.72c0,13.683,7.552,21.23,16.2,25.389a36.106,36.106,0,0,0,40.812-6.656c9.611-9.335,15.324-22.752,13.394-36.222C68.464,88.635,57.829,78.317,52.089,66.32Z" transform="translate(0 0)"/><path class="l" d="M10.027.167A5.049,5.049,0,0,0,8.115.039C4.329.475,2.776,4.481,1.663,7.612.709,10.293-.412,13.55.151,16.455.759,19.6,4.081,22.16,6.5,18.968c2.743-3.625,6.855-9.2,6.881-14A4.709,4.709,0,0,0,10.027.167Z" transform="translate(54.116 32.391)"/><path class="l" d="M45.967,74.241c1.548-10.234-2.159-21.984-4.008-32.807a52.541,52.541,0,0,1-.524-17.166c.906-5.765,3.594-11.932,1.119-17.642C37.577-4.879,25.713.357,18.923,9.019,11.044,19.069,8.891,35.493,5.9,48.14,4.092,55.764,1.375,63.584.422,71.355-1.15,84.236,1.745,93.174,7.88,99.2a18.518,18.518,0,0,0,22.046,2.965C36.44,98.523,43.471,90.753,45.967,74.241Z" transform="translate(49.028 45.687)"/><path class="m" d="M3.339,113.475a.674.674,0,0,1-.663-.565A254.674,254.674,0,0,1,0,75.563C-.062,55.653,2.068,26.455,12.559.423A.674.674,0,1,1,13.809.93C8.064,15.186,1.235,39.707,1.35,75.558a253.824,253.824,0,0,0,2.656,37.126.675.675,0,0,1-.553.789.7.7,0,0,1-.115,0Z" transform="translate(64.538 54.227)"/></g><path class="n" d="M0,3.841,2.46,40.924A12.066,12.066,0,0,0,14.845,52.176l88.605-2.526a8.7,8.7,0,0,0,8.406-7.715c1.064-9.421,2.255-26.259-.262-41.934Z" transform="translate(432.744 312.787)"/><path class="o" d="M14.9,49.99a.263.263,0,0,1,0-.5l2-.058a.228.228,0,0,1,.247.143.229.229,0,0,1,.015.1.263.263,0,0,1-.244.263l-2,.058Zm6.661-.189a.263.263,0,0,1,0-.5l2-.058a.242.242,0,0,1,.262.244.262.262,0,0,1-.244.263l-2,.058Zm6.661-.189a.263.263,0,0,1,0-.5l2-.058a.263.263,0,1,1,.013.5l-2,.058Zm6.661-.189a.263.263,0,0,1,0-.5l2-.058a.263.263,0,1,1,.013.5l-2,.058Zm-24.579-.045a.261.261,0,0,1-.081-.013,11.806,11.806,0,0,1-1.862-.836.263.263,0,0,1,.244-.439,11.243,11.243,0,0,0,1.784.789.263.263,0,0,1-.081.489Zm31.24-.147a.263.263,0,0,1,0-.5l2-.058a.262.262,0,0,1,.346.242.262.262,0,0,1-.211.265.261.261,0,0,1-.121,0l-2,.058Zm6.661-.189a.263.263,0,0,1,0-.5l2-.058a.242.242,0,0,1,.262.244.262.262,0,0,1-.244.263l-2,.058Zm6.661-.189a.263.263,0,0,1,0-.5l2-.058a.231.231,0,0,1,.262.244.262.262,0,0,1-.244.263l-2,.058Zm6.661-.189a.263.263,0,0,1,0-.5l2-.058a.234.234,0,0,1,.262.244.262.262,0,0,1-.244.263l-2,.058Zm6.661-.189a.263.263,0,0,1,0-.5l2-.058a.244.244,0,0,1,.262.244.262.262,0,0,1-.244.263l-2,.058Zm6.661-.189a.263.263,0,0,1,0-.5l2-.058a.263.263,0,0,1,.013.5l-2,.058Zm6.661-.189a.263.263,0,0,1,0-.5l2-.058a.242.242,0,0,1,.262.244.262.262,0,0,1-.244.263l-2,.058Zm6.661-.189a.263.263,0,0,1,0-.5l2-.058a.233.233,0,0,1,.245.144.235.235,0,0,1,.017.1.263.263,0,0,1-.244.263l-2,.058Zm6.661-.189a.263.263,0,0,1,0-.5l2-.058a.244.244,0,0,1,.242.146.245.245,0,0,1,.02.1.262.262,0,0,1-.244.263l-2,.058Zm6.6-.649a.263.263,0,0,1-.089-.486,8.038,8.038,0,0,0,1.713-.9.263.263,0,0,1,.283.413,8.508,8.508,0,0,1-1.821.957.261.261,0,0,1-.084.013ZM4.969,45.537a.262.262,0,0,1-.2-.1,11.782,11.782,0,0,1-1.1-1.724.262.262,0,1,1,.443-.231,11.309,11.309,0,0,0,1.048,1.648.263.263,0,0,1-.2.4Zm101.15-2.97a.263.263,0,0,1-.23-.35,8.024,8.024,0,0,0,.524-1.864.262.262,0,0,1,.492.079,8.511,8.511,0,0,1-.568,1.982.262.262,0,0,1-.215.139ZM2.622,39.383a.262.262,0,0,1-.262-.231l-.134-2a.263.263,0,0,1,.233-.263.247.247,0,0,1,.262.234l.134,2a.262.262,0,0,1-.23.263Zm104.537-3.4h-.024a.263.263,0,0,1-.225-.263q.086-.967.168-2a.262.262,0,0,1,.5.039q-.081,1.03-.17,2a.262.262,0,0,1-.246.221ZM2.182,32.7a.262.262,0,0,1-.262-.234l-.134-2a.263.263,0,0,1,.233-.263.244.244,0,0,1,.262.234l.134,2a.263.263,0,0,1-.233.263ZM107.641,29.31h-.013a.263.263,0,0,1-.236-.263q.052-.983.1-2a.251.251,0,0,1,.5.024q-.045,1.02-.1,2.006a.262.262,0,0,1-.251.234ZM1.739,26.029a.262.262,0,0,1-.262-.234l-.134-2a.262.262,0,0,1,.5-.034l.134,2a.263.263,0,0,1-.233.263Zm106.138-3.4a.263.263,0,0,1-.246-.263q.016-.994.021-2.006a.262.262,0,0,1,.524.013q0,1.015-.021,2.008a.262.262,0,0,1-.278.244ZM1.3,19.357a.262.262,0,0,1-.262-.234l-.134-2a.263.263,0,0,1,.233-.263.246.246,0,0,1,.238.14.248.248,0,0,1,.024.094l.134,2a.263.263,0,0,1-.233.263ZM107.846,15.94a.262.262,0,0,1-.262-.244q-.026-1-.065-2a.25.25,0,0,1,.5-.024q.042,1.009.068,2.008a.262.262,0,0,1-.244.263ZM.854,12.683a.262.262,0,0,1-.262-.234l-.134-2a.263.263,0,0,1,.233-.263.246.246,0,0,1,.238.14.248.248,0,0,1,.024.094l.134,2a.263.263,0,0,1-.233.263ZM107.508,9.265a.262.262,0,0,1-.262-.231q-.076-1-.17-2a.262.262,0,0,1,.5-.047q.094,1,.17,2a.263.263,0,0,1-.231.263ZM.411,6.013A.262.262,0,0,1,.149,5.78L0,3.519l2.156-.074A.244.244,0,0,1,2.4,3.59a.245.245,0,0,1,.021.1.262.262,0,0,1-.241.263l-1.64.055L.652,5.748a.263.263,0,0,1-.233.263ZM6.84,3.787a.263.263,0,0,1,0-.5l2-.068a.236.236,0,0,1,.244.143.237.237,0,0,1,.018.1.263.263,0,0,1-.241.263l-2,.068ZM13.5,3.558a.263.263,0,0,1,0-.5l2-.068a.247.247,0,0,1,.262.242.263.263,0,0,1-.241.263l-2,.068ZM20.16,3.33a.263.263,0,0,1,0-.5l2-.068a.263.263,0,0,1,.018.5l-2,.068ZM26.821,3.1a.263.263,0,0,1,0-.5l2-.068a.241.241,0,0,1,.242.144.243.243,0,0,1,.02.1.263.263,0,0,1-.241.263l-2,.068Zm6.661-.229a.263.263,0,0,1,0-.5l2-.068a.253.253,0,0,1,.021.5l-2,.068Zm6.661-.229a.263.263,0,0,1,0-.5l2-.068a.246.246,0,0,1,.24.145.248.248,0,0,1,.022.1.263.263,0,0,1-.241.263l-2,.068Zm66.664-.024a.262.262,0,0,1-.246-.216q-.136-.991-.291-1.979a.249.249,0,0,1,.493-.079q.157.994.293,1.99a.263.263,0,0,1-.212.281Zm-60-.205a.263.263,0,0,1,0-.5l2-.068a.244.244,0,0,1,.262.242.263.263,0,0,1-.241.263l-2,.068Zm6.661-.229a.263.263,0,0,1,0-.5l2-.068a.233.233,0,0,1,.244.143.235.235,0,0,1,.018.1.262.262,0,0,1-.241.263l-2,.068Zm6.661-.229a.263.263,0,0,1,0-.5l2-.068a.262.262,0,0,1,.262.242.262.262,0,0,1-.241.263l-2,.068Zm6.661-.229a.263.263,0,0,1,0-.5l2-.068a.242.242,0,0,1,.262.242.262.262,0,0,1-.241.263l-2,.068ZM73.451,1.5a.263.263,0,0,1,0-.5l2-.068a.236.236,0,0,1,.262.242.262.262,0,0,1-.241.263l-2,.068Zm6.661-.229a.263.263,0,0,1,0-.5l2-.068a.262.262,0,0,1,.262.242.262.262,0,0,1-.241.263l-2,.068Zm6.661-.229a.263.263,0,0,1,0-.5l2-.068a.241.241,0,0,1,.242.144.243.243,0,0,1,.02.1.263.263,0,0,1-.241.263l-2,.068ZM93.436.814a.263.263,0,0,1,0-.5l2-.068A.236.236,0,0,1,95.7.485a.262.262,0,0,1-.241.263l-2,.068ZM100.1.585a.263.263,0,0,1,0-.5l2-.068a.262.262,0,0,1,.316.121.263.263,0,0,1-.176.384.261.261,0,0,1-.121,0l-2,.068Z" transform="translate(435.174 312.781)"/><path class="p" d="M0,4.893.168,2.02A2.2,2.2,0,0,1,1.787.677C4.532.151,11.35-.869,14.73,1.489l.605,3.31Z" transform="translate(457.777 283.891)"/><path class="p" d="M3.589,10.691a3.947,3.947,0,0,1-1.91.063A1.731,1.731,0,0,1,.306,9.122L0,.158,4.547,0l.306,8.959a1.739,1.739,0,0,1-1.265,1.732Z" transform="translate(462.72 275.042)"/><path class="p" d="M0,4.893.168,2.02A2.2,2.2,0,0,1,1.786.677C4.532.151,11.35-.869,14.729,1.489l.605,3.31Z" transform="translate(501.813 282.372)"/><path class="p" d="M3.62,11.638a3.944,3.944,0,0,1-1.91.063A1.731,1.731,0,0,1,.338,10.068L0,.158,4.547,0l.338,9.9A1.737,1.737,0,0,1,3.62,11.638Z" transform="translate(506.72 272.583)"/><path class="p" d="M2.5,16.157l48.838-3.31a2.361,2.361,0,0,0,2.185-2.019,20.075,20.075,0,0,0-.06-6.225A5.647,5.647,0,0,0,47.829,0C38.7.1,15.481.9,2.857,6.425A4.484,4.484,0,0,0,.264,9.63a10.918,10.918,0,0,0,.052,4.995A2.1,2.1,0,0,0,2.5,16.157Z" transform="translate(459.835 261.257)"/><path class="n" d="M4.617,2.617C20.4,1.87,88.7-1.2,108.643.514a4.049,4.049,0,0,1,3.581,3.02c1.354,5.281,4.136,17.56,4.278,29.823a3.549,3.549,0,0,1-2.782,3.486L68.706,47.006l-16.094.555L4.007,39.593A3.785,3.785,0,0,1,.842,36.175C.318,30.021-.667,15.574.675,6.208A4.2,4.2,0,0,1,4.617,2.617Z" transform="translate(430.441 285.834)"/><path class="o" d="M49.213,40.183h-.042L47.2,39.86a.262.262,0,0,1-.288-.181.262.262,0,0,1,.25-.342.261.261,0,0,1,.119.029l1.972.323a.263.263,0,0,1-.039.5Zm2.881-.1a.263.263,0,0,1,0-.5l2-.068a.253.253,0,0,1,.021.5l-2,.068Zm6.661-.229a.263.263,0,0,1,0-.5l2-.068a.238.238,0,0,1,.243.144.24.24,0,0,1,.019.1.263.263,0,0,1-.241.263l-2,.068Zm6.64-.386a.263.263,0,0,1-.055-.5l1.952-.439a.263.263,0,0,1,.11.489l-1.949.439Zm-22.75-.363H42.6l-1.972-.323a.263.263,0,0,1,.081-.494l1.972.323a.263.263,0,0,1-.039.5Zm-6.578-1.078h-.042L34.054,37.7a.263.263,0,1,1,.081-.494l1.972.323a.263.263,0,0,1-.039.5ZM71.9,38a.263.263,0,0,1-.055-.5l1.952-.442a.263.263,0,0,1,.11.489l-1.952.442ZM29.49,36.95h-.042l-1.978-.329a.252.252,0,0,1,.081-.5l1.972.323a.263.263,0,0,1-.039.5ZM78.4,36.532a.263.263,0,0,1-.055-.5L80.3,35.6a.263.263,0,0,1,.11.489l-1.949.439Zm-55.487-.66h-.042L20.9,35.549a.252.252,0,0,1,.081-.5l1.972.323a.263.263,0,0,1-.039.5ZM84.9,35.065a.263.263,0,0,1-.055-.5l1.952-.442a.263.263,0,0,1,.11.489l-1.952.442ZM16.335,34.8h-.042l-1.972-.323a.262.262,0,0,1-.288-.181.262.262,0,0,1,.369-.313l1.972.323a.263.263,0,0,1-.039.5ZM9.758,33.724H9.716L7.743,33.4a.263.263,0,0,1,.081-.494L9.8,33.23a.263.263,0,0,1-.039.5ZM91.4,33.606a.263.263,0,0,1-.055-.5L93.3,32.67a.263.263,0,0,1,.11.489l-1.952.439ZM3.18,32.647H3.138l-1.972-.323a.263.263,0,0,1,.081-.494l1.972.323a.263.263,0,0,1-.039.5ZM97.9,32.139a.263.263,0,0,1-.055-.5L99.8,31.2a.263.263,0,0,1,.11.489l-1.952.439Zm6.5-1.469a.263.263,0,0,1-.055-.5l1.952-.439a.263.263,0,0,1,.11.489l-1.952.439ZM.739,27.757a.262.262,0,0,1-.262-.234c-.042-.639-.084-1.314-.126-2.006a.263.263,0,0,1,.236-.263.238.238,0,0,1,.241.14.24.24,0,0,1,.021.1c.039.694.081,1.364.123,2a.263.263,0,0,1-.233.263Zm108.154-.129a.262.262,0,0,1-.262-.242q-.039-1-.1-2a.262.262,0,0,1,.5-.029q.06,1,.1,2.008a.263.263,0,0,1-.241.263ZM.39,21.075a.262.262,0,0,1-.262-.242C.1,20.173.081,19.5.063,18.825a.262.262,0,0,1,.244-.263.262.262,0,0,1,.262.244c.018.673.039,1.343.065,2a.263.263,0,0,1-.241.263Zm108.016-.116a.262.262,0,0,1-.249-.223q-.1-1-.225-1.99a.262.262,0,0,1,.5-.06q.121.988.225,2a.262.262,0,0,1-.223.263ZM.262,14.387A.262.262,0,0,1,0,14.124q0-1.009.018-2.008a.231.231,0,0,1,.16-.239.23.23,0,0,1,.1-.009.263.263,0,0,1,.246.263c0,.662-.016,1.333-.018,2a.262.262,0,0,1-.254.244Zm107.269-.06a.262.262,0,0,1-.246-.213q-.16-1.009-.327-1.977a.262.262,0,0,1,.493-.087q.168.97.327,1.985a.263.263,0,0,1-.207.287Zm-1.2-6.572a.262.262,0,0,1-.244-.2q-.212-1.028-.416-1.961a.262.262,0,1,1,.487-.108q.2.935.417,1.966a.263.263,0,0,1-.194.3ZM.464,7.713H.448A.263.263,0,0,1,.215,7.45c.045-.683.1-1.356.16-2.008a.262.262,0,0,1,.5.047C.809,6.136.757,6.8.712,7.481A.262.262,0,0,1,.456,7.7Zm2.6-4.7a.263.263,0,0,1,0-.5l2-.092a.251.251,0,0,1,.024.5l-2,.092Zm6.661-.3a.263.263,0,0,1,0-.5l2-.089a.251.251,0,0,1,.024.5l-2,.089Zm6.661-.289a.263.263,0,0,1,0-.5l2-.084a.263.263,0,0,1,.021.5l-2,.084Zm6.661-.276a.263.263,0,0,1,0-.5l2-.081a.262.262,0,0,1,.262.242.263.263,0,0,1-.241.263l-2,.081Zm6.661-.263a.263.263,0,0,1,0-.5l2-.076a.246.246,0,0,1,.24.145.248.248,0,0,1,.022.1.263.263,0,0,1-.241.263l-2,.076Zm6.661-.25a.263.263,0,0,1,0-.5l2-.071a.262.262,0,0,1,.262.242.262.262,0,0,1-.241.263l-2,.071ZM43.033,1.4a.263.263,0,0,1,0-.5l2-.066a.244.244,0,0,1,.241.145.245.245,0,0,1,.021.1.263.263,0,0,1-.241.263l-2,.066Zm61.8-.171a.262.262,0,0,1-.241-.189l-.016-.058q-.749-.066-1.6-.118a.263.263,0,0,1,.031-.5q.9.058,1.677.126a.39.39,0,0,1,.354.279l.039.15a.263.263,0,0,1-.181.3ZM49.695,1.188a.263.263,0,0,1,0-.5l2-.06a.262.262,0,0,1,.262.244.262.262,0,0,1-.244.263l-2,.06ZM56.356.994a.263.263,0,0,1,0-.5l2-.055a.262.262,0,0,1,.262.244.262.262,0,0,1-.244.263l-2,.055ZM63.018.82a.263.263,0,0,1,0-.5l2-.047a.263.263,0,0,1,0,.5ZM69.682.678a.263.263,0,0,1,0-.5l2-.037a.263.263,0,0,1,0,.5ZM98.336.652,96.34.6A.262.262,0,0,1,96.1.334a.241.241,0,0,1,.262-.244l2,.055a.263.263,0,0,1,0,.5Zm-22-.084a.263.263,0,0,1,0-.5l2-.024a.263.263,0,0,1,0,.5ZM91.662.518l-2-.016a.263.263,0,0,1,0-.5l2,.016a.263.263,0,0,1,0,.5ZM83,.5A.263.263,0,0,1,83,0h2a.263.263,0,0,1,0,.5Z" transform="translate(434.086 289.531)"/><path class="d" d="M19.971,20.951l-14.1.486a3.647,3.647,0,0,1-3.733-3.086L.042,4.792A3.647,3.647,0,0,1,3.526.586L20.464,0a3.651,3.651,0,0,1,3.769,3.841l-.744,13.669a3.65,3.65,0,0,1-3.518,3.438Z" transform="translate(477.894 318.722)"/><g transform="translate(480.836 321.285)"><path class="q" d="M15.209,15.946l-10.74.371a2.777,2.777,0,0,1-2.842-2.35L.032,3.646A2.776,2.776,0,0,1,2.683.447L15.576,0a2.779,2.779,0,0,1,2.881,2.923l-.566,10.394a2.779,2.779,0,0,1-2.682,2.626Z" transform="translate(0 0)"/></g><path class="n" d="M30.37.007,223.806,4.862a20.08,20.08,0,0,1,19.536,19.589l7.264,281.779a14.8,14.8,0,0,1-14.879,15.218L13.935,319.927A14.07,14.07,0,0,1,0,305.495L7.056,22.262A22.789,22.789,0,0,1,30.37.007Z" transform="translate(76.132 40.201)"/><path class="r" d="M39.21,54.2l-24.8-.944A15.069,15.069,0,0,1,0,37.854L.941.263a.262.262,0,1,1,.524,0L.527,37.854A14.531,14.531,0,0,0,14.411,52.7l24.8.944a.263.263,0,0,1,0,.526Z" transform="translate(83.388 301.7)"/><path class="r" d="M.262,6.611A.262.262,0,0,1,0,6.348L.152.263A.278.278,0,0,1,.414,0,.262.262,0,0,1,.676.263L.524,6.348a.262.262,0,0,1-.262.263Z" transform="translate(84.613 283.988)"/><path class="d" d="M13.327.084C39.65,4.343,130.2,17.739,205.447,13.838a6.126,6.126,0,0,1,6.426,5.949L219.8,302.835a7.048,7.048,0,0,1-6.79,7.253c-31.631,1.083-161.886,5.068-208.163-.973A5.585,5.585,0,0,1,0,303.458L5.67,6.509A6.61,6.61,0,0,1,13.327.084Z" transform="translate(93.824 37.855)"/><path class="s" d="M12.816.082C38.149,4.18,125.293,17.071,197.7,13.318a5.895,5.895,0,0,1,6.193,5.723l7.628,272.392a6.783,6.783,0,0,1-6.533,6.979c-30.441,1.052-155.793,4.879-200.325-.936A5.375,5.375,0,0,1,0,292.031L5.442,6.265A6.361,6.361,0,0,1,12.816.082Z" transform="translate(96.98 45.265)"/><g transform="translate(212.725 75.149)"><path class="t" d="M72.966,7.055A1.016,1.016,0,0,0,74.013,6.03V4.216a1.115,1.115,0,0,0-1.048-1.1L.782.008A.683.683,0,0,0,.059.962L1.123,4.25a1.591,1.591,0,0,0,1.37,1.025Z" transform="translate(0 0)"/></g><g transform="translate(212.446 86.023)"><path class="t" d="M.782.008A.683.683,0,0,0,.059.962L1.123,4.248a1.591,1.591,0,0,0,1.37,1.028L72.958,7.045A1.016,1.016,0,0,0,74.005,6.02V4.206a1.115,1.115,0,0,0-1.048-1.1Z" transform="translate(0 0)"/></g><g transform="translate(212.185 97.051)"><path class="t" d="M.782.008A.683.683,0,0,0,.059.962L1.123,4.248a1.591,1.591,0,0,0,1.37,1.028L72.958,7.045a1.016,1.016,0,0,0,1.048-1.025V4.206a1.116,1.116,0,0,0-1.048-1.1Z" transform="translate(0)"/></g><g transform="translate(124.761 117.641)"><path class="t" d="M166.587,9.4a.97.97,0,0,0,.942-.629.976.976,0,0,0,.061-.4l-.073-1.819a1.152,1.152,0,0,0-1.09-1.086L.59,0C.014-.018-.172.342.174.805l2.764,3.68a2.465,2.465,0,0,0,1.679.865Z" transform="translate(0 0)"/></g><g transform="translate(124.491 128.511)"><path class="t" d="M.59,0C.014-.018-.172.342.174.805l2.764,3.68a2.465,2.465,0,0,0,1.679.865L166.584,9.417a.97.97,0,0,0,.943-.643.976.976,0,0,0,.055-.4l-.073-1.819a1.152,1.152,0,0,0-1.09-1.086Z" transform="translate(0)"/></g><path class="n" d="M29.97,30.018h-.06L8.133,29.963a5.9,5.9,0,0,1-6.062-4.995L.023,6.648A4.047,4.047,0,0,1,.951,3.607,4.825,4.825,0,0,1,4.306,1.914h0c1.834-.139,4.364-.373,7.146-.634C17.509.718,24.374.079,28.408,0H28.5a6.131,6.131,0,0,1,6.09,4.274c1.168,4.206,1.126,12.179.972,20.673A5.435,5.435,0,0,1,29.97,30.018ZM4.443,3.7A3.04,3.04,0,0,0,2.321,4.748,2.271,2.271,0,0,0,1.8,6.454l2.048,18.32a4.138,4.138,0,0,0,4.3,3.417l21.776.05h.042a3.661,3.661,0,0,0,3.827-3.32c.152-8.354.2-16.183-.909-20.163A4.4,4.4,0,0,0,28.45,1.79c-3.971.079-11.1.741-16.828,1.272-2.792.263-5.331.5-7.175.636Z" transform="translate(123.314 153.451)"/><path class="u" d="M2.787,1.528C7.358,1.181,17.294.093,22.009,0A4.219,4.219,0,0,1,26.25,2.893c.935,3.37.864,10.1.752,16.314A3.628,3.628,0,0,1,23.2,22.558l-17.4-.039a4.021,4.021,0,0,1-4.141-3.362L.016,4.517A2.833,2.833,0,0,1,2.787,1.528Z" transform="translate(127.321 157.435)"/><g transform="translate(170.694 164.283)"><path class="t" d="M.829,0A.747.747,0,0,0,.01.627.752.752,0,0,0,.043,1L2.459,9.87a1.439,1.439,0,0,0,1.31,1.007l111.118-.823A1.027,1.027,0,0,0,115.9,9l-.175-6.046a1.113,1.113,0,0,0-1.079-1.067Z" transform="translate(0 0)"/></g><path class="n" d="M1.706,15.765A3.338,3.338,0,0,1,6.325,16.99l4.351,7.694a1.073,1.073,0,0,0,1.915-.1L23.069.71a1.189,1.189,0,0,1,2.276.5,47.082,47.082,0,0,1-13.383,32.8S5.557,31.566.329,20.27a3.524,3.524,0,0,1,1.378-4.506Z" transform="translate(129.35 146.074)"/><path class="n" d="M29.97,30.018h-.06l-21.776-.05a5.9,5.9,0,0,1-6.062-4.995L.024,6.654A4.047,4.047,0,0,1,.951,3.609,4.822,4.822,0,0,1,4.307,1.917h0c1.834-.139,4.364-.373,7.146-.634C17.509.72,24.375.082,28.409,0H28.5a6.13,6.13,0,0,1,6.09,4.277c1.168,4.206,1.126,12.179.972,20.67A5.439,5.439,0,0,1,29.97,30.018ZM4.435,3.694A3.04,3.04,0,0,0,2.313,4.745a2.271,2.271,0,0,0-.524,1.706l2.048,18.32a4.138,4.138,0,0,0,4.3,3.417l21.776.05h.042a3.661,3.661,0,0,0,3.827-3.32c.152-8.354.2-16.185-.909-20.16A4.422,4.422,0,0,0,28.443,1.79c-3.971.079-11.1.741-16.828,1.272-2.792.263-5.331.5-7.175.636Z" transform="translate(123.656 200.279)"/><path class="u" d="M2.787,1.528C7.358,1.181,17.294.093,22.009,0A4.219,4.219,0,0,1,26.25,2.893c.935,3.37.864,10.1.752,16.314a3.627,3.627,0,0,1-3.8,3.354l-17.4-.045a4.021,4.021,0,0,1-4.141-3.362L.016,4.515A2.831,2.831,0,0,1,2.787,1.528Z" transform="translate(127.666 204.273)"/><g transform="translate(171.034 211.121)"><path class="t" d="M.829,0A.749.749,0,0,0,.043,1l2.4,8.869a1.439,1.439,0,0,0,1.31,1.007l111.12-.82a1.027,1.027,0,0,0,1.016-1.051l-.175-6.046a1.113,1.113,0,0,0-1.079-1.067Z" transform="translate(0 0)"/></g><path class="n" d="M1.7,15.767a3.338,3.338,0,0,1,4.618,1.225l4.354,7.692a1.073,1.073,0,0,0,1.915-.1L23.069.71a1.189,1.189,0,0,1,2.276.5,47.075,47.075,0,0,1-13.386,32.8S5.555,31.566.327,20.268a3.524,3.524,0,0,1,1.378-4.5Z" transform="translate(129.695 192.902)"/><path class="n" d="M29.97,30.016h-.058l-21.776-.05a5.9,5.9,0,0,1-6.062-4.995L.026,6.651A4.048,4.048,0,0,1,.94,3.6,4.83,4.83,0,0,1,4.3,1.912c1.834-.139,4.359-.373,7.138-.631C17.2.755,24.364.079,28.4,0A6.212,6.212,0,0,1,34.58,4.275c1.168,4.206,1.126,12.179.972,20.67A5.442,5.442,0,0,1,29.97,30.016ZM4.43,3.691A3.043,3.043,0,0,0,2.308,4.743a2.274,2.274,0,0,0-.524,1.706l2.048,18.32a4.137,4.137,0,0,0,4.3,3.417l21.776.05c2.051-.053,3.838-1.488,3.872-3.323.152-8.354.2-16.183-.909-20.16a4.451,4.451,0,0,0-4.432-2.968c-3.971.079-11.1.741-16.836,1.275-2.79.263-5.325.494-7.167.636Z" transform="translate(121.961 245.276)"/><path class="u" d="M2.787,1.528C7.358,1.181,17.294.1,22.009,0A4.219,4.219,0,0,1,26.25,2.893c.935,3.37.864,10.1.752,16.314A3.628,3.628,0,0,1,23.2,22.561l-17.4-.039a4.021,4.021,0,0,1-4.141-3.362L.015,4.52A2.833,2.833,0,0,1,2.787,1.528Z" transform="translate(125.955 249.254)"/><g transform="translate(169.327 256.107)"><path class="t" d="M.829,0A.749.749,0,0,0,.043,1l2.4,8.869a1.439,1.439,0,0,0,1.31,1.007l111.12-.82a1.027,1.027,0,0,0,1.016-1.052l-.176-6.046a1.113,1.113,0,0,0-1.079-1.067Z" transform="translate(0 0)"/></g><path class="n" d="M1.706,15.765A3.338,3.338,0,0,1,6.325,16.99l4.351,7.694a1.073,1.073,0,0,0,1.915-.1L23.069.71a1.189,1.189,0,0,1,2.276.5,47.082,47.082,0,0,1-13.383,32.8S5.557,31.566.329,20.27a3.524,3.524,0,0,1,1.378-4.506Z" transform="translate(127.983 237.893)"/><path class="n" d="M29.97,30.012h-.06l-21.776-.05a5.9,5.9,0,0,1-6.062-4.995L.024,6.648A4.045,4.045,0,0,1,.951,3.607,4.825,4.825,0,0,1,4.306,1.914c1.834-.139,4.364-.373,7.146-.634C17.509.718,24.375.079,28.409,0a6.2,6.2,0,0,1,6.179,4.274c1.168,4.206,1.126,12.179.972,20.672A5.437,5.437,0,0,1,29.97,30.012ZM4.44,3.688A3.04,3.04,0,0,0,2.318,4.74a2.271,2.271,0,0,0-.524,1.706l2.048,18.32a4.138,4.138,0,0,0,4.3,3.417l21.776.05h.042a3.661,3.661,0,0,0,3.827-3.32c.152-8.354.2-16.185-.909-20.163a4.477,4.477,0,0,0-4.432-2.968c-3.971.079-11.1.741-16.828,1.272-2.792.263-5.331.5-7.175.636Z" transform="translate(119.823 291.668)"/><path class="u" d="M2.785,1.528C7.356,1.181,17.292.093,22.007,0a4.219,4.219,0,0,1,4.241,2.892c.935,3.37.864,10.1.752,16.314a3.627,3.627,0,0,1-3.8,3.354l-17.4-.039a4.021,4.021,0,0,1-4.141-3.362L.016,4.52A2.829,2.829,0,0,1,2.785,1.528Z" transform="translate(123.826 295.654)"/><g transform="translate(167.192 302.492)"><path class="t" d="M.829,0A.747.747,0,0,0,.01.627.752.752,0,0,0,.043,1l2.4,8.869a1.439,1.439,0,0,0,1.31,1.007l111.12-.82a1.027,1.027,0,0,0,1.016-1.051l-.176-6.046a1.112,1.112,0,0,0-1.079-1.067Z" transform="translate(0 0)"/></g><path class="n" d="M1.706,15.765A3.338,3.338,0,0,1,6.325,16.99l4.351,7.694a1.073,1.073,0,0,0,1.915-.1L23.069.71a1.189,1.189,0,0,1,2.276.5,47.082,47.082,0,0,1-13.383,32.8S5.557,31.566.329,20.27a3.524,3.524,0,0,1,1.378-4.506Z" transform="translate(125.863 284.283)"/><path class="n" d="M23.559,4.563C16.693-.49,10.616-.545,6.307.619A8.559,8.559,0,0,0,.02,9.468L1.361,29.709l21.9,2.505S37.023,14.473,23.559,4.563ZM13.5,20.619a5.483,5.483,0,1,1,3.909-1.512A5.462,5.462,0,0,1,13.5,20.619Z" transform="translate(192.606 0)"/><path class="r" d="M1.279,19.292a1.091,1.091,0,0,1-.686-.944L.381,15.123a1.087,1.087,0,0,1,2.169-.145L2.762,18.2A1.087,1.087,0,0,1,1.279,19.29ZM.86,12.983a1.091,1.091,0,0,1-.678-.944L.019,9.592A8.733,8.733,0,0,1,6.419.586a16.914,16.914,0,0,1,8.3-.134,1.091,1.091,0,0,1-.49,2.127,14.76,14.76,0,0,0-7.246.116A6.544,6.544,0,0,0,2.191,9.448L2.353,11.9A1.087,1.087,0,0,1,.863,12.983Z" transform="translate(194.71 2.451)"/><path class="n" d="M0,16.215.262,6.058A6.18,6.18,0,0,1,6.811.011L76.516,4.175a6.02,6.02,0,0,1,5.65,5.81l.341,9.774Z" transform="translate(163.697 25.801)"/><path class="r" d="M3.26.61l-3-.084A.263.263,0,0,1,.081.072.262.262,0,0,1,.269,0l3,.076a.263.263,0,0,1,0,.526Z" transform="translate(186.781 29.284)"/><path class="r" d="M.687,11.322A1.091,1.091,0,0,1,0,10.27L.1,6.161A6.291,6.291,0,0,1,6.555,0L17.588.281a1.091,1.091,0,0,1-.055,2.182L6.5,2.184A4.132,4.132,0,0,0,2.277,6.217l-.1,4.109a1.087,1.087,0,0,1-1.485.988Z" transform="translate(166.477 28.088)"/><path class="n" d="M7.149,0l122.022,3.06a9.033,9.033,0,0,1,8.7,7.731l.089.6A7.758,7.758,0,0,1,130.1,20.3L4.912,17.147a5.053,5.053,0,0,1-4.9-5.423L.422,6.109A6.586,6.586,0,0,1,7.149,0Z" transform="translate(134.773 37.75)"/><path class="v" d="M.271,11.22a.263.263,0,0,1-.238-.389A19.609,19.609,0,0,1,21.1.321a.267.267,0,0,1-.1.526,19.2,19.2,0,0,0-3.442-.31A19,19,0,0,0,.512,11.07a.262.262,0,0,1-.241.15Z" transform="translate(248.056 171.928)"/><path class="o" d="M1.012,1.481.179.85A.527.527,0,0,1,.055.219.329.329,0,0,1,.561.064h0l.815.641a.527.527,0,0,1,.113.618.319.319,0,0,1-.477.158Z" transform="translate(181.703 270.516)"/><path class="o" d="M.982,1.594.175.908A.58.58,0,0,1,.07.217.35.35,0,0,1,.623.085h0l.786.7A.567.567,0,0,1,1.5,1.46a.342.342,0,0,1-.519.134Z" transform="translate(178.982 268.231)"/><path class="o" d="M.955,1.7.17.963A.63.63,0,0,1,.088.211a.374.374,0,0,1,.6-.1h0l.754.747a.617.617,0,0,1,.068.736.366.366,0,0,1-.555.11Z" transform="translate(176.36 265.768)"/><path class="o" d="M.9,1.777.156.988A.669.669,0,0,1,.1.2.395.395,0,0,1,.743.134l.723.789a.662.662,0,0,1,.042.789A.39.39,0,0,1,.9,1.777Z" transform="translate(173.864 263.176)"/><path class="o" d="M.859,1.863l-.71-.836A.7.7,0,0,1,.131.186.413.413,0,0,1,.8.162h0L1.493,1a.7.7,0,0,1,0,.831.408.408,0,0,1-.634.034Z" transform="translate(171.474 260.407)"/><path class="o" d="M.814,1.934.138,1.053A.738.738,0,0,1,.154.172a.431.431,0,0,1,.7.021l.655.881a.728.728,0,0,1-.026.87.426.426,0,0,1-.673-.011Z" transform="translate(169.19 257.483)"/><path class="o" d="M.763,2,.127,1.079A.77.77,0,0,1,.182.159.452.452,0,0,1,.918.227h0l.618.92a.759.759,0,0,1-.063.907A.447.447,0,0,1,.763,2Z" transform="translate(167.038 254.426)"/><path class="o" d="M.714,2.059l-.6-.965A.791.791,0,0,1,.214.14.476.476,0,0,1,.976.261h0l.576.959a.791.791,0,0,1-.1.938.471.471,0,0,1-.733-.1Z" transform="translate(165.003 251.24)"/><path class="o" d="M.658,2.112l-.555-1A.825.825,0,0,1,.246.122.5.5,0,0,1,1.032.3l.524,1a.812.812,0,0,1-.152.97.494.494,0,0,1-.747-.155Z" transform="translate(163.113 247.926)"/><path class="o" d="M.613,2.17.089,1.119A.849.849,0,0,1,.283.107a.523.523,0,0,1,.809.242h0V.362l.49,1.03a.835.835,0,0,1-.2,1A.523.523,0,0,1,.613,2.17Z" transform="translate(161.355 244.478)"/><path class="o" d="M.54,2.2.076,1.119A.869.869,0,0,1,.325.086.555.555,0,0,1,1.153.4h0V.412L1.6,1.463a.856.856,0,0,1-.262,1.017A.55.55,0,0,1,.54,2.2Z" transform="translate(159.774 240.935)"/><path class="o" d="M.474,2.215.062,1.1A.875.875,0,0,1,.369.064.582.582,0,0,1,1.2.445h0l.4,1.091a.867.867,0,0,1-.309,1.028.579.579,0,0,1-.812-.35Z" transform="translate(158.352 237.282)"/><path class="o" d="M.4,2.229.05,1.088A.872.872,0,0,1,.414.055.607.607,0,0,1,1.242.51V.523L1.582,1.64v.013a.864.864,0,0,1-.367,1.023A.6.6,0,0,1,.4,2.229Z" transform="translate(157.125 233.528)"/><path class="o" d="M.334,2.231l-.3-1.17A.869.869,0,0,1,.462.039.634.634,0,0,1,1.28.565V.586l.283,1.141v.016a.861.861,0,0,1-.427,1.012A.629.629,0,0,1,.334,2.231Z" transform="translate(156.072 229.683)"/><path class="o" d="M.261,2.219.027,1.029a.86.86,0,0,1,.487-1,.671.671,0,0,1,.8.61V.658l.22,1.162v.016a.852.852,0,0,1-.49.994A.671.671,0,0,1,.261,2.219Z" transform="translate(155.225 225.778)"/><path class="o" d="M.183,2.2.018.99A.85.85,0,0,1,.571.012.713.713,0,0,1,1.357.7V.727l.155,1.178v.018a.839.839,0,0,1-.555.967A.707.707,0,0,1,.183,2.2Z" transform="translate(154.601 221.793)"/><path class="o" d="M.1,2.17,0,.945A.831.831,0,0,1,.624,0c.38-.045.718.3.754.789V.819L1.462,2v.018a.824.824,0,0,1-.623.931C.462,3,.134,2.63.1,2.17Z" transform="translate(154.216 217.783)"/><path class="o" d="M.018,2.127,0,.9A.821.821,0,0,1,.689,0a.8.8,0,0,1,.718.862V2.1a.807.807,0,0,1-.692.883A.786.786,0,0,1,.018,2.127Z" transform="translate(154.068 213.724)"/><path class="o" d="M0,2.073.059.843A.8.8,0,0,1,.816,0a.846.846,0,0,1,.673.946V.977L1.426,2.162v.021a.786.786,0,0,1-.76.828A.843.843,0,0,1,0,2.073Z" transform="translate(154.111 209.674)"/><path class="o" d="M.007,2,.146.785C.2.285.57-.062.971.009A.9.9,0,0,1,1.592,1.04v.029L1.45,2.244v.021a.77.77,0,0,1-.825.762A.9.9,0,0,1,.007,2Z" transform="translate(154.391 205.658)"/><path class="o" d="M.018,1.926.235.722a.756.756,0,0,1,.888-.7.953.953,0,0,1,.561,1.109v.021L1.467,2.31v.021a.75.75,0,0,1-.888.689A.943.943,0,0,1,.018,1.926Z" transform="translate(154.933 201.679)"/><path class="o" d="M.039,1.846.333.668c.123-.5.547-.789.946-.62a1.006,1.006,0,0,1,.5,1.183h0v.021l-.291,1.13V2.4a.734.734,0,0,1-.946.607,1,1,0,0,1-.5-1.165Z" transform="translate(155.727 197.779)"/><path class="o" d="M.061,1.744.425.6a.717.717,0,0,1,1-.526,1.053,1.053,0,0,1,.43,1.249v.021l-.359,1.1v.021a.723.723,0,0,1-1,.526A1.053,1.053,0,0,1,.061,1.744Z" transform="translate(156.769 193.998)"/><path class="o" d="M.084,1.655.516.548A.722.722,0,0,1,1.564.1a1.1,1.1,0,0,1,.362,1.314h0v.018L1.488,2.494v.018A.719.719,0,0,1,.44,2.951a1.093,1.093,0,0,1-.356-1.3Z" transform="translate(158.04 190.317)"/><path class="o" d="M.11,1.54.605.488A.7.7,0,0,1,1.676.133a1.125,1.125,0,0,1,.286,1.341v.018L1.483,2.52v.018a.7.7,0,0,1-1.071.352A1.12,1.12,0,0,1,.11,1.54Z" transform="translate(159.525 186.791)"/><path class="o" d="M.129,1.448.677.428A.7.7,0,0,1,1.769.165a1.144,1.144,0,0,1,.215,1.367v.016l-.524.988v.016a.7.7,0,0,1-1.092.263A1.141,1.141,0,0,1,.129,1.448Z" transform="translate(161.235 183.386)"/><path class="o" d="M.157,1.362l.6-.975A.69.69,0,0,1,1.862.2a1.16,1.16,0,0,1,.147,1.385h0V1.6l-.582.946v.013a.69.69,0,0,1-1.108.181,1.157,1.157,0,0,1-.162-1.38Z" transform="translate(163.078 180.127)"/><path class="o" d="M.183,1.265.812.342a.69.69,0,0,1,1.119-.1,1.17,1.17,0,0,1,.084,1.4l-.626.9a.688.688,0,0,1-1.119.1A1.168,1.168,0,0,1,.183,1.265Z" transform="translate(165.11 177.024)"/><path class="o" d="M.2,1.189.886.306A.69.69,0,0,1,2.012.277a1.178,1.178,0,0,1,.021,1.409h0l-.663.86a.69.69,0,0,1-1.124.026A1.176,1.176,0,0,1,.2,1.189Z" transform="translate(167.258 174.052)"/><path class="o" d="M.234,1.108.949.27A.693.693,0,0,1,2.078.314a1.184,1.184,0,0,1-.034,1.412h0l-.7.818A.693.693,0,0,1,.218,2.5,1.178,1.178,0,0,1,.234,1.108Z" transform="translate(169.535 171.246)"/><path class="o" d="M.271,1.027,1.018.239A.7.7,0,0,1,2.15.352,1.184,1.184,0,0,1,2.06,1.766h0l-.731.789A.7.7,0,0,1,.2,2.439,1.181,1.181,0,0,1,.271,1.027Z" transform="translate(171.918 168.581)"/><path class="o" d="M.287.964,1.073.212A.7.7,0,0,1,2.2.388,1.184,1.184,0,0,1,2.063,1.8h0l-.757.733A.7.7,0,0,1,.177,2.357,1.181,1.181,0,0,1,.287.964Z" transform="translate(174.425 166.046)"/><path class="o" d="M.336.89,1.122.183A.712.712,0,0,1,2.249.422a1.181,1.181,0,0,1-.191,1.409h0l-.786.691A.712.712,0,0,1,.145,2.281,1.178,1.178,0,0,1,.336.89Z" transform="translate(176.978 163.66)"/><path class="o" d="M.354.824l.82-.665A.722.722,0,0,1,2.3.459a1.175,1.175,0,0,1-.238,1.4h0l-.8.649a.72.72,0,0,1-1.121-.3A1.173,1.173,0,0,1,.354.824Z" transform="translate(179.652 161.422)"/><path class="o" d="M.389.765,1.229.142A.731.731,0,0,1,2.345.5,1.17,1.17,0,0,1,2.06,1.9h0l-.825.61A.731.731,0,0,1,.119,2.148,1.167,1.167,0,0,1,.389.765Z" transform="translate(182.376 159.306)"/><path class="o" d="M.416.705,1.275.121a.744.744,0,0,1,1.108.41,1.165,1.165,0,0,1-.327,1.385h0l-.843.57A.745.745,0,0,1,.1,2.075,1.159,1.159,0,0,1,.416.705Z" transform="translate(185.173 157.334)"/><path class="o" d="M.443.657,1.318.113a.747.747,0,0,1,1.1.46,1.157,1.157,0,0,1-.369,1.375h0l-.859.526a.748.748,0,0,1-1.1-.463A1.154,1.154,0,0,1,.443.657Z" transform="translate(188.027 155.483)"/><path class="o" d="M.47.6l.888-.5A.771.771,0,0,1,2.45.6a1.148,1.148,0,0,1-.409,1.364l-.875.494a.768.768,0,0,1-1.09-.526A1.146,1.146,0,0,1,.47.6Z" transform="translate(190.934 153.773)"/><path class="o" d="M.5.544l.9-.465a.779.779,0,0,1,1.079.56A1.138,1.138,0,0,1,2.038,1.99h0l-.888.455A.781.781,0,0,1,.071,1.882,1.135,1.135,0,0,1,.5.544Z" transform="translate(193.883 152.19)"/><path class="o" d="M.522.491,1.437.065a.8.8,0,0,1,1.069.61,1.127,1.127,0,0,1-.487,1.335l-.9.418A.793.793,0,0,1,.054,1.816,1.118,1.118,0,0,1,.522.491Z" transform="translate(196.882 150.727)"/><path class="o" d="M.552.44,1.479.054A.8.8,0,0,1,2.527.711,1.121,1.121,0,0,1,2,2.025L1.091,2.4a.8.8,0,0,1-1.048-.66A1.094,1.094,0,0,1,.552.44Z" transform="translate(199.92 149.401)"/><path class="o" d="M.583.387,1.521.043a.838.838,0,0,1,1.048.7,1.086,1.086,0,0,1-.563,1.293l-.919.342a.835.835,0,0,1-1.048-.7A1.09,1.09,0,0,1,.6.385Z" transform="translate(202.987 148.21)"/><path class="o" d="M.616.338l.946-.3A.835.835,0,0,1,2.573.777a1.077,1.077,0,0,1-.6,1.262l-.935.3A.834.834,0,0,1,.027,1.594,1.085,1.085,0,0,1,.621.327Z" transform="translate(206.089 147.165)"/><path class="o" d="M.633.288,1.587.025c.445-.124.885.229.985.789a1.056,1.056,0,0,1-.626,1.23l-.938.263C.562,2.433.12,2.08.02,1.518A1.06,1.06,0,0,1,.646.282Z" transform="translate(209.235 146.244)"/><path class="o" d="M.656.241,1.617.018a.853.853,0,0,1,.959.82,1.031,1.031,0,0,1-.658,1.2l-.943.223a.855.855,0,0,1-.961-.82A1.04,1.04,0,0,1,.669.236Z" transform="translate(212.4 145.453)"/><path class="o" d="M.68.2,1.647.012c.445-.084.862.3.93.857A1.015,1.015,0,0,1,1.89,2.033l-.948.184C.494,2.3.078,1.92.01,1.363A1.017,1.017,0,0,1,.693.2Z" transform="translate(215.58 144.807)"/><path class="o" d="M.706.149,1.675.007a.877.877,0,0,1,.9.891.994.994,0,0,1-.712,1.128l-.953.145c-.445.068-.851-.331-.906-.889A.993.993,0,0,1,.716.149Z" transform="translate(218.781 144.282)"/><path class="o" d="M.726.106,1.7,0a.887.887,0,0,1,.875.923.961.961,0,0,1-.739,1.091l-.956.1A.889.889,0,0,1,0,1.2.969.969,0,0,1,.739.1Z" transform="translate(222 143.9)"/><path class="o" d="M.75.062,1.725,0a.9.9,0,0,1,.843.954.942.942,0,0,1-.762,1.052L.847,2.07A.9.9,0,0,1,0,1.116.937.937,0,0,1,.763.064Z" transform="translate(225.224 143.659)"/><path class="o" d="M.773.021,1.75,0a.916.916,0,0,1,.815.983A.927.927,0,0,1,1.779,2l-.961.024A.916.916,0,0,1,0,1.041.926.926,0,0,1,.786.021Z" transform="translate(228.456 143.54)"/><path class="o" d="M.794,0l.977.021a.923.923,0,0,1,.786,1.012.9.9,0,0,1-.809.978L.786,2A.923.923,0,0,1,0,.983.9.9,0,0,1,.809,0Z" transform="translate(231.689 143.533)"/><path class="o" d="M.822,0,1.8.064a.931.931,0,0,1,.752,1.052c-.034.557-.4.967-.833.938L.756,2A.931.931,0,0,1,0,.945C.033.385.395-.025.835,0Z" transform="translate(234.918 143.656)"/><path class="o" d="M.844,0l.972.105a.947.947,0,0,1,.718,1.067.862.862,0,0,1-.854.9l-.956-.1A.946.946,0,0,1,0,.9.869.869,0,0,1,.854,0Z" transform="translate(238.141 143.916)"/><path class="o" d="M.867,0l.969.147A.958.958,0,0,1,2.52,1.242a.846.846,0,0,1-.872.857L.694,1.957A.958.958,0,0,1,.005.866.845.845,0,0,1,.878.007Z" transform="translate(241.361 144.31)"/><path class="o" d="M.889.009,1.853.2A.967.967,0,0,1,2.5,1.313c-.068.534-.466.9-.891.812L.664,1.943A.971.971,0,0,1,.009.829C.075.3.473-.07.9.011Z" transform="translate(244.561 144.838)"/><path class="o" d="M.91.012l.959.231a.979.979,0,0,1,.616,1.136.805.805,0,0,1-.909.77L.632,1.926A.979.979,0,0,1,.014.79.806.806,0,0,1,.923.017Z" transform="translate(247.751 145.516)"/><path class="o" d="M.933.027,1.884.29a.989.989,0,0,1,.579,1.157.786.786,0,0,1-.925.726L.6,1.909A.994.994,0,0,1,.019.752.786.786,0,0,1,.944.024Z" transform="translate(250.917 146.321)"/><path class="o" d="M.968.03l.943.315A1.007,1.007,0,0,1,2.456,1.52a.765.765,0,0,1-.94.681l-.943-.31A1,1,0,0,1,.025.716.767.767,0,0,1,.966.032Z" transform="translate(254.043 147.274)"/><path class="o" d="M.985.035l.933.358a1.013,1.013,0,0,1,.508,1.193.749.749,0,0,1-.953.634L.553,1.872A1.013,1.013,0,0,1,.042.679.756.756,0,0,1,1,.04Z" transform="translate(257.165 148.367)"/><path class="o" d="M1.005.048l.922.394A1.022,1.022,0,0,1,2.4,1.649a.734.734,0,0,1-.964.591L.526,1.854A1.022,1.022,0,0,1,.049.647a.738.738,0,0,1,.964-.6Z" transform="translate(260.244 149.59)"/><path class="o" d="M1.025.055l.912.428A1.03,1.03,0,0,1,2.376,1.7a.722.722,0,0,1-.975.552L.5,1.832A1.03,1.03,0,0,1,.055.615.723.723,0,0,1,1.03.061Z" transform="translate(263.284 150.939)"/><path class="o" d="M1.037.065l.9.455a1.032,1.032,0,0,1,.411,1.225.722.722,0,0,1-.98.526L.477,1.818A1.035,1.035,0,0,1,.063.59.722.722,0,0,1,1.045.065Z" transform="translate(266.301 152.398)"/><path class="o" d="M1.049.074,1.94.565A1.038,1.038,0,0,1,2.323,1.8a.7.7,0,0,1-.985.478L.455,1.793A1.038,1.038,0,0,1,.07.56.7.7,0,0,1,1.057.079Z" transform="translate(269.285 153.964)"/><path class="o" d="M1.061.1l.88.526A1.054,1.054,0,0,1,2.3,1.857a.688.688,0,0,1-.99.444L.432,1.776A1.054,1.054,0,0,1,.074.537a.69.69,0,0,1,.99-.45Z" transform="translate(272.234 155.609)"/><path class="o" d="M1.067.084,1.94.626a1.054,1.054,0,0,1,.333,1.241.681.681,0,0,1-.993.415L.415,1.756A1.054,1.054,0,0,1,.08.515.68.68,0,0,1,1.073.1Z" transform="translate(275.15 157.379)"/><path class="o" d="M1.078.1,1.94.664A1.054,1.054,0,0,1,2.249,1.9a.672.672,0,0,1-.993.389L.4,1.736A1.054,1.054,0,0,1,.085.5.672.672,0,0,1,1.078.1Z" transform="translate(278.034 159.203)"/><path class="o" d="M1.081.109l.854.584a1.054,1.054,0,0,1,.291,1.241.664.664,0,0,1-.993.363L.384,1.72A1.054,1.054,0,0,1,.09.479.665.665,0,0,1,1.083.111Z" transform="translate(280.887 161.089)"/><path class="o" d="M1.1.118l.846.6A1.054,1.054,0,0,1,2.2,1.956a.656.656,0,0,1-.99.342L.372,1.7A1.054,1.054,0,0,1,.095.463.657.657,0,0,1,1.087.118Z" transform="translate(283.708 163.055)"/><path class="o" d="M1.09.117,1.928.73A1.038,1.038,0,0,1,2.19,1.965a.649.649,0,0,1-.99.323h0L.364,1.682A1.038,1.038,0,0,1,.1.443a.651.651,0,0,1,.99-.326Z" transform="translate(286.53 165.064)"/><path class="o" d="M1.093.122l.83.626A1.036,1.036,0,0,1,2.17,1.981a.643.643,0,0,1-.988.308h0l-.828-.62A1.036,1.036,0,0,1,.106.432a.646.646,0,0,1,.988-.31Z" transform="translate(289.307 167.117)"/><path class="o" d="M1.1.126,1.92.763a1.03,1.03,0,0,1,.233,1.23.638.638,0,0,1-.982.292h0L.346,1.654A1.033,1.033,0,0,1,.107.424a.641.641,0,0,1,.985-.3Z" transform="translate(292.071 169.204)"/><path class="o" d="M1.092.131l.822.644A1.028,1.028,0,0,1,2.139,2a.633.633,0,0,1-.98.281L.34,1.642A1.028,1.028,0,0,1,.109.417a.635.635,0,0,1,.98-.289Z" transform="translate(294.824 171.334)"/><path class="o" d="M1.088.143l.82.649a1.022,1.022,0,0,1,.217,1.22.628.628,0,0,1-.975.263L.334,1.631A1.023,1.023,0,0,1,.111.411.63.63,0,0,1,1.088.132Z" transform="translate(297.562 173.474)"/><path class="o" d="M1.084.134,1.9.786A1.017,1.017,0,0,1,2.116,2a.625.625,0,0,1-.969.263L.33,1.612A1.017,1.017,0,0,1,.112.4.628.628,0,0,1,1.084.134Z" transform="translate(300.291 175.653)"/><path class="o" d="M1.083.132,1.9.786a1.012,1.012,0,0,1,.21,1.207.62.62,0,0,1-.964.263L.326,1.6A1.012,1.012,0,0,1,.112.4.622.622,0,0,1,1.078.134Z" transform="translate(303.015 177.823)"/><path class="o" d="M1.076.133l.815.655a1,1,0,0,1,.21,1.2.617.617,0,0,1-.959.263L.324,1.6A1.007,1.007,0,0,1,.112.4.62.62,0,0,1,1.073.133Z" transform="translate(305.736 180.006)"/><path class="o" d="M1.069.131l.815.652a1,1,0,0,1,.21,1.191.614.614,0,0,1-.953.263L.323,1.588A1,1,0,0,1,.11.394.614.614,0,0,1,1.064.131Z" transform="translate(308.458 182.186)"/><path class="o" d="M1.057.133l.817.647a.991.991,0,0,1,.215,1.183.612.612,0,0,1-.946.263l-.82-.647A.994.994,0,0,1,.109.393.612.612,0,0,1,1.057.13Z" transform="translate(311.191 184.353)"/><path class="o" d="M1.052.129l.82.641a.986.986,0,0,1,.217,1.175.609.609,0,0,1-.94.263L.326,1.567A.986.986,0,0,1,.106.39a.609.609,0,0,1,.94-.263Z" transform="translate(313.925 186.506)"/><path class="o" d="M1.043.124l.823.634a.978.978,0,0,1,.223,1.167.6.6,0,0,1-.933.279L.328,1.57A.978.978,0,0,1,.1.4.607.607,0,0,1,1.038.121Z" transform="translate(316.668 188.636)"/><path class="o" d="M1.026.12l.828.623a.964.964,0,0,1,.228,1.151.6.6,0,0,1-.917.287L.332,1.56A.967.967,0,0,1,.1.406.6.6,0,0,1,1.023.115h0Z" transform="translate(319.435 190.743)"/><path class="o" d="M1.01.112l.833.61a.951.951,0,0,1,.236,1.133.6.6,0,0,1-.9.3L.334,1.544A.954.954,0,0,1,.093.409.6.6,0,0,1,1,.107H1Z" transform="translate(322.214 192.814)"/><path class="o" d="M1,.1l.838.6a.935.935,0,0,1,.246,1.115.591.591,0,0,1-.888.31L.347,1.531A.938.938,0,0,1,.085.414.594.594,0,0,1,.978.1h0Z" transform="translate(325.012 194.839)"/><path class="o" d="M.961.1l.846.578A.92.92,0,0,1,2.07,1.768a.586.586,0,0,1-.872.323L.343,1.516A.922.922,0,0,1,.081.419.588.588,0,0,1,.959.091h0Z" transform="translate(327.856 196.817)"/><path class="o" d="M.955.091l.854.557a.9.9,0,0,1,.262,1.072.581.581,0,0,1-.857.339L.35,1.5A.9.9,0,0,1,.075.427.583.583,0,0,1,.937.083h0Z" transform="translate(330.694 198.719)"/><path class="o" d="M.919.078,1.784.6a.885.885,0,0,1,.283,1.051.578.578,0,0,1-.838.355L.356,1.485A.888.888,0,0,1,.068.433.581.581,0,0,1,.911.073h0Z" transform="translate(333.592 200.575)"/><path class="o" d="M.9.068l.875.51a.867.867,0,0,1,.3,1.031.573.573,0,0,1-.82.376l-.885-.51A.869.869,0,0,1,.062.444.578.578,0,0,1,.887.063Z" transform="translate(336.497 202.343)"/><path class="o" d="M.873.062l.883.481a.845.845,0,0,1,.314,1,.57.57,0,0,1-.8.394L.375,1.461A.848.848,0,0,1,.056.454a.576.576,0,0,1,.807-.4Z" transform="translate(339.449 204.014)"/><path class="o" d="M.851.05,1.744.5a.827.827,0,0,1,.333.98.57.57,0,0,1-.786.418l-.9-.449A.829.829,0,0,1,.049.468.573.573,0,0,1,.835.045h0Z" transform="translate(342.423 205.603)"/><path class="o" d="M.817.048l.9.418a.806.806,0,0,1,.351.954.568.568,0,0,1-.76.439L.4,1.444A.808.808,0,0,1,.042.49.572.572,0,0,1,.807.046Z" transform="translate(345.447 207.063)"/><path class="o" d="M.774.042l.914.381a.79.79,0,0,1,.369.925.568.568,0,0,1-.736.463L.41,1.433A.79.79,0,0,1,.036.5.571.571,0,0,1,.777.037Z" transform="translate(348.509 208.427)"/><path class="o" d="M.763.034l.922.342a.763.763,0,0,1,.388.9.568.568,0,0,1-.713.486L.425,1.419a.763.763,0,0,1-.4-.9A.574.574,0,0,1,.748.028Z" transform="translate(351.576 209.662)"/><path class="o" d="M.732.023l.933.3a.739.739,0,0,1,.409.865.571.571,0,0,1-.689.513L.438,1.4A.739.739,0,0,1,.025.538.574.574,0,0,1,.716.013h0Z" transform="translate(354.69 210.76)"/><path class="o" d="M.7.025l.94.263a.716.716,0,0,1,.427.831.574.574,0,0,1-.663.526L.452,1.382A.716.716,0,0,1,.02.549.576.576,0,0,1,.685.007h0Z" transform="translate(357.843 211.705)"/><path class="o" d="M.668.006l.946.208A.692.692,0,0,1,2.062,1a.577.577,0,0,1-.634.56L.466,1.357A.692.692,0,0,1,.013.568.579.579,0,0,1,.652,0h0Z" transform="translate(361.014 212.52)"/><path class="o" d="M.637,0,1.59.158a.665.665,0,0,1,.466.76.579.579,0,0,1-.605.584L.482,1.349A.668.668,0,0,1,.01.589.582.582,0,0,1,.618,0Z" transform="translate(364.211 213.162)"/><path class="o" d="M.6,0l.959.1a.639.639,0,0,1,.485.72.585.585,0,0,1-.574.607L.5,1.335A.641.641,0,0,1,.007.612.587.587,0,0,1,.584,0Z" transform="translate(367.444 213.621)"/><path class="o" d="M.552,0l.959.05a.615.615,0,0,1,.5.684.588.588,0,0,1-.545.628L.513,1.317A.617.617,0,0,1,0,.634.593.593,0,0,1,.552,0h0Z" transform="translate(370.676 213.899)"/><path class="o" d="M.521.005h.967a.66.66,0,0,1,0,1.291H.513a.665.665,0,0,1,0-1.3Z" transform="translate(373.909 214.005)"/><path class="o" d="M.5.053,1.459,0a.567.567,0,0,1,.524.6.6.6,0,0,1-.482.662l-.972.06A.57.57,0,0,1,0,.723.6.6,0,0,1,.489.055h0Z" transform="translate(377.139 213.891)"/><path class="o" d="M.476.1,1.432,0a.547.547,0,0,1,.54.568.6.6,0,0,1-.451.676l-.969.11A.546.546,0,0,1,.007.786.6.6,0,0,1,.46.105h0Z" transform="translate(380.361 213.605)"/><path class="o" d="M.448.153,1.4,0a.524.524,0,0,1,.508.318.527.527,0,0,1,.042.207.6.6,0,0,1-.422.686l-.964.16a.524.524,0,0,1-.513-.317A.527.527,0,0,1,.01.847.6.6,0,0,1,.435.156h0Z" transform="translate(383.573 213.152)"/><path class="o" d="M.42.205,1.368,0a.5.5,0,0,1,.555.492.6.6,0,0,1-.39.694L.574,1.4A.507.507,0,0,1,.014.907a.608.608,0,0,1,.393-.7H.42Z" transform="translate(386.777 212.53)"/><path class="o" d="M.394.269l.94-.263A.485.485,0,0,1,1.9.461a.605.605,0,0,1-.361.7l-.951.263A.488.488,0,0,1,.017.971.608.608,0,0,1,.381.264Z" transform="translate(389.953 211.737)"/><path class="o" d="M.369.308,1.3.011a.467.467,0,0,1,.566.418.605.605,0,0,1-.333.7l-.943.308a.47.47,0,0,1-.571-.418A.608.608,0,0,1,.356.311h0Z" transform="translate(393.11 210.814)"/><path class="o" d="M.339.361,1.264.017A.451.451,0,0,1,1.833.4a.605.605,0,0,1-.3.707L.6,1.462a.451.451,0,0,1-.571-.381A.608.608,0,0,1,.332.366h0Z" transform="translate(396.242 209.707)"/><path class="o" d="M.318.413,1.23.024A.433.433,0,0,1,1.8.371a.6.6,0,0,1-.275.71l-.92.4A.435.435,0,0,1,.03,1.133.606.606,0,0,1,.307.418h0Z" transform="translate(399.324 208.462)"/><path class="o" d="M.292.465l.9-.434a.417.417,0,0,1,.568.313.6.6,0,0,1-.249.707L.6,1.5a.419.419,0,0,1-.571-.313A.6.6,0,0,1,.295.47Z" transform="translate(402.374 207.053)"/><path class="o" d="M.276.516,1.162.038a.4.4,0,0,1,.561.279.593.593,0,0,1-.22.7l-.893.492a.4.4,0,0,1-.568-.263A.6.6,0,0,1,.261.532h0Z" transform="translate(405.373 205.501)"/><path class="o" d="M.248.572l.87-.526A.382.382,0,0,1,1.67.291a.582.582,0,0,1-.191.689L.6,1.5a.385.385,0,0,1-.558-.239.587.587,0,0,1,.191-.7h0Z" transform="translate(408.328 203.807)"/><path class="o" d="M.228.617,1.082.054a.364.364,0,0,1,.54.208.569.569,0,0,1-.165.673L.6,1.513A.367.367,0,0,1,.05,1.308.574.574,0,0,1,.215.624h0Z" transform="translate(411.231 201.984)"/><path class="o" d="M.195.664l.836-.6a.348.348,0,0,1,.524.176.553.553,0,0,1-.136.657l-.838.62a.351.351,0,0,1-.524-.171A.561.561,0,0,1,.192.675h0Z" transform="translate(414.084 200.012)"/><path class="o" d="M.176.722.991.076A.332.332,0,0,1,1.515.22.527.527,0,0,1,1.4.859l-.817.66A.335.335,0,0,1,.061,1.38.546.546,0,0,1,.173.73h0Z" transform="translate(416.851 197.888)"/><path class="o" d="M.165.764.95.077a.317.317,0,0,1,.5.113.527.527,0,0,1-.089.62l-.786.7A.319.319,0,0,1,.068,1.4.527.527,0,0,1,.154.771Z" transform="translate(419.563 195.652)"/><path class="o" d="M.148.812.918.086A.3.3,0,0,1,1.4.171a.506.506,0,0,1-.065.6l-.773.741a.306.306,0,0,1-.49-.081A.511.511,0,0,1,.137.823Z" transform="translate(422.191 193.261)"/><path class="o" d="M.128.859.874.094a.288.288,0,0,1,.466.058A.488.488,0,0,1,1.3.73L.55,1.519a.29.29,0,0,1-.471-.053A.493.493,0,0,1,.12.877h0Z" transform="translate(424.758 190.75)"/><path class="o" d="M.113.9.833.1a.275.275,0,0,1,.448.032A.469.469,0,0,1,1.258.69l-.72.817a.277.277,0,0,1-.453-.026A.474.474,0,0,1,.105.913Z" transform="translate(427.223 188.118)"/><path class="o" d="M.1.949.792.111a.261.261,0,0,1,.427,0,.448.448,0,0,1,0,.526L.525,1.5a.261.261,0,0,1-.435,0A.454.454,0,0,1,.09.96h0Z" transform="translate(429.598 185.357)"/><path class="o" d="M.1.98.763.105A.261.261,0,0,1,1.171.092a.427.427,0,0,1,0,.507l-.66.888A.261.261,0,0,1,.1,1.506.432.432,0,0,1,.081.98H.1Z" transform="translate(431.875 182.479)"/><path class="o" d="M.072,1.028.7.119A.238.238,0,0,1,1.091.084.406.406,0,0,1,1.12.568l-.629.923A.243.243,0,0,1,.1,1.53a.411.411,0,0,1-.031-.492h0Z" transform="translate(434.075 179.466)"/><path class="o" d="M.061,1.067l.6-.944A.227.227,0,0,1,1.028.071a.385.385,0,0,1,.045.457l-.6.957A.233.233,0,0,1,.1,1.543a.39.39,0,0,1-.047-.465h0Z" transform="translate(436.15 176.353)"/><path class="o" d="M.052,1.107.618.129A.217.217,0,0,1,.964.058a.361.361,0,0,1,.058.428l-.563.991a.222.222,0,0,1-.351.074.366.366,0,0,1-.06-.439h0Z" transform="translate(438.119 173.135)"/><path class="o" d="M.046,1.14.57.13A.207.207,0,0,1,.892.046a.34.34,0,0,1,.068.4L.437,1.471a.212.212,0,0,1-.327.089.345.345,0,0,1-.071-.41h0Z" transform="translate(439.965 169.798)"/><path class="o" d="M.038,1.192.5.14A.2.2,0,0,1,.8.032.314.314,0,0,1,.887.4L.423,1.476a.2.2,0,0,1-.3.113A.319.319,0,0,1,.028,1.21h0Z" transform="translate(441.667 166.335)"/><path class="o" d="M.02,1.263.387.153A.194.194,0,0,1,.649.014.284.284,0,0,1,.761.348L.394,1.481a.2.2,0,0,1-.262.145.29.29,0,0,1-.115-.342h0Z" transform="translate(443.132 162.693)"/><path class="o" d="M.011,1.342.236.18A.194.194,0,0,1,.467,0,.247.247,0,0,1,.608.29L.388,1.481a.2.2,0,0,1-.236.184.263.263,0,0,1-.147-.294Z" transform="translate(444.208 158.849)"/><path class="o" d="M0,1.425.033.231V.216A.2.2,0,0,1,.216,0,.208.208,0,0,1,.389.229L.365,1.451a.207.207,0,0,1-.186.221A.213.213,0,0,1,0,1.438H0Z" transform="translate(444.758 154.839)"/><path class="o" d="M.232,1.426.006.267V.251A.213.213,0,0,1,.127,0,.165.165,0,0,1,.306.086a.166.166,0,0,1,.02.067L.564,1.344a.218.218,0,0,1-.123.263.17.17,0,0,1-.183-.084.171.171,0,0,1-.021-.068Z" transform="translate(444.339 150.886)"/><path class="o" d="M.489,1.35.023.3V.285A.213.213,0,0,1,.08.023a.136.136,0,0,1,.2.071L.769,1.161a.221.221,0,0,1-.058.263A.139.139,0,0,1,.5,1.35H.489Z" transform="translate(443.05 147.204)"/><path class="o" d="M.729,1.116.04.291a.2.2,0,0,1,0-.242.118.118,0,0,1,.191,0L.946.89a.208.208,0,0,1,0,.25.123.123,0,0,1-.2,0h0Z" transform="translate(440.988 144.179)"/><path class="o" d="M.977.743.094.294H.078A.169.169,0,0,1,.01.094.115.115,0,0,1,.17.01l.919.455A.174.174,0,0,1,1.16.67.12.12,0,0,1,1,.759H1Z" transform="translate(438.207 142.201)"/><g transform="translate(310.998 172.584)"><path class="w" d="M13.063,9.237a1.145,1.145,0,0,0-.031-.3C11.544,3.02,5.464,0,5.464,0L2.538.231C.856,5.447-.229,7.991.041,9.416a.362.362,0,0,0,.031.116A69.178,69.178,0,0,0,13.063,9.237Z" transform="translate(49.969 186.522)"/><path class="x" d="M0,.271a1.273,1.273,0,0,0,.332.6,1.267,1.267,0,0,0,.6.34c3.432.725,8.888.142,11.177-.16a1.063,1.063,0,0,0,.633-.364A1.069,1.069,0,0,0,12.988,0,69.182,69.182,0,0,1,0,.271Z" transform="translate(50.036 195.774)"/><path class="y" d="M5.152,0,3.872,6.185a1.01,1.01,0,0,1-.862.833,8.515,8.515,0,0,1-1.983-.032,1.273,1.273,0,0,1-1-1.493L.914,0Z" transform="translate(52.675 181.945)"/><path class="x" d="M12.878.789A17.239,17.239,0,0,0,18.452,0V.957a.617.617,0,0,1-.589.628L.71,1.475A.786.786,0,0,1,.079.331C2.321.507,8.047.923,12.878.789Z" transform="translate(12.303 195.195)"/><path class="w" d="M0,8.433A.79.79,0,0,1,.068,8.3c1.514-2.124,5.373-6.354,13-8.189L16.731,0a17.632,17.632,0,0,1,1.658,8.1,16.65,16.65,0,0,1-5.574.789A126.613,126.613,0,0,1,0,8.433Z" transform="translate(12.378 187.09)"/><path class="z" d="M4.739.881C4.7,1.143,4.2,5.313,4,6.927a.787.787,0,0,1-.671.72A8.353,8.353,0,0,1,.82,7.608,1.085,1.085,0,0,1,0,6.519V0Z" transform="translate(25.036 180.645)"/><path class="w" d="M31.211,0s5.852,52.2,2.6,84.827a25.1,25.1,0,0,1-5.852-.652s-6.08-51.04-8.047-65.645a.49.49,0,0,0-.964-.032C16.521,30.785,6.989,78.96,5.852,83.521c0,0-3.251,1.314-5.852,0,0,0,5.2-69.82,9.1-82.217Z" transform="translate(24.177 100.7)"/><path class="q" d="M44.215,1.407S19.5-2.507,0,2.721L1.31,22.95s5.2,28.059,9.1,40.457c0,0,14.955,2.61,22.109-1.314,0,0,5.852-35.225,9.1-40.457C41.614,21.648,44.867,7.942,44.215,1.407Z" transform="translate(22.877 38.602)"/><path class="aa" d="M9.229,0l2.462,16.706S4.815,19.876,0,16.569L1.048,4.779Z" transform="translate(40.7 22.185)"/><path class="q" d="M.006,54.47S55.839,39.224,28.116,0L26.241,2.666s8.354,26.564-19.316,29.09C6.924,31.753-.243,50.3.006,54.47Z" transform="translate(55.966 8.072)"/><path class="aa" d="M8.846,8.274S9.474.7,5.7.07.673,3.225.044,5.117,5.7,10.8,6.962,10.8,8.846,8.274,8.846,8.274Z" transform="translate(75.425 0)"/><path class="q" d="M35.832,54.471S-20,39.224,7.722,0L9.6,2.666S1.247,29.229,28.914,31.755C28.914,31.74,36.081,50.286,35.832,54.471Z" transform="translate(0 9.984)"/><path class="aa" d="M.039,8.274S-.589.7,3.183.07,8.212,3.225,8.843,5.117,3.183,10.8,1.925,10.8.039,8.274.039,8.274Z" transform="translate(7.494 1.89)"/><path class="aa" d="M4.6.814C4.461,1,0,15.937,0,15.937L8.55,18.3,14.874,4.781S6.936-2.362,4.6.814Z" transform="translate(36.145 10.803)"/><path class="w" d="M13.092,12.631,10.31,20.01a1.1,1.1,0,0,1-.141.263c-.367.5-1.75,2.121-3.316.6-1.422-1.38-2.743-2.629-3.979-2.865a1.1,1.1,0,0,0-1.265.765,47.753,47.753,0,0,0-1.6,7.216,1.1,1.1,0,0,0,.864,1.2,35.3,35.3,0,0,0,8.2.86,1.1,1.1,0,0,0,.938-.62c.857-1.78,3.481-7.174,4.453-8.565.9-1.314,3.052-1.222,3.95-1.122a1.077,1.077,0,0,0,.815-.247A2.862,2.862,0,0,0,19.5,12.92a1.106,1.106,0,0,1,.06-1.577A2.867,2.867,0,0,0,20.015,7.1,4.052,4.052,0,0,0,15.24,5.846a1.1,1.1,0,0,1-1.31-.526.869.869,0,0,0-.885-.439,1.085,1.085,0,0,1-1.129-1.138A3.288,3.288,0,0,0,9.456.257C5.726-1,3.305,2.594,3.017,5.307S6.85,9.148,9.291,9.017c1.855-.1,3.193,1.772,3.725,2.676a1.1,1.1,0,0,1,.076.938Z" transform="translate(34.646 4.97)"/><path class="aa" d="M0,4.907S.707.2,2.667.015,6.5,1.479,4.5,4.084C2.009,7.323,0,4.907,0,4.907Z" transform="translate(48.071 21.606)"/></g><path class="aa" d="M4.388,0,3.9,9.072S6.706,39.434,7.3,52.875A10.562,10.562,0,0,1,5.75,58.861L0,68.229l14.609-8.651.291-1.79-2.392-3.3,3.143-37.646a11.585,11.585,0,0,0-1.31-6.388l-3.023-5.7Z" transform="translate(395.867 301.443)"/><path class="n" d="M1.234,13.911H5.9a2.8,2.8,0,0,0,2.229-1.1c1.454-1.9,4.453-5.594,5.9-5.689,1.938-.129,1.69,6.785,1.69,6.785h1.087l1.375-8.593A5.092,5.092,0,0,0,15.523,0h0s-.443,3.289-2.845,4.732S2.9,11.4,2.9,11.4a6.641,6.641,0,0,0-1.894.05A1.245,1.245,0,0,0,1.234,13.911Z" transform="translate(393.671 357.118)"/><path class="aa" d="M4.4,0,3.408,5.828S6.714,39.434,7.3,52.883A10.562,10.562,0,0,1,5.75,58.868L0,68.237l14.609-8.651L14.9,57.8l-2.392-3.3L15.651,16.85a11.585,11.585,0,0,0-1.31-6.388l-3.023-5.7Z" transform="translate(408.427 301.443)"/><path class="q" d="M29.781,14.235C29,7.807,20.969,1.745,20.969,1.745A19.262,19.262,0,0,1,3.62,0,35.205,35.205,0,0,0,.435,13.123C.393,19.745,0,62.267,0,62.267c11.709,4.924,23.8,2.51,23.8,2.51C22.895,49.471,30.578,20.662,29.781,14.235Z" transform="translate(399.715 248.641)"/><path class="w" d="M0,1.672s8.5-5.988,13.045,4.7c.83,1.953,5.619,2.277,6.109,6.243a4.543,4.543,0,0,0,3.8,4c5.064.789,12.865,3.417,14.114,12.239.954,6.732-2.468,9.287-6.056,10.171a5.105,5.105,0,0,0-3.856,5.894c.524,2.563-.262,5.52-4.673,7.865C12.566,58.045,2.669,40.354,2.669,40.354L.642,9.479Z" transform="translate(406.191 182.721)"/><path class="n" d="M1.23,13.911H5.893a2.8,2.8,0,0,0,2.229-1.1c1.454-1.9,4.453-5.594,5.9-5.689,1.938-.129,1.69,6.785,1.69,6.785H16.8l1.375-8.593A5.092,5.092,0,0,0,15.52,0h0s-.443,3.289-2.845,4.732S2.9,11.4,2.9,11.4A6.641,6.641,0,0,0,1,11.446,1.245,1.245,0,0,0,1.23,13.911Z" transform="translate(406.234 357.118)"/><path class="n" d="M25.018,40.168c-3.117-13.262.642-22.925,3.906-28.317a6.313,6.313,0,0,0-3.143-9.119A49.256,49.256,0,0,0,9.867,0,4.545,4.545,0,0,0,6.132,1.869C3.654,5.242-1.025,12.582.2,18.51c.967,4.674,7.473,23.357,7.473,23.357A19.237,19.237,0,0,0,25.018,40.168Z" transform="translate(395.58 210.454)"/><path class="aa" d="M7.848,1.74,11.1,17.891c.388,1.614-1.933,1.964-3.581,2.1-2.819.231-4.4-.439-5.546-2.518a1.979,1.979,0,0,1-.207-.689L.021,4.09a2.283,2.283,0,0,1,1.331-2.4L4.721.195A2.274,2.274,0,0,1,7.848,1.74Z" transform="translate(403.49 193.819)"/><path class="aa" d="M6.3.568S2.338,3.2.565,9.979s.946,9.253,3.762,9.148,6.91-.938,10.507-5.783S11.5-2.629,6.3.568Z" transform="translate(398.248 183.103)"/><path class="w" d="M9.767,16.374s1.572-9.726-6.528-8.341L1.586,9.718s-3.9-4.511.524-7.831S12.588-.5,15.857,5.688s4.453,10.515,1.587,14.3-4.935.484-4.935.484,1.331-3.289.278-4.719-2.46.789-2.46.789Z" transform="translate(399.78 177.292)"/><path class="aa" d="M0,3.812S.773-1.2,3.308.268,2.331,4.945.925,6.033Z" transform="translate(410.64 190.695)"/><path class="aa" d="M.087,19.943a.625.625,0,0,1,.707-.92c2,.584,5.7,1.278,8.254-.489.128-.089.262-.171.377-.25-.262-.313,2.646-2.421,3.633-.954,4.27,4.469,9.776,10.578,19.384,5.967,7.133-3.417,7.164-13.546,6.709-18.535A4.185,4.185,0,0,1,42.007.378c2.46-.789,4.492-.365,6.025,1.491A4.825,4.825,0,0,1,49.08,5.2c-.3,5.279-2.206,22.434-14.386,26.075-14.439,4.314-22.944-9.74-22.944-9.74S4.286,27.033.087,19.943Z" transform="translate(377.641 216.08)"/><path class="aa" d="M0,3.453A9.2,9.2,0,0,0,.993.375C.938-.64,3,.574,3.995,2.023,2.588,3.521.191,4.78,0,3.453Z" transform="translate(386.591 231.219)"/></g></g></g></svg>