<svg xmlns="http://www.w3.org/2000/svg" width="40" height="40" viewBox="0 0 40 40"><defs><style>.a{fill:#ffe0de;}.b{fill:#f44336;}.c{fill:#fff;}</style></defs><path class="a" d="M2.346,22.346a20,20,0,1,1,20,20A20.025,20.025,0,0,1,2.346,22.346Z" transform="translate(-2.346 -2.346)"/><g transform="translate(5.447 5.447)"><path class="b" d="M14.553,0A14.553,14.553,0,1,0,29.105,14.553,14.569,14.569,0,0,0,14.553,0Zm0,0"/><path class="c" d="M166.663,164.93a1.226,1.226,0,1,1-1.733,1.733l-3.683-3.683-3.683,3.683a1.226,1.226,0,0,1-1.733-1.733l3.683-3.683-3.683-3.683a1.226,1.226,0,0,1,1.733-1.733l3.683,3.683,3.683-3.683a1.226,1.226,0,0,1,1.733,1.733l-3.683,3.683Zm0,0" transform="translate(-146.694 -146.694)"/></g></svg>