<svg xmlns="http://www.w3.org/2000/svg" width="24" height="24" viewBox="0 0 24 24"><defs><style>.a{fill:#fff;stroke:#707070;opacity:0;}.b{fill:#1c1b1b;}.c{stroke:none;}.d{fill:none;}</style></defs><g transform="translate(-1024 -528)"><g class="a" transform="translate(1024 528)"><rect class="c" width="24" height="24"/><rect class="d" x="0.5" y="0.5" width="23" height="23"/></g><g transform="translate(659.724 201.703)"><path class="b" d="M378.712,327.764a5.045,5.045,0,0,1,.9.379,1.882,1.882,0,0,1,.819,1.659c0,.164,0,.327,0,.523h.231c.727,0,1.454-.006,2.181,0a1.881,1.881,0,0,1,.83,3.613.311.311,0,0,0-.234.353q.009,5.879.005,11.759a2.762,2.762,0,0,1-.78,2.055,2.371,2.371,0,0,1-1.719.713c-.885.006-1.77,0-2.654,0-2.16,0-4.321-.028-6.481.01a2.586,2.586,0,0,1-2.684-2.673q0-3.125,0-6.249c0-1.891,0-3.782,0-5.674a.242.242,0,0,0-.193-.275,1.877,1.877,0,0,1-1.2-1.97,1.841,1.841,0,0,1,1.689-1.634c.8-.042,1.6-.023,2.406-.031h.284c.015-.285.018-.563.046-.839a1.907,1.907,0,0,1,1.6-1.689.616.616,0,0,0,.1-.032Zm-8.6,6.324v.183q0,5.911,0,11.822a2.664,2.664,0,0,0,.032.409,1.516,1.516,0,0,0,1.531,1.33q4.61,0,9.22,0a1.446,1.446,0,0,0,1.029-.394,1.783,1.783,0,0,0,.527-1.377q0-5.88,0-11.761v-.214Zm6.169-1h6.46a2.962,2.962,0,0,0,.328-.015.881.881,0,0,0,.122-1.722,1.731,1.731,0,0,0-.408-.039q-6.5,0-13,0a2.1,2.1,0,0,0-.307.021.878.878,0,0,0-.1,1.718,1.8,1.8,0,0,0,.428.037Q373.037,333.091,376.277,333.09Zm-3.17-2.781h6.315a7.274,7.274,0,0,0,0-.73.9.9,0,0,0-.882-.821q-2.253-.017-4.507,0a.894.894,0,0,0-.88.753A6.649,6.649,0,0,0,373.107,330.308Z" transform="translate(0)"/><path class="b" d="M473.1,487.9q0,2.271,0,4.543c0,.063,0,.125,0,.188a.5.5,0,0,1-.463.5.5.5,0,0,1-.521-.436,1.015,1.015,0,0,1-.014-.186q0-4.595,0-9.19c0-.367.149-.579.427-.616a.479.479,0,0,1,.56.4,1.428,1.428,0,0,1,.013.249Q473.1,485.632,473.1,487.9Z" transform="translate(-99.233 -147.486)"/><path class="b" d="M531.173,487.885q0-2.3,0-4.605c0-.358.163-.568.45-.593a.467.467,0,0,1,.52.375,1.414,1.414,0,0,1,.029.309q0,4.532,0,9.064a1.387,1.387,0,0,1-.03.309.484.484,0,0,1-.941.013,1.182,1.182,0,0,1-.028-.288Q531.171,490.177,531.173,487.885Z" transform="translate(-155.393 -147.47)"/><path class="b" d="M590.195,487.824q0-2.271,0-4.542c0-.43.17-.658.491-.662s.51.234.51.669q0,4.553,0,9.106c0,.424-.177.658-.5.664s-.5-.23-.5-.671Q590.194,490.106,590.195,487.824Z" transform="translate(-211.504 -147.408)"/></g></g></svg>