<svg xmlns="http://www.w3.org/2000/svg" width="33.65" height="44.176" viewBox="0 0 33.65 44.176">
  <g id="google-docs" transform="translate(-61)">
    <path id="Path_3755" data-name="Path 3755" d="M64.883,44.176H90.767a3.887,3.887,0,0,0,3.883-3.883V12.942H85.59a3.887,3.887,0,0,1-3.883-3.883V0H64.883A3.887,3.887,0,0,0,61,3.883V40.293A3.887,3.887,0,0,0,64.883,44.176Zm5.177-25.971H85.59a1.294,1.294,0,0,1,0,2.588H70.059a1.294,1.294,0,0,1,0-2.588Zm0,5.177H85.59a1.294,1.294,0,0,1,0,2.588H70.059a1.294,1.294,0,0,1,0-2.588Zm0,5.177H85.59a1.294,1.294,0,1,1,0,2.588H70.059a1.294,1.294,0,1,1,0-2.588Zm0,5.177H80.413a1.294,1.294,0,0,1,0,2.588H70.059a1.294,1.294,0,0,1,0-2.588Z" fill="#f6b333"/>
    <path id="Path_3756" data-name="Path 3756" d="M332.294,18.384h8.3l-9.6-9.6v8.3A1.3,1.3,0,0,0,332.294,18.384Z" transform="translate(-246.704 -8.031)" fill="#f6b333"/>
  </g>
</svg>
