<svg xmlns="http://www.w3.org/2000/svg" width="20" height="20" viewBox="0 0 20 20"><defs><style>.a{fill:#fff;stroke:#707070;opacity:0;}.b{fill:#f9c67c;}.c{fill:#dae1ea;}.d{fill:#7398c6;}.e{stroke:none;}.f{fill:none;}</style></defs><g transform="translate(-425 -971)"><g class="a" transform="translate(425 971)"><rect class="e" width="20" height="20"/><rect class="f" x="0.5" y="0.5" width="19" height="19"/></g><g transform="translate(428.723 972.266)"><g transform="translate(0 0)"><path class="b" d="M11.214.051c.137,0,.273,0,.41,0a.915.915,0,0,1,.915.815.926.926,0,0,1-.605.942c-.036.014-.082,0-.1.05H.671C.625,1.8.548,1.789.484,1.758a.9.9,0,0,1-.46-1A.907.907,0,0,1,.88.056c.146,0,.3,0,.441,0a.272.272,0,0,1,.2-.05c.232,0,.464,0,.7,0,.1-.009.191,0,.291,0h7.6a1.842,1.842,0,0,1,.223,0c.237-.009.469,0,.705,0A.266.266,0,0,1,11.214.051Z" transform="translate(0.008 15.607)"/><path class="b" d="M11.836,0c.1.068.223.1.328.168a.907.907,0,0,1-.482,1.643c-.155,0-.3,0-.46,0a.485.485,0,0,1-.328.05H1.57a.357.357,0,0,1-.246-.05c-.132,0-.259,0-.391,0A.906.906,0,0,1,.578.064C.624.046.683.05.71,0Z" transform="translate(0 0)"/><path class="c" d="M0,0C.014,0,.027,0,.036,0H9.865A.077.077,0,0,1,9.9,0a9.42,9.42,0,0,1-.719,3.213A6.522,6.522,0,0,1,7.7,5.42a4.309,4.309,0,0,1-1.365.906.658.658,0,0,0,0,1.21A4.667,4.667,0,0,1,8.191,8.983a7.945,7.945,0,0,1,1.556,3.577,8.259,8.259,0,0,1,.146,1.3H9.01a.286.286,0,0,1-.064-.191,8.929,8.929,0,0,0-.491-1.879.279.279,0,0,0-.3-.2c-.9,0-1.8,0-2.694,0-.369,0-.387-.018-.387-.382V6.921A1.372,1.372,0,0,1,5.9,5.579,4.87,4.87,0,0,0,8.341,2.94c.055-.118.1-.241.15-.364.036-.091.014-.146-.091-.141H1.611c-.264,0-.268.009-.168.255a6.268,6.268,0,0,0,1.11,1.847A3.859,3.859,0,0,0,3.9,5.524a1.537,1.537,0,0,1,.769.719,1.282,1.282,0,0,1,.15.605v4.4c0,.3-.036.328-.337.328H1.756c-.237,0-.241,0-.323.218a8.429,8.429,0,0,0-.487,1.861.294.294,0,0,1-.064.191H0a9.42,9.42,0,0,1,.719-3.213A6.542,6.542,0,0,1,2.184,8.446a4.357,4.357,0,0,1,1.379-.919.651.651,0,0,0,.1-1.151c-.237-.137-.491-.232-.724-.378a5.52,5.52,0,0,1-1.8-1.938A8.442,8.442,0,0,1,.1.974C.055.655.032.332,0,0Z" transform="translate(1.319 1.806)"/><path class="d" d="M0,11.458A7.912,7.912,0,0,1,.569,9.224c.041-.109.118-.086.2-.086h2.9c.223,0,.223,0,.228-.223,0-1.442,0-2.89.009-4.332a1.415,1.415,0,0,0-.91-1.406A4.54,4.54,0,0,1,.9,1.129,8.572,8.572,0,0,1,.446.155C.4.027.428,0,.555,0Q4.064.007,7.567,0c.127,0,.159.027.109.155A6.262,6.262,0,0,1,6.248,2.43a3.944,3.944,0,0,1-1.142.76,1.377,1.377,0,0,0-.878,1.324c0,1.479,0,2.958,0,4.437,0,.15.046.2.2.191.974,0,1.943,0,2.917,0a.208.208,0,0,1,.237.155,7.953,7.953,0,0,1,.542,2.171c-1.165,0-2.33,0-3.495,0C3.09,11.463,1.547,11.463,0,11.458Z" transform="translate(2.209 4.2)"/></g></g></g></svg>