<svg xmlns="http://www.w3.org/2000/svg" width="32" height="32" viewBox="0 0 32 32">
  <g id="Group_6826" data-name="Group 6826" transform="translate(-184.62 -390.197)">
    <g id="Rectangle_480" data-name="Rectangle 480" transform="translate(184.62 390.197)" fill="#fff" stroke="#707070" stroke-width="1" opacity="0">
      <rect width="32" height="32" stroke="none"/>
      <rect x="0.5" y="0.5" width="31" height="31" fill="none"/>
    </g>
    <g id="fluent:edit-20-regular" transform="translate(188.338 394.797)">
      <g id="Group" transform="translate(0 0)">
        <path id="Vector" d="M17.024,1.231a4.213,4.213,0,0,1,6.155,5.746l-.2.212L8.441,21.731a3.029,3.029,0,0,1-1.094.7l-.25.08L.958,24.185A.757.757,0,0,1,0,23.375l.024-.121L1.7,17.117a3,3,0,0,1,.6-1.15l.177-.194L17.024,1.231Zm-1.3,3.444L3.553,16.843a1.514,1.514,0,0,0-.325.486l-.064.186L1.836,22.374,6.7,21.05A1.514,1.514,0,0,0,7.06,20.9l.162-.109.148-.129L19.538,8.49,15.722,4.675ZM21.912,2.3a2.7,2.7,0,0,0-3.636-.167l-.182.167-1.3,1.3,3.815,3.818,1.3-1.3a2.7,2.7,0,0,0,.167-3.636L21.912,2.3Z" transform="translate(0 0)" fill="#1c1b1b"/>
      </g>
    </g>
  </g>
</svg>
