<svg xmlns="http://www.w3.org/2000/svg" width="16" height="16.001" viewBox="0 0 16 16.001"><defs><style>.a{fill:#fff;stroke:#707070;opacity:0;}.b{fill:#1c1b1b;}.c{stroke:none;}.d{fill:none;}</style></defs><g transform="translate(-182.692 -388.692)"><g class="a" transform="translate(182.692 388.692)"><rect class="c" width="16" height="16"/><rect class="d" x="0.5" y="0.5" width="15" height="15"/></g><g transform="translate(182.692 388.693)"><g transform="translate(0 0)"><path class="b" d="M11.249.814a2.784,2.784,0,0,1,4.067,3.8l-.13.14L5.578,14.36a2,2,0,0,1-.723.462l-.165.053L.633,15.982A.5.5,0,0,1,0,15.447l.016-.08,1.106-4.055a1.982,1.982,0,0,1,.4-.76l.117-.128L11.249.814Zm-.86,2.276L2.348,11.13a1,1,0,0,0-.215.321l-.042.123-.877,3.211,3.213-.875a1,1,0,0,0,.239-.1l.107-.072.1-.085L12.911,5.61,10.389,3.089Zm4.09-1.569a1.784,1.784,0,0,0-2.4-.11l-.12.11-.86.86L13.617,4.9l.862-.86a1.784,1.784,0,0,0,.11-2.4l-.11-.12Z" transform="translate(0 0)"/></g></g></g></svg>