<svg xmlns="http://www.w3.org/2000/svg" width="20" height="20" viewBox="0 0 20 20">
  <g id="Group_6826" data-name="Group 6826" transform="translate(-184.62 -390.197)">
    <g id="Rectangle_480" data-name="Rectangle 480" transform="translate(184.62 390.197)" fill="#2a5798" stroke="#707070" stroke-width="1" opacity="0">
      <rect width="20" height="20" stroke="none"/>
      <rect x="0.5" y="0.5" width="19" height="19" fill="none"/>
    </g>
    <g id="fluent:edit-20-regular" transform="translate(186.944 393.072)">
      <g id="Group" transform="translate(0 0)">
        <path id="Vector" d="M10.64.77a2.633,2.633,0,0,1,3.847,3.591l-.123.132L5.275,13.582a1.893,1.893,0,0,1-.684.437l-.156.05L.6,15.115a.473.473,0,0,1-.6-.506l.015-.076L1.064,10.7a1.875,1.875,0,0,1,.377-.719l.111-.121L10.64.77ZM9.826,2.922l-7.606,7.6a.946.946,0,0,0-.2.3l-.04.116-.83,3.037,3.039-.828a.946.946,0,0,0,.226-.095l.1-.068.093-.08,7.6-7.607L9.826,2.922Zm3.869-1.483a1.687,1.687,0,0,0-2.273-.1l-.114.1-.814.814,2.384,2.386.816-.814a1.687,1.687,0,0,0,.1-2.273l-.1-.114Z" transform="translate(0 0)" fill="#2a5798"/>
      </g>
    </g>
  </g>
</svg>
