<svg xmlns="http://www.w3.org/2000/svg" width="32" height="32" viewBox="0 0 32 32"><defs><style>.a,.b{fill:#fff;}.a{stroke:#707070;opacity:0;}.c{stroke:none;}.d{fill:none;}</style></defs><g transform="translate(-182.692 -388.692)"><g class="a" transform="translate(182.692 388.692)"><rect class="c" width="32" height="32"/><rect class="d" x="0.5" y="0.5" width="31" height="31"/></g><g transform="translate(182.692 388.694)"><g transform="translate(0 0)"><path class="b" d="M22.257,1.61A5.508,5.508,0,0,1,30.3,9.123l-.257.277L11.035,28.413a3.96,3.96,0,0,1-1.431.914l-.327.1L1.252,31.621A.99.99,0,0,1,.006,30.562L.037,30.4,2.226,22.38a3.922,3.922,0,0,1,.788-1.5l.232-.253L22.257,1.61Zm-1.7,4.5L4.645,22.022a1.979,1.979,0,0,0-.426.635l-.083.243L2.4,29.254l6.357-1.732a1.979,1.979,0,0,0,.473-.2l.212-.143.194-.168L25.545,11.1,20.555,6.113Zm8.093-3.1a3.529,3.529,0,0,0-4.754-.218l-.237.218-1.7,1.7L26.942,9.7,28.648,8a3.529,3.529,0,0,0,.218-4.754l-.218-.238Z" transform="translate(0 0)"/></g></g></g></svg>