<svg xmlns="http://www.w3.org/2000/svg" width="15.999" height="15.998" viewBox="0 0 15.999 15.998"><defs><style>.a{fill:#1c1b1b;}</style></defs><g transform="translate(-3.997 -4.002)"><path class="a" d="M11.248.814a2.784,2.784,0,0,1,4.067,3.8l-.13.14L5.577,14.359a2,2,0,0,1-.723.462l-.165.053L.633,15.98A.5.5,0,0,1,0,15.445l.016-.08L1.125,11.31a1.982,1.982,0,0,1,.4-.76l.117-.128L11.248.814Zm-.86,2.276-8.041,8.04a1,1,0,0,0-.215.321l-.042.123-.877,3.211,3.213-.875a1,1,0,0,0,.239-.1l.107-.072.1-.085L12.91,5.61,10.388,3.089Zm4.09-1.568a1.783,1.783,0,0,0-2.4-.11l-.12.11-.86.86L13.616,4.9l.862-.86a1.783,1.783,0,0,0,.11-2.4l-.11-.12Z" transform="translate(3.997 4.002)"/></g></svg>