<svg xmlns="http://www.w3.org/2000/svg" width="18.248" height="15.478" viewBox="0 0 18.248 15.478"><defs><style>.a{fill:#f6b333;}.b{fill:#dc9103;}.c{fill:#ed9e08;}</style></defs><g transform="translate(-353.416 -382.255)"><path class="a" d="M356.876,387.695c-.082-.078-.2-.073-.291-.141.046-.076.127-.08.2-.093,1.629-.278,3.258-.561,4.889-.829.2,0,.388.044.583.062a3.563,3.563,0,0,0,1.472-.18,1.118,1.118,0,0,0,.429-.247.314.314,0,0,0,.012-.5,1.129,1.129,0,0,0-.541-.3,3.722,3.722,0,0,0-2.378.073,3.356,3.356,0,0,0-.461.3c-.871.179-1.749.317-2.624.476q-1.47.266-2.941.522a1.01,1.01,0,0,0-.289.084.288.288,0,0,1-.224-.016c-.294-.11-.588-.219-.88-.331a.563.563,0,0,1-.418-.415v-.321a1.149,1.149,0,0,1,.66-.436q4.087-1.541,8.17-3.091a.785.785,0,0,1,.586,0q4.2,1.592,8.4,3.176a.529.529,0,0,1,.244.918,1.048,1.048,0,0,1-.3.15l-2.8,1.058a.4.4,0,0,0-.174.083,1.382,1.382,0,0,1-.453.2c-1.636.623-3.275,1.238-4.912,1.861a.832.832,0,0,1-.622-.005q-2.563-.975-5.129-1.941A.56.56,0,0,1,356.876,387.695Z" transform="translate(0 0)"/><path class="b" d="M353.416,629.056a12.222,12.222,0,0,0,.247-1.21c.151-.76.291-1.522.436-2.283.1-.014.153.055.218.1a1.194,1.194,0,0,0,1.471-.021c.056-.042.107-.1.189-.082l.612,3.214c0,.012,0,.024,0,.035.066.367.066.363-.312.354a.171.171,0,0,1-.164-.1c-.1-.17-.2-.338-.3-.506-.005-.008-.02-.011-.037-.02-.095.163-.2.323-.283.491a.215.215,0,0,1-.235.14c-.2-.017-.437.069-.593-.032s-.212-.318-.313-.485l-.081-.138c-.1.17-.2.319-.276.48a.26.26,0,0,1-.3.175,2.1,2.1,0,0,0-.285,0Z" transform="translate(0 -231.452)"/><path class="c" d="M419.143,493.9c.394.108.768.274,1.149.417q1.538.577,3.073,1.162c.4.151.8.3,1.2.454a.67.67,0,0,0,.5,0l3.871-1.463,1.411-.535a1.157,1.157,0,0,1,.136-.034,13.92,13.92,0,0,1,.249,3.239,3.441,3.441,0,0,1-.125.7,1.487,1.487,0,0,1-.73.837,6.4,6.4,0,0,1-2.241.818,14.382,14.382,0,0,1-6.022-.082,5.782,5.782,0,0,1-2.023-.842,1.545,1.545,0,0,1-.658-1.147,9.706,9.706,0,0,1,.052-2.4C419.022,494.653,419.087,494.279,419.143,493.9Z" transform="translate(-62.267 -106.209)"/><path class="c" d="M377.388,461.356q.16-2.462.319-4.924c0-.065,0-.13,0-.2.094-.162.27-.121.408-.147.782-.149,1.566-.281,2.35-.419l2.734-.481.4-.07c0,.406.1.535.5.7a1.018,1.018,0,0,1,.386.165c-.451.081-.9.165-1.353.243-.737.127-1.476.25-2.213.377-.511.088-1.022.178-1.533.268-.129.02-.257.038-.386.061-.3.053-.3.054-.32.369q-.132,2.051-.268,4.1a.154.154,0,0,1-.152.006,1.3,1.3,0,0,0-.761-.03A.113.113,0,0,1,377.388,461.356Z" transform="translate(-22.804 -69.315)"/><path class="a" d="M361.536,581.707a1.481,1.481,0,0,1,1.028.044,1.415,1.415,0,0,1,.611.694,1.24,1.24,0,0,1-.192,1.241.757.757,0,0,0-.053.091,1.32,1.32,0,0,1-1.878,0,2.584,2.584,0,0,1-.253-.445,1.261,1.261,0,0,1,.614-1.558Z" transform="translate(-6.952 -189.666)"/><path class="b" d="M504.767,445.375a1.942,1.942,0,0,1-.741-.312.4.4,0,0,1-.145-.55,1.794,1.794,0,0,1,1.13-.495,3.9,3.9,0,0,1,1.568.069,1.592,1.592,0,0,1,.671.312.383.383,0,0,1-.013.655,1.724,1.724,0,0,1-.694.307A4,4,0,0,1,504.767,445.375Z" transform="translate(-143.082 -58.709)"/></g></svg>