<svg xmlns="http://www.w3.org/2000/svg" width="24" height="24" viewBox="0 0 24 24"><defs><style>.a{fill:#fff;stroke:#707070;opacity:0;}.b{fill:#f8b432;}.c{fill:#d48e07;}.d{stroke:none;}.e{fill:none;}</style></defs><g transform="translate(-217 -410)"><g class="a" transform="translate(217 410)"><rect class="d" width="24" height="24"/><rect class="e" x="0.5" y="0.5" width="23" height="23"/></g><g transform="translate(216.616 409.744)"><g transform="translate(2 5.333)"><path class="b" d="M19.764,6.611A2.163,2.163,0,0,1,18.1,7.39H1.661A2.163,2.163,0,0,1,0,6.611L7.935,0l.822.562a1.981,1.981,0,0,0,2.25,0L11.829,0Z" transform="translate(0.502 6.455)"/><path class="c" d="M20.007.943,11.95,6.455l-.822.562a1.981,1.981,0,0,1-2.25,0l-.822-.562L0,.935A2.173,2.173,0,0,1,1.783,0H18.224A2.135,2.135,0,0,1,20.007.943Z" transform="translate(0.381 0)"/><g transform="translate(0 0.935)"><path class="b" d="M8.437,5.521.5,12.132A2.154,2.154,0,0,1,0,10.747V1.229A2.132,2.132,0,0,1,.381,0Z" transform="translate(0)"/><path class="b" d="M8.437,1.22v9.519a2.154,2.154,0,0,1-.5,1.385L0,5.512,8.056,0A2.125,2.125,0,0,1,8.437,1.22Z" transform="translate(12.331 0.009)"/></g></g></g></g></svg>