<svg xmlns="http://www.w3.org/2000/svg" width="24" height="24" viewBox="0 0 24 24"><defs><style>.a{fill:#546984;}</style></defs><g transform="translate(-0.833 -0.833)"><path class="a" d="M.244.127a.625.625,0,0,1,.89.142,2.567,2.567,0,0,0,.477.41,2.818,2.818,0,0,0,1.587.47A2.812,2.812,0,0,0,4.784.68,2.568,2.568,0,0,0,5.26.27L5.278.248a.625.625,0,0,1,1,.754l-.023.028c-.011.013-.025.032-.043.052-.037.042-.087.1-.153.165a3.808,3.808,0,0,1-.579.472A4.067,4.067,0,0,1,3.2,2.4,4.067,4.067,0,0,1,.917,1.72a3.808,3.808,0,0,1-.579-.472,2.711,2.711,0,0,1-.2-.217.638.638,0,0,1,.1-.9Z" transform="translate(9.638 15.906)"/><path class="a" d="M12,0A12,12,0,1,0,24,12,12,12,0,0,0,12,0ZM1.636,12a10.364,10.364,0,1,1,3.035,7.328A10.364,10.364,0,0,1,1.636,12Z" transform="translate(0.833 0.833)"/><path class="a" d="M2.083,1.042A1.042,1.042,0,1,1,1.778.305,1.042,1.042,0,0,1,2.083,1.042ZM8.125,2.083a1.042,1.042,0,1,0-.737-.305,1.042,1.042,0,0,0,.737.305Z" transform="translate(8.25 10.387)"/></g></svg>