<svg xmlns="http://www.w3.org/2000/svg" width="28.906" height="17.081" viewBox="0 0 28.906 17.081">
  <g id="_309041_users_group_people_icon" data-name="309041_users_group_people_icon" transform="translate(-1 -6)">
    <g id="Group_6428" data-name="Group 6428" transform="translate(7.57 6)">
      <path id="Path_3575" data-name="Path 3575" d="M9.942,9.942A3.871,3.871,0,0,1,13.884,6a3.871,3.871,0,0,1,3.942,3.942,3.871,3.871,0,0,1-3.942,3.942A3.871,3.871,0,0,1,9.942,9.942Zm3.942,6.57C7.839,16.511,6,20.847,6,20.847v2.234H21.767V20.847S19.928,16.511,13.884,16.511Z" transform="translate(-6 -6)" fill="#f6b333"/>
    </g>
    <g id="Group_6431" data-name="Group 6431" transform="translate(20.315 6)">
      <g id="Group_6429" data-name="Group 6429" transform="translate(0.394)">
        <circle id="Ellipse_108" data-name="Ellipse 108" cx="3.5" cy="3.5" r="3.5" transform="translate(-0.256 0.04)" fill="#f6b333"/>
      </g>
      <g id="Group_6430" data-name="Group 6430" transform="translate(0 9.197)">
        <path id="Path_3576" data-name="Path 3576" d="M19.379,13A6.116,6.116,0,0,0,15.7,14.051a8.107,8.107,0,0,1,4.2,4.2v.131h5.387V16.679A6.113,6.113,0,0,0,19.379,13Z" transform="translate(-15.7 -13)" fill="#f6b333"/>
      </g>
    </g>
    <g id="Group_6434" data-name="Group 6434" transform="translate(20.315 6)">
      <g id="Group_6432" data-name="Group 6432" transform="translate(0.394)">
        <circle id="Ellipse_109" data-name="Ellipse 109" cx="3.5" cy="3.5" r="3.5" transform="translate(-0.256 0.04)" fill="#f6b333"/>
      </g>
      <g id="Group_6433" data-name="Group 6433" transform="translate(0 9.197)">
        <path id="Path_3577" data-name="Path 3577" d="M19.379,13A6.116,6.116,0,0,0,15.7,14.051a8.107,8.107,0,0,1,4.2,4.2v.131h5.387V16.679A6.113,6.113,0,0,0,19.379,13Z" transform="translate(-15.7 -13)" fill="#f6b333"/>
      </g>
    </g>
    <g id="Group_6437" data-name="Group 6437" transform="translate(1 6)">
      <g id="Group_6435" data-name="Group 6435" transform="translate(2.628)">
        <circle id="Ellipse_110" data-name="Ellipse 110" cx="3.5" cy="3.5" r="3.5" transform="translate(-0.175 0.04)" fill="#f6b333"/>
      </g>
      <g id="Group_6436" data-name="Group 6436" transform="translate(0 9.197)">
        <path id="Path_3578" data-name="Path 3578" d="M6.913,13a6.116,6.116,0,0,1,3.679,1.051,8.107,8.107,0,0,0-4.2,4.2v.131H1V16.679A6.113,6.113,0,0,1,6.913,13Z" transform="translate(-1 -13)" fill="#f6b333"/>
      </g>
    </g>
  </g>
</svg>
