<svg xmlns="http://www.w3.org/2000/svg" width="354" height="240" viewBox="0 0 354 240"><defs><style>.a{fill:#e0e0e0;}.b{fill:#ebebeb;}.c{fill:#f5f5f5;}.d{fill:#fafafa;}.e{fill:#fff;}.f{fill:#263238;}.g{fill:#2a5798;}.h{fill:#1b3c6b;}.i{fill:#f6b333;}.j{fill:#ff725e;}.k{fill:#ffbe9d;}.l{fill:#aa6550;}.m{opacity:0.4;}.n{fill:#1c1b1b;}.o{fill:#1b1b1c;}.p{fill:#455a64;}.q{fill:#ce9381;}.r{fill:#565656;}.s{opacity:0.5;}.t{opacity:0.2;}.u{fill:#eb996e;}</style></defs><g transform="translate(-42.61 -18.797)"><g transform="translate(47.414 18.797)"><path class="a" d="M168.453,287.3a2.18,2.18,0,0,0,.952-.64,2.016,2.016,0,0,0,.466-1.286,3.07,3.07,0,0,0-.153-.878c-.079-.312-.164-.651-.249-1.005-.714-2.862-1.73-6.979-2.989-12.048l-.979-3.995q-.254-1.058-.529-2.116a6.059,6.059,0,0,0-.3-1.058,1.857,1.857,0,0,0-.7-.773,1.752,1.752,0,0,0-1.016-.249,9.159,9.159,0,0,0-1.127.254l-2.344.614-4.9,1.27-21.826,5.64a1.841,1.841,0,0,0-1.312,2.079c.233.958.46,1.9.683,2.852.46,1.889.91,3.757,1.355,5.587q1.325,5.5,2.55,10.582c.1.423.206.841.3,1.254a1.931,1.931,0,0,0,.529,1.021,1.767,1.767,0,0,0,1.016.487,3.032,3.032,0,0,0,1.153-.18l4.63-1.18,8.307-2.116,12.064-3.058,3.275-.8.857-.2.291-.058a1.929,1.929,0,0,1-.286.1l-.841.238-3.259.878-12.006,3.175-8.3,2.164-4.624,1.2a3.429,3.429,0,0,1-1.28.19,2.116,2.116,0,0,1-1.217-.571,2.359,2.359,0,0,1-.646-1.19c-.1-.418-.2-.836-.307-1.254-.82-3.37-1.677-6.878-2.571-10.582l-1.36-5.587q-.344-1.429-.688-2.878a2.217,2.217,0,0,1,1.587-2.513l21.837-5.614,4.9-1.254,2.349-.6a9.521,9.521,0,0,1,1.185-.265,2.116,2.116,0,0,1,1.206.307,2.2,2.2,0,0,1,.815.9,6.963,6.963,0,0,1,.317,1.111q.265,1.09.529,2.116c.333,1.392.656,2.73.958,4.005,1.206,5.085,2.185,9.207,2.868,12.074l.238,1.011a3.344,3.344,0,0,1,.138.915,2.116,2.116,0,0,1-.529,1.333,2,2,0,0,1-.725.529,1.017,1.017,0,0,1-.3.069Z" transform="translate(-89.054 -133.753)"/><path class="a" d="M165.2,287.713l4.677,1.413-3.508,3.492-3.508,3.492-1.169-4.9-1.175-4.9Z" transform="translate(-102.936 -144.76)"/><rect class="b" width="47.52" height="37.99" transform="translate(287.97 157.509) rotate(-9.93)"/><rect class="c" width="44.181" height="33.207" transform="translate(289.999 159.582) rotate(-9.93)"/><path class="a" d="M610.81,361.775l11.641-23,11.641,11.074,5.2-7.921,15.043,12.223Z" transform="translate(-315.087 -169.473)"/><path class="a" d="M651.188,327.074a3.476,3.476,0,1,1-1.426-2.251A3.476,3.476,0,0,1,651.188,327.074Z" transform="translate(-330.85 -162.603)"/><rect class="b" width="25.551" height="31.959" transform="matrix(0.321, -0.947, 0.947, 0.321, 161.723, 190.435)"/><rect class="c" width="22.334" height="29.71" transform="matrix(0.321, -0.947, 0.947, 0.321, 163.279, 189.268)"/><path class="a" d="M360.41,367.8l14.281-9.815,3.3,10.286,5.619-2.995,4.937,12.064Z" transform="translate(-197.12 -178.513)"/><path class="a" d="M400.778,357.738a2.339,2.339,0,1,1-1.466-2.968A2.339,2.339,0,0,1,400.778,357.738Z" transform="translate(-213.987 -176.944)"/><circle class="a" cx="21.292" cy="21.292" r="21.292" transform="translate(251.699 30.111) rotate(-45)"/><path class="d" d="M593.942,65.812a3.7,3.7,0,0,1-.751.053l-2.069.042c-1.757,0-4.2.037-6.963.042H584V64.4c0-3.085,0-5.873.037-7.894,0-.974.032-1.783.042-2.4a5.3,5.3,0,0,1,.058-.873,5.809,5.809,0,0,1,.053.873c0,.614.026,1.423.042,2.4,0,2.021.042,4.81.042,7.894v1.381l-.132-.138c2.762,0,5.206,0,6.963.048l2.069.042A4.708,4.708,0,0,1,593.942,65.812Z" transform="translate(-302.462 -35.016)"/><path class="d" d="M584.283,42.08a6.029,6.029,0,0,1,.137,1.788,6,6,0,0,1-.137,1.788,5.991,5.991,0,0,1-.138-1.788A6.023,6.023,0,0,1,584.283,42.08Z" transform="translate(-302.523 -29.761)"/><path class="d" d="M600.518,47.51a5.9,5.9,0,0,1-1.153,1.344A5.636,5.636,0,0,1,598,50a5.742,5.742,0,0,1,1.154-1.344A5.672,5.672,0,0,1,600.518,47.51Z" transform="translate(-309.055 -32.318)"/><path class="d" d="M610.8,59.22a7.476,7.476,0,0,1-1.471.979,7.238,7.238,0,0,1-1.545.852,4.841,4.841,0,0,1,1.4-1.058,4.762,4.762,0,0,1,1.614-.772Z" transform="translate(-313.66 -37.832)"/><path class="d" d="M615.418,76.478a21.694,21.694,0,0,1-4.878,0,21.693,21.693,0,0,1,4.878,0Z" transform="translate(-314.959 -45.893)"/><path class="d" d="M551.739,75.878a19.366,19.366,0,0,1-4.609,0A19.366,19.366,0,0,1,551.739,75.878Z" transform="translate(-285.073 -45.611)"/><path class="d" d="M557.106,88.93a10.235,10.235,0,0,1-1.741,1.587,9.826,9.826,0,0,1-1.915,1.365,10.491,10.491,0,0,1,1.741-1.587,10.112,10.112,0,0,1,1.915-1.365Z" transform="translate(-288.05 -51.822)"/><path class="d" d="M569.339,98.94a16.019,16.019,0,0,1-1.185,2.053A16.286,16.286,0,0,1,566.9,103a12.18,12.18,0,0,1,2.439-4.064Z" transform="translate(-294.385 -56.535)"/><path class="d" d="M584.283,107.5a11.062,11.062,0,0,1-.138-2.439,11.119,11.119,0,0,1,.138-2.439,11.1,11.1,0,0,1,.138,2.439A11.044,11.044,0,0,1,584.283,107.5Z" transform="translate(-302.523 -58.268)"/><path class="d" d="M601.041,102.87a7.084,7.084,0,0,1-2.011-1.376,7.345,7.345,0,0,1-1.64-1.8,22.166,22.166,0,0,1,1.82,1.587,22.933,22.933,0,0,1,1.831,1.593Z" transform="translate(-308.767 -56.888)"/><path class="d" d="M610.912,92.995a8.629,8.629,0,0,1-1.614-1.407A8.52,8.52,0,0,1,607.88,90a8.518,8.518,0,0,1,1.587,1.418A8.406,8.406,0,0,1,610.912,92.995Z" transform="translate(-313.707 -52.326)"/><path class="d" d="M557.576,61.226A6.349,6.349,0,0,1,556.147,60a6.5,6.5,0,0,1-1.228-1.429,6.63,6.63,0,0,1,1.423,1.233A6.63,6.63,0,0,1,557.576,61.226Z" transform="translate(-288.742 -37.526)"/><path class="d" d="M569.123,49.158a6.268,6.268,0,0,1-1.4-1.2,6.12,6.12,0,0,1-1.206-1.4,6.44,6.44,0,0,1,1.4,1.2,6.042,6.042,0,0,1,1.206,1.4Z" transform="translate(-294.206 -31.87)"/><rect class="a" width="37.202" height="53.922" transform="translate(311.994 55.818)"/><rect class="c" width="37.202" height="53.922" transform="translate(310.131 55.818)"/><rect class="e" width="27.958" height="42.244" transform="translate(314.75 61.654)"/><path class="a" d="M674.7,177.4v-3.122c0-2.027,0-4.974-.026-8.7,0-7.45,0-17.99-.042-30.419l.09.1h-27.98l.1-.1V177.4l-.079-.079,20.35.042h.074l-20.4.042H646.7V134.98h28.154v.09c0,12.45-.037,23.016-.048,30.482,0,3.7,0,6.662-.026,8.677v2.889A.683.683,0,0,1,674.7,177.4Z" transform="translate(-331.987 -73.506)"/><path class="a" d="M704.034,124.29a6.054,6.054,0,0,1-.661.963c-.434.577-1.058,1.36-1.746,2.212s-1.355,1.587-1.836,2.116a6.812,6.812,0,0,1-.82.836,6.935,6.935,0,0,1,.709-.931c.5-.6,1.111-1.349,1.794-2.169l1.788-2.175A6.684,6.684,0,0,1,704.034,124.29Z" transform="translate(-356.6 -68.472)"/><path class="e" d="M699.88,214.9a34.3,34.3,0,0,0,4.878,6.1" transform="translate(-357.028 -111.139)"/><path class="a" d="M704.758,221a5.449,5.449,0,0,1-.852-.772,25.982,25.982,0,0,1-1.841-2.074,26.6,26.6,0,0,1-1.619-2.254,5.519,5.519,0,0,1-.566-1,7.681,7.681,0,0,1,.688.921c.407.577.984,1.365,1.656,2.206s1.317,1.587,1.788,2.116a7.866,7.866,0,0,1,.746.857Z" transform="translate(-357.028 -111.139)"/><path class="e" d="M638,220.771l4.873-6.011" transform="translate(-327.89 -111.073)"/><path class="a" d="M642.893,214.76a72.185,72.185,0,0,1-4.873,6.011,37.04,37.04,0,0,1,2.36-3.069,36.412,36.412,0,0,1,2.513-2.942Z" transform="translate(-327.899 -111.073)"/><path class="a" d="M638,124.29a31.74,31.74,0,0,1,2.371,2.825,34.73,34.73,0,0,1,2.206,2.952,32.136,32.136,0,0,1-2.365-2.825A35.157,35.157,0,0,1,638,124.29Z" transform="translate(-327.89 -68.472)"/><rect class="a" width="9.36" height="26.583" transform="translate(324.639 70.231)"/><path class="a" d="M109.557,166.2v38.562H54.175L52.18,166.47Z" transform="translate(-51.921 -88.207)"/><rect class="e" width="38.207" height="55.382" transform="translate(0.259 116.475) rotate(-90)"/><path class="a" d="M107.6,204.951H51.69V166.22H107.6Zm-55.382-.529h54.853V166.744H52.214Z" transform="translate(-51.69 -88.216)"/><rect class="e" width="43.382" height="28.715" transform="translate(6.259 83.009)"/><path class="a" d="M106.737,175.6h-3.212l-8.942.032-31.218.063.127-.127v28.715h0l-.138-.138,43.387.032-.106.106c0-8.736.042-15.873.058-20.889,0-2.5,0-4.445.026-5.778v-.021c0,1.328,0,3.27.026,5.751,0,5.005.032,12.17.058,20.958v.111h-.111l-43.387.026H63.17v-.1h0V175.5H63.3l31.313.058,8.91.037h3.217Z" transform="translate(-57.096 -92.586)"/><path class="a" d="M52.18,166.51a4.35,4.35,0,0,1,.952.619c.566.407,1.339.989,2.175,1.651s1.587,1.3,2.079,1.773a4.338,4.338,0,0,1,.794.81c-.053.058-1.381-1.058-3.048-2.365a30.854,30.854,0,0,1-2.952-2.487Z" transform="translate(-51.921 -88.353)"/><path class="a" d="M151.51,166.71a27.162,27.162,0,0,1-2.915,2.482,25.807,25.807,0,0,1-3.085,2.265,27.431,27.431,0,0,1,2.9-2.476,26.984,26.984,0,0,1,3.1-2.27Z" transform="translate(-95.868 -88.447)"/><path class="e" d="M151.275,234.48l-6.175-5" transform="translate(-95.675 -118.005)"/><path class="a" d="M145.1,229.48a28.353,28.353,0,0,1,3.175,2.392,29.758,29.758,0,0,1,3,2.609,28.569,28.569,0,0,1-3.175-2.392,29.757,29.757,0,0,1-3-2.609Z" transform="translate(-95.675 -118.005)"/><path class="a" d="M52.18,234.743a27.512,27.512,0,0,1,2.884-2.455,26.845,26.845,0,0,1,3.053-2.238,26.213,26.213,0,0,1-2.857,2.455A25.091,25.091,0,0,1,52.18,234.743Z" transform="translate(-51.921 -118.273)"/><rect class="a" width="9.614" height="27.297" transform="translate(15.069 101.57) rotate(-90)"/></g><g transform="translate(42.61 253.059)"><path class="f" d="M394.24,461.678c0,.079-78.722.138-175.8.138s-175.825-.032-175.825-.138,78.7-.138,175.825-.138S394.24,461.6,394.24,461.678Z" transform="translate(-42.61 -461.54)"/></g><g transform="translate(78.193 45.985)"><rect class="b" width="37.99" height="47.52" transform="translate(0.131 38.054) rotate(-82.33)"/><path class="f" d="M162.158,77.209l-.233-.026-.667-.079L158.7,76.77,149.051,75.5,115.04,70.986l.138-.106c-1.5,11.207-3.233,24.059-5.058,37.652h0l-.116-.159,47.091,6.349-.127.1,3.736-27.3c.455-3.286.815-5.863,1.058-7.625q.18-1.317.286-2.016c.063-.455.106-.693.106-.693a4.39,4.39,0,0,1-.079.677l-.249,2.027c-.233,1.762-.566,4.333-.995,7.614-.873,6.587-2.116,16.016-3.63,27.387V115h-.111L110,108.686h-.138v-.138h0L114.945,70.9V70.78h.122l34.075,4.651,9.625,1.286,2.529.355.646.1Z" transform="translate(-109.86 -70.463)"/><path class="g" d="M0,0H33.207V44.181H0Z" transform="translate(2.077 35.905) rotate(-82.33)"/><path class="h" d="M113.78,121.657l18.048-18.4,7.752,14.08,7.344-5.979,10.64,16.2Z" transform="translate(-111.706 -85.757)"/><path class="h" d="M167.84,98.492a3.471,3.471,0,1,1-.68-2.575A3.476,3.476,0,0,1,167.84,98.492Z" transform="translate(-133.903 -81.656)"/><rect class="d" width="194.402" height="127.284" transform="translate(45.779 0.159)"/><path class="f" d="M391.917,87.278c0,.074-43.525.138-97.2.138s-97.2-.063-97.2-.138,43.514-.138,97.2-.138S391.917,87.2,391.917,87.278Z" transform="translate(-151.133 -78.166)"/><path class="f" d="M207.413,78.556a1.111,1.111,0,1,1-.325-.791A1.116,1.116,0,0,1,207.413,78.556Z" transform="translate(-154.745 -73.599)"/><path class="f" d="M215.013,78.556a1.111,1.111,0,1,1-.325-.791,1.116,1.116,0,0,1,.325.791Z" transform="translate(-158.324 -73.599)"/><path class="f" d="M222.633,78.556a1.111,1.111,0,1,1-.324-.789,1.116,1.116,0,0,1,.324.789Z" transform="translate(-161.912 -73.599)"/><rect class="b" width="66.346" height="3.661" transform="translate(110.68 15.858)"/><path class="f" d="M389.127,211.5c0-.831-.037-35.514-.1-92.352l.1.1-174.3.037h0l.143-.138V211.5l-.132-.132,174.317.132-174.317.127h-.127V119h.153l174.3.032h.106v.106C389.17,175.986,389.133,210.669,389.127,211.5Z" transform="translate(-159.232 -93.169)"/><path class="f" d="M255.407,211.276c-.079,0-.079-20.673,0-46.171s.2-46.176.27-46.176.079,20.672,0,46.176S255.481,211.276,255.407,211.276Z" transform="translate(-178.368 -93.136)"/><path class="f" d="M304.28,211.416c-.074,0-.074-20.672,0-46.171s.2-46.176.27-46.176.079,20.672,0,46.176S304.36,211.416,304.28,211.416Z" transform="translate(-201.384 -93.202)"/><path class="f" d="M353.157,211.562c-.079,0-.079-20.678,0-46.176s.2-46.176.27-46.176.079,20.672,0,46.176S353.231,211.562,353.157,211.562Z" transform="translate(-224.397 -93.268)"/><path class="f" d="M402.031,211.7c-.074,0-.074-20.678,0-46.176s.2-46.176.27-46.176.079,20.672,0,46.181S402.11,211.7,402.031,211.7Z" transform="translate(-247.413 -93.333)"/><path class="f" d="M450.947,211.816c-.079,0-.079-20.673,0-46.171s.2-46.176.27-46.176.079,20.667,0,46.176S451,211.816,450.947,211.816Z" transform="translate(-270.445 -93.39)"/><path class="f" d="M499.781,211.986c-.074,0-.074-20.673,0-46.171s.2-46.176.27-46.176.079,20.667,0,46.176S499.87,211.986,499.781,211.986Z" transform="translate(-293.442 -93.47)"/><path class="f" d="M389.4,161.358c0,.074-38.975.138-87.05.138s-87.06-.063-87.06-.138,38.975-.138,87.06-.138S389.4,161.278,389.4,161.358Z" transform="translate(-159.505 -113.049)"/><path class="f" d="M389.4,206.078c0,.074-38.975.138-87.05.138s-87.06-.063-87.06-.138,38.975-.138,87.06-.138S389.4,206,389.4,206.078Z" transform="translate(-159.505 -134.107)"/><path class="f" d="M389.4,250.788c0,.079-38.975.138-87.05.138s-87.06-.058-87.06-.138,38.975-.138,87.06-.138S389.4,250.713,389.4,250.788Z" transform="translate(-159.505 -155.161)"/><path class="b" d="M217.416,254.89s-2.064,13.4.085,21.747l20.635-.751s-4.233-13.328-1.55-19.99Z" transform="translate(-160.086 -157.157)"/><path class="g" d="M218.37,254s.138,16.461.974,21.482l20.635-.979s-1.815-16.18-1.116-20.5Z" transform="translate(-160.956 -156.738)"/><path class="e" d="M238.912,266.986c0,.079-3.1.328-6.921.556s-6.926.354-6.931.28,3.09-.323,6.916-.556S238.907,266.928,238.912,266.986Z" transform="translate(-164.106 -162.846)"/><path class="e" d="M238.922,273.6c0,.079-3.1.328-6.921.556s-6.926.355-6.931.28,3.09-.323,6.916-.556S238.917,273.527,238.922,273.6Z" transform="translate(-164.111 -165.958)"/><path class="e" d="M237.594,280.048a4.974,4.974,0,0,1-1.153.169c-.709.069-1.7.143-2.788.206s-2.074.111-2.788.127a4.761,4.761,0,0,1-1.164-.026,4.959,4.959,0,0,1,1.148-.169c.714-.063,1.7-.138,2.788-.206s2.079-.111,2.794-.127a5.209,5.209,0,0,1,1.164.026Z" transform="translate(-166.291 -168.982)"/><path class="b" d="M306.916,123.66s-1.693,13.942.455,22.292l20.281-1.058s-4.233-13.593-1.587-20.254Z" transform="translate(-202.352 -95.363)"/><path class="g" d="M307.64,122.73s.138,16.461.974,21.482l20.635-.979s-1.815-16.18-1.116-20.5Z" transform="translate(-202.992 -94.925)"/><path class="e" d="M328.182,135.781c0,.074-3.1.323-6.916.529s-6.931.355-6.937.275,3.09-.323,6.916-.529S328.177,135.7,328.182,135.781Z" transform="translate(-206.142 -101.06)"/><path class="e" d="M328.192,142.366c0,.074-3.09.323-6.916.529s-6.931.36-6.937.28,3.09-.323,6.921-.556S328.187,142.287,328.192,142.366Z" transform="translate(-206.147 -104.159)"/><path class="e" d="M326.864,148.812a5.176,5.176,0,0,1-1.148.164c-.714.069-1.7.143-2.788.206s-2.079.111-2.794.132a4.645,4.645,0,0,1-1.164-.032,5.192,5.192,0,0,1,1.153-.164c.709-.069,1.7-.143,2.788-.206s2.074-.111,2.788-.132a4.619,4.619,0,0,1,1.164.032Z" transform="translate(-208.327 -107.181)"/><path class="b" d="M358.29,253.15s-1.667,15.244.476,23.593l20.371-.894s-4.365-15.037-1.683-21.694Z" transform="translate(-226.551 -156.338)"/><path class="g" d="M359,252.22s.138,16.461.974,21.482l20.635-.979s-1.815-16.18-1.116-20.5Z" transform="translate(-227.176 -155.9)"/><path class="e" d="M379.542,265.266c0,.074-3.1.323-6.915.529s-6.931.36-6.937.28,3.09-.323,6.916-.556S379.537,265.187,379.542,265.266Z" transform="translate(-230.327 -162.031)"/><path class="e" d="M379.552,271.856c0,.074-3.1.323-6.915.529s-6.931.354-6.937.28,3.09-.323,6.916-.556S379.547,271.777,379.552,271.856Z" transform="translate(-230.331 -165.134)"/><path class="e" d="M378.224,278.3a5.191,5.191,0,0,1-1.154.164c-.709.069-1.693.143-2.783.206s-2.079.111-2.794.132a4.954,4.954,0,0,1-1.164-.032,5.177,5.177,0,0,1,1.148-.164c.714-.069,1.7-.143,2.788-.212s2.079-.106,2.794-.127a4.621,4.621,0,0,1,1.164.032Z" transform="translate(-232.512 -168.156)"/><path class="b" d="M505.05,165.48s-2.116,13.09.026,21.434l20.683-.444s-4.233-13.328-1.55-19.99Z" transform="translate(-295.51 -115.055)"/><path class="g" d="M506,164.56s.138,16.455.974,21.477l20.635-.974s-1.815-16.18-1.116-20.5Z" transform="translate(-296.397 -114.622)"/><path class="e" d="M526.572,177.6c0,.079-3.09.323-6.915.529s-6.931.355-6.937.28,3.09-.328,6.921-.529S526.567,177.529,526.572,177.6Z" transform="translate(-299.561 -120.755)"/><path class="e" d="M526.582,184.193c0,.074-3.09.323-6.915.529s-6.931.355-6.937.28,3.1-.328,6.921-.529S526.577,184.119,526.582,184.193Z" transform="translate(-299.566 -123.858)"/><path class="e" d="M525.254,190.648a4.884,4.884,0,0,1-1.148.169c-.714.063-1.7.138-2.789.206s-2.079.111-2.794.127a5.206,5.206,0,0,1-1.164,0,4.973,4.973,0,0,1,1.154-.169c.709-.069,1.7-.143,2.788-.206s2.074-.111,2.794-.127A4.761,4.761,0,0,1,525.254,190.648Z" transform="translate(-301.746 -126.89)"/><path class="b" d="M406.01,210.81s-2.116,13.09.026,21.44l20.683-.444s-4.233-13.328-1.55-20Z" transform="translate(-248.873 -136.401)"/><path class="i" d="M407,209.89s.138,16.461.974,21.482l20.635-.979s-1.815-16.18-1.116-20.5Z" transform="translate(-249.779 -135.967)"/><path class="e" d="M427.532,222.972c0,.079-3.09.328-6.915.556s-6.931.355-6.937.28,3.09-.323,6.921-.556S427.527,222.871,427.532,222.972Z" transform="translate(-252.924 -142.112)"/><path class="e" d="M427.542,229.521c0,.079-3.09.328-6.915.556s-6.931.355-6.937.28,3.1-.323,6.921-.556S427.537,229.447,427.542,229.521Z" transform="translate(-252.929 -145.201)"/><path class="e" d="M426.214,235.958a4.959,4.959,0,0,1-1.148.169c-.714.069-1.7.143-2.788.206s-2.079.111-2.794.127a4.841,4.841,0,0,1-1.164-.026,4.974,4.974,0,0,1,1.153-.169c.709-.063,1.7-.143,2.788-.206s2.074-.111,2.788-.127a5.149,5.149,0,0,1,1.164.026Z" transform="translate(-255.109 -148.22)"/><path class="b" d="M482.53,171l-10.958,5.64-5.3-.751,2.836-5.027,11.561-4.074Z" transform="translate(-277.688 -115.672)"/><path class="g" d="M465.41,174.345l2.688-4.323,11.873-4.312,2.386,4.693L470.844,175Z" transform="translate(-277.283 -115.164)"/><path class="e" d="M483.278,170.991a6.679,6.679,0,0,1-1.153.529c-.72.3-1.72.688-2.831,1.111l-2.852,1.058c-.725.265-1.206.423-1.175.407a19.868,19.868,0,0,1,3.926-1.73A26.185,26.185,0,0,1,483.278,170.991Z" transform="translate(-281.923 -117.646)"/><path class="e" d="M482.191,175a16.477,16.477,0,0,1-5.291,1.968,23.763,23.763,0,0,1,2.646-1.016,24.067,24.067,0,0,1,2.646-.952Z" transform="translate(-282.694 -119.538)"/><path class="a" d="M217.729,164.06s-1.9,18.434.63,22.3l19.143-1.164-1.016-20.477Z" transform="translate(-160.33 -114.387)"/><path class="i" d="M218.34,164.06s.132,16.037.952,20.926l20.106-.952s-1.767-15.762-1.085-19.974Z" transform="translate(-160.942 -114.387)"/><path class="e" d="M233.065,168.345h.291a4.627,4.627,0,0,1,.836.042,4.566,4.566,0,0,1,1.28.376,4.291,4.291,0,0,1,1.392,1.1,4.9,4.9,0,0,1,.963,1.937,4.709,4.709,0,0,1-.212,2.487,7.455,7.455,0,0,1-.566,1.243,12.7,12.7,0,0,0-.646,1.254,10.889,10.889,0,0,0-.81,2.852v.069h-.064l-1.984.032-2.085.032h-.074v-.074a5.921,5.921,0,0,0-.963-2.746c-.243-.413-.529-.8-.751-1.191a10.893,10.893,0,0,1-.709-1.153,3.852,3.852,0,0,1-.312-2.45,5.233,5.233,0,0,1,.772-2,3.836,3.836,0,0,1,1.312-1.18,4.842,4.842,0,0,1,1.233-.476,5.538,5.538,0,0,1,.82-.138h.005a5.147,5.147,0,0,0-.81.159,4.9,4.9,0,0,0-1.212.492,3.826,3.826,0,0,0-1.265,1.164,5.138,5.138,0,0,0-.741,1.968,3.757,3.757,0,0,0,.317,2.37,11.052,11.052,0,0,0,.7,1.138c.243.386.529.773.757,1.191a6.016,6.016,0,0,1,.995,2.82l-.074-.074,2.079-.037,1.984-.026-.069.063a10.651,10.651,0,0,1,.825-2.894,13.508,13.508,0,0,1,.656-1.265,7.375,7.375,0,0,0,.561-1.217,4.582,4.582,0,0,0,.222-2.418,4.836,4.836,0,0,0-.926-1.9,4.233,4.233,0,0,0-1.349-1.09,4.625,4.625,0,0,0-1.254-.4,5.044,5.044,0,0,0-.825-.069h-.291Z" transform="translate(-165.761 -116.402)"/><path class="e" d="M235.944,182.893v-.249l-.111-.72c-.09-.624-.222-1.529-.312-2.646,0-.286-.042-.577-.053-.884a8.343,8.343,0,0,1,0-.963,2.614,2.614,0,0,1,.222-1.005,1.529,1.529,0,0,1,.767-.767,1.026,1.026,0,0,1,1.1.206.772.772,0,0,1,.238.529,1,1,0,0,1-.206.577,1.354,1.354,0,0,1-.487.392,2.327,2.327,0,0,1-.6.2,6.662,6.662,0,0,1-1.265.148,7.346,7.346,0,0,1-1.28-.058,2.4,2.4,0,0,1-.6-.18,1.586,1.586,0,0,1-.529-.36,1.106,1.106,0,0,1-.291-.529.926.926,0,0,1,.069-.6.836.836,0,0,1,.423-.407.693.693,0,0,1,.571,0,1.1,1.1,0,0,1,.429.36,1.5,1.5,0,0,1,.212.529,5.818,5.818,0,0,1,.1,1.026c.037.661.069,1.28.1,1.841.053,1.127.1,2.037.132,2.646a4.532,4.532,0,0,0,.032.725v.254a.6.6,0,0,1,0-.064v-.19c0-.169-.026-.413-.048-.725-.037-.63-.09-1.54-.153-2.646-.032-.566-.063-1.18-.1-1.841a6.691,6.691,0,0,0-.106-1.016,1.445,1.445,0,0,0-.206-.482.974.974,0,0,0-.4-.344.661.661,0,0,0-.529-.026.751.751,0,0,0-.386.381.841.841,0,0,0-.069.556,1.058,1.058,0,0,0,.28.529,1.778,1.778,0,0,0,1.058.529,7.164,7.164,0,0,0,1.265.058,7.058,7.058,0,0,0,1.259-.143,2.688,2.688,0,0,0,.582-.2,1.28,1.28,0,0,0,.466-.37.931.931,0,0,0,.191-.529.688.688,0,0,0-.217-.529.958.958,0,0,0-1.032-.2,1.466,1.466,0,0,0-.735.735,2.646,2.646,0,0,0-.228.984v.958a5.336,5.336,0,0,0,.048.884c.085,1.122.212,2.027.291,2.646.042.312.079.529.1.72l.026.19A.58.58,0,0,1,235.944,182.893Z" transform="translate(-167.614 -119.78)"/><path class="e" d="M234,189.552s.026.249.053.667.058,1.058.09,1.741v-.042L235.5,193.5l-.069-.026,1.587-.09-.069.032.778-.952.392-.471v.058c0-.915-.037-1.783-.058-2.577l.085.079-2.921.032h-.847a2.32,2.32,0,0,1-.317,0,1.477,1.477,0,0,1,.28,0l.825-.042,2.974-.116h.085v.085c0,.794.048,1.661.074,2.577v.037h-.026c-.127.153-.259.312-.386.476-.27.323-.529.64-.783.947l-.026.032h-.042l-1.587.074H235.4v-.032l-1.328-1.587h0v-1.81A5.1,5.1,0,0,1,234,189.552Z" transform="translate(-168.316 -126.333)"/><path class="e" d="M238.165,193.492a.81.81,0,0,1-.148-.063c-.1-.042-.233-.1-.407-.159a4.042,4.042,0,0,0-1.413-.217,3.974,3.974,0,0,0-1.4.3,3.764,3.764,0,0,0-.4.185l-.143.069a.645.645,0,0,1,.132-.09,2.952,2.952,0,0,1,.386-.206,3.767,3.767,0,0,1,1.418-.323,3.825,3.825,0,0,1,1.429.238,3.176,3.176,0,0,1,.4.18A.624.624,0,0,1,238.165,193.492Z" transform="translate(-168.438 -128.008)"/><path class="e" d="M238.165,192.311l-.148-.063c-.1-.042-.233-.1-.407-.164a4.054,4.054,0,0,0-1.413-.212,3.974,3.974,0,0,0-1.4.3,2.926,2.926,0,0,0-.4.185.735.735,0,0,1-.143.069.952.952,0,0,1,.132-.09,2.425,2.425,0,0,1,.386-.206,3.751,3.751,0,0,1,2.847-.085,2.8,2.8,0,0,1,.4.18.625.625,0,0,1,.138.085Z" transform="translate(-168.438 -127.452)"/><path class="e" d="M238.095,191.181a.808.808,0,0,1-.148-.063c-.1-.042-.233-.1-.407-.159a4.042,4.042,0,0,0-1.413-.217,3.974,3.974,0,0,0-1.4.3,3.764,3.764,0,0,0-.4.185l-.143.074a.712.712,0,0,1,.132-.1,3.649,3.649,0,0,1,3.233-.291,3.549,3.549,0,0,1,.4.18.624.624,0,0,1,.138.085Z" transform="translate(-168.405 -126.92)"/><path class="j" d="M310.944,247.239c.026,0,0,.249-.259.529a3.27,3.27,0,0,1-1.159.8,3.429,3.429,0,0,1-1.926.355c0-.085.852-.19,1.815-.608a4.022,4.022,0,0,0,1.127-.683C310.8,247.408,310.9,247.223,310.944,247.239Z" transform="translate(-202.973 -153.554)"/><path class="f" d="M391.832,197.6c0-.894-.042-49.62-.111-127.284l.111.111H197.446l.138-.138V197.575l-.127-.127,194.4.127-194.4.127h-.127V70.18H391.975v.111C391.869,147.986,391.832,196.712,391.832,197.6Z" transform="translate(-151.048 -70.18)"/><path class="i" d="M480.64,269.119l-3.82-6.519-3.624,6.519H421.76v26.89h80.092v-26.89Z" transform="translate(-256.729 -160.788)"/><path class="d" d="M441.705,294.2a3.937,3.937,0,0,0,2.381-3.63,3.7,3.7,0,0,0-7.408-.1,3.942,3.942,0,0,0,2.323,3.7c-5.7.81-5.492,7.021-5.492,7.021l13.461.175S447.33,295.106,441.705,294.2Z" transform="translate(-262.261 -172.192)"/><path class="d" d="M515.222,289.878c0,.079-10.222.138-22.831.138s-22.831-.058-22.831-.138,10.223-.138,22.831-.138S515.222,289.793,515.222,289.878Z" transform="translate(-279.238 -173.568)"/><path class="d" d="M515.222,297.608c0,.074-10.222.138-22.831.138s-22.831-.064-22.831-.138,10.223-.138,22.831-.138S515.222,297.533,515.222,297.608Z" transform="translate(-279.238 -177.208)"/><path class="d" d="M515.222,305.358c0,.074-10.222.138-22.831.138s-22.831-.063-22.831-.138,10.223-.138,22.831-.138S515.222,305.283,515.222,305.358Z" transform="translate(-279.238 -180.857)"/><path class="d" d="M492.391,313.028c0,.074-5.111.138-11.413.138s-11.418-.064-11.418-.138,5.111-.138,11.418-.138S492.391,312.948,492.391,313.028Z" transform="translate(-279.238 -184.469)"/></g><g transform="translate(259.808 95.004)"><path class="f" d="M558.48,171.748a2.474,2.474,0,0,1-.561-2.259c-.571-.3-.619-.8-.619-1.444a3.889,3.889,0,0,1,.556-1.825,5.318,5.318,0,0,1,2.058-2.259,2.751,2.751,0,0,1,2.931.127,3.556,3.556,0,0,1,5.09-.355,4.077,4.077,0,0,0,.778.7,4.317,4.317,0,0,0,1.709.228,3,3,0,0,1,2.482,4.169,3.233,3.233,0,0,1,1.381,2.487,9.562,9.562,0,0,1-.333,2.915,6.734,6.734,0,0,1-1.4,3.3,3.444,3.444,0,0,1-2.2,1.058,3.492,3.492,0,0,1-3.074-1.444" transform="translate(-502.283 -162.824)"/><path class="k" d="M571.879,195.828l-9.482-.434c-.053-1.005.46-7.233.46-7.233a4.269,4.269,0,0,1-3.63-4.143c-.042-3.614.577-11.815.577-11.815h0a12.455,12.455,0,0,1,12.519,1.587l.529.407Z" transform="translate(-503.19 -166.766)"/><path class="l" d="M566.071,201.978a8.323,8.323,0,0,0,4.672-1.328s-1.106,2.582-4.683,2.259Z" transform="translate(-506.408 -180.636)"/><path class="k" d="M584.018,183.769c.063-.026,2.466-.73,2.386,1.72a1.84,1.84,0,0,1-2.524,1.794C583.88,187.208,584.018,183.769,584.018,183.769Z" transform="translate(-514.799 -172.633)"/><path class="l" d="M585.349,187.074s.042.026.111.063a.407.407,0,0,0,.323,0,1.058,1.058,0,0,0,.529-.931,1.444,1.444,0,0,0-.09-.619.492.492,0,0,0-.312-.339.217.217,0,0,0-.254.111c-.037.064,0,.116-.037.116s-.048-.042-.026-.143a.26.26,0,0,1,.1-.148.328.328,0,0,1,.238-.058.6.6,0,0,1,.434.4,1.454,1.454,0,0,1,.127.688,1.106,1.106,0,0,1-.656,1.058.445.445,0,0,1-.386-.074C585.354,187.132,585.344,187.074,585.349,187.074Z" transform="translate(-515.49 -173.325)"/><path class="f" d="M561.81,183.3a.529.529,0,0,0,.492.529.5.5,0,0,0,.529-.466.529.529,0,0,0-.492-.529.492.492,0,0,0-.529.466Z" transform="translate(-504.406 -172.248)"/><path class="f" d="M561.592,182.15c.063.069.45-.217,1-.217s.958.275,1.016.206-.037-.148-.212-.275a1.413,1.413,0,0,0-.81-.254,1.386,1.386,0,0,0-.8.259C561.619,182,561.561,182.118,561.592,182.15Z" transform="translate(-504.3 -171.67)"/><path class="f" d="M572,183.589a.529.529,0,0,0,.492.529.492.492,0,0,0,.529-.46.529.529,0,0,0-.5-.529.481.481,0,0,0-.524.46Z" transform="translate(-509.205 -172.384)"/><path class="f" d="M571.823,182.35c.063.064.455-.222,1.005-.222s.952.28,1.011.212-.032-.153-.212-.28a1.4,1.4,0,0,0-.81-.249,1.328,1.328,0,0,0-.8.259C571.849,182.2,571.791,182.318,571.823,182.35Z" transform="translate(-509.117 -171.764)"/><path class="f" d="M566.812,186.472a3.657,3.657,0,0,0-.894-.164c-.138,0-.27-.042-.3-.138a.731.731,0,0,1,.1-.418c.132-.339.27-.7.418-1.058a17.847,17.847,0,0,0,.931-2.8,18.855,18.855,0,0,0-1.159,2.72l-.4,1.058a.826.826,0,0,0-.074.529.344.344,0,0,0,.233.206.819.819,0,0,0,.238.032A3.567,3.567,0,0,0,566.812,186.472Z" transform="translate(-506.107 -171.802)"/><path class="f" d="M569.557,191.27c-.09,0-.09.593-.6,1.016s-1.148.36-1.154.439.143.116.413.127a1.524,1.524,0,0,0,.963-.339,1.286,1.286,0,0,0,.466-.852C569.662,191.413,569.6,191.265,569.557,191.27Z" transform="translate(-507.227 -176.219)"/><path class="f" d="M571.558,178.384c.058.148.608.074,1.254.153s1.169.254,1.254.122-.053-.206-.265-.349a2.022,2.022,0,0,0-.952-.323,2.117,2.117,0,0,0-.979.116C571.658,178.194,571.537,178.31,571.558,178.384Z" transform="translate(-508.995 -169.958)"/><path class="f" d="M561.982,179.12c.1.122.476,0,.937,0s.841.085.931-.048,0-.19-.19-.307a1.307,1.307,0,0,0-.762-.206,1.259,1.259,0,0,0-.741.254C561.982,178.929,561.93,179.056,561.982,179.12Z" transform="translate(-504.478 -170.233)"/><path class="f" d="M572.5,172.823a25.36,25.36,0,0,1,0,3.233c-.032.153-.434.571-.466.725-.212.9-.587,1.3-1.127.36a7.977,7.977,0,0,1-.423-1.767l-.651-3.312a5.741,5.741,0,0,1-2.725.646,2.783,2.783,0,0,1-2.328-1.376,2.9,2.9,0,0,1-4.487.593,1.212,1.212,0,0,1-1.587.339,1.434,1.434,0,0,1-.582-1.587,2.711,2.711,0,0,1,2.058-1.587,13.178,13.178,0,0,1,10.238,1.587,4.973,4.973,0,0,1,1.238.931c.349.381.836.831.852,1.349" transform="translate(-502.643 -165.566)"/><path class="i" d="M545.062,226.642l3.656-9.963a9.505,9.505,0,0,0-7.3-6.058,23.792,23.792,0,0,0-3.8-.73h0a7.482,7.482,0,0,1-9.133.111l-.132-.1c-.365.042-.852.09-1.46.164h-.122a8.964,8.964,0,0,0-4.2,1.672h0l-19.085,11.392-11.207-8.519-5.677,4.45s14.683,14.683,16.106,15.032c.989.243,10.783-5.106,16.72-8.418-.243,3.556-1.587,23.318-1.508,26.017h27.271V235.843Z" transform="translate(-468.991 -184.987)"/><path class="i" d="M577,243.955s13.281,5.857,14.551,6.132c4.233.926,8.09-2.609,7.471-5.937-.317-1.73-7.794-22.281-7.794-22.281l-5.376,8.006,2.677,10.455-8.085-1.032Z" transform="translate(-511.559 -190.628)"/><path class="f" d="M588.7,264.534a.93.93,0,0,0-.212-.116l-.635-.312-2.386-1.111-8.127-3.7.053.164,1.556-2.783c.333-.593.661-1.18.968-1.735L579.8,255l9.72.952,2.889.259.783.058a1.059,1.059,0,0,0,.27,0,1.115,1.115,0,0,0-.265-.048l-.778-.1-2.884-.333-9.715-1.058h-.074l-.042.069c-.307.556-.635,1.138-.968,1.735-.529.952-1.058,1.884-1.55,2.783l-.064.116.116.053,8.164,3.635,2.413,1.058.651.27a.964.964,0,0,0,.233.085Z" transform="translate(-511.616 -206.101)"/><path class="g" d="M571.133,249.134l1.138-5.54s-14.006-.18-13.852.069,1.482,12.7,1.482,12.7,9.852-.37,9.487-.339Z" transform="translate(-502.809 -200.828)"/><path class="k" d="M572.855,249.35h0a1.3,1.3,0,0,0-1.217.831,2.857,2.857,0,0,1-.831,1.328,2.947,2.947,0,0,1-2.217.328c-.556-.27-2.767-2.265-3.175-2.042s-.72.72-.333,1.159,2.434,1.773,2.048,2.217-4.709-1.508-5.37-1.333-1.058.577-.667.847,3.323,1.37,3.492,1.762c0,0-4.434-1.164-4.6-.889s-.445.72,0,.889,4.265,1.159,4.6,1.328a8.118,8.118,0,0,0,1.7.5,18.574,18.574,0,0,1,1.788.566,3.884,3.884,0,0,0,2.751-.074l.45-.185a1.746,1.746,0,0,0,1.09-1.73l-.09-1.513.487-1.243Z" transform="translate(-503.435 -203.568)"/><path class="f" d="M597.087,243.982c-.079,0-.138-3.175-.138-7.106s.058-7.106.138-7.106.138,3.175.138,7.106S597.162,243.982,597.087,243.982Z" transform="translate(-520.953 -194.348)"/><path class="f" d="M548.516,223.78a3.506,3.506,0,0,1,0,.656c0,.476-.032,1.058-.048,1.778-.058,1.5-.153,3.572-.275,5.857s-.254,4.36-.354,5.857c-.058.7-.106,1.3-.143,1.773a2.7,2.7,0,0,1-.09.651,3.559,3.559,0,0,1,0-.656c0-.476.032-1.058.053-1.778.053-1.5.148-3.572.275-5.863s.249-4.36.354-5.857c.053-.7.1-1.3.138-1.773A2.612,2.612,0,0,1,548.516,223.78Z" transform="translate(-497.711 -191.528)"/><path class="g" d="M551.666,453.293v-4.762l8.963-.111.116,7-.529.042c-2.471.169-12.577.677-14.238.2C544.079,455.1,551.666,453.293,551.666,453.293Z" transform="translate(-496.808 -297.307)"/><g class="m" transform="translate(60.679 155.456)"><path class="n" d="M568,459.233a3.127,3.127,0,0,1,1.122-1.921,3,3,0,0,1,2.09-.677l.032,2.5Z" transform="translate(-568 -456.629)"/></g><g class="m" transform="translate(48.809 157.002)"><path class="n" d="M547.912,459.55s-2.646.8-2.318,1.238,10.582.307,15.08-.148v-.2l-11.937.254S548.441,459.566,547.912,459.55Z" transform="translate(-545.567 -459.55)"/></g><path class="f" d="M560.817,461.22h-.153l-.444.032-1.624.09c-1.376.069-3.275.132-5.376.164s-4.005,0-5.381,0l-1.63-.048h7.005c2.1,0,4-.085,5.376-.132l1.63-.053h.444a.684.684,0,0,1,.153-.053Z" transform="translate(-496.778 -303.335)"/><path class="f" d="M550.758,460.762a3.891,3.891,0,0,0-.317-.778,3.8,3.8,0,0,0-.561-.614,1.455,1.455,0,0,1,.878,1.392Z" transform="translate(-498.789 -302.464)"/><path class="f" d="M556.067,458.72a1.852,1.852,0,0,1-.286-.344c-.132-.206-.222-.381-.2-.4s.153.138.286.339S556.094,458.7,556.067,458.72Z" transform="translate(-501.473 -301.808)"/><path class="f" d="M557.364,458.195a1.489,1.489,0,0,1-.323-.212c-.159-.138-.265-.265-.243-.286s.159.069.318.206S557.38,458.168,557.364,458.195Z" transform="translate(-502.045 -301.674)"/><path class="f" d="M557.876,456.949a1.111,1.111,0,0,1-.466.063,1.148,1.148,0,0,1-.471-.042,1.09,1.09,0,0,1,.466-.069A1.011,1.011,0,0,1,557.876,456.949Z" transform="translate(-502.113 -301.297)"/><path class="f" d="M558.058,455.89a.921.921,0,0,1-.529.159.9.9,0,0,1-.529-.063,2.878,2.878,0,0,1,.529-.042A3.24,3.24,0,0,1,558.058,455.89Z" transform="translate(-502.141 -300.825)"/><path class="f" d="M554.4,457.21a1.668,1.668,0,0,1-.577,0,3.176,3.176,0,0,1-.614-.127,1.586,1.586,0,0,1-.354-.138.3.3,0,0,1-.143-.18.222.222,0,0,1,.085-.227,1.058,1.058,0,0,1,1.5.672.377.377,0,0,1,0,.153,1.748,1.748,0,0,0-.27-.487,1.058,1.058,0,0,0-.5-.312.878.878,0,0,0-.682.058c-.09.069-.053.175.048.233a1.637,1.637,0,0,0,.328.132,3.456,3.456,0,0,0,.593.148C554.181,457.194,554.4,457.189,554.4,457.21Z" transform="translate(-500.121 -301.076)"/><path class="f" d="M555.555,457a.572.572,0,0,1-.074-.4.986.986,0,0,1,.154-.423.572.572,0,0,1,.476-.3.222.222,0,0,1,.18.259.628.628,0,0,1-.1.259,1.866,1.866,0,0,1-.265.355.842.842,0,0,1-.328.238s.111-.106.27-.291a1.9,1.9,0,0,0,.238-.349c.074-.122.127-.344,0-.365s-.291.132-.376.249a.941.941,0,0,0-.159.376A1.752,1.752,0,0,0,555.555,457Z" transform="translate(-501.422 -300.82)"/><path class="f" d="M571.192,456.54s-.259,0-.661.032a2.889,2.889,0,0,0-1.439.614,2.921,2.921,0,0,0-.889,1.286c-.127.386-.138.646-.159.646a.621.621,0,0,1,0-.18,2.639,2.639,0,0,1,.1-.487,2.74,2.74,0,0,1,.889-1.349,2.788,2.788,0,0,1,1.5-.6,2.116,2.116,0,0,1,.492,0A.665.665,0,0,1,571.192,456.54Z" transform="translate(-507.339 -301.104)"/><path class="f" d="M572.075,449.56a15.519,15.519,0,0,1,.1,1.841,16.785,16.785,0,0,1,0,1.841,15.29,15.29,0,0,1-.1-1.836A15.507,15.507,0,0,1,572.075,449.56Z" transform="translate(-509.227 -297.844)"/><path class="f" d="M563.489,459.924a5.135,5.135,0,0,1-1.307.148,5.243,5.243,0,0,1-1.312-.09c0-.032.587,0,1.312,0S563.484,459.892,563.489,459.924Z" transform="translate(-503.964 -302.721)"/><path class="f" d="M568.917,459.877s-.048.127-.106.259-.09.254-.116.254-.048-.138,0-.3S568.9,459.856,568.917,459.877Z" transform="translate(-507.635 -302.701)"/><path class="f" d="M570.074,458.306a.532.532,0,0,1-.127.212c-.1.1-.18.153-.2.132s.032-.116.127-.212S570.053,458.285,570.074,458.306Z" transform="translate(-508.141 -301.96)"/><path class="f" d="M571.7,457.533c0,.026-.122.026-.254.079s-.228.116-.249.1.048-.143.212-.2S571.71,457.5,571.7,457.533Z" transform="translate(-508.825 -301.574)"/><path class="f" d="M573.183,457.2c0,.032-.037.074-.111.106s-.143.032-.153,0,.037-.074.111-.106S573.173,457.174,573.183,457.2Z" transform="translate(-509.637 -301.432)"/><path class="g" d="M608.47,451.88l.857,3.587s5.868,7.625,7.677,7.249c1.185-.243-.275-2.233-2.5-8.021l-.471-2.392Z" transform="translate(-526.378 -298.937)"/><path class="f" d="M617.9,464.02a.8.8,0,0,1-.312.3,1.09,1.09,0,0,1-1.127-.153,33.2,33.2,0,0,1-2.921-2.767c-1.058-1.143-1.995-2.238-2.646-3.048l-.746-.963-.206-.265-.074-.09s0,.037.058.1l.185.275c.169.238.413.577.725.989a39.324,39.324,0,0,0,2.646,3.074,28.84,28.84,0,0,0,2.958,2.757,1.428,1.428,0,0,0,.661.243.942.942,0,0,0,.529-.116.662.662,0,0,0,.249-.228.317.317,0,0,0,.021-.106Z" transform="translate(-527.037 -301.362)"/><path class="f" d="M621.238,465.55a.937.937,0,0,0-.481-.058,2.523,2.523,0,0,0-1.106.386,1.989,1.989,0,0,0-.8.852,1.021,1.021,0,0,0-.127.466,2.717,2.717,0,0,1,.191-.434,2.169,2.169,0,0,1,.794-.794,2.836,2.836,0,0,1,1.058-.4A4.385,4.385,0,0,1,621.238,465.55Z" transform="translate(-531.204 -305.342)"/><path class="f" d="M611.272,459.021a.831.831,0,0,0,.069-.175,2.952,2.952,0,0,0,.116-.492,2.645,2.645,0,0,0-.275-1.63A2.508,2.508,0,0,0,610,455.571a1.758,1.758,0,0,0-.482-.148.529.529,0,0,0-.185,0,4.327,4.327,0,0,1,.635.233,2.561,2.561,0,0,1,1.122,1.132,2.74,2.74,0,0,1,.3,1.587A4.773,4.773,0,0,0,611.272,459.021Z" transform="translate(-526.783 -300.601)"/><path class="f" d="M609.18,453s.106.529.217,1.148a3.975,3.975,0,0,0,.3,1.127c.026,0-.09-.529-.2-1.148A3.807,3.807,0,0,0,609.18,453Z" transform="translate(-526.712 -299.464)"/><path class="f" d="M618.788,458.111a1.312,1.312,0,0,0-.751,0,1.291,1.291,0,0,0-.677.317c0,.032.307-.127.7-.217S618.788,458.143,618.788,458.111Z" transform="translate(-530.564 -301.845)"/><path class="f" d="M619.23,459.27a.926.926,0,0,0-.635,0,.879.879,0,0,0-.556.307,2.681,2.681,0,0,1,.582-.206C618.95,459.3,619.225,459.3,619.23,459.27Z" transform="translate(-530.884 -302.39)"/><path class="f" d="M620.1,460.683a.968.968,0,0,0-1.217.275,2.594,2.594,0,0,1,.582-.259A2.906,2.906,0,0,1,620.1,460.683Z" transform="translate(-531.28 -303.031)"/><path class="f" d="M617.388,456.336s-.27-.074-.688-.233a5.341,5.341,0,0,1-.709-.344,3.711,3.711,0,0,1-.391-.249c-.116-.085-.249-.217-.243-.355s.175-.217.312-.18a.841.841,0,0,1,.36.238,5.405,5.405,0,0,1,.529.566c.3.339.466.561.482.529a.812.812,0,0,0-.1-.169,5.263,5.263,0,0,0-.323-.429,7.146,7.146,0,0,0-.529-.587.9.9,0,0,0-.407-.27.333.333,0,0,0-.439.275.571.571,0,0,0,.291.444,3.316,3.316,0,0,0,.4.249,4.434,4.434,0,0,0,.73.328,4.048,4.048,0,0,0,.529.143A.764.764,0,0,0,617.388,456.336Z" transform="translate(-529.566 -300.328)"/><path class="f" d="M618.712,455.82s.037-.254.106-.656a2.893,2.893,0,0,1,.2-.677,1.388,1.388,0,0,1,.217-.344c.09-.1.227-.19.333-.127a.371.371,0,0,1,.111.36,1.531,1.531,0,0,1-.116.392,2.2,2.2,0,0,1-.381.593c-.27.3-.487.444-.471.46a.53.53,0,0,0,.153-.09,2.652,2.652,0,0,0,.37-.317,2.275,2.275,0,0,0,.418-.6,1.467,1.467,0,0,0,.127-.423.439.439,0,0,0-.159-.46.381.381,0,0,0-.46.148,1.424,1.424,0,0,0-.233.376,2.576,2.576,0,0,0-.185.7c0,.206-.032.376-.037.487S618.7,455.82,618.712,455.82Z" transform="translate(-531.197 -299.888)"/><g class="m" transform="translate(82.537 154.806)"><path class="n" d="M609.723,457.125l-.413-1.725s1.434.27,1.81,1.344a4.579,4.579,0,0,1,.28,1.841l3.122,3.365s.788-1.529,2.206-1.164a13.647,13.647,0,0,1,1.058,3.074c-.058.614-.751.529-1.005.429a12.577,12.577,0,0,1-2.8-2.212A64.453,64.453,0,0,1,609.723,457.125Z" transform="translate(-609.31 -455.4)"/></g><path class="o" d="M545.59,284.44l4.27,90.341,11.73.28-.926-78.33L578.21,375.21l9.423-.429-15.1-90.156Z" transform="translate(-496.769 -220.091)"/><path class="p" d="M568.648,286.75a8.06,8.06,0,0,0,.106,1.487c.1.91.243,2.169.429,3.561a14.207,14.207,0,0,0,.323,1.963,2.767,2.767,0,0,0,.862,1.4,2.153,2.153,0,0,0,.995.492.794.794,0,0,0,.407,0,2.5,2.5,0,0,1-2.042-1.958,16.785,16.785,0,0,1-.3-1.937c-.185-1.392-.36-2.646-.529-3.556A8.99,8.99,0,0,0,568.648,286.75Z" transform="translate(-507.626 -221.179)"/><path class="p" d="M573.185,287.556c-.032,0,.079.169,0,.407a.482.482,0,0,1-.249.291.386.386,0,0,1-.413-.1.376.376,0,0,1-.116-.4.466.466,0,0,1,.275-.265.554.554,0,0,1,.4,0c.016,0-.122-.212-.45-.148a.6.6,0,1,0,.4,1.132.614.614,0,0,0,.317-.455C573.4,287.683,573.2,287.53,573.185,287.556Z" transform="translate(-509.279 -221.451)"/><path class="p" d="M588,288.483a2.645,2.645,0,0,0-.175-2.5c-.069,0,.116.561.159,1.243S587.911,288.461,588,288.483Z" transform="translate(-516.65 -220.817)"/><path class="p" d="M584.92,288.068a2.238,2.238,0,0,0,.249-1.312,2.207,2.207,0,0,0-.339-1.3,11.212,11.212,0,0,0,.09,1.3A10.105,10.105,0,0,0,584.92,288.068Z" transform="translate(-515.246 -220.572)"/><path class="p" d="M557.492,287.668a8.186,8.186,0,0,0-.032-1.349,7.981,7.981,0,0,0,0-1.349,2.514,2.514,0,0,0-.233,1.355,2.47,2.47,0,0,0,.265,1.344Z" transform="translate(-502.242 -220.341)"/><path class="p" d="M553.938,287.3c.069-.026-.127-.624-.148-1.376s.127-1.365.058-1.386a2.185,2.185,0,0,0-.3,1.392,2.216,2.216,0,0,0,.392,1.37Z" transform="translate(-500.508 -220.139)"/><path class="j" d="M583.78,209.63Z" transform="translate(-514.752 -184.865)"/><path class="k" d="M484.1,214.762a36.359,36.359,0,0,0-2.672-4.042,24.923,24.923,0,0,0-5.445-1.836c-.386.127-5.82,1.153-5.2,1.794s4.445-.132,4.445-.132l.529.249a23.58,23.58,0,0,0-3.979.995c-.688.413-.4,1.159.2,1.058a31.109,31.109,0,0,1,3.635-.561c.175.111-3.106.825-3.455,1.058-.471.286-.529,1.138.1,1.085.355-.032,3.439-.884,3.439-.884a26.789,26.789,0,0,0-2.646,1.206c-.365.36-.063.889.471.762.365-.085,2.085-.942,2.572-1.058,0,0,.46.116.894,1.058a13.5,13.5,0,0,0,2.714,2.736Z" transform="translate(-461.522 -184.51)"/><path class="l" d="M470.83,212a2.444,2.444,0,0,0,1,.259,5.946,5.946,0,0,0,1.132.032c.418-.053.873-.127,1.354-.2l1.016-.169h-.063a15.17,15.17,0,0,0,2.376.7,14.47,14.47,0,0,0-2.3-.931h-.058l-1.011.153-1.339.217a7.14,7.14,0,0,1-1.1.026C471.222,212.05,470.841,211.965,470.83,212Z" transform="translate(-461.565 -185.835)"/><path class="g" d="M458.611,207.36s-3.947,11.974-5.291,14.392l13.439,4.106L469.2,224.3s3.265-9.64,3.677-12.879Z" transform="translate(-453.32 -183.796)"/><path class="f" d="M479.469,238.53l-.709,2.005,2.444-1.561Z" transform="translate(-465.299 -198.473)"/><path class="e" d="M474.375,219.888a9.434,9.434,0,0,1-1.5-.471l-3.593-1.238-3.6-1.18a9.732,9.732,0,0,1-1.481-.529,9.264,9.264,0,0,1,1.54.344c.942.254,2.233.64,3.64,1.111s2.672.947,3.577,1.312a7.938,7.938,0,0,1,1.418.651Z" transform="translate(-458.443 -188.085)"/><path class="e" d="M472.559,225.132a8.318,8.318,0,0,1-1.476-.333c-.9-.243-2.116-.608-3.492-1.058s-2.566-.884-3.434-1.222a7.878,7.878,0,0,1-1.386-.608,8.54,8.54,0,0,1,1.45.423l3.455,1.148,3.46,1.127a8.708,8.708,0,0,1,1.423.524Z" transform="translate(-457.77 -190.647)"/><path class="e" d="M470.733,229.941a42.675,42.675,0,0,1-4.524-1.381,40.335,40.335,0,0,1-4.429-1.64A81.915,81.915,0,0,1,470.733,229.941Z" transform="translate(-457.304 -193.006)"/><path class="k" d="M487.686,218.188a1.085,1.085,0,0,1-1.27,0,12.722,12.722,0,0,1-1.058-.841c-1.122-.762-2.725-.529-3.815-1.37-.148-.111-.3-.3-.222-.476s.286-.18.466-.18l4.508.037" transform="translate(-466.495 -187.544)"/><path class="q" d="M486.142,215.287a1.687,1.687,0,0,0-.487-.058l-1.328-.048-1.974-.042h-.571a.889.889,0,0,0-.656.148.376.376,0,0,0-.069.423.693.693,0,0,0,.233.286,2.5,2.5,0,0,0,.571.339,17.017,17.017,0,0,0,2.344.63,3.508,3.508,0,0,1,.937.407c.265.175.487.386.709.561a1.587,1.587,0,0,0,1.275.429c.333-.069.439-.254.429-.254a1.291,1.291,0,0,1-.439.153,1.524,1.524,0,0,1-1.148-.466,8.894,8.894,0,0,0-.725-.619,3.233,3.233,0,0,0-.984-.455,20.766,20.766,0,0,1-2.307-.64,2.613,2.613,0,0,1-.529-.3c-.148-.116-.222-.275-.143-.339a.9.9,0,0,1,.476-.074H484.3c.561,0,1.016,0,1.328-.032A1.916,1.916,0,0,0,486.142,215.287Z" transform="translate(-466.364 -187.453)"/></g><g transform="translate(156.459 89.31)"><path class="o" d="M287.648,175.407a4.111,4.111,0,0,0-1.683-4.117,4.434,4.434,0,0,0-4.476-.233,4.82,4.82,0,0,0-2.471,3.783c-.148,1.773.651,3.46,1.333,5.1s1.275,3.476.709,5.159a10.209,10.209,0,0,1-2.646,3.471,7.032,7.032,0,0,0-1.979,3.407,3.224,3.224,0,0,0,1.429,3.445,1.852,1.852,0,0,1,.746.487c.328.466,0,1.085-.238,1.587a3.672,3.672,0,0,0-.122,2.482,4.312,4.312,0,0,0,4.349,2.81,6.09,6.09,0,0,0,4.572-2.836,10.508,10.508,0,0,0,1.534-5.291,39.953,39.953,0,0,0-.312-5.561c-.434-4.646,1.735-9.455,1.968-14.117" transform="translate(-266.584 -160.773)"/><path class="k" d="M302.071,207.422h0a4.656,4.656,0,0,0,5.005-4.46c.1-2.534.18-5.09.18-5.09s3.836-.36,4.116-4.159.148-12.561.148-12.561h0a13.228,13.228,0,0,0-13.371.836l.238,13.365v7.191C298.415,204.972,299.658,207.237,302.071,207.422Z" transform="translate(-276.837 -165.088)"/><path class="o" d="M305.831,186.255a1.942,1.942,0,0,0-2.6-.566,2.206,2.206,0,0,0-.735,2.757,2.931,2.931,0,0,0,1.862,1.413,1.45,1.45,0,0,1,1.143,1.587,4.889,4.889,0,0,1-1.333,2.646,7.016,7.016,0,0,1-4.392,2.085c-1.619.19-3.471-.148-4.413-1.476a5.984,5.984,0,0,1-.757-3.418l-.18-8.413a11.978,11.978,0,0,1,.19-3.016,4.069,4.069,0,0,1,1.587-2.492,12.85,12.85,0,0,1,3.148-1,26.024,26.024,0,0,0,3.661-1.926,4.506,4.506,0,0,1,3.974-.386c.889.444,1.482,1.333,2.344,1.82,1.228.7,2.9.529,3.492,2.344a3.09,3.09,0,0,1,0,1.931,4.463,4.463,0,0,1-6.069,2.386,6.009,6.009,0,0,1-.069,2.646c-.143.423-.19,1.058-.847,1.058" transform="translate(-275.074 -162.266)"/><path class="o" d="M292.935,198.453a11.4,11.4,0,0,1-.614-15.873" transform="translate(-272.717 -166.432)"/><path class="r" d="M296.29,200.151a.856.856,0,0,1-.2.058,2.222,2.222,0,0,1-.577,0,3.207,3.207,0,0,1-1.857-.968,9.581,9.581,0,0,1-1.677-2.646,16.9,16.9,0,0,1-1.249-3.6,13.643,13.643,0,0,1-.323-3.8,11.963,11.963,0,0,1,.577-3.058,10.174,10.174,0,0,1,.857-1.915c.127-.217.233-.376.307-.481s.122-.159.127-.153a16.876,16.876,0,0,0-1.1,2.609,12.658,12.658,0,0,0-.529,3.011,13.974,13.974,0,0,0,.339,3.7,17.256,17.256,0,0,0,1.212,3.55,9.71,9.71,0,0,0,1.587,2.6,3.233,3.233,0,0,0,1.736,1A4.7,4.7,0,0,0,296.29,200.151Z" transform="translate(-273.183 -166.908)"/><path class="r" d="M294.1,183.3c.042,0,.339.529.91,1.407a18.469,18.469,0,0,0,2.572,3.09,18.666,18.666,0,0,0,3.175,2.445c.884.529,1.466.81,1.445.852a1.651,1.651,0,0,1-.434-.143q-.568-.237-1.111-.529A15.746,15.746,0,0,1,297.37,188a15.344,15.344,0,0,1-2.545-3.175,11.12,11.12,0,0,1-.587-1.09,1.589,1.589,0,0,1-.138-.439Z" transform="translate(-274.93 -166.772)"/><path class="r" d="M302.236,188.713a4.629,4.629,0,0,1-1.228-.608,14.122,14.122,0,0,1-4.646-4.667,4.763,4.763,0,0,1-.6-1.228,10.754,10.754,0,0,1,.767,1.122,17.381,17.381,0,0,0,4.587,4.609A12.079,12.079,0,0,1,302.236,188.713Z" transform="translate(-275.712 -166.258)"/><path class="r" d="M307.765,188.1a1.957,1.957,0,0,1-.529-.042,10.458,10.458,0,0,1-1.407-.286,14.751,14.751,0,0,1-7.751-5.2,10.092,10.092,0,0,1-.8-1.19,1.867,1.867,0,0,1-.238-.471c.042,0,.429.619,1.191,1.54a16.524,16.524,0,0,0,3.46,3.127,16.338,16.338,0,0,0,4.2,2.005C307.035,187.937,307.776,188.053,307.765,188.1Z" transform="translate(-276.315 -165.646)"/><path class="r" d="M284.564,200.587a2.032,2.032,0,0,0,.164-.333,1.667,1.667,0,0,0,.048-1.026,2.5,2.5,0,0,0-.91-1.344c-.5-.418-1.175-.746-1.878-1.212a4.232,4.232,0,0,1-.984-.894,2.455,2.455,0,0,1-.5-1.37,4.6,4.6,0,0,1,1.106-2.937,16.524,16.524,0,0,0,2.011-2.757,6.2,6.2,0,0,0,.4-3.545A16.4,16.4,0,0,0,283,181.645a26.553,26.553,0,0,1-1.1-3.281,5.548,5.548,0,0,1-.037-3.175,2.3,2.3,0,0,1,.931-1.122,1.72,1.72,0,0,1,1.339-.175,4.117,4.117,0,0,1,1.82,1.344l1.111,1.275.7.815a2.7,2.7,0,0,1,.228.3,2.847,2.847,0,0,1-.27-.259l-.736-.778-1.143-1.249a4.1,4.1,0,0,0-1.757-1.259,1.534,1.534,0,0,0-1.18.169,2.116,2.116,0,0,0-.831,1.026,5.265,5.265,0,0,0,.074,3.005,26.742,26.742,0,0,0,1.106,3.243,16.4,16.4,0,0,1,1.058,3.577,6.509,6.509,0,0,1-.429,3.7,15.958,15.958,0,0,1-2.053,2.794,4.412,4.412,0,0,0-1.058,2.773,2.248,2.248,0,0,0,.444,1.254,4.074,4.074,0,0,0,.926.862A20.634,20.634,0,0,1,284,197.74a2.566,2.566,0,0,1,.915,1.439,1.672,1.672,0,0,1-.1,1.058A.963.963,0,0,1,284.564,200.587Z" transform="translate(-268.526 -162.312)"/><path class="g" d="M264.989,448.581l2.577-3.138-5.82-4.873-3.826,4.556.344.323c1.54,1.434,7.937,7.185,9.281,7.757C269.026,453.84,264.989,448.581,264.989,448.581Z" transform="translate(-257.893 -287.916)"/><g class="s" transform="translate(0.069 155.474)"><path class="e" d="M260.116,449.355a2.646,2.646,0,0,0,.3-1.868A2.6,2.6,0,0,0,259.4,445.9l-1.4,1.64Z" transform="translate(-258 -445.9)"/></g><g class="m" transform="translate(0 157.088)"><path class="e" d="M266.865,455.183s1.323,1.952.868,2.058-7.148-5.46-9.863-8.17l.122-.122,7.725,6.556S266.51,454.913,266.865,455.183Z" transform="translate(-257.87 -448.95)"/></g><path class="f" d="M257.93,448.79a.7.7,0,0,0,.09.1l.275.259,1.026.931c.868.783,2.085,1.841,3.455,2.99s2.646,2.148,3.556,2.868l1.1.841.3.222.106.074-.1-.085-.291-.238-1.085-.868c-.91-.73-2.164-1.746-3.535-2.889s-2.593-2.2-3.471-2.963l-1.058-.91-.286-.243Z" transform="translate(-257.898 -291.787)"/><path class="f" d="M272.56,461.072a3.515,3.515,0,0,1,.619-.344,3.012,3.012,0,0,1,.7-.1,1.228,1.228,0,0,0-1.323.445Z" transform="translate(-264.787 -297.338)"/><path class="f" d="M270.68,456.933a.884.884,0,0,0,.37-.074c.2-.064.349-.132.344-.159a.873.873,0,0,0-.37.074C270.849,456.859,270.669,456.906,270.68,456.933Z" transform="translate(-263.902 -295.512)"/><path class="f" d="M270.18,455.862c0,.026.143.042.317.032s.323-.032.317-.058a.661.661,0,0,0-.317-.032C270.318,455.809,270.18,455.836,270.18,455.862Z" transform="translate(-263.667 -295.087)"/><path class="f" d="M270.48,454.4a1.7,1.7,0,0,0,.275.3c.169.143.312.243.333.222s-.106-.148-.275-.291A1.058,1.058,0,0,0,270.48,454.4Z" transform="translate(-263.808 -294.429)"/><path class="f" d="M270.9,453.509a1.143,1.143,0,0,0,.651.63,3.493,3.493,0,0,0-.328-.312C271.048,453.657,270.921,453.493,270.9,453.509Z" transform="translate(-264.006 -294.009)"/><path class="f" d="M271.832,456.387a1.387,1.387,0,0,0,.376.307,2.818,2.818,0,0,0,.476.249,1.4,1.4,0,0,0,.307.1.28.28,0,0,0,.19-.037.212.212,0,0,0,.069-.2.91.91,0,0,0-1.355-.36.323.323,0,0,0-.1.1,1.413,1.413,0,0,1,.439-.18.931.931,0,0,1,.5.058.767.767,0,0,1,.418.407c.026.09-.058.143-.153.127a1.506,1.506,0,0,1-.291-.085,3.593,3.593,0,0,1-.471-.222C271.985,456.493,271.837,456.371,271.832,456.387Z" transform="translate(-264.429 -295.309)"/><path class="f" d="M260.67,446a5.148,5.148,0,0,1,.423.376,2.381,2.381,0,0,1,.529,2.5c-.122.323-.254.5-.238.529s.042-.037.1-.116a2.251,2.251,0,0,0,.2-.37,2.3,2.3,0,0,0-.529-2.566,2.068,2.068,0,0,0-.328-.259C260.723,446,260.675,446,260.67,446Z" transform="translate(-259.188 -290.473)"/><path class="f" d="M263.832,442.32a14.526,14.526,0,0,0-1.058,1.159,12.512,12.512,0,0,0-.984,1.217,25.98,25.98,0,0,0,2.032-2.376Z" transform="translate(-259.716 -288.74)"/><path class="f" d="M264.24,452.51a6.126,6.126,0,0,0,1.693,1.439s-.386-.317-.852-.714S264.261,452.494,264.24,452.51Z" transform="translate(-260.87 -293.538)"/><path class="f" d="M261.962,450.7c-.026,0-.037.106-.069.228s-.079.217-.058.233.106-.069.143-.206S261.989,450.7,261.962,450.7Z" transform="translate(-259.735 -292.686)"/><path class="f" d="M262.081,449c-.026,0-.037.09-.032.206s.042.2.063.2.042-.1.032-.206S262.107,449,262.081,449Z" transform="translate(-259.837 -291.886)"/><path class="f" d="M261.33,447.564s.064.085.127.19.085.2.111.2.042-.122-.032-.243S261.341,447.537,261.33,447.564Z" transform="translate(-259.499 -291.206)"/><path class="f" d="M260.68,446.657v.127c0,.058.074.1.1.085s0-.069,0-.127S260.7,446.641,260.68,446.657Z" transform="translate(-259.193 -290.781)"/><path class="g" d="M315.149,454.554l-.09-4.064-7.609.122.069,5.947h.471c2.116.085,10.693.275,12.09-.175C321.657,455.908,315.149,454.554,315.149,454.554Z" transform="translate(-281.216 -292.587)"/><g class="s" transform="translate(26.292 161.74)"><path class="e" d="M310.343,459.868a2.646,2.646,0,0,0-.995-1.587,2.566,2.566,0,0,0-1.788-.529l.032,2.116Z" transform="translate(-307.56 -457.743)"/></g><g class="m" transform="translate(26.302 162.739)"><path class="e" d="M318.384,459.63s2.275.619,2,.995-8.969.529-12.8.238v-.175l10.138-.069S317.956,459.656,318.384,459.63Z" transform="translate(-307.58 -459.63)"/></g><path class="f" d="M307.4,461.442h.508l1.386.042c1.169,0,2.783.032,4.566,0s3.4-.09,4.566-.148l1.381-.079.376-.026a.418.418,0,0,0,.132,0h-.508l-1.381.048c-1.169.042-2.783.09-4.566.116s-3.4,0-4.566,0H307.4Z" transform="translate(-281.193 -297.645)"/><path class="f" d="M326.787,460.666a2.836,2.836,0,0,1,.249-.667,2.974,2.974,0,0,1,.46-.529,1.227,1.227,0,0,0-.709,1.2Z" transform="translate(-290.321 -296.816)"/><path class="f" d="M322.507,459.069a1.614,1.614,0,0,0,.233-.3c.106-.175.18-.328.159-.344s-.127.116-.233.3S322.486,459.053,322.507,459.069Z" transform="translate(-288.305 -296.325)"/><path class="f" d="M321.337,458.611a1.215,1.215,0,0,0,.265-.185c.132-.122.217-.228.2-.249s-.138.064-.265.185S321.316,458.611,321.337,458.611Z" transform="translate(-287.754 -296.206)"/><path class="f" d="M320.58,457.511a.857.857,0,0,0,.4.048.2.2,0,1,0,0-.1A1.058,1.058,0,0,0,320.58,457.511Z" transform="translate(-287.399 -295.799)"/><path class="f" d="M320.31,456.74a.783.783,0,0,0,.444.122.741.741,0,0,0,.455-.069,2.521,2.521,0,0,0-.45,0,2.247,2.247,0,0,0-.45-.053Z" transform="translate(-287.272 -295.53)"/><path class="f" d="M323,457.77a1.519,1.519,0,0,0,.487,0,2.533,2.533,0,0,0,.529-.127,1.091,1.091,0,0,0,.3-.127.281.281,0,0,0,.122-.153.185.185,0,0,0-.079-.19.894.894,0,0,0-1.106.275,1,1,0,0,0-.153.333.324.324,0,0,0,0,.132,1.365,1.365,0,0,1,.217-.423.847.847,0,0,1,.413-.275.741.741,0,0,1,.582.026c.079.058.053.148-.032.2a1.278,1.278,0,0,1-.275.122,3.561,3.561,0,0,1-.5.143A4.389,4.389,0,0,0,323,457.77Z" transform="translate(-288.539 -295.692)"/><path class="f" d="M322.641,457.582a.529.529,0,0,0,.048-.339.768.768,0,0,0-.138-.36.492.492,0,0,0-.407-.243.2.2,0,0,0-.148.233.529.529,0,0,0,.085.217,1.376,1.376,0,0,0,.238.291c.153.148.275.2.28.19s-.1-.085-.238-.238a1.328,1.328,0,0,1-.206-.291c-.069-.1-.116-.286,0-.307s.249.106.323.2a.8.8,0,0,1,.143.317,1.692,1.692,0,0,1,.021.328Z" transform="translate(-288.064 -295.483)"/><path class="f" d="M307.64,457.638a3.132,3.132,0,0,1,.561,0,2.381,2.381,0,0,1,2.016,1.587c.122.323.138.529.153.529a.391.391,0,0,0,0-.153,2.191,2.191,0,0,0-.09-.413,2.386,2.386,0,0,0-.788-1.122,2.36,2.36,0,0,0-1.286-.476,1.931,1.931,0,0,0-.418,0C307.687,457.616,307.634,457.632,307.64,457.638Z" transform="translate(-281.306 -295.925)"/><path class="f" d="M308.961,451.68a14.431,14.431,0,0,0-.037,1.587,12.781,12.781,0,0,0,.048,1.561,13.525,13.525,0,0,0,.042-1.561A12.16,12.16,0,0,0,308.961,451.68Z" transform="translate(-281.907 -293.148)"/><path class="f" d="M314.61,460.305a4.764,4.764,0,0,0,1.116.1,4.234,4.234,0,0,0,1.111-.111c0-.026-.5,0-1.116,0A9.757,9.757,0,0,0,314.61,460.305Z" transform="translate(-284.588 -297.196)"/><path class="f" d="M311.79,460.367s.042.106.1.217.085.212.111.212.037-.122-.026-.249S311.806,460.346,311.79,460.367Z" transform="translate(-283.26 -297.237)"/><path class="f" d="M310.71,459.053a.456.456,0,0,0,.111.175c.079.074.159.132.18.111s-.032-.1-.111-.175S310.726,459.021,310.71,459.053Z" transform="translate(-282.752 -296.616)"/><path class="f" d="M309.18,458.439a.513.513,0,0,1,.222.063c.116.064.19.1.212.079s-.048-.122-.185-.169S309.174,458.418,309.18,458.439Z" transform="translate(-282.031 -296.309)"/><path class="f" d="M308.09,458.2c0,.026.037.063.1.09a.206.206,0,0,0,.132,0c.011,0-.037-.058-.1-.085S308.1,458.175,308.09,458.2Z" transform="translate(-281.518 -296.209)"/><path class="n" d="M281.372,294.581s-2.534,10.72-1.815,12.842,5.355,3.349,5.355,3.349l-.153,29.361L259.08,371.879l9.482,7.762s27.794-31.8,30.244-37.567-1.587-47.964-1.587-47.964Z" transform="translate(-258.44 -218.95)"/><path class="n" d="M305.71,286.078l1.259,89.172-13.064.064-8.466-71.187h0c-1.291-4.233-2.762-8.651-2.5-13.7l1.751-5.127Z" transform="translate(-269.661 -214.802)"/><path class="p" d="M297.37,312.51a2.641,2.641,0,0,1,.307.265c.185.185.466.46.8.831.688.741,1.651,1.847,2.8,3.275h0v.032c.238,3.995.709,9.82,1.275,16.291.45,5.291.915,10.085,1.2,13.836v.037l-.026.032-3.635,4.868L299.09,353.3l-.27.344-.1.111s0-.048.074-.132l.243-.36L300,351.9l3.561-4.921v.064c-.344-3.746-.783-8.566-1.265-13.82-.566-6.471-1-12.3-1.185-16.3v.053c-1.127-1.439-2.069-2.566-2.73-3.323-.328-.381-.593-.667-.767-.862A1.9,1.9,0,0,1,297.37,312.51Z" transform="translate(-276.47 -227.615)"/><path class="p" d="M318.084,377.333a12.885,12.885,0,0,0-3.529-.921,13.408,13.408,0,0,0-3.624.349,2.943,2.943,0,0,1,1.016-.4,8.016,8.016,0,0,1,5.2.413A2.815,2.815,0,0,1,318.084,377.333Z" transform="translate(-282.855 -257.564)"/><path class="p" d="M318.359,386.22c.058.048-3.614,4.979-8.207,11.016s-8.365,10.894-8.424,10.847,3.609-4.979,8.207-11.016S318.275,386.177,318.359,386.22Z" transform="translate(-278.522 -262.323)"/><path class="p" d="M326.133,298.673a2.249,2.249,0,0,1-.735.968,3.64,3.64,0,0,1-5.328-.561,2.159,2.159,0,0,1-.529-1.1,11.434,11.434,0,0,0,.667.979,3.63,3.63,0,0,0,5.048.529C325.826,299.049,326.064,298.641,326.133,298.673Z" transform="translate(-286.909 -220.773)"/><path class="k" d="M277.975,250.561s-1.984,14.508,0,16.344a4.156,4.156,0,0,0,3.884,1.233l3.773-3.175.741-14.424Z" transform="translate(-266.922 -198.434)"/><path class="g" d="M279.173,228.3s-2.836,3.206-3.423,15.466c0,0,8.08,1.534,8.228,1.09S279.173,228.3,279.173,228.3Z" transform="translate(-266.289 -187.961)"/><path class="g" d="M281.8,260.079l25.741.418-.4-3.873s-2.836-14.746-2.815-14.937l.444-.942a8.566,8.566,0,0,0,.217-7.45h12.5l-.529-10.138-13.117-1.931-4.878-.386s-8.6.45-8.783.471c-3.6.434-7.783.709-9.312,4.561-.82,2.058-.042,5.148,1.291,8.339l3.175,9.783c1.27,5.381-.757,5.127-1.868,10.54C283.31,255.349,281.786,259.322,281.8,260.079Z" transform="translate(-268.543 -184.449)"/><path class="f" d="M285.446,252.325a2.118,2.118,0,0,1-.217-.487c-.148-.381-.317-.831-.529-1.355-.434-1.148-1.058-2.725-1.688-4.482s-1.169-3.37-1.5-4.556c-.169-.587-.291-1.058-.365-1.407a2.347,2.347,0,0,1-.085-.529,19.113,19.113,0,0,1,.635,1.884c.381,1.159.936,2.757,1.587,4.513s1.222,3.344,1.614,4.508c.2.582.344,1.058.439,1.386A1.746,1.746,0,0,1,285.446,252.325Z" transform="translate(-268.79 -193.24)"/><g class="t" transform="translate(17.726 57.274)"><path class="n" d="M292.175,271.785a25.444,25.444,0,0,0,6.693-3.778,12.169,12.169,0,0,0,4.191-6.323c.111-.471.127-1.09-.3-1.317a.831.831,0,0,0-.947.238,3.344,3.344,0,0,0-.529.91,6.593,6.593,0,0,1-2.28,2.693,18.8,18.8,0,0,1-3.741,1.656,6.881,6.881,0,0,0-3.312,2.307,2.987,2.987,0,0,0,.175,3.757" transform="translate(-291.371 -260.307)"/></g><path class="f" d="M304.268,254.34v.8a14.136,14.136,0,0,1-.317,2.164,15.418,15.418,0,0,1-8.894,10.762,14.018,14.018,0,0,1-2.064.72c-.249.069-.444.106-.577.132a.773.773,0,0,1-.206.026,4.584,4.584,0,0,1,.751-.259,17.353,17.353,0,0,0,2.016-.8,15.873,15.873,0,0,0,8.783-10.63,17.988,17.988,0,0,0,.4-2.116A5.815,5.815,0,0,1,304.268,254.34Z" transform="translate(-274.04 -200.223)"/><path class="j" d="M350.036,166.008s-.058-.328-.111-.974a10.355,10.355,0,0,1,.222-2.863,11.863,11.863,0,0,1,6.773-8.27,13.037,13.037,0,0,1,3.667-1.011,14.169,14.169,0,0,1,4.191.09,15.344,15.344,0,0,1,8.3,4.4,18.312,18.312,0,0,1,3.175,4.233,16.8,16.8,0,0,1,1.783,5.344,15.874,15.874,0,0,1-.175,5.958,13.4,13.4,0,0,1-1.026,2.942,11.927,11.927,0,0,1-1.8,2.646,12.169,12.169,0,0,1-5.6,3.408,20.684,20.684,0,0,1-6.852.7,27.174,27.174,0,0,1-7.064-1.259,12.228,12.228,0,0,1-6.074-4.233,12.6,12.6,0,0,1-2.339-7.281,14,14,0,0,1,.529-3.926,16.3,16.3,0,0,1,1.646-3.672,17.933,17.933,0,0,1,2.577-3.175,17.549,17.549,0,0,1,3.339-2.45,15.5,15.5,0,0,1,3.937-1.46,14.243,14.243,0,0,1,4.233-.222,16.789,16.789,0,0,1,13.508,9.931,14.5,14.5,0,0,1,.788,8.9,11.571,11.571,0,0,1-1.9,4.18,10.27,10.27,0,0,1-3.534,2.989,12.741,12.741,0,0,1-4.482,1.317,16.026,16.026,0,0,1-4.714-.2,16.349,16.349,0,0,1-8.365-4.365,13.328,13.328,0,0,1-2.783-3.937,10.3,10.3,0,0,1-.921-4.762,12.848,12.848,0,0,1,4.365-8.577,15.471,15.471,0,0,1,8.842-3.958,13.23,13.23,0,0,1,9.159,2.545,11.974,11.974,0,0,1,3.175,3.566,10.383,10.383,0,0,1,.968,2.191c.138.376.212.767.312,1.153a6.353,6.353,0,0,1,.175,1.18,12.794,12.794,0,0,1-2.455,8.9,13.836,13.836,0,0,1-7.6,4.995,14.9,14.9,0,0,1-8.931-.439,16.94,16.94,0,0,1-10.921-12.746,12.3,12.3,0,0,1,1.423-8.2,14.318,14.318,0,0,1,5.868-5.635,17.461,17.461,0,0,1,7.7-1.9,20.106,20.106,0,0,1,7.582,1.318,17.712,17.712,0,0,1,10.36,9.826,15.053,15.053,0,0,1-1.116,13.059,12.26,12.26,0,0,1-4.513,4.339,14.867,14.867,0,0,1-5.688,1.773,19.349,19.349,0,0,1-10.582-2.154,23.5,23.5,0,0,1-7.5-5.783,15.143,15.143,0,0,1-3.466-7.069,11.672,11.672,0,0,1,.709-6.286,10.487,10.487,0,0,1,2.646-3.836,8.73,8.73,0,0,1,2.413-1.55c.608-.217.926-.312.926-.312l-.233.085c-.153.058-.386.138-.683.254a8.942,8.942,0,0,0-2.386,1.587,10.492,10.492,0,0,0-2.593,3.826,11.641,11.641,0,0,0-.693,6.233,15.037,15.037,0,0,0,3.471,7.058,23.445,23.445,0,0,0,7.466,5.73,19.217,19.217,0,0,0,10.519,2.116,14.773,14.773,0,0,0,5.614-1.757,12.027,12.027,0,0,0,4.434-4.286,14.858,14.858,0,0,0,1.09-12.879,17.528,17.528,0,0,0-10.244-9.688,19.874,19.874,0,0,0-7.5-1.291,17.18,17.18,0,0,0-7.593,1.878,14.138,14.138,0,0,0-5.778,5.524,12.048,12.048,0,0,0-1.392,8.037,16.682,16.682,0,0,0,10.762,12.54,14.609,14.609,0,0,0,8.778.429,13.54,13.54,0,0,0,7.45-4.9,12.524,12.524,0,0,0,2.445-8.709c-.026-.386-.116-.767-.175-1.153a11.492,11.492,0,0,0-1.243-3.259,11.852,11.852,0,0,0-3.127-3.487,12.8,12.8,0,0,0-8.995-2.487,15.2,15.2,0,0,0-8.683,3.863,12.555,12.555,0,0,0-4.275,8.386,10.053,10.053,0,0,0,.894,4.64,13.164,13.164,0,0,0,2.725,3.852,16.079,16.079,0,0,0,8.228,4.291,15.82,15.82,0,0,0,4.63.2,12.255,12.255,0,0,0,4.386-1.291,9.91,9.91,0,0,0,3.445-2.91,11.233,11.233,0,0,0,1.862-4.074,14.286,14.286,0,0,0-.772-8.741,16.545,16.545,0,0,0-13.291-9.8,14.285,14.285,0,0,0-4.169.217,15.285,15.285,0,0,0-3.863,1.439,16.994,16.994,0,0,0-3.291,2.4,17.26,17.26,0,0,0-2.54,3.122,15.994,15.994,0,0,0-1.624,3.609,13.878,13.878,0,0,0-.529,3.857,12.376,12.376,0,0,0,2.291,7.143,11.958,11.958,0,0,0,5.953,4.138,27.153,27.153,0,0,0,7,1.275,20.366,20.366,0,0,0,6.783-.688,11.349,11.349,0,0,0,7.291-5.942,13.226,13.226,0,0,0,1.016-2.9,15.815,15.815,0,0,0,.185-5.889,17.239,17.239,0,0,0-4.878-9.524,15.238,15.238,0,0,0-8.212-4.376,13.931,13.931,0,0,0-4.154-.1,12.889,12.889,0,0,0-3.64.989,11.64,11.64,0,0,0-4.868,3.958,11.805,11.805,0,0,0-1.894,4.233,10.736,10.736,0,0,0-.249,2.852,7.185,7.185,0,0,0,.063.73C350.026,165.918,350.036,166.008,350.036,166.008Z" transform="translate(-299.887 -152.062)"/><path class="j" d="M378.146,173.237c0,.069-3.445,1.222-7.741,2.572s-7.8,2.386-7.826,2.312,3.445-1.222,7.741-2.571S378.1,173.163,378.146,173.237Z" transform="translate(-307.176 -162.031)"/><path class="j" d="M380.889,178c.026.069-3.206,1.249-7.217,2.646s-7.275,2.439-7.3,2.365,3.206-1.249,7.217-2.646S380.862,177.917,380.889,178Z" transform="translate(-308.961 -164.272)"/><path class="j" d="M376.061,187.759a16.869,16.869,0,0,1-3.609,1.5c-1.016.36-1.947.667-2.646.878a4.636,4.636,0,0,1-1.116.286,4.925,4.925,0,0,1,1.058-.471c.661-.254,1.587-.593,2.6-.952s1.947-.677,2.619-.9S376.087,187.749,376.061,187.759Z" transform="translate(-310.054 -168.871)"/><path class="k" d="M385.968,191.845s-2.423-1.122-2.54-.529.048.831.529.979,1.794.593,1.794.593Z" transform="translate(-316.977 -170.465)"/><path class="u" d="M385.707,193.935s-2.423-1.122-2.54-.529.042.825.529.979,1.794.593,1.794.593Z" transform="translate(-316.854 -171.449)"/><path class="k" d="M364.313,195.86l-9.2,12.043a6.481,6.481,0,0,1-4.725,2.947l-.862.074.429,8.207,3.63-.413a7.3,7.3,0,0,0,5.487-3.587l9.349-16.159a27.8,27.8,0,0,0,1.64-3.228,6.881,6.881,0,0,0-.042-3.487l-3.7,2.339v-2.524s-.4-.138-1.169.619C364.483,193.362,364.313,195.86,364.313,195.86Z" transform="translate(-301.031 -170.897)"/><path class="p" d="M381.15,188.732l.048,8.884a.72.72,0,0,0,.767.714h0a.72.72,0,0,0,.667-.72v-8.995l-.847-1.376Z" transform="translate(-315.921 -168.627)"/><path class="f" d="M382.123,187.29l-.233.534.545-.026Z" transform="translate(-316.269 -168.65)"/><path class="f" d="M382.6,189.876a1.185,1.185,0,0,1-.735.233,1.355,1.355,0,0,1-.762-.132c0-.037.344.048.757.026S382.581,189.844,382.6,189.876Z" transform="translate(-315.897 -169.866)"/><path class="f" d="M382.442,199.719a2.2,2.2,0,0,1-.026-.376c0-.307,0-.646,0-1.021,0-.958,0-2.116-.026-3.37s0-2.407,0-3.365v-1.021a1.908,1.908,0,0,1,0-.376,2.643,2.643,0,0,1,0,.376v8.778A3.649,3.649,0,0,1,382.442,199.719Z" transform="translate(-316.499 -170.016)"/></g><g transform="translate(61.364 173.275)"><path class="g" d="M148,369.835c4.138,1.444,9.524.153,13.085-2.434s6.09-6.291,8.349-10.053a14.846,14.846,0,0,0,2.212-5.122,5.527,5.527,0,0,0-1.587-5.132c-2.228-1.873-5.64-.921-8.164.529A28.16,28.16,0,0,0,148,369.835" transform="translate(-110.991 -327.375)"/><path class="g" d="M156.38,403.851c2.487,3.281,6.757,4.762,10.873,4.931a30.345,30.345,0,0,0,12.016-2.418c1.4-.529,2.921-1.27,3.4-2.683a3.418,3.418,0,0,0-.73-3.175,7.043,7.043,0,0,0-2.773-1.889,18.954,18.954,0,0,0-12.1-.656c-3.979,1.032-7.461,3.339-10.688,5.884" transform="translate(-114.937 -351.496)"/><path class="g" d="M146.314,335.455c3.429.069,6.021-2.931,7.577-5.99a22.223,22.223,0,0,0,2.021-13.821c-.317-1.751-.979-3.64-2.545-4.487a4.54,4.54,0,0,0-5,.931,10.318,10.318,0,0,0-2.6,4.688,31.31,31.31,0,0,0,.529,18.7" transform="translate(-109.379 -310.752)"/><path class="g" d="M121.629,360.28a41.343,41.343,0,0,0,3.365-33.128c-.561-1.788-1.614-3.831-3.482-3.947-2.069-.132-3.365,2.175-3.937,4.164-2.005,6.995-1.587,14.418-1.138,21.694a15.4,15.4,0,0,0,5.191,11.233" transform="translate(-95.953 -316.613)"/><path class="g" d="M97.65,387.143A23.9,23.9,0,0,0,83.47,372.1c-1.556-.582-3.524-.915-4.683.27s-.762,3.132-.058,4.572a22.853,22.853,0,0,0,4.99,6.048,20.559,20.559,0,0,0,5.72,4.259c2.191.958,6.212,1.2,8.212-.1" transform="translate(-78.054 -339.391)"/><path class="f" d="M159.636,352.709a.467.467,0,0,1-.1.09l-.317.243-1.228.915-.884.656c-.323.249-.656.529-1.021.831-.725.6-1.587,1.254-2.439,2.074l-1.376,1.254c-.481.439-.937.931-1.434,1.423-1.005.963-1.979,2.116-3.027,3.259a64.462,64.462,0,0,0-10.7,17.281c-.577,1.46-1.148,2.836-1.587,4.169-.217.661-.455,1.3-.63,1.915s-.344,1.222-.529,1.794c-.344,1.138-.529,2.191-.762,3.106-.1.46-.206.889-.286,1.286l-.19,1.085q-.175.958-.27,1.508l-.079.392a.653.653,0,0,1-.037.132.529.529,0,0,1,0-.138,3.737,3.737,0,0,1,.048-.4c.053-.365.127-.873.222-1.513.048-.328.106-.7.164-1.1s.175-.825.265-1.291c.206-.921.392-1.984.73-3.127l.487-1.8c.175-.63.407-1.265.619-1.931.407-1.339.979-2.725,1.545-4.191a69.89,69.89,0,0,1,4.656-9.117,69.053,69.053,0,0,1,6.069-8.233c1.058-1.169,2.042-2.3,3.058-3.259.529-.487.968-.979,1.45-1.413l1.4-1.243c.868-.815,1.735-1.455,2.471-2.053.37-.291.709-.571,1.032-.81l.9-.64,1.259-.873.333-.222C159.594,352.731,159.631,352.7,159.636,352.709Z" transform="translate(-103.801 -330.509)"/><path class="f" d="M167.668,403.854a1.847,1.847,0,0,1-.4-.064c-.265-.048-.64-.148-1.138-.233a31.392,31.392,0,0,0-31.906,13.281c-.291.413-.487.751-.635.968a2.117,2.117,0,0,1-.238.333,2.783,2.783,0,0,1,.19-.36c.132-.228.317-.577.593-1a28.521,28.521,0,0,1,2.561-3.434,30.36,30.36,0,0,1,25.228-10.5,27.974,27.974,0,0,1,4.233.6c.492.1.873.217,1.127.28a3.789,3.789,0,0,1,.386.122Z" transform="translate(-104.092 -354.081)"/><path class="f" d="M145.865,319a.833.833,0,0,1,0,.153c-.026.116-.058.265-.1.45-.09.407-.222.984-.381,1.709-.339,1.487-.852,3.63-1.5,6.281-1.286,5.291-3.175,12.588-5.106,20.667-.974,4.042-1.847,7.9-2.6,11.424s-1.376,6.7-1.847,9.386c-.249,1.339-.439,2.556-.619,3.624s-.328,1.984-.439,2.741-.2,1.318-.265,1.73l-.079.455a.656.656,0,0,1-.037.148.671.671,0,0,1,0-.153c0-.116.026-.27.048-.455.053-.418.127-1,.217-1.741s.222-1.683.392-2.751.344-2.286.582-3.63c.444-2.688,1.058-5.878,1.788-9.408s1.614-7.408,2.582-11.434c1.947-8.085,3.852-15.371,5.185-20.635.667-2.646,1.2-4.762,1.587-6.259.185-.72.328-1.291.434-1.7.048-.18.09-.323.122-.439A.578.578,0,0,1,145.865,319Z" transform="translate(-103.876 -314.636)"/><path class="f" d="M128.448,385.6a.358.358,0,0,0-.037-.122,2.282,2.282,0,0,1-.085-.36q-.1-.529-.286-1.381c-.249-1.206-.577-2.952-.952-5.117-.751-4.328-1.635-10.339-2.185-17.022-.265-3.344-.413-6.535-.476-9.439s0-5.524.069-7.72c0-1.1.1-2.09.148-2.963s.106-1.619.159-2.228.1-1.058.132-1.413l.042-.365a.471.471,0,0,1,0-.122.461.461,0,0,1,0,.127v.365c0,.349-.042.82-.074,1.413s-.085,1.36-.116,2.233-.1,1.862-.106,2.958c-.069,2.2-.074,4.81,0,7.709s.233,6.085.5,9.424c.529,6.672,1.4,12.7,2.116,17.011.355,2.169.651,3.921.868,5.127.1.587.175,1.058.233,1.4l.058.36A1.149,1.149,0,0,1,128.448,385.6Z" transform="translate(-99.878 -323.277)"/><path class="f" d="M111.873,406.613a3.42,3.42,0,0,1-.153-.344l-.381-1-.275-.725c-.116-.259-.243-.529-.376-.841s-.28-.624-.429-.963-.349-.688-.529-1.058l-.593-1.159c-.233-.392-.466-.8-.714-1.222-.466-.857-1.058-1.709-1.661-2.646a61.91,61.91,0,0,0-4.4-5.63,68.9,68.9,0,0,0-5.053-5.053c-.836-.709-1.587-1.418-2.386-2.016l-1.106-.878-1.058-.778c-.667-.5-1.286-.921-1.836-1.291s-1.021-.688-1.418-.926l-.9-.577a1.587,1.587,0,0,1-.307-.217,2.8,2.8,0,0,1,.333.169l.937.529c.407.228.889.529,1.444.894s1.191.767,1.862,1.265l1.058.762,1.122.873c.788.587,1.587,1.291,2.413,2a65.349,65.349,0,0,1,5.09,5.064,59.116,59.116,0,0,1,4.408,5.667c.582.937,1.185,1.8,1.651,2.646q.355.646.7,1.238l.582,1.175c.18.376.37.725.529,1.058s.28.672.413.979l.355.852c.09.265.175.529.254.736l.333,1.021A1.756,1.756,0,0,1,111.873,406.613Z" transform="translate(-82.874 -343.025)"/><path class="f" d="M168.518,374.425a17.137,17.137,0,0,1-1.847.111,34.586,34.586,0,0,0-4.413.529,35.042,35.042,0,0,0-4.3,1.116,18.042,18.042,0,0,1-1.757.582,1.588,1.588,0,0,1,.439-.238c.291-.143.72-.323,1.254-.529a26.888,26.888,0,0,1,4.318-1.212,26.256,26.256,0,0,1,4.455-.455h1.355A2,2,0,0,1,168.518,374.425Z" transform="translate(-114.852 -340.69)"/><path class="f" d="M182.607,409.616a13.36,13.36,0,0,0-5.847-6.3,3.88,3.88,0,0,1,1.191.529,10.477,10.477,0,0,1,4.233,4.545A3.916,3.916,0,0,1,182.607,409.616Z" transform="translate(-124.533 -354.341)"/><path class="f" d="M155.6,334.24c.053.058-1.021,1.127-2.2,2.572s-2.011,2.709-2.079,2.646a12.17,12.17,0,0,1,1.868-2.841A11.891,11.891,0,0,1,155.6,334.24Z" transform="translate(-112.554 -321.812)"/><path class="f" d="M152.715,322.72a9.678,9.678,0,0,1,.529,2.307,10.053,10.053,0,0,1,.259,2.349,20.883,20.883,0,0,1-.794-4.656Z" transform="translate(-113.209 -316.387)"/><path class="f" d="M128.8,358.88a28.529,28.529,0,0,1-1.709,3.6,28.826,28.826,0,0,1-1.958,3.471,29.1,29.1,0,0,1,1.709-3.6,29.718,29.718,0,0,1,1.958-3.476Z" transform="translate(-100.222 -333.415)"/><path class="f" d="M119.76,346.61a32.05,32.05,0,0,1,2.651,5.328,16.766,16.766,0,0,1-1.45-2.6,16.319,16.319,0,0,1-1.2-2.725Z" transform="translate(-97.693 -327.637)"/><path class="f" d="M96.971,388.087c0,.079-1.175-.148-2.646-.249s-2.646-.042-2.646-.127a10.66,10.66,0,0,1,5.291.376Z" transform="translate(-84.47 -346.896)"/><path class="h" d="M114,425.73l3.254,17.112a2.392,2.392,0,0,0,2.355,1.947h9.63a2.392,2.392,0,0,0,2.365-2.005l2.831-17.053Z" transform="translate(-94.981 -364.893)"/><path class="i" d="M115.088,431.291H133.47l.979-5.561H114.03Z" transform="translate(-94.995 -364.893)"/><path class="d" d="M116.03,436.24l.386,2.027h17.715l.28-2.027Z" transform="translate(-95.937 -369.842)"/></g></g></svg>