<svg xmlns="http://www.w3.org/2000/svg" width="21.122" height="14.081" viewBox="0 0 21.122 14.081"><defs><style>.a{fill:#2a5798;}</style></defs><path class="a" d="M10.561,0A10.942,10.942,0,0,0,.111,6.723L0,7.041l.11.318a10.945,10.945,0,0,0,10.451,6.723,10.942,10.942,0,0,0,10.45-6.723l.111-.318-.11-.318A10.945,10.945,0,0,0,10.561,0Zm0,11.064a4.12,4.12,0,0,1-4.2-4.023,4.12,4.12,0,0,1,4.2-4.023,4.12,4.12,0,0,1,4.2,4.023A4.12,4.12,0,0,1,10.561,11.064Z"/><path class="a" d="M2.347,0A2.379,2.379,0,0,0,0,2.347,2.379,2.379,0,0,0,2.347,4.694,2.379,2.379,0,0,0,4.694,2.347,2.379,2.379,0,0,0,2.347,0Z" transform="translate(8.214 4.694)"/></svg>