<svg xmlns="http://www.w3.org/2000/svg" width="20.828" height="20.828" viewBox="0 0 20.828 20.828">
  <g id="_2561429_eye_off_icon" data-name="2561429_eye_off_icon" transform="translate(0.524 0.524)">
    <path id="Path_3305" data-name="Path 3305" d="M14.692,15.267a8.139,8.139,0,0,1-4.8,1.665C4.233,16.932,1,10.466,1,10.466a14.912,14.912,0,0,1,4.09-4.8m3.1-1.471A7.371,7.371,0,0,1,9.891,4c5.658,0,8.891,6.466,8.891,6.466a14.953,14.953,0,0,1-1.746,2.578M11.6,12.179A2.425,2.425,0,1,1,8.177,8.752" transform="translate(0 -0.575)" fill="none" stroke="#1c1b1b" stroke-linecap="round" stroke-linejoin="round" stroke-width="2"/>
    <line id="Line_132" data-name="Line 132" x2="18" y2="18" transform="translate(0.891 0.891)" fill="none" stroke="#1c1b1b" stroke-linecap="round" stroke-linejoin="round" stroke-width="2"/>
  </g>
</svg>
