<svg xmlns="http://www.w3.org/2000/svg" width="407.095" height="145.962" viewBox="0 0 407.095 145.962"><defs><style>.a{fill:#d1e4ff;}.b{fill:#dfebfd;}.c{fill:#ffb27d;}.d{fill:#233862;}.e{fill:#e8945b;}.f{fill:#194688;}.g{fill:#2a5798;}.h{fill:#f6b333;}.i{fill:#f1a34f;}.j{fill:#d86713;}.k{fill:#d9935c;}.l{fill:#466aa5;}.m{fill:#fff;}.n{fill:#b47600;}.o{fill:#1c4785;}.p{fill:#f4a269;}.q{fill:#c65447;}.r{fill:#e4a226;}.s{fill:#212121;}.t{fill:#9e332e;}.u{fill:#b5453c;}.v{fill:#ea9963;}.w{fill:#163560;}.x{fill:#4a75cb;}.y{fill:#090909;}.z{fill:#2b478b;}.aa{fill:#0f0f0f;}.ab{fill:#1a1a1a;}.ac{fill:#ed975d;}.ad{fill:#1c1b1b;}.ae{fill:#262525;}.af{fill:#131313;}.ag{fill:#d5951b;}.ah{fill:#072754;}</style></defs><g transform="translate(-163.443 -416.756)"><g transform="translate(434.023 444.706)"><path class="a" d="M2163.668,800.749s19.836-30.291,28.33-26.327S2163.668,800.749,2163.668,800.749Z" transform="translate(-2158.286 -774.064)"/><path class="a" d="M2158.435,844.891s42.525-32.434,56.41-23.826-10.725,12.923-20.013,13.777S2158.435,844.891,2158.435,844.891Z" transform="translate(-2153.801 -813.1)"/><path class="a" d="M2127.433,834.735s-.058-1.248-.164-3.071c-.208-3.555-.6-9.295-1.12-12.211-.783-4.41,1.993-8.325,6.879-4.795s-4.4,18.535-4.4,18.535Z" transform="translate(-2126.017 -807.683)"/></g><path class="a" d="M910.529,1429.111l-19.38-.052a6.131,6.131,0,0,0-1.828,0l-10.619-.028c-3.785-2.809-4.369-11.342-4.369-11.342,3.183,2.26,10.175,2.386,10.819,1.245s-8.8-4.1-10.147-4.948-2.95-4.619.559-9.962,12.8-.269,12.8-.269,3.356,12.462,5.231,13.347-.789-11.215-.789-11.215c3.907.874,12.036,8.677,12.036,8.677s-4.533,11.771-2.5,12.167,3.481-10.627,3.481-10.627c3.3,2.3,5.324,7.7,5.324,7.7A7.074,7.074,0,0,1,910.529,1429.111Z" transform="translate(-618.476 -867.164)"/><path class="a" d="M472.293,635.63c4.866-8.36,19.324-1.451,19.324-1.451s6.088,18.556,8.993,19.74-2.107-16.882-2.107-16.882c5.974,1,18.894,12.13,18.894,12.13s-5.889,18.156-2.783,18.588,4.394-16.342,4.394-16.342c5.181,3.206,8.672,11.194,8.672,11.194,3.7,12.475-12.514,16.576-12.514,16.576a31.032,31.032,0,0,0,.07,14.722h0a22.512,22.512,0,0,1,.813,4.134l-1.536-.413c-.015-.446-.046-.881-.1-1.3a.009.009,0,0,0,0-.008l0-.018c-.042-.266-.1-.644-.18-1.106v0s0,0,0,0c-.222-1.045-.357-1.809-.426-2.353a.017.017,0,0,1,0,0c-.631-3.262-1.646-7.565-2.786-8.717a3.074,3.074,0,0,0,.518-.616l-.518.616c-4.145,4.928-17.546,2.332-24.468-1.141s-3.173-4.68,1.674-6.973,12.873.814,15.669.155-.42-2.933-5.4-3.87-8.74,3.29-16.831,1.919-10.112-17.825-10.112-17.825c4.993,3.155,15.569,2.776,16.449,1s-13.633-5.479-15.736-6.648S467.427,643.989,472.293,635.63Z" transform="translate(-272.338 -207.171)"/><path class="a" d="M1249.375,937.021c5.65-7.785,19.265.495,19.265.495s4.17,18.969,6.926,20.43-.4-16.914-.4-16.914c5.812,1.589,17.483,13.89,17.483,13.89s-7.641,17.376-4.61,18.114,5.98-15.731,5.98-15.731c4.806,3.689,7.462,11.943,7.462,11.943,2.41,12.712-14.038,15.151-14.038,15.151a30.858,30.858,0,0,0-1.4,14.574h0a22.4,22.4,0,0,1,.392,4.172l-1.479-.562c.03-.443.043-.876.035-1.3a.01.01,0,0,0,0-.008c0-.006,0-.012,0-.018-.014-.267-.036-.647-.067-1.113v0s0,0,0,0c-.115-1.056-.172-1.826-.186-2.371a.017.017,0,0,1,0-.005c-.3-3.291-.873-7.65-1.885-8.9a3.067,3.067,0,0,0,.574-.558l-.574.558c-4.594,4.462-17.594.554-24.1-3.573s-2.672-4.948,2.353-6.732,12.656,2.091,15.488,1.719-.123-2.944-4.961-4.37-8.976,2.382-16.845.218-8.224-18.648-8.224-18.648c4.625,3.621,15.127,4.3,16.176,2.632s-12.942-6.783-14.906-8.15S1243.725,944.807,1249.375,937.021Z" transform="translate(-937.558 -466.162)"/><g transform="translate(340.033 547.746)"><path class="b" d="M1477.964,1525.828s-2.049,7.186-1.655,9.978l-7.76-.02a7.022,7.022,0,0,1,1.53-5.043S1474.046,1526.62,1477.964,1525.828Z" transform="translate(-1468.514 -1521.404)"/><path class="b" d="M1564.121,1509.36l-29.421-.077c1.165-2.964,1.491-11,1.491-11s10.481-3.907,14.385-3.164c0,0-7.194,9.976-5.138,9.908s10.026-10.1,10.026-10.1,10.468-.961,11.559,5.29C1568,1505.831,1565.726,1508.665,1564.121,1509.36Z" transform="translate(-1525.238 -1494.876)"/></g><path class="b" d="M2005.782,1578.181l-27.848-.073c1.8-.772,4.161-1.5,6.69-2.363C1990.961,1573.579,1999.6,1576.563,2005.782,1578.181Z" transform="translate(-1565.079 -1015.786)"/><path class="a" d="M1888.343,1256.25l-25.208-.068c.526-1.116-2.69-3.4-7.346-4.834-5.927-1.825-11.07,2.795-20.712.018s-9.833-23.046-9.833-23.046c5.631,4.52,18.531,5.514,19.845,3.475s-15.809-8.529-18.2-10.24-4.947-8.851,2.114-18.337,23.676.893,23.676.893,4.845,23.381,8.21,25.219-.24-20.8-.24-20.8c7.121,2.039,21.286,17.334,21.286,17.334s-9.65,21.246-5.935,22.2,7.585-19.248,7.585-19.248c5.853,4.607,9,14.791,9,14.791A12.932,12.932,0,0,1,1888.343,1256.25Z" transform="translate(-1433.491 -693.74)"/><g transform="translate(183.775 473.354)"><g transform="translate(3.507 0)"><path class="c" d="M604.876,1131.909c0-.052-.769-1.643-.524-1.765s.683-.1.734.175A9.719,9.719,0,0,1,604.876,1131.909Z" transform="translate(-575.092 -1107.829)"/><path class="d" d="M471.345,986.009s-4.51-5.419-6.9-1.951c0,0-1.781.739-2.425,3.771-.657,3.093,1.4,5.444,2.463,4.863.682-.372,1.2.821,1.2.821Z" transform="translate(-453.041 -981.693)"/><path class="c" d="M540.428,1108.671c3.585-1.321,7.038-7.456,7.038-7.456l-1.131-.791c-.942,1.377-5.179,4.023-5.179,4.023-.1-1.161-.237-2.214-.411-3.168-1.176-6.484-3.867-8.4-4.589-8.812a1.634,1.634,0,0,0-.182-.092s0,.048.008.138c.01.2.033.588.071,1.127C536.334,1097.653,537.432,1109.776,540.428,1108.671Z" transform="translate(-516.531 -1075.519)"/><path class="d" d="M452.66,976.285s-.606-2.425-4.169-1.667c0,0,1.705-.215,2.173.442a2.8,2.8,0,0,0-2.2-.1c-.846.518-.985,2.261-.859,2.792s1.061,2.11,1.68,2.11a2.848,2.848,0,0,0,1.352-.543Z" transform="translate(-440.761 -974.47)"/><path class="c" d="M445.674,1080.9c1.771-3.972,2.619-5.1,2.648-6.345.023-.988-.464-2.055-1.411-4.67a9.745,9.745,0,0,1-.471-1.89c-.749-5.041,2.166-10.49,3.978-10.862.5-.133,1.359-1.954,1.348-4.888l.227.045,3.815.755s-.087,1.2-.089,2.332c0,.943.054,1.836.268,1.948.275.025.437.041.437.041s3.181,4.418,3.448,8.526-2.547,5.894.021,14.1C462.515,1088.386,444.7,1083.1,445.674,1080.9Z" transform="translate(-439.105 -1041.131)"/><path class="e" d="M493.93,1053.316s-.087,1.2-.09,2.332c-2.135-.06-3.263-2.007-3.726-3.087Z" transform="translate(-477.226 -1041.398)"/><path class="d" d="M478.845,1002.659a11.218,11.218,0,0,1-1.387-3.279c-.192-1.079.358-5.079,4.378-4.5a5.46,5.46,0,0,1,2.265.856c.873.589,2.132,1.862.724,5.352l-.366,1.179Z" transform="translate(-466.35 -991.911)"/><path class="c" d="M491.146,1014.24s-5.051.083-5.054-3.063-.658-5.255,2.567-5.441,3.853,1.014,4.109,2.063S492.46,1014.137,491.146,1014.24Z" transform="translate(-473.73 -1001.25)"/><path class="d" d="M481.222,1001.477s-1.383,3.691-3.505,4.237-3.043-.023-3.043-.023a6.01,6.01,0,0,0,1.966-3.551S480.179,999.721,481.222,1001.477Z" transform="translate(-463.993 -997.069)"/><path class="d" d="M518.084,1003.8a4.46,4.46,0,0,1,1.285,1.625c.252.8.365,2.451.846,2.395,0,0,1.042-2.509-.129-3.928C518.844,1002.386,518.084,1003.8,518.084,1003.8Z" transform="translate(-501.197 -999.091)"/><path class="f" d="M470.36,1297.125a49.912,49.912,0,0,0,3.184,8.93l1.666-.115a47.09,47.09,0,0,1-.77-9.136,38.255,38.255,0,0,1,1.937-12.151c4.984-14.234,4.178-24.593,4.178-24.593l-9.372,1.1-.437.051c-.039,4.3-.15,10.148-.247,14.718-.086,4.11-.161,7.189-.161,7.189C468.535,1286.995,469.19,1292.473,470.36,1297.125Z" transform="translate(-459.318 -1219.235)"/><path class="c" d="M399.954,1113.859l1.516.455s5-8.3,5.457-10.459c.148-.7.512-2.11.937-3.686.878-3.264,2.012-7.259,2.012-7.259l.373-1.617,1.273-5.514a17.285,17.285,0,0,0-3.864.845,1.773,1.773,0,0,0-.958.708c-1.048,2.3-2.094,8.117-2.829,12.264-.41,2.311-.722,4.105-.885,4.486C402.531,1105.143,401.141,1110.98,399.954,1113.859Z" transform="translate(-399.954 -1069.867)"/><path class="g" d="M438.779,1284.483a23.06,23.06,0,0,0,2.912,9.47l.8.579s.753-4.052,1.286-8.873c.508-4.582,1.2-9.43,1.991-10.91,3.126-5.869,4.066-28.026,4.066-28.026l-9.5-.471c-.956,1.606-1.372,4.242-1.471,7.238-.25,7.562,1.528,17.422,1.793,18.848a.008.008,0,0,0,0,0,.5.5,0,0,1-.062.318A21.815,21.815,0,0,0,438.779,1284.483Z" transform="translate(-433.115 -1207.401)"/><path class="d" d="M497.463,1002.255s-.985,3.865-3.663,5.1c0,0,2.678-2.375,2.905-4.926S497.463,1002.255,497.463,1002.255Z" transform="translate(-480.385 -997.422)"/><path class="h" d="M425.959,1113.362a2.25,2.25,0,0,0,.059.759c.2.636.9.926,2.575.753,1.026-.107,1.483-1.826,1.687-3.293q.924,3.148,2.594,3.524c1.628.362,9.837,1.36,10.374-2.542.591-4.292-1.179-11.892-1.276-15.99a20.281,20.281,0,0,0,.3-3.8c-.069-2.919-.925-4.555-1.584-5.214a2.246,2.246,0,0,0-1.122-.361c-.383-.065-.913-.141-1.665-.24a2.859,2.859,0,0,0-.3-.023c.139.248,2,3.064,1.853,3.788-.152.758-6.746.075-7.2-.341s-1.174-3.609-1.174-3.609a9.135,9.135,0,0,0-3.477,1.086l.012.015a.962.962,0,0,0-.3.316c-1.219,2.32-2.436,8.175-3.291,12.352a6.081,6.081,0,0,0,4.449.652C427.736,1106.006,426.069,1111.17,425.959,1113.362Z" transform="translate(-420.581 -1070.721)"/><path class="c" d="M608.328,1124.624c0-.156-.131-2.412.271-2.886s1.222-1.148,1.479-1.127a2.537,2.537,0,0,1,.963,2.388,8.432,8.432,0,0,1-1.583,2.417Z" transform="translate(-578.524 -1099.719)"/><g transform="translate(27.823 17.363)"><path class="i" d="M1.026,0h.682A1.026,1.026,0,0,1,2.734,1.026v2.9A1.026,1.026,0,0,1,1.708,4.947H1.025A1.025,1.025,0,0,1,0,3.922v-2.9A1.026,1.026,0,0,1,1.026,0Z" transform="translate(2.619 5.524) rotate(-163.318)"/><path class="j" d="M598.706,1102.176l2.121.636a.26.26,0,0,0,.324-.175l1.271-4.241a.26.26,0,0,0-.174-.324l-2.121-.635a.26.26,0,0,0-.324.174l-1.271,4.241A.26.26,0,0,0,598.706,1102.176Z" transform="translate(-597.958 -1097.213)"/></g><path class="c" d="M439.579,1513.7a23.058,23.058,0,0,0,2.912,9.47l.81.738s.739-4.211,1.272-9.032A8.522,8.522,0,0,1,439.579,1513.7Z" transform="translate(-433.915 -1436.615)"/><path class="k" d="M477.194,1517.419a49.909,49.909,0,0,0,3.184,8.93l1.666-.115a47.089,47.089,0,0,1-.77-9.136A7.581,7.581,0,0,1,477.194,1517.419Z" transform="translate(-466.153 -1439.529)"/><g transform="translate(12.401 84.362)"><path class="d" d="M487.572,1568.477h1.063c.356-.056.619-.159.984-.207a.986.986,0,0,1,.861.207l.01.011h4.517c.114-.162,0-.538-.1-.815a.642.642,0,0,0-.423-.387,4.873,4.873,0,0,1-2.288-1.045c-.487-.439-2.35-1.617-2.35-1.617l-.01,0c-.041,0-.236.061-1.083.776-.438.369-1.185-.522-1.185-.522a1.066,1.066,0,0,0-.245.332,1.123,1.123,0,0,0-.1.694,4.5,4.5,0,0,1-.324,1.675c-.105.31-.194.53-.194.53S486.657,1568.362,487.572,1568.477Z" transform="translate(-486.707 -1564.622)"/><path class="l" d="M491.011,1565.208a3.368,3.368,0,0,0,1.145.578c.48.063,1.377-1.162,1.377-1.162l-.01,0c-.041,0-.236.061-1.083.776-.438.369-1.185-.522-1.185-.522A1.066,1.066,0,0,0,491.011,1565.208Z" transform="translate(-490.396 -1564.622)"/><path class="l" d="M487.572,1586.194h1.063c.356-.056.619-.159.984-.207a.987.987,0,0,1,.861.207l.01.011h4.517c.114-.162,0-.538-.1-.815-.137-.122-.176.53-.252.634a20.161,20.161,0,0,1-3.894-.114,2.179,2.179,0,0,0-1.705-.208,4.107,4.107,0,0,1-2.153-.407c-.105.31-.194.53-.194.53S486.657,1586.08,487.572,1586.194Z" transform="translate(-486.707 -1582.34)"/></g><g transform="translate(6.727 84.362)"><path class="d" d="M447.876,1568.477h1.063c.356-.056.619-.159.984-.207a.985.985,0,0,1,.861.207l.01.011h4.517c.114-.162,0-.538-.1-.815a.642.642,0,0,0-.423-.387,4.873,4.873,0,0,1-2.288-1.045c-.487-.439-2.35-1.617-2.35-1.617l-.01,0c-.041,0-.236.061-1.083.776-.438.369-1.185-.522-1.185-.522a1.068,1.068,0,0,0-.245.332,1.123,1.123,0,0,0-.1.694,4.5,4.5,0,0,1-.324,1.675c-.105.31-.194.53-.194.53S446.961,1568.362,447.876,1568.477Z" transform="translate(-447.012 -1564.622)"/><path class="l" d="M451.314,1565.208a3.37,3.37,0,0,0,1.145.578c.48.063,1.377-1.162,1.377-1.162l-.01,0c-.041,0-.236.061-1.083.776-.438.369-1.185-.522-1.185-.522A1.067,1.067,0,0,0,451.314,1565.208Z" transform="translate(-450.699 -1564.622)"/><path class="l" d="M447.876,1586.194h1.063c.356-.056.619-.159.984-.207a.987.987,0,0,1,.861.207l.01.011h4.517c.114-.162,0-.538-.1-.815-.137-.122-.176.53-.252.634a20.16,20.16,0,0,1-3.894-.114,2.179,2.179,0,0,0-1.705-.208,4.106,4.106,0,0,1-2.153-.407c-.105.31-.194.53-.194.53S446.961,1586.08,447.876,1586.194Z" transform="translate(-447.012 -1582.34)"/></g><path class="h" d="M537.775,1091.343s3.15,1.585,4.2,7.982a5.445,5.445,0,0,1-2.485,1.832,2.908,2.908,0,0,1-.647.111C537.058,1101.363,537.775,1091.343,537.775,1091.343Z" transform="translate(-517.951 -1074.636)"/><path class="c" d="M612.649,1113.323s-.974-1.5-1.212-1.415c-.34.119.883,2.02.883,2.02s-.906-1.421-1.047-1.314c-.322.244.191,1.136.7,1.82,0,0-.911-.834-.94-.684-.1.526,1,1.8,1,1.8l.617-1.409Z" transform="translate(-580.853 -1092.259)"/><path class="c" d="M623.114,1110.907c-.047-.183-.285-3.76-.386-3.421s-.344,2.215-.344,2.215Z" transform="translate(-590.588 -1088.452)"/><path class="m" d="M514.887,1050.851s.087.371,1.01.314c0,0,.774-.048.751-.456A2.491,2.491,0,0,0,514.887,1050.851Z" transform="translate(-498.457 -1039.73)"/></g><path class="c" d="M381.721,1282.216a11.1,11.1,0,0,0-2.109,1.729c-.28.513-.932,2.4-.932,2.4s.466.07.932-.746,2-.746,2.517-1.188a6.934,6.934,0,0,0,1.109-1.74Z" transform="translate(-378.214 -1238.224)"/><path class="c" d="M398.207,1288.2a6.08,6.08,0,0,1-.677,1.851c-.373.419-.885,1.118-1.1.932s.233-1.748.233-1.748Z" transform="translate(-393.383 -1243.355)"/><path class="c" d="M377.074,1295.45c-.047.07-1.654,1.779-1.654,1.779s.583.264.746,0S377.074,1295.45,377.074,1295.45Z" transform="translate(-375.42 -1249.566)"/></g><g transform="translate(317.802 426.63)"><path class="h" d="M1313,678.582l14.908,2.314-9.827-6.877-.531,2.159-3.64.613Z" transform="translate(-1312.998 -670.244)"/><path class="n" d="M1278.625,680.271l-10.312-4.725-3.613.571Z" transform="translate(-1263.717 -669.62)"/><path class="m" d="M1348.54,651.388l9.827,6.877-7.542-10.652Z" transform="translate(-1343.459 -647.614)"/></g><g transform="translate(523.86 470.877)"><path class="g" d="M2766.671,982.668l-12.207,1.741,8.1-5.521.412,1.77,2.969.538Z" transform="translate(-2754.464 -975.78)"/><path class="o" d="M2754.464,984.632l8.594-3.808,2.678.577Z" transform="translate(-2754.464 -976.003)"/><path class="m" d="M2762.565,960.255l-8.1,5.521,6.271-8.629Z" transform="translate(-2754.464 -957.147)"/></g><path class="g" d="M701.058,910.706h74.185v19.486H722.492V950.93H768.98v19.485H722.492v37.719H701.058Z" transform="translate(-470.733 -446.467)"/><path class="g" d="M1202.145,924.21h19.239l40.646,95.518h-21.813l-8.671-21.271h-40.1l-8.671,21.271H1161.5Zm21.949,55.82-12.6-30.755-12.6,30.755Z" transform="translate(-865.354 -458.041)"/><path class="g" d="M1935.951,994.854a51.687,51.687,0,0,1-28.181,8.129c-29.265,0-50.265-21.813-50.265-49.046,0-26.962,21.271-49.046,50.536-49.046s50.265,21.813,50.265,49.046a47.939,47.939,0,0,1-8.4,27.233l9.755,8.265-13.278,14.768Zm-15.445-13.684s9.466-4.871,13.413-13.955a32.618,32.618,0,0,0,2.574-13.278c0-16.258-11.923-29.807-28.723-29.807s-28.452,13.278-28.452,29.807c0,16.258,11.923,29.807,28.723,29.807A30.565,30.565,0,0,0,1920.506,981.17Z" transform="translate(-1461.866 -441.484)"/><g transform="translate(412.034 494.578)"><path class="p" d="M2140.74,1238.053a20.8,20.8,0,0,0-2.511,7.341c-.8,4.357-1.5,5.965-2.653,6.859s-7.581,3.531-7.581,3.531l.48,1.126s9.421-1.283,10.479-2.858,5.092-10.877,4.779-13.019S2140.74,1238.053,2140.74,1238.053Z" transform="translate(-2105.723 -1221.598)"/><g transform="translate(0 59.904)"><path class="c" d="M1981.052,1548.283c-.1.918-1.394.887-2.862.671s-1.087.168-3.15.133-2.752-.739-2.843-1.036c-.081-.264.919-.453,1.99-.679l.405-.087a8.878,8.878,0,0,0,3.078-1.891,13.026,13.026,0,0,0,2.329-3.357l2.821-.04s-1.261,2.369-1.739,3.392a3.4,3.4,0,0,0-.1,1.934A3.6,3.6,0,0,1,1981.052,1548.283Z" transform="translate(-1972.193 -1541.997)"/><path class="q" d="M1978.191,1580.888c-1.467-.217-1.087.168-3.15.133s-2.752-.739-2.843-1.037c-.081-.264.919-.453,1.99-.679l.012.02a5.78,5.78,0,0,0,3.009.636c1.388-.1,2.819-.63,3.777-.7a3.6,3.6,0,0,1,.068.96C1980.956,1581.135,1979.658,1581.1,1978.191,1580.888Z" transform="translate(-1972.193 -1573.931)"/></g><path class="r" d="M2048.615,1360.342s-18.49.09-21.941,2.268-11.308,24.614-11.308,24.614a2.52,2.52,0,0,0,1.372.91,2.849,2.849,0,0,0,1.91-.308s10.529-10.472,11.089-13.332.424-5.412,1.7-5.48,17.181,1.933,19.587-2.3a9.767,9.767,0,0,0,.417-8.434Z" transform="translate(-2009.193 -1324.634)"/><g transform="translate(9.83 59.354)"><path class="c" d="M2049.811,1544.564c-.019.923-1.315,1-2.8.908s-1.069.259-3.128.4-2.8-.506-2.92-.795c-.1-.257.878-.529,1.926-.843.132-.039.264-.08.4-.121a8.873,8.873,0,0,0,2.909-2.141,13.023,13.023,0,0,0,2.04-3.54l2.808-.276s-1.059,2.466-1.449,3.526a3.4,3.4,0,0,0,.065,1.935A3.613,3.613,0,0,1,2049.811,1544.564Z" transform="translate(-2040.96 -1538.152)"/><path class="q" d="M2047.015,1578.215c-1.48-.093-1.069.259-3.128.4s-2.8-.506-2.92-.795c-.1-.257.878-.529,1.926-.843l.014.019a5.782,5.782,0,0,0,3.052.382c1.375-.212,2.756-.863,3.7-1.017a3.61,3.61,0,0,1,.148.951C2049.792,1578.229,2048.5,1578.308,2047.015,1578.215Z" transform="translate(-2040.96 -1570.895)"/></g><path class="h" d="M2106.78,1380.682s-16.286.771-19.649,3.082-8.088,21.772-8.088,21.772a2.869,2.869,0,0,0,3.586,1.153s6.539-7.878,6.987-10.758,1.151-4.36,2.423-4.479,13.771,2.323,19.483-3.065C2115.066,1385.042,2106.78,1380.682,2106.78,1380.682Z" transform="translate(-2063.768 -1343.838)"/><path class="s" d="M2221.7,1138.094a9.891,9.891,0,0,1-.967-3.355,10.48,10.48,0,0,0,1.467,3.682c3.772,2.132,9.731,10.138,9.694,11.649,0,0,3.66-4.847,3.7-4.875,0,0,4.12-6.023-1.434-8.946-2.822-1.485-2.951-3.625-2.961-5.49s-1.4-9.805-6.688-7.35a3.541,3.541,0,0,0-1.284-.245,1.069,1.069,0,0,1,.5.2,4.228,4.228,0,0,0-2.252.588C2219.56,1125.213,2218.455,1135.482,2221.7,1138.094Z" transform="translate(-2184.266 -1122.943)"/><path class="c" d="M2238.626,1218.6a18.364,18.364,0,0,0-3.033,0,9.753,9.753,0,0,0-2.632.661c-1.436.6-1.285,3.141,1.727,2.671S2238.837,1219.355,2238.626,1218.6Z" transform="translate(-2194.93 -1204.872)"/><path class="c" d="M2238.48,1198.092c-.018.01-.43,2.186,1.542,2.1,1.294-.057,4.086-1.624,3.84-2.732a13.706,13.706,0,0,1-1.292-5.014l-.236.063-3.962,1.063s.176,1.258.258,2.448C2238.7,1197.018,2238.7,1197.97,2238.48,1198.092Z" transform="translate(-2200.322 -1182.51)"/><path class="p" d="M2238.372,1193.949s.176,1.258.258,2.448c2.243-.213,3.294-2.342,3.7-3.511Z" transform="translate(-2200.322 -1182.888)"/><path class="s" d="M2225.19,1141.044a11.833,11.833,0,0,0,1.23-3.549c.126-1.149-.733-5.321-4.923-4.433a5.761,5.761,0,0,0-2.324,1.06c-.877.682-2.113,2.109-.386,5.685l.468,1.215Z" transform="translate(-2182.792 -1131.51)"/><path class="c" d="M2220.552,1153.846s5.322-.267,5.1-3.579.323-5.577-3.084-5.547-3.984,1.337-4.18,2.46S2219.162,1153.83,2220.552,1153.846Z" transform="translate(-2183.177 -1141.608)"/><path class="s" d="M2230.813,1140.688s1.715,3.788,3.987,4.214,3.2-.238,3.2-.238a6.34,6.34,0,0,1-2.319-3.6S2231.788,1138.766,2230.813,1140.688Z" transform="translate(-2193.843 -1137.495)"/><path class="s" d="M2218.076,1143.889a4.7,4.7,0,0,0-1.238,1.8c-.209.861-.212,2.6-.722,2.58,0,0-1.273-2.568-.14-4.144C2217.178,1142.454,2218.076,1143.889,2218.076,1143.889Z" transform="translate(-2180.725 -1140.404)"/><path class="g" d="M2195.782,1241.243c.431.515,1.775.673,3.213.909a9.662,9.662,0,0,1,3.164.917c1.918,1.126,8.186,4.933,10.024,4.76.712-.067.579-1.427.147-3.231-.679-2.849-2.1-6.806-2.1-8.526a49.91,49.91,0,0,0-.73-5.7c-.034-.2-.068-.411-.1-.62-.825-4.939-1.968-10.763-1.968-10.763s-1.275,2.781-3.759,2.781-1.907-2.121-1.907-2.121-2.266.267-2.8.843a22.2,22.2,0,0,0-2.163,3.75s-.055.865,2.087,1.277a28.108,28.108,0,0,0-.583,3.914c-.046,1.156.789,4.776,1.029,7.027a4.157,4.157,0,0,1-.033,1.707,3.316,3.316,0,0,1-1.312,1.081C2196.776,1239.952,2195.271,1240.631,2195.782,1241.243Z" transform="translate(-2163.732 -1205.258)"/><path class="o" d="M2210.417,1294.764c-1.375,2.344,3.729,3.049,4.573,3.545,1.918,1.126,7.785,5.21,9.623,5.037.712-.067.579-1.427.147-3.231-.679-2.849-2.1-6.806-2.1-8.527a49.9,49.9,0,0,0-.73-5.7l-2.211-2.123s-2.369,6.124-4.628,7.128a19.016,19.016,0,0,1-3.329,1.083,4.155,4.155,0,0,1-.033,1.707A3.313,3.313,0,0,1,2210.417,1294.764Z" transform="translate(-2176.162 -1260.774)"/><path class="c" d="M2210.737,1230s1.891-1.148,3.719,1.03-1.3,17.749-4.008,18.549c-3.009.889-11.7-.142-11.7-.142l.168-1.359s9.253-1.774,9.637-2.269S2209.775,1230.249,2210.737,1230Z" transform="translate(-2166.361 -1214.435)"/><path class="o" d="M2271.445,1218.984s3.883.35,5.011,1.628,1.457,4.738,1.457,4.738a9.318,9.318,0,0,1-7.54,1.689Z" transform="translate(-2227.748 -1205.255)"/><path class="c" d="M2172.777,1354.949a20.141,20.141,0,0,0-3.353-.437c-.34.146-2.235,1.846-2.041,2.187a1.663,1.663,0,0,0,1.847.292c.875-.292,2.77-.437,3.11-.875A2.86,2.86,0,0,0,2172.777,1354.949Z" transform="translate(-2139.469 -1321.389)"/><g transform="translate(16.879 29.886)"><rect class="t" width="5.129" height="0.606" transform="translate(19.133 7.608) rotate(180)"/><path class="t" d="M2105.364,1339.534c-.05-.2-4.715-7.525-4.715-7.525H2090.27l5.206,7.328Z" transform="translate(-2090.27 -1332.009)"/><path class="u" d="M2104.927,1339.617c-.05-.2-4.73-7.608-4.73-7.608h-9.927l4.953,7.608Z" transform="translate(-2090.27 -1332.009)"/><path class="t" d="M2131.4,1355.57a.829.829,0,0,0,.722.537.37.37,0,0,0,.353-.537.829.829,0,0,0-.723-.537A.37.37,0,0,0,2131.4,1355.57Z" transform="translate(-2125.49 -1351.742)"/></g></g><g transform="translate(494.542 469.913)"><path class="v" d="M2695.26,1207.019a14.026,14.026,0,0,0,3.169,1.408c.693,0,3.414-.526,4.173-.138a8.875,8.875,0,0,1,2.389,2.457c.463.916-1.865.511-2.965-.269a.7.7,0,0,0-.55-.114,5.454,5.454,0,0,1-2.326.128,41.285,41.285,0,0,0-4.818-.6Z" transform="translate(-2673.61 -1170.335)"/><path class="h" d="M2569.023,1057.59s2.567,18.245,6.818,19.879a93.689,93.689,0,0,0,14.109,2.818s.672-.545.508-2.763c0,0-9.711-3.565-11.091-5.5-2.053-2.886,1.275-11.789-1.3-14.5S2571.148,1053.645,2569.023,1057.59Z" transform="translate(-2566.214 -1040.084)"/><path class="o" d="M2555.425,1277.528a31.955,31.955,0,0,0,2.508,3.588c2.759,3.483,5.762,6.355,6.286,9.07a12.294,12.294,0,0,0,.485,1.737c.219.622.489,1.276.8,1.952a60.114,60.114,0,0,0,4.67,7.983c3.022,4.478,5.864,8.214,5.864,8.214l5.211-.222c-.209-.522-2.482-6.705-5.522-14.261-1.235-3.067-2.548-6.33-3.814-9.476q-.253-.63-.5-1.253c-.387-.963-.769-1.911-1.141-2.834-2.855-7.095-5.129-12.744-5.129-12.744s-11.411-4.323-12.6-1.522C2551.564,1270.069,2552.36,1272.332,2555.425,1277.528Z" transform="translate(-2551.751 -1221.583)"/><path class="w" d="M2720.4,1554.493s.267,4.3,1.1,4.362c.111.008,4.219.008,4.219.008l5.246-.03a1.7,1.7,0,0,0-1.567-1.531c-1.534-.267-4.1-1.345-5.029-3.371C2723.395,1551.8,2720.4,1554.493,2720.4,1554.493Z" transform="translate(-2695.955 -1466.952)"/><path class="w" d="M2568.956,1468.177s-3.894,1.843-3.643,2.639c.033.106,1.558,3.921,1.558,3.921l1.975,4.86a1.7,1.7,0,0,0,.84-2.024c-.321-1.523-.272-4.306,1.265-5.92C2572.568,1469.954,2568.956,1468.177,2568.956,1468.177Z" transform="translate(-2563.024 -1394.16)"/><path class="g" d="M2558.941,1303.143s-2.187-2.212-2.587-3.677c0,0,7.524-7.312,10.213-9.088,3.087-2.038,5.092-2.049,4.6-2.548-1.623-1.635-15.26-6.406-17.479-9.86a10.709,10.709,0,0,1-1.434-3.307,7.816,7.816,0,0,1-.105-3.563l16.962-.491s12.612,13.082,12.54,18.005C2581.567,1293.937,2558.941,1303.143,2558.941,1303.143Z" transform="translate(-2551.62 -1224.835)"/><path class="c" d="M2584.551,1017.352c-3.432.887-9.12-2.292-9.12-2.292a8.421,8.421,0,0,0,3.027-4.746c.042-.164.078-.333.112-.506l1.762-.374,2.621,2.348a22.6,22.6,0,0,1-.388,2.651q-.085.439-.2.94A8.08,8.08,0,0,1,2584.551,1017.352Z" transform="translate(-2571.706 -1000.996)"/><path class="h" d="M2549.464,1057.154c.491,6.611-.155,16.665.4,18.406.481,1.5,5.964.609,8.153.108.81-.186,1.791-.451,2.8-.764,2.827-.875,5.906-2.125,6.237-3.053a.7.7,0,0,0,.031-.107.853.853,0,0,0-.006-.389,6.61,6.61,0,0,1-.585-2.156c-.056-1.307-.048-2.847-.1-4.5,0-.187-.005-.39-.026-.575v-.068c0-.036,0-.07,0-.106-.048-1.846-.144-3.787-.256-5.712-.071-1.209-.153-2.406-.248-3.554a47.523,47.523,0,0,0-1.018-7.26,11.659,11.659,0,0,0-3.745-5.781l-1.043-.895a6.03,6.03,0,0,1-3.785-.5c-1.347-.64-1.812-1.1-2.047-.925C2551.121,1041.717,2548.883,1049.072,2549.464,1057.154Z" transform="translate(-2549.372 -1026.574)"/><path class="r" d="M2581.259,1135.511c2.826-.875,5.906-2.125,6.237-3.053a.766.766,0,0,0,.031-.107c0-.129,0-.259-.006-.389a6.625,6.625,0,0,1-.585-2.156c-.056-1.307-.047-2.847-.1-4.5,0-.186,0-.39-.025-.575v-.068l0-.106L2575.383,1110S2567.7,1125.993,2581.259,1135.511Z" transform="translate(-2569.807 -1087.183)"/><path class="v" d="M2601.1,1011.783a22.559,22.559,0,0,1-.388,2.651,6.953,6.953,0,0,1-4.108-4.12c.042-.164.079-.333.113-.506l1.762-.374Z" transform="translate(-2589.855 -1000.996)"/><path class="c" d="M2600.5,976.692s-5.582-.931-4.948-4.4.34-5.922,3.931-5.474,4.039,1.9,4.109,3.106S2601.967,976.845,2600.5,976.692Z" transform="translate(-2588.907 -964.427)"/><g transform="translate(19.837 29.041)"><rect class="x" width="0.518" height="13.552" transform="translate(14.217 13.048) rotate(-161.996)"/><rect class="x" width="14.221" height="0.851" transform="translate(14.217 13.048) rotate(-178.777)"/></g><path class="c" d="M2690.132,1231.95s4.568,1.2,6.281,1.078a5.011,5.011,0,0,0,3.354-1.366c.216-.425.668-1.18-.5-1.041s-2.759.387-2.808.163.951-.2.951-.2.3-.439-.078-.456-1.491-.317-1.9-.111-.793.968-1.094.936-3.823-1.586-3.823-1.586Z" transform="translate(-2670.01 -1189.486)"/><path class="h" d="M2576.948,1065.361s.54,18.417,4.585,20.51a93.708,93.708,0,0,0,13.712,4.356s.728-.468.81-2.69c0,0-9.259-4.615-10.417-6.694-1.723-3.094,2.566-11.577.3-14.554S2579.5,1061.674,2576.948,1065.361Z" transform="translate(-2573.005 -1047.106)"/><path class="y" d="M2589.554,959.717a2.641,2.641,0,0,1,.67-1.871s-.255-1.193.216-1.389.57.806.786.649a4.817,4.817,0,0,0,1.592-2.005c.413-1.1,4.191.232,4.632.431s1.856-.529,2.131-1.119a8.3,8.3,0,0,1-1.14-1.1c-.354-.472-2.831-3.656-6.291-2.752s-3.932,2.556-3.735,3.971S2588.137,959.242,2589.554,959.717Z" transform="translate(-2582.802 -950.398)"/></g><g transform="translate(346.393 471.638)"><g transform="translate(0 0)"><path class="c" d="M1824.157,1089.737a4.683,4.683,0,0,1-1.728,2.5,2.675,2.675,0,0,0-1.109.806l-.632-.367-.755-.439s.018-.084.055-.22.093-.326.17-.535a.73.73,0,0,0,.09-.672,1.561,1.561,0,0,1,.129-1.3c.242-.352.476-1.219.622-1.193.353.061-.174,1.253-.022,1.474a.261.261,0,0,0,.339.116l.006,0c.99-.436,2.192-2.784,2.724-2.467A4.752,4.752,0,0,1,1824.157,1089.737Z" transform="translate(-1776.057 -1069.544)"/><g transform="translate(44.591 16.738)"><path class="z" d="M1825.018,1084.432l1.241.872a.2.2,0,0,0,.271-.047l3.179-4.523a.2.2,0,0,0-.047-.271l-1.241-.872a.2.2,0,0,0-.271.047l-3.179,4.523A.2.2,0,0,0,1825.018,1084.432Z" transform="translate(-1824.935 -1079.555)"/><path class="d" d="M1833.084,1090.068l.727.511a.149.149,0,0,0,.207-.036l3.232-4.6a.148.148,0,0,0-.036-.206l-.728-.511a.149.149,0,0,0-.207.036l-3.232,4.6A.149.149,0,0,0,1833.084,1090.068Z" transform="translate(-1831.865 -1084.392)"/></g><path class="a" d="M1680.38,1068.27s6.314,11.013,8.6,13.039l8.4-6.262a3.065,3.065,0,0,1,1.752,1.6s-5.1,10.392-10.122,10.832-12.07-12.455-12.07-12.455Z" transform="translate(-1653.509 -1053.146)"/><g transform="translate(6.119 40.574)"><path class="d" d="M1562.273,1547.87h-3.648a2.212,2.212,0,0,1-1-1.672c-.178-1.175-1.5-1.816-1.781-2.778s1.176-2.314,1.176-2.314l.244-.315.254-.327,2.422.57s.06.577.1,1.311a16.783,16.783,0,0,1,.01,1.68c-.071,1.282.358,2.662,1.5,2.912C1562.388,1547.122,1562.351,1547.622,1562.273,1547.87Z" transform="translate(-1555.81 -1498.415)"/><path class="d" d="M1697.5,1566.685h-8.344c-.4-.49-.253-2.3-.193-2.887.012-.119.021-.188.021-.188s2.849-2.279,3.241-.534c.012.055.026.108.042.161.493,1.632,2.7,2.374,3.982,2.58A1.447,1.447,0,0,1,1697.5,1566.685Z" transform="translate(-1669.863 -1517.23)"/><path class="aa" d="M1665.549,1262s-.433,5.4-.941,11.886c-.691,8.813-1.522,19.64-1.6,21.69-.142,3.562-.713,9.258-.713,9.258a4.478,4.478,0,0,1-4.059.783,93.2,93.2,0,0,1-3.1-16.736c-.011-.141-.021-.283-.032-.425-.641-8.759-1.637-27.2-1.637-27.2Z" transform="translate(-1639.502 -1259.112)"/><path class="ab" d="M1665.549,1262s-.433,5.4-.941,11.886l-9.477,15c-.011-.141-.021-.283-.032-.425-.641-8.759-1.637-27.2-1.637-27.2Z" transform="translate(-1639.502 -1259.112)"/><path class="aa" d="M1587.148,1249.829s-7.8,19.547-12.925,28.734-6.729,11.75-6.729,11.75-2.937-1.175-3.2-1.976c0,0,1.961-17.735,5.394-22.058,1.94-2.443,4.219-9.774,4.326-12.338s.694-7.637.694-7.637Z" transform="translate(-1563.077 -1246.304)"/></g><path class="c" d="M1660.74,1022.9c-3.047.962-8.319-1.634-8.319-1.634a7.934,7.934,0,0,0,2.662-6.493l2.356,1.9,1.6,1.29a19.2,19.2,0,0,1-.182,2.093c-.046.35-.1.741-.176,1.168A7.3,7.3,0,0,1,1660.74,1022.9Z" transform="translate(-1632.491 -1007.295)"/><path class="ac" d="M1674.941,1029.07a19.163,19.163,0,0,1-.182,2.093c-1.773-.3-3.785-3.17-3.785-3.17a5.651,5.651,0,0,1,2.366-.212Z" transform="translate(-1648.393 -1018.405)"/><path class="c" d="M1669.146,986.648s-5.033.836-5.505-2.306-1.441-5.151,1.753-5.818,4,.438,4.412,1.449S1670.443,986.35,1669.146,986.648Z" transform="translate(-1641.666 -976.055)"/><path class="a" d="M1648.337,1082.859a.492.492,0,0,1-.32.122c-1.144-.016-4.481.62-7.3.33a21.04,21.04,0,0,1-6.749-1.948c-.3-.135-.992-.5-.976-.84.01-.368.047-.9.093-1.573a84.218,84.218,0,0,0,.167-10.985c-.049-.863-.075-1.719-.078-2.561-.023-6.28,1.222-11.8,3.724-13.674.214-.153,1.526.488,2.732,1.083a4.991,4.991,0,0,0,3.28.4l1.052.93a10.518,10.518,0,0,1,3.3,5.264,59.256,59.256,0,0,1,.992,9.766c.076,1.77.138,3.556.153,5.25v.061c.015.168.015.351.015.519C1648.474,1079.35,1648.413,1082.8,1648.337,1082.859Z" transform="translate(-1615.834 -1038.951)"/><path class="a" d="M1633.635,1134.913a84.184,84.184,0,0,0,.167-10.985c-.049-.863-.075-1.719-.078-2.561,1.042-2.529,1.894-4.363,1.894-4.363h2.627S1640.173,1130.161,1633.635,1134.913Z" transform="translate(-1616.391 -1094.913)"/><g transform="translate(0 43.27)"><path class="n" d="M1525.691,1285.531l11.206,1.6a2.686,2.686,0,0,0,3.03-2.274l.692-4.856a2.686,2.686,0,0,0-2.274-3.03l-11.206-1.6a2.686,2.686,0,0,0-3.03,2.274l-.692,4.856A2.686,2.686,0,0,0,1525.691,1285.531Z" transform="translate(-1521.906 -1273.889)"/><path class="h" d="M1530.075,1269.686h0a2.7,2.7,0,0,0-1.856-1.621h0c-.084-.02-.17-.038-.259-.05l-2.231-.318.149-1.048a.888.888,0,0,0-.753-1l-.582-.083-2.343-.334-.422-.06a.888.888,0,0,0-1,.753l-.149,1.048-3.852-.549a2.7,2.7,0,0,0-3.041,2.282l-.7,4.913a2.7,2.7,0,0,0,2.282,3.041l11.185,1.594a2.629,2.629,0,0,0,.583.019h0a2.658,2.658,0,0,0,.873-.22,2.694,2.694,0,0,0,1.583-2.081l.7-4.912A2.665,2.665,0,0,0,1530.075,1269.686Zm-8.753-3.687a.334.334,0,0,1,.375-.281l.5.071,1.844.263,1.005.143a.332.332,0,0,1,.281.374l-.149,1.048-4-.571Z" transform="translate(-1513.004 -1265.159)"/></g><path class="c" d="M1578.7,1240.859a3.894,3.894,0,0,0-.612,1.1c-.158,2.123.812,2.417-1.7,3.6,0,0-1.072.409-1.09-.423s.744-.846.6-2.011c-.161-1.344-.145-1.357.738-2.059l.584-.965Z" transform="translate(-1566.389 -1200.406)"/><path class="a" d="M1580.827,1082.646a8.619,8.619,0,0,0,1.972.11s2.809-8.677,3.171-9.47,8.343-10.174,8.343-10.174l-3.325-8.321s-8.633,14.421-9.51,16.447c-1.448,3.348-1.951,10.856-1.951,10.856A3.618,3.618,0,0,0,1580.827,1082.646Z" transform="translate(-1570.017 -1041.593)"/><path class="z" d="M1659.355,970.452s.517-.086.433-.8-.082-1.641.5-1.468.607.636.845.366.242-1.41,1.963-1.489,2.421.52,3.221.168.843-1.563.843-1.563a1.377,1.377,0,0,1-.571.57s1.335-1.826-.211-3.079-3.122-.432-4.017-.378c-1.971.119-3.244.238-3.888,1.533S1658.09,969.205,1659.355,970.452Z" transform="translate(-1637.385 -962.468)"/><path class="c" d="M1592.3,1251.981s.567.591.6.837c.115.789.378,1.13.246,1.215-.274.178-.638-.406-.811-.93A2.4,2.4,0,0,1,1592.3,1251.981Z" transform="translate(-1580.918 -1210.595)"/></g></g><rect class="ad" width="407.095" height="1.144" rx="0.572" transform="translate(163.443 561.574)"/><g transform="translate(235.253 416.756)"><path class="d" d="M928.33,875.1a14.5,14.5,0,0,0,3.893,4.671h9.228S927.051,872.728,928.33,875.1Z" transform="translate(-900.7 -832.289)"/><g transform="translate(0 0)"><path class="c" d="M928.9,998.615a.853.853,0,0,1,.127.915.008.008,0,0,1,0,0,5.662,5.662,0,0,1-1.842,1.913c-.11.084-.208.161-.293.231l-.066.056-.051.043c-.806.7-.515.877-1.967,2.309-1.656,1.631-2.765,1.631-3.076,1.47-.263-.137.3-1.011.931-1.994l.092-.143c.084-.13.167-.263.25-.394.737-1.182.571-1.751.453-3.545-.1-1.457-2.04-8.182-2.04-8.182l3.1-.447s.785,5.334,1.786,6.179c.536.451,1.148.473,1.666.81.037.023.072.047.108.072A4.057,4.057,0,0,1,928.9,998.615Z" transform="translate(-894.839 -931.913)"/><path class="d" d="M930.386,1040.521a.852.852,0,0,1,.127.915.007.007,0,0,1,0,0,6.56,6.56,0,0,1-1.844,1.906c-.109.085-.205.164-.291.238l-.066.056-.051.044c-.806.7-.515.877-1.967,2.309-1.656,1.631-2.765,1.631-3.076,1.47-.263-.137.3-1.011.931-1.993a6.86,6.86,0,0,0,2.928-2.037c1-1.21,1.693-2.783,2.378-3.685.037.024.073.047.108.072A4.057,4.057,0,0,1,930.386,1040.521Z" transform="translate(-896.33 -973.818)"/><path class="c" d="M744.76,986.986c-.216.947-1.57.751-3.076.339s-1.158.039-3.31-.259-2.784-1.121-2.841-1.443c-.051-.286,1.018-.358,2.166-.458l.434-.04c1.3-.127,2.265-.935,3.457-1.587,1.129-.618,2.859-3.215,2.859-3.215l2.954.315s-1.618,2.317-2.247,3.327a3.578,3.578,0,0,0-.345,2.009A3.8,3.8,0,0,1,744.76,986.986Z" transform="translate(-735.531 -922.889)"/><path class="d" d="M741.684,1016.355c-1.507-.412-1.158.039-3.31-.259s-2.784-1.12-2.841-1.443c-.051-.286,1.018-.358,2.166-.458l.01.022a6.086,6.086,0,0,0,3.065,1.045c1.464.076,3.026-.3,4.037-.258a3.8,3.8,0,0,1-.051,1.012C744.544,1016.963,743.191,1016.767,741.684,1016.355Z" transform="translate(-735.531 -951.918)"/><path class="ae" d="M883.067,868.884l2.565,7.522,3.348,9.822a5.858,5.858,0,0,0,1.924-.123,8.32,8.32,0,0,0,1.881-.853s-.719-10.468-2.427-16.512a10.677,10.677,0,0,0-1.515-3.527C886.035,861.706,883.067,868.884,883.067,868.884Z" transform="translate(-861.977 -823.406)"/><path class="aa" d="M802.685,809.567c1.829-.535,6.979.357,12.146,1.515l1.136-1.764,11.244-.571s3.479,8.311,1.309,13.487a1.749,1.749,0,0,1-1.891,1.088h-.2s-6.68.059-8.849,0c-5.58-.152-11.708-4.268-12.509-4.451-1.312-.3-1.911,2.324-3.306,5.058s-12.732,11.928-12.732,11.928a9.75,9.75,0,0,1-2.4-.312,2.369,2.369,0,0,1-1.015-.68S798.56,810.775,802.685,809.567Z" transform="translate(-778.459 -775.839)"/><path class="af" d="M984.657,596.572c3.935,2.309,11.916,7.09,11.959,7.062,0,0,2.948,1.2,4.669.128,2.868-1.794,4.516-6.788-.518-11.261-2.51-2.231-4.321-2.807-4.5-6.265-.1-1.876-2.49-8.124-6.757-7.668a6.5,6.5,0,0,1-1.074.041,3.98,3.98,0,0,0-2.172.5C983.814,580.474,978.69,595.557,984.657,596.572Z" transform="translate(-946.661 -578.544)"/><path class="c" d="M1022.831,655.155a5.285,5.285,0,0,0,3.289.191,5.87,5.87,0,0,0,2.245-2.546c-.567-.042-1.176-.555-1.568-3.824l-.244.08-4.1,1.351s.259,1.312.415,2.558C1023,654.013,1023.057,655.013,1022.831,655.155Z" transform="translate(-981.436 -638.908)"/><path class="ac" d="M1022.451,650.888s.259,1.312.415,2.558c2.345-.357,3.325-2.657,3.688-3.91Z" transform="translate(-981.436 -639.388)"/><path class="c" d="M1001.941,609.6s5.58-.595,5.156-4.064.011-5.882-3.57-5.649-4.11,1.641-4.25,2.834S1000.478,609.665,1001.941,609.6Z" transform="translate(-961.566 -596.822)"/><path class="af" d="M1001.116,598.886s3.475,3.164,5.889,3.477,3.352-.439,3.352-.439a9.456,9.456,0,0,1-2.2-3.159,1.7,1.7,0,0,0-1.376-1.042C1005.056,597.528,1001.781,597.37,1001.116,598.886Z" transform="translate(-963.151 -594.877)"/><path class="af" d="M999.227,600.893a8.77,8.77,0,0,0-1.62,1.962,6.733,6.733,0,0,0-.28,3.573s-1.757-3.658-.659-5.382A1.483,1.483,0,0,1,999.227,600.893Z" transform="translate(-959.029 -597.097)"/><path class="h" d="M990.373,685.291c-.139,11.258-.2,8.9,1.006,10a4.729,4.729,0,0,0,2.215.544c3.445.323,9.526-.08,9.774-.712.856-2.185.313-2.886,1.069-6.246.079-.357.175-.744.287-1.165.617-2.305,1.177-3.08-.686-6.861-1.689-3.425-3.465-6.216-3.634-6.122-4.776,2.662-5.091.307-5.091.307S990.44,679.8,990.373,685.291Z" transform="translate(-953.882 -660.982)"/><path class="aa" d="M901.007,903.34l3.348,9.822a5.86,5.86,0,0,0,1.924-.123,8.327,8.327,0,0,0,1.881-.853s-.719-10.468-2.427-16.512Z" transform="translate(-877.352 -850.34)"/><path class="h" d="M966.7,676.888s-4.859.688-5.483,2.755-4.3,14.217-4.3,14.217,2.447.509,3.613-.6,4.239-10.43,4.239-10.43Z" transform="translate(-925.272 -662.83)"/><path class="ag" d="M1013.331,752.3c3.444.323,9.526-.08,9.774-.712.856-2.185.313-2.886,1.069-6.246l-1.537-4.732s.133,5.227-1.443,6.557-6.374,2.478-7.153,3.6A4.2,4.2,0,0,0,1013.331,752.3Z" transform="translate(-973.62 -717.447)"/><path class="c" d="M1005.042,804.054s-3.384-.851-3.941-.564a8,8,0,0,0-2.109,1.729c-.178.378,1.231-.257,1.687-.366a4.032,4.032,0,0,1,1.437.356,4.808,4.808,0,0,0,2.584.331Z" transform="translate(-961.317 -771.284)"/><path class="h" d="M1040.755,674.731s4.564.406,6.086,2.656c2.143,3.168,6.2,16.529,3.621,18.226-2.906,1.911-12.995.167-12.995.167a4.115,4.115,0,0,1,.2-2.334c.49-.749,8.144-1.773,8.505-2.115s-4.21-6.978-4.181-8.034S1040.755,674.731,1040.755,674.731Z" transform="translate(-994.23 -660.981)"/><path class="c" d="M1004.334,810.443a6.587,6.587,0,0,1-.975,1,.7.7,0,0,1-.387.072l.5-.852Z" transform="translate(-964.741 -777.293)"/><path class="c" d="M1001.237,803.846l-2.1.951a.37.37,0,0,0,.34.142,4.951,4.951,0,0,0,.906-.223Z" transform="translate(-961.453 -771.639)"/></g><g transform="translate(17.573 22.71)"><path class="g" d="M879.468,750.265l-16.406-.447-4.6-12.407,16.38.446Z" transform="translate(-858.462 -737.411)"/><path class="g" d="M889.393,820.82l21.664.59-.013.478-21.471-.585Z" transform="translate(-884.971 -808.897)"/><path class="ah" d="M920.63,777.472a.569.569,0,0,1,.578-.766,1.12,1.12,0,0,1,.984.808.569.569,0,0,1-.578.766A1.12,1.12,0,0,1,920.63,777.472Z" transform="translate(-911.721 -771.089)"/></g></g></g></svg>