<svg xmlns="http://www.w3.org/2000/svg" width="24" height="24" viewBox="0 0 24 24"><defs><style>.a,.b{fill:#fff;}.a{opacity:0;}.c{fill:#f6b333;}</style></defs><g transform="translate(-508 -570)"><g transform="translate(500 -136)"><rect class="a" width="24" height="24" transform="translate(8 706)"/><path class="b" d="M21,0H3A3,3,0,0,0,0,3V16.5a3,3,0,0,0,3,3H4.5v3.75a.749.749,0,0,0,.432.679A.761.761,0,0,0,5.25,24a.75.75,0,0,0,.48-.174L10.922,19.5H21a3,3,0,0,0,3-3V3A3,3,0,0,0,21,0Z" transform="translate(8 706)"/></g><path class="c" d="M15.065,6.226l-3.6-.547L9.86,2.264a.462.462,0,0,0-.205-.215.446.446,0,0,0-.608.215L7.438,5.678l-3.6.547a.446.446,0,0,0-.259.138.492.492,0,0,0,.009.672l2.6,2.657-.615,3.752A.5.5,0,0,0,5.6,13.7a.472.472,0,0,0,.153.205A.44.44,0,0,0,5.992,14a.436.436,0,0,0,.244-.054l3.218-1.771,3.218,1.771a.432.432,0,0,0,.288.047.472.472,0,0,0,.37-.547l-.615-3.752,2.6-2.657a.482.482,0,0,0,.132-.271A.47.47,0,0,0,15.065,6.226Z" transform="translate(510.547 571)"/></g></svg>