<svg xmlns="http://www.w3.org/2000/svg" width="16" height="16" viewBox="0 0 16 16"><defs><style>.a{fill:#8b8b8b;opacity:0;}.b{fill:#2a5798;}.c{fill:#fff;}</style></defs><g transform="translate(-508 -570)"><g transform="translate(508 570)"><rect class="a" width="15.674" height="15.674" transform="translate(0)"/><g transform="translate(0)"><path class="b" d="M14,0H2A2,2,0,0,0,0,2v9a2,2,0,0,0,2,2H3v2.5a.5.5,0,0,0,.288.453A.507.507,0,0,0,3.5,16a.5.5,0,0,0,.32-.116L7.281,13H14a2,2,0,0,0,2-2V2A2,2,0,0,0,14,0Z"/></g></g><path class="c" d="M11.075,4.86,8.714,4.49,7.659,2.179a.309.309,0,0,0-.135-.146.289.289,0,0,0-.4.146L6.069,4.49,3.708,4.86a.29.29,0,0,0-.17.093.34.34,0,0,0,.006.455l1.708,1.8-.4,2.54a.345.345,0,0,0,.017.175.319.319,0,0,0,.1.139.284.284,0,0,0,.153.06.279.279,0,0,0,.16-.036l2.112-1.2,2.112,1.2a.276.276,0,0,0,.189.032.319.319,0,0,0,.243-.371l-.4-2.54,1.708-1.8a.331.331,0,0,0,.086-.184A.317.317,0,0,0,11.075,4.86Z" transform="translate(508.608 570.031)"/></g></svg>