<svg xmlns="http://www.w3.org/2000/svg" width="24" height="24" viewBox="0 0 24 24"><defs><style>.a{fill:rgba(196,196,196,0);}.b{fill:#1c1b1b;}</style></defs><g transform="translate(0 -0.355)"><rect class="a" width="24" height="24" transform="translate(0 0.355)"/><g transform="translate(1.801 3.607)"><path class="b" d="M0,3.444A3.444,3.444,0,1,1,3.444,6.888,3.444,3.444,0,0,1,0,3.444ZM12.054,5.165a1.722,1.722,0,1,1,0-3.444h6.888a1.722,1.722,0,0,1,0,3.444Z"/><path class="b" d="M13.776,3.444A3.444,3.444,0,1,1,17.22,6.888,3.444,3.444,0,0,1,13.776,3.444ZM1.723,5.165a1.722,1.722,0,1,1,0-3.444H8.61a1.722,1.722,0,0,1,0,3.444Z" transform="translate(0 10.332)"/></g></g></svg>