<svg xmlns="http://www.w3.org/2000/svg" width="28.413" height="29.908" viewBox="0 0 28.413 29.908"><defs><style>.a{fill:#f6b333;}</style></defs><path class="a" d="M417.393,363.884a4.322,4.322,0,0,1-1.711,2.163,7.346,7.346,0,0,1-4.1,1.592,24.557,24.557,0,0,1-5.031-.212,25.523,25.523,0,0,0-4.785-.223,7.539,7.539,0,0,0-5.212,2.477,1.379,1.379,0,0,1-.113.1c-.127-.492-.25-.963-.369-1.434q-1.71-6.764-3.419-13.528a.5.5,0,0,0-.035-.114c-.213-.395-.064-.646.221-.929a7.417,7.417,0,0,1,4.193-2.116,18.109,18.109,0,0,1,4.647.03,34.244,34.244,0,0,0,5.63.339,7.681,7.681,0,0,0,5.962-3.221.161.161,0,0,0,.014-.055h.274a2.379,2.379,0,0,1,.091.519c-.014.321-.067.64-.108.959a79.329,79.329,0,0,1-1.56,8.612.735.735,0,0,0,.223.772,23.278,23.278,0,0,0,4.856,3.7c.137.078.226.261.337.4Z" transform="translate(-388.981 -348.75)"/><path class="a" d="M356.014,439.6a1.466,1.466,0,0,1-.79-1.065q-3.173-11.41-6.366-22.815a2.8,2.8,0,0,0-.108-.274V414.9c.027-.064.056-.127.082-.191a1.344,1.344,0,0,1,1.367-.848,1.25,1.25,0,0,1,1.157.949q.88,3.109,1.746,6.222,2.349,8.406,4.695,16.812a3.2,3.2,0,0,1,.1.41,1.021,1.021,0,0,1-.714,1.153l-.563.191Z" transform="translate(-348.75 -409.687)"/></svg>