<svg xmlns="http://www.w3.org/2000/svg" xmlns:xlink="http://www.w3.org/1999/xlink" width="199" height="178" viewBox="0 0 199 178">
  <defs>
    <clipPath id="clip-path">
      <rect id="Rectangle_2163" data-name="Rectangle 2163" width="199" height="178" fill="#fff"/>
    </clipPath>
  </defs>
  <g id="Fresher" clip-path="url(#clip-path)">
    <path id="Path_4065" data-name="Path 4065" d="M199,156.633H0v.118H199Z" fill="#ebebeb"/>
    <path id="Path_4066" data-name="Path 4066" d="M194.688,164.251H179.025v.118h15.663Z" fill="#ebebeb"/>
    <path id="Path_4067" data-name="Path 4067" d="M138.565,165.533h-4.11v.118h4.11Z" fill="#ebebeb"/>
    <path id="Path_4068" data-name="Path 4068" d="M178.551,159.855h-9.074v.118h9.074Z" fill="#ebebeb"/>
    <path id="Path_4069" data-name="Path 4069" d="M27.163,160.65H6.738v.118H27.163Z" fill="#ebebeb"/>
    <path id="Path_4070" data-name="Path 4070" d="M34.37,160.65H31.377v.118H34.37Z" fill="#ebebeb"/>
    <path id="Path_4071" data-name="Path 4071" d="M88.4,162.647H44.1v.118H88.4Z" fill="#ebebeb"/>
    <path id="Path_4072" data-name="Path 4072" d="M94.017,135.531H2.7a2.7,2.7,0,0,1-2.7-2.7V4.4A2.706,2.706,0,0,1,2.7,1.7H94.017a2.706,2.706,0,0,1,2.7,2.7V132.829a2.7,2.7,0,0,1-2.7,2.7ZM2.7,1.822A2.587,2.587,0,0,0,.118,4.4V132.829A2.587,2.587,0,0,0,2.7,135.413H94.017a2.584,2.584,0,0,0,2.577-2.584V4.4a2.583,2.583,0,0,0-2.577-2.583Z" fill="#ebebeb"/>
    <path id="Path_4073" data-name="Path 4073" d="M196.3,135.531H104.983a2.7,2.7,0,0,1-2.7-2.7V4.4a2.706,2.706,0,0,1,2.7-2.7H196.3A2.705,2.705,0,0,1,199,4.4V132.829a2.7,2.7,0,0,1-2.7,2.7ZM104.983,1.822A2.583,2.583,0,0,0,102.4,4.4V132.829a2.585,2.585,0,0,0,2.578,2.584H196.3a2.586,2.586,0,0,0,2.582-2.584V4.4A2.586,2.586,0,0,0,196.3,1.822Z" fill="#ebebeb"/>
    <path id="Path_4074" data-name="Path 4074" d="M190.41,22.612a11.137,11.137,0,1,0-13.4,8.285A11.143,11.143,0,0,0,190.41,22.612Z" fill="#e0e0e0"/>
    <path id="Path_4075" data-name="Path 4075" d="M188.936,21.574a9.473,9.473,0,1,0-10.867,7.836A9.476,9.476,0,0,0,188.936,21.574Z" fill="#f0f0f0"/>
    <path id="Path_4076" data-name="Path 4076" d="M179.129,13.556v6.624L174.74,17.7" fill="#f0f0f0"/>
    <path id="Path_4077" data-name="Path 4077" d="M179.129,13.556v6.624L174.74,17.7" fill="none" stroke="#e0e0e0" stroke-linecap="round" stroke-linejoin="round" stroke-width="2"/>
    <path id="Path_4078" data-name="Path 4078" d="M43.724,27.31H11.273V86.272h32.45Z" fill="#e6e6e6"/>
    <path id="Path_4079" data-name="Path 4079" d="M41.516,29.642h-27.9V84.053h27.9Z" fill="#f0f0f0"/>
    <path id="Path_4080" data-name="Path 4080" d="M27.381,29.642,13.615,81.224V53.3l6.3-23.657Z" fill="#fafafa"/>
    <path id="Path_4081" data-name="Path 4081" d="M33.533,29.642,19.015,84.053H16.277L30.8,29.642Z" fill="#fafafa"/>
    <path id="Path_4082" data-name="Path 4082" d="M42.7,67.678H12.2v1.893H42.7Z" fill="#e6e6e6"/>
    <path id="Path_4083" data-name="Path 4083" d="M182.563,103.8s.747-4.915-2.838-8.071-3.267-5.03-2.246-5.275,1.972,2.91,3.547,3.785c0,0,.052-4.495-1.551-6.151s-2.441-5.919-.918-5.995,1.684,2.531,2,4.381a15.459,15.459,0,0,0,2.014,4.452s.331-4.022,1.367-5.678-1.726-5.441-.662-7.1,2.956,1.5,2.8,5.048-2.521,7.334-1.972,11.038c0,0,1.045-2.6,1.981-2.839s1.892-1.959,2.511-2.593,1.419,1.571,0,3.619-5.041,7.532-4.492,11.971Z" fill="#e6e6e6"/>
    <path id="Path_4084" data-name="Path 4084" d="M180.419,101.56l-1.191,7.376a3.751,3.751,0,0,0,3.7,4.338h1.253a3.748,3.748,0,0,0,3.7-4.338l-1.173-7.376Z" fill="#e6e6e6"/>
    <path id="Path_4085" data-name="Path 4085" d="M185.3,114.121h-2.734v42.952H185.3Z" fill="#e0e0e0"/>
    <path id="Path_4086" data-name="Path 4086" d="M175.6,114.121h-2.734v42.952H175.6Z" fill="#e6e6e6"/>
    <path id="Path_4087" data-name="Path 4087" d="M194.995,114.121h-2.733v42.952h2.733Z" fill="#e6e6e6"/>
    <path id="Path_4088" data-name="Path 4088" d="M196.621,111.377H171.24v4.571h25.381Z" fill="#e6e6e6"/>
    <path id="Path_4089" data-name="Path 4089" d="M100.155,178c50.639,0,91.69-2.4,91.69-5.356s-41.051-5.356-91.69-5.356-91.69,2.4-91.69,5.356S49.516,178,100.155,178Z" fill="#f5f5f5"/>
    <path id="Path_4090" data-name="Path 4090" d="M147.444,154.324V102.033h-5.2v52.291l-3.31,1.017v1.576h11.822v-1.576Z" fill="#2e353a"/>
    <path id="Path_4091" data-name="Path 4091" d="M81.239,102.033h-5.2v52.291l-3.31,1.017v1.576H84.549v-1.576l-3.31-1.017Z" fill="#2e353a"/>
    <g id="Group_7232" data-name="Group 7232" opacity="0.2">
      <path id="Path_4092" data-name="Path 4092" d="M147.444,108.183h-5.2v46.141l-3.31,1.017v1.576h11.822v-1.576l-3.31-1.017Z" fill="#fff" opacity="0.2"/>
      <path id="Path_4093" data-name="Path 4093" d="M81.239,108.183h-5.2v46.141l-3.31,1.017v1.576H84.549v-1.576l-3.31-1.017Z" fill="#fff" opacity="0.2"/>
    </g>
    <path id="Path_4094" data-name="Path 4094" d="M163.527,103.925V19.706H59.963v84.219Z" fill="#2e353a"/>
    <path id="Path_4095" data-name="Path 4095" d="M163.527,103.925V19.706H59.963v84.219Z" fill="#fff" opacity="0.2"/>
    <path id="Path_4096" data-name="Path 4096" d="M161.22,22.044H62.262v79.5H161.22Z" fill="#407bff"/>
    <path id="Path_4097" data-name="Path 4097" d="M161.22,22.044H62.262v79.5H161.22Z" fill="#fff" opacity="0.3"/>
    <path id="Path_4098" data-name="Path 4098" d="M73.436,29.169V50.7h34.289Z" fill="none" stroke="#263238" stroke-miterlimit="10" stroke-width="1"/>
    <path id="Path_4099" data-name="Path 4099" d="M75.158,50.754v-1.76H73.4" fill="none" stroke="#263238" stroke-miterlimit="10" stroke-width="0.79"/>
    <path id="Path_4100" data-name="Path 4100" d="M115.76,29.406h18.916" fill="none" stroke="#263238" stroke-miterlimit="10" stroke-width="1"/>
    <path id="Path_4101" data-name="Path 4101" d="M115.76,33.191h10.4" fill="none" stroke="#263238" stroke-miterlimit="10" stroke-width="1"/>
    <path id="Path_4102" data-name="Path 4102" d="M115.76,36.03h14.66" fill="none" stroke="#263238" stroke-miterlimit="10" stroke-width="1"/>
    <path id="Path_4103" data-name="Path 4103" d="M115.76,39.342h12.295" fill="none" stroke="#263238" stroke-miterlimit="10" stroke-width="1"/>
    <path id="Path_4104" data-name="Path 4104" d="M115.76,43.127H134.2" fill="none" stroke="#263238" stroke-miterlimit="10" stroke-width="1"/>
    <path id="Path_4105" data-name="Path 4105" d="M115.76,46.439h17.97" fill="none" stroke="#263238" stroke-miterlimit="10" stroke-width="1"/>
    <path id="Path_4106" data-name="Path 4106" d="M115.76,49.751h12.295" fill="none" stroke="#263238" stroke-miterlimit="10" stroke-width="1"/>
    <path id="Path_4107" data-name="Path 4107" d="M137.041,78.612h12.768" fill="none" stroke="#263238" stroke-miterlimit="10" stroke-width="1"/>
    <path id="Path_4108" data-name="Path 4108" d="M137.041,82.4h7.093" fill="none" stroke="#263238" stroke-miterlimit="10" stroke-width="1"/>
    <path id="Path_4109" data-name="Path 4109" d="M137.041,85.236h9.931" fill="none" stroke="#263238" stroke-miterlimit="10" stroke-width="1"/>
    <path id="Path_4110" data-name="Path 4110" d="M137.041,88.548h8.512" fill="none" stroke="#263238" stroke-miterlimit="10" stroke-width="1"/>
    <path id="Path_4111" data-name="Path 4111" d="M72.254,84.763H85.022" fill="none" stroke="#263238" stroke-miterlimit="10" stroke-width="1"/>
    <path id="Path_4112" data-name="Path 4112" d="M72.254,88.548h7.093" fill="none" stroke="#263238" stroke-miterlimit="10" stroke-width="1"/>
    <path id="Path_4113" data-name="Path 4113" d="M72.254,91.387h9.931" fill="none" stroke="#263238" stroke-miterlimit="10" stroke-width="1"/>
    <path id="Path_4114" data-name="Path 4114" d="M72.254,94.7h8.512" fill="none" stroke="#263238" stroke-miterlimit="10" stroke-width="1"/>
    <path id="Path_4115" data-name="Path 4115" d="M140.824,36.03h12.3" fill="none" stroke="#263238" stroke-miterlimit="10" stroke-width="1"/>
    <path id="Path_4116" data-name="Path 4116" d="M140.824,39.342h12.3" fill="none" stroke="#263238" stroke-miterlimit="10" stroke-width="1"/>
    <path id="Path_4117" data-name="Path 4117" d="M140.824,42.654h8.512" fill="none" stroke="#263238" stroke-miterlimit="10" stroke-width="1"/>
    <path id="Path_4118" data-name="Path 4118" d="M104.41,84.763h12.295" fill="none" stroke="#263238" stroke-miterlimit="10" stroke-width="1"/>
    <path id="Path_4119" data-name="Path 4119" d="M104.41,88.075h12.295" fill="none" stroke="#263238" stroke-miterlimit="10" stroke-width="1"/>
    <path id="Path_4120" data-name="Path 4120" d="M104.41,91.387h8.512" fill="none" stroke="#263238" stroke-miterlimit="10" stroke-width="1"/>
    <path id="Path_4121" data-name="Path 4121" d="M72.254,63h36.413" fill="none" stroke="#263238" stroke-miterlimit="10" stroke-width="1"/>
    <path id="Path_4122" data-name="Path 4122" d="M72.254,69.149h36.413" fill="none" stroke="#263238" stroke-miterlimit="10" stroke-width="1"/>
    <path id="Path_4123" data-name="Path 4123" d="M72.254,75.3h36.413" fill="none" stroke="#263238" stroke-miterlimit="10" stroke-width="1"/>
    <path id="Path_4124" data-name="Path 4124" d="M126.859,78.641a8.635,8.635,0,1,0-8.63-8.635A8.633,8.633,0,0,0,126.859,78.641Z" fill="none" stroke="#263238" stroke-miterlimit="10" stroke-width="0.79"/>
    <path id="Path_4125" data-name="Path 4125" d="M126.873,61.343V70.1h8.749" fill="none" stroke="#263238" stroke-miterlimit="10" stroke-width="1"/>
    <path id="Path_4126" data-name="Path 4126" d="M161.22,22.133H62.262v79.5H161.22Z" fill="#fff" opacity="0.6"/>
    <path id="Path_4127" data-name="Path 4127" d="M123.927,64.948l-7.306-4.258a14.491,14.491,0,0,1-3.485-.161c-1.892-.322-2.3-.345-2.071-1.831s-.086-3.478.473-3.69,4.544,1.476,5.234,2.612l7.373,2.64Z" fill="#b97964"/>
    <path id="Path_4128" data-name="Path 4128" d="M145.555,57.723V66.24s-1.816.6-4.072,1.23a32.081,32.081,0,0,1-7.4,1.419c-3.074-.151-13.478-5.555-13.478-5.555l1.892-3.605s11.35,3.87,12.768,3.591S145.555,57.723,145.555,57.723Z" fill="#f6b333"/>
    <path id="Path_4129" data-name="Path 4129" d="M145.554,61.882V66.24s-1.816.6-4.072,1.23A13.74,13.74,0,0,1,145.554,61.882Z" opacity="0.2"/>
    <path id="Path_4130" data-name="Path 4130" d="M147.464,88.047s-5.122,27.333-6.493,38.551c-1.788,14.639-9.094,36.053-9.094,36.053l2.922.757s10.3-18.2,12.3-34.572c8.181-16.735,8.843-37.34,8.843-37.34Z" fill="#b97964"/>
    <path id="Path_4131" data-name="Path 4131" d="M126.439,169.28a4.237,4.237,0,0,1,1.5-.383s1.793-1.06,3.575-5.167h2a1.646,1.646,0,0,1,1.537,1.1.911.911,0,0,1,.056.279,11.3,11.3,0,0,1-.151,1.443,39.474,39.474,0,0,1-1.173,4.731l-.335-.085.614-2.99c.2-1.018-.86-.033-1.357.989s-1.253,2.053-3.461,1.547C126.67,170.113,125.63,169.744,126.439,169.28Z" fill="#2e353a"/>
    <path id="Path_4132" data-name="Path 4132" d="M152.789,87.611s.634,27.8,1.617,39.063c1.277,14.667-1.442,37.155-1.442,37.155l3.012.133s6.318-19.933,4.9-36.37c4.544-18.065.946-38.363.946-38.363Z" fill="#b97964"/>
    <path id="Path_4133" data-name="Path 4133" d="M148.273,170.193a4.3,4.3,0,0,1,1.452-.544s1.669-1.244,2.993-5.521l1.991-.228a1.646,1.646,0,0,1,1.646.947,1.065,1.065,0,0,1,.09.269,11.741,11.741,0,0,1,0,1.453,39.571,39.571,0,0,1-.653,4.812l-.345-.052.288-3.038c.1-1.031-.86.062-1.239,1.131s-1.026,2.181-3.277,1.893C148.59,171,147.545,170.742,148.273,170.193Z" fill="#2e353a"/>
    <path id="Path_4134" data-name="Path 4134" d="M162.97,40.326s1.5.081,2.762,2.546-.317,5.2-.629,6.515-1.891,2.47.71,4.452,4.156,4.088,2.047,6.231.208,3.785-2.837,5.375-14.253-.79-15.672-3.866.293-5.408.383-6.331-1.8-1.86-2.275-4.859,1.949-3.653,2.275-5.025-1.192-3.1,0-6.023S162.81,35.793,162.97,40.326Z" fill="#2e353a"/>
    <path id="Path_4135" data-name="Path 4135" d="M170.523,81.257c-1.792.232-3.863-3.269-5.362-6.534-1.277-2.768-2.171-5.37-2.171-5.37l.946-2.669L166.4,59.72s1.73,2.408,4.327,11.578c.416,1.476.917,3.127,1.371,4.973a2.206,2.206,0,0,0,.411,1.3C172.51,78.958,172.675,80.978,170.523,81.257Z" fill="#f6b333"/>
    <path id="Path_4136" data-name="Path 4136" d="M165.127,74.723c-1.277-2.768-2.156-5.37-2.156-5.37l.945-2.669C164.569,68.53,165.548,71.875,165.127,74.723Z" opacity="0.2"/>
    <path id="Path_4137" data-name="Path 4137" d="M172.508,77.6c-.945.624-1.934.615-2.487-.525a5.865,5.865,0,0,1,.733-5.753c.416,1.476.9,3.128,1.362,4.973A2.09,2.09,0,0,0,172.508,77.6Z" opacity="0.2"/>
    <path id="Path_4138" data-name="Path 4138" d="M144.3,80.349s9.434,3.392,18.471,2.758c0,0-.818-11.166-5.547-13.153S144.3,70.805,144.3,80.349Z" fill="#f6b333"/>
    <path id="Path_4139" data-name="Path 4139" d="M144.3,80.349s9.434,3.392,18.471,2.758c0,0-.818-11.166-5.547-13.153S144.3,70.805,144.3,80.349Z" opacity="0.2"/>
    <path id="Path_4140" data-name="Path 4140" d="M145.652,81.144l15.606,1.348a55.53,55.53,0,0,1,1.66-11.469c.373-1.5.842-3.165,1.418-5.1.322-1.031.677-2.139,1.074-3.312.3-.9.619-1.864.974-2.877a46.277,46.277,0,0,0-6.479-1.566,49.688,49.688,0,0,0-7.008-.738c-3.036,0-6.526.317-6.526.317s-.5.118-.809,3.34A138.691,138.691,0,0,0,145.652,81.144Z" fill="#407bff"/>
    <path id="Path_4141" data-name="Path 4141" d="M145.71,83.486l15.606,1.287c.245-3.88.43-9.122,1.6-13.749.374-1.5.842-3.165,1.419-5.1.321-1.031.676-2.139,1.073-3.312.3-.9.62-1.864.974-2.877a46.3,46.3,0,0,0-6.478-1.566,49.717,49.717,0,0,0-7.009-.738c-3.036,0-6.526.317-6.526.317s-.5.118-.808,3.34A184.883,184.883,0,0,0,145.71,83.486Z" fill="#2e353a"/>
    <path id="Path_4142" data-name="Path 4142" d="M154.2,60.865c3.845-.473,5-2.139,5-2.139-2.445-2.3-.416-6.293-.416-6.293l-4.62.866a13,13,0,0,1,.18,1.949c.037,2.81-1.235,2.839-1.235,2.839C152.274,59.616,154.2,60.865,154.2,60.865Z" fill="#b97964"/>
    <path id="Path_4143" data-name="Path 4143" d="M154.166,53.3a13,13,0,0,1,.18,1.949,5.153,5.153,0,0,0,4.45-2.839Z" opacity="0.2"/>
    <path id="Path_4144" data-name="Path 4144" d="M156.715,40.345c-4.024-.222-5.438,1.864-5.959,5.995-.652,5.167.294,8.914,5.387,8.086C163.061,53.294,163.4,40.69,156.715,40.345Z" fill="#b97964"/>
    <path id="Path_4145" data-name="Path 4145" d="M153.372,46.259a8.383,8.383,0,0,1-1.263,1.6,1.106,1.106,0,0,0,1.036.516Z" fill="#a24e3f"/>
    <path id="Path_4146" data-name="Path 4146" d="M155.853,46.065c-.028.331.128.61.35.629s.421-.237.444-.568-.132-.61-.35-.629S155.877,45.734,155.853,46.065Z" fill="#2e353a"/>
    <path id="Path_4147" data-name="Path 4147" d="M156.389,45.521l-.7-.336S156,45.814,156.389,45.521Z" fill="#2e353a"/>
    <path id="Path_4148" data-name="Path 4148" d="M151.753,45.672c-.028.331.128.615.35.629s.421-.237.445-.563-.133-.615-.35-.629S151.8,45.346,151.753,45.672Z" fill="#2e353a"/>
    <path id="Path_4149" data-name="Path 4149" d="M152.273,45.133l-.695-.341S151.9,45.421,152.273,45.133Z" fill="#2e353a"/>
    <path id="Path_4150" data-name="Path 4150" d="M156.057,43.288a2.093,2.093,0,0,1,1.7.714" fill="none" stroke="#2e353a" stroke-linecap="round" stroke-linejoin="round" stroke-width="0.72"/>
    <path id="Path_4151" data-name="Path 4151" d="M153.13,42.956a1.89,1.89,0,0,0-1.622.241" fill="none" stroke="#2e353a" stroke-linecap="round" stroke-linejoin="round" stroke-width="0.72"/>
    <path id="Path_4152" data-name="Path 4152" d="M153.645,50a10.718,10.718,0,0,1,.392,1.419h.26c1.178-.057,1.707-.473,1.934-.913a1.55,1.55,0,0,0,.156-.7,1.511,1.511,0,0,0-.052-.407,5.559,5.559,0,0,1-2.293.582C153.8,49.992,153.645,50,153.645,50Z" fill="#2e353a"/>
    <path id="Path_4153" data-name="Path 4153" d="M154.043,49.968l.128.421a3.5,3.5,0,0,0,2.218-.6,1.6,1.6,0,0,0-.052-.407A5.563,5.563,0,0,1,154.043,49.968Z" fill="#fff"/>
    <path id="Path_4154" data-name="Path 4154" d="M154.3,51.411c1.177-.057,1.707-.473,1.934-.913a3.788,3.788,0,0,0-1.3.317A1.42,1.42,0,0,0,154.3,51.411Z" fill="#de5753"/>
    <path id="Path_4155" data-name="Path 4155" d="M160.744,47.371s-1.7-3.411-1.277-5.952c0,0-7.8-3.7-8.635,4.381,0,0-.383-7.234,6.545-7.012s6.341,10.343,2.6,13.163C159.982,51.951,161.794,49.5,160.744,47.371Z" fill="#2e353a"/>
    <path id="Path_4156" data-name="Path 4156" d="M160.039,48.185a1.769,1.769,0,0,1,1.991-1.509c1.239.2,1.693,2.8-1.442,3.246C160.138,49.982,159.912,49.538,160.039,48.185Z" fill="#b97964"/>
    <path id="Path_4157" data-name="Path 4157" d="M162.767,59.143s-4.516,3.667-8.725,3.605-5.675-4.788-5.675-4.788A24.04,24.04,0,0,1,162.767,59.143Z" fill="#b97964"/>
    <path id="Path_4158" data-name="Path 4158" d="M162.384,58.466s-7.419,13.281.383,24.641c0,0,1.06-14.01,3.627-23.387Z" fill="#f6b333"/>
    <path id="Path_4159" data-name="Path 4159" d="M148.774,57.416s-.066,9.406-1.419,12.9-3.073,10.035-3.073,10.035-1.3-15.656,1.258-22.616Z" fill="#f6b333"/>
    <path id="Path_4160" data-name="Path 4160" d="M159.467,41.419a9.2,9.2,0,0,0-5.636,0c-2.644,1.036-1.92,3.785-3.259,4.287" fill="none" stroke="#2e353a" stroke-linecap="round" stroke-linejoin="round" stroke-width="0.5"/>
    <path id="Path_4161" data-name="Path 4161" d="M183.267,55.722l-1.239-.71-4.554,1.244-6.148-1.594-1.418,4.67s-.294,5.2,0,5.266,7.036.412,7.036.412l3.429-2.186Z" fill="#e0e0e0"/>
    <path id="Path_4162" data-name="Path 4162" d="M169.672,55.012l-2.719,10.773,8.394.941,5.793-1.6L184.1,55.012l-6.621,1.717Z" fill="#f6b333"/>
    <path id="Path_4163" data-name="Path 4163" d="M177.475,56.729l-2.128,10-8.394-.941,2.719-10.773Z" fill="#fff" opacity="0.4"/>
    <path id="Path_4164" data-name="Path 4164" d="M177.474,56.725l-2.128,10,5.793-1.6,2.955-10.116Z" fill="#f6b333" opacity="0.2"/>
    <path id="Path_4165" data-name="Path 4165" d="M170.107,76.483l3.921-7.495a14.363,14.363,0,0,1,0-3.492c.236-1.893.236-2.314,1.735-2.153s3.467-.251,3.7.3-1.263,4.613-2.364,5.351l-2.294,7.49Z" fill="#b97964"/>
    <path id="Path_4166" data-name="Path 4166" d="M168.826,80.6c2.483,2.11,5.32.3,6.9-5.777l-4.89-.629Z" fill="#f6b333"/>
    <path id="Path_4167" data-name="Path 4167" d="M171.1,72.864l-1,1.76,6.186.838V73.644Z" fill="#2e353a"/>
    <path id="Path_4168" data-name="Path 4168" d="M120.357,63.784l1.712,1.079,1.121-6.146-1.811-.085Z" fill="#2e353a"/>
    <path id="Path_4169" data-name="Path 4169" d="M145.709,83.485l-9.836,57.828s23.806,2.839,31.878,1.183c0,0,1.977-41.391-6.446-57.724Z" fill="#f6b333"/>
    <path id="Path_4170" data-name="Path 4170" d="M165.4,84.848l-9.817,57.832s23.806,2.839,31.878,1.178c0,0,1.977-41.39-6.446-57.723Z" fill="#fff" opacity="0.4"/>
    <path id="Path_4171" data-name="Path 4171" d="M113.775,58.069l-2.449-2.531c-1.466-1.524-3.448-3.525-5.424-5.536l-2.914-2.938-2.553-2.56-1.8-1.807-.506-.5a.392.392,0,0,0-.326-.033l.667-.672a.4.4,0,0,0,.033.326l.506.506,1.816,1.8,2.567,2.536,2.947,2.905c2.024,1.963,4.029,3.941,5.561,5.4l2.544,2.437Z" fill="#2e353a"/>
    <path id="Path_4172" data-name="Path 4172" d="M131.878,162.651s-2.5,5.233-3.935,6.246c0,0,1.93,1.15,3.935-1.42,2.6-3.312,3.234-2.389,3.234-2.389a9.236,9.236,0,0,0-.312-1.689C134.413,162.339,131.878,162.651,131.878,162.651Z" fill="#b97964"/>
    <path id="Path_4173" data-name="Path 4173" d="M153.271,162.609s-.709,1.94-1.655,4.069a9.189,9.189,0,0,1-1.891,2.971,2.558,2.558,0,0,0,2.525-.5c.884-1.031,2.407-4.731,4.1-4.324a3.9,3.9,0,0,0-.379-.866A11.545,11.545,0,0,0,153.271,162.609Z" fill="#b97964"/>
    <path id="Path_4174" data-name="Path 4174" d="M73.923,171.584l.383-58.783H70.461l.383,58.783Z" fill="#407bff"/>
    <path id="Path_4175" data-name="Path 4175" d="M70.844,171.584h3.079l.307-46.968.076-11.7H70.461l.076,11.7Z" fill="#fff" opacity="0.5"/>
    <path id="Path_4176" data-name="Path 4176" d="M74.306,112.915l-.076,11.828H70.537l-.076-11.828Z" opacity="0.2"/>
    <path id="Path_4177" data-name="Path 4177" d="M103.787,171.584,100.33,112.8H96.49l4.218,58.783Z" fill="#407bff"/>
    <path id="Path_4178" data-name="Path 4178" d="M100.707,171.584h3.079L100.537,116.4l-.208-3.487H96.484l.255,3.487Z" fill="#fff" opacity="0.5"/>
    <path id="Path_4179" data-name="Path 4179" d="M100.537,116.227h-3.8l-.255-3.312h3.845Z" opacity="0.2"/>
    <path id="Path_4180" data-name="Path 4180" d="M44.06,171.584,48.278,112.8h-3.84l-3.452,58.783Z" fill="#407bff"/>
    <path id="Path_4181" data-name="Path 4181" d="M44.06,171.584,48.023,116.4l.255-3.487H44.434l-.208,3.487-3.239,55.182Z" fill="#fff" opacity="0.3"/>
    <path id="Path_4182" data-name="Path 4182" d="M44.433,112.915h3.845l-.255,3.312h-3.8Z" opacity="0.2"/>
    <path id="Path_4183" data-name="Path 4183" d="M41.389,110.984h61.992v2.607a1.021,1.021,0,0,1-1.022,1.022H42.415a1.021,1.021,0,0,1-1.022-1.022v-2.607Z" fill="#407bff"/>
    <path id="Path_4184" data-name="Path 4184" d="M41.389,110.984h61.992v2.607a1.021,1.021,0,0,1-1.022,1.022H42.415a1.021,1.021,0,0,1-1.022-1.022v-2.607Z" fill="#fff" opacity="0.4"/>
    <path id="Path_4185" data-name="Path 4185" d="M103.376,110.984H41.389V112.8h61.987Z" opacity="0.2"/>
    <path id="Path_4186" data-name="Path 4186" d="M105.172,111.458H39.6a1.025,1.025,0,0,1,0-2.049h65.576a1.025,1.025,0,1,1,0,2.049Z" fill="#407bff"/>
    <path id="Path_4187" data-name="Path 4187" d="M105.172,111.458H39.6a1.025,1.025,0,0,1,0-2.049h65.576a1.025,1.025,0,1,1,0,2.049Z" fill="#fff" opacity="0.4"/>
    <path id="Path_4188" data-name="Path 4188" d="M74.855,102.624l-4.138,7.646" fill="none" stroke="#2e353a" stroke-miterlimit="10" stroke-width="2"/>
    <path id="Path_4189" data-name="Path 4189" d="M37.32,92.546s3.741-6.657,4.351-7.958,2.27-10.471,2.27-10.471a5.973,5.973,0,0,1-.3-1.358c0-.473.3-2.664.3-2.664s0-.175,1.182-.53,2.483-.828,2.6-.3-.18,4.2-.534,4.556a8.009,8.009,0,0,0-.757.946s-.993,9.775-1.447,11.218-4.18,9.113-4.18,9.113Z" fill="#e4897b"/>
    <path id="Path_4190" data-name="Path 4190" d="M54.959,100.651s9.222,4.3,10.555,4.836a26.865,26.865,0,0,0,5.377.719,5.813,5.813,0,0,1,1.338-.369c.473-.029,2.672.142,2.672.142s.18,0,.6,1.149.969,2.432.445,2.579-4.2.066-4.573-.27L71,109.106s-5.2,1.088-6.687.719-11.718-3.652-11.718-3.652Z" fill="#e4897b"/>
    <path id="Path_4191" data-name="Path 4191" d="M42.305,93.72A11.429,11.429,0,0,1,40.257,98.3c-2,2.839-4.809,4.684-5.571,1.765-1.159-4.41,3.755-9.936,3.755-9.936Z" fill="#f6b333"/>
    <path id="Path_4192" data-name="Path 4192" d="M42.306,93.72A11.429,11.429,0,0,1,40.258,98.3a2.148,2.148,0,0,1-.634-1.713C39.9,94.628,42.306,93.72,42.306,93.72Z" opacity="0.2"/>
    <path id="Path_4193" data-name="Path 4193" d="M52.2,90.412a5.205,5.205,0,0,1-1.561,2.512,6.227,6.227,0,0,1-4.043,1.59,5.768,5.768,0,0,1-4.01-1.49c-2.171-1.959-2.1-4.211-2.365-8.043s3.9-6.747,8.115-5.2S53.149,86.973,52.2,90.412Z" fill="#e4897b"/>
    <path id="Path_4194" data-name="Path 4194" d="M47.025,77.325s2.946-1.079,5.013.639,1.953,5.853,0,7.807c0,0,.534-.71-1-2.427A50.446,50.446,0,0,1,47.025,77.325Z" fill="#2e353a"/>
    <path id="Path_4195" data-name="Path 4195" d="M50.643,92.925a6.226,6.226,0,0,1-4.043,1.59,3.751,3.751,0,0,1,1.3-1.59A3.731,3.731,0,0,0,50.643,92.925Z" opacity="0.2"/>
    <path id="Path_4196" data-name="Path 4196" d="M51.4,155.616l-.5,3.137-.459,2.895H46.244l.364-3.7.345-3.549Z" fill="#e4897b"/>
    <path id="Path_4197" data-name="Path 4197" d="M50.2,160.006l-4.256-.264a.268.268,0,0,0-.3.236l-.416,3.359a.675.675,0,0,0,.168.495.677.677,0,0,0,.213.16.7.7,0,0,0,.258.065c1.485.066,2.2.023,4.072.127a35.74,35.74,0,0,0,5,.161c1.589-.151,1.39-1.722.7-1.793a10.486,10.486,0,0,1-4.79-2.285A1.07,1.07,0,0,0,50.2,160.006Z" fill="#2e353a"/>
    <path id="Path_4198" data-name="Path 4198" d="M51.508,160.735a4.511,4.511,0,0,1-1-.2.079.079,0,0,1-.044-.025.081.081,0,0,1-.022-.046.111.111,0,0,1,.01-.05.106.106,0,0,1,.032-.039c.123-.076,1.244-.743,1.7-.535a.336.336,0,0,1,.189.265.472.472,0,0,1-.137.473A1.026,1.026,0,0,1,51.508,160.735Zm.6-.714c-.246-.114-.894.165-1.352.416.671.175,1.168.185,1.357.024a.328.328,0,0,0,.085-.313.159.159,0,0,0-.028-.075A.164.164,0,0,0,52.109,160.021Z" fill="#407bff"/>
    <path id="Path_4199" data-name="Path 4199" d="M50.525,160.536a.033.033,0,0,1-.038,0,.094.094,0,0,1-.032-.029.1.1,0,0,1-.015-.042c0-.033,0-1.145.388-1.49a.469.469,0,0,1,.388-.1.34.34,0,0,1,.3.288c.057.417-.558,1.174-.946,1.377a.05.05,0,0,1-.024,0A.049.049,0,0,1,50.525,160.536Zm.615-1.476a.265.265,0,0,0-.1.015.245.245,0,0,0-.089.056,1.894,1.894,0,0,0-.322,1.183,1.855,1.855,0,0,0,.714-1.107c0-.052-.033-.118-.156-.137Z" fill="#407bff"/>
    <path id="Path_4200" data-name="Path 4200" d="M51.4,155.616l-.5,3.137-4.289-.809.345-3.549Z" opacity="0.2"/>
    <path id="Path_4201" data-name="Path 4201" d="M56.493,131.784c-1.944-2.56-6.971-3.866-11.014-4.514l-1.362,10.149c2.492.516,3.528,1.892,3.665,2.465.662,2.72-2.483,16.877-2.483,16.877l6.531,1.575S59.959,136.364,56.493,131.784Z" fill="#2e353a"/>
    <path id="Path_4202" data-name="Path 4202" d="M56.493,131.784c-1.944-2.56-6.971-3.866-11.014-4.514l-1.362,10.149c2.492.516,3.528,1.892,3.665,2.465.662,2.72-2.483,16.877-2.483,16.877l6.531,1.575S59.959,136.364,56.493,131.784Z" opacity="0.2"/>
    <path id="Path_4203" data-name="Path 4203" d="M63.221,155.616l-.5,3.137-.459,2.895H58.066l.364-3.7.345-3.549Z" fill="#e4897b"/>
    <path id="Path_4204" data-name="Path 4204" d="M62.024,160.006l-4.256-.264a.268.268,0,0,0-.3.236l-.416,3.359a.672.672,0,0,0,.619.715c1.485.066,2.2.023,4.072.128a35.9,35.9,0,0,0,5,.16c1.589-.151,1.39-1.722.7-1.793a10.476,10.476,0,0,1-4.79-2.285A1.067,1.067,0,0,0,62.024,160.006Z" fill="#2e353a"/>
    <path id="Path_4205" data-name="Path 4205" d="M63.331,160.735a4.509,4.509,0,0,1-1-.2.078.078,0,0,1-.044-.025.08.08,0,0,1-.022-.046.11.11,0,0,1,.01-.05.107.107,0,0,1,.032-.039c.123-.076,1.244-.743,1.7-.535a.336.336,0,0,1,.189.265.473.473,0,0,1-.137.473A1.026,1.026,0,0,1,63.331,160.735Zm.6-.714c-.246-.114-.894.165-1.352.416.671.175,1.168.185,1.357.024a.325.325,0,0,0,.084-.145.33.33,0,0,0,0-.168.159.159,0,0,0-.028-.075A.164.164,0,0,0,63.931,160.021Z" fill="#407bff"/>
    <path id="Path_4206" data-name="Path 4206" d="M62.347,160.536a.033.033,0,0,1-.019.006.033.033,0,0,1-.019-.006.092.092,0,0,1-.032-.029.1.1,0,0,1-.015-.042c0-.033,0-1.145.388-1.49a.469.469,0,0,1,.388-.1.34.34,0,0,1,.3.288c.057.417-.558,1.174-.946,1.377a.054.054,0,0,1-.047-.005Zm.615-1.476a.266.266,0,0,0-.1.015.246.246,0,0,0-.089.056,1.9,1.9,0,0,0-.322,1.183,1.854,1.854,0,0,0,.714-1.107c0-.052-.033-.118-.156-.137Z" fill="#407bff"/>
    <path id="Path_4207" data-name="Path 4207" d="M63.222,155.616l-.5,3.137-4.289-.809.345-3.549Z" opacity="0.2"/>
    <path id="Path_4208" data-name="Path 4208" d="M42.678,92.395c0,2.252-.26,4.391-1.65,5.394a26.453,26.453,0,0,0,6.356,4.021c2.464-1.741,1.324-3.184,1.324-3.184-2.152-1.183-1.48-3.937-.809-5.678,0,0-.53-.856-3.547-.866C43.032,92.054,42.678,92.395,42.678,92.395Z" fill="#e4897b"/>
    <path id="Path_4209" data-name="Path 4209" d="M31.069,124.833s-4.4,12.444,8.068,12.444,13.473-4.864,12.418-10.589Z" fill="#2e353a"/>
    <path id="Path_4210" data-name="Path 4210" d="M51.545,126.65s13.293.558,16.759,5.134-4.663,26.552-4.663,26.552l-6.531-1.575s3.589-14.994,2.237-16.934-8.7-2.058-18.632-2.579S51.545,126.65,51.545,126.65Z" fill="#2e353a"/>
    <path id="Path_4211" data-name="Path 4211" d="M39.8,97.42l1.225-2.9s7.07.251,9.217,3.473S39.8,97.42,39.8,97.42Z" fill="#f6b333"/>
    <path id="Path_4212" data-name="Path 4212" d="M54.221,101.848c.213,3.639,0,11.114-2.667,24.84l-20.486-1.855c.132-2.9,4.474-12.836,3.551-25.923a3.533,3.533,0,0,1,3.268-3.785h.123c1.007-.038,7.145,1.774,10.03,2.21,1.111.2,2.19.473,3.107.733a4.191,4.191,0,0,1,3.074,3.78Z" fill="#f6b333"/>
    <path id="Path_4213" data-name="Path 4213" d="M54.221,101.848c.213,3.639,0,11.114-2.667,24.84l-20.486-1.855c.132-2.9,4.474-12.836,3.551-25.923a3.533,3.533,0,0,1,3.268-3.785h.123c1.007-.038,7.145,1.774,10.03,2.21,1.111.2,2.19.473,3.107.733a4.191,4.191,0,0,1,3.074,3.78Z" opacity="0.2"/>
    <path id="Path_4214" data-name="Path 4214" d="M51.148,98.068c-2.251-.473-2.5,6.094-.861,7.986s10.357,3.312,10.357,3.312l1.617-5.914S55.087,98.919,51.148,98.068Z" fill="#f6b333"/>
    <path id="Path_4215" data-name="Path 4215" d="M41.794,92.163s-2.88-.79-4.218-6.974,4.554-8.942,11.222-7.6S52.212,88.473,46.4,92.163A6.976,6.976,0,0,1,41.794,92.163Z" fill="#2e353a"/>
    <path id="Path_4216" data-name="Path 4216" d="M49.078,87.143a3.1,3.1,0,0,0,1.248,1.893c.818.539,1.452-.284,1.419-1.344-.038-.946-.506-2.389-1.419-2.493S48.856,86.14,49.078,87.143Z" fill="#e4897b"/>
    <path id="Path_4217" data-name="Path 4217" d="M68.826,110.984V113a1.616,1.616,0,0,0,1.617,1.618h32.385a1.021,1.021,0,0,0,1.021-1.022v-2.607Z" fill="#407bff"/>
    <path id="Path_4218" data-name="Path 4218" d="M68.826,110.984V113a1.616,1.616,0,0,0,1.617,1.618h32.385a1.021,1.021,0,0,0,1.021-1.022v-2.607Z" fill="#fff" opacity="0.6"/>
    <path id="Path_4219" data-name="Path 4219" d="M103.849,110.984H68.826V112.8h35.023Z" opacity="0.2"/>
    <path id="Path_4220" data-name="Path 4220" d="M105.584,109.409H67.955a1.014,1.014,0,0,0-.392.078,1.022,1.022,0,0,0-.63.949,1.023,1.023,0,0,0,1.021,1.022h37.69a1.032,1.032,0,0,0,.759-.34,1.037,1.037,0,0,0,.258-.791,1.071,1.071,0,0,0-1.078-.918Z" fill="#407bff"/>
    <path id="Path_4221" data-name="Path 4221" d="M105.584,109.409H67.955a1.014,1.014,0,0,0-.392.078,1.022,1.022,0,0,0-.63.949,1.023,1.023,0,0,0,1.021,1.022h37.69a1.032,1.032,0,0,0,.759-.34,1.037,1.037,0,0,0,.258-.791,1.071,1.071,0,0,0-1.078-.918Z" fill="#fff" opacity="0.6"/>
    <path id="Path_4222" data-name="Path 4222" d="M41.146,171.584H44.1l.577-24.807.17-7.366H40.4l.17,7.366Z" fill="#407bff"/>
    <path id="Path_4223" data-name="Path 4223" d="M41.146,171.584H44.1l.577-24.807.17-7.366H40.4l.17,7.366Z" fill="#fff" opacity="0.4"/>
    <path id="Path_4224" data-name="Path 4224" d="M44.844,139.411l-.17,7.57h-4.1l-.17-7.57Z" opacity="0.2"/>
    <path id="Path_4225" data-name="Path 4225" d="M58.241,171.584l-1.868-31.653H52.51l2.615,31.653Z" fill="#407bff"/>
    <path id="Path_4226" data-name="Path 4226" d="M55.119,171.584h3.121L56.59,143.527l-.213-3.643H52.514l.3,3.643Z" fill="#fff" opacity="0.5"/>
    <path id="Path_4227" data-name="Path 4227" d="M52.514,139.884l.3,3.785H56.59l-.213-3.785Z" opacity="0.2"/>
    <path id="Path_4228" data-name="Path 4228" d="M30.118,171.584l2.615-31.653H28.87L27,171.584Z" fill="#407bff"/>
    <path id="Path_4229" data-name="Path 4229" d="M30.123,171.584l2.308-28.057.3-3.643H28.865l-.213,3.643L27,171.584Z" fill="#fff" opacity="0.5"/>
    <path id="Path_4230" data-name="Path 4230" d="M32.729,139.884l-.3,3.785H28.652l.213-3.785Z" opacity="0.2"/>
    <path id="Path_4231" data-name="Path 4231" d="M29.163,135.791H56.081a2.365,2.365,0,0,1,2.364,2.366v3.165H26.8v-3.165a2.365,2.365,0,0,1,2.365-2.366Z" fill="#f6b333"/>
    <path id="Path_4232" data-name="Path 4232" d="M39.21,105.344l-2.343.321,4.642,33.9,2.343-.321Z" fill="#407bff"/>
    <path id="Path_4233" data-name="Path 4233" d="M24.554,105.347l-2.343.321,4.642,33.9,2.343-.321Z" fill="#407bff"/>
    <g id="Group_7233" data-name="Group 7233" opacity="0.4">
      <path id="Path_4234" data-name="Path 4234" d="M39.21,105.344l-2.343.321,4.642,33.9,2.343-.321Z" fill="#fff" opacity="0.4"/>
    </g>
    <g id="Group_7234" data-name="Group 7234" opacity="0.4">
      <path id="Path_4235" data-name="Path 4235" d="M24.554,105.347l-2.343.321,4.642,33.9,2.343-.321Z" fill="#fff" opacity="0.4"/>
    </g>
    <path id="Path_4236" data-name="Path 4236" d="M59.008,138.55H26.232a.95.95,0,0,0-.951.951v.861a.951.951,0,0,0,.951.951H59.008a.951.951,0,0,0,.951-.951V139.5A.95.95,0,0,0,59.008,138.55Z" fill="#407bff"/>
    <path id="Path_4237" data-name="Path 4237" d="M59.008,138.55H26.232a.95.95,0,0,0-.951.951v.861a.951.951,0,0,0,.951.951H59.008a.951.951,0,0,0,.951-.951V139.5A.95.95,0,0,0,59.008,138.55Z" fill="#fff" opacity="0.6"/>
    <path id="Path_4238" data-name="Path 4238" d="M42.484,116.837H21.445L19.762,103.7H40.806Z" fill="#407bff"/>
    <path id="Path_4239" data-name="Path 4239" d="M42.484,116.837H21.445L19.762,103.7H40.806Z" fill="#fff" opacity="0.6"/>
  </g>
</svg>
