<svg id="_352521_location_on_icon" data-name="352521_location_on_icon" xmlns="http://www.w3.org/2000/svg" width="28" height="28" viewBox="0 0 28 28">
  <path id="Path_3583" data-name="Path 3583" d="M0,0H28V28H0Z" fill="none"/>
  <g id="world" transform="translate(4.346 2.497)">
    <g id="Group_6755" data-name="Group 6755" transform="translate(0.004)">
      <path id="Path_3690" data-name="Path 3690" d="M22.976,5.467l-.284.09-1.514.135-.428.683-.31-.1L19.235,5.19l-.175-.565-.234-.6-.757-.679-.894-.175-.021.409.875.854.428.5-.482.252-.392-.116L17,4.827l.02-.474-.771-.317L15.99,5.15l-.777.176.077.621,1.012.195.175-.993.835.123L17.7,5.5h.623l.426.854L19.881,7.5l-.083.446-.912-.116-1.575.8L16.177,9.987l-.148.6h-.407l-.759-.35-.737.35.183.777.321-.37.564-.018-.039.7.467.137.466.524.762-.214.87.137,1.01.272.5.059.855.971,1.651.971-1.068,2.04-1.127.524-.428,1.166-1.631,1.089-.174.628A9.49,9.49,0,0,0,22.976,5.467Z" transform="translate(-5.583 -1.252)" fill="#f6b333"/>
      <path id="Path_3691" data-name="Path 3691" d="M10.6,17.444l-.692-1.283.635-1.324-.635-.19-.713-.716-1.58-.354-.524-1.1v.652H6.856L5.494,11.284V9.768l-1-1.623-1.585.283H1.844l-.537-.352.685-.543-.684.158A9.489,9.489,0,0,0,9.5,21.98,9.948,9.948,0,0,0,10.7,21.9l-.1-1.151s.436-1.71.436-1.768S10.6,17.444,10.6,17.444Z" transform="translate(-0.004 -2.976)" fill="#f6b333"/>
      <path id="Path_3692" data-name="Path 3692" d="M4.953,3.064l1.688-.235L7.419,2.4l.875.252,1.4-.077.479-.753.7.115,1.7-.159.468-.515.659-.44.933.14.34-.051A9.471,9.471,0,0,0,3.6,3.455h0ZM11.325.945,12.3.411l.623.36-.9.687-.861.087-.388-.252Zm-2.874.078.428.178.561-.178.305.529-1.295.34-.622-.364S8.437,1.136,8.451,1.023Z" transform="translate(-1.423)" fill="#f6b333"/>
    </g>
  </g>
</svg>
