<svg xmlns="http://www.w3.org/2000/svg" width="14.457" height="20.084" viewBox="0 0 14.457 20.084">
  <path id="google-sheets" d="M42.645,20.084a.442.442,0,0,0,.442-.442V6.029H38a1.339,1.339,0,0,1-1.337-1.338V0H29.072a.442.442,0,0,0-.442.442v19.2a.442.442,0,0,0,.442.442ZM31.014,8.611h9.8v7.862h-9.8Zm5.293,5.536h3.72v1.54h-3.72ZM31.8,11.723h3.72v1.638H31.8Zm0,2.424h3.72v1.54H31.8ZM36.307,9.4h3.72v1.54h-3.72Zm0,2.326h3.72v1.638h-3.72ZM31.8,9.4h3.72v1.54H31.8Zm5.848-4.706V1.022l4.3,4.025H38A.355.355,0,0,1,37.648,4.691Z" transform="translate(-28.63)" fill="#fff"/>
</svg>
