<svg xmlns="http://www.w3.org/2000/svg" width="24" height="24" viewBox="0 0 24 24"><defs><style>.a{fill:#fff;}.b{fill:#199b4d;}</style></defs><g transform="translate(-2.346 -2.346)"><path class="a" d="M2.346,14.346a12,12,0,1,1,12,12A12.015,12.015,0,0,1,2.346,14.346Z" transform="translate(0 0)"/><path class="b" d="M13.739,5a8.739,8.739,0,1,0,8.739,8.739A8.75,8.75,0,0,0,13.739,5Z" transform="translate(0.607 0.607)"/><path class="a" d="M15.949,9.576l-4.271,4.5L9.643,11.75a.625.625,0,0,0-.939-.025.8.8,0,0,0-.022,1.038l2.5,2.841a.651.651,0,0,0,.47.222.728.728,0,0,0,.47-.2l4.763-4.99A.769.769,0,0,0,16.911,9.6.649.649,0,0,0,15.949,9.576Z" transform="translate(1.546 1.746)"/></g></svg>