<svg xmlns="http://www.w3.org/2000/svg" width="48.392" height="48.392" viewBox="0 0 48.392 48.392">
  <g id="Group_694" data-name="Group 694" transform="translate(0.999)">
    <g id="Rectangle_454" data-name="Rectangle 454" transform="translate(0.197 0.197)" fill="#fff" stroke="#707070" stroke-width="1" opacity="0">
      <rect width="44" height="44" stroke="none"/>
      <rect x="0.5" y="0.5" width="43" height="43" fill="none"/>
    </g>
    <g id="chat" transform="translate(-0.999)">
      <path id="Path_4024" data-name="Path 4024" d="M338.068,10.869V7.179a7.089,7.089,0,1,0-14.177-.09v3.781h-.473A1.418,1.418,0,0,0,322,12.287V24.1a1.418,1.418,0,0,0,1.418,1.418H338.54a1.418,1.418,0,0,0,1.418-1.418V12.287a1.418,1.418,0,0,0-1.418-1.418ZM332.4,17.721v2.363a1.418,1.418,0,0,1-2.836,0V17.721a1.418,1.418,0,0,1,0-2.835H332.4a1.418,1.418,0,0,1,0,2.835Zm2.835-6.852h-8.506V7.088a4.253,4.253,0,1,1,8.506,0Z" transform="translate(-291.566 0.001)" fill="#2a5798"/>
      <g id="Group_7109" data-name="Group 7109" transform="translate(0 13.421)">
        <path id="Path_4025" data-name="Path 4025" d="M31.19,158.068H7.561a1.418,1.418,0,1,1,0-2.835h20.89a4.231,4.231,0,0,1-.853-2.552v-1.229H7.561a1.418,1.418,0,0,1,0-2.835H27.6V142H1.418A1.418,1.418,0,0,0,0,143.418v32.135a1.418,1.418,0,0,0,2.42,1L7.676,171.3H37.334a1.418,1.418,0,0,0,1.418-1.418V156.934H32.58A1.418,1.418,0,0,1,31.19,158.068Zm0,6.616H7.561a1.418,1.418,0,0,1,0-2.835H31.19a1.418,1.418,0,0,1,0,2.835Z" transform="translate(0 -142)" fill="#f6b333"/>
      </g>
    </g>
  </g>
</svg>
