<svg xmlns="http://www.w3.org/2000/svg" width="24" height="24" viewBox="0 0 24 24">
  <g id="Group_4529" data-name="Group 4529" transform="translate(12940 -1064)">
    <g id="Rectangle_1505" data-name="Rectangle 1505" transform="translate(-12940 1064)" fill="#fff" stroke="#707070" stroke-width="1" opacity="0">
      <rect width="24" height="24" stroke="none"/>
      <rect x="0.5" y="0.5" width="23" height="23" fill="none"/>
    </g>
    <g id="Group_4527" data-name="Group 4527" transform="translate(-13254.703 780.484)">
      <path id="Path_3072" data-name="Path 3072" d="M318.783,285h8.38c.1.079.089.193.091.3.011.491-.016.983.019,1.474,0,.225-.018.45-.018.675q0,8.422,0,16.845a1.19,1.19,0,0,1-.042.487.167.167,0,0,1-.054.061.548.548,0,0,1-.3.051q-4.383,0-8.766,0a.506.506,0,0,1-.316-.066.267.267,0,0,1-.07-.207c-.007-.123,0-.246,0-.369q0-8.456,0-16.912c0-.13,0-.26.006-.39.015-.191.077-.254.266-.269.15-.012.3,0,.451-.009.2-.01.255-.057.259-.261.009-.376,0-.753.005-1.129A.317.317,0,0,1,318.783,285Z" transform="translate(0 0)" fill="#f8b432"/>
      <path id="Path_3075" data-name="Path 3075" d="M320,768.22q0-.617.007-1.233h9.1c.089,0,.178,0,.266.007a.154.154,0,0,1,.079.134,9.08,9.08,0,0,1,0,1,.251.251,0,0,1-.039.093Z" transform="translate(-2.203 -462.187)" fill="#e49600"/>
      <path id="Path_3076" data-name="Path 3076" d="M547.964,766a3.17,3.17,0,0,1-.038-.794c-.008-.143,0-.287,0-.431l0-.015a.31.31,0,0,1,.26-.084c.27,0,.54-.009.81.009,1.223-.026,2.446-.005,3.669-.011.253,0,.506-.008.758.011.325-.02.65-.011.976-.009a.3.3,0,0,1,.26.087c.62,0,1.239.007,1.858,0,.151,0,.2.04.2.194-.01.347,0,.694,0,1.041Z" transform="translate(-220.76 -459.972)" fill="#e49600"/>
      <path id="Path_3077" data-name="Path 3077" d="M549.1,345.78H548.03q0-8.841,0-17.681a3.074,3.074,0,0,1,.038-.345c.294,0,.588,0,.882-.011.136-.006.156.052.155.168,0,.684.006,1.368-.007,2.052,0,.189.057.222.23.221,1.738-.006,3.475,0,5.213-.007.158,0,.225.021.225.206q-.01,4.535-.005,9.071a.051.051,0,0,1-.07-.016.761.761,0,0,1-.058-.421q0-4.1,0-8.19c0-.515,0-.515-.521-.515h-4.454c-.082,0-.164,0-.246,0a.2.2,0,0,0-.215.22c0,.1,0,.205,0,.308q0,7.246,0,14.493C549.187,345.486,549.238,345.654,549.1,345.78Z" transform="translate(-220.865 -40.986)" fill="#f8b432"/>
      <path id="Path_3078" data-name="Path 3078" d="M395.956,559.009c0,.233-.005.465,0,.7,0,.119-.023.172-.157.168-.307-.01-.616-.007-.923,0-.11,0-.158-.023-.157-.146.006-.492,0-.985,0-1.477,0-.109.042-.14.145-.139.315.005.629.006.944,0,.123,0,.15.05.147.159C395.953,558.517,395.956,558.763,395.956,559.009Z" transform="translate(-73.854 -261.892)" fill="#f2fefa"/>
      <path id="Path_3079" data-name="Path 3079" d="M395.972,473.773c0,.239,0,.478,0,.717,0,.114-.033.159-.151.157-.314-.006-.628,0-.942,0-.1,0-.145-.033-.144-.141q.006-.737,0-1.475c0-.1.029-.144.139-.142q.481.009.962,0c.114,0,.137.047.135.147C395.969,473.281,395.972,473.527,395.972,473.773Z" transform="translate(-73.87 -180.17)" fill="#f2fefa"/>
      <path id="Path_3080" data-name="Path 3080" d="M469.244,473.73c0-.232,0-.464,0-.7,0-.117.021-.173.156-.169.314.009.628.007.941,0,.109,0,.14.037.139.142q-.006.737,0,1.474c0,.107-.039.143-.144.142-.314,0-.628-.005-.942,0-.118,0-.154-.044-.151-.157C469.248,474.221,469.244,473.975,469.244,473.73Z" transform="translate(-145.314 -180.147)" fill="#f2fefa"/>
      <path id="Path_3081" data-name="Path 3081" d="M469.261,558.989c0-.239,0-.479,0-.718,0-.107.021-.164.146-.161q.471.01.943,0c.124,0,.148.052.147.159q-.005.728,0,1.456c0,.1-.02.15-.135.147q-.482-.01-.964,0c-.112,0-.139-.044-.137-.146C469.265,559.482,469.261,559.235,469.261,558.989Z" transform="translate(-145.331 -261.891)" fill="#f2fefa"/>
      <path id="Path_3082" data-name="Path 3082" d="M395.968,388.413c0,.239-.005.479,0,.718,0,.117-.037.155-.153.152q-.471-.009-.943,0c-.107,0-.142-.034-.141-.141q.007-.728,0-1.456c0-.113.031-.158.15-.156.314.006.629,0,.943,0,.105,0,.145.037.143.144C395.964,387.92,395.968,388.167,395.968,388.413Z" transform="translate(-73.866 -98.318)" fill="#f2fefa"/>
      <path id="Path_3083" data-name="Path 3083" d="M470.478,388.43c0,.232,0,.465,0,.7,0,.115-.02.174-.155.17-.307-.009-.615-.006-.922,0-.107,0-.162-.02-.16-.145.006-.485,0-.97,0-1.455,0-.1.023-.153.136-.151.321,0,.642,0,.963,0,.112,0,.138.048.136.148C470.475,387.938,470.478,388.184,470.478,388.43Z" transform="translate(-145.315 -98.331)" fill="#f2fefa"/>
      <path id="Path_3084" data-name="Path 3084" d="M395.97,644.527c0,.239,0,.478,0,.717,0,.116-.036.156-.152.153-.314-.006-.628-.006-.943,0-.106,0-.143-.033-.142-.141,0-.492,0-.984,0-1.475,0-.094.029-.135.128-.133.321,0,.642.006.963,0,.125,0,.146.056.144.162C395.967,644.049,395.97,644.288,395.97,644.527Z" transform="translate(-73.868 -343.914)" fill="#f2fefa"/>
      <path id="Path_3085" data-name="Path 3085" d="M470.494,644.516c0,.239,0,.478,0,.717,0,.112-.029.158-.149.155-.314-.007-.628-.005-.942,0-.1,0-.146-.03-.145-.139q.006-.737,0-1.475c0-.115.053-.136.151-.135.307,0,.615.006.922,0,.124,0,.169.035.165.162C470.488,644.038,470.494,644.277,470.494,644.516Z" transform="translate(-145.331 -343.904)" fill="#f2fefa"/>
      <path id="Path_3088" data-name="Path 3088" d="M578.452,402.477c0,.355,1.385.709,1.384,1.064h-5.819q0-7.63,0-15.26c0-.3,0-.3.3-.3h5.053c.271,0,.272,0,.272.273,0,1.934.081,6.529.137,10.344.031,2.06.054,3.9.054,4.946-.619-.11-4.852.084-4.825-1.29.008-.383,4.857-4.35,4.711-4.236-.851.661-.184,1.221,0,2.279s-2.492,1.754-1.481,2.108Z" transform="translate(-245.785 -98.747)" fill="#d48e07"/>
      <path id="Path_3089" data-name="Path 3089" d="M614.071,558.97c0,.232,0,.464,0,.7,0,.127-.031.186-.171.182-.3-.008-.6-.007-.9,0-.127,0-.165-.047-.164-.168q.007-.717,0-1.433c0-.129.052-.164.171-.162.3.005.6.006.9,0,.127,0,.167.048.164.17C614.066,558.492,614.07,558.731,614.071,558.97Z" transform="translate(-283.01 -261.865)" fill="#fed17a"/>
      <path id="Path_3091" data-name="Path 3091" d="M614.071,558.97c0,.232,0,.464,0,.7,0,.127-.031.186-.171.182-.3-.008-.6-.007-.9,0-.127,0-.165-.047-.164-.168q.007-.717,0-1.433c0-.129.052-.164.171-.162.3.005.6.006.9,0,.127,0,.167.048.164.17C614.066,558.492,614.07,558.731,614.071,558.97Z" transform="translate(-283.01 -258.127)" fill="#fed17a"/>
      <path id="Path_3090" data-name="Path 3090" d="M614.1,473.8c0,.239,0,.479,0,.718,0,.113-.042.161-.156.16-.315,0-.629,0-.944,0-.094,0-.135-.04-.134-.136q0-.738,0-1.477c0-.1.036-.148.143-.146.314,0,.629,0,.943,0,.123,0,.149.057.147.164C614.1,473.32,614.1,473.559,614.1,473.8Z" transform="translate(-283.037 -180.197)" fill="#fed17a"/>
    </g>
  </g>
</svg>
