<svg xmlns="http://www.w3.org/2000/svg" width="35.738" height="32.926" viewBox="0 0 35.738 32.926">
  <g id="profile" transform="translate(-2 -4.75)">
    <path id="Path_3788" data-name="Path 3788" d="M5.359,52.272H2.51a.51.51,0,0,1-.51-.51V39.27a.51.51,0,0,1,.51-.51H5.359a2.394,2.394,0,0,1,2.389,2.394v8.729a2.394,2.394,0,0,1-2.389,2.389Zm0-1.021Z" transform="translate(0 -16.649)" fill="#2a5798"/>
    <path id="Path_3789" data-name="Path 3789" d="M28.484,49.886H19.545a.51.51,0,1,1,0-1.021h8.939a1.353,1.353,0,1,0,0-2.706H23.7a.51.51,0,0,1-.408-.2,6.065,6.065,0,0,0-4.819-2.394h-6.7a.51.51,0,1,1,0-1.021h6.7a7.1,7.1,0,0,1,5.472,2.6h4.538a2.374,2.374,0,1,1,0,4.747Z" transform="translate(-4.533 -18.499)" fill="#2a5798"/>
    <path id="Path_3790" data-name="Path 3790" d="M24.244,59.176a12.249,12.249,0,0,1-4.434-.831l-8.17-3.181a.51.51,0,0,1,.368-.949l8.168,3.18a11.231,11.231,0,0,0,9.189-.51l11.562-5.927-.041-.036a4.4,4.4,0,0,0-4.513-.98L30.191,52.1a.51.51,0,0,1-.332-.965l6.182-2.159a5.426,5.426,0,0,1,5.554,1.2l.562.51a.51.51,0,0,1-.117.822l-12.2,6.3A12.216,12.216,0,0,1,24.244,59.176Z" transform="translate(-4.576 -21.5)" fill="#2a5798"/>
    <path id="Path_3791" data-name="Path 3791" d="M45.794,22.362H31.97a.51.51,0,0,1-.51-.51V5.26a.51.51,0,0,1,.51-.51H45.794a.51.51,0,0,1,.51.51V21.851A.51.51,0,0,1,45.794,22.362Z" transform="translate(-14.421)" fill="#f6b333"/>
    <path id="Path_3792" data-name="Path 3792" d="M45.613,21.139H40.62a.51.51,0,0,1-.51-.51v-.863A1.761,1.761,0,0,1,41.866,18h2.5a1.761,1.761,0,0,1,1.756,1.761v.863a.51.51,0,0,1-.51.516Z" transform="translate(-18.656 -6.486)" fill="#fff"/>
    <path id="Path_3793" data-name="Path 3793" d="M44.292,13.183A1.782,1.782,0,1,1,46.073,11.4,1.782,1.782,0,0,1,44.292,13.183Z" transform="translate(-19.83 -2.384)" fill="#fff"/>
    <path id="Path_3794" data-name="Path 3794" d="M45.707,28.021H36.12a.51.51,0,1,1,0-1.021h9.587a.51.51,0,0,1,0,1.021Z" transform="translate(-16.453 -10.892)" fill="#fff"/>
    <path id="Path_3795" data-name="Path 3795" d="M45.707,32.791H36.12a.51.51,0,1,1,0-1.021h9.587a.51.51,0,0,1,0,1.021Z" transform="translate(-16.453 -13.227)" fill="#fff"/>
  </g>
</svg>
