<svg xmlns="http://www.w3.org/2000/svg" width="24" height="24" viewBox="0 0 24 24"><defs><style>.a{fill:#fff;stroke:#707070;opacity:0;}.b{fill:#1c1b1b;}.c{stroke:none;}.d{fill:none;}</style></defs><g transform="translate(-1213 -550)"><g class="a" transform="translate(1213 550)"><rect class="c" width="24" height="24"/><rect class="d" x="0.5" y="0.5" width="23" height="23"/></g><g transform="translate(1214.563 489.992)"><g transform="translate(8.022 69.363)"><g transform="translate(0 0)"><path class="b" d="M197.708,192.672a.444.444,0,0,0-.628.628,2.666,2.666,0,1,1-3.771,3.771.444.444,0,1,0-.628.628,3.555,3.555,0,1,0,5.027-5.027Z" transform="translate(-192.55 -192.542)"/></g></g><g transform="translate(7.111 68.452)"><g transform="translate(0 0)"><path class="b" d="M174.843,170.72a3.52,3.52,0,0,0-4.175,3.494,3.48,3.48,0,0,0,.062.62.445.445,0,0,0,.436.367.4.4,0,0,0,.078-.007.445.445,0,0,0,.36-.515,2.578,2.578,0,0,1-.048-.465,2.635,2.635,0,0,1,3.132-2.62.444.444,0,0,0,.155-.875Z" transform="translate(-170.668 -170.659)"/></g></g><g transform="translate(5.559 67.027)"><path class="b" d="M149.1,141.155a21.59,21.59,0,0,0-5.821-4.643.445.445,0,1,0-.408.79,20.887,20.887,0,0,1,5.293,4.14c-1.06,1.148-5.229,5.333-9.625,5.333a10.248,10.248,0,0,1-4.469-1.071.444.444,0,1,0-.386.8,11.115,11.115,0,0,0,4.855,1.16c5.476,0,10.356-5.692,10.562-5.935A.444.444,0,0,0,149.1,141.155Z" transform="translate(-133.435 -136.461)"/></g><g transform="translate(0 65.785)"><g transform="translate(0 0)"><path class="b" d="M13.583,107.171a9.178,9.178,0,0,0-2.916-.512C5.19,106.659.31,112.351.1,112.594a.444.444,0,0,0-.025.541A16.5,16.5,0,0,0,4.157,117a.441.441,0,0,0,.615-.125.443.443,0,0,0-.124-.615,16.254,16.254,0,0,1-3.629-3.355c1.023-1.111,5.22-5.357,9.648-5.357a8.319,8.319,0,0,1,2.633.465.438.438,0,0,0,.563-.279A.444.444,0,0,0,13.583,107.171Z" transform="translate(0 -106.659)"/></g></g><g transform="translate(2.666 64.008)"><g transform="translate(0 0)"><path class="b" d="M79.865,64.138a.445.445,0,0,0-.628,0L64.126,79.249a.444.444,0,0,0,.628.628L79.865,64.766A.445.445,0,0,0,79.865,64.138Z" transform="translate(-63.996 -64.008)"/></g></g></g></g></svg>