<svg xmlns="http://www.w3.org/2000/svg" width="30.535" height="30.535" viewBox="0 0 30.535 30.535"><defs><style>.a{fill:#f6b333;}</style></defs><path class="a" d="M26.063,4.472A15.268,15.268,0,0,0,4.472,26.064,15.268,15.268,0,1,0,26.063,4.472Zm-.981.981a13.789,13.789,0,0,1,4.065,9.814H26A10.746,10.746,0,0,0,15.268,4.534c-.351,0-.7.018-1.041.051V1.426q.517-.038,1.041-.038A13.789,13.789,0,0,1,25.082,5.453Zm-9.814,19.16a9.346,9.346,0,1,1,9.346-9.346A9.356,9.356,0,0,1,15.268,24.613Z" transform="translate(0)"/></svg>