<svg xmlns="http://www.w3.org/2000/svg" width="40" height="40" viewBox="0 0 40 40"><defs><style>.a{fill:#f6b333;}.b{fill:#fff;}</style></defs><g transform="translate(-357.767 -363.75)"><path class="a" d="M377.754,363.75a20,20,0,1,1-19.987,19.913A19.946,19.946,0,0,1,377.754,363.75Z" transform="translate(0 0)"/><path class="b" d="M406.935,396.664a16.314,16.314,0,1,1-16.311,16.317A16.318,16.318,0,0,1,406.935,396.664Z" transform="translate(-29.169 -29.219)"/><path class="a" d="M472.614,477.695c0-2.077.026-4.154-.009-6.23a1.976,1.976,0,0,1,2.158-2.163c.446.036.9,0,1.346.009a1.835,1.835,0,0,1,1.8,1.621,4.1,4.1,0,0,1,.038.545q0,6.23,0,12.459a2.22,2.22,0,0,1-.456,1.536,1.893,1.893,0,0,1-1.441.673c-.463.013-.926.006-1.389,0a1.922,1.922,0,0,1-2.051-2.056C472.61,481.96,472.614,479.827,472.614,477.695Z" transform="translate(-102.144 -93.97)"/><path class="a" d="M561.783,477.807q0,3.177,0,6.354a1.906,1.906,0,0,1-2.076,2.062c-.449,0-.9.011-1.346,0a1.882,1.882,0,0,1-1.886-1.912q-.01-6.522,0-13.045a1.855,1.855,0,0,1,1.865-1.878q.778-.015,1.557,0a1.852,1.852,0,0,1,1.882,1.9C561.79,473.458,561.783,475.632,561.783,477.807Z" transform="translate(-176.74 -94.043)"/></g></svg>