<svg xmlns="http://www.w3.org/2000/svg" width="24" height="24" viewBox="0 0 24 24"><defs><style>.a{fill:#fff;}</style></defs><g transform="translate(-348.75 -348.75)"><path class="a" d="M372.75,360.047v1.406c-.014.068-.029.136-.041.2-.133.767-.205,1.55-.406,2.3a11.948,11.948,0,0,1-9.509,8.612c-.444.075-.893.122-1.34.182h-1.406c-.154-.018-.307-.038-.461-.054a12.015,12.015,0,0,1-10.653-9.9c-.077-.444-.123-.893-.183-1.339v-1.406c.028-.222.058-.444.084-.667a11.994,11.994,0,0,1,9.895-10.45c.437-.074.879-.121,1.318-.18h1.406a1.645,1.645,0,0,0,.2.04,11.031,11.031,0,0,1,4.013,1.019,11.838,11.838,0,0,1,6.9,8.921C372.652,359.165,372.691,359.608,372.75,360.047Zm-1.972.708a10.028,10.028,0,1,0-10.045,10.023A10.048,10.048,0,0,0,370.778,360.755Z"/><path class="a" d="M559.077,473.447c0,1.145,0,2.291,0,3.436a1,1,0,0,1-.843,1.056.987.987,0,0,1-1.129-.847A.9.9,0,0,1,557.1,477q0-3.554,0-7.108a.956.956,0,0,1,.729-.928.991.991,0,0,1,1.247,1.025C559.081,471.141,559.077,472.294,559.077,473.447Z" transform="translate(-195.331 -112.69)"/><path class="a" d="M494.849,473.449c0,1.169.006,2.338,0,3.507a.979.979,0,0,1-1.251.963,1,1,0,0,1-.726-1.009c0-1.02,0-2.04,0-3.06,0-1.287,0-2.573,0-3.86a.992.992,0,0,1,1.248-1.024.978.978,0,0,1,.731,1C494.852,471.126,494.85,472.287,494.849,473.449Z" transform="translate(-135.114 -112.693)"/></g></svg>