<svg xmlns="http://www.w3.org/2000/svg" width="14" height="16.333" viewBox="0 0 14 16.333">
  <path id="_1608367_half_hourglass_icon" data-name="1608367_half_hourglass_icon" d="M140.833,1.167a8.832,8.832,0,0,1-.971,4.206,7.446,7.446,0,0,1-2.429,2.794,7.446,7.446,0,0,1,2.429,2.794,8.832,8.832,0,0,1,.971,4.206h.875a.281.281,0,0,1,.292.292v.583a.281.281,0,0,1-.292.292H128.292a.281.281,0,0,1-.292-.292v-.583a.281.281,0,0,1,.292-.292h.875a8.832,8.832,0,0,1,.971-4.206,7.446,7.446,0,0,1,2.429-2.794,7.446,7.446,0,0,1-2.429-2.794,8.832,8.832,0,0,1-.971-4.206h-.875A.281.281,0,0,1,128,.875V.292A.281.281,0,0,1,128.292,0h13.417A.281.281,0,0,1,142,.292V.875a.281.281,0,0,1-.292.292Zm-1.167,0h-9.333a8.017,8.017,0,0,0,.775,3.5h7.784A8.017,8.017,0,0,0,139.667,1.167Zm-.52,11.083a6.888,6.888,0,0,0-1.326-2.2,4.956,4.956,0,0,0-1.773-1.3h-2.1a4.956,4.956,0,0,0-1.773,1.3,6.888,6.888,0,0,0-1.326,2.2Z" transform="translate(-128)" fill="#f8b432"/>
</svg>
