<svg xmlns="http://www.w3.org/2000/svg" width="23.119" height="28" viewBox="0 0 23.119 28">
  <g id="add" transform="translate(0 0)">
    <path id="Path_3687" data-name="Path 3687" d="M354.781,15.881l2.948.005-2.948-2.948Zm0,0" transform="translate(-335.379 -12.23)" fill="#f6b333"/>
    <path id="Path_3688" data-name="Path 3688" d="M67.575,5.309a.83.83,0,0,1-.828-.83V0H52.67a.83.83,0,0,0-.83.83V15.621a7.307,7.307,0,0,1,4.238-.419.829.829,0,0,1,.743-1.2h10a.83.83,0,1,1,0,1.66H57.547A7.3,7.3,0,0,1,61.185,25.6H71.294a.83.83,0,0,0,.83-.83V5.317Zm-3.747,3a.83.83,0,0,1-.83.83H56.821a.83.83,0,0,1,0-1.66H63A.83.83,0,0,1,63.828,8.3ZM66.816,12.4h-10a.83.83,0,1,1,0-1.66h10a.83.83,0,1,1,0,1.66Zm0,0" transform="translate(-49.005)" fill="#f6b333"/>
    <path id="Path_3689" data-name="Path 3689" d="M11.28,311.382a5.64,5.64,0,1,0-5.64,5.64A5.646,5.646,0,0,0,11.28,311.382Zm-4.017.83H6.47V313a.83.83,0,1,1-1.66,0v-.793H4.017a.83.83,0,0,1,0-1.66H4.81v-.793a.83.83,0,1,1,1.66,0v.793h.793a.83.83,0,0,1,0,1.66Zm0,0" transform="translate(0 -289.022)" fill="#f6b333"/>
  </g>
</svg>
