<svg xmlns="http://www.w3.org/2000/svg" width="32" height="32" viewBox="0 0 32 32"><defs><style>.a{fill:#4c68d7;opacity:0;}.b{fill:#fff;}</style></defs><path class="a" d="M32,16A16,16,0,1,1,16,0,16,16,0,0,1,32,16Z"/><g transform="translate(3.858 3.837)"><path class="b" d="M24.208,7.18a8.807,8.807,0,0,0-.565-2.989A6.217,6.217,0,0,0,20.092.641,8.909,8.909,0,0,0,17.144.074c-1.3-.058-1.709-.074-5-.074s-3.715,0-5,.074A8.909,8.909,0,0,0,4.192.641,6.213,6.213,0,0,0,.641,4.192,8.839,8.839,0,0,0,.076,7.138c-.058,1.3-.076,1.71-.076,5s0,3.714.076,5a8.9,8.9,0,0,0,.565,2.949,6.217,6.217,0,0,0,3.552,3.55,8.879,8.879,0,0,0,2.947.607c1.3.058,1.71.076,5,.076s3.715,0,5-.076a8.887,8.887,0,0,0,2.948-.565,6.224,6.224,0,0,0,3.551-3.551,8.882,8.882,0,0,0,.565-2.949c.058-1.3.076-1.709.076-5s0-3.711-.078-5ZM12.134,18.37a6.235,6.235,0,1,1,4.409-1.826,6.233,6.233,0,0,1-4.409,1.826ZM18.617,7.123A1.454,1.454,0,1,1,20.069,5.67,1.452,1.452,0,0,1,18.617,7.123Z" transform="translate(0 0)"/><path class="b" d="M8.1,4.05A4.05,4.05,0,1,1,4.05,0,4.05,4.05,0,0,1,8.1,4.05Z" transform="translate(8.082 8.085)"/></g></svg>