<svg xmlns="http://www.w3.org/2000/svg" width="24" height="24" viewBox="0 0 24 24"><defs><style>.a{fill:#4c68d7;}.b{fill:#fff;}</style></defs><g transform="translate(-1319 -988)"><path class="a" d="M24,12A12,12,0,1,1,12,0,12,12,0,0,1,24,12Z" transform="translate(1319 988)"/><g transform="translate(1324 993)"><path class="b" d="M10.471,3.106a3.809,3.809,0,0,0-.244-1.293A2.689,2.689,0,0,0,8.69.277,3.853,3.853,0,0,0,7.415.032C6.854.007,6.676,0,5.252,0S3.645,0,3.088.032A3.854,3.854,0,0,0,1.813.277,2.687,2.687,0,0,0,.277,1.813,3.823,3.823,0,0,0,.033,3.088C.008,3.649,0,3.827,0,5.252S0,6.858.033,7.416A3.847,3.847,0,0,0,.277,8.692a2.689,2.689,0,0,0,1.536,1.535,3.841,3.841,0,0,0,1.275.262c.562.025.74.033,2.164.033s1.607,0,2.164-.033a3.844,3.844,0,0,0,1.275-.244,2.692,2.692,0,0,0,1.536-1.536,3.842,3.842,0,0,0,.244-1.276c.025-.561.033-.739.033-2.164s0-1.605-.034-2.164ZM5.248,7.946a2.7,2.7,0,1,1,1.907-.79,2.7,2.7,0,0,1-1.907.79Zm2.8-4.864a.629.629,0,1,1,.628-.629A.628.628,0,0,1,8.052,3.081Z" transform="translate(1.749 1.739)"/><path class="b" d="M3.5,1.752A1.752,1.752,0,1,1,1.752,0,1.752,1.752,0,0,1,3.5,1.752Z" transform="translate(5.244 5.236)"/></g></g></svg>