<svg xmlns="http://www.w3.org/2000/svg" width="353.955" height="197.652" viewBox="0 0 353.955 197.652"><defs><style>.a{fill:#ebebeb;}.b{fill:#e0e0e0;}.c{fill:#f5f5f5;}.d{fill:#f6b333;}.e{fill:#263238;}.f{fill:#2a5798;}.g{fill:#fafafa;}.h{fill:#df9200;}.i{opacity:0.5;}.j{fill:#ffbe9d;}.k{opacity:0.3;}.l{opacity:0.2;}.m{opacity:0.6;}.n{fill:#fff;}.o{fill:#1c1b1b;}.p{fill:#455a64;}.q{fill:#eb996e;}.r{fill:#2e3b61;}.s{fill:#eaaa78;}.t{fill:#ebaf7f;}.u{fill:#d79662;}.v{fill:#e7f1fd;}.w{fill:#eebd94;}.x{fill:#d1e5ff;}</style></defs><g transform="translate(29.146 -46.313)"><g transform="translate(-29.146 51.848)"><g transform="translate(0 67.121)"><path class="a" d="M61.607,198.092s-3.791-.273-3.442,8.231a98.482,98.482,0,0,0,1.217,13.034s-.112,1.886-1.572,1.515-4.208-2.205-5.564-.833c-1.407,1.422-.907,3.6.96,6.175s5.749,8.352,6.1,8.876.48,1.479-.555,1.386-8.023-2.461-8.948.922,5.451,9.689,6.135,10.392.721,1.146.443,1.571-2.551-.592-4.566-1.184-4.455-.925-4.826,1.071,2.438,7.839,12.956,13.98L65,265.754l4.789-3.055c9.851-7.162,12.06-13.256,11.493-15.206s-2.963-1.373-4.909-.583-4.106,2.031-4.425,1.635-.326-.84.284-1.608,6.324-7.679,5.065-10.953-7.975-.218-9-.022-.98-.778-.691-1.324,3.58-6.7,5.18-9.441,1.88-4.965.337-6.24c-1.487-1.229-4.037.871-5.453,1.386s-1.715-1.351-1.715-1.351a98.489,98.489,0,0,0-.093-13.09c-.5-8.5-4.339-7.811-4.339-7.811" transform="translate(-46.955 -198.078)"/><g transform="translate(14.95 7.63)"><path class="b" d="M78.185,214.016s.01.06.02.178.023.3.04.522c.032.468.078,1.143.136,2.008.116,1.744.265,4.269.438,7.39.347,6.241.752,14.867,1.168,24.4s.8,18.158,1.112,24.4c.158,3.115.287,5.638.376,7.392.043.866.077,1.542.1,2.01.009.223.016.4.021.523s0,.179,0,.179-.01-.06-.02-.178-.023-.3-.04-.522c-.032-.468-.078-1.143-.136-2.008-.116-1.744-.265-4.269-.438-7.389-.347-6.241-.752-14.868-1.169-24.4s-.8-18.153-1.112-24.4c-.158-3.115-.287-5.638-.376-7.393-.043-.866-.077-1.542-.1-2.01-.009-.224-.016-.4-.021-.523S78.185,214.016,78.185,214.016Z" transform="translate(-78.183 -214.016)"/></g><g transform="translate(9.029 24.682)"><path class="b" d="M65.816,249.635a1.685,1.685,0,0,1,.315.262c.195.177.468.441.8.771.668.662,1.566,1.6,2.537,2.653l2.475,2.708.753.817a1.676,1.676,0,0,1,.264.313,1.679,1.679,0,0,1-.317-.259c-.194-.178-.468-.442-.8-.776-.662-.668-1.547-1.618-2.518-2.671l-2.493-2.689-.758-.814A1.623,1.623,0,0,1,65.816,249.635Z" transform="translate(-65.816 -249.635)"/></g><g transform="translate(16.677 23.519)"><path class="b" d="M81.791,255.725c-.038-.037,1.813-1.975,4.133-4.328s4.233-4.229,4.271-4.192-1.812,1.975-4.133,4.328S81.83,255.763,81.791,255.725Z" transform="translate(-81.791 -247.205)"/></g><g transform="translate(16.657 41.169)"><path class="b" d="M81.749,289.606a1.73,1.73,0,0,1,.353-.224l.99-.556c.835-.469,1.986-1.121,3.231-1.886s2.351-1.49,3.147-2.023l.944-.63a1.713,1.713,0,0,1,.36-.213,1.739,1.739,0,0,1-.315.274c-.211.166-.52.4-.91.681-.777.563-1.873,1.312-3.124,2.077s-2.413,1.4-3.267,1.841c-.428.218-.776.39-1.02.5A1.718,1.718,0,0,1,81.749,289.606Z" transform="translate(-81.749 -284.073)"/></g><g transform="translate(8.274 41.569)"><path class="b" d="M64.239,284.911a1.47,1.47,0,0,1,.35.164c.219.116.532.291.918.51.77.438,1.827,1.054,2.989,1.745s2.208,1.326,2.961,1.794c.376.234.679.426.886.563a1.486,1.486,0,0,1,.312.229,1.474,1.474,0,0,1-.35-.164c-.219-.116-.532-.291-.917-.509-.77-.438-1.828-1.054-2.99-1.745s-2.208-1.326-2.961-1.793c-.376-.234-.679-.427-.886-.563A1.493,1.493,0,0,1,64.239,284.911Z" transform="translate(-64.238 -284.909)"/></g><g transform="translate(6.612 54.512)"><path class="b" d="M60.766,311.945a2.4,2.4,0,0,1,.445.215l1.178.65c.99.556,2.351,1.335,3.848,2.207s2.848,1.67,3.821,2.256l1.147.7a2.4,2.4,0,0,1,.407.281,2.42,2.42,0,0,1-.445-.215l-1.178-.65c-.99-.556-2.352-1.335-3.849-2.207s-2.848-1.669-3.82-2.255l-1.147-.7A2.425,2.425,0,0,1,60.766,311.945Z" transform="translate(-60.766 -311.943)"/></g><g transform="translate(17.24 53.269)"><path class="b" d="M82.967,316.678a2.825,2.825,0,0,1,.44-.295l1.23-.749c1.038-.632,2.469-1.51,4.021-2.523s2.938-1.963,3.936-2.657l1.182-.822a2.82,2.82,0,0,1,.447-.283,2.728,2.728,0,0,1-.4.344c-.267.212-.658.511-1.147.872-.978.724-2.352,1.7-3.91,2.708s-3,1.876-4.058,2.479c-.529.3-.96.539-1.262.7A2.757,2.757,0,0,1,82.967,316.678Z" transform="translate(-82.967 -309.347)"/></g><g transform="translate(10.847 69.331)"><path class="b" d="M83.61,342.9h-14l4.569,34.585h4.861Z" transform="translate(-69.612 -342.899)"/><g transform="translate(0.725 2.826)"><path class="c" d="M71.128,350.227c-.005,0,.016.049.075.124a.883.883,0,0,0,.338.241,1.694,1.694,0,0,0,1.478-.181,11.23,11.23,0,0,1,1.815-1.195,3.974,3.974,0,0,1,2.574.051,10.989,10.989,0,0,1,2.4,1.161,16.681,16.681,0,0,0,1.949,1.046,5.383,5.383,0,0,0,1.438.416,2.659,2.659,0,0,0,.406.027c.093,0,.142,0,.142-.012a7.273,7.273,0,0,1-1.92-.578,19.149,19.149,0,0,1-1.906-1.079,10.641,10.641,0,0,0-2.438-1.2,4.107,4.107,0,0,0-2.717-.03,3.567,3.567,0,0,0-1.023.632,8.039,8.039,0,0,1-.8.621,1.644,1.644,0,0,1-1.363.236A1.4,1.4,0,0,1,71.128,350.227Z" transform="translate(-71.127 -348.801)"/></g><g transform="translate(1.236 8.083)"><path class="c" d="M72.195,362.321c.019.012.111-.143.33-.371a3.113,3.113,0,0,1,1.118-.71,5,5,0,0,1,1.947-.293,20.5,20.5,0,0,1,2.436.332,8.366,8.366,0,0,0,2.494.1,6.858,6.858,0,0,0,1.963-.56,6.21,6.21,0,0,0,1.18-.7,1.666,1.666,0,0,0,.374-.336,12.444,12.444,0,0,1-1.618.89,7.182,7.182,0,0,1-1.923.5,8.594,8.594,0,0,1-2.433-.12,18.355,18.355,0,0,0-2.465-.316,4.923,4.923,0,0,0-2.014.354,2.937,2.937,0,0,0-1.123.8,2,2,0,0,0-.212.31C72.206,362.276,72.188,362.317,72.195,362.321Z" transform="translate(-72.193 -359.783)"/></g><g transform="translate(2.03 13.066)"><path class="c" d="M84.235,371.157a1.183,1.183,0,0,0-.386-.2,4.14,4.14,0,0,0-1.16-.248,7.39,7.39,0,0,0-1.754.1c-.653.106-1.352.286-2.087.442a8.8,8.8,0,0,1-2.085.235,4.538,4.538,0,0,1-1.655-.358,3.826,3.826,0,0,1-1.255-.934,1.086,1.086,0,0,0,.237.365,2.967,2.967,0,0,0,.95.716,4.473,4.473,0,0,0,1.714.422,8.448,8.448,0,0,0,2.141-.222c.743-.158,1.438-.344,2.076-.459a8.046,8.046,0,0,1,1.709-.146A6.431,6.431,0,0,1,84.235,371.157Z" transform="translate(-73.851 -370.192)"/></g><g transform="translate(2.474 18.014)"><path class="c" d="M74.78,381.341a2.27,2.27,0,0,1,1.359-.137,6.549,6.549,0,0,1,1.422.53,5.4,5.4,0,0,0,1.846.508,5.533,5.533,0,0,0,3.349-.776,4.752,4.752,0,0,0,.834-.641c.17-.181.258-.286.247-.3a12.137,12.137,0,0,1-1.161.8,5.741,5.741,0,0,1-3.247.688c-1.325-.076-2.342-.866-3.262-.97a2.082,2.082,0,0,0-1.056.091A.694.694,0,0,0,74.78,381.341Z" transform="translate(-74.779 -380.527)"/></g><g transform="translate(3.254 23.532)"><path class="c" d="M76.409,393.987a2.683,2.683,0,0,0,1.167-.232c.7-.235,1.574-.775,2.591-1.179a4.214,4.214,0,0,1,1.487-.311,2.735,2.735,0,0,1,1.2.273,2.645,2.645,0,0,1,.865.746.641.641,0,0,0-.133-.295,1.915,1.915,0,0,0-.656-.594,2.742,2.742,0,0,0-1.269-.341,4.161,4.161,0,0,0-1.572.309c-1.054.42-1.9.975-2.569,1.241C76.853,393.892,76.4,393.95,76.409,393.987Z" transform="translate(-76.409 -392.053)"/></g><g transform="translate(3.94 28.546)"><path class="c" d="M77.842,402.535a3.266,3.266,0,0,0,.887.288,16.287,16.287,0,0,0,4.461.439,3.264,3.264,0,0,0,.925-.11c0-.069-1.418-.009-3.149-.183S77.859,402.467,77.842,402.535Z" transform="translate(-77.842 -402.526)"/></g></g></g><g transform="translate(270.111 78.001)"><g transform="translate(0 0)"><rect class="c" width="43.668" height="29.434" transform="matrix(0.975, -0.223, 0.223, 0.975, 0, 9.729)"/></g><g transform="translate(0.215 0.314)"><path class="b" d="M576.864,221.46a3.021,3.021,0,0,1-.309.472l-.948,1.309-3.548,4.775-11.852,15.7-.1.129-.146-.071-.354-.17-17.937-8.71-5.416-2.68-1.464-.746a3.119,3.119,0,0,1-.5-.285,3.094,3.094,0,0,1,.533.213l1.5.68,5.471,2.567,17.988,8.6.354.17-.244.059,11.946-15.633,3.648-4.7,1.007-1.264A3.022,3.022,0,0,1,576.864,221.46Z" transform="translate(-534.294 -221.459)"/></g><g transform="translate(6.77 18.081)"><path class="b" d="M547.989,279.227c-.1-.05,2.205-4.715,5.142-10.418s5.4-10.288,5.5-10.237-2.2,4.714-5.143,10.419S548.086,279.277,547.989,279.227Z" transform="translate(-547.986 -258.571)"/></g><g transform="translate(31.477 14.487)"><path class="b" d="M599.6,251.066c.069-.085,4.124,3.1,9.057,7.105s8.877,7.329,8.808,7.414-4.124-3.1-9.058-7.106S599.526,251.151,599.6,251.066Z" transform="translate(-599.595 -251.064)"/></g></g><g transform="translate(119.149 0)"><g transform="translate(0)"><rect class="c" width="17.354" height="25.747" transform="matrix(0.225, -0.974, 0.974, 0.225, 0, 16.909)"/></g><g transform="translate(3.938 0.222)"><path class="b" d="M251.824,64.13a1.768,1.768,0,0,1-.285.171l-.84.451-3.111,1.621L237.26,71.654l-.085.043-.059-.075-.144-.182L229.7,62.2l-2.184-2.815-.584-.773a1.877,1.877,0,0,1-.191-.28,1.875,1.875,0,0,1,.228.25l.619.745,2.242,2.769,7.328,9.193.144.181-.144-.032,10.359-5.219,3.144-1.554.86-.412A1.8,1.8,0,0,1,251.824,64.13Z" transform="translate(-226.737 -58.337)"/></g><g transform="translate(0.033 8.909)"><path class="b" d="M218.581,84.705c-.039-.052,2.383-1.934,5.408-4.2s5.51-4.069,5.549-4.017-2.382,1.934-5.409,4.2S218.62,84.757,218.581,84.705Z" transform="translate(-218.581 -76.484)"/></g><g transform="translate(19.376 10.625)"><path class="b" d="M258.988,80.067c.059-.027,1.391,2.7,2.976,6.1s2.824,6.172,2.765,6.2-1.391-2.7-2.977-6.1S258.929,80.094,258.988,80.067Z" transform="translate(-258.986 -80.067)"/></g></g><g transform="translate(263.74 4.22)"><g transform="translate(0 0)"><rect class="c" width="19.95" height="13.447" transform="matrix(0.919, -0.395, 0.395, 0.919, 0, 7.877)"/></g><g transform="translate(0.122 0.123)"><path class="b" d="M539.122,66.946a1.331,1.331,0,0,1-.1.238l-.318.666-1.2,2.438-4.033,8.033-.033.067-.071-.02-.173-.047-8.778-2.437-2.655-.759-.719-.215a1.418,1.418,0,0,1-.248-.087,1.453,1.453,0,0,1,.258.052l.728.182,2.669.7,8.792,2.386.173.048-.1.046,4.081-8.009,1.252-2.412.348-.651A1.438,1.438,0,0,1,539.122,66.946Z" transform="translate(-520.793 -66.946)"/></g><g transform="translate(5.429 10.197)"><path class="b" d="M531.88,98.146c-.048-.014.6-2.3,1.453-5.1s1.579-5.067,1.627-5.053-.6,2.3-1.453,5.105S531.928,98.16,531.88,98.146Z" transform="translate(-531.878 -87.988)"/></g><g transform="translate(14.537 7.423)"><path class="b" d="M550.9,82.195c.024-.044,2.108,1.052,4.655,2.447s4.593,2.563,4.568,2.607-2.108-1.052-4.655-2.448S550.88,82.239,550.9,82.195Z" transform="translate(-550.904 -82.193)"/></g></g></g><g transform="translate(265.637 130.859)"><g transform="translate(0)"><g transform="translate(1.682 47.911)"><path class="d" d="M598.768,325.273a15.16,15.16,0,0,0-6.485-2.232,4.322,4.322,0,0,0-3.068.564.63.63,0,0,0-.316.56.684.684,0,0,0,.3.383,9.273,9.273,0,0,0,9.57.725" transform="translate(-588.893 -322.992)"/></g><g transform="translate(4.497 39.84)"><path class="d" d="M601.667,316.3a31.659,31.659,0,0,1-4.189-3.685,10.6,10.6,0,0,1-2.626-4.857,1.957,1.957,0,0,1,.207-1.625c3.339,2.608,5.962,5.98,6.607,10.167" transform="translate(-594.774 -306.134)"/></g><g transform="translate(11.309 40.128)"><path class="d" d="M609.216,316.774a15.145,15.145,0,0,1,.077-5.5,7.435,7.435,0,0,1,2.93-4.538,6.491,6.491,0,0,1-.078,4.311,20.951,20.951,0,0,1-2.9,6.116" transform="translate(-609.003 -306.736)"/></g><g transform="translate(6.619 56.032)"><path class="d" d="M607.382,339.955a9.583,9.583,0,0,0-5.2,2.632,9.84,9.84,0,0,0-2.975,5.108,7.018,7.018,0,0,0,4.8-3.036c1.2-1.541,2.03-3.232,3.347-4.673" transform="translate(-599.206 -339.955)"/></g><g transform="translate(14.612 44.835)"><path class="d" d="M616.8,328.7a12.827,12.827,0,0,1,1.481-12.134A15.444,15.444,0,0,1,616.8,328.7" transform="translate(-615.902 -316.568)"/></g><g transform="translate(10.827 62.102)"><path class="d" d="M617,352.652a9.278,9.278,0,0,0-8.87,5.106c-.11.22-.207.5-.059.7a.659.659,0,0,0,.588.173,7.717,7.717,0,0,0,4.576-2.363,43.761,43.761,0,0,1,3.8-3.616" transform="translate(-607.996 -352.635)"/></g><g transform="translate(18.951 49.549)"><path class="d" d="M625.707,338.7a16.523,16.523,0,0,1-.165-9.228,4.5,4.5,0,0,1,1.969-3,.386.386,0,0,1,.3-.053.4.4,0,0,1,.191.221,5.559,5.559,0,0,1,.464,2.647,16.574,16.574,0,0,1-.415,2.68,14.243,14.243,0,0,1-1.428,4.811,9.731,9.731,0,0,0-.571,1.057c-.17.359-.171.485-.327.771" transform="translate(-624.965 -326.414)"/></g><g transform="translate(30.824 53.38)"><path class="d" d="M650.083,344.58a11.9,11.9,0,0,1,2.085-9.783c.15-.194.348-.4.593-.381.374.034.472.533.455.909a17.672,17.672,0,0,1-3.133,9.254" transform="translate(-649.765 -334.416)"/></g><g transform="translate(32.174 60.868)"><path class="d" d="M652.585,353.44a14.228,14.228,0,0,0,11.677-2.375,9.455,9.455,0,0,0-6.321-.776,9.022,9.022,0,0,0-5.356,3.151" transform="translate(-652.585 -350.057)"/></g><g transform="translate(33.044 55.974)"><path class="d" d="M654.4,345.963a13.494,13.494,0,0,1,10.6-6.128,6.527,6.527,0,0,1-3.466,3.832,19.243,19.243,0,0,1-5.087,1.487,3.586,3.586,0,0,0-2.044.808" transform="translate(-654.404 -339.835)"/></g><g transform="translate(29.837 39.332)"><path class="d" d="M649.227,317.419a30.78,30.78,0,0,0,1.355-6.206,10.336,10.336,0,0,0-1.236-6.139,13.514,13.514,0,0,0-.18,12.559" transform="translate(-647.705 -305.073)"/></g><g transform="translate(38.264 39.861)"><path class="d" d="M665.306,314.5a16.629,16.629,0,0,1,12.241-8.328,13.637,13.637,0,0,1-12.241,8.328" transform="translate(-665.306 -306.177)"/></g><g transform="translate(36.755 48.328)"><path class="d" d="M662.155,324.577c3.576.545,6.623,2.829,9.965,4.214a4.469,4.469,0,0,0,2.253.431,1.764,1.764,0,0,0,1.1-3.12,4.822,4.822,0,0,0-1.637-.992,18.184,18.184,0,0,0-11.378-.634" transform="translate(-662.155 -323.862)"/></g><g transform="translate(34.686 51.378)"><path class="d" d="M657.832,330.408a4.221,4.221,0,0,1,1.727,1.2,18.636,18.636,0,0,0,7.557,3.882c.289.072.667.1.811-.16.125-.228-.033-.5-.2-.707a10.4,10.4,0,0,0-4.563-3.1c-1.744-.65-3.255-1.432-5.337-1.264" transform="translate(-657.832 -330.235)"/></g><g transform="translate(32.35 36.014)"><path class="d" d="M652.953,298.529a14.3,14.3,0,0,0,10.965,3.731.754.754,0,0,0,.5-.179c.276-.3-.056-.764-.377-1.015a12.633,12.633,0,0,0-11.088-2.537" transform="translate(-652.953 -298.142)"/></g><g transform="translate(35.119 32.41)"><path class="d" d="M658.737,293.592a15.283,15.283,0,0,1,13.682-2.258,10.865,10.865,0,0,1-6.52,2.862,20.641,20.641,0,0,1-7.162-.6" transform="translate(-658.737 -290.614)"/></g><g transform="translate(32.17 18.749)"><path class="d" d="M654.427,271.756c-.317-3.218-.112-5.758-.335-8.99-.018-.259-.073-.569-.315-.662-.337-.13-.617.284-.727.627a10.306,10.306,0,0,0,1.372,8.954" transform="translate(-652.578 -262.079)"/></g><g transform="translate(33.787 18.666)"><path class="d" d="M655.955,272.021a18.924,18.924,0,0,0,5.33-5.18,7.086,7.086,0,0,0,1.7-4.934,5.1,5.1,0,0,0-3.845,1.909,10.724,10.724,0,0,0-1.96,3.943c-.427,1.416-.726,2.871-1.227,4.262" transform="translate(-655.955 -261.905)"/></g><g transform="translate(38.955 19.268)"><path class="d" d="M666.819,271.221a42.975,42.975,0,0,0,13.117-7.735,6.694,6.694,0,0,0-4.927.379,15.538,15.538,0,0,0-8.258,7.321" transform="translate(-666.751 -263.161)"/></g><g transform="translate(35.26 26.748)"><path class="d" d="M659.031,282.58a26.687,26.687,0,0,0,7.284.036,30.935,30.935,0,0,0,6.8-2.26.8.8,0,0,0,.462-.35.533.533,0,0,0-.166-.582,1.4,1.4,0,0,0-.58-.271,12.587,12.587,0,0,0-7.348.439,34.091,34.091,0,0,0-6.451,2.989" transform="translate(-659.031 -278.786)"/></g><g transform="translate(20.22 25.848)"><path class="d" d="M628.829,287.57a12.882,12.882,0,0,1-.118-10.663,8.146,8.146,0,0,1,.944,5.3c-.184,1.822-.738,3.7-.774,5.527" transform="translate(-627.615 -276.907)"/></g><g transform="translate(3.782 33.18)"><path class="d" d="M604.331,292.224a14.873,14.873,0,0,0-11.051,4.708,10.325,10.325,0,0,0,6.051-1.122,30.8,30.8,0,0,0,5.186-3.471" transform="translate(-593.28 -292.222)"/></g><g transform="translate(0 31.504)"><path class="d" d="M595.776,288.916a15.416,15.416,0,0,0-5.9.181,7.079,7.079,0,0,0-4.5,3.813,10.659,10.659,0,0,0,5.531-1.045,31.814,31.814,0,0,0,4.865-2.949" transform="translate(-585.38 -288.722)"/></g><g transform="translate(5.136 28.669)"><path class="d" d="M607.939,285.9A18.612,18.612,0,0,0,602.146,283a6.313,6.313,0,0,0-6.037,1.465,11.281,11.281,0,0,0,5.77,1.121,19.922,19.922,0,0,1,6.286.638" transform="translate(-596.109 -282.799)"/></g><g transform="translate(13.455 19.174)"><path class="d" d="M617.006,275.655c-3.1-3.048-4.279-8.522-3.031-12.688a19.334,19.334,0,0,1,3.031,12.688" transform="translate(-613.484 -262.967)"/></g><g transform="translate(25.51 13.215)"><path class="d" d="M638.666,260.532c.585-1.36,1-2.789,1.522-4.173a12,12,0,0,1,2.17-3.848,5.714,5.714,0,0,1,3.844-1.992,15.482,15.482,0,0,1-7.459,10.035" transform="translate(-638.666 -250.519)"/></g><g transform="translate(15.938 19.558)"><path class="d" d="M626.7,269.238a19.966,19.966,0,0,0-3.4-4.138,5.69,5.69,0,0,0-4.626-1.215,10.777,10.777,0,0,0,8.027,5.353" transform="translate(-618.672 -263.769)"/></g><g transform="translate(22.632 13.34)"><path class="d" d="M634.3,260.779a23.009,23.009,0,0,1-1.531-4.958,7.733,7.733,0,0,1,.776-5.041c1.7,3.22,2.252,6.676.842,10.035" transform="translate(-632.654 -250.78)"/></g><g transform="translate(25.525 6.515)"><path class="d" d="M638.7,243.349c.965-3.192,3.888-5.542,7.044-6.621a2.631,2.631,0,0,1,1.235-.185,1.072,1.072,0,0,1,.91.76c.115.543-.333,1.03-.756,1.39a23.975,23.975,0,0,1-8.433,4.656" transform="translate(-638.698 -236.524)"/></g><g transform="translate(25.51)"><path class="d" d="M638.716,233.644a22.881,22.881,0,0,1,.921-6.1,7.706,7.706,0,0,1,3.836-4.633c.319,2.079-.6,4.147-1.7,5.936a27.209,27.209,0,0,0-3.1,5.472" transform="translate(-638.666 -222.915)"/></g><g transform="translate(19.524 0.956)"><path class="d" d="M632.149,236.1c-.8-2.326-.88-5.281-2.273-7.308-.974-1.417-2.534-2.382-3.372-3.883a5.906,5.906,0,0,0,.2,4.407,12.748,12.748,0,0,0,2.577,3.69c1.031,1.1,1.914,1.929,2.872,3.094" transform="translate(-626.163 -224.911)"/></g><g transform="translate(25.405 11.336)"><path class="e" d="M638.567,315.915c-.062,0-.115-15.519-.12-34.659s.042-34.663.1-34.663.115,15.516.12,34.663S638.63,315.915,638.567,315.915Z" transform="translate(-638.448 -246.593)"/></g><g transform="translate(25.506 34.167)"><path class="e" d="M652.239,294.286a3.328,3.328,0,0,1-.583.219l-1.606.542c-1.354.461-3.214,1.129-5.233,1.957a21.229,21.229,0,0,0-4.958,2.484,3.637,3.637,0,0,0-1,1.318c-.154.364-.181.587-.2.583a.445.445,0,0,1,.007-.163,2.445,2.445,0,0,1,.114-.452,3.5,3.5,0,0,1,.972-1.405,8.725,8.725,0,0,1,2.151-1.336c.86-.4,1.814-.821,2.826-1.237,2.025-.83,3.9-1.476,5.269-1.9.684-.214,1.242-.371,1.63-.475A3.274,3.274,0,0,1,652.239,294.286Z" transform="translate(-638.657 -294.283)"/></g><g transform="translate(26.573 23.25)"><path class="e" d="M657.847,271.479a.959.959,0,0,1-.164.175l-.5.468-1.859,1.689-6.188,5.51c-2.416,2.15-4.5,4.2-5.95,5.752-.724.772-1.294,1.412-1.684,1.859l-.45.514a.932.932,0,0,1-.168.17.973.973,0,0,1,.133-.2c.094-.124.231-.311.418-.541.369-.465.923-1.122,1.634-1.911a78.324,78.324,0,0,1,5.917-5.811c2.423-2.145,4.629-4.072,6.232-5.461l1.906-1.635.526-.436A.938.938,0,0,1,657.847,271.479Z" transform="translate(-640.887 -271.479)"/></g><g transform="translate(32.212 27.904)"><path class="e" d="M652.67,286.575c-.063-.028.441-1.193.944-2.667s.746-2.716.81-2.706a9.1,9.1,0,0,1-.6,2.778,18.006,18.006,0,0,1-.752,1.865A2.911,2.911,0,0,1,652.67,286.575Z" transform="translate(-652.665 -281.202)"/></g><g transform="translate(16.544 31.338)"><path class="e" d="M628.934,299.707a2.764,2.764,0,0,1-.373-.432l-.953-1.223c-.8-1.035-1.908-2.464-3.15-4.028s-2.382-2.967-3.209-3.982l-.974-1.206a2.7,2.7,0,0,1-.336-.461,2.842,2.842,0,0,1,.4.4c.248.27.6.666,1.029,1.161.858.99,2.02,2.378,3.263,3.944s2.331,3.012,3.1,4.073c.385.53.691.963.9,1.266A2.8,2.8,0,0,1,628.934,299.707Z" transform="translate(-619.938 -288.374)"/></g><g transform="translate(21.023 34.161)"><path class="e" d="M630.836,298.964a5.463,5.463,0,0,1-1.246-2.332,6.662,6.662,0,0,1-.283-2.351l.1.008c-.044.18-.077.275-.094.272s-.019-.1,0-.288l.1.008a10.73,10.73,0,0,0,.4,2.287A17.377,17.377,0,0,0,630.836,298.964Z" transform="translate(-629.293 -294.272)"/></g><g transform="translate(12.01 33.07)"><path class="e" d="M617.183,292.946a4.008,4.008,0,0,0-.87-.505,5.812,5.812,0,0,0-2.415-.192,14.965,14.965,0,0,0-2.431.392,7.349,7.349,0,0,1-1,.24,3.491,3.491,0,0,1,.958-.393,11.144,11.144,0,0,1,2.457-.463,5.276,5.276,0,0,1,2.491.269A1.541,1.541,0,0,1,617.183,292.946Z" transform="translate(-610.466 -291.993)"/></g><g transform="translate(8.378 31.427)"><path class="e" d="M612.32,289.987c-.017.035-.507-.2-1.333-.486a13.415,13.415,0,0,0-6.715-.512c-.859.154-1.379.315-1.391.278a1.265,1.265,0,0,1,.353-.151,8.34,8.34,0,0,1,1.006-.282,11.845,11.845,0,0,1,6.8.518,8.3,8.3,0,0,1,.952.432A1.272,1.272,0,0,1,612.32,289.987Z" transform="translate(-602.881 -288.56)"/></g><g transform="translate(23.777 21.097)"><path class="e" d="M636.779,273.791a54.981,54.981,0,0,1-1.726-6.807,54.981,54.981,0,0,1,1.726,6.807Z" transform="translate(-635.046 -266.984)"/></g><g transform="translate(22.909 24.244)"><path class="e" d="M635.9,277.216a16.189,16.189,0,0,0-1.077-2.021,8.889,8.889,0,0,0-1.585-1.636,1.477,1.477,0,0,1,.612.316A4.938,4.938,0,0,1,635,275.066,4.479,4.479,0,0,1,635.9,277.216Z" transform="translate(-633.232 -273.556)"/></g><g transform="translate(11.308 49.733)"><path class="e" d="M623.218,349.449c-.024,0-.069-.373-.245-1.032a14.688,14.688,0,0,0-1.037-2.687,37.186,37.186,0,0,0-5.5-7.752c-1.228-1.4-2.42-2.728-3.432-4a28.091,28.091,0,0,1-2.455-3.539,17.012,17.012,0,0,1-1.238-2.626c-.114-.324-.2-.576-.243-.752A1.281,1.281,0,0,1,609,326.8c.02-.007.133.355.389.988a19.242,19.242,0,0,0,1.294,2.578,29.7,29.7,0,0,0,2.478,3.49c1.016,1.255,2.209,2.572,3.44,3.978a35.24,35.24,0,0,1,5.476,7.831,13.376,13.376,0,0,1,.979,2.735,7.644,7.644,0,0,1,.137.778A1.207,1.207,0,0,1,623.218,349.449Z" transform="translate(-609 -326.798)"/></g><g transform="translate(25.524 58.541)"><path class="e" d="M650.952,345.2a5.683,5.683,0,0,1-.642.361,14,14,0,0,0-1.666,1.1,19.1,19.1,0,0,0-2.188,2c-.768.811-1.559,1.753-2.366,2.763-1.614,2.025-3.124,3.818-4.028,5.248-.459.71-.792,1.308-1.011,1.727a5.466,5.466,0,0,1-.354.647.649.649,0,0,1,.06-.182c.048-.115.113-.289.216-.5a16.423,16.423,0,0,1,.956-1.773,57.9,57.9,0,0,1,3.987-5.3c.809-1.011,1.61-1.955,2.392-2.765a17.778,17.778,0,0,1,2.242-1.98,11.746,11.746,0,0,1,1.721-1.052c.213-.107.387-.172.5-.222A.608.608,0,0,1,650.952,345.2Z" transform="translate(-638.695 -345.196)"/></g><g transform="translate(29.551 63.016)"><path class="e" d="M655.576,354.561a9.367,9.367,0,0,1-1.357.2,17.906,17.906,0,0,0-3.22.634,9.68,9.68,0,0,0-2.882,1.513c-.664.513-.978.938-1.009.913a1.027,1.027,0,0,1,.2-.313,5.133,5.133,0,0,1,.707-.724,8.726,8.726,0,0,1,2.915-1.6,14.538,14.538,0,0,1,3.273-.579A7.469,7.469,0,0,1,655.576,354.561Z" transform="translate(-647.107 -354.544)"/></g><g transform="translate(29.942 61.198)"><path class="e" d="M647.93,355.345c-.071-.04.541-.975,1.016-2.231.445-1.269.55-2.381.63-2.368a2.159,2.159,0,0,1-.023.728,7.791,7.791,0,0,1-.4,1.716,8.294,8.294,0,0,1-.787,1.574A2.182,2.182,0,0,1,647.93,355.345Z" transform="translate(-647.924 -350.746)"/></g><g transform="translate(25.529 46.485)"><path class="e" d="M654.927,320.015a1.01,1.01,0,0,1-.217.115l-.638.29c-.28.12-.619.272-1,.473s-.831.4-1.3.682l-.741.421c-.257.148-.511.323-.781.492-.546.331-1.093.739-1.677,1.156a28.777,28.777,0,0,0-6.457,6.682c-.4.6-.786,1.159-1.1,1.715-.16.276-.327.536-.465.8l-.4.755c-.264.475-.452.93-.637,1.32s-.329.733-.439,1.016l-.268.647a1.017,1.017,0,0,1-.108.221,1,1,0,0,1,.065-.237L639,335.9c.1-.289.227-.64.406-1.035s.354-.858.61-1.34l.385-.766c.136-.266.3-.53.457-.809.307-.565.693-1.134,1.088-1.739a27.715,27.715,0,0,1,6.5-6.731c.592-.415,1.147-.82,1.7-1.147.274-.167.532-.339.793-.484l.753-.411c.474-.272.928-.468,1.319-.656s.735-.332,1.021-.44l.656-.251A.992.992,0,0,1,654.927,320.015Z" transform="translate(-638.706 -320.014)"/></g><g transform="translate(32.048 51.364)"><path class="e" d="M652.326,331.826a1.558,1.558,0,0,1,.533-.794,3.367,3.367,0,0,1,2.149-.825,5.885,5.885,0,0,1,2.261.442,3.2,3.2,0,0,1,.855.416,5.245,5.245,0,0,1-.907-.266,6.816,6.816,0,0,0-2.2-.367,3.5,3.5,0,0,0-2.053.72A6.252,6.252,0,0,0,652.326,331.826Z" transform="translate(-652.323 -330.206)"/></g><g transform="translate(30.596 50.422)"><path class="e" d="M649.295,332.3a5.742,5.742,0,0,0,.473-4.058,1.32,1.32,0,0,1,.252.578,4.1,4.1,0,0,1-.347,2.975C649.484,332.135,649.316,332.312,649.295,332.3Z" transform="translate(-649.29 -328.238)"/></g><g transform="translate(14.807 74.608)"><path class="f" d="M616.309,378.758a51.371,51.371,0,0,0,4.871,18.061h11.954a51.927,51.927,0,0,0,4.581-18.061Z" transform="translate(-616.309 -378.758)"/></g><g transform="translate(16.695 84.093)"><path class="g" d="M637.833,398.682c0,.062-3.936.112-8.79.112s-8.791-.05-8.791-.112,3.935-.113,8.791-.113S637.833,398.62,637.833,398.682Z" transform="translate(-620.252 -398.57)"/></g><g transform="translate(17.527 86.242)"><path class="g" d="M638.472,403.171c0,.062-3.69.112-8.241.112s-8.241-.05-8.241-.112,3.689-.112,8.241-.112S638.472,403.109,638.472,403.171Z" transform="translate(-621.99 -403.059)"/></g></g></g><g transform="translate(53.162 98.969)"><g transform="translate(7.194)"><rect class="f" width="184.083" height="121.732" rx="14.567"/></g><g transform="translate(0 113.871)"><path class="f" d="M0,0H199.44a0,0,0,0,1,0,0V0a10.651,10.651,0,0,1-10.651,10.651H10.651A10.651,10.651,0,0,1,0,0V0A0,0,0,0,1,0,0Z"/></g><g transform="translate(12.136 4.836)"><rect class="e" width="173.686" height="102.801"/></g><g transform="translate(81.089 112.729)"><path class="e" d="M330.245,391.773l2.475,3.937h34.825l2.3-3.937Z" transform="translate(-330.245 -391.773)"/></g><g transform="translate(12.423 4.696)"><g transform="translate(0.185)"><path class="a" d="M3.272,0H170.038a3.273,3.273,0,0,1,3.273,3.273V99.529a3.273,3.273,0,0,1-3.273,3.273H3.272A3.272,3.272,0,0,1,0,99.53V3.272A3.272,3.272,0,0,1,3.272,0Z"/></g><g transform="translate(0 7.683)"><path class="g" d="M366.625,284.4H193.313l.186-95.27H366.625Z" transform="translate(-193.313 -189.127)"/></g><g transform="translate(11.632 2.586)"><path class="e" d="M219.477,180.26a1.384,1.384,0,1,1-1.384-1.384A1.384,1.384,0,0,1,219.477,180.26Z" transform="translate(-216.709 -178.876)"/></g><g transform="translate(3.243 2.586)"><path class="e" d="M202.6,180.26a1.384,1.384,0,1,1-1.384-1.384A1.384,1.384,0,0,1,202.6,180.26Z" transform="translate(-199.835 -178.876)"/></g><g transform="translate(7.269 2.586)"><path class="e" d="M210.7,180.26a1.384,1.384,0,1,1-1.384-1.384A1.384,1.384,0,0,1,210.7,180.26Z" transform="translate(-207.934 -178.876)"/></g></g><g transform="translate(7.194 112.61)"><path class="e" d="M358.393,391.643c0,.066-40.858.12-91.246.12-50.406,0-91.255-.054-91.255-.12s40.849-.119,91.255-.119C317.536,391.524,358.393,391.577,358.393,391.643Z" transform="translate(-175.892 -391.524)"/></g><g transform="translate(68.731 24.656)"><g transform="translate(0.001 26.261)"><path class="d" d="M304.855,263.293l67.9-.634,1.988,46.158-70.307-.506Z" transform="translate(-304.433 -262.659)"/></g><g transform="translate(0.423)"><path class="h" d="M305.314,234.7l32.08-26.069a3.69,3.69,0,0,1,4.661.005l31.155,25.429" transform="translate(-305.314 -207.805)"/></g><g transform="translate(0 45.639)"><path class="e" d="M304.432,329.411c-.085-.079,5.338-6.025,12.112-13.28s12.335-13.073,12.42-12.994-5.337,6.024-12.113,13.281S304.517,329.49,304.432,329.411Z" transform="translate(-304.431 -303.136)"/></g><g transform="translate(46.922 46.213)"><path class="e" d="M425.828,330.541c-.087.077-5.393-5.727-11.849-12.962s-11.623-13.166-11.536-13.243,5.391,5.726,11.85,12.963S425.915,330.464,425.828,330.541Z" transform="translate(-402.442 -304.335)"/></g><g class="i" transform="translate(0.423 26.261)"><path d="M373.211,262.659l-34.038,27.308-33.859-26.673" transform="translate(-305.314 -262.659)"/></g><g transform="translate(3.616 7.252)"><g transform="translate(0.081 0.126)"><path class="g" d="M312.3,245.248l-.15-21.206,59.452-.826.717,22.311L342.734,269.05Z" transform="translate(-312.154 -223.216)"/></g><path class="e" d="M312.216,245.111s.2.142.564.424l1.621,1.25,6.154,4.779,22.155,17.269h-.127l29.576-23.54-.046.1c-.138-4.256-.281-8.722-.428-13.265-.1-3.059-.195-6.082-.29-9.045l.126.12-59.453.782.079-.08c.031,6.667.055,11.962.071,15.6,0,1.814.007,3.213.009,4.165q0,.7,0,1.076c0,.242-.008.368-.008.368s-.008-.119-.012-.359-.01-.6-.018-1.068c-.012-.95-.028-2.345-.05-4.155-.035-3.641-.086-8.945-.149-15.625v-.079h.08l59.451-.87.122,0,0,.122c.1,2.964.193,5.987.291,9.045.146,4.544.289,9.009.425,13.266l0,.062-.048.039-29.6,23.507-.063.05-.063-.05-22.127-17.366-6.11-4.814-1.595-1.265C312.393,245.262,312.216,245.111,312.216,245.111Z" transform="translate(-311.985 -222.953)"/></g><g transform="translate(13.162 18.033)"><path class="e" d="M372.537,245.513c0,.069-9.091.2-20.3.29s-20.308.11-20.309.041,9.09-.2,20.307-.29S372.536,245.445,372.537,245.513Z" transform="translate(-331.923 -245.472)"/></g><g transform="translate(13.174 24.023)"><path class="e" d="M372.563,258.025c0,.069-9.091.2-20.3.29s-20.308.11-20.309.041,9.09-.2,20.307-.29S372.562,257.957,372.563,258.025Z" transform="translate(-331.949 -257.984)"/></g><g transform="translate(13.188 30.927)"><path class="e" d="M372.593,272.447c0,.069-9.091.2-20.3.29s-20.308.11-20.309.041,9.09-.2,20.307-.29S372.592,272.378,372.593,272.447Z" transform="translate(-331.979 -272.405)"/></g><g transform="translate(15.07 37.829)"><path class="e" d="M374.656,286.866c0,.069-8.673.2-19.372.282s-19.375.1-19.375.034,8.671-.2,19.373-.282S374.655,286.8,374.656,286.866Z" transform="translate(-335.909 -286.823)"/></g><g transform="translate(22.783 43.891)"><path class="e" d="M375.462,299.542a.863.863,0,0,1-.238.027l-.683.029-2.511.063-8.286.15c-3.237.061-6.169.08-8.29.078l-2.512-.016-.683-.018a.12.12,0,1,1,0-.05l.683-.029,2.511-.063,8.287-.15c3.236-.061,6.167-.08,8.288-.078l2.512.017.684.017A.869.869,0,0,1,375.462,299.542Z" transform="translate(-352.021 -299.485)"/></g><g transform="translate(29.924 49.673)"><path class="e" d="M375.6,311.678a75.212,75.212,0,0,1-8.66.018,75.267,75.267,0,0,1,8.66-.018Z" transform="translate(-366.936 -311.562)"/></g></g></g><g transform="translate(5.03 222.958)"><g transform="translate(0 0)"><path class="e" d="M360.8,415.418c0,.068-71.591.124-159.882.124-88.322,0-159.9-.056-159.9-.124s71.575-.125,159.9-.125C289.208,415.293,360.8,415.349,360.8,415.418Z" transform="translate(-41.02 -415.293)"/></g></g><g transform="translate(177.533 56.412)"><g transform="translate(0 32.408)"><g transform="translate(0 41.996)"><path class="e" d="M401.544,222.825c.069.007.1.28.065.608s-.114.59-.183.584-.1-.279-.065-.608S401.476,222.818,401.544,222.825Z" transform="translate(-401.348 -222.825)"/></g><g transform="translate(0.441 37.333)"><path class="e" d="M402.662,213.085a5.617,5.617,0,0,1-.355,2.327,5.616,5.616,0,0,1,.355-2.327Z" transform="translate(-402.268 -213.085)"/></g><g transform="translate(1.237 32.722)"><path class="e" d="M404.469,203.453a5.608,5.608,0,0,1-.51,2.3,5.609,5.609,0,0,1,.51-2.3Z" transform="translate(-403.931 -203.452)"/></g><g transform="translate(2.347 28.191)"><path class="e" d="M406.953,193.989a5.612,5.612,0,0,1-.681,2.253,5.629,5.629,0,0,1,.681-2.253Z" transform="translate(-406.251 -193.989)"/></g><g transform="translate(3.807 23.78)"><path class="e" d="M410.186,184.777a5.6,5.6,0,0,1-.87,2.187,5.634,5.634,0,0,1,.87-2.187Z" transform="translate(-409.301 -184.776)"/></g><g transform="translate(5.649 19.544)"><path class="e" d="M414.231,175.928a5.607,5.607,0,0,1-1.07,2.093,2.865,2.865,0,0,1,.424-1.1C413.881,176.338,414.17,175.895,414.231,175.928Z" transform="translate(-413.148 -175.926)"/></g><g transform="translate(7.899 15.532)"><path class="e" d="M419.141,167.548a2.91,2.91,0,0,1-.551,1.046c-.346.548-.675.964-.733.928a2.885,2.885,0,0,1,.525-1.064C418.743,167.916,419.085,167.509,419.141,167.548Z" transform="translate(-417.847 -167.546)"/></g><g transform="translate(10.582 11.825)"><path class="e" d="M424.962,159.807c.052.046-.242.487-.656.985s-.793.868-.848.826.239-.483.656-.985S424.91,159.761,424.962,159.807Z" transform="translate(-423.451 -159.803)"/></g><g transform="translate(13.695 8.487)"><path class="e" d="M431.669,152.836c.045.052-.3.454-.769.9s-.891.767-.94.719.295-.451.769-.9S431.624,152.784,431.669,152.836Z" transform="translate(-429.955 -152.831)"/></g><g transform="translate(17.211 5.584)"><path class="e" d="M439.2,146.775c.038.057-.353.414-.876.8a2.915,2.915,0,0,1-1.023.6c-.043-.054.349-.41.876-.8A2.877,2.877,0,0,1,439.2,146.775Z" transform="translate(-437.299 -146.767)"/></g><g transform="translate(21.098 3.198)"><path class="e" d="M447.49,141.794c.031.062-.406.362-.976.67a2.905,2.905,0,0,1-1.094.451c-.035-.059.4-.359.976-.67A2.875,2.875,0,0,1,447.49,141.794Z" transform="translate(-445.418 -141.783)"/></g><g transform="translate(25.314 1.42)"><path class="e" d="M456.438,138.086a5.625,5.625,0,0,1-2.212.8,5.626,5.626,0,0,1,2.212-.8Z" transform="translate(-454.225 -138.069)"/></g><g transform="translate(29.795 0.335)"><path class="e" d="M465.9,135.839a2.932,2.932,0,0,1-1.137.318,2.884,2.884,0,0,1-1.175.121,2.887,2.887,0,0,1,1.128-.366A2.841,2.841,0,0,1,465.9,135.839Z" transform="translate(-463.584 -135.803)"/></g><g transform="translate(34.449)"><path class="e" d="M475.659,135.215a5.614,5.614,0,0,1-2.353.026,5.614,5.614,0,0,1,2.353-.026Z" transform="translate(-473.306 -135.103)"/></g><g transform="translate(39.149 0.25)"><path class="e" d="M485.447,136.038a5.617,5.617,0,0,1-2.323-.375,5.617,5.617,0,0,1,2.323.375Z" transform="translate(-483.124 -135.625)"/></g><g transform="translate(43.755 1.218)"><path class="e" d="M494.968,138.436a5.607,5.607,0,0,1-2.223-.771,5.621,5.621,0,0,1,2.223.771Z" transform="translate(-492.744 -137.647)"/></g><g transform="translate(48.122 2.966)"><path class="e" d="M503.911,142.476a2.914,2.914,0,0,1-1.084-.475c-.561-.32-.991-.63-.96-.691a2.854,2.854,0,0,1,1.084.475C503.519,142.108,503.949,142.418,503.911,142.476Z" transform="translate(-501.866 -141.299)"/></g><g transform="translate(52.083 5.497)"><path class="e" d="M511.912,148.143c-.049.049-.482-.257-.967-.682s-.844-.815-.8-.87.475.251.967.682S511.96,148.094,511.912,148.143Z" transform="translate(-510.139 -146.585)"/></g><g transform="translate(55.435 8.783)"><path class="e" d="M517.888,154.4c-.056.04-.264-.137-.465-.4s-.321-.506-.268-.55.261.134.465.4S517.944,154.361,517.888,154.4Z" transform="translate(-517.143 -153.449)"/></g></g><g transform="translate(76.147 14.214)"><g transform="translate(0 55.753)"><path class="e" d="M562.578,214.579a5.818,5.818,0,0,1-2.172-1.008,5.793,5.793,0,0,1,2.172,1.008Z" transform="translate(-560.405 -213.558)"/></g><g transform="translate(4.403 57.627)"><path class="e" d="M571.891,218.192a5.8,5.8,0,0,1-2.288-.7,5.8,5.8,0,0,1,2.288.7Z" transform="translate(-569.602 -217.473)"/></g><g transform="translate(9.035 58.788)"><path class="e" d="M581.656,220.209a5.812,5.812,0,0,1-2.379-.262,5.814,5.814,0,0,1,2.379.262Z" transform="translate(-579.276 -219.898)"/></g><g transform="translate(13.806 58.887)"><path class="e" d="M591.631,220.168a5.823,5.823,0,0,1-2.387.18,5.8,5.8,0,0,1,2.387-.18Z" transform="translate(-589.244 -220.105)"/></g><g transform="translate(18.559 58.045)"><path class="e" d="M601.507,218.369a2.978,2.978,0,0,1-1.136.406,2.878,2.878,0,0,1-1.2.117,3.1,3.1,0,0,1,1.146-.361A3,3,0,0,1,601.507,218.369Z" transform="translate(-599.171 -218.345)"/></g><g transform="translate(23.162 56.294)"><path class="e" d="M610.963,214.7a5.812,5.812,0,0,1-2.175,1,5.806,5.806,0,0,1,2.175-1Z" transform="translate(-608.787 -214.689)"/></g><g transform="translate(27.392 53.633)"><path class="e" d="M619.534,209.136c.044.052-.328.447-.86.847a2.654,2.654,0,0,1-1.05.6c-.038-.058.376-.4.9-.794A3.422,3.422,0,0,1,619.534,209.136Z" transform="translate(-617.622 -209.13)"/></g><g transform="translate(31.033 50.141)"><path class="e" d="M626.754,201.839a2.606,2.606,0,0,1-.636,1.026c-.424.515-.837.867-.886.82s.276-.472.694-.979S626.7,201.8,626.754,201.839Z" transform="translate(-625.227 -201.836)"/></g><g transform="translate(33.818 45.93)"><path class="e" d="M632.03,193.041a4.346,4.346,0,0,1-.974,2.185,8.844,8.844,0,0,1,.974-2.185Z" transform="translate(-631.045 -193.04)"/></g><g transform="translate(35.411 41.248)"><path class="e" d="M634.647,183.259a4.127,4.127,0,0,1-.244,2.379,3.789,3.789,0,0,1,.05-1.2A3.718,3.718,0,0,1,634.647,183.259Z" transform="translate(-634.371 -183.259)"/></g><g transform="translate(34.977 36.529)"><path class="e" d="M633.485,173.4a4.283,4.283,0,0,1,.531,2.332,9.078,9.078,0,0,1-.531-2.332Z" transform="translate(-633.466 -173.402)"/></g><g transform="translate(32.908 32.234)"><path class="e" d="M629.151,164.434c.055-.04.414.37.749.947a2.539,2.539,0,0,1,.454,1.119c-.063.03-.339-.428-.67-.994A3.631,3.631,0,0,1,629.151,164.434Z" transform="translate(-629.143 -164.431)"/></g><g transform="translate(29.591 28.814)"><path class="e" d="M622.218,157.295a2.462,2.462,0,0,1,1.02.647c.506.438.837.871.787.917s-.456-.3-.95-.728S622.178,157.353,622.218,157.295Z" transform="translate(-622.215 -157.288)"/></g><g transform="translate(25.252 26.851)"><path class="e" d="M613.153,153.213a3.881,3.881,0,0,1,2.272.747,3.968,3.968,0,0,1-1.155-.316A4.02,4.02,0,0,1,613.153,153.213Z" transform="translate(-613.152 -153.186)"/></g><g transform="translate(20.505 26.565)"><path class="e" d="M603.236,152.98a3.8,3.8,0,0,1,2.37-.311,12.675,12.675,0,0,1-2.37.311Z" transform="translate(-603.236 -152.589)"/></g><g transform="translate(16.375 27.811)"><path class="e" d="M594.613,156.648c-.05-.044.279-.489.819-.895a2.247,2.247,0,0,1,1.08-.551c.034.063-.412.356-.93.749S594.666,156.7,594.613,156.648Z" transform="translate(-594.608 -155.193)"/></g><g transform="translate(14.434 31.247)"><path class="e" d="M590.606,164.685a2.2,2.2,0,0,1,.069-1.21,2.143,2.143,0,0,1,.5-1.1,4.988,4.988,0,0,1-.26,1.163A4.713,4.713,0,0,1,590.606,164.685Z" transform="translate(-590.555 -162.37)"/></g><g transform="translate(14.609 35.945)"><path class="e" d="M591.732,174.441a3.625,3.625,0,0,1-.782-2.259,15.331,15.331,0,0,1,.782,2.259Z" transform="translate(-590.921 -172.182)"/></g><g transform="translate(16.755 40.175)"><path class="e" d="M597.2,182.608a2.388,2.388,0,0,1-1.022-.648c-.5-.444-.818-.894-.766-.937s.441.319.932.751S597.237,182.55,597.2,182.608Z" transform="translate(-595.404 -181.019)"/></g><g transform="translate(20.631 42.924)"><path class="e" d="M605.762,187.548a2.5,2.5,0,0,1-1.188-.221,2.471,2.471,0,0,1-1.074-.553,3.742,3.742,0,0,1,1.155.317A3.684,3.684,0,0,1,605.762,187.548Z" transform="translate(-603.499 -186.761)"/></g><g transform="translate(25.253 44.049)"><path class="e" d="M615.545,189.225a4.376,4.376,0,0,1-2.391-.051,8.673,8.673,0,0,1,2.391.051Z" transform="translate(-613.154 -189.111)"/></g><g transform="translate(30.019 43.276)"><path class="e" d="M625.425,187.514a4.475,4.475,0,0,1-2.317.59,8.308,8.308,0,0,1,2.317-.59Z" transform="translate(-623.108 -187.495)"/></g><g transform="translate(34.561 41.296)"><path class="e" d="M634.714,183.369c.036.059-.411.359-1,.669a2.944,2.944,0,0,1-1.115.449,5.8,5.8,0,0,1,2.115-1.118Z" transform="translate(-632.597 -183.359)"/></g><g transform="translate(38.662 38.448)"><path class="e" d="M643.016,177.417c.046.051-.332.434-.846.856s-.964.719-1,.663.338-.439.846-.855A3.016,3.016,0,0,1,643.016,177.417Z" transform="translate(-641.164 -177.411)"/></g><g transform="translate(42.216 34.951)"><path class="e" d="M650.146,170.11c.055.042-.251.485-.683.991s-.823.876-.872.829a3,3,0,0,1,.683-.991C649.7,170.439,650.091,170.068,650.146,170.11Z" transform="translate(-648.586 -170.107)"/></g><g transform="translate(45.165 30.958)"><path class="e" d="M655.99,161.768a2.964,2.964,0,0,1-.51,1.09c-.342.569-.666,1-.723.961a3,3,0,0,1,.51-1.09C655.6,162.166,655.929,161.736,655.99,161.768Z" transform="translate(-654.748 -161.766)"/></g><g transform="translate(47.453 26.586)"><path class="e" d="M660.421,152.633a2.958,2.958,0,0,1-.321,1.16c-.237.62-.5,1.094-.563,1.064a3.4,3.4,0,0,1,.331-1.156A3.007,3.007,0,0,1,660.421,152.633Z" transform="translate(-659.525 -152.632)"/></g><g transform="translate(49.064 21.992)"><path class="e" d="M663.514,143.039a5.81,5.81,0,0,1-.6,2.317,5.8,5.8,0,0,1,.6-2.317Z" transform="translate(-662.891 -143.038)"/></g><g transform="translate(50.125 17.281)"><path class="e" d="M665.507,133.2a5.8,5.8,0,0,1-.362,2.366,5.8,5.8,0,0,1,.362-2.366Z" transform="translate(-665.107 -133.197)"/></g><g transform="translate(50.725 12.515)"><path class="e" d="M666.6,123.241a5.81,5.81,0,0,1-.177,2.387,5.814,5.814,0,0,1,.177-2.387Z" transform="translate(-666.36 -123.241)"/></g><g transform="translate(50.968 7.731)"><path class="e" d="M667.018,113.249a5.8,5.8,0,1,1-.148,1.194A2.986,2.986,0,0,1,667.018,113.249Z" transform="translate(-666.868 -113.249)"/></g><g transform="translate(50.975 2.944)"><path class="e" d="M666.991,103.25a5.814,5.814,0,1,1-.107,1.2A2.967,2.967,0,0,1,666.991,103.25Z" transform="translate(-666.882 -103.25)"/></g><g transform="translate(50.895)"><path class="e" d="M666.833,97.1c.069,0,.128.12.132.271s-.048.277-.117.278-.128-.12-.132-.271S666.764,97.1,666.833,97.1Z" transform="translate(-666.715 -97.1)"/></g></g><g transform="translate(105.094 0)"><rect class="f" width="32.734" height="22.063" transform="translate(0.013 3.547) rotate(-6.198)"/><path class="e" d="M623.255,92.9v-.011l-2.383-21.946h.012l32.554-3.535v.011l2.384,21.946h-.012ZM620.9,70.967l2.38,21.911,32.518-3.532-2.38-21.911Z" transform="translate(-620.871 -67.409)"/><g transform="translate(0.145 0.265)"><path class="e" d="M653.717,67.963a2.3,2.3,0,0,1-.271.325l-.82.892-3.057,3.246-10.192,10.66-.084.088-.1-.065-.248-.158-12.6-8.047-3.8-2.467-1.025-.684a2.307,2.307,0,0,1-.346-.256,2.377,2.377,0,0,1,.379.2l1.054.637,3.85,2.387L639.1,82.7l.248.158-.187.022,10.256-10.6,3.126-3.182.86-.854A2.254,2.254,0,0,1,653.717,67.963Z" transform="translate(-621.175 -67.962)"/></g><g transform="translate(2.526 11.282)"><path class="e" d="M626.149,105.427c-.068-.046,2.052-3.319,4.736-7.308s4.915-7.189,4.983-7.143-2.052,3.318-4.737,7.309S626.217,105.473,626.149,105.427Z" transform="translate(-626.148 -90.975)"/></g><g transform="translate(23.033 9.832)"><path class="e" d="M668.984,87.948c.058-.057,2.8,2.665,6.124,6.08s5.97,6.23,5.911,6.287-2.8-2.665-6.125-6.08S668.925,88.005,668.984,87.948Z" transform="translate(-668.983 -87.947)"/></g></g></g><g transform="translate(154.212 46.313)"><g transform="translate(9.869 17.937)"><g transform="translate(2.441 58.678)"><path class="e" d="M378.407,206.348c.068-.011.168.244.223.57s.045.6-.023.611-.168-.244-.223-.57S378.34,206.359,378.407,206.348Z" transform="translate(-378.349 -206.347)"/></g><g transform="translate(1.696 54.007)"><path class="e" d="M376.83,196.591a5.671,5.671,0,0,1,.377,2.337,5.693,5.693,0,0,1-.377-2.337Z" transform="translate(-376.793 -196.591)"/></g><g transform="translate(1.008 49.324)"><path class="e" d="M375.4,186.808a5.676,5.676,0,0,1,.327,2.344,5.679,5.679,0,0,1-.327-2.344Z" transform="translate(-375.357 -186.808)"/></g><g transform="translate(0.46 44.621)"><path class="e" d="M374.262,176.986a5.668,5.668,0,0,1,.247,2.353,5.689,5.689,0,0,1-.247-2.353Z" transform="translate(-374.211 -176.986)"/></g><g transform="translate(0.108 39.9)"><path class="e" d="M373.551,167.124a5.669,5.669,0,0,1,.134,2.363,5.688,5.688,0,0,1-.134-2.363Z" transform="translate(-373.476 -167.124)"/></g><g transform="translate(0 35.166)"><path class="e" d="M373.382,157.235a5.685,5.685,0,0,1-.014,2.368,5.683,5.683,0,0,1,.014-2.368Z" transform="translate(-373.25 -157.235)"/></g><g transform="translate(0.172 30.445)"><path class="e" d="M373.867,147.374a5.676,5.676,0,0,1-.2,2.358,5.676,5.676,0,0,1,.2-2.358Z" transform="translate(-373.61 -147.374)"/></g><g transform="translate(0.695 25.766)"><path class="e" d="M375.149,137.6a5.684,5.684,0,0,1-.412,2.331,5.68,5.68,0,0,1,.412-2.331Z" transform="translate(-374.703 -137.6)"/></g><g transform="translate(1.652 21.192)"><path class="e" d="M377.4,128.046a5.679,5.679,0,0,1-.675,2.268,5.682,5.682,0,0,1,.675-2.268Z" transform="translate(-376.702 -128.046)"/></g><g transform="translate(3.15 16.804)"><path class="e" d="M380.8,118.881a5.682,5.682,0,0,1-.954,2.166,5.683,5.683,0,0,1,.954-2.166Z" transform="translate(-379.831 -118.88)"/></g><g transform="translate(5.196 12.673)"><path class="e" d="M385.335,110.254a2.937,2.937,0,0,1-.5,1.078c-.336.558-.657.983-.717.949a2.9,2.9,0,0,1,.5-1.078C384.956,110.642,385.277,110.217,385.335,110.254Z" transform="translate(-384.104 -110.252)"/></g><g transform="translate(7.773 8.888)"><path class="e" d="M390.979,102.348a2.937,2.937,0,0,1-.645,1c-.408.507-.784.884-.84.844s.234-.489.646-1S390.927,102.3,390.979,102.348Z" transform="translate(-389.487 -102.344)"/></g><g transform="translate(10.877 5.56)"><path class="e" d="M397.721,95.4c.044.053-.309.452-.789.89s-.908.755-.957.707.3-.447.789-.89S397.677,95.346,397.721,95.4Z" transform="translate(-395.971 -95.393)"/></g><g transform="translate(14.499 2.837)"><path class="e" d="M405.533,89.715c.034.06-.383.392-.93.742a2.949,2.949,0,0,1-1.065.531c-.04-.056.376-.388.931-.742A2.875,2.875,0,0,1,405.533,89.715Z" transform="translate(-403.535 -89.705)"/></g><g transform="translate(18.601 0.89)"><path class="e" d="M414.311,85.654a5.677,5.677,0,0,1-2.2.862,5.679,5.679,0,0,1,2.2-.862Z" transform="translate(-412.105 -85.638)"/></g><g transform="translate(23.089)"><path class="e" d="M422.654,83.834c.01.068-.242.173-.563.234s-.6.057-.61-.011.237-.172.563-.234S422.643,83.766,422.654,83.834Z" transform="translate(-421.48 -83.78)"/></g></g><rect class="d" width="23.99" height="35.591" transform="translate(0.015 22.391) rotate(-68.859)"/><path class="e" d="M385.853,81.555l-.011,0L352.635,68.71l0-.011L361.3,46.313l.011,0,33.207,12.841,0,.011ZM352.666,68.7l33.173,12.828,8.643-22.353L361.309,46.344Z" transform="translate(-352.635 -46.313)"/><g transform="translate(8.669 0.325)"><path class="e" d="M403.94,59.829a2.494,2.494,0,0,1-.424.178l-1.238.452L397.7,62.069l-15.167,5.206-.125.043-.067-.114-.161-.276-8.148-14.062-2.437-4.28-.649-1.171a2.5,2.5,0,0,1-.207-.42,2.572,2.572,0,0,1,.263.387l.7,1.141,2.526,4.228,8.23,14.015.161.276-.191-.071,15.2-5.115,4.607-1.512,1.257-.4A2.454,2.454,0,0,1,403.94,59.829Z" transform="translate(-370.743 -46.993)"/></g><g transform="translate(0.017 13.593)"><path class="e" d="M352.672,83.815c-.043-.079,3.639-2.18,8.223-4.694s8.337-4.49,8.38-4.411-3.638,2.18-8.224,4.694S352.714,83.893,352.672,83.815Z" transform="translate(-352.671 -74.707)"/></g><g transform="translate(27.759 17.583)"><path class="e" d="M410.623,83.04c.085-.026,1.375,3.973,2.88,8.93s2.656,9,2.57,9.025-1.375-3.972-2.88-8.931S410.538,83.066,410.623,83.04Z" transform="translate(-410.619 -83.04)"/></g></g><g transform="translate(5.005 66.775)"><g transform="translate(93.963 19.003)"><g transform="translate(53.489 42.39)"><path class="e" d="M349.151,217.293c.069,0,.1.277.076.607s-.1.593-.173.587-.1-.278-.076-.607S349.083,217.289,349.151,217.293Z" transform="translate(-348.97 -217.293)"/></g><g transform="translate(53.665 37.521)"><path class="e" d="M349.464,207.123a6.02,6.02,0,0,1-.006,2.436,6.022,6.022,0,0,1,.006-2.436Z" transform="translate(-349.337 -207.123)"/></g><g transform="translate(53.406 32.662)"><path class="e" d="M348.851,196.974a6.007,6.007,0,0,1,.224,2.426,6.009,6.009,0,0,1-.224-2.426Z" transform="translate(-348.796 -196.974)"/></g><g transform="translate(52.619 27.86)"><path class="e" d="M347.182,186.944a6.012,6.012,0,0,1,.468,2.39,6.011,6.011,0,0,1-.468-2.39Z" transform="translate(-347.153 -186.943)"/></g><g transform="translate(51.307 23.173)"><path class="e" d="M344.431,177.153a6.026,6.026,0,0,1,.728,2.325,6.006,6.006,0,0,1-.728-2.325Z" transform="translate(-344.412 -177.152)"/></g><g transform="translate(49.452 18.676)"><path class="e" d="M340.548,167.759a6.007,6.007,0,0,1,1,2.221,6.011,6.011,0,0,1-1-2.221Z" transform="translate(-340.536 -167.758)"/></g><g transform="translate(47.038 14.449)"><path class="e" d="M335.5,158.931c.057-.038.4.391.764.961a3.075,3.075,0,0,1,.517,1.113c-.06.034-.386-.406-.729-.982A3.131,3.131,0,0,1,335.5,158.931Z" transform="translate(-335.494 -158.929)"/></g><g transform="translate(44.058 10.6)"><path class="e" d="M329.274,150.894c.051-.046.443.337.876.855a3.07,3.07,0,0,1,.685,1.015c-.055.042-.447-.341-.876-.855A3.12,3.12,0,0,1,329.274,150.894Z" transform="translate(-329.269 -150.89)"/></g><g transform="translate(40.563 7.211)"><path class="e" d="M321.972,143.817c.044-.053.486.27.988.723s.869.859.821.908a3.1,3.1,0,0,1-.988-.723C322.3,144.276,321.928,143.869,321.972,143.817Z" transform="translate(-321.969 -143.811)"/></g><g transform="translate(36.615 4.362)"><path class="e" d="M313.724,137.868a3.061,3.061,0,0,1,1.083.571c.563.375.985.723.945.779a3.113,3.113,0,0,1-1.083-.571C314.111,138.276,313.688,137.927,313.724,137.868Z" transform="translate(-313.722 -137.859)"/></g><g transform="translate(32.278 2.146)"><path class="e" d="M304.665,133.244a6.03,6.03,0,0,1,2.213,1.02,6,6,0,0,1-2.213-1.02Z" transform="translate(-304.664 -133.231)"/></g><g transform="translate(27.639 0.669)"><path class="e" d="M294.973,130.168a6.014,6.014,0,0,1,2.352.634,6.007,6.007,0,0,1-2.352-.634Z" transform="translate(-294.972 -130.145)"/></g><g transform="translate(22.813)"><path class="e" d="M284.892,128.822a3.04,3.04,0,0,1,1.226-.055,3.072,3.072,0,0,1,1.2.251,3.094,3.094,0,0,1-1.221,0A3.137,3.137,0,0,1,284.892,128.822Z" transform="translate(-284.892 -128.748)"/></g><g transform="translate(17.959 0.076)"><path class="e" d="M274.753,129.239a6.022,6.022,0,0,1,2.419-.286,6,6,0,0,1-2.419.286Z" transform="translate(-274.753 -128.906)"/></g><g transform="translate(13.256 0.905)"><path class="e" d="M264.93,131.393a6.016,6.016,0,0,1,2.321-.736,6.015,6.015,0,0,1-2.321.736Z" transform="translate(-264.929 -130.637)"/></g><g transform="translate(8.87 2.601)"><path class="e" d="M255.77,135.351c-.036-.058.417-.367,1.012-.689a3.051,3.051,0,0,1,1.131-.47,6.018,6.018,0,0,1-2.142,1.16Z" transform="translate(-255.768 -134.18)"/></g><g transform="translate(4.979 5.128)"><path class="e" d="M247.644,141.025c-.047-.05.336-.442.855-.876s.974-.74,1.015-.685-.342.448-.855.876A3.11,3.11,0,0,1,247.644,141.025Z" transform="translate(-247.64 -139.458)"/></g><g transform="translate(1.792 8.438)"><path class="e" d="M240.992,148.3a2.728,2.728,0,0,1,.618-1.06c.415-.536.82-.911.871-.866a3.549,3.549,0,0,1-.674,1.018C241.4,147.924,241.05,148.343,240.992,148.3Z" transform="translate(-240.984 -146.374)"/></g><g transform="translate(0 12.45)"><path class="e" d="M237.264,155.833c-.063-.028,0-.293.149-.593s.313-.517.373-.484-.006.3-.149.593S237.327,155.861,237.264,155.833Z" transform="translate(-237.24 -154.753)"/></g></g><g transform="translate(21.696 29.037)"><g transform="translate(20.441 31.532)"><path class="e" d="M173.751,215.79c0-.069.255-.157.579-.2s.6-.016.609.052-.247.156-.579.2S173.755,215.858,173.751,215.79Z" transform="translate(-173.751 -215.575)"/></g><g transform="translate(15.698 31.189)"><path class="e" d="M163.845,214.878a10.3,10.3,0,0,1,2.346.491,4.089,4.089,0,0,1-2.346-.491Z" transform="translate(-163.845 -214.858)"/></g><g transform="translate(11.411 29.083)"><path class="e" d="M154.892,210.466a3.586,3.586,0,0,1,1.071.544c.564.337,1.019.62.989.683a2.546,2.546,0,0,1-1.116-.469C155.262,210.881,154.853,210.521,154.892,210.466Z" transform="translate(-154.89 -210.458)"/></g><g transform="translate(7.845 25.889)"><path class="e" d="M147.446,203.79c.052-.046.446.32.909.788s.825.865.779.917-.487-.266-.957-.742S147.395,203.834,147.446,203.79Z" transform="translate(-147.441 -203.786)"/></g><g transform="translate(5.026 22.012)"><path class="e" d="M141.561,195.691c.059-.035.4.384.762.934a3.024,3.024,0,0,1,.553,1.071c-.056.041-.4-.377-.762-.935A2.974,2.974,0,0,1,141.561,195.691Z" transform="translate(-141.553 -195.689)"/></g><g transform="translate(2.952 17.689)"><path class="e" d="M137.235,186.658a5.843,5.843,0,0,1,.94,2.207,5.822,5.822,0,0,1-.94-2.207Z" transform="translate(-137.221 -186.657)"/></g><g transform="translate(1.567 13.095)"><path class="e" d="M134.352,177.063a5.82,5.82,0,0,1,.609,2.32,5.839,5.839,0,0,1-.609-2.32Z" transform="translate(-134.328 -177.062)"/></g><g transform="translate(0.719 8.371)"><path class="e" d="M132.6,167.194a5.836,5.836,0,0,1,.36,2.373,5.836,5.836,0,0,1-.36-2.373Z" transform="translate(-132.557 -167.194)"/></g><g transform="translate(0.237 3.594)"><path class="e" d="M131.61,157.217a5.835,5.835,0,0,1,.194,2.392,5.837,5.837,0,0,1-.194-2.392Z" transform="translate(-131.549 -157.217)"/></g><path class="e" d="M131.154,149.709c.068,0,.137.262.153.592s-.027.6-.1.6-.137-.261-.153-.592S131.085,149.712,131.154,149.709Z" transform="translate(-131.054 -149.709)"/></g><rect class="f" width="39.852" height="26.861" transform="translate(0.013 1.889) rotate(-2.699)"/><path class="e" d="M87,117.788v-.012L85.735,90.932h.012l39.819-1.877v.012l1.265,26.843h-.012ZM85.76,90.955l1.263,26.807,39.783-1.875L125.544,89.08Z" transform="translate(-85.735 -89.055)"/><g transform="translate(0.155 0.328)"><path class="e" d="M125.866,89.741a2.807,2.807,0,0,1-.354.374l-1.063,1.024-3.957,3.718-13.177,12.2-.108.1-.12-.087-.291-.21L92.088,96.141,87.655,92.86l-1.194-.907a2.853,2.853,0,0,1-.4-.336,2.846,2.846,0,0,1,.445.277l1.234.852,4.5,3.187,14.771,10.629.291.21-.228.013,13.25-12.117,4.034-3.634,1.108-.974A2.777,2.777,0,0,1,125.866,89.741Z" transform="translate(-86.058 -89.741)"/></g><g transform="translate(1.418 12.197)"><path class="e" d="M88.7,131.372c-.079-.061,2.741-3.88,6.3-8.529s6.507-8.371,6.586-8.31-2.74,3.879-6.3,8.53S88.779,131.433,88.7,131.372Z" transform="translate(-88.698 -114.532)"/></g><g transform="translate(27.519 11.238)"><path class="e" d="M143.218,112.529c.076-.065,3.206,3.446,6.991,7.843s6.792,8.014,6.717,8.079-3.205-3.445-6.991-7.843S143.143,112.594,143.218,112.529Z" transform="translate(-143.217 -112.528)"/></g></g><g transform="translate(-26.5 123.405)"><g transform="translate(68.083 36.186)"><path class="j" d="M212.728,285.436a1.088,1.088,0,0,0-.826-1.213l-1.067.074-3.817-1.328a1.141,1.141,0,0,0-1.444,1.039c-.022,1.1-.459,4.085-1.348,3.145-.021-.022-.043-.04-.064-.061-1.259-1.4-2.715-2.082-3.278-2a.637.637,0,0,0-.273,1.128.677.677,0,0,0,.226.158c.039.016.086.047.127.068a9.465,9.465,0,0,1,1.459,1.3,5.019,5.019,0,0,1,.96,1.452c.258.592.457,1.113.613,1.556l.06,3.509-1.525,16.407s-10.1-10.607-9.864-10.712l.579,16.513,6.118,5.063a7.694,7.694,0,0,0,12.6-6.056l-.353-21.215.249-2.782Z" transform="translate(-192.663 -282.93)"/></g><g transform="translate(0 62.014)"><path class="j" d="M81.882,336.879l-11.05,25.3-8.747,18.248-6.5,2.184s-5.141,1.493-5.141,2.557,1.356.822,1.356.822c.249,1.589,2.449.688,3.99-.026a18.07,18.07,0,0,1,4.962-.855,1.394,1.394,0,0,0-.1,2.231c.544.382,1.494-.08,2.138-.766s2.3-1,4.138-1.66,2.145-3.133,2.145-3.133L91.215,344.5Z" transform="translate(-50.449 -336.879)"/></g><g transform="translate(24.995 46.771)"><path class="d" d="M145.79,329.468l2.783,3.675,6.025-13.372s-5.849-7.138-7.989-10.133c-2.121-2.968-3.713-3.484-3.713-3.484a27.4,27.4,0,0,0-5.828-1.114l-9.6.573-9.753,4.258a13.5,13.5,0,0,0-5.871,4.944l-9.184,14.75,13,5.558,4.36,24.929c.837,3.738,1.568,7.267,5.019,8.99l24.116-23.176-2.826-4.45Z" transform="translate(-102.66 -305.04)"/><g transform="translate(13.228 19.857)"><path class="e" d="M137.139,346.517c.057.038-1.429,2.349-3.319,5.159s-3.469,5.059-3.526,5.021,1.429-2.348,3.32-5.16S137.081,346.479,137.139,346.517Z" transform="translate(-130.292 -346.517)"/></g><g transform="translate(23.153 43.521)"><path class="e" d="M168.16,395.948a4.277,4.277,0,0,1-.641.382c-.42.233-1.033.558-1.794.953-1.522.79-3.643,1.848-6.011,2.964S155.18,402.325,153.6,403c-.789.336-1.43.6-1.877.778a4.283,4.283,0,0,1-.7.25,4.244,4.244,0,0,1,.664-.34l1.844-.849c1.559-.712,3.712-1.7,6.079-2.813s4.5-2.148,6.038-2.9l1.829-.882A4.284,4.284,0,0,1,168.16,395.948Z" transform="translate(-151.022 -395.947)"/></g><g transform="translate(12.238 9.01)"><path class="e" d="M135.288,329.307a8.237,8.237,0,0,1-.845-1.065A17.173,17.173,0,0,0,132.3,325.8a7.554,7.554,0,0,0-2.761-1.626c-.791-.245-1.318-.239-1.315-.284a.941.941,0,0,1,.368-.029,4.465,4.465,0,0,1,1,.144,6.965,6.965,0,0,1,2.879,1.61,13.692,13.692,0,0,1,2.119,2.525A6.666,6.666,0,0,1,135.288,329.307Z" transform="translate(-128.224 -323.86)"/></g><g transform="translate(23.992 26.606)"><path class="e" d="M167.927,360.614a1.051,1.051,0,0,1,.012.265c0,.173,0,.43-.024.758a18.232,18.232,0,0,1-.384,2.764,19.8,19.8,0,0,1-11.144,13.893,18.251,18.251,0,0,1-2.614.975c-.315.1-.567.146-.735.188a1.041,1.041,0,0,1-.261.046c-.005-.02.344-.121.967-.327a21.476,21.476,0,0,0,2.568-1.042,20.259,20.259,0,0,0,11.047-13.772,21.407,21.407,0,0,0,.46-2.733C167.883,360.977,167.906,360.614,167.927,360.614Z" transform="translate(-152.776 -360.614)"/></g><g class="k" transform="translate(13.052 23.274)"><path d="M131.559,370.1c-.042-.237,3.09-16.447,3.09-16.447l-4.726,7.1" transform="translate(-129.924 -353.654)"/></g><g transform="translate(42.496 8.871)"><path class="e" d="M191.443,323.57a1.2,1.2,0,0,1,.034.279c.013.21.03.475.05.8.037.73.087,1.728.148,2.946.122,2.518.288,5.94.471,9.72.18,3.8.323,7.237.4,9.727.038,1.245.061,2.253.069,2.949,0,.326,0,.592,0,.8a1.183,1.183,0,0,1-.016.281,1.2,1.2,0,0,1-.034-.279c-.013-.21-.03-.475-.05-.8-.037-.729-.087-1.727-.148-2.946-.122-2.518-.288-5.94-.471-9.722s-.323-7.235-.4-9.725c-.037-1.245-.061-2.253-.069-2.95,0-.326,0-.592,0-.8A1.189,1.189,0,0,1,191.443,323.57Z" transform="translate(-191.427 -323.57)"/></g><g class="l" transform="translate(22.759 38.325)"><path d="M150.7,398.352a1.937,1.937,0,0,1,.086-2.69,5.936,5.936,0,0,1,2.647-1.364c4.582-1.484,9.189-3.582,12.212-7.333A7.208,7.208,0,0,1,167,385.508a1.866,1.866,0,0,1,1.88-.26c.926.481.961,1.823.572,2.792a5.363,5.363,0,0,1-2.527,2.758" transform="translate(-150.199 -385.093)"/></g><g class="l" transform="translate(42.612 11.748)"><path d="M191.669,329.579l2.676,15.529-2.085-2.752Z" transform="translate(-191.669 -329.579)"/></g></g><g transform="translate(47.921 71.184)"><g transform="translate(40.623 28.129)"><path class="d" d="M239.927,414.79,235.4,430.309l19.279,5.729c.434-1.875-8.441-8.536-8.441-8.536l3.307-9.824Z" transform="translate(-235.402 -414.79)"/><g class="m" transform="translate(4.312 10.097)"><path class="n" d="M245.222,435.888a.821.821,0,0,0-.811.737.789.789,0,0,0,.723.81.866.866,0,0,0,.855-.785c-.02-.4-.45-.841-.846-.76" transform="translate(-244.409 -435.881)"/></g><g class="m" transform="translate(0 13.972)"><path class="n" d="M235.4,445.522l.517-1.546,18.291,6.07s.748.629.471,1.2Z" transform="translate(-235.402 -443.976)"/></g><g transform="translate(9.106 12.471)"><path class="e" d="M256.5,441.074c-.031.093-.514,0-1.068.161s-.917.487-.993.424c-.081-.044.226-.565.9-.753S256.542,440.994,256.5,441.074Z" transform="translate(-254.423 -440.84)"/></g><g transform="translate(11.276 14.048)"><path class="e" d="M260.632,444.228c-.006.1-.461.136-.9.44s-.655.7-.748.665c-.093-.012.006-.582.558-.948S260.657,444.138,260.632,444.228Z" transform="translate(-258.955 -444.133)"/></g><g transform="translate(13.335 15.484)"><path class="e" d="M263.3,448.553c-.091-.005-.083-.515.312-.958s.9-.518.913-.428-.338.285-.656.654S263.4,448.572,263.3,448.553Z" transform="translate(-263.256 -447.133)"/></g><g transform="translate(9.65 9.693)"><path class="e" d="M257.594,435.727c-.065.074-.459-.184-1-.306s-1.008-.078-1.033-.172.473-.313,1.111-.16S257.662,435.667,257.594,435.727Z" transform="translate(-255.559 -435.037)"/></g><g transform="translate(9.289 5.659)"><path class="e" d="M257.422,428.911a1.889,1.889,0,0,1-.964-.292,4.519,4.519,0,0,1-.918-.61,4.761,4.761,0,0,1-.467-.459,1.226,1.226,0,0,1-.224-.314.428.428,0,0,1,.105-.514.54.54,0,0,1,.476-.093,1.311,1.311,0,0,1,.348.158,3.583,3.583,0,0,1,.539.384,3.543,3.543,0,0,1,.717.849,1.678,1.678,0,0,1,.335.953c-.052.018-.182-.341-.535-.818a4.038,4.038,0,0,0-.717-.741,3.771,3.771,0,0,0-.5-.336c-.188-.114-.362-.168-.441-.092-.029.029-.036.042-.011.114a1,1,0,0,0,.165.23,5.289,5.289,0,0,0,.424.443,5.558,5.558,0,0,0,.827.635A6.914,6.914,0,0,1,257.422,428.911Z" transform="translate(-254.805 -426.61)"/></g><g transform="translate(11.683 5.201)"><path class="e" d="M259.866,428.511a1.6,1.6,0,0,1,.022-1.008,3.268,3.268,0,0,1,.866-1.531.834.834,0,0,1,.761-.3.47.47,0,0,1,.323.389,1.354,1.354,0,0,1-.006.383,2.246,2.246,0,0,1-.193.651,2.316,2.316,0,0,1-.709.875c-.525.388-.951.383-.95.349-.017-.057.365-.141.8-.536a2.316,2.316,0,0,0,.575-.816,2.082,2.082,0,0,0,.148-.563c.031-.214,0-.4-.08-.4-.1-.03-.3.076-.431.216a3.346,3.346,0,0,0-.395.452,3.605,3.605,0,0,0-.473.908C259.925,428.13,259.921,428.512,259.866,428.511Z" transform="translate(-259.805 -425.655)"/></g></g><path class="o" d="M215.488,361.055c.488,3.58-.737,7.618-2.032,10.991L205,391.926l-9.357-1.436a12.051,12.051,0,0,1-4.446,3,9.2,9.2,0,0,1-7.807-1.081h0s-4.275,5.955-11,7.757-16.911,2.794-21.842-5.075l23.47-22.618c.484.116,20.217-13.191,30.875-16.221C204.893,356.254,214.59,354.471,215.488,361.055Z" transform="translate(-150.547 -356.034)"/><g transform="translate(17.725 14.324)"><path class="p" d="M214.245,406.007a.65.65,0,0,1,.126-.077l.383-.2c.337-.178.837-.434,1.47-.784a24.18,24.18,0,0,0,2.238-1.38A11.666,11.666,0,0,0,221,401.215a8.139,8.139,0,0,0,1.643-3.8,12.754,12.754,0,0,0-.2-4.783,7.719,7.719,0,0,0-2.583-4.495,9.74,9.74,0,0,0-5.285-1.881,16.343,16.343,0,0,0-2.9.024,21.738,21.738,0,0,0-2.779.488,32.932,32.932,0,0,0-5.05,1.747c-3.129,1.366-5.844,2.842-8.229,3.861a29.444,29.444,0,0,1-5.817,1.942c-.354.079-.672.129-.948.172s-.509.077-.7.093l-.432.042a.64.64,0,0,1-.148.006.7.7,0,0,1,.146-.031l.428-.066c.189-.024.421-.061.694-.117s.589-.107.94-.194a30.931,30.931,0,0,0,5.766-2.009c2.368-1.036,5.069-2.526,8.209-3.91a32.826,32.826,0,0,1,5.083-1.773,21.8,21.8,0,0,1,2.812-.5,16.494,16.494,0,0,1,2.944-.026,9.949,9.949,0,0,1,5.416,1.938,6.829,6.829,0,0,1,1.76,2.139,9.867,9.867,0,0,1,.894,2.5,12.9,12.9,0,0,1,.18,4.868,8.3,8.3,0,0,1-1.708,3.873,11.672,11.672,0,0,1-2.593,2.355,22.764,22.764,0,0,1-2.271,1.351c-.641.337-1.149.579-1.494.743l-.394.181A.648.648,0,0,1,214.245,406.007Z" transform="translate(-187.572 -385.955)"/></g><g transform="translate(46.136 8.291)"><path class="p" d="M251.049,373.353a56.53,56.53,0,0,1-4.13,6.263,56.4,56.4,0,0,1,4.13-6.263Z" transform="translate(-246.916 -373.352)"/></g><g transform="translate(47.876 31.526)"><path class="p" d="M256.963,424.949c-.043.015-.156-.424-.552-1.009a4.049,4.049,0,0,0-4.817-1.563c-.665.24-1.014.53-1.04.493-.01-.012.067-.1.227-.223a3.382,3.382,0,0,1,.748-.434,3.989,3.989,0,0,1,5.031,1.633,3.4,3.4,0,0,1,.351.791C256.966,424.833,256.978,424.945,256.963,424.949Z" transform="translate(-250.552 -421.886)"/></g></g><g transform="translate(70.22)"><g transform="translate(0 9.738)"><g transform="translate(0.776)"><g transform="translate(6.771)"><path class="p" d="M212.89,243.861s3.131-.941,7.29-5.581,5.838-10.517,6.389-10.53,2.862-1.3,8.151,8.264,3.667,12,2.76,12.048-7.187-1.208-11-.485a41.311,41.311,0,0,0-8.6,3.093Z" transform="translate(-212.89 -227.686)"/></g><g transform="translate(0 14.223)"><path class="e" d="M199.157,265.249l1.239,1.984.555.888a2.7,2.7,0,0,0,3.6.932l6.646-2.884-4.648-8.775L200,261.533A2.7,2.7,0,0,0,199.157,265.249Z" transform="translate(-198.746 -257.394)"/></g><g transform="translate(4.59 23.147)"><path class="e" d="M208.334,277.98l2.491,4.1,1.065-.383,7.53,5.248,1.7-4.032s-4.33-1.5-5.218-2.934-.016-1.845-.016-1.845l-2.141-2.1Z" transform="translate(-208.334 -276.036)"/></g><g transform="translate(20.672 0.202)"><path class="e" d="M249.5,236.442c2.822,5.185,4.186,9.892,3.047,10.512s-4.351-3.081-7.173-8.266-4.186-9.892-3.047-10.512S246.679,231.257,249.5,236.442Z" transform="translate(-241.926 -228.108)"/></g></g><g transform="translate(0 22.296)"><path class="p" d="M197.948,277.066l1.806-.718-1.306-2.091-1.323.965Z" transform="translate(-197.125 -274.257)"/></g><g transform="translate(6.062 23.866)"><path class="p" d="M215.232,277.537l-4.734,3.539-.71-1.169Z" transform="translate(-209.788 -277.537)"/></g><g transform="translate(1.164 22.296)"><path class="p" d="M199.716,274.257l1.306,2.091-.371.148-1.093-2.123Z" transform="translate(-199.558 -274.257)"/></g><g transform="translate(2.634 20.579)"><path class="p" d="M202.627,272.8a20.639,20.639,0,0,0,3.889-2.118,20.637,20.637,0,0,0-3.889,2.118Z" transform="translate(-202.626 -270.672)"/></g><g transform="translate(1.968 19.389)"><path class="p" d="M201.238,270.246a17.292,17.292,0,0,0,3.493-2.055,17.3,17.3,0,0,0-3.493,2.055Z" transform="translate(-201.237 -268.185)"/></g><g transform="translate(3.452 22.099)"><path class="p" d="M204.336,275.756c.012.031.228-.036.571-.17.171-.067.373-.151.6-.247s.45-.237.695-.371a7.9,7.9,0,0,0,1.686-1.115,9.533,9.533,0,0,0-1.8.906c-.243.132-.467.275-.68.383s-.406.2-.566.289C204.518,275.6,204.325,275.726,204.336,275.756Z" transform="translate(-204.336 -273.847)"/></g><g transform="translate(23.994 7.202)"><path class="p" d="M247.245,243.237s2.639-1.921,4.431,1.7S250.6,249.4,250.6,249.4A24.968,24.968,0,0,1,247.245,243.237Z" transform="translate(-247.245 -242.729)"/></g><g transform="translate(20.718 3.474)"><path class="e" d="M240.4,234.943a4.262,4.262,0,0,0,.162.706c.121.45.294,1.1.532,1.9l.479,1.28.269.712.141.372c.051.125.114.246.172.371l.745,1.566.2.411c.064.139.15.268.225.4l.474.817.475.817c.081.132.15.271.239.4l.26.374.992,1.423c.08.112.155.227.237.333l.254.308.487.588.876,1.051c.576.6,1.058,1.074,1.389,1.4a4.182,4.182,0,0,0,.534.49,4.247,4.247,0,0,0-.467-.554l-1.334-1.455L246.9,247.6l-.473-.59-.248-.308c-.081-.106-.153-.221-.232-.334l-.974-1.421-.256-.372c-.088-.124-.156-.262-.236-.394l-.471-.812-.472-.811c-.075-.135-.161-.262-.225-.4l-.2-.407-.753-1.55c-.058-.124-.123-.244-.175-.367l-.145-.368-.279-.7-.5-1.263c-.252-.783-.457-1.42-.6-1.875A4.178,4.178,0,0,0,240.4,234.943Z" transform="translate(-240.401 -234.943)"/></g><g transform="translate(11.757 25.222)"><path class="j" d="M223.531,280.4a.815.815,0,0,1,.561.982c-.206.814-.542,2.092-.813,2.874a2.067,2.067,0,0,1-.359.709.668.668,0,0,1-1.218-.346,2.122,2.122,0,0,1,.069-.835c.169-.759.477-1.9.746-2.829a.815.815,0,0,1,1.013-.555Z" transform="translate(-221.683 -280.369)"/><g transform="translate(1.296 1.323)"><path class="j" d="M226.238,283.165a.815.815,0,0,1,.561.982c-.206.814-.542,2.092-.813,2.874a2.071,2.071,0,0,1-.359.709.668.668,0,0,1-1.218-.346,2.124,2.124,0,0,1,.069-.835c.169-.758.477-1.9.746-2.829a.815.815,0,0,1,1.014-.555Z" transform="translate(-224.39 -283.132)"/></g><g transform="translate(2.795 2.121)"><path class="j" d="M229.122,284.828a.705.705,0,0,1,.485.85c-.178.7-.469,1.812-.7,2.488a1.8,1.8,0,0,1-.31.614.579.579,0,0,1-1.055-.3,1.847,1.847,0,0,1,.06-.723c.146-.657.413-1.644.646-2.45a.706.706,0,0,1,.878-.481Z" transform="translate(-227.522 -284.799)"/></g><g transform="translate(4.208 2.281)"><path class="j" d="M232.081,285.163a.709.709,0,0,1,.488.855c-.179.708-.472,1.82-.707,2.5a1.807,1.807,0,0,1-.312.617.582.582,0,0,1-1.06-.3,1.865,1.865,0,0,1,.061-.727c.147-.66.415-1.652.649-2.461a.709.709,0,0,1,.881-.483Z" transform="translate(-230.473 -285.134)"/></g><g transform="translate(1.38 1.624)"><path class="q" d="M224.581,286.751a9.908,9.908,0,0,1,.944-2.988,9.905,9.905,0,0,1-.944,2.988Z" transform="translate(-224.566 -283.762)"/></g><g transform="translate(4.079 2.69)"><path class="q" d="M230.217,289a19.4,19.4,0,0,1,.895-3.01,6.735,6.735,0,0,1-.895,3.01Z" transform="translate(-230.204 -285.988)"/></g><g transform="translate(2.744 2.515)"><path class="q" d="M227.428,288.633a19.236,19.236,0,0,1,.895-3.009,6.752,6.752,0,0,1-.895,3.009Z" transform="translate(-227.415 -285.624)"/></g></g></g><g transform="translate(29.868)"><path class="e" d="M268.482,207.344c.055.042-1.908,2.708-4.384,5.954s-4.528,5.844-4.583,5.8,1.908-2.707,4.384-5.954S268.427,207.3,268.482,207.344Z" transform="translate(-259.515 -207.344)"/><g transform="translate(3.27 7.597)"><path class="e" d="M284.889,223.214c.029.062-4.1,2.04-9.219,4.416s-9.3,4.253-9.325,4.19,4.1-2.039,9.22-4.417S284.86,223.152,284.889,223.214Z" transform="translate(-266.345 -223.213)"/></g><g transform="translate(6.782 22.131)"><path class="e" d="M286.8,254.849c-.007.068-2.949-.159-6.571-.508s-6.554-.688-6.548-.757,2.948.159,6.572.508S286.806,254.781,286.8,254.849Z" transform="translate(-273.681 -253.572)"/></g></g></g><g transform="translate(43.005 19.036)"><g transform="translate(1.327 3.069)"><path class="j" d="M143.226,263.688l3.251,18.481a6.084,6.084,0,0,0,6.85,4.921h0a6.018,6.018,0,0,0,5.171-6.915l-.529-3.18s4.547-1.233,4.073-5.8c-.228-2.2-1.073-6.692-1.886-10.753a8.711,8.711,0,0,0-9.96-6.811h0A8.5,8.5,0,0,0,143.226,263.688Z" transform="translate(-143.052 -253.517)"/><g transform="translate(8.692 22.48)"><g transform="translate(0)"><path class="q" d="M167.44,301.481a10.986,10.986,0,0,1-6.232-1.007s1.809,3.12,6.381,2.187Z" transform="translate(-161.208 -300.474)"/></g></g></g><g transform="translate(0)"><path class="e" d="M158.734,249.3a1.613,1.613,0,0,0-2.1.132,1.456,1.456,0,0,0-.406-1.915,2.468,2.468,0,0,0-2.094-.3,7.252,7.252,0,0,0-1.955.961.734.734,0,0,0-.324-.743,1.692,1.692,0,0,0-.822-.258,6.237,6.237,0,0,0-3.452.775,21.487,21.487,0,0,0-3.194,2.166h0a15.171,15.171,0,0,0-2.919,3.123l-.036.032a5.087,5.087,0,0,0-1.144,3.315c.377,3.284,1.466,5.187,2.079,8.3a1.112,1.112,0,0,0,.234.577c.38.394,1.06.06,1.418-.353a5.874,5.874,0,0,0,1.216-3.7c.043-1.32-.144-2.64-.115-3.961l0-.093a6.978,6.978,0,0,1,.1-1.009,3.32,3.32,0,0,1,2.432-2.409c1.925-.327,5.721,1.541,7.6,1.243s1.978-1.625,1.978-1.625l1.106,2.25a6.763,6.763,0,0,0,.178-2.811,3.177,3.177,0,0,0,.934-1.641A2.108,2.108,0,0,0,158.734,249.3Z" transform="translate(-140.279 -247.107)"/></g><g transform="translate(0.44 15.152)"><path class="j" d="M144.068,278.808c-.083-.025-3.289-.567-2.824,2.539s3.534,2.006,3.526,1.916S144.068,278.808,144.068,278.808Z" transform="translate(-141.198 -278.757)"/><g transform="translate(0.832 1.093)"><path class="q" d="M144.536,283.416c-.015-.008-.049.046-.135.1a.566.566,0,0,1-.409.068,1.355,1.355,0,0,1-.809-1.11,1.771,1.771,0,0,1,.038-.8.633.633,0,0,1,.351-.475.285.285,0,0,1,.347.1c.055.081.045.146.062.149s.06-.062.015-.187a.352.352,0,0,0-.153-.177.427.427,0,0,0-.315-.035.772.772,0,0,0-.5.565,1.823,1.823,0,0,0-.061.893,1.426,1.426,0,0,0,1,1.225.6.6,0,0,0,.49-.155C144.542,283.492,144.548,283.42,144.536,283.416Z" transform="translate(-142.935 -281.04)"/></g></g></g><g transform="translate(220.751 22.659)"><path class="r" d="M544.959,255.5s-4.245.295-7.379,7.94c-3.161,7.712,3.909,7.635,1.527,12.548s3.428,7.843,5.192,11.866,10.654,13.725,11.358,18.15,8.608-4.6,8.608-4.6,8.034-8.57,5.154-13.549c-4.748-8.207-.635-9.99-.784-14.573S559.786,250.636,544.959,255.5Z" transform="translate(-495.952 -254.675)"/><path class="s" d="M503.44,313.688s-16.436,7.163-19.557,7.027-22.36-5.86-22.36-5.86l.49,3.309s14.847,8.539,20.037,9.023c5.11.477,22.584-4.586,24.271-5.655S508.343,314.77,503.44,313.688Z" transform="translate(-456.739 -285.436)"/><path class="t" d="M546.311,310.45a16.539,16.539,0,0,0,5.783,2.461c8.913,2.059,12.328-5.474,13.611-10.645a7.659,7.659,0,0,0-3.019-.928c-.644-.076-1.322-.126-1.883-.154-1-.767-2.492-3.9-2.822-8.775l-.419.112-7.024,1.923s.322,2.233.479,4.343c.122,1.652.337,2.61.023,3a2.4,2.4,0,0,0-1.072.816.013.013,0,0,1,0,.007A45.244,45.244,0,0,0,546.311,310.45Z" transform="translate(-500.936 -274.344)"/><path class="u" d="M555.137,294.569s.323,2.231.479,4.344c3.98-.4,5.827-4.187,6.546-6.266Z" transform="translate(-505.536 -274.468)"/><path class="t" d="M548.371,283.381s9.446-.521,9.031-6.4.525-9.9-5.524-9.819-7.061,2.41-7.4,4.405S545.9,283.365,548.371,283.381Z" transform="translate(-499.959 -261.184)"/><path class="f" d="M562.118,338.133c.854-4.361,3.635-21.783.854-27.39-1-2.014-4.918-2.2-9.22-2.019-1.338.864-6.437,4.129-8.532,3.721-.022,0-.063-.014-.117-.027a1.208,1.208,0,0,1-.341-2.157s-2.325.415-4.97.912a35.333,35.333,0,0,0-5.524,2.366s2.029,3.666,5.021,4.931c-.508,4.551.248,6.559,4.97,17.072a19.986,19.986,0,0,1-.538,16.887s23.488,18.884,23.619,9.269C567.438,354.461,561.028,343.706,562.118,338.133Z" transform="translate(-494.659 -282.822)"/><path d="M527.657,386.717a4.367,4.367,0,0,1-3.141-1.913q-.17-.254-.363-.547c-2.674-4.047-3.714-16.443-9.728-29.647-1.465-3.215-6.723-3.793-8.157-7.427,0,0-3.529-11.779,6.755-12.126s27.54,32.774,27.812,36.248C541.1,374.67,547.633,388.971,527.657,386.717Z" transform="translate(-479.758 -296.574)"/><path class="f" d="M466.209,434.135h14.636a6.083,6.083,0,0,0-.414-3.923c-.851-1.406-.525-2.207.105-3.369a5.685,5.685,0,0,1-2.465.464,5.156,5.156,0,0,1-2.177-.766,52.779,52.779,0,0,1-4.17,4.381C470.769,431.61,466.5,431.365,466.209,434.135Z" transform="translate(-459.182 -344.262)"/><path class="f" d="M565.122,322.537s1.9,17.331-10.449,20.963-15.861-15.946-5.886-17.355A96,96,0,0,0,565.122,322.537Z" transform="translate(-499.205 -290.049)"/><path d="M494.507,337.955c-.881,6.607-4.323,27.461-10.394,37.636-1.957,3.28,4.931,5.119,4.969,5.109.924-.242,2.463-1.715,3.172-2.354,4.929-4.442,14.935-17.02,14.935-27.1,0-4.917.086-14.308-3.49-16.694C501.5,333.078,494.857,335.331,494.507,337.955Z" transform="translate(-468.332 -296.067)"/><path class="o" d="M545.9,385.628s-.542-.755-1.488-2.188c-1.125-1.7-2.371-5.06-3.882-9.361-1.587-4.515-3.471-10.069-5.824-15.849-.726-1.784-1.5-3.589-2.318-5.392-1.465-3.215-5.495-2.77-6.928-6.405,0,0-5.594-12.6,4.689-12.946s29.823,33.7,30.946,37C562.325,374.1,568.322,389.087,545.9,385.628Z" transform="translate(-489.275 -295.755)"/><path class="f" d="M488.651,434.135h14.636a6.083,6.083,0,0,0-.414-3.923c-.85-1.406-.525-2.207.105-3.369a5.684,5.684,0,0,1-2.465.464,5.151,5.151,0,0,1-2.176-.766,52.686,52.686,0,0,1-4.17,4.381C493.211,431.61,488.945,431.365,488.651,434.135Z" transform="translate(-470.88 -344.262)"/><path class="o" d="M552.253,390.4c-1.588-4.515-3.471-10.069-5.824-15.849.615-4.379,1.94-8.209,4.17-9.753C550.6,364.8,556.007,381.558,552.253,390.4Z" transform="translate(-500.997 -312.08)"/><path class="o" d="M514.749,337.772c-.881,6.607-2.122,27.93-8.194,38.1-1.957,3.28,4.931,5.119,4.969,5.109.924-.242,2.463-1.715,3.172-2.354,4.929-4.442,14.934-17.02,14.934-27.1,0-4.917-5.77-13.913-9.346-16.3A3.6,3.6,0,0,0,514.749,337.772Z" transform="translate(-480.03 -296.352)"/><path class="v" d="M468.916,303.054s-.749-1.9-2.114-1.781-13.758,1.781-13.758,1.781a3.521,3.521,0,0,1,1.987,1.292l5.718,16.847h14.664Z" transform="translate(-452.319 -278.962)"/><path class="w" d="M538.709,313s-20.773,7.65-23.895,7.493c-2.017-.1-18.787-6-18.787-6l-1.505,2.848s16.322,10.491,20.809,10.439c8.859-.1,23.807-5.54,25.494-6.609S543.612,314.081,538.709,313Z" transform="translate(-473.94 -285.077)"/><path class="w" d="M485.936,313.527s-1.505-2.317-3-2.385-4.088,1.022-4.974,1.193-3.407.988-2.658,2.214,4.224,1.5,5.724,1.227a6.948,6.948,0,0,1,3.407.6Z" transform="translate(-463.849 -284.107)"/><path class="w" d="M488.353,309.8s-2.384-1.093-3.065-1.3-.545,0-.341.649,1.431,1.262,1.431,1.465S488.353,309.8,488.353,309.8Z" transform="translate(-468.862 -282.693)"/><path class="n" d="M548.961,293.748a8.728,8.728,0,0,1,3.406-.149s-.134.98-1.987,1.077A1.479,1.479,0,0,1,548.961,293.748Z" transform="translate(-502.317 -274.932)"/><path class="f" d="M564.465,316.247a11.414,11.414,0,0,0,8.239,7.22s10.537-3.246,5.291-10.425C577.995,313.042,572.807,309.187,564.465,316.247Z" transform="translate(-510.399 -284.552)"/><path class="x" d="M452.255,303.071s-1.377.527-.335,2.313l13.4-1.787s-.465-2.071.586-2.3Z" transform="translate(-451.53 -278.979)"/><path class="s" d="M460.367,311.486c.318-1.273.3-1.581-.422-2.359-.476-.514-1.2.761-1.581,1.53a3.887,3.887,0,0,0-.453-.92,8.845,8.845,0,0,0,.16,1.712h0a1.668,1.668,0,0,0-.009.22h0a3.713,3.713,0,0,0,1.951,3.966l-.483-1.419C459.825,314.165,460.044,312.78,460.367,311.486Z" transform="translate(-454.842 -282.997)"/><path class="r" d="M548.99,266.146a2.39,2.39,0,0,1,2.956,1.337c.964,2.035,1.271,6.9,5.137,7.295s4.016-8.237,4.016-8.237l-9.677-3.821-5.11,3.226Z" transform="translate(-500.936 -258.868)"/><path class="r" d="M546.518,268.734s-2.181.046-2.679,1.882.28,5.26-.928,5.508-2.3-5.707.031-7.642S546.518,268.734,546.518,268.734Z" transform="translate(-498.465 -261.456)"/></g></g></g></svg>