<svg xmlns="http://www.w3.org/2000/svg" xmlns:xlink="http://www.w3.org/1999/xlink" width="138.179" height="119.686" viewBox="0 0 138.179 119.686"><defs><style>.a,.d,.e,.r{fill:none;}.b{fill:#2a5698;}.c{fill:#e5ecff;}.d,.e{stroke:#fbc343;}.d,.e,.r,.v,.z{stroke-miterlimit:10;}.d{stroke-width:3.82px;}.e,.v{stroke-width:3.75px;}.f{clip-path:url(#a);}.g{fill:rgba(251,195,67,0.24);}.h,.k,.v,.z{fill:#fff;}.i{fill:#e28b6d;}.j{fill:#0f0f10;}.k{opacity:0.8;}.l,.n{fill:#1f3c88;}.m{fill:#171616;}.n,.x{opacity:0.3;}.o{fill:#102048;}.p{fill:#f9b384;}.q{fill:#6f3428;}.r{stroke:#102048;}.r,.z{stroke-width:5px;}.s,.t,.x{fill:#3c1c16;}.t{opacity:0.15;}.u{fill:#4d4b4b;}.v{stroke:#1f3c88;}.w{fill:#f6b333;}.y{fill:#d1e5ff;}.z{stroke:#708cd5;}</style><clipPath id="a"><path class="a" d="M393.788,704.308c-3.4,9.853-7.465,19.583-21.6,23.34L311.113,727c-13.763-6.507-21.285-19.355-22.536-33.216a47.3,47.3,0,0,1,.817-13.884q.376-1.821.9-3.62c3.155-10.889,9.834-21.155,19.769-26.946,6.383-3.721,14.566-2.493,21.345-.583,6.113,1.722,12.084,4.133,18.394,4.86,5.027.577,10.141.065,15.184.263a36.915,36.915,0,0,1,5.377.567,31.3,31.3,0,0,1,19.007,12.36,33.995,33.995,0,0,1,3.986,6.936C397.435,683.329,397.19,694.455,393.788,704.308Z" transform="translate(-288.389 -646.925)"/></clipPath></defs><g transform="translate(-155.679 -288.166)"><g transform="translate(155.679 291.701)"><g transform="translate(122.948 85.31)"><path class="b" d="M1686.1,1475.87h-.039l.114-1.977h-10.059l.485,8.389a2.972,2.972,0,0,0,2.967,2.8h3.155a2.972,2.972,0,0,0,2.968-2.8l.112-1.936c.1.009.2.015.3.015a2.279,2.279,0,1,0,0-4.492Zm0,3.562a2.222,2.222,0,0,1-.244-.015l.151-2.613c.031,0,.062,0,.093,0a1.366,1.366,0,1,1,0,2.631Z" transform="translate(-1676.119 -1463.733)"/><g transform="translate(2.629)"><path class="c" d="M1712.021,1357.736a3.951,3.951,0,0,1-2.551-1.516,4.043,4.043,0,0,1-.709-1.394c-.04-.127-.063-.257-.092-.386s-.043-.261-.05-.393a4.25,4.25,0,0,1,0-.789,4.374,4.374,0,0,1,.429-1.509,4.022,4.022,0,0,1,.414-.671,4.184,4.184,0,0,1,.523-.571c.177-.165.348-.307.494-.45a2.528,2.528,0,0,0,.2-.212,1.432,1.432,0,0,0,.151-.214,1.025,1.025,0,0,0,.141-.483.622.622,0,0,0-.14-.444l.254-.369a.966.966,0,0,1,.346.305,1.268,1.268,0,0,1,.183.417,1.658,1.658,0,0,1-.04.874,3.949,3.949,0,0,1-.866,1.278,3.9,3.9,0,0,0-.368.488c-.056.082-.1.171-.152.256s-.091.177-.128.269a3.916,3.916,0,0,0-.3,1.149,3.642,3.642,0,0,0,.511,2.288,4.31,4.31,0,0,0,1.869,1.644Z" transform="translate(-1708.602 -1348.335)"/><path class="c" d="M1754.571,1370.987a4.846,4.846,0,0,0,.982-1.17,3.9,3.9,0,0,0,.5-1.334,4.107,4.107,0,0,0-.022-1.422,5.3,5.3,0,0,0-.506-1.44l.326-.307a3.01,3.01,0,0,1,1.147,1.459,3.519,3.519,0,0,1,.18,1.91,3.6,3.6,0,0,1-.838,1.723,3.119,3.119,0,0,1-1.569.982Z" transform="translate(-1750.851 -1363.94)"/></g></g><g transform="translate(3.951 28.544)"><path class="d" d="M448.829,757.986c-12.833-2.487-21.9-9.972-26.1-21.566-6.693-18.442.478-45.629,19.665-51.6,7.6-2.366,16.929,1.87,24.735,1.813,10.964-.081,20.824-6.816,31.715-5.957,14.18,1.118,24.545,14.194,27.2,27.461a39.234,39.234,0,0,1,.288,13.85,42.258,42.258,0,0,1-4.865,14.177c-2.115,3.719-7,8.642-11.163,9.633Z" transform="translate(-402.812 -677.873)"/><path class="e" d="M284.849,820.378c12.683-3.134,22.374-12.6,25.715-23.433,5.315-17.23-3.938-41.471-23.634-45.6a38.634,38.634,0,0,0-12.276-.157c-6.63.767-13.432,1.731-20.113,1.518-6.5-.208-12.8-2.12-19.348-1.972-21.643.488-34.605,21.176-29.638,40.121a36.807,36.807,0,0,0,5.954,12.565c2.4,3.239,7.68,7.385,11.926,8Z" transform="translate(-204.496 -742.324)"/><g transform="translate(6.789)"><g class="f"><g transform="translate(-18.683 -0.307)"><path class="g" d="M393.788,704.308c-3.4,9.853-7.465,19.583-21.6,23.34L311.113,727c-13.763-6.507-21.285-19.355-22.536-33.216a47.3,47.3,0,0,1,.817-13.884q.376-1.821.9-3.62c3.155-10.889,9.834-21.155,19.769-26.946,6.383-3.721,14.566-2.493,21.345-.583,6.113,1.722,12.084,4.133,18.394,4.86,5.027.577,10.141.065,15.184.263a36.915,36.915,0,0,1,5.377.567,31.3,31.3,0,0,1,19.007,12.36,33.995,33.995,0,0,1,3.986,6.936C397.435,683.329,397.19,694.455,393.788,704.308Z" transform="translate(-269.706 -646.618)"/><path class="h" d="M65.21,715.747c-.278-3.385,1.615-7.035,4.941-9.525,3.03-2.268,6.767-3.424,10.356-4.336,19.937-5.065,41-4.461,61.361-3.877,18.2.522,37.02,1.062,55.037-2.431a22.086,22.086,0,0,0,7.555-2.527,7.98,7.98,0,0,0,4.072-6.257c.088-4.367-4.638-7.36-7.463-8.755-10.729-5.3-23.93-7.292-41.543-6.275a198.837,198.837,0,0,0-39.518,6.35c-2.914.775-5.874,1.631-8.737,2.459-10.249,2.966-20.846,6.032-31.655,6.032h-.162c-2.934-.008-6.7-.6-7.985-3.389-.906-1.967-.144-4.207.655-5.74,2.67-5.124,7.72-8.11,11.487-9.713a72.185,72.185,0,0,1,13.277-3.726q.792-.168,1.583-.338a299.532,299.532,0,0,0,29.513-7.964c4.579-1.491,6.929-3.43,7.184-5.928.226-2.215-1.4-4.155-3.108-5.1a13.248,13.248,0,0,0-6.351-1.274h-.027a34.926,34.926,0,0,0-16.288,4.032c-1.851.98-3.636,2.146-5.363,3.273a52.426,52.426,0,0,1-7.2,4.171,34.567,34.567,0,0,1-17.34,2.4c-5.079-.464-8.95-1.712-11.835-3.816a30.068,30.068,0,0,1-4.6-4.491,23.863,23.863,0,0,0-5.742-5.208l.15-.264a24.087,24.087,0,0,1,5.819,5.27,29.835,29.835,0,0,0,4.551,4.447c2.84,2.071,6.661,3.3,11.684,3.759a34.279,34.279,0,0,0,17.189-2.378,52.207,52.207,0,0,0,7.156-4.148c1.733-1.131,3.524-2.3,5.387-3.287a35.232,35.232,0,0,1,16.43-4.067h.027a13.523,13.523,0,0,1,6.5,1.311c1.8.988,3.5,3.039,3.264,5.392-.269,2.63-2.687,4.653-7.392,6.186A299.811,299.811,0,0,1,98.534,664q-.791.171-1.583.338a71.941,71.941,0,0,0-13.221,3.708c-3.721,1.583-8.709,4.53-11.337,9.574-.767,1.473-1.5,3.618-.648,5.472,1.217,2.641,4.865,3.2,7.71,3.213h.162c10.766,0,21.341-3.06,31.571-6.02,2.864-.829,5.826-1.686,8.744-2.461a199.134,199.134,0,0,1,39.579-6.36c17.668-1.022,30.917.982,41.695,6.305,2.89,1.427,7.724,4.5,7.632,9.034a8.283,8.283,0,0,1-4.216,6.509,22.349,22.349,0,0,1-7.657,2.567c-18.05,3.5-36.887,2.959-55.1,2.436-20.344-.583-41.381-1.187-61.277,3.867-3.558.9-7.261,2.049-10.249,4.285-3.243,2.428-5.091,5.976-4.821,9.257Z" transform="translate(-57.315 -643.136)"/></g></g></g></g><path class="i" d="M1218.976,1541.8c4.128,1.058,9.8,2.007,7.991,5.536l-10.283-.01Z" transform="translate(-1130.885 -1440.829)"/><g transform="translate(29.342 76.654)"><rect class="j" width="22.247" height="32.615" rx="11.123"/><path class="k" d="M559.533,1277.221a1.352,1.352,0,0,0-.794.787,5.092,5.092,0,0,0-.366,1.132,15.247,15.247,0,0,0-.293,2.388,43.418,43.418,0,0,0,.05,4.835c.092,1.612.24,3.221.434,4.824q.141,1.2.326,2.4c.119.8.252,1.6.414,2.387l-.116.026c-.193-.787-.359-1.582-.508-2.379s-.268-1.6-.38-2.4q-.325-2.41-.471-4.841a39.5,39.5,0,0,1-.005-4.869,14.982,14.982,0,0,1,.349-2.419,5.267,5.267,0,0,1,.421-1.159,2.178,2.178,0,0,1,.363-.511,1.125,1.125,0,0,1,.549-.319Z" transform="translate(-554.579 -1274.214)"/></g><path class="l" d="M626.791,1305.093a135.343,135.343,0,0,0,4.592,26.808H642.21Z" transform="translate(-588.695 -1223.283)"/><path class="m" d="M658.606,841.565a4.993,4.993,0,0,1-1.48-7.529q.287-.344.639-.7c3.036-3.024,1.144-6.049.72-13.006s7.319-8.848,7.334-8.852c.365-.089,1.072-1.131,1.37-1.39,3.495-3.031,8.508-2.807,12.339-.5a12.559,12.559,0,0,1,4.643,4.727c1.565,3.075,1.847,7.127,4.482,9.521,3.756,3.414,7.922,6.312,7.753,11.817a9.775,9.775,0,0,1-1.741,5.59,14.327,14.327,0,0,1-4.049,3.167,34.8,34.8,0,0,1-7.364,3.56c-2.509.826-5.047,1.569-7.591,2.277l-.722.2Z" transform="translate(-615.554 -766.264)"/><path class="b" d="M906.941,1181.112c9.094-3.122,14.033,7.056,20.825,26.916l6.535,1.763-.759,7.073-2.384.5-19.468.082Z" transform="translate(-846.197 -1108.825)"/><rect class="c" width="138.179" height="4.766" transform="translate(0 106.274)"/><path class="b" d="M731.033,1169.14l20.336,5.09,8.544,25.6-28.543.87-1.888-18.93Z" transform="translate(-683.088 -1098.333)"/><path class="n" d="M717.834,1305.093c5,5.03,3.891,12.4,8.16,13.132,2.826.484,10.856,1.632,14.687,3.228.775.323,2.914,1.914,2.582,3.325-.214.909-3.064.181-3.064.181l-21.34-2.142-4.519-10.456Z" transform="translate(-669.17 -1223.283)"/><path class="o" d="M974.4,1523.936a14.139,14.139,0,0,1,3.551-.788,2.635,2.635,0,0,1,2.034,1.729l-4.527,2.388Z" transform="translate(-908.192 -1423.688)"/><path class="o" d="M1015.07,1304.814l.525,1.2c.173.4.334.8.5,1.207.322.81.633,1.624.925,2.445.591,1.64,1.115,3.3,1.606,4.976s.916,3.364,1.3,5.065c.185.852.364,1.7.523,2.562s.289,1.72.4,2.584l-.112.016q-.214-1.286-.489-2.561c-.175-.851-.37-1.7-.571-2.544q-.6-2.536-1.329-5.042c-.475-1.672-1-3.329-1.561-4.975-.275-.824-.575-1.641-.877-2.455-.154-.406-.3-.815-.462-1.219l-.486-1.21Z" transform="translate(-945.477 -1223.026)"/><g transform="translate(64.583 100.018)"><path class="p" d="M975.649,1534.625s-.856,1.012-3.557.026c-1.273.148-3.64.034-8.142-.7,0,0,1.635,1.143,5.331,1.339,0,0-.158,1.088-2.106,1.04-2.345-.058-2.616-.2-4.753-.111-.437.018-1.388,0-2.418-.035-1.8-.059-3.838-.154-3.838-.154l-1.78-3.182,3.553-1.7a9.259,9.259,0,0,1,2.165-.649,16.926,16.926,0,0,1,5.388-.3C967.32,1530.51,972.9,1532.362,975.649,1534.625Z" transform="translate(-954.387 -1530.075)"/></g><path class="i" d="M960.1,1540.933l-.1.055c-1.8-.059-3.838-.154-3.838-.154l-1.78-3.183,3.553-1.7a9.263,9.263,0,0,1,2.165-.65C958.8,1535.832,957.729,1537.229,960.1,1540.933Z" transform="translate(-889.797 -1434.859)"/><path class="b" d="M629.259,1179.5c-4.622-.947-15.887-1.735-19.035,4.1-2.591,4.8,3.9,20.88,6.718,26.534,1.158,2.328,4.521,3.479,5.829,3.488l18.572-.107c-1.249-.29-2.851-6.995,1.354-6.8l-15.382-2.143a2.107,2.107,0,0,1-1.468-.923,4.409,4.409,0,0,1-.613-1.244l-4.366-15.992Z" transform="translate(-572.923 -1107.252)"/><path class="h" d="M1154.218,1589.037l-18.12-.011v-1.709h18.226Z" transform="translate(-1056.819 -1482.665)"/><g transform="translate(90.815 83.051)"><path class="b" d="M1300.938,1343.74l-21.859-.007,7.973-23.314,21.858.007Z" transform="translate(-1279.079 -1320.419)"/><path class="h" d="M1440.409,1440.943a2.3,2.3,0,0,1-2.877,1.04,1.533,1.533,0,0,1-.166-.091,2.446,2.446,0,0,1,2.565-4.1,1.846,1.846,0,0,1,.668.738A2.5,2.5,0,0,1,1440.409,1440.943Z" transform="translate(-1423.733 -1428.038)"/><path class="b" d="M1445.73,1446.84a2.173,2.173,0,0,1-3.47.576c2.5.227,3.346-1.412,3.3-3.484A2.359,2.359,0,0,1,1445.73,1446.84Z" transform="translate(-1429.054 -1433.935)"/></g><g transform="translate(74.488 100.081)"><path class="q" d="M1091.5,1530.851a18.142,18.142,0,0,1,2.72.673c.891.279,1.766.605,2.628.967a24.271,24.271,0,0,1,2.528,1.211,13.112,13.112,0,0,1,2.31,1.591l-.075.092a13.805,13.805,0,0,0-1.151-.771c-.393-.243-.8-.466-1.209-.678-.82-.427-1.66-.819-2.518-1.167-.847-.374-1.719-.691-2.592-1q-.656-.231-1.32-.434c-.442-.138-.888-.265-1.339-.365Z" transform="translate(-1090.297 -1530.851)"/><path class="q" d="M1086.808,1584.158l.978.28c.326.087.653.163.982.229s.661.12.994.167.668.077,1,.11l.112.011.009.1a.917.917,0,0,1-.036.361.668.668,0,0,1-.2.308.741.741,0,0,1-.318.154,1.556,1.556,0,0,1-.167.024l-.164,0v-.119l.147-.022c.046-.014.094-.021.137-.039a.552.552,0,0,0,.221-.143.472.472,0,0,0,.115-.222.687.687,0,0,0,.007-.256l.12.108a9.906,9.906,0,0,1-2.046-.25,8.829,8.829,0,0,1-.99-.292,10.115,10.115,0,0,1-.949-.391Z" transform="translate(-1085.962 -1579.844)"/><path class="q" d="M1076.833,1555.047c.786.1,1.577.177,2.367.258s1.582.164,2.372.289,1.569.269,2.351.411,1.564.287,2.343.444l.185.037-.079.171a2.275,2.275,0,0,1-.2.42,1.191,1.191,0,0,1-.168.2,2.061,2.061,0,0,1-.2.145,2.726,2.726,0,0,1-.893.283,9.234,9.234,0,0,1-1.8.075c-.3-.011-.6-.024-.893-.05s-.594-.043-.889-.081c-.592-.062-1.18-.145-1.768-.231l.015-.118c.591.049,1.18.114,1.771.149q.443.034.885.054c.3.019.59.024.885.027a10.447,10.447,0,0,0,1.749-.1,2.478,2.478,0,0,0,.793-.255c.057-.033.1-.076.157-.112a.909.909,0,0,0,.119-.142,2.141,2.141,0,0,0,.176-.383l.106.208c-1.561-.294-3.119-.608-4.682-.879-.777-.142-1.566-.237-2.353-.342s-1.576-.209-2.361-.354Z" transform="translate(-1076.815 -1553.089)"/></g><line class="r" x2="138.179" transform="translate(0 106.274)"/><path class="o" d="M823.308,1242.768a6.612,6.612,0,0,0,2.2.974,6.038,6.038,0,0,0,2.382.092,4.951,4.951,0,0,0,2.185-.906,5.023,5.023,0,0,0,1.514-1.841l.109.047q-.126.283-.26.567c-.1.182-.221.354-.332.532s-.27.32-.4.481-.311.283-.466.425a5.007,5.007,0,0,1-2.3.992,6.025,6.025,0,0,1-4.7-1.268Z" transform="translate(-769.254 -1164.39)"/><path class="o" d="M756.938,1304.9l1.014,3.447,1,3.451.988,3.454.491,1.728.245.864a6.513,6.513,0,0,0,.267.834,2.483,2.483,0,0,0,1.182,1.174,6.922,6.922,0,0,0,1.664.555c.58.124,1.167.209,1.762.286l1.78.241,3.559.493,3.556.512-.015.113-3.568-.423-3.566-.442-1.782-.227c-.592-.073-1.193-.157-1.784-.281a7.169,7.169,0,0,1-1.737-.572,2.729,2.729,0,0,1-1.314-1.309,1.426,1.426,0,0,1-.086-.221c-.025-.074-.053-.151-.071-.222l-.121-.432-.242-.865-.484-1.73-.961-3.462-.951-3.465-.935-3.469Z" transform="translate(-708.219 -1223.108)"/><g transform="translate(40.97 44.576)"><path class="p" d="M790.287,1075.782l.911,7.84c.271,2.334-2.189,4.289-4.682,3.642a10.638,10.638,0,0,1-4.448-2.839,1.807,1.807,0,0,1-.551-1.119l-.971-9.449Z" transform="translate(-770.983 -1055.242)"/><path class="s" d="M820.216,1106.6l.5,4.269c-2.015.316-4.854-.817-7.736-4.641Z" transform="translate(-800.788 -1084.995)"/><path class="p" d="M787.562,906.07a21.1,21.1,0,0,1-.74,4.242c-.674,2.243-1.85,4.052-3.864,4.387-5.93.986-10.228-4.91-10.228-4.91l-.689-8.022,3.579-6.192,8.014-.232,3.909,4.623A38.361,38.361,0,0,1,787.562,906.07Z" transform="translate(-763.166 -891.174)"/><path class="m" d="M747.48,881.764c3.183-.237,3.917-2.928,4.134-6.415,0,0,8.623-2.136,11.684,3.994l2.321.252-7.03-9.332-10.926,1.3-2.138,7.093Z" transform="translate(-738.797 -868.124)"/><path class="p" d="M748.74,993.019a1.736,1.736,0,0,0-1.487-.556c-2.115.256-2.482,3.057-2,4.248a4.393,4.393,0,0,0,2.683,2.327l1.684-1.781C749.755,995.4,749.544,993.9,748.74,993.019Z" transform="translate(-738.372 -980.424)"/><path class="t" d="M672.779,1100.425c1.162,3.3,4.737,12.637-1.1,12.4-2.815-.113-5.288-5.572-9.3-4.542a10.543,10.543,0,0,1,1.5-.58Z" transform="translate(-662.377 -1079.66)"/><path class="m" d="M688.979,1073.845c1.127,2.14,4.278,12.725-1.09,12.114-2.587-.295-3.223-3.411-6.974-2.682Z" transform="translate(-679.415 -1055.231)"/><g transform="translate(7.75 12.972)"><path class="s" d="M760.138,1005.693a1.171,1.171,0,0,0-.193-.669,1.194,1.194,0,0,0-.5-.437.8.8,0,0,0-.613-.033,1.568,1.568,0,0,0-.566.419l-.13-.077a1.23,1.23,0,0,1,.557-.653.739.739,0,0,1,.22-.082.764.764,0,0,1,.236-.029l.12,0,.115.025a.829.829,0,0,1,.221.076,1.313,1.313,0,0,1,.627.63,1.1,1.1,0,0,1,.05.858Z" transform="translate(-758.14 -1004.131)"/></g><g transform="translate(1.542)"><path class="u" d="M687.569,1080.331a2.024,2.024,0,0,0-.161.962,3.232,3.232,0,0,0,.231.963c.261.615.608,1.216.913,1.836a7.226,7.226,0,0,1,.709,1.981,4.431,4.431,0,0,1,.052,1.075,4.5,4.5,0,0,1-.089.54,2.565,2.565,0,0,1-.2.52,2.085,2.085,0,0,1-.748.831,1.741,1.741,0,0,1-1.1.259,4.075,4.075,0,0,1-1.033-.318c-.321-.134-.635-.274-.947-.414a8.842,8.842,0,0,0-1.911-.664,2.234,2.234,0,0,0-.97,0,1.32,1.32,0,0,0-.426.208,1.46,1.46,0,0,0-.325.357l-.131-.076a1.632,1.632,0,0,1,.337-.427,1.517,1.517,0,0,1,.482-.268,2.445,2.445,0,0,1,1.075-.061,9.1,9.1,0,0,1,2,.62l.95.394a3.792,3.792,0,0,0,.934.282,1.365,1.365,0,0,0,.864-.213,1.809,1.809,0,0,0,.611-.687,2.177,2.177,0,0,0,.174-.439,4.2,4.2,0,0,0,.083-.477,4.075,4.075,0,0,0-.038-.98,7.674,7.674,0,0,0-.646-1.9c-.282-.623-.612-1.223-.864-1.886a3.477,3.477,0,0,1-.2-1.046,2.1,2.1,0,0,1,.237-1.039Z" transform="translate(-681.431 -1061.13)"/><path class="u" d="M758.616,845.025a11.388,11.388,0,0,1,1.8-.611,17.96,17.96,0,0,1,1.862-.383,15.913,15.913,0,0,1,1.895-.179c.318-.008.636-.007.955.009a6.794,6.794,0,0,1,.95.122l-.021.15c-.312-.009-.621-.02-.932,0s-.621.028-.931.058q-.93.085-1.857.222c-.618.09-1.232.2-1.846.321-.307.059-.612.127-.915.2s-.605.152-.908.233Z" transform="translate(-752.369 -843.848)"/><path class="s" d="M820.324,926.043a3.456,3.456,0,0,1,.806-.287c.275-.064.552-.12.832-.157a12.438,12.438,0,0,1,1.684-.106,12.821,12.821,0,0,1,3.345.453,8.968,8.968,0,0,1,3.046,1.477,6.542,6.542,0,0,1,2.074,2.649l-.137.065a7.115,7.115,0,0,0-2.14-2.443,8.74,8.74,0,0,0-1.409-.822,10.775,10.775,0,0,0-1.539-.557,13.6,13.6,0,0,0-3.247-.495,12.888,12.888,0,0,0-1.649.04,5.686,5.686,0,0,0-1.6.317Z" transform="translate(-809.083 -918.886)"/></g></g><g transform="translate(9.791 79.007)"><g transform="translate(5.306 2.865)"><path class="s" d="M342.8,1305.217l2.08.674a.457.457,0,0,1,.055.848l-2.272,1.077,0,.031,3.178.633a.22.22,0,0,1-.086.432l-3.178-.633a.457.457,0,0,1-.107-.861l2.272-1.077,0-.031-2.08-.674a.22.22,0,0,1,.136-.419Z" transform="translate(-342.213 -1305.206)"/></g><path class="s" d="M277.176,1269.819l1.848.6a.406.406,0,0,1,.049.753l-2.018.957,0,.027,2.822.563a.2.2,0,1,1-.076.384l-2.822-.562a.406.406,0,0,1-.095-.765l2.018-.957,0-.027-1.847-.6a.2.2,0,1,1,.121-.372Z" transform="translate(-276.655 -1269.81)"/><g transform="translate(11.258 7.258)"><path class="s" d="M416.179,1359.5l1.465.475a.322.322,0,0,1,.039.6l-1.6.758,0,.022,2.238.446a.155.155,0,0,1-.061.3l-2.238-.446a.322.322,0,0,1-.075-.607l1.6-.759v-.021l-1.465-.475a.155.155,0,1,1,.1-.3Z" transform="translate(-415.766 -1359.497)"/></g></g><g transform="translate(104.504 65.084)"><path class="v" d="M4.86,0h.647a4.86,4.86,0,0,1,4.86,4.86v0a4.86,4.86,0,0,1-4.86,4.86H4.86A4.86,4.86,0,0,1,0,4.86v0A4.86,4.86,0,0,1,4.86,0Z"/><path class="l" d="M1490.648,1219.506l-1.885-1.921h3.769Z" transform="translate(-1485.464 -1207.865)"/><g transform="translate(2.79 2.106)"><path class="l" d="M1484.694,1129a.345.345,0,0,1-.262-.121l-1.885-2.216a.344.344,0,0,1,.524-.446l1.563,1.837,2.433-4.385a.344.344,0,1,1,.6.334l-2.675,4.82a.345.345,0,0,1-.267.176Z" transform="translate(-1482.466 -1123.495)"/></g></g><g transform="translate(5.658 90.246)"><g transform="translate(0 5.711)"><path class="w" d="M233.545,1479.918c-2.887.684-6.089,1.632-7.458,4.542-1.293,2.749.053,5.42,2.651,6.72,1.758.88,8.459,2.362,5.677,5.614-1.8,2.1-4.919,1.451-6.972.211a.969.969,0,0,0-.978,1.672,7.932,7.932,0,0,0,7.561.762c2.756-1.266,3.84-4.51,1.738-6.884a9.167,9.167,0,0,0-4.1-2.3c-1.415-.487-3.269-1.031-3.956-2.524-.647-1.4.2-3.01,1.279-3.934,1.394-1.2,3.333-1.6,5.071-2.008,1.212-.287.7-2.155-.515-1.868Z" transform="translate(-225.588 -1479.888)"/></g><g transform="translate(33.66 4.765)"><path class="w" d="M642.338,1472.723c3.282.191,3.518-4.083,3.518-4.083a4.564,4.564,0,0,0-4.349.274Z" transform="translate(-641.506 -1468.206)"/><path class="w" d="M651.5,1486.2c1.307-.021,1.95-1.664,1.95-1.664a2.343,2.343,0,0,0-2.177.014Z" transform="translate(-650.481 -1482.98)"/></g><g transform="translate(24.388)"><path class="w" d="M527.766,1414.651c-2.276-2.373.823-5.326.823-5.326a4.564,4.564,0,0,1,2.615,3.486Z" transform="translate(-526.932 -1409.325)"/><path class="w" d="M543.237,1435.1c-.794-.962,0-2.445,0-2.445a2.235,2.235,0,0,1,1.338,1.588Z" transform="translate(-541.593 -1430.771)"/></g><path class="w" d="M304.3,1438.654a.817.817,0,0,1-.633.478c-2.219.342-2.762-.271-2.762-.271s-1.766.983-5.918-.186a.957.957,0,0,1-.55.425,21.282,21.282,0,0,1-4.708-.174,34.716,34.716,0,0,0-3.816.125c-2.592,0-5.536-.692-6.675-3.292-1.443-3.29.075-7.233,2.521-9.588a7.682,7.682,0,0,1,9.258-1.094c7.68,4,8.261,2.7,10.232,1.038l1.329,10.086a2.731,2.731,0,0,1,1.093.649,3.4,3.4,0,0,1,.437.554A1.314,1.314,0,0,1,304.3,1438.654Z" transform="translate(-274.382 -1422.832)"/><path class="x" d="M506.4,1475.138c-3.079,1.81-3.181,7.542,2.764,8.1l.681-2.6Z" transform="translate(-481.766 -1469.812)"/><path class="w" d="M529.738,1449.7a7.02,7.02,0,0,1-2.715,4.156,4.9,4.9,0,0,1-2.713.829,6.349,6.349,0,0,1-1.918-.3,5.868,5.868,0,0,1-4.279-5.515,5.774,5.774,0,0,1,5.617-6.048C527.312,1442.825,530.85,1445.783,529.738,1449.7Z" transform="translate(-494.438 -1440.114)"/><path class="x" d="M578.4,1572.012a4.9,4.9,0,0,1-2.713.829c-.049,0-.1,0-.144,0a3.4,3.4,0,0,0-.437-.554,2.727,2.727,0,0,0-1.093-.65,2.621,2.621,0,0,1,1.517.061s1.77-.88,2.865.312Z" transform="translate(-545.814 -1558.268)"/><path class="w" d="M584.677,1579.324a1.027,1.027,0,0,0,.178,1.4.534.534,0,0,0,.313.128h3.087c.148,0,.226-.158.266-.363a1.743,1.743,0,0,0-.621-1.65A2.062,2.062,0,0,0,584.677,1579.324Z" transform="translate(-555.434 -1564.6)"/><g transform="translate(23.673 13.054)"><path class="s" d="M518.1,1570.636a13.972,13.972,0,0,1,1.872.054,12.3,12.3,0,0,1,1.854.309,6.717,6.717,0,0,1,.9.293,4.3,4.3,0,0,1,.849.444,2.213,2.213,0,0,1,.668.709,1.479,1.479,0,0,1,.157.954l-.113-.012a1.4,1.4,0,0,0-.219-.839,1.987,1.987,0,0,0-.635-.6,5.883,5.883,0,0,0-1.681-.669,14.941,14.941,0,0,0-1.81-.344c-.611-.082-1.228-.142-1.844-.185Z" transform="translate(-518.101 -1570.625)"/></g><g transform="translate(13.349 6.971)"><path class="s" d="M390.551,1495.464a3.9,3.9,0,0,1,1.746.707,2.537,2.537,0,0,1,.639.722,2.98,2.98,0,0,1,.344.9,4.264,4.264,0,0,1,.073.957,6.569,6.569,0,0,1-.118.945,9.532,9.532,0,0,1-.572,1.8c-.122.29-.259.573-.409.851l-.058.1-.03.053,0,0c.014.046-.129-.383-.067-.2l.007,0,.013.005.027.011.214.084c.143.055.288.1.433.154a11.323,11.323,0,0,0,1.789.424,17.852,17.852,0,0,1,1.846.307,4.858,4.858,0,0,1,.9.306,1.5,1.5,0,0,1,.409.267.49.49,0,0,1,.14.224.358.358,0,0,1-.034.27l-.1-.054a.276.276,0,0,0-.1-.338,1.367,1.367,0,0,0-.378-.222,4.751,4.751,0,0,0-.876-.255,17.643,17.643,0,0,0-1.836-.253,10.6,10.6,0,0,1-1.838-.412c-.15-.049-.3-.1-.446-.154l-.221-.084-.028-.011-.014-.005-.007,0c.061.181-.087-.248-.071-.2l0,0,.027-.049.054-.1c.143-.27.273-.549.4-.829a9.269,9.269,0,0,0,.57-1.741,6.3,6.3,0,0,0,.121-.9,4.394,4.394,0,0,0-.05-.9,2.506,2.506,0,0,0-.866-1.518,3.881,3.881,0,0,0-1.645-.749Z" transform="translate(-390.529 -1495.464)"/></g><path class="s" d="M606.617,1505.749a1.7,1.7,0,0,0,.9.876,1.507,1.507,0,0,0,.622.053c.109-.01.217-.04.329-.056.109-.032.219-.064.335-.09l.056.113c-.1.067-.208.127-.316.188a2.761,2.761,0,0,1-.354.123,1.449,1.449,0,0,1-.775-.018,1.268,1.268,0,0,1-.633-.461,1.5,1.5,0,0,1-.286-.695Z" transform="translate(-575.669 -1497.946)"/><path class="s" d="M563.08,1486.961a1.706,1.706,0,0,0,.83.943,1.5,1.5,0,0,0,.616.1c.109,0,.22-.023.333-.03.111-.023.223-.047.341-.063l.047.117c-.106.058-.217.11-.33.162a2.709,2.709,0,0,1-.363.1,1.445,1.445,0,0,1-.772-.078,1.268,1.268,0,0,1-.6-.508,1.5,1.5,0,0,1-.231-.715Z" transform="translate(-535.653 -1480.678)"/></g><g transform="translate(95.897 26.334)"><path class="b" d="M1457.469,701.505h3.419l-2.73-17.675h-3.419Z" transform="translate(-1445.604 -678.488)"/><path class="y" d="M1499.752,701.505h3.419l-2.73-17.675h-3.419Z" transform="translate(-1484.465 -678.488)"/><g transform="translate(19.991 14.898)"><rect class="b" width="12.618" height="8.117"/><rect class="b" width="5.336" height="1.421" transform="translate(3.641 2.637)"/></g><rect class="y" width="5.937" height="23.015" transform="translate(3.197)"/><rect class="b" width="35.535" height="2.556" transform="translate(0 23.015)"/></g><g transform="translate(53.389 0)"><circle class="z" cx="11.423" cy="11.423" r="11.423" transform="translate(0 16.154) rotate(-45)"/><g transform="translate(15.79 11.508)"><path class="o" d="M1015.994,440.914l-4.881-2.321,5.333-4.7.268.3-4.873,4.292,4.328,2.057Z" transform="translate(-1011.112 -433.895)"/></g></g><g transform="translate(2.574 22.342)"><path class="b" d="M350.722,912.587l-3.236-2.53h6.471Z" transform="translate(-334.537 -882.407)"/><rect class="b" width="22.791" height="15" rx="2" transform="translate(0 12.651)"/><g transform="translate(2.585 16.363)"><rect class="h" width="1.103" height="11.156" transform="matrix(-0.003, -1, 1, -0.003, 0.003, 3.932)"/><rect class="h" width="1.103" height="11.156" transform="matrix(-0.003, -1, 1, -0.003, 0.003, 6.495)"/><rect class="h" width="1.225" height="14.145" transform="translate(0.146 1.267) rotate(-90.169)"/></g></g></g></g></svg>