<svg xmlns="http://www.w3.org/2000/svg" width="42.734" height="42.675" viewBox="0 0 42.734 42.675"><defs><style>.a{fill:#f6b333;}.b{fill:#fff;}.c{fill:#ed9e08;}</style></defs><g transform="translate(-3.349 -3.379)"><g transform="translate(3.349 3.379)"><path class="a" d="M18.45,28.015H.2c-.208-.158-.19-.39-.193-.609-.01-.916,0-1.832,0-2.747V15.833A5.24,5.24,0,0,1,.037,15,.477.477,0,0,1,.3,14.643,17.76,17.76,0,0,0,3.083,12.7c3.593-2.663,7.162-5.358,10.762-8.014.625-.447,1.225-.938,1.845-1.391,1.459-1.073,2.876-2.2,4.37-3.216A.487.487,0,0,1,20.206,0a1.676,1.676,0,0,1,1.331,1.339V25.01A3.4,3.4,0,0,1,19.8,27.662,4.37,4.37,0,0,1,18.45,28.015Z" transform="translate(21.197 14.66)"/><path class="a" d="M21.4,14.785V27.956H3.058a4.613,4.613,0,0,1-1.481-.5A3.629,3.629,0,0,1,.01,24.245C.025,18.139.016,12.031.016,5.922.016,4.567.057,3.2,0,1.845A1.8,1.8,0,0,1,1.141.006a1,1,0,0,1,.72.245c1.628,1.167,3.2,2.4,4.819,3.586a10.238,10.238,0,0,0,1.058.787c3.362,2.518,6.736,5.019,10.1,7.539.888.666,1.78,1.324,2.668,1.989a4.963,4.963,0,0,0,.759.428.4.4,0,0,1,.133.205Z" transform="translate(0 14.718)"/><path class="b" d="M.22,0H12.637a1.21,1.21,0,0,1,1.33,1.354q.009,4.376.009,8.752a1.321,1.321,0,0,1,.188.753v7.847a1.32,1.32,0,0,1-.182.754L8.118,23.856q-3.351,2.512-6.706,5.012A2.964,2.964,0,0,1,.219,29.5l-.181-.074C0,26.476.023,23.52.027,20.565A.9.9,0,0,1,.083,20.2c.065-.24.292-.282.473-.363a1.045,1.045,0,0,0,.7-.985,1.049,1.049,0,0,0-.716-1.019c-.17-.074-.379-.115-.452-.332a6.294,6.294,0,0,1,.053-2.43,1.006,1.006,0,0,1,.787-.177c2.093-.006,4.187,0,6.28,0a3.438,3.438,0,0,0,.664-.031,1.035,1.035,0,0,0,.008-2.043,3.3,3.3,0,0,0-.664-.032H.94a1.043,1.043,0,0,1-.791-.172.7.7,0,0,1-.119-.432,7.226,7.226,0,0,1,.1-2.092c.218-.235.509-.189.78-.19,2.084-.007,4.167,0,6.251,0a4.835,4.835,0,0,0,.625-.018A1.038,1.038,0,0,0,7.8,7.813a4.5,4.5,0,0,0-.625-.02H.929a1,1,0,0,1-.788-.178,1.051,1.051,0,0,1-.122-.6Q.009,3.84.019.666C.025.416,0,.168.22,0Z" transform="translate(21.176 0.003)"/><path class="c" d="M0,9.356V0L6.283,4.663,1.343,8.377C.9,8.709.447,9.031,0,9.356Z" transform="translate(35.158 10.109)"/><path class="b" d="M13.95,20.089v8.834c0,.183.066.4-.177.506a1.033,1.033,0,0,1-.671-.3Q6.689,24.357.279,19.57a.938.938,0,0,1-.09-.086A1.32,1.32,0,0,1,0,18.73V10.866A1.331,1.331,0,0,1,.19,10.11Q.19,5.839.2,1.567C.2.44.633,0,1.747,0H13.954V7.579l-.039.066a1.013,1.013,0,0,1-.719.129c-2.094.006-4.188,0-6.282,0a3.148,3.148,0,0,0-.625.031,1.036,1.036,0,0,0,0,2.045,3.148,3.148,0,0,0,.625.031H13.2a1.013,1.013,0,0,1,.719.129l.039.066v2.5l-.039.066a1.013,1.013,0,0,1-.719.129c-2.094.006-4.188,0-6.282,0a3.148,3.148,0,0,0-.625.031,1.036,1.036,0,0,0,0,2.045,3.149,3.149,0,0,0,.625.031H13.2a1.013,1.013,0,0,1,.719.129l.039.066v2.5l-.039.066a1.021,1.021,0,0,1-.72.129c-2.084.006-4.167,0-6.251,0a3.291,3.291,0,0,0-.625.028,1.035,1.035,0,0,0,0,2.046,3.291,3.291,0,0,0,.625.028H13.2a1.017,1.017,0,0,1,.72.129Z" transform="translate(7.444 0)"/><path class="c" d="M6.311,0V9.377L.3,4.913C.2,4.839.1,4.768,0,4.695L4.7,1.176C5.231.778,5.773.392,6.311,0Z" transform="translate(1.322 10.11)"/><path class="a" d="M.2,0H7.656A1.206,1.206,0,0,1,8.832.708a1.2,1.2,0,0,1-.156,1.333,1.3,1.3,0,0,1-1.105.465Q3.886,2.5.2,2.506V2.5a.483.483,0,0,1-.186-.4q-.032-.849,0-1.7A.483.483,0,0,1,.2.007Z" transform="translate(21.189 7.582)"/><path class="a" d="M.2,0H7.656A1.206,1.206,0,0,1,8.832.708a1.2,1.2,0,0,1-.156,1.333,1.3,1.3,0,0,1-1.105.465Q3.886,2.5.2,2.506V2.5a.483.483,0,0,1-.186-.4q-.032-.849,0-1.7A.483.483,0,0,1,.2.007Z" transform="translate(21.189 12.583)"/><path class="a" d="M.2,0a1.237,1.237,0,0,1,1.25,1.273A1.234,1.234,0,0,1,.2,2.5V2.5a.481.481,0,0,1-.186-.4q-.032-.849,0-1.7A.481.481,0,0,1,.2.006Z" transform="translate(21.191 17.585)"/><path class="a" d="M8.753,0V2.5H1.344A1.236,1.236,0,0,1,0,1.228,1.235,1.235,0,0,1,1.344,0Q5.049,0,8.753,0Z" transform="translate(12.644 7.583)"/><path class="a" d="M8.753,0V2.5H1.344A1.236,1.236,0,0,1,0,1.228,1.235,1.235,0,0,1,1.344,0Q5.049,0,8.753,0Z" transform="translate(12.644 12.584)"/><path class="a" d="M8.753.006V2.5h-7.4a1.252,1.252,0,1,1,0-2.5Q5.051,0,8.753.006Z" transform="translate(12.644 17.585)"/></g></g></svg>