<svg xmlns="http://www.w3.org/2000/svg" width="395.812" height="221.025" viewBox="0 0 395.812 221.025"><defs><style>.a{fill:#ebebeb;}.b{fill:#e0e0e0;}.c{fill:#f5f5f5;}.d{fill:#f6b333;}.e{fill:#263238;}.f{fill:#2a5798;}.g{fill:#fafafa;}.h{fill:#df9200;}.i{opacity:0.5;}.j{fill:#ffbe9d;}.k{opacity:0.3;}.l{opacity:0.2;}.m{opacity:0.6;}.n{fill:#fff;}.o{fill:#1c1b1b;}.p{fill:#455a64;}.q{fill:#eb996e;}.r{fill:#2e3b61;}.s{fill:#eaaa78;}.t{fill:#ebaf7f;}.u{fill:#d79662;}.v{fill:#e7f1fd;}.w{fill:#eebd94;}.x{fill:#d1e5ff;}</style></defs><g transform="translate(29.146 -46.313)"><g transform="translate(-29.146 52.502)"><g transform="translate(0 75.059)"><path class="a" d="M63.34,198.093s-4.239-.305-3.849,9.2a110.127,110.127,0,0,0,1.361,14.576s-.125,2.109-1.758,1.694-4.705-2.466-6.222-.931c-1.574,1.591-1.014,4.031,1.073,6.9s6.429,9.339,6.819,9.925.537,1.654-.62,1.55-8.971-2.752-10.006,1.031,6.1,10.834,6.861,11.62.806,1.282.5,1.757-2.853-.662-5.106-1.324-4.982-1.035-5.4,1.2,2.727,8.766,14.488,15.633l5.658,2.825,5.356-3.416c11.015-8.009,13.487-14.824,12.852-17s-3.313-1.536-5.489-.652-4.592,2.271-4.948,1.829-.365-.94.317-1.8,7.072-8.588,5.664-12.248-8.918-.244-10.059-.025-1.1-.87-.773-1.481,4-7.489,5.793-10.558,2.1-5.552.377-6.978c-1.663-1.375-4.515.974-6.1,1.55s-1.918-1.511-1.918-1.511a110.137,110.137,0,0,0-.1-14.638c-.563-9.5-4.852-8.734-4.852-8.734" transform="translate(-46.955 -198.078)"/><g transform="translate(16.718 8.532)"><path class="b" d="M78.185,214.016s.011.067.022.2.026.334.045.584c.036.524.087,1.278.153,2.246.13,1.95.3,4.774.489,8.264.388,6.979.841,16.625,1.306,27.28s.9,20.3,1.244,27.286c.177,3.483.321,6.3.42,8.266.048.968.086,1.724.112,2.248.01.249.018.444.024.585s0,.2,0,.2-.011-.067-.022-.2-.026-.334-.045-.583c-.036-.523-.087-1.278-.153-2.245-.13-1.95-.3-4.774-.489-8.263-.388-6.979-.841-16.626-1.307-27.285s-.895-20.3-1.243-27.281c-.177-3.483-.321-6.3-.421-8.267-.048-.968-.086-1.724-.111-2.248-.01-.25-.018-.444-.024-.585S78.185,214.016,78.185,214.016Z" transform="translate(-78.183 -214.016)"/></g><g transform="translate(10.097 27.601)"><path class="b" d="M65.816,249.635a1.884,1.884,0,0,1,.352.293c.218.2.524.494.9.862.747.74,1.751,1.789,2.837,2.966l2.767,3.028.842.914a1.874,1.874,0,0,1,.295.35,1.877,1.877,0,0,1-.354-.29c-.217-.2-.523-.494-.894-.867-.74-.747-1.73-1.809-2.816-2.987L66.956,250.9l-.847-.91A1.816,1.816,0,0,1,65.816,249.635Z" transform="translate(-65.816 -249.635)"/></g><g transform="translate(18.649 26.3)"><path class="b" d="M81.791,256.733c-.042-.042,2.027-2.209,4.622-4.84s4.733-4.729,4.776-4.688-2.026,2.208-4.622,4.84S81.834,256.775,81.791,256.733Z" transform="translate(-81.791 -247.205)"/></g><g transform="translate(18.627 46.037)"><path class="b" d="M81.749,290.26a1.933,1.933,0,0,1,.395-.251l1.107-.622c.934-.525,2.221-1.254,3.613-2.109s2.629-1.667,3.519-2.262l1.056-.7a1.916,1.916,0,0,1,.4-.238,1.943,1.943,0,0,1-.353.306c-.236.186-.582.448-1.018.761-.869.63-2.095,1.467-3.493,2.322s-2.7,1.568-3.653,2.059c-.478.244-.867.436-1.14.561A1.918,1.918,0,0,1,81.749,290.26Z" transform="translate(-81.749 -284.073)"/></g><g transform="translate(9.253 46.485)"><path class="b" d="M64.239,284.911a1.644,1.644,0,0,1,.391.184c.245.13.6.325,1.026.57.861.489,2.043,1.178,3.343,1.951s2.469,1.483,3.311,2.006c.421.261.759.476.99.629a1.665,1.665,0,0,1,.349.256,1.646,1.646,0,0,1-.391-.184c-.245-.13-.6-.325-1.026-.57-.861-.49-2.044-1.179-3.343-1.951s-2.469-1.482-3.311-2.005c-.42-.262-.759-.477-.99-.63A1.67,1.67,0,0,1,64.239,284.911Z" transform="translate(-64.238 -284.909)"/></g><g transform="translate(7.393 60.958)"><path class="b" d="M60.766,311.945a2.683,2.683,0,0,1,.5.24l1.317.726c1.107.622,2.629,1.493,4.3,2.467s3.185,1.867,4.273,2.523l1.282.786a2.681,2.681,0,0,1,.455.314,2.708,2.708,0,0,1-.5-.241l-1.317-.726c-1.107-.622-2.63-1.493-4.3-2.467s-3.184-1.867-4.272-2.522l-1.282-.786A2.713,2.713,0,0,1,60.766,311.945Z" transform="translate(-60.766 -311.943)"/></g><g transform="translate(19.279 59.568)"><path class="b" d="M82.967,317.544a3.159,3.159,0,0,1,.492-.33l1.375-.837c1.161-.707,2.761-1.689,4.5-2.822s3.286-2.195,4.4-2.972l1.322-.919a3.152,3.152,0,0,1,.5-.317,3.054,3.054,0,0,1-.45.385c-.3.237-.736.571-1.283.975-1.094.81-2.63,1.9-4.372,3.029s-3.356,2.1-4.538,2.773c-.592.336-1.073.6-1.411.778A3.081,3.081,0,0,1,82.967,317.544Z" transform="translate(-82.967 -309.347)"/></g><g transform="translate(12.129 77.53)"><path class="b" d="M85.266,342.9H69.612l5.109,38.675h5.435Z" transform="translate(-69.612 -342.899)"/><g transform="translate(0.811 3.16)"><path class="c" d="M71.128,350.4c-.006,0,.018.055.084.138a.987.987,0,0,0,.377.27,1.894,1.894,0,0,0,1.653-.2,12.557,12.557,0,0,1,2.03-1.336,4.444,4.444,0,0,1,2.878.057,12.291,12.291,0,0,1,2.681,1.3,18.664,18.664,0,0,0,2.18,1.17,6.021,6.021,0,0,0,1.608.465,2.973,2.973,0,0,0,.454.031c.1,0,.158,0,.159-.013a8.136,8.136,0,0,1-2.147-.647,21.422,21.422,0,0,1-2.132-1.207,11.9,11.9,0,0,0-2.726-1.34,4.593,4.593,0,0,0-3.038-.033,3.988,3.988,0,0,0-1.144.707,8.993,8.993,0,0,1-.9.694,1.838,1.838,0,0,1-1.524.264A1.57,1.57,0,0,1,71.128,350.4Z" transform="translate(-71.127 -348.801)"/></g><g transform="translate(1.382 9.039)"><path class="c" d="M72.195,362.621c.021.013.124-.16.369-.415a3.481,3.481,0,0,1,1.251-.793,5.6,5.6,0,0,1,2.177-.328,22.913,22.913,0,0,1,2.724.371,9.355,9.355,0,0,0,2.789.116,7.67,7.67,0,0,0,2.195-.626,6.947,6.947,0,0,0,1.319-.785,1.863,1.863,0,0,0,.418-.376,13.914,13.914,0,0,1-1.809,1,8.031,8.031,0,0,1-2.151.558,9.611,9.611,0,0,1-2.721-.134A20.522,20.522,0,0,0,76,360.85a5.505,5.505,0,0,0-2.252.4,3.284,3.284,0,0,0-1.256.893,2.24,2.24,0,0,0-.237.347C72.208,362.571,72.187,362.617,72.195,362.621Z" transform="translate(-72.193 -359.783)"/></g><g transform="translate(2.27 14.611)"><path class="c" d="M85.462,371.271a1.32,1.32,0,0,0-.431-.224,4.628,4.628,0,0,0-1.3-.278,8.261,8.261,0,0,0-1.962.112c-.73.118-1.512.32-2.334.495a9.842,9.842,0,0,1-2.331.263,5.077,5.077,0,0,1-1.851-.4,4.279,4.279,0,0,1-1.4-1.045,1.214,1.214,0,0,0,.265.408,3.319,3.319,0,0,0,1.063.8,5,5,0,0,0,1.917.472,9.449,9.449,0,0,0,2.394-.248c.831-.177,1.608-.384,2.322-.513a9,9,0,0,1,1.911-.164A7.193,7.193,0,0,1,85.462,371.271Z" transform="translate(-73.851 -370.192)"/></g><g transform="translate(2.766 20.144)"><path class="c" d="M74.78,381.437a2.54,2.54,0,0,1,1.52-.153,7.325,7.325,0,0,1,1.59.593,6.042,6.042,0,0,0,2.064.569,6.187,6.187,0,0,0,3.745-.868,5.314,5.314,0,0,0,.932-.716c.19-.2.288-.32.276-.332a13.573,13.573,0,0,1-1.3.892,6.42,6.42,0,0,1-3.631.769c-1.482-.085-2.619-.968-3.647-1.085a2.328,2.328,0,0,0-1.18.1A.777.777,0,0,0,74.78,381.437Z" transform="translate(-74.779 -380.527)"/></g><g transform="translate(3.639 26.315)"><path class="c" d="M76.409,394.216a3,3,0,0,0,1.305-.26c.786-.263,1.76-.866,2.9-1.318a4.712,4.712,0,0,1,1.663-.348,3.058,3.058,0,0,1,1.337.305,2.958,2.958,0,0,1,.967.834.717.717,0,0,0-.149-.33,2.141,2.141,0,0,0-.733-.664,3.066,3.066,0,0,0-1.419-.381,4.654,4.654,0,0,0-1.758.345c-1.179.47-2.122,1.091-2.873,1.388C76.906,394.109,76.4,394.175,76.409,394.216Z" transform="translate(-76.409 -392.053)"/></g><g transform="translate(4.406 31.921)"><path class="c" d="M77.842,402.536a3.652,3.652,0,0,0,.991.322,18.216,18.216,0,0,0,4.989.49,3.652,3.652,0,0,0,1.035-.123c0-.077-1.586-.01-3.522-.2S77.861,402.461,77.842,402.536Z" transform="translate(-77.842 -402.526)"/></g></g></g><g transform="translate(302.053 87.225)"><g transform="translate(0 0)"><rect class="c" width="48.832" height="32.914" transform="matrix(0.975, -0.223, 0.223, 0.975, 0, 10.879)"/></g><g transform="translate(0.24 0.351)"><path class="b" d="M581.9,221.46a3.388,3.388,0,0,1-.345.528l-1.06,1.464-3.967,5.34-13.253,17.562-.109.145-.164-.079-.4-.191-20.059-9.74-6.057-3-1.637-.835a3.488,3.488,0,0,1-.558-.319,3.46,3.46,0,0,1,.6.238l1.673.76,6.118,2.871,20.115,9.622.4.191-.273.066L576.277,228.6l4.079-5.256,1.126-1.414A3.375,3.375,0,0,1,581.9,221.46Z" transform="translate(-534.294 -221.459)"/></g><g transform="translate(7.57 20.219)"><path class="b" d="M547.989,281.669c-.109-.056,2.466-5.272,5.75-11.65s6.036-11.5,6.145-11.448-2.465,5.272-5.751,11.651S548.1,281.726,547.989,281.669Z" transform="translate(-547.986 -258.571)"/></g><g transform="translate(35.199 16.2)"><path class="b" d="M599.6,251.066c.077-.1,4.612,3.463,10.128,7.946s9.927,8.2,9.85,8.29-4.612-3.462-10.129-7.947S599.518,251.161,599.6,251.066Z" transform="translate(-599.595 -251.064)"/></g></g><g transform="translate(133.239 0)"><g transform="translate(0)"><rect class="c" width="19.406" height="28.791" transform="matrix(0.225, -0.974, 0.974, 0.225, 0, 18.909)"/></g><g transform="translate(4.403 0.248)"><path class="b" d="M254.791,64.815a1.979,1.979,0,0,1-.319.192l-.939.5-3.479,1.812L238.5,73.229l-.1.048-.066-.084-.161-.2-8.135-10.328L227.6,59.514l-.653-.864a2.1,2.1,0,0,1-.214-.313,2.1,2.1,0,0,1,.255.28l.692.834,2.507,3.1,8.195,10.28.161.2L238.386,73l11.585-5.836,3.516-1.738.961-.46A2.009,2.009,0,0,1,254.791,64.815Z" transform="translate(-226.737 -58.337)"/></g><g transform="translate(0.037 9.963)"><path class="b" d="M218.582,85.677c-.043-.058,2.664-2.162,6.048-4.7s6.162-4.55,6.205-4.492-2.664,2.162-6.048,4.7S218.624,85.735,218.582,85.677Z" transform="translate(-218.581 -76.484)"/></g><g transform="translate(21.668 11.881)"><path class="b" d="M258.988,80.067c.066-.031,1.556,3.024,3.328,6.821s3.158,6.9,3.092,6.932S263.853,90.8,262.08,87,258.923,80.1,258.988,80.067Z" transform="translate(-258.986 -80.067)"/></g></g><g transform="translate(294.929 4.719)"><g transform="translate(0 0)"><rect class="c" width="22.31" height="15.037" transform="matrix(0.919, -0.395, 0.395, 0.919, 0, 8.808)"/></g><g transform="translate(0.137 0.138)"><path class="b" d="M541.29,66.946a1.5,1.5,0,0,1-.111.266l-.356.745-1.343,2.727-4.51,8.983-.037.074-.08-.022-.194-.053-9.816-2.725-2.969-.849-.8-.24a1.584,1.584,0,0,1-.277-.1,1.626,1.626,0,0,1,.288.058l.814.2,2.985.786,9.832,2.668.194.054-.117.052,4.564-8.956,1.4-2.7.39-.728A1.6,1.6,0,0,1,541.29,66.946Z" transform="translate(-520.793 -66.946)"/></g><g transform="translate(6.071 11.403)"><path class="b" d="M531.881,99.347c-.054-.016.674-2.572,1.625-5.708s1.766-5.667,1.819-5.651-.674,2.572-1.625,5.709S531.934,99.363,531.881,99.347Z" transform="translate(-531.878 -87.988)"/></g><g transform="translate(16.257 8.301)"><path class="b" d="M550.9,82.195c.027-.049,2.358,1.177,5.206,2.737s5.136,2.866,5.108,2.915-2.357-1.176-5.206-2.737S550.877,82.244,550.9,82.195Z" transform="translate(-550.904 -82.193)"/></g></g></g><g transform="translate(300.496 140.857)"><g transform="translate(0)"><g transform="translate(1.88 53.577)"><path class="d" d="M599.936,325.543a16.953,16.953,0,0,0-7.252-2.5,4.833,4.833,0,0,0-3.431.631.7.7,0,0,0-.353.626.764.764,0,0,0,.335.429,10.37,10.37,0,0,0,10.7.811" transform="translate(-588.893 -322.992)"/></g><g transform="translate(5.029 44.551)"><path class="d" d="M602.482,317.5a35.4,35.4,0,0,1-4.684-4.121,11.848,11.848,0,0,1-2.936-5.431,2.189,2.189,0,0,1,.232-1.818c3.734,2.916,6.667,6.688,7.389,11.37" transform="translate(-594.774 -306.134)"/></g><g transform="translate(12.647 44.874)"><path class="d" d="M609.241,317.961a16.936,16.936,0,0,1,.087-6.15,8.314,8.314,0,0,1,3.276-5.075,7.259,7.259,0,0,1-.087,4.821,23.432,23.432,0,0,1-3.248,6.839" transform="translate(-609.003 -306.736)"/></g><g transform="translate(7.402 62.658)"><path class="d" d="M608.349,339.955a10.717,10.717,0,0,0-5.816,2.943,11,11,0,0,0-3.327,5.712c2.179-.135,4.029-1.672,5.37-3.4s2.27-3.614,3.743-5.226" transform="translate(-599.206 -339.955)"/></g><g transform="translate(16.34 50.137)"><path class="d" d="M616.9,330.137a14.344,14.344,0,0,1,1.656-13.569,17.271,17.271,0,0,1-1.656,13.569" transform="translate(-615.902 -316.568)"/></g><g transform="translate(12.108 69.446)"><path class="d" d="M618.065,352.654a10.375,10.375,0,0,0-9.918,5.71c-.123.246-.231.558-.066.778a.736.736,0,0,0,.657.193,8.629,8.629,0,0,0,5.117-2.642,48.944,48.944,0,0,1,4.254-4.044" transform="translate(-607.996 -352.635)"/></g><g transform="translate(21.192 55.409)"><path class="d" d="M625.8,340.158a18.475,18.475,0,0,1-.185-10.319,5.035,5.035,0,0,1,2.2-3.35.431.431,0,0,1,.337-.059.444.444,0,0,1,.213.247,6.217,6.217,0,0,1,.519,2.96,18.539,18.539,0,0,1-.464,3c-.387,1.832-.593,3.8-1.6,5.38a10.885,10.885,0,0,0-.639,1.182c-.19.4-.192.543-.366.862" transform="translate(-624.965 -326.414)"/></g><g transform="translate(34.469 59.692)"><path class="d" d="M650.12,345.782a13.306,13.306,0,0,1,2.332-10.939c.168-.217.389-.451.663-.426.419.039.527.6.509,1.017a19.761,19.761,0,0,1-3.5,10.348" transform="translate(-649.765 -334.416)"/></g><g transform="translate(35.978 68.066)"><path class="d" d="M652.585,353.84a15.91,15.91,0,0,0,13.058-2.656,10.572,10.572,0,0,0-7.069-.867,10.088,10.088,0,0,0-5.989,3.523" transform="translate(-652.585 -350.057)"/></g><g transform="translate(36.952 62.593)"><path class="d" d="M654.4,346.688a15.09,15.09,0,0,1,11.851-6.853,7.3,7.3,0,0,1-3.876,4.285,21.521,21.521,0,0,1-5.689,1.663,4.011,4.011,0,0,0-2.286.9" transform="translate(-654.404 -339.835)"/></g><g transform="translate(33.366 43.983)"><path class="d" d="M649.407,318.879a34.422,34.422,0,0,0,1.516-6.94,11.558,11.558,0,0,0-1.382-6.865,15.111,15.111,0,0,0-.2,14.044" transform="translate(-647.705 -305.073)"/></g><g transform="translate(42.789 44.575)"><path class="d" d="M665.306,315.489a18.6,18.6,0,0,1,13.689-9.312c-2.135,5.318-7.96,9.427-13.689,9.312" transform="translate(-665.306 -306.177)"/></g><g transform="translate(41.102 54.043)"><path class="d" d="M662.155,324.662c4,.609,7.407,3.163,11.144,4.712a5,5,0,0,0,2.519.482,1.972,1.972,0,0,0,1.235-3.489,5.392,5.392,0,0,0-1.83-1.11,20.335,20.335,0,0,0-12.724-.709" transform="translate(-662.155 -323.863)"/></g><g transform="translate(38.787 57.454)"><path class="d" d="M657.832,330.428a4.722,4.722,0,0,1,1.932,1.338,20.839,20.839,0,0,0,8.451,4.341c.323.08.746.112.906-.179.14-.255-.037-.563-.219-.79a11.632,11.632,0,0,0-5.1-3.464c-1.95-.727-3.64-1.6-5.968-1.414" transform="translate(-657.832 -330.235)"/></g><g transform="translate(36.175 40.273)"><path class="d" d="M652.953,298.575a15.993,15.993,0,0,0,12.262,4.172.843.843,0,0,0,.558-.2c.308-.336-.062-.854-.421-1.134a14.127,14.127,0,0,0-12.4-2.837" transform="translate(-652.953 -298.142)"/></g><g transform="translate(39.272 36.243)"><path class="d" d="M658.737,293.944a17.09,17.09,0,0,1,15.3-2.525,12.149,12.149,0,0,1-7.291,3.2,23.082,23.082,0,0,1-8.009-.676" transform="translate(-658.737 -290.614)"/></g><g transform="translate(35.975 20.967)"><path class="d" d="M654.645,272.9c-.354-3.6-.125-6.439-.374-10.053-.02-.289-.082-.637-.352-.74-.376-.145-.69.317-.813.7a11.525,11.525,0,0,0,1.534,10.013" transform="translate(-652.578 -262.079)"/></g><g transform="translate(37.783 20.874)"><path class="d" d="M655.955,273.217a21.16,21.16,0,0,0,5.96-5.793c1.177-1.611,2.17-3.541,1.9-5.518a5.705,5.705,0,0,0-4.3,2.135,11.992,11.992,0,0,0-2.192,4.41c-.478,1.584-.812,3.211-1.372,4.766" transform="translate(-655.955 -261.905)"/></g><g transform="translate(43.562 21.546)"><path class="d" d="M666.828,272.174a48.059,48.059,0,0,0,14.668-8.649,7.486,7.486,0,0,0-5.51.424,17.375,17.375,0,0,0-9.235,8.187" transform="translate(-666.751 -263.161)"/></g><g transform="translate(39.429 29.911)"><path class="d" d="M659.031,283.029a29.841,29.841,0,0,0,8.145.04,34.589,34.589,0,0,0,7.6-2.527.892.892,0,0,0,.517-.392.6.6,0,0,0-.185-.651,1.57,1.57,0,0,0-.648-.3,14.076,14.076,0,0,0-8.217.491,38.118,38.118,0,0,0-7.214,3.342" transform="translate(-659.031 -278.786)"/></g><g transform="translate(22.611 28.905)"><path class="d" d="M628.972,288.831a14.406,14.406,0,0,1-.132-11.924,9.109,9.109,0,0,1,1.055,5.929c-.206,2.037-.826,4.134-.866,6.181" transform="translate(-627.615 -276.907)"/></g><g transform="translate(4.229 37.104)"><path class="d" d="M605.638,292.225a16.632,16.632,0,0,0-12.358,5.265,11.546,11.546,0,0,0,6.767-1.254,34.445,34.445,0,0,0,5.8-3.881" transform="translate(-593.28 -292.222)"/></g><g transform="translate(0 35.23)"><path class="d" d="M597.006,288.939c-2.256-.183-4.427-.463-6.6.2a7.915,7.915,0,0,0-5.029,4.264,11.919,11.919,0,0,0,6.185-1.168,35.571,35.571,0,0,0,5.441-3.3" transform="translate(-585.38 -288.722)"/></g><g transform="translate(5.744 32.059)"><path class="d" d="M609.338,286.263a20.812,20.812,0,0,0-6.478-3.236c-2.363-.551-5.1-.144-6.75,1.638a12.615,12.615,0,0,0,6.453,1.254,22.279,22.279,0,0,1,7.029.713" transform="translate(-596.109 -282.799)"/></g><g transform="translate(15.046 21.442)"><path class="d" d="M617.423,277.155c-3.47-3.408-4.786-9.529-3.389-14.188a21.62,21.62,0,0,1,3.389,14.188" transform="translate(-613.484 -262.967)"/></g><g transform="translate(28.527 14.778)"><path class="d" d="M638.666,261.716c.654-1.521,1.115-3.118,1.7-4.667a13.418,13.418,0,0,1,2.426-4.3,6.389,6.389,0,0,1,4.3-2.228,17.313,17.313,0,0,1-8.341,11.222" transform="translate(-638.666 -250.519)"/></g><g transform="translate(17.823 21.871)"><path class="d" d="M627.649,269.885c-1.083-1.491-2.334-3.515-3.8-4.628a6.364,6.364,0,0,0-5.174-1.359,12.052,12.052,0,0,0,8.977,5.986" transform="translate(-618.672 -263.769)"/></g><g transform="translate(25.308 14.918)"><path class="d" d="M634.491,261.961a25.729,25.729,0,0,1-1.712-5.544,8.647,8.647,0,0,1,.868-5.637c1.9,3.6,2.518,7.466.941,11.222" transform="translate(-632.654 -250.78)"/></g><g transform="translate(28.544 7.286)"><path class="d" d="M638.7,244.156c1.079-3.57,4.348-6.2,7.877-7.4a2.942,2.942,0,0,1,1.381-.207,1.2,1.2,0,0,1,1.018.85c.129.607-.373,1.152-.845,1.555a26.811,26.811,0,0,1-9.431,5.207" transform="translate(-638.698 -236.525)"/></g><g transform="translate(28.527)"><path class="d" d="M638.722,234.913a25.588,25.588,0,0,1,1.03-6.817,8.617,8.617,0,0,1,4.29-5.181c.357,2.325-.669,4.637-1.905,6.638s-2.728,3.888-3.471,6.12" transform="translate(-638.666 -222.915)"/></g><g transform="translate(21.833 1.069)"><path class="d" d="M632.857,237.425c-.892-2.6-.984-5.906-2.542-8.172-1.089-1.584-2.833-2.664-3.771-4.342a6.6,6.6,0,0,0,.219,4.928,14.253,14.253,0,0,0,2.882,4.126c1.153,1.231,2.14,2.157,3.212,3.459" transform="translate(-626.163 -224.911)"/></g><g transform="translate(28.41 12.676)"><path class="e" d="M638.582,324.113c-.069,0-.129-17.355-.134-38.758s.047-38.762.117-38.762.129,17.351.134,38.762S638.651,324.113,638.582,324.113Z" transform="translate(-638.448 -246.593)"/></g><g transform="translate(28.522 38.207)"><path class="e" d="M653.845,294.286a3.725,3.725,0,0,1-.652.245l-1.8.606c-1.514.516-3.594,1.263-5.851,2.188-2.235.959-4.343,1.737-5.544,2.777a4.066,4.066,0,0,0-1.114,1.474c-.172.407-.2.656-.226.652a.5.5,0,0,1,.008-.182,2.732,2.732,0,0,1,.127-.505,3.914,3.914,0,0,1,1.087-1.571,9.756,9.756,0,0,1,2.406-1.494c.962-.449,2.029-.918,3.161-1.383,2.265-.928,4.36-1.651,5.892-2.124.765-.239,1.389-.415,1.822-.531A3.662,3.662,0,0,1,653.845,294.286Z" transform="translate(-638.657 -294.283)"/></g><g transform="translate(29.716 25.999)"><path class="e" d="M659.852,271.48a1.072,1.072,0,0,1-.183.2l-.557.523-2.079,1.888-6.919,6.161c-2.7,2.4-5.036,4.7-6.653,6.432-.81.863-1.448,1.579-1.883,2.079l-.5.574a1.042,1.042,0,0,1-.187.19,1.079,1.079,0,0,1,.148-.222c.1-.139.258-.347.467-.6.413-.52,1.032-1.255,1.827-2.137a87.589,87.589,0,0,1,6.617-6.5c2.71-2.4,5.177-4.554,6.969-6.107l2.132-1.829.588-.488A1.054,1.054,0,0,1,659.852,271.48Z" transform="translate(-640.887 -271.479)"/></g><g transform="translate(36.021 31.204)"><path class="e" d="M652.671,287.21c-.071-.032.494-1.335,1.056-2.982s.835-3.038.906-3.026a10.181,10.181,0,0,1-.669,3.107,20.135,20.135,0,0,1-.841,2.085A3.252,3.252,0,0,1,652.671,287.21Z" transform="translate(-652.665 -281.202)"/></g><g transform="translate(18.501 35.044)"><path class="e" d="M630,301.047a3.1,3.1,0,0,1-.417-.483l-1.066-1.367c-.9-1.157-2.134-2.755-3.522-4.5s-2.664-3.318-3.589-4.453l-1.089-1.349a3.031,3.031,0,0,1-.376-.515,3.167,3.167,0,0,1,.45.452c.278.3.671.745,1.151,1.3.96,1.107,2.259,2.66,3.649,4.411s2.607,3.368,3.467,4.554c.43.593.773,1.077,1,1.416A3.13,3.13,0,0,1,630,301.047Z" transform="translate(-619.938 -288.374)"/></g><g transform="translate(23.509 38.201)"><path class="e" d="M631.019,299.518a6.11,6.11,0,0,1-1.393-2.608,7.45,7.45,0,0,1-.316-2.629l.111.009c-.049.2-.086.307-.105.3s-.021-.115,0-.322l.111.009a11.991,11.991,0,0,0,.444,2.558A19.443,19.443,0,0,0,631.019,299.518Z" transform="translate(-629.293 -294.272)"/></g><g transform="translate(13.43 36.981)"><path class="e" d="M617.978,293.059a4.481,4.481,0,0,0-.972-.565,6.5,6.5,0,0,0-2.7-.215,16.728,16.728,0,0,0-2.719.438,8.217,8.217,0,0,1-1.119.269,3.9,3.9,0,0,1,1.071-.44,12.463,12.463,0,0,1,2.748-.518,5.9,5.9,0,0,1,2.786.3A1.724,1.724,0,0,1,617.978,293.059Z" transform="translate(-610.466 -291.993)"/></g><g transform="translate(9.369 35.143)"><path class="e" d="M613.436,290.156c-.019.039-.567-.228-1.49-.543a15,15,0,0,0-7.509-.572c-.961.172-1.542.352-1.555.31a1.414,1.414,0,0,1,.4-.169,9.319,9.319,0,0,1,1.125-.316,13.245,13.245,0,0,1,7.6.58,9.265,9.265,0,0,1,1.065.483A1.423,1.423,0,0,1,613.436,290.156Z" transform="translate(-602.881 -288.56)"/></g><g transform="translate(26.589 23.592)"><path class="e" d="M636.984,274.6a61.488,61.488,0,0,1-1.93-7.612,61.488,61.488,0,0,1,1.93,7.612Z" transform="translate(-635.046 -266.984)"/></g><g transform="translate(25.618 27.111)"><path class="e" d="M636.21,277.649a18.114,18.114,0,0,0-1.2-2.26,9.946,9.946,0,0,0-1.773-1.829,1.652,1.652,0,0,1,.684.353,5.521,5.521,0,0,1,1.294,1.332A5.01,5.01,0,0,1,636.21,277.649Z" transform="translate(-633.232 -273.556)"/></g><g transform="translate(12.645 55.614)"><path class="e" d="M624.9,352.128c-.027,0-.078-.417-.274-1.154a16.424,16.424,0,0,0-1.16-3,41.589,41.589,0,0,0-6.153-8.669c-1.374-1.57-2.706-3.05-3.837-4.468a31.406,31.406,0,0,1-2.745-3.958,19,19,0,0,1-1.385-2.937c-.127-.362-.221-.645-.272-.84a1.424,1.424,0,0,1-.072-.3c.022-.008.149.4.435,1.1a21.533,21.533,0,0,0,1.447,2.883,33.2,33.2,0,0,0,2.771,3.9c1.135,1.4,2.47,2.876,3.847,4.448a39.407,39.407,0,0,1,6.124,8.757,14.958,14.958,0,0,1,1.095,3.058,8.546,8.546,0,0,1,.154.871A1.349,1.349,0,0,1,624.9,352.128Z" transform="translate(-609 -326.798)"/></g><g transform="translate(28.543 65.464)"><path class="e" d="M652.4,345.2a6.356,6.356,0,0,1-.718.4,15.661,15.661,0,0,0-1.863,1.231,21.364,21.364,0,0,0-2.447,2.232c-.859.907-1.744,1.96-2.646,3.09-1.805,2.265-3.493,4.269-4.5,5.869-.513.793-.886,1.463-1.131,1.932a6.135,6.135,0,0,1-.4.723.718.718,0,0,1,.067-.2c.054-.129.126-.323.241-.563a18.379,18.379,0,0,1,1.069-1.983A64.756,64.756,0,0,1,644.531,352c.9-1.131,1.8-2.186,2.675-3.092a19.876,19.876,0,0,1,2.507-2.214,13.135,13.135,0,0,1,1.924-1.176c.238-.119.433-.193.56-.248A.679.679,0,0,1,652.4,345.2Z" transform="translate(-638.695 -345.196)"/></g><g transform="translate(33.045 70.468)"><path class="e" d="M656.578,354.563a10.476,10.476,0,0,1-1.518.221,20.023,20.023,0,0,0-3.6.709,10.824,10.824,0,0,0-3.223,1.692c-.743.574-1.094,1.049-1.128,1.021a1.147,1.147,0,0,1,.225-.35,5.73,5.73,0,0,1,.791-.809,9.756,9.756,0,0,1,3.259-1.793,16.258,16.258,0,0,1,3.66-.647A8.35,8.35,0,0,1,656.578,354.563Z" transform="translate(-647.107 -354.544)"/></g><g transform="translate(33.483 68.435)"><path class="e" d="M647.931,355.889c-.079-.045.6-1.09,1.136-2.5.5-1.419.615-2.662.7-2.648a2.409,2.409,0,0,1-.026.814,8.715,8.715,0,0,1-.443,1.919,9.27,9.27,0,0,1-.88,1.76A2.44,2.44,0,0,1,647.931,355.889Z" transform="translate(-647.924 -350.746)"/></g><g transform="translate(28.548 51.982)"><path class="e" d="M656.845,320.015a1.136,1.136,0,0,1-.243.129l-.713.324c-.313.134-.692.3-1.119.529s-.929.449-1.45.762l-.828.471c-.288.165-.571.361-.874.55-.611.37-1.222.827-1.875,1.292a32.185,32.185,0,0,0-7.221,7.472c-.443.669-.879,1.3-1.228,1.918-.179.309-.365.6-.52.892l-.442.844c-.3.532-.506,1.04-.712,1.476s-.368.82-.491,1.137l-.3.724a1.137,1.137,0,0,1-.12.247,1.122,1.122,0,0,1,.073-.265l.256-.742c.11-.323.254-.715.453-1.157s.4-.959.682-1.5l.43-.857c.152-.3.335-.592.511-.9.344-.632.775-1.268,1.216-1.944a30.994,30.994,0,0,1,7.274-7.527c.662-.464,1.282-.917,1.9-1.282.307-.187.6-.38.887-.542l.842-.459c.53-.3,1.038-.523,1.475-.733s.822-.372,1.141-.492l.733-.281A1.109,1.109,0,0,1,656.845,320.015Z" transform="translate(-638.706 -320.014)"/></g><g transform="translate(35.838 57.438)"><path class="e" d="M652.326,332.018a1.743,1.743,0,0,1,.6-.888,3.765,3.765,0,0,1,2.4-.922,6.582,6.582,0,0,1,2.528.494,3.582,3.582,0,0,1,.956.465,5.863,5.863,0,0,1-1.015-.3,7.623,7.623,0,0,0-2.462-.411,3.908,3.908,0,0,0-2.3.806A7,7,0,0,0,652.326,332.018Z" transform="translate(-652.323 -330.206)"/></g><g transform="translate(34.214 56.385)"><path class="e" d="M649.3,332.776a6.421,6.421,0,0,0,.529-4.538,1.479,1.479,0,0,1,.282.647,4.588,4.588,0,0,1-.388,3.327C649.507,332.6,649.319,332.793,649.3,332.776Z" transform="translate(-649.29 -328.238)"/></g><g transform="translate(16.558 83.431)"><path class="f" d="M616.309,378.758a57.443,57.443,0,0,0,5.447,20.2h13.368a58.067,58.067,0,0,0,5.123-20.2Z" transform="translate(-616.309 -378.758)"/></g><g transform="translate(18.669 94.037)"><path class="g" d="M639.912,398.7c0,.069-4.4.125-9.83.125s-9.831-.056-9.831-.125,4.4-.126,9.831-.126S639.912,398.626,639.912,398.7Z" transform="translate(-620.252 -398.57)"/></g><g transform="translate(19.599 96.441)"><path class="g" d="M640.421,403.184c0,.069-4.127.125-9.215.125s-9.216-.056-9.216-.125,4.125-.125,9.216-.125S640.421,403.115,640.421,403.184Z" transform="translate(-621.99 -403.059)"/></g></g></g><g transform="translate(62.896 105.196)"><g transform="translate(8.045)"><rect class="f" width="205.852" height="136.128" rx="14.567"/></g><g transform="translate(0 127.336)"><path class="f" d="M0,0H223.025a0,0,0,0,1,0,0V0a11.911,11.911,0,0,1-11.911,11.911H11.911A11.911,11.911,0,0,1,0,0V0A0,0,0,0,1,0,0Z"/></g><g transform="translate(13.571 5.408)"><rect class="e" width="194.225" height="114.958"/></g><g transform="translate(90.678 126.06)"><path class="e" d="M330.245,391.773l2.768,4.4h38.943l2.57-4.4Z" transform="translate(-330.245 -391.773)"/></g><g transform="translate(13.892 5.251)"><g transform="translate(0.207)"><path class="a" d="M3.272,0H190.533a3.273,3.273,0,0,1,3.273,3.273V111.686a3.273,3.273,0,0,1-3.273,3.273H3.272A3.272,3.272,0,0,1,0,111.687V3.272A3.272,3.272,0,0,1,3.272,0Z"/></g><g transform="translate(0 8.591)"><path class="g" d="M387.12,295.663H193.313l.207-106.536h193.6Z" transform="translate(-193.313 -189.127)"/></g><g transform="translate(13.007 2.892)"><path class="e" d="M219.8,180.424a1.548,1.548,0,1,1-1.548-1.548A1.548,1.548,0,0,1,219.8,180.424Z" transform="translate(-216.709 -178.876)"/></g><g transform="translate(3.626 2.892)"><path class="e" d="M202.931,180.424a1.548,1.548,0,1,1-1.548-1.548A1.548,1.548,0,0,1,202.931,180.424Z" transform="translate(-199.835 -178.876)"/></g><g transform="translate(8.129 2.892)"><path class="e" d="M211.03,180.424a1.548,1.548,0,1,1-1.548-1.548A1.548,1.548,0,0,1,211.03,180.424Z" transform="translate(-207.934 -178.876)"/></g></g><g transform="translate(8.045 125.927)"><path class="e" d="M379.975,391.657c0,.074-45.689.134-102.037.134-56.367,0-102.046-.06-102.046-.134s45.679-.133,102.046-.133C334.286,391.524,379.975,391.583,379.975,391.657Z" transform="translate(-175.892 -391.524)"/></g><g transform="translate(76.859 27.572)"><g transform="translate(0.001 29.366)"><path class="d" d="M304.9,263.368l75.926-.709,2.224,51.617-78.621-.565Z" transform="translate(-304.433 -262.659)"/></g><g transform="translate(0.473)"><path class="h" d="M305.314,237.88l35.874-29.152a4.126,4.126,0,0,1,5.212.006l34.84,28.436" transform="translate(-305.314 -207.805)"/></g><g transform="translate(0 51.036)"><path class="e" d="M304.432,332.518c-.095-.089,5.97-6.738,13.544-14.85s13.794-14.619,13.889-14.531-5.968,6.737-13.545,14.852S304.527,332.606,304.432,332.518Z" transform="translate(-304.431 -303.136)"/></g><g transform="translate(52.47 51.678)"><path class="e" d="M428.594,333.64c-.1.086-6.03-6.4-13.25-14.495s-13-14.723-12.9-14.809,6.029,6.4,13.252,14.5S428.691,333.554,428.594,333.64Z" transform="translate(-402.442 -304.335)"/></g><g class="i" transform="translate(0.473 29.366)"><path d="M381.24,262.659,343.177,293.2l-37.863-29.828" transform="translate(-305.314 -262.659)"/></g><g transform="translate(4.044 8.11)"><g transform="translate(0.09 0.141)"><path class="g" d="M312.322,247.853l-.168-23.714,66.483-.924.8,24.949L346.35,274.47Z" transform="translate(-312.154 -223.216)"/></g><path class="e" d="M312.243,247.731s.219.159.631.474l1.813,1.4,6.881,5.344,24.775,19.311H346.2l33.073-26.323-.052.112c-.154-4.76-.314-9.753-.478-14.834-.11-3.42-.218-6.8-.324-10.115l.141.134-66.483.875.088-.09c.034,7.456.061,13.376.08,17.441,0,2.029.007,3.593.01,4.658q0,.788,0,1.2c0,.271-.009.412-.009.412s-.009-.133-.014-.4-.011-.672-.02-1.194c-.013-1.062-.032-2.622-.056-4.646-.039-4.072-.1-10-.167-17.472v-.089h.089l66.482-.973.136,0,0,.136c.107,3.314.216,6.695.325,10.115.163,5.082.323,10.075.475,14.835l0,.069-.054.043-33.1,26.286-.071.056-.071-.056-24.743-19.42-6.832-5.383-1.783-1.414C312.442,247.9,312.243,247.731,312.243,247.731Z" transform="translate(-311.985 -222.953)"/></g><g transform="translate(14.718 20.165)"><path class="e" d="M377.34,245.518c0,.077-10.166.222-22.706.324s-22.71.123-22.711.046,10.165-.222,22.709-.324S377.339,245.441,377.34,245.518Z" transform="translate(-331.923 -245.472)"/></g><g transform="translate(14.732 26.863)"><path class="e" d="M377.366,258.03c0,.077-10.166.222-22.706.324s-22.71.123-22.711.046,10.165-.222,22.709-.324S377.365,257.953,377.366,258.03Z" transform="translate(-331.949 -257.984)"/></g><g transform="translate(14.748 34.584)"><path class="e" d="M377.4,272.452c0,.077-10.166.222-22.706.324s-22.71.123-22.711.046,10.165-.222,22.709-.324S377.4,272.374,377.4,272.452Z" transform="translate(-331.979 -272.405)"/></g><g transform="translate(16.852 42.302)"><path class="e" d="M379.238,286.871c0,.077-9.7.218-21.663.316s-21.666.115-21.666.038,9.7-.218,21.664-.316S379.237,286.794,379.238,286.871Z" transform="translate(-335.909 -286.823)"/></g><g transform="translate(25.477 49.081)"><path class="e" d="M378.234,299.548a.967.967,0,0,1-.266.031l-.763.033-2.808.07-9.266.168c-3.62.068-6.9.089-9.27.087l-2.81-.018-.764-.02a.135.135,0,1,1,0-.056l.763-.033,2.808-.07,9.267-.168c3.619-.068,6.9-.089,9.269-.087l2.81.019.764.019A.971.971,0,0,1,378.234,299.548Z" transform="translate(-352.021 -299.485)"/></g><g transform="translate(33.462 55.547)"><path class="e" d="M376.62,311.692a84.113,84.113,0,0,1-9.684.02,84.131,84.131,0,0,1,9.684-.02Z" transform="translate(-366.936 -311.562)"/></g></g></g><g transform="translate(9.071 243.847)"><g transform="translate(0 0)"><path class="e" d="M398.614,415.433c0,.077-80.057.139-178.788.139-98.766,0-178.806-.063-178.806-.139s80.039-.14,178.806-.14C318.557,415.293,398.614,415.356,398.614,415.433Z" transform="translate(-41.02 -415.293)"/></g></g><g transform="translate(201.974 57.607)"><g transform="translate(0 36.24)"><g transform="translate(0 46.962)"><path class="e" d="M401.567,222.825c.077.008.109.313.073.68s-.128.66-.2.653-.109-.312-.073-.68S401.491,222.817,401.567,222.825Z" transform="translate(-401.348 -222.825)"/></g><g transform="translate(0.493 41.748)"><path class="e" d="M402.708,213.085a6.28,6.28,0,0,1-.4,2.6,6.279,6.279,0,0,1,.4-2.6Z" transform="translate(-402.268 -213.085)"/></g><g transform="translate(1.383 36.591)"><path class="e" d="M404.532,203.453a6.271,6.271,0,0,1-.57,2.569,6.271,6.271,0,0,1,.57-2.569Z" transform="translate(-403.931 -203.452)"/></g><g transform="translate(2.625 31.525)"><path class="e" d="M407.036,193.989a6.277,6.277,0,0,1-.762,2.519,6.3,6.3,0,0,1,.762-2.519Z" transform="translate(-406.251 -193.989)"/></g><g transform="translate(4.257 26.593)"><path class="e" d="M410.291,184.777a6.266,6.266,0,0,1-.973,2.446,6.3,6.3,0,0,1,.973-2.446Z" transform="translate(-409.301 -184.776)"/></g><g transform="translate(6.317 21.855)"><path class="e" d="M414.359,175.928a6.269,6.269,0,0,1-1.2,2.341,3.2,3.2,0,0,1,.474-1.234C413.968,176.387,414.291,175.891,414.359,175.928Z" transform="translate(-413.148 -175.926)"/></g><g transform="translate(8.833 17.368)"><path class="e" d="M419.294,167.548a3.254,3.254,0,0,1-.617,1.17c-.387.613-.754,1.078-.82,1.038a3.227,3.227,0,0,1,.587-1.19C418.849,167.96,419.232,167.5,419.294,167.548Z" transform="translate(-417.847 -167.546)"/></g><g transform="translate(11.833 13.223)"><path class="e" d="M425.14,159.807c.058.051-.271.544-.733,1.1s-.887.971-.948.923.268-.54.733-1.1S425.083,159.757,425.14,159.807Z" transform="translate(-423.451 -159.803)"/></g><g transform="translate(15.315 9.491)"><path class="e" d="M431.872,152.837c.051.058-.334.508-.86,1.006s-1,.858-1.051.8.33-.5.86-1.006S431.821,152.779,431.872,152.837Z" transform="translate(-429.955 -152.831)"/></g><g transform="translate(19.247 6.245)"><path class="e" d="M439.426,146.776c.043.064-.4.463-.979.89a3.259,3.259,0,0,1-1.144.665c-.048-.06.391-.459.979-.89A3.219,3.219,0,0,1,439.426,146.776Z" transform="translate(-437.299 -146.767)"/></g><g transform="translate(23.593 3.576)"><path class="e" d="M447.735,141.8c.034.069-.454.4-1.091.749a3.248,3.248,0,0,1-1.224.5c-.04-.066.449-.4,1.091-.749A3.215,3.215,0,0,1,447.735,141.8Z" transform="translate(-445.418 -141.783)"/></g><g transform="translate(28.308 1.588)"><path class="e" d="M456.7,138.088a6.29,6.29,0,0,1-2.474.9,6.291,6.291,0,0,1,2.474-.9Z" transform="translate(-454.225 -138.069)"/></g><g transform="translate(33.318 0.375)"><path class="e" d="M466.17,135.843a3.279,3.279,0,0,1-1.271.355,3.225,3.225,0,0,1-1.314.135,3.229,3.229,0,0,1,1.262-.41A3.177,3.177,0,0,1,466.17,135.843Z" transform="translate(-463.584 -135.803)"/></g><g transform="translate(38.523)"><path class="e" d="M475.938,135.228a6.278,6.278,0,0,1-2.632.029,6.278,6.278,0,0,1,2.632-.029Z" transform="translate(-473.306 -135.103)"/></g><g transform="translate(43.779 0.28)"><path class="e" d="M485.722,136.087a6.281,6.281,0,0,1-2.6-.42,6.281,6.281,0,0,1,2.6.42Z" transform="translate(-483.124 -135.625)"/></g><g transform="translate(48.929 1.362)"><path class="e" d="M495.231,138.53a6.271,6.271,0,0,1-2.486-.862,6.285,6.285,0,0,1,2.486.862Z" transform="translate(-492.744 -137.647)"/></g><g transform="translate(53.812 3.317)"><path class="e" d="M504.153,142.615a3.258,3.258,0,0,1-1.212-.531c-.627-.358-1.108-.7-1.074-.773a3.191,3.191,0,0,1,1.212.531C503.714,142.2,504.2,142.55,504.153,142.615Z" transform="translate(-501.866 -141.299)"/></g><g transform="translate(58.242 6.147)"><path class="e" d="M512.121,148.328c-.055.055-.539-.287-1.081-.763s-.944-.912-.9-.973.531.281,1.081.763S512.175,148.273,512.121,148.328Z" transform="translate(-510.139 -146.585)"/></g><g transform="translate(61.991 9.822)"><path class="e" d="M517.976,154.514c-.062.045-.295-.154-.52-.443s-.359-.565-.3-.615.292.149.52.444S518.039,154.469,517.976,154.514Z" transform="translate(-517.143 -153.449)"/></g></g><g transform="translate(85.152 15.895)"><g transform="translate(0 62.346)"><path class="e" d="M562.835,214.7a6.506,6.506,0,0,1-2.428-1.127,6.476,6.476,0,0,1,2.428,1.127Z" transform="translate(-560.405 -213.558)"/></g><g transform="translate(4.924 64.442)"><path class="e" d="M572.162,218.277a6.491,6.491,0,0,1-2.559-.782,6.49,6.49,0,0,1,2.559.782Z" transform="translate(-569.602 -217.473)"/></g><g transform="translate(10.103 65.74)"><path class="e" d="M581.937,220.246a6.5,6.5,0,0,1-2.66-.293,6.5,6.5,0,0,1,2.66.293Z" transform="translate(-579.277 -219.898)"/></g><g transform="translate(15.439 65.851)"><path class="e" d="M591.913,220.176a6.511,6.511,0,0,1-2.669.2,6.487,6.487,0,0,1,2.669-.2Z" transform="translate(-589.244 -220.105)"/></g><g transform="translate(20.754 64.909)"><path class="e" d="M601.783,218.372a3.33,3.33,0,0,1-1.27.454,3.218,3.218,0,0,1-1.341.131,3.46,3.46,0,0,1,1.282-.4A3.352,3.352,0,0,1,601.783,218.372Z" transform="translate(-599.172 -218.345)"/></g><g transform="translate(25.901 62.952)"><path class="e" d="M611.22,214.7a6.5,6.5,0,0,1-2.432,1.119,6.491,6.491,0,0,1,2.432-1.119Z" transform="translate(-608.787 -214.689)"/></g><g transform="translate(30.631 59.975)"><path class="e" d="M619.76,209.136c.05.058-.367.5-.962.947a2.967,2.967,0,0,1-1.174.665c-.043-.065.42-.445,1.006-.888A3.828,3.828,0,0,1,619.76,209.136Z" transform="translate(-617.622 -209.13)"/></g><g transform="translate(34.703 56.071)"><path class="e" d="M626.935,201.839a2.915,2.915,0,0,1-.711,1.147c-.474.576-.936.97-.991.917s.309-.528.776-1.094S626.871,201.794,626.935,201.839Z" transform="translate(-625.227 -201.836)"/></g><g transform="translate(37.818 51.362)"><path class="e" d="M632.146,193.041a4.859,4.859,0,0,1-1.089,2.443,9.891,9.891,0,0,1,1.089-2.443Z" transform="translate(-631.045 -193.04)"/></g><g transform="translate(39.598 46.125)"><path class="e" d="M634.68,183.259a4.615,4.615,0,0,1-.273,2.66,4.235,4.235,0,0,1,.056-1.338A4.158,4.158,0,0,1,634.68,183.259Z" transform="translate(-634.371 -183.259)"/></g><g transform="translate(39.113 40.848)"><path class="e" d="M633.488,173.4a4.789,4.789,0,0,1,.594,2.608,10.159,10.159,0,0,1-.594-2.608Z" transform="translate(-633.466 -173.402)"/></g><g transform="translate(36.799 36.046)"><path class="e" d="M629.152,164.434c.062-.044.463.414.838,1.059a2.841,2.841,0,0,1,.508,1.252c-.071.034-.38-.479-.749-1.111A4.061,4.061,0,0,1,629.152,164.434Z" transform="translate(-629.143 -164.431)"/></g><g transform="translate(33.09 32.222)"><path class="e" d="M622.218,157.3a2.754,2.754,0,0,1,1.141.724c.565.489.935.974.88,1.025s-.51-.336-1.063-.814S622.173,157.361,622.218,157.3Z" transform="translate(-622.215 -157.288)"/></g><g transform="translate(28.238 30.026)"><path class="e" d="M613.153,153.217a4.341,4.341,0,0,1,2.54.836,4.437,4.437,0,0,1-1.291-.353A4.492,4.492,0,0,1,613.153,153.217Z" transform="translate(-613.152 -153.186)"/></g><g transform="translate(22.93 29.706)"><path class="e" d="M603.237,153.027a4.253,4.253,0,0,1,2.65-.348,14.173,14.173,0,0,1-2.65.348Z" transform="translate(-603.236 -152.589)"/></g><g transform="translate(18.311 31.1)"><path class="e" d="M594.614,156.82c-.056-.049.312-.547.915-1a2.513,2.513,0,0,1,1.208-.616c.037.071-.46.4-1.04.838S594.673,156.875,594.614,156.82Z" transform="translate(-594.608 -155.193)"/></g><g transform="translate(16.141 34.943)"><path class="e" d="M590.612,164.959a2.459,2.459,0,0,1,.077-1.353,2.4,2.4,0,0,1,.562-1.234,5.571,5.571,0,0,1-.291,1.3A5.267,5.267,0,0,1,590.612,164.959Z" transform="translate(-590.555 -162.37)"/></g><g transform="translate(16.337 40.196)"><path class="e" d="M591.828,174.709a4.054,4.054,0,0,1-.875-2.526,17.151,17.151,0,0,1,.875,2.526Z" transform="translate(-590.921 -172.182)"/></g><g transform="translate(18.737 44.926)"><path class="e" d="M597.409,182.8a2.671,2.671,0,0,1-1.142-.725c-.564-.5-.914-1-.857-1.048s.494.357,1.042.839S597.454,182.731,597.409,182.8Z" transform="translate(-595.404 -181.019)"/></g><g transform="translate(23.071 48)"><path class="e" d="M606.03,187.642a2.8,2.8,0,0,1-1.328-.247,2.764,2.764,0,0,1-1.2-.618,4.183,4.183,0,0,1,1.291.355A4.119,4.119,0,0,1,606.03,187.642Z" transform="translate(-603.499 -186.761)"/></g><g transform="translate(28.239 49.258)"><path class="e" d="M615.828,189.239a4.893,4.893,0,0,1-2.674-.057,9.7,9.7,0,0,1,2.674.057Z" transform="translate(-613.154 -189.111)"/></g><g transform="translate(33.568 48.393)"><path class="e" d="M625.7,187.516a5,5,0,0,1-2.591.66,9.288,9.288,0,0,1,2.591-.66Z" transform="translate(-623.109 -187.495)"/></g><g transform="translate(38.648 46.179)"><path class="e" d="M634.964,183.37c.04.066-.46.4-1.118.748a3.293,3.293,0,0,1-1.247.5,6.489,6.489,0,0,1,2.365-1.251Z" transform="translate(-632.597 -183.359)"/></g><g transform="translate(43.234 42.995)"><path class="e" d="M643.236,177.418c.052.057-.372.485-.946.957s-1.078.8-1.123.741.378-.49.946-.957A3.372,3.372,0,0,1,643.236,177.418Z" transform="translate(-641.164 -177.411)"/></g><g transform="translate(47.208 39.085)"><path class="e" d="M650.331,170.111c.061.047-.281.543-.763,1.108s-.92.98-.976.927a3.354,3.354,0,0,1,.763-1.108C649.833,170.479,650.27,170.064,650.331,170.111Z" transform="translate(-648.586 -170.107)"/></g><g transform="translate(50.506 34.619)"><path class="e" d="M656.136,161.768a3.315,3.315,0,0,1-.57,1.219c-.383.637-.745,1.118-.809,1.075a3.358,3.358,0,0,1,.57-1.219C655.706,162.213,656.069,161.732,656.136,161.768Z" transform="translate(-654.748 -161.766)"/></g><g transform="translate(53.064 29.729)"><path class="e" d="M660.527,152.633a3.31,3.31,0,0,1-.359,1.3c-.265.693-.554,1.223-.63,1.19a3.8,3.8,0,0,1,.37-1.293A3.36,3.36,0,0,1,660.527,152.633Z" transform="translate(-659.525 -152.632)"/></g><g transform="translate(54.866 24.593)"><path class="e" d="M663.588,143.039a6.5,6.5,0,0,1-.671,2.591,6.493,6.493,0,0,1,.671-2.591Z" transform="translate(-662.891 -143.038)"/></g><g transform="translate(56.053 19.325)"><path class="e" d="M665.555,133.2a6.489,6.489,0,0,1-.405,2.646,6.491,6.491,0,0,1,.405-2.646Z" transform="translate(-665.107 -133.197)"/></g><g transform="translate(56.723 13.995)"><path class="e" d="M666.63,123.241a6.5,6.5,0,0,1-.2,2.669,6.5,6.5,0,0,1,.2-2.669Z" transform="translate(-666.36 -123.241)"/></g><g transform="translate(56.995 8.645)"><path class="e" d="M667.036,113.249a6.489,6.489,0,1,1-.165,1.336A3.343,3.343,0,0,1,667.036,113.249Z" transform="translate(-666.868 -113.249)"/></g><g transform="translate(57.003 3.292)"><path class="e" d="M667,103.25a6.5,6.5,0,1,1-.12,1.34A3.322,3.322,0,0,1,667,103.25Z" transform="translate(-666.882 -103.25)"/></g><g transform="translate(56.914)"><path class="e" d="M666.846,97.1c.077,0,.143.134.148.3s-.054.309-.131.311-.143-.134-.147-.3S666.77,97.1,666.846,97.1Z" transform="translate(-666.716 -97.1)"/></g></g><g transform="translate(117.522 0)"><rect class="f" width="36.604" height="24.673" transform="translate(0.014 3.966) rotate(-6.198)"/><path class="e" d="M623.537,95.918v-.013l-2.665-24.542.013,0,36.4-3.953v.013l2.666,24.542-.013,0ZM620.9,71.387l2.661,24.5,36.364-3.949-2.661-24.5Z" transform="translate(-620.871 -67.409)"/><g transform="translate(0.163 0.296)"><path class="e" d="M657.565,67.963a2.574,2.574,0,0,1-.3.364l-.917,1-3.419,3.63-11.4,11.92-.094.1-.115-.073-.278-.177-14.086-9-4.248-2.759-1.146-.764a2.581,2.581,0,0,1-.387-.286,2.657,2.657,0,0,1,.423.229l1.179.712,4.3,2.67,14.138,8.917.278.177-.209.025,11.468-11.851,3.5-3.558.962-.955A2.509,2.509,0,0,1,657.565,67.963Z" transform="translate(-621.175 -67.962)"/></g><g transform="translate(2.825 12.616)"><path class="e" d="M626.149,107.136c-.077-.051,2.3-3.711,5.3-8.173s5.5-8.039,5.573-7.988-2.295,3.71-5.3,8.173S626.225,107.187,626.149,107.136Z" transform="translate(-626.148 -90.975)"/></g><g transform="translate(25.757 10.995)"><path class="e" d="M668.984,87.948c.065-.064,3.132,2.98,6.848,6.8s6.676,6.967,6.611,7.031-3.131-2.98-6.849-6.8S668.918,88.012,668.984,87.948Z" transform="translate(-668.983 -87.947)"/></g></g></g><g transform="translate(175.895 46.313)"><g transform="translate(11.037 20.058)"><g transform="translate(2.73 65.617)"><path class="e" d="M378.414,206.348c.076-.013.188.272.25.637s.05.671-.026.684-.187-.272-.25-.637S378.339,206.361,378.414,206.348Z" transform="translate(-378.349 -206.347)"/></g><g transform="translate(1.897 60.394)"><path class="e" d="M376.834,196.591a6.34,6.34,0,0,1,.421,2.613,6.367,6.367,0,0,1-.421-2.613Z" transform="translate(-376.793 -196.591)"/></g><g transform="translate(1.128 55.156)"><path class="e" d="M375.4,186.808a6.348,6.348,0,0,1,.366,2.621,6.35,6.35,0,0,1-.366-2.621Z" transform="translate(-375.357 -186.808)"/></g><g transform="translate(0.514 49.898)"><path class="e" d="M374.268,176.986a6.338,6.338,0,0,1,.277,2.632,6.362,6.362,0,0,1-.277-2.632Z" transform="translate(-374.211 -176.986)"/></g><g transform="translate(0.121 44.619)"><path class="e" d="M373.56,167.124a6.338,6.338,0,0,1,.149,2.642,6.36,6.36,0,0,1-.149-2.642Z" transform="translate(-373.476 -167.124)"/></g><g transform="translate(0 39.324)"><path class="e" d="M373.4,157.235a6.357,6.357,0,0,1-.016,2.648,6.356,6.356,0,0,1,.016-2.648Z" transform="translate(-373.251 -157.235)"/></g><g transform="translate(0.193 34.045)"><path class="e" d="M373.9,147.374a6.348,6.348,0,0,1-.22,2.637,6.348,6.348,0,0,1,.22-2.637Z" transform="translate(-373.61 -147.374)"/></g><g transform="translate(0.778 28.813)"><path class="e" d="M375.2,137.6a6.354,6.354,0,0,1-.461,2.607,6.351,6.351,0,0,1,.461-2.607Z" transform="translate(-374.703 -137.6)"/></g><g transform="translate(1.848 23.698)"><path class="e" d="M377.48,128.046a6.352,6.352,0,0,1-.754,2.536,6.352,6.352,0,0,1,.754-2.536Z" transform="translate(-376.702 -128.046)"/></g><g transform="translate(3.523 18.791)"><path class="e" d="M380.913,118.882a6.355,6.355,0,0,1-1.066,2.422,6.355,6.355,0,0,1,1.066-2.422Z" transform="translate(-379.831 -118.88)"/></g><g transform="translate(5.81 14.172)"><path class="e" d="M385.48,110.255a3.283,3.283,0,0,1-.564,1.206c-.375.624-.734,1.1-.8,1.062a3.243,3.243,0,0,1,.563-1.206C385.056,110.688,385.415,110.212,385.48,110.255Z" transform="translate(-384.104 -110.252)"/></g><g transform="translate(8.692 9.939)"><path class="e" d="M391.155,102.348a3.283,3.283,0,0,1-.722,1.118c-.457.567-.877.989-.939.943s.261-.547.722-1.118S391.1,102.3,391.155,102.348Z" transform="translate(-389.487 -102.344)"/></g><g transform="translate(12.163 6.217)"><path class="e" d="M397.929,95.4c.049.059-.346.505-.883,1s-1.016.845-1.07.79.34-.5.882-1S397.879,95.34,397.929,95.4Z" transform="translate(-395.971 -95.393)"/></g><g transform="translate(16.213 3.172)"><path class="e" d="M405.769,89.716c.037.067-.428.438-1.04.829a3.3,3.3,0,0,1-1.191.594c-.045-.063.421-.434,1.041-.829A3.215,3.215,0,0,1,405.769,89.716Z" transform="translate(-403.535 -89.705)"/></g><g transform="translate(20.801 0.995)"><path class="e" d="M414.572,85.656a6.349,6.349,0,0,1-2.465.964,6.349,6.349,0,0,1,2.465-.964Z" transform="translate(-412.105 -85.638)"/></g><g transform="translate(25.82)"><path class="e" d="M422.793,83.84c.012.076-.27.193-.63.262s-.666.063-.683-.012.265-.193.63-.262S422.781,83.764,422.793,83.84Z" transform="translate(-421.48 -83.78)"/></g></g><rect class="d" width="26.827" height="39.8" transform="translate(0.017 25.038) rotate(-68.859)"/><path class="e" d="M389.781,85.723l-.012,0L352.635,71.359l0-.012,9.68-25.034.012,0,37.134,14.359,0,.012ZM352.67,71.344l37.1,14.345,9.665-25-37.1-14.345Z" transform="translate(-352.635 -46.313)"/><g transform="translate(9.694 0.364)"><path class="e" d="M407.865,61.347a2.791,2.791,0,0,1-.474.2l-1.384.506-5.115,1.8-16.961,5.822-.14.048-.074-.128-.18-.309-9.111-15.725L371.7,48.772l-.725-1.31a2.787,2.787,0,0,1-.231-.47,2.881,2.881,0,0,1,.294.433l.783,1.276,2.825,4.728,9.2,15.672.18.309-.214-.08,16.995-5.72,5.152-1.691,1.405-.442A2.743,2.743,0,0,1,407.865,61.347Z" transform="translate(-370.743 -46.993)"/></g><g transform="translate(0.019 15.201)"><path class="e" d="M352.672,84.892c-.048-.088,4.07-2.438,9.2-5.249s9.323-5.021,9.371-4.933-4.069,2.437-9.2,5.249S352.719,84.979,352.672,84.892Z" transform="translate(-352.671 -74.707)"/></g><g transform="translate(31.042 19.662)"><path class="e" d="M410.624,83.04c.1-.029,1.538,4.442,3.22,9.986s2.97,10.062,2.874,10.092-1.537-4.442-3.22-9.987S410.528,83.069,410.624,83.04Z" transform="translate(-410.619 -83.04)"/></g></g><g transform="translate(9.044 69.195)"><g transform="translate(105.074 21.25)"><g transform="translate(59.815 47.403)"><path class="e" d="M349.173,217.293c.077.005.115.309.085.679s-.117.663-.193.656-.115-.311-.085-.679S349.1,217.288,349.173,217.293Z" transform="translate(-348.97 -217.293)"/></g><g transform="translate(60.011 41.958)"><path class="e" d="M349.479,207.123a6.733,6.733,0,0,1-.006,2.724,6.733,6.733,0,0,1,.006-2.724Z" transform="translate(-349.337 -207.123)"/></g><g transform="translate(59.722 36.525)"><path class="e" d="M348.858,196.974a6.718,6.718,0,0,1,.25,2.713,6.72,6.72,0,0,1-.25-2.713Z" transform="translate(-348.796 -196.974)"/></g><g transform="translate(58.842 31.155)"><path class="e" d="M347.186,186.944a6.726,6.726,0,0,1,.523,2.673,6.72,6.72,0,0,1-.523-2.673Z" transform="translate(-347.153 -186.943)"/></g><g transform="translate(57.375 25.913)"><path class="e" d="M344.433,177.153a6.739,6.739,0,0,1,.814,2.6,6.716,6.716,0,0,1-.814-2.6Z" transform="translate(-344.412 -177.152)"/></g><g transform="translate(55.3 20.884)"><path class="e" d="M340.55,167.76a6.717,6.717,0,0,1,1.118,2.483,6.72,6.72,0,0,1-1.118-2.483Z" transform="translate(-340.536 -167.758)"/></g><g transform="translate(52.6 16.158)"><path class="e" d="M335.5,158.932c.063-.043.449.437.854,1.075a3.437,3.437,0,0,1,.578,1.245c-.067.038-.432-.454-.815-1.1A3.5,3.5,0,0,1,335.5,158.932Z" transform="translate(-335.494 -158.929)"/></g><g transform="translate(49.268 11.854)"><path class="e" d="M329.275,150.894c.057-.052.5.376.979.957a3.433,3.433,0,0,1,.766,1.135c-.062.047-.5-.381-.98-.957A3.489,3.489,0,0,1,329.275,150.894Z" transform="translate(-329.269 -150.89)"/></g><g transform="translate(45.36 8.064)"><path class="e" d="M321.973,143.817c.049-.059.543.3,1.1.808s.972.96.918,1.016a3.465,3.465,0,0,1-1.1-.808C322.334,144.331,321.923,143.876,321.973,143.817Z" transform="translate(-321.969 -143.811)"/></g><g transform="translate(40.945 4.878)"><path class="e" d="M313.724,137.869a3.422,3.422,0,0,1,1.211.639c.629.419,1.1.809,1.056.871a3.482,3.482,0,0,1-1.211-.639C314.157,138.325,313.684,137.935,313.724,137.869Z" transform="translate(-313.722 -137.859)"/></g><g transform="translate(36.095 2.4)"><path class="e" d="M304.665,133.245a6.743,6.743,0,0,1,2.475,1.14,6.712,6.712,0,0,1-2.475-1.14Z" transform="translate(-304.664 -133.231)"/></g><g transform="translate(30.907 0.748)"><path class="e" d="M294.973,130.17a6.725,6.725,0,0,1,2.63.709,6.718,6.718,0,0,1-2.63-.709Z" transform="translate(-294.972 -130.145)"/></g><g transform="translate(25.511)"><path class="e" d="M284.892,128.831a3.4,3.4,0,0,1,1.371-.062,3.436,3.436,0,0,1,1.343.281,3.461,3.461,0,0,1-1.366,0A3.509,3.509,0,0,1,284.892,128.831Z" transform="translate(-284.892 -128.748)"/></g><g transform="translate(20.082 0.085)"><path class="e" d="M274.753,129.278a6.735,6.735,0,0,1,2.7-.32,6.709,6.709,0,0,1-2.7.32Z" transform="translate(-274.753 -128.906)"/></g><g transform="translate(14.823 1.011)"><path class="e" d="M264.93,131.482a6.727,6.727,0,0,1,2.6-.823,6.727,6.727,0,0,1-2.6.823Z" transform="translate(-264.929 -130.637)"/></g><g transform="translate(9.919 2.908)"><path class="e" d="M255.77,135.489c-.04-.065.466-.411,1.131-.771a3.412,3.412,0,0,1,1.265-.526,6.729,6.729,0,0,1-2.4,1.3Z" transform="translate(-255.768 -134.18)"/></g><g transform="translate(5.568 5.734)"><path class="e" d="M247.644,141.21c-.052-.056.375-.495.957-.979s1.089-.828,1.135-.766-.382.5-.956.979A3.478,3.478,0,0,1,247.644,141.21Z" transform="translate(-247.64 -139.458)"/></g><g transform="translate(2.004 9.436)"><path class="e" d="M240.993,148.532a3.051,3.051,0,0,1,.692-1.186c.464-.6.917-1.018.974-.968a3.967,3.967,0,0,1-.753,1.139C241.447,148.108,241.057,148.576,240.993,148.532Z" transform="translate(-240.984 -146.374)"/></g><g transform="translate(0 13.922)"><path class="e" d="M237.267,155.961c-.071-.031,0-.328.167-.663s.35-.578.418-.541-.006.332-.167.663S237.337,155.992,237.267,155.961Z" transform="translate(-237.24 -154.753)"/></g></g><g transform="translate(24.262 32.471)"><g transform="translate(22.858 35.261)"><path class="e" d="M173.751,215.815c-.005-.077.285-.175.647-.219s.668-.018.681.058-.277.174-.648.219S173.756,215.892,173.751,215.815Z" transform="translate(-173.751 -215.575)"/></g><g transform="translate(17.554 34.878)"><path class="e" d="M163.845,214.88a11.518,11.518,0,0,1,2.623.549,4.573,4.573,0,0,1-2.623-.549Z" transform="translate(-163.845 -214.858)"/></g><g transform="translate(12.76 32.522)"><path class="e" d="M154.892,210.466a4.009,4.009,0,0,1,1.2.608c.631.377,1.14.693,1.105.763a2.848,2.848,0,0,1-1.248-.524C155.306,210.931,154.849,210.528,154.892,210.466Z" transform="translate(-154.89 -210.458)"/></g><g transform="translate(8.772 28.95)"><path class="e" d="M147.447,203.79c.058-.051.5.358,1.017.881s.922.967.871,1.025-.545-.3-1.07-.829S147.389,203.84,147.447,203.79Z" transform="translate(-147.441 -203.786)"/></g><g transform="translate(5.62 24.615)"><path class="e" d="M141.562,195.691c.066-.039.448.429.852,1.045a3.382,3.382,0,0,1,.618,1.2c-.062.046-.443-.422-.852-1.045A3.326,3.326,0,0,1,141.562,195.691Z" transform="translate(-141.553 -195.689)"/></g><g transform="translate(3.301 19.78)"><path class="e" d="M137.237,186.658a6.534,6.534,0,0,1,1.051,2.468,6.51,6.51,0,0,1-1.051-2.468Z" transform="translate(-137.221 -186.657)"/></g><g transform="translate(1.753 14.644)"><path class="e" d="M134.354,177.063a6.507,6.507,0,0,1,.682,2.595,6.529,6.529,0,0,1-.682-2.595Z" transform="translate(-134.328 -177.062)"/></g><g transform="translate(0.805 9.361)"><path class="e" d="M132.6,167.194a6.526,6.526,0,0,1,.4,2.653,6.526,6.526,0,0,1-.4-2.653Z" transform="translate(-132.557 -167.194)"/></g><g transform="translate(0.265 4.019)"><path class="e" d="M131.617,157.217a6.525,6.525,0,0,1,.217,2.675,6.528,6.528,0,0,1-.217-2.675Z" transform="translate(-131.549 -157.217)"/></g><path class="e" d="M131.165,149.709c.077,0,.153.293.171.662s-.031.671-.108.675-.153-.292-.171-.662S131.088,149.713,131.165,149.709Z" transform="translate(-131.054 -149.709)"/></g><rect class="f" width="44.564" height="30.038" transform="translate(0.014 2.112) rotate(-2.699)"/><path class="e" d="M87.151,121.186v-.014L85.735,91.154h.014l44.528-2.1v.013l1.415,30.018h-.013ZM85.763,91.18l1.413,29.978,44.488-2.1-1.413-29.978Z" transform="translate(-85.735 -89.055)"/><g transform="translate(0.173 0.367)"><path class="e" d="M130.574,89.742a3.139,3.139,0,0,1-.4.419L128.99,91.3l-4.425,4.158L109.829,109.1l-.121.112-.134-.1-.325-.235L92.8,96.9l-4.957-3.669-1.336-1.014a3.19,3.19,0,0,1-.45-.376,3.182,3.182,0,0,1,.5.31l1.38.952,5.032,3.564,16.517,11.886.325.235-.255.015,14.817-13.55,4.511-4.063,1.239-1.089A3.105,3.105,0,0,1,130.574,89.742Z" transform="translate(-86.058 -89.741)"/></g><g transform="translate(1.586 13.639)"><path class="e" d="M88.7,133.364c-.089-.068,3.065-4.339,7.043-9.538s7.276-9.361,7.365-9.293-3.064,4.337-7.044,9.538S88.788,133.431,88.7,133.364Z" transform="translate(-88.698 -114.532)"/></g><g transform="translate(30.773 12.566)"><path class="e" d="M143.219,112.529c.085-.073,3.585,3.854,7.817,8.77s7.6,8.962,7.511,9.035-3.584-3.853-7.818-8.771S143.134,112.6,143.219,112.529Z" transform="translate(-143.217 -112.528)"/></g></g><g transform="translate(-26.187 132.521)"><g transform="translate(76.134 40.465)"><path class="j" d="M215.1,285.732a1.217,1.217,0,0,0-.923-1.357l-1.193.082-4.268-1.486a1.276,1.276,0,0,0-1.615,1.162c-.024,1.227-.513,4.568-1.508,3.517-.024-.025-.048-.044-.071-.068-1.407-1.57-3.037-2.328-3.666-2.237a.713.713,0,0,0-.306,1.262.757.757,0,0,0,.253.177c.043.018.1.053.142.077a10.585,10.585,0,0,1,1.631,1.457,5.614,5.614,0,0,1,1.074,1.624c.288.662.511,1.245.685,1.74l.067,3.924L203.7,313.954s-11.293-11.862-11.031-11.979l.648,18.465,6.841,5.661a8.6,8.6,0,0,0,14.088-6.772l-.395-23.724.278-3.111Z" transform="translate(-192.663 -282.931)"/></g><g transform="translate(0 69.347)"><path class="j" d="M85.6,336.879,73.242,365.17l-9.781,20.405L56.2,388.018s-5.749,1.669-5.749,2.859,1.517.919,1.517.919c.279,1.777,2.739.769,4.462-.029s5.548-.956,5.548-.956a1.559,1.559,0,0,0-.107,2.495c.609.427,1.671-.09,2.39-.856s2.568-1.123,4.628-1.857,2.4-3.5,2.4-3.5L96.035,345.4Z" transform="translate(-50.449 -336.879)"/></g><g transform="translate(27.951 52.302)"><path class="d" d="M150.89,332.357,154,336.466l6.738-14.953s-6.541-7.983-8.933-11.331c-2.372-3.319-4.152-3.9-4.152-3.9a30.647,30.647,0,0,0-6.517-1.246l-10.737.64L119.5,310.443a15.1,15.1,0,0,0-6.566,5.528l-10.27,16.494,14.54,6.215,4.875,27.877c.936,4.181,1.753,8.126,5.613,10.053l26.967-25.916-3.16-4.976Z" transform="translate(-102.66 -305.04)"/><g transform="translate(14.793 22.205)"><path class="e" d="M137.948,346.518c.064.043-1.6,2.626-3.712,5.77s-3.88,5.658-3.943,5.615,1.6-2.626,3.712-5.771S137.884,346.474,137.948,346.518Z" transform="translate(-130.292 -346.517)"/></g><g transform="translate(25.891 48.667)"><path class="e" d="M170.187,395.949a4.785,4.785,0,0,1-.716.427c-.47.26-1.155.624-2.007,1.066-1.7.883-4.074,2.067-6.721,3.315s-5.071,2.323-6.836,3.073c-.882.376-1.6.672-2.1.869a4.779,4.779,0,0,1-.785.28,4.748,4.748,0,0,1,.743-.38l2.062-.949c1.744-.8,4.151-1.9,6.8-3.146s5.028-2.4,6.752-3.239l2.046-.986A4.793,4.793,0,0,1,170.187,395.949Z" transform="translate(-151.022 -395.947)"/></g><g transform="translate(13.686 10.075)"><path class="e" d="M136.123,329.951a9.217,9.217,0,0,1-.945-1.191,19.2,19.2,0,0,0-2.4-2.731,8.448,8.448,0,0,0-3.087-1.818c-.885-.274-1.474-.267-1.471-.318a1.052,1.052,0,0,1,.411-.032,4.994,4.994,0,0,1,1.114.161,7.789,7.789,0,0,1,3.22,1.8,15.312,15.312,0,0,1,2.369,2.824A7.453,7.453,0,0,1,136.123,329.951Z" transform="translate(-128.224 -323.86)"/></g><g transform="translate(26.83 29.752)"><path class="e" d="M169.718,360.614a1.176,1.176,0,0,1,.013.3c0,.194,0,.481-.027.848a20.387,20.387,0,0,1-.429,3.091,22.145,22.145,0,0,1-12.462,15.536,20.407,20.407,0,0,1-2.924,1.09c-.352.108-.634.163-.822.21a1.163,1.163,0,0,1-.292.051c-.006-.023.385-.135,1.081-.365a24.025,24.025,0,0,0,2.872-1.165,22.654,22.654,0,0,0,12.353-15.4,23.941,23.941,0,0,0,.514-3.056C169.67,361.02,169.695,360.613,169.718,360.614Z" transform="translate(-152.776 -360.614)"/></g><g class="k" transform="translate(14.596 26.026)"><path d="M131.753,372.046c-.047-.266,3.456-18.392,3.456-18.392l-5.284,7.937" transform="translate(-129.924 -353.654)"/></g><g transform="translate(47.522 9.92)"><path class="e" d="M191.445,323.57a1.345,1.345,0,0,1,.039.312c.015.235.033.532.056.9.041.816.1,1.932.166,3.295.137,2.816.322,6.643.527,10.87.2,4.247.361,8.092.445,10.877.042,1.392.069,2.519.078,3.3,0,.365,0,.662,0,.9a1.323,1.323,0,0,1-.018.314,1.343,1.343,0,0,1-.039-.312c-.014-.235-.033-.532-.056-.9-.041-.815-.1-1.932-.166-3.294-.137-2.816-.322-6.643-.527-10.872-.2-4.245-.361-8.09-.445-10.875-.042-1.392-.069-2.519-.078-3.3,0-.365,0-.662,0-.9A1.328,1.328,0,0,1,191.445,323.57Z" transform="translate(-191.427 -323.57)"/></g><g class="l" transform="translate(25.45 42.857)"><path d="M150.765,399.92a2.166,2.166,0,0,1,.1-3.009,6.638,6.638,0,0,1,2.961-1.526c5.124-1.66,10.276-4.006,13.656-8.2a8.061,8.061,0,0,1,1.515-1.629,2.087,2.087,0,0,1,2.1-.291c1.035.538,1.074,2.039.64,3.122a6,6,0,0,1-2.826,3.084" transform="translate(-150.199 -385.093)"/></g><g class="l" transform="translate(47.651 13.137)"><path d="M191.669,329.579l2.992,17.366-2.331-3.078Z" transform="translate(-191.669 -329.579)"/></g></g><g transform="translate(53.588 79.602)"><g transform="translate(45.427 31.455)"><path class="d" d="M240.462,414.79l-5.06,17.354,21.559,6.406c.486-2.1-9.439-9.546-9.439-9.546l3.7-10.986Z" transform="translate(-235.402 -414.79)"/><g class="m" transform="translate(4.822 11.291)"><path class="n" d="M245.318,435.889a.919.919,0,0,0-.907.824.883.883,0,0,0,.809.906.968.968,0,0,0,.956-.877c-.022-.451-.5-.941-.946-.85" transform="translate(-244.409 -435.881)"/></g><g class="m" transform="translate(0 15.625)"><path class="n" d="M235.4,445.705l.578-1.729,20.454,6.788s.836.7.527,1.347Z" transform="translate(-235.402 -443.976)"/></g><g transform="translate(10.183 13.946)"><path class="e" d="M256.742,441.1c-.035.1-.575,0-1.194.18-.623.168-1.026.545-1.11.474-.091-.049.253-.632,1.006-.842S256.793,441.012,256.742,441.1Z" transform="translate(-254.423 -440.84)"/></g><g transform="translate(12.609 15.709)"><path class="e" d="M260.831,444.239c-.006.109-.516.153-1.005.492-.5.324-.733.779-.836.743-.1-.013.006-.651.624-1.061S260.858,444.138,260.831,444.239Z" transform="translate(-258.955 -444.133)"/></g><g transform="translate(14.912 17.315)"><path class="e" d="M263.31,448.721c-.1-.006-.093-.576.349-1.072s1-.579,1.02-.479c.034.1-.378.319-.734.732S263.417,448.742,263.31,448.721Z" transform="translate(-263.256 -447.133)"/></g><g transform="translate(10.791 10.839)"><path class="e" d="M257.835,435.809c-.073.082-.513-.206-1.119-.343s-1.127-.087-1.155-.193.529-.35,1.242-.179S257.911,435.742,257.835,435.809Z" transform="translate(-255.559 -435.037)"/></g><g transform="translate(10.388 6.328)"><path class="e" d="M257.731,429.183a2.113,2.113,0,0,1-1.078-.327,5.058,5.058,0,0,1-1.027-.683,5.325,5.325,0,0,1-.522-.513,1.372,1.372,0,0,1-.251-.351.479.479,0,0,1,.118-.574.6.6,0,0,1,.533-.1,1.466,1.466,0,0,1,.389.177,4.019,4.019,0,0,1,.6.43,3.962,3.962,0,0,1,.8.949,1.876,1.876,0,0,1,.374,1.065c-.058.02-.2-.381-.6-.915a4.513,4.513,0,0,0-.8-.829,4.219,4.219,0,0,0-.563-.375c-.21-.128-.4-.187-.493-.1-.033.032-.04.047-.012.127a1.118,1.118,0,0,0,.185.257,5.913,5.913,0,0,0,.474.5,6.213,6.213,0,0,0,.925.71A7.722,7.722,0,0,1,257.731,429.183Z" transform="translate(-254.805 -426.61)"/></g><g transform="translate(13.064 5.817)"><path class="e" d="M259.873,428.849a1.791,1.791,0,0,1,.025-1.128,3.655,3.655,0,0,1,.968-1.712.932.932,0,0,1,.851-.34.526.526,0,0,1,.361.435,1.513,1.513,0,0,1-.006.429,2.51,2.51,0,0,1-.216.728,2.589,2.589,0,0,1-.792.978c-.587.434-1.064.429-1.062.391-.019-.064.408-.158.89-.6a2.589,2.589,0,0,0,.643-.913,2.33,2.33,0,0,0,.165-.63c.034-.239,0-.45-.089-.452-.107-.034-.34.085-.482.241a3.736,3.736,0,0,0-.442.506,4.031,4.031,0,0,0-.529,1.015C259.939,428.423,259.934,428.85,259.873,428.849Z" transform="translate(-259.806 -425.655)"/></g></g><path class="o" d="M223.168,361.648c.546,4-.824,8.519-2.273,12.291l-9.455,22.23-10.464-1.606A13.477,13.477,0,0,1,196,397.922a10.293,10.293,0,0,1-8.73-1.209h0s-4.781,6.659-12.3,8.674-18.911,3.124-24.424-5.675l26.246-25.293c.542.13,22.607-14.751,34.526-18.139C211.319,356.28,222.164,354.286,223.168,361.648Z" transform="translate(-150.547 -356.034)"/><g transform="translate(19.821 16.018)"><path class="p" d="M217.4,408.378a.724.724,0,0,1,.141-.086l.429-.227c.376-.2.936-.485,1.644-.876a27.023,27.023,0,0,0,2.5-1.543,13.046,13.046,0,0,0,2.834-2.627,9.1,9.1,0,0,0,1.837-4.249,14.263,14.263,0,0,0-.224-5.349,8.632,8.632,0,0,0-2.888-5.026,10.892,10.892,0,0,0-5.91-2.1,18.273,18.273,0,0,0-3.24.027,24.3,24.3,0,0,0-3.107.546,36.827,36.827,0,0,0-5.647,1.954c-3.5,1.527-6.535,3.178-9.2,4.317a32.922,32.922,0,0,1-6.5,2.172c-.4.089-.752.145-1.06.193s-.57.086-.782.1l-.483.047a.715.715,0,0,1-.165.006.783.783,0,0,1,.163-.035l.479-.074c.211-.027.471-.069.776-.131s.658-.12,1.051-.217a34.588,34.588,0,0,0,6.448-2.246c2.648-1.158,5.668-2.824,9.18-4.373a36.705,36.705,0,0,1,5.684-1.983,24.385,24.385,0,0,1,3.145-.556,18.448,18.448,0,0,1,3.292-.029,11.125,11.125,0,0,1,6.056,2.168,7.636,7.636,0,0,1,1.968,2.392,11.032,11.032,0,0,1,1,2.791,14.425,14.425,0,0,1,.2,5.443,9.276,9.276,0,0,1-1.91,4.332,13.051,13.051,0,0,1-2.9,2.633,25.447,25.447,0,0,1-2.54,1.511c-.717.377-1.285.648-1.67.831l-.441.2A.733.733,0,0,1,217.4,408.378Z" transform="translate(-187.572 -385.955)"/></g><g transform="translate(51.592 9.271)"><path class="p" d="M251.538,373.353a63.209,63.209,0,0,1-4.618,7,63.064,63.064,0,0,1,4.618-7Z" transform="translate(-246.916 -373.352)"/></g><g transform="translate(53.538 35.254)"><path class="p" d="M257.721,425.311c-.048.017-.174-.474-.618-1.128a4.527,4.527,0,0,0-5.387-1.748c-.743.269-1.133.592-1.163.551-.011-.013.074-.108.254-.249a3.783,3.783,0,0,1,.837-.486,4.461,4.461,0,0,1,5.626,1.826,3.8,3.8,0,0,1,.392.884C257.724,425.181,257.738,425.307,257.721,425.311Z" transform="translate(-250.552 -421.886)"/></g></g><g transform="translate(78.524)"><g transform="translate(0 10.89)"><g transform="translate(0.868)"><g transform="translate(7.572)"><path class="p" d="M212.89,245.774s3.5-1.052,8.152-6.241,6.529-11.761,7.144-11.775,3.2-1.457,9.115,9.241,4.1,13.419,3.086,13.473-8.037-1.351-12.3-.543a46.2,46.2,0,0,0-9.618,3.458Z" transform="translate(-212.89 -227.686)"/></g><g transform="translate(0 15.904)"><path class="e" d="M199.205,266.178l1.386,2.219.621.994a3.021,3.021,0,0,0,4.027,1.042l7.432-3.226-5.2-9.813-7.32,4.629A3.022,3.022,0,0,0,199.205,266.178Z" transform="translate(-198.746 -257.394)"/></g><g transform="translate(5.133 25.885)"><path class="e" d="M208.334,278.21l2.786,4.584,1.191-.428,8.42,5.869,1.9-4.509s-4.842-1.672-5.835-3.281-.018-2.063-.018-2.063l-2.395-2.345Z" transform="translate(-208.334 -276.036)"/></g><g transform="translate(23.117 0.226)"><path class="e" d="M250.4,237.428c3.156,5.8,4.681,11.061,3.408,11.755s-4.866-3.445-8.022-9.243-4.681-11.061-3.408-11.755S247.241,231.629,250.4,237.428Z" transform="translate(-241.926 -228.108)"/></g></g><g transform="translate(0 24.932)"><path class="p" d="M198.046,277.4l2.02-.8-1.461-2.338-1.479,1.079Z" transform="translate(-197.125 -274.257)"/></g><g transform="translate(6.779 26.688)"><path class="p" d="M215.876,277.537l-5.294,3.958-.794-1.307Z" transform="translate(-209.788 -277.537)"/></g><g transform="translate(1.302 24.932)"><path class="p" d="M199.735,274.257l1.461,2.338-.415.165-1.223-2.374Z" transform="translate(-199.558 -274.257)"/></g><g transform="translate(2.945 23.013)"><path class="p" d="M202.627,273.047a23.082,23.082,0,0,0,4.349-2.369,23.079,23.079,0,0,0-4.349,2.369Z" transform="translate(-202.626 -270.672)"/></g><g transform="translate(2.201 21.682)"><path class="p" d="M201.238,270.489a19.338,19.338,0,0,0,3.906-2.3,19.347,19.347,0,0,0-3.906,2.3Z" transform="translate(-201.237 -268.185)"/></g><g transform="translate(3.86 24.713)"><path class="p" d="M204.337,275.982c.014.035.255-.04.638-.191.191-.075.418-.169.668-.277s.5-.265.777-.414a8.83,8.83,0,0,0,1.885-1.246,10.659,10.659,0,0,0-2.013,1.013c-.272.148-.522.308-.76.429s-.454.228-.633.323C204.54,275.811,204.324,275.948,204.337,275.982Z" transform="translate(-204.336 -273.847)"/></g><g transform="translate(26.832 8.053)"><path class="p" d="M247.245,243.3s2.951-2.148,4.955,1.905-1.2,4.984-1.2,4.984A27.92,27.92,0,0,1,247.245,243.3Z" transform="translate(-247.245 -242.729)"/></g><g transform="translate(23.168 3.885)"><path class="e" d="M240.4,234.943a4.764,4.764,0,0,0,.181.79c.135.5.329,1.235.6,2.13l.536,1.431.3.8.158.417c.057.14.127.275.192.415l.833,1.751.22.459c.072.155.168.3.252.451l.53.914.532.914c.09.148.168.3.267.443l.291.418,1.11,1.591c.09.126.173.254.266.373l.284.344.544.657.979,1.175c.645.673,1.183,1.2,1.553,1.569a4.676,4.676,0,0,0,.6.548,4.747,4.747,0,0,0-.522-.62l-1.492-1.627-.947-1.187-.529-.66-.277-.344c-.09-.118-.171-.247-.26-.373l-1.089-1.589-.286-.417c-.1-.139-.175-.293-.264-.441l-.527-.908-.528-.907c-.083-.15-.18-.293-.252-.447l-.22-.455-.842-1.733c-.065-.139-.137-.272-.2-.41l-.162-.412-.312-.787-.563-1.412c-.282-.875-.511-1.588-.673-2.1A4.672,4.672,0,0,0,240.4,234.943Z" transform="translate(-240.401 -234.943)"/></g><g transform="translate(13.147 28.204)"><path class="j" d="M223.75,280.407a.912.912,0,0,1,.627,1.1c-.23.91-.607,2.339-.909,3.214a2.311,2.311,0,0,1-.4.793.747.747,0,0,1-1.362-.387,2.373,2.373,0,0,1,.078-.934c.188-.849.533-2.124.834-3.163a.911.911,0,0,1,1.133-.621Z" transform="translate(-221.683 -280.369)"/><g transform="translate(1.449 1.479)"><path class="j" d="M226.457,283.169a.912.912,0,0,1,.627,1.1c-.23.91-.607,2.339-.909,3.214a2.317,2.317,0,0,1-.4.793.747.747,0,0,1-1.362-.387,2.376,2.376,0,0,1,.078-.934c.188-.848.534-2.123.834-3.163a.911.911,0,0,1,1.133-.621Z" transform="translate(-224.39 -283.132)"/></g><g transform="translate(3.126 2.371)"><path class="j" d="M229.311,284.831a.789.789,0,0,1,.543.951c-.2.788-.525,2.026-.787,2.783a2.009,2.009,0,0,1-.347.687.647.647,0,0,1-1.18-.335,2.066,2.066,0,0,1,.067-.809c.163-.734.462-1.839.722-2.739a.79.79,0,0,1,.981-.538Z" transform="translate(-227.522 -284.799)"/></g><g transform="translate(4.706 2.551)"><path class="j" d="M232.271,285.166a.793.793,0,0,1,.546.956c-.2.792-.528,2.035-.791,2.8a2.022,2.022,0,0,1-.349.69.65.65,0,0,1-1.185-.336,2.085,2.085,0,0,1,.068-.813c.164-.738.464-1.847.726-2.752a.793.793,0,0,1,.986-.54Z" transform="translate(-230.473 -285.134)"/></g><g transform="translate(1.543 1.816)"><path class="q" d="M224.583,287.1a11.079,11.079,0,0,1,1.055-3.342,11.077,11.077,0,0,1-1.055,3.342Z" transform="translate(-224.566 -283.762)"/></g><g transform="translate(4.562 3.008)"><path class="q" d="M230.218,289.354a21.691,21.691,0,0,1,1-3.366,7.532,7.532,0,0,1-1,3.366Z" transform="translate(-230.204 -285.988)"/></g><g transform="translate(3.069 2.813)"><path class="q" d="M227.429,288.989a21.514,21.514,0,0,1,1-3.365,7.55,7.55,0,0,1-1,3.365Z" transform="translate(-227.415 -285.624)"/></g></g></g><g transform="translate(33.4)"><path class="e" d="M269.543,207.345c.061.047-2.134,3.028-4.9,6.658s-5.063,6.536-5.124,6.489,2.133-3.027,4.9-6.658S269.481,207.3,269.543,207.345Z" transform="translate(-259.515 -207.344)"/><g transform="translate(3.656 8.495)"><path class="e" d="M287.082,223.215c.033.07-4.584,2.281-10.309,4.939s-10.4,4.756-10.428,4.686,4.583-2.281,10.311-4.939S287.05,223.144,287.082,223.215Z" transform="translate(-266.345 -223.213)"/></g><g transform="translate(7.584 24.748)"><path class="e" d="M288.351,255c-.008.077-3.3-.178-7.348-.569s-7.329-.77-7.322-.846,3.3.178,7.349.569S288.358,254.924,288.351,255Z" transform="translate(-273.681 -253.572)"/></g></g></g><g transform="translate(48.091 21.287)"><g transform="translate(1.484 3.432)"><path class="j" d="M143.247,264.89l3.635,20.666a6.8,6.8,0,0,0,7.66,5.5h0a6.73,6.73,0,0,0,5.782-7.733l-.591-3.556s5.085-1.379,4.554-6.485c-.255-2.462-1.2-7.484-2.109-12.025a9.741,9.741,0,0,0-11.138-7.617h0A9.508,9.508,0,0,0,143.247,264.89Z" transform="translate(-143.052 -253.517)"/><g transform="translate(9.72 25.139)"><g transform="translate(0)"><path class="q" d="M168.177,301.6a12.286,12.286,0,0,1-6.969-1.126s2.023,3.489,7.135,2.445Z" transform="translate(-161.208 -300.474)"/></g></g></g><g transform="translate(0)"><path class="e" d="M160.917,249.554a1.8,1.8,0,0,0-2.35.147,1.629,1.629,0,0,0-.454-2.141,2.76,2.76,0,0,0-2.342-.34,8.11,8.11,0,0,0-2.186,1.074.821.821,0,0,0-.362-.831,1.892,1.892,0,0,0-.919-.288,6.975,6.975,0,0,0-3.86.867,24.028,24.028,0,0,0-3.572,2.422h0a16.966,16.966,0,0,0-3.264,3.492l-.04.036a5.688,5.688,0,0,0-1.279,3.707c.422,3.672,1.639,5.8,2.325,9.28a1.244,1.244,0,0,0,.262.646c.425.441,1.185.068,1.586-.395a6.569,6.569,0,0,0,1.359-4.137c.048-1.477-.161-2.952-.128-4.429l0-.1a7.8,7.8,0,0,1,.108-1.129,3.713,3.713,0,0,1,2.719-2.694c2.152-.366,6.4,1.723,8.5,1.39s2.212-1.817,2.212-1.817l1.237,2.516a7.563,7.563,0,0,0,.2-3.143,3.553,3.553,0,0,0,1.044-1.835A2.357,2.357,0,0,0,160.917,249.554Z" transform="translate(-140.279 -247.107)"/></g><g transform="translate(0.492 16.944)"><path class="j" d="M144.407,278.814c-.093-.028-3.678-.634-3.158,2.839s3.952,2.243,3.943,2.143S144.407,278.814,144.407,278.814Z" transform="translate(-141.198 -278.757)"/><g transform="translate(0.93 1.222)"><path class="q" d="M144.726,283.7c-.017-.009-.055.051-.152.113a.633.633,0,0,1-.458.076,1.515,1.515,0,0,1-.9-1.241,1.98,1.98,0,0,1,.042-.891.708.708,0,0,1,.392-.532.319.319,0,0,1,.388.113c.062.09.05.163.069.167s.067-.069.017-.209a.393.393,0,0,0-.171-.2.478.478,0,0,0-.353-.039.863.863,0,0,0-.561.632,2.038,2.038,0,0,0-.068,1,1.594,1.594,0,0,0,1.12,1.37.673.673,0,0,0,.548-.173C144.732,283.782,144.739,283.7,144.726,283.7Z" transform="translate(-142.935 -281.04)"/></g></g></g><g transform="translate(246.856 25.339)"><path class="r" d="M545.929,255.6s-4.747.33-8.252,8.879c-3.535,8.623,4.371,8.538,1.708,14.032s3.834,8.771,5.806,13.269,11.914,15.348,12.7,20.3,9.626-5.145,9.626-5.145,8.984-9.584,5.763-15.152c-5.31-9.177-.71-11.171-.876-16.3S562.51,250.158,545.929,255.6Z" transform="translate(-491.128 -254.675)"/><path class="s" d="M508.4,313.688s-18.379,8.01-21.87,7.858-25-6.553-25-6.553l.548,3.7s16.6,9.549,22.407,10.09c5.714.534,25.254-5.129,27.141-6.324S513.879,314.9,508.4,313.688Z" transform="translate(-456.173 -282.095)"/><path class="t" d="M546.311,312.583a18.5,18.5,0,0,0,6.467,2.752c9.967,2.3,13.786-6.121,15.221-11.9a8.565,8.565,0,0,0-3.376-1.038c-.721-.085-1.478-.141-2.105-.172-1.119-.858-2.787-4.366-3.156-9.813l-.469.126-7.855,2.15s.36,2.5.536,4.857c.136,1.847.376,2.919.026,3.351a2.685,2.685,0,0,0-1.2.913.015.015,0,0,1,0,.008A50.591,50.591,0,0,0,546.311,312.583Z" transform="translate(-495.57 -272.208)"/><path class="u" d="M555.137,294.8s.361,2.5.536,4.857c4.45-.445,6.516-4.683,7.32-7.007Z" transform="translate(-499.671 -272.319)"/><path class="t" d="M548.836,285.3s10.563-.583,10.1-7.156.587-11.074-6.177-10.98-7.9,2.694-8.274,4.926S546.077,285.281,548.836,285.3Z" transform="translate(-494.699 -260.477)"/><path class="f" d="M565.411,341.617c.955-4.876,4.064-24.359.955-30.629-1.117-2.252-5.5-2.455-10.31-2.258-1.5.966-7.2,4.617-9.541,4.161-.025,0-.071-.016-.131-.031a1.351,1.351,0,0,1-.381-2.412s-2.6.464-5.558,1.02c-1.671.315-6.177,2.646-6.177,2.646s2.269,4.1,5.615,5.515c-.569,5.09.277,7.335,5.557,19.091,4.462,9.937-.6,18.884-.6,18.884s26.265,21.118,26.412,10.365C571.361,359.876,564.192,347.849,565.411,341.617Z" transform="translate(-489.975 -279.765)"/><path d="M530.255,392.827a4.884,4.884,0,0,1-3.513-2.139q-.19-.284-.406-.611c-2.99-4.526-4.153-18.387-10.878-33.153-1.638-3.595-7.518-4.242-9.121-8.305,0,0-3.946-13.172,7.553-13.56s30.8,36.65,31.1,40.535C545.287,379.355,552.594,395.347,530.255,392.827Z" transform="translate(-476.692 -292.023)"/><path class="f" d="M466.209,435.033h16.367a6.8,6.8,0,0,0-.463-4.387c-.951-1.572-.587-2.467.118-3.768a6.358,6.358,0,0,1-2.757.519,5.765,5.765,0,0,1-2.434-.856,59.019,59.019,0,0,1-4.663,4.9C471.308,432.209,466.538,431.936,466.209,435.033Z" transform="translate(-458.351 -334.533)"/><path class="f" d="M567.739,322.537s2.13,19.381-11.685,23.442-17.737-17.832-6.582-19.407A107.358,107.358,0,0,0,567.739,322.537Z" transform="translate(-494.028 -286.207)"/><path d="M495.777,338.413c-.986,7.388-4.834,30.709-11.623,42.087-2.189,3.668,5.515,5.724,5.556,5.713,1.033-.27,2.754-1.918,3.547-2.632,5.512-4.968,16.7-19.033,16.7-30.31,0-5.5.1-16-3.9-18.668C503.595,332.959,496.169,335.479,495.777,338.413Z" transform="translate(-466.507 -291.572)"/><path class="o" d="M548.5,391.794s-.607-.844-1.664-2.447c-1.259-1.906-2.651-5.658-4.341-10.468-1.775-5.048-3.881-11.26-6.513-17.723-.812-1.995-1.675-4.014-2.592-6.03-1.638-3.595-6.144-3.1-7.748-7.163,0,0-6.256-14.088,5.244-14.477s33.35,37.687,34.606,41.375C566.864,378.9,573.57,395.662,548.5,391.794Z" transform="translate(-485.176 -291.294)"/><path class="f" d="M488.651,435.033h16.367a6.8,6.8,0,0,0-.463-4.387c-.951-1.572-.587-2.467.118-3.768a6.357,6.357,0,0,1-2.757.519,5.76,5.76,0,0,1-2.434-.856,58.917,58.917,0,0,1-4.664,4.9C493.75,432.209,488.98,431.936,488.651,435.033Z" transform="translate(-468.779 -334.533)"/><path class="o" d="M552.941,393.431c-1.775-5.048-3.881-11.26-6.513-17.723.687-4.9,2.17-9.18,4.663-10.906C551.091,364.8,557.139,383.539,552.941,393.431Z" transform="translate(-495.625 -305.845)"/><path class="o" d="M515.759,338.144c-.985,7.388-2.373,31.232-9.163,42.61-2.189,3.668,5.515,5.724,5.556,5.713,1.033-.27,2.754-1.918,3.548-2.632,5.511-4.968,16.7-19.033,16.7-30.31,0-5.5-6.453-15.558-10.451-18.227A4.022,4.022,0,0,0,515.759,338.144Z" transform="translate(-476.935 -291.826)"/><path class="v" d="M470.793,303.265s-.838-2.13-2.364-1.992-15.385,1.992-15.385,1.992a3.938,3.938,0,0,1,2.222,1.444l6.394,18.839h16.4Z" transform="translate(-452.234 -276.324)"/><path class="w" d="M543.935,313s-23.23,8.555-26.721,8.379c-2.256-.113-21.009-6.7-21.009-6.7l-1.683,3.184s18.252,11.731,23.27,11.673c9.907-.115,26.623-6.2,28.509-7.391S549.417,314.209,543.935,313Z" transform="translate(-471.506 -281.775)"/><path class="w" d="M487.21,313.809s-1.683-2.591-3.359-2.667-4.572,1.143-5.562,1.334-3.81,1.105-2.972,2.476,4.724,1.677,6.4,1.372a7.77,7.77,0,0,1,3.81.67Z" transform="translate(-462.511 -280.911)"/><path class="w" d="M488.776,309.961s-2.666-1.223-3.428-1.451-.61,0-.381.726,1.6,1.411,1.6,1.638S488.776,309.961,488.776,309.961Z" transform="translate(-466.98 -279.65)"/><path class="n" d="M548.961,293.774a9.76,9.76,0,0,1,3.809-.167s-.149,1.1-2.222,1.2A1.654,1.654,0,0,1,548.961,293.774Z" transform="translate(-496.801 -272.732)"/><path class="f" d="M564.465,316.75a12.764,12.764,0,0,0,9.213,8.074s11.783-3.63,5.916-11.658C579.595,313.166,573.794,308.856,564.465,316.75Z" transform="translate(-504.005 -281.307)"/><path class="x" d="M452.341,303.281s-1.54.589-.374,2.587l14.983-2s-.52-2.316.656-2.569Z" transform="translate(-451.53 -276.34)"/><path class="s" d="M460.661,311.779c.355-1.424.334-1.768-.472-2.638-.532-.574-1.346.851-1.768,1.711a4.345,4.345,0,0,0-.507-1.028,9.893,9.893,0,0,0,.179,1.914h0a1.873,1.873,0,0,0-.01.246v0a4.152,4.152,0,0,0,2.182,4.435l-.54-1.587C460.054,314.774,460.3,313.226,460.661,311.779Z" transform="translate(-454.482 -279.921)"/><path class="r" d="M549.306,266.552a2.673,2.673,0,0,1,3.305,1.495c1.078,2.275,1.421,7.713,5.744,8.157s4.491-9.211,4.491-9.211l-10.821-4.273-5.714,3.607Z" transform="translate(-495.57 -258.413)"/><path class="r" d="M547.1,268.858s-2.439.052-3,2.105.313,5.882-1.038,6.16-2.577-6.381.034-8.546S547.1,268.858,547.1,268.858Z" transform="translate(-493.367 -260.719)"/></g></g></g></svg>