<svg xmlns="http://www.w3.org/2000/svg" width="237.828" height="164.436" viewBox="0 0 237.828 164.436"><defs><style>.a,.k{fill:none;stroke-linecap:round;stroke-linejoin:round;}.a{stroke:#e7f1fd;}.b{fill:#2a5798;}.c{fill:#f8d9c9;}.d{fill:#d1e5ff;}.e{fill:#f0b08e;}.e,.l{opacity:0.49;}.f{fill:#f4c5ac;opacity:0.38;}.g{fill:#f5d4c3;}.h{fill:#c7cdea;}.i{fill:#b8d7ff;}.j{fill:#fff;}.k{stroke:#2a5798;}.l{fill:#dba7a7;}.m{fill:#e7f1fd;}.n{fill:#f0f3ff;}.o{fill:#1d1d1b;}</style></defs><path class="a" d="M0,0S33.659,52.81,24.231,100.853" transform="translate(203.071 46.058)"/><path class="b" d="M1.679,0,0,24.614l71.6,1.679L67.678,4.478Z" transform="translate(68.717 115.774)"/><path class="b" d="M0,0,3.294,21.738H56L52.05,0Z" transform="translate(80.692 139.026)"/><path class="c" d="M30.206,0s2.239,10.607-1.679,13.424C23.977,16.676,14.543,17.9,7.272,27.407A36.488,36.488,0,0,0,0,47.542l16.776,8.391v11.2l45.869-3.948v-11.2s7.831-7.272,11.2-12.3c0,0-1.52-13.2-20.035-19.287A5.663,5.663,0,0,1,50.1,16.511l.265-5.356Z" transform="translate(67.598 74.389)"/><path class="d" d="M46.142,39.545S33.455,48.266,31.7,43.452,44.7,34.937,44.7,34.937s-3.377-15.91-11.2-22.522c0,0-5.893,11.473-11.644,9.876S31.127,8.538,31.127,8.538s-9.464-9.546-19.3-8.45S-2.355,16.434,1.263,25.232c0,0,7.961-3.724,13.07-1.179s-11.108,5.7-11.108,5.7-.766,7.207,4.213,16.01c0,0,8.8-4.979,12.145-4.543s-9.14,10.2-9.14,10.2,7.778,14.749,23.748,20.053C34.191,71.472,46.7,56.269,46.142,39.545ZM22.53,57.365c-.265-1.367,1.426-2.121,1.426-2.121,1.632.389,1.3,1.585,1.137,2.186s-2.292,1.3-2.557-.065Z" transform="translate(191.668 31.922)"/><path class="e" d="M0,0S2.834,10.489,19.1,8.78a4.361,4.361,0,0,1-.813-2c0-.884.159-3.459.159-3.459Z" transform="translate(99.401 83.906)"/><path class="c" d="M6.819,17.959s-.56-3.353-3.353-3.353S-1.007,20.2.667,24.671,5.7,25.791,5.7,25.791s0,7.831,5.592,11.2,13.983,2.8,18.456-6.152,2.887-20.2-1.679-26.287C23.035-2.164,13.524.075,11.291,1.749S6.259,5.1,6.819,17.959Z" transform="translate(92.106 49.689)"/><path class="f" d="M3.93,2.325a2.44,2.44,0,0,0-.619-1.6A1.656,1.656,0,0,0,1,.3C-.318,1.176-.684,7.01,2.115,7.01s0-2.8,1.12-3.359a1.379,1.379,0,0,0,.7-1.326Z" transform="translate(94.015 66.79)"/><path class="b" d="M24.649,0S27.4,10.059,37.472,12.852s15.215-4.184,15.439-8.8c0,0,7.737,2.8,11.408,5.445s8.951,7.272,10.607,14.543c0,0-6.152,7.831-11.744,12.3v11.2L17.336,53.682V40.259L0,31.868s1.12-13.983,6.152-20.7C12.917,2.139,24.649,0,24.649,0Z" transform="translate(67.044 90.058)"/><path class="c" d="M0,1.457S0,24.391.56,29.983s3.913,11.2,8.951,12.3,21.8-3.353,25.168-4.473,15.663-5.592,15.663-5.592S48.1,25.511,43.63,23.272c0,0-3.913.56-12.3,1.679s-8.951.56-13.983,1.12l-1.12-17.9S10.065-4.135,0,1.457Z" transform="translate(68.164 115.437)"/><path class="b" d="M0,15.1s4.172,8.556,17.743,8.2l1.833-11.55L11.184,0,6.152.56l-4.4,4.249Z" transform="translate(67.044 106.835)"/><path class="c" d="M4.278,11.121a2.145,2.145,0,0,1,.23-.035l.118-.047C9.1,9.6,13.754,8.959,18.326,7.928c-.13-3.536-.684-6.977-2.1-7.543C13.424-.735,0,.945,0,.945l.56,11.2Z" transform="translate(111.229 137.757)"/><path class="g" d="M0,0S5.032,7.272,6.712,9.511a17.34,17.34,0,0,1,2.8,6.152c0,.56-3.353,0-5.592-3.353-2.357-3.536-2.8-2.8-2.8-2.8Z" transform="translate(128.004 138.708)"/><path class="h" d="M.046,43.435,12.856.719A1.014,1.014,0,0,1,13.829,0h59.4A1.014,1.014,0,0,1,74.2,1.308L61.948,41.785a1.014,1.014,0,0,1-.972.719L1.036,44.749a1.014,1.014,0,0,1-.99-1.314Z" transform="translate(120.527 110.182)"/><path class="i" d="M2.015,0h83V2.239H0V2A2,2,0,0,1,2.015,0Z" transform="translate(98.923 154.371)"/><path class="h" d="M2.015,0H23.506V2.239H0V2A2,2,0,0,1,2.015,0Z" transform="translate(98.923 154.371)"/><path class="h" d="M.53,0,2.169,1.632l-1.615.79L0,.742Z" transform="translate(194.008 110.559)"/><path class="d" d="M.046,41.19,12.291.719A1.014,1.014,0,0,1,13.263,0h59.4a1.014,1.014,0,0,1,.972,1.308L61.389,41.785a1.014,1.014,0,0,1-.972.719H1.012A1.014,1.014,0,0,1,.046,41.19Z" transform="translate(122.767 111.867)"/><path class="j" d="M6.706,3.076A3.223,3.223,0,0,1,3.353,6.152,3.223,3.223,0,0,1,0,3.076,3.223,3.223,0,0,1,3.353,0,3.223,3.223,0,0,1,6.706,3.076Z" transform="matrix(0.314, -0.949, 0.949, 0.314, 157.32, 136.458)"/><path class="k" d="M0,0S3.229,15.616,20.33,15.616c15.321,0,14.231-11.974,14.231-11.974" transform="translate(88.205 91.567)"/><path class="k" d="M0,0S7.767,3.671,7.177,17.224l-.589,15.91" transform="translate(78.376 97.023)"/><path class="k" d="M0,0A28.09,28.09,0,0,1,2.3,13.453" transform="translate(129.754 99.009)"/><path class="l" d="M4.125,0,0,5.3,4.125,3.536Z" transform="translate(81.133 138.119)"/><path class="d" d="M0,0H203.587V7.831H0Z" transform="translate(22.855 156.604)"/><path class="m" d="M0,0H29.086V40.271H0Z" transform="translate(140.873 27.967)"/><path class="d" d="M0,0H29.086V40.271H0Z" transform="translate(150.378 37.472)"/><path class="m" d="M0,0H29.086V40.271H0Z" transform="translate(159.889 46.982)"/><path class="n" d="M0,0H24.048V1.65H0Z" transform="translate(162.683 50.895)"/><path class="n" d="M0,0H24.048V1.65H0Z" transform="translate(162.683 54.743)"/><path class="n" d="M0,0H24.048V1.65H0Z" transform="translate(162.683 58.597)"/><path class="n" d="M0,0H24.048V1.65H0Z" transform="translate(162.683 62.445)"/><path class="n" d="M0,0H12.864V1.65H0Z" transform="translate(162.683 66.293)"/><path class="n" d="M0,0H24.048V1.65H0Z" transform="translate(162.683 70.141)"/><path class="n" d="M0,0H24.048V1.65H0Z" transform="translate(162.683 73.989)"/><path class="n" d="M0,0H24.048V1.65H0Z" transform="translate(162.683 77.836)"/><path class="n" d="M0,0H24.048V1.65H0Z" transform="translate(162.683 81.69)"/><path class="m" d="M3.754,0H29.817a3.748,3.748,0,0,1,3.748,3.748V22.369H3.754A3.748,3.748,0,0,1,0,18.609V3.748A3.748,3.748,0,0,1,3.754,0Z" transform="translate(55.853 12.304)"/><path class="j" d="M2.982,1.491A1.491,1.491,0,1,1,1.491,0,1.491,1.491,0,0,1,2.982,1.491Z" transform="translate(65.925 22.557)"/><path class="j" d="M2.982,1.491A1.491,1.491,0,1,1,1.491,0,1.491,1.491,0,0,1,2.982,1.491Z" transform="translate(71.146 22.557)"/><path class="j" d="M2.982,1.491A1.491,1.491,0,1,1,1.491,0,1.491,1.491,0,0,1,2.982,1.491Z" transform="translate(76.366 22.557)"/><path class="m" d="M12.2,0V11.349L0,6.317Z" transform="translate(77.215 28.362)"/><path class="d" d="M0,0H30.2V19.039H0Z" transform="translate(38.517 60.671)"/><path class="m" d="M0,0,14.443,8.539,30.2,0Z" transform="translate(38.517 60.671)"/><path class="b" d="M1.674.837A.837.837,0,1,1,.837,0,.837.837,0,0,1,1.674.837Z" transform="translate(190.089)"/><path class="b" d="M1.674.837A.837.837,0,1,1,.837,0,.837.837,0,0,1,1.674.837Z" transform="translate(201.281)"/><path class="b" d="M1.674.837A.837.837,0,1,1,.837,0,.837.837,0,0,1,1.674.837Z" transform="translate(212.465)"/><path class="b" d="M1.674.837A.837.837,0,1,1,.837,0,.837.837,0,0,1,1.674.837Z" transform="translate(223.649)"/><path class="b" d="M1.674.837A.837.837,0,1,1,.837,0,.837.837,0,0,1,1.674.837Z" transform="translate(234.839)"/><path class="b" d="M1.674.837A.837.837,0,1,1,.837,0,.837.837,0,0,1,1.674.837Z" transform="translate(190.089 7.271)"/><path class="b" d="M1.674.837A.837.837,0,1,1,.837,0,.837.837,0,0,1,1.674.837Z" transform="translate(201.281 7.271)"/><path class="b" d="M1.674.837A.837.837,0,1,1,.837,0,.837.837,0,0,1,1.674.837Z" transform="translate(212.465 7.271)"/><path class="b" d="M1.674.837A.837.837,0,1,1,.837,0,.837.837,0,0,1,1.674.837Z" transform="translate(223.649 7.271)"/><path class="b" d="M1.674.837A.837.837,0,1,1,.837,0,.837.837,0,0,1,1.674.837Z" transform="translate(234.839 7.271)"/><path class="b" d="M1.674.837A.837.837,0,1,1,.837,0,.837.837,0,0,1,1.674.837Z" transform="translate(190.089 14.543)"/><path class="b" d="M1.674.837A.837.837,0,1,1,.837,0,.837.837,0,0,1,1.674.837Z" transform="translate(201.281 14.543)"/><path class="b" d="M1.674.837A.837.837,0,1,1,.837,0,.837.837,0,0,1,1.674.837Z" transform="translate(212.465 14.543)"/><path class="b" d="M1.674.837A.837.837,0,1,1,.837,0,.837.837,0,0,1,1.674.837Z" transform="translate(223.649 14.543)"/><path class="b" d="M1.674.837A.837.837,0,1,1,.837,0,.837.837,0,0,1,1.674.837Z" transform="translate(234.839 14.543)"/><path class="b" d="M1.674.837A.837.837,0,1,1,.837,0,.837.837,0,0,1,1.674.837Z" transform="translate(190.089 21.815)"/><path class="b" d="M1.674.837A.837.837,0,1,1,.837,0,.837.837,0,0,1,1.674.837Z" transform="translate(201.281 21.815)"/><path class="b" d="M1.674.837A.837.837,0,1,1,.837,0,.837.837,0,0,1,1.674.837Z" transform="translate(212.465 21.815)"/><path class="b" d="M1.674.837A.837.837,0,1,1,.837,0,.837.837,0,0,1,1.674.837Z" transform="translate(223.649 21.815)"/><path class="b" d="M1.674.837A.837.837,0,1,1,.837,0,.837.837,0,0,1,1.674.837Z" transform="translate(234.839 21.815)"/><path class="b" d="M1.674.837A.837.837,0,1,1,.837,0,.837.837,0,0,1,1.674.837Z" transform="translate(190.089 29.086)"/><path class="b" d="M1.674.837A.837.837,0,1,1,.837,0,.837.837,0,0,1,1.674.837Z" transform="translate(201.281 29.086)"/><path class="b" d="M1.674.837A.837.837,0,1,1,.837,0,.837.837,0,0,1,1.674.837Z" transform="translate(212.465 29.086)"/><path class="b" d="M1.674.837A.837.837,0,1,1,.837,0,.837.837,0,0,1,1.674.837Z" transform="translate(223.649 29.086)"/><path class="b" d="M1.674.837A.837.837,0,1,1,.837,0,.837.837,0,0,1,1.674.837Z" transform="translate(234.839 29.086)"/><path class="b" d="M1.674.837A.837.837,0,1,1,.837,0,.837.837,0,0,1,1.674.837Z" transform="translate(0 121.491)"/><path class="b" d="M1.674.837A.837.837,0,1,1,.837,0,.837.837,0,0,1,1.674.837Z" transform="translate(11.184 121.491)"/><path class="b" d="M1.674.837A.837.837,0,1,1,.837,0,.837.837,0,0,1,1.674.837Z" transform="translate(22.37 121.491)"/><path class="b" d="M1.674.837A.837.837,0,1,1,.837,0,.837.837,0,0,1,1.674.837Z" transform="translate(33.559 121.491)"/><path class="b" d="M1.674.837A.837.837,0,1,1,.837,0,.837.837,0,0,1,1.674.837Z" transform="translate(44.744 121.491)"/><path class="b" d="M1.674.837A.837.837,0,1,1,.837,0,.837.837,0,0,1,1.674.837Z" transform="translate(0 128.763)"/><path class="b" d="M1.674.837A.837.837,0,1,1,.837,0,.837.837,0,0,1,1.674.837Z" transform="translate(11.184 128.763)"/><path class="b" d="M1.674.837A.837.837,0,1,1,.837,0,.837.837,0,0,1,1.674.837Z" transform="translate(22.37 128.763)"/><path class="b" d="M1.674.837A.837.837,0,1,1,.837,0,.837.837,0,0,1,1.674.837Z" transform="translate(33.559 128.763)"/><path class="b" d="M1.674.837A.837.837,0,1,1,.837,0,.837.837,0,0,1,1.674.837Z" transform="translate(44.744 128.763)"/><path class="b" d="M1.674.837A.837.837,0,1,1,.837,0,.837.837,0,0,1,1.674.837Z" transform="translate(0 136.034)"/><path class="b" d="M1.674.837A.837.837,0,1,1,.837,0,.837.837,0,0,1,1.674.837Z" transform="translate(11.184 136.034)"/><path class="b" d="M1.674.837A.837.837,0,1,1,.837,0,.837.837,0,0,1,1.674.837Z" transform="translate(22.37 136.034)"/><path class="b" d="M1.674.837A.837.837,0,1,1,.837,0,.837.837,0,0,1,1.674.837Z" transform="translate(33.559 136.034)"/><path class="b" d="M1.674.837A.837.837,0,1,1,.837,0,.837.837,0,0,1,1.674.837Z" transform="translate(44.744 136.034)"/><path class="b" d="M1.674.837A.837.837,0,1,1,.837,0,.837.837,0,0,1,1.674.837Z" transform="translate(0 143.306)"/><path class="b" d="M1.674.837A.837.837,0,1,1,.837,0,.837.837,0,0,1,1.674.837Z" transform="translate(11.184 143.306)"/><path class="b" d="M1.674.837A.837.837,0,1,1,.837,0,.837.837,0,0,1,1.674.837Z" transform="translate(22.37 143.306)"/><path class="b" d="M1.674.837A.837.837,0,1,1,.837,0,.837.837,0,0,1,1.674.837Z" transform="translate(33.559 143.306)"/><path class="b" d="M1.674.837A.837.837,0,1,1,.837,0,.837.837,0,0,1,1.674.837Z" transform="translate(44.744 143.306)"/><path class="b" d="M1.674.837A.837.837,0,1,1,.837,0,.837.837,0,0,1,1.674.837Z" transform="translate(0 150.577)"/><path class="b" d="M1.674.837A.837.837,0,1,1,.837,0,.837.837,0,0,1,1.674.837Z" transform="translate(11.184 150.577)"/><path class="b" d="M1.674.837A.837.837,0,1,1,.837,0,.837.837,0,0,1,1.674.837Z" transform="translate(22.37 150.577)"/><path class="b" d="M1.674.837A.837.837,0,1,1,.837,0,.837.837,0,0,1,1.674.837Z" transform="translate(33.559 150.577)"/><path class="b" d="M1.674.837A.837.837,0,1,1,.837,0,.837.837,0,0,1,1.674.837Z" transform="translate(44.744 150.577)"/><path class="o" d="M17.057,7.551a.5.5,0,0,0-.18.128.546.546,0,0,0-.114.2.575.575,0,0,0-.026.23.566.566,0,0,0,.067.22A14.571,14.571,0,0,1,18.423,12.5s1.125.853-3.035,1.693S1.653,16.41.2,20.1c-1.416,3.6,4.862,12.926,10.447,5.857a.507.507,0,0,1,.182-.146.473.473,0,0,1,.442.019.515.515,0,0,1,.17.161c.812,1.246,2.975,3.861,6.192,2.5a5.07,5.07,0,0,0,3.455-4.742.567.567,0,0,1,.051-.232.53.53,0,0,1,.14-.185.486.486,0,0,1,.2-.1.467.467,0,0,1,.222,0,5.6,5.6,0,0,0,6.888-3.048c1.517-3.173.7-5.053-.076-5.991a.55.55,0,0,1-.116-.243.572.572,0,0,1,.011-.273.542.542,0,0,1,.135-.232.491.491,0,0,1,.224-.13c1-.274,2.3-1.1,2.279-3.57-.028-3.411-3.591-3.289-4.609-3.184a.472.472,0,0,1-.24-.037.506.506,0,0,1-.2-.153C25.181,5.3,21.464.74,17.259.005a.474.474,0,0,0-.246.028.506.506,0,0,0-.2.149A.556.556,0,0,0,16.7.418a.579.579,0,0,0,0,.265l1.58,5.788a.573.573,0,0,1-.038.394.515.515,0,0,1-.279.26Z" transform="matrix(-0.883, -0.47, 0.47, -0.883, 115.42, 76.254)"/></svg>