<svg xmlns="http://www.w3.org/2000/svg" width="174.479" height="51.027" viewBox="0 0 174.479 51.027"><defs><style>.a{fill:#2a5798;}.b{fill:#f6b333;}</style></defs><path class="a" d="M13.3,3.017a1.57,1.57,0,0,0,1.118-.407,1.4,1.4,0,0,0,.334-.487,1.421,1.421,0,0,0,.106-.583,1.5,1.5,0,0,0-.1-.606,1.478,1.478,0,0,0-.337-.511A1.551,1.551,0,0,0,13.9.1a1.532,1.532,0,0,0-.6-.1H1.582A1.537,1.537,0,0,0,.977.11,1.542,1.542,0,0,0,.11.978,1.573,1.573,0,0,0,0,1.607V19.451a1.611,1.611,0,0,0,.115.619,1.59,1.59,0,0,0,.342.525,1.56,1.56,0,0,0,.516.348,1.539,1.539,0,0,0,.608.117H13.3a1.532,1.532,0,0,0,.6-.1,1.551,1.551,0,0,0,.52-.325,1.478,1.478,0,0,0,.337-.511,1.5,1.5,0,0,0,.1-.606,1.421,1.421,0,0,0-.105-.585,1.4,1.4,0,0,0-.334-.488,1.57,1.57,0,0,0-1.118-.407H3.164V11.953H10.37a1.554,1.554,0,0,0,1.1-.42,1.511,1.511,0,0,0,.333-.5,1.533,1.533,0,0,0,0-1.176,1.511,1.511,0,0,0-.333-.5,1.554,1.554,0,0,0-1.1-.42H3.164V3.017Z" transform="translate(56.527 29.272)"/><path class="a" d="M14.324.437a1.645,1.645,0,0,0-2.234,0,1.533,1.533,0,0,0-.338.526,1.553,1.553,0,0,0-.1.62V8.076A6.689,6.689,0,0,0,3.366,7.049,6.881,6.881,0,0,0,.9,9.762,8.25,8.25,0,0,0,0,13.6,7.8,7.8,0,0,0,.965,17.45a7.137,7.137,0,0,0,2.667,2.725,7.345,7.345,0,0,0,3.759.994,7.135,7.135,0,0,0,3.693-.97,7.29,7.29,0,0,0,2.693-2.746,7.718,7.718,0,0,0,.986-3.851V1.581a1.587,1.587,0,0,0-.1-.617,1.567,1.567,0,0,0-.335-.526ZM11.178,16.019a4.293,4.293,0,0,1-1.562,1.689h0a4.353,4.353,0,0,1-4.451,0A4.381,4.381,0,0,1,3.59,16.019,5.041,5.041,0,0,1,3.01,13.6a4.98,4.98,0,0,1,.58-2.4A4.409,4.409,0,0,1,5.165,9.524,4.267,4.267,0,0,1,11.178,11.2a5.062,5.062,0,0,1,.569,2.4,5.137,5.137,0,0,1-.569,2.417Z" transform="translate(71.329 29.283)"/><path class="a" d="M13.339.443a1.645,1.645,0,0,0-2.234,0,1.533,1.533,0,0,0-.338.526,1.553,1.553,0,0,0-.1.62V9.02A2.814,2.814,0,0,1,10.2,10.6a3.31,3.31,0,0,1-1.318,1.132A4.153,4.153,0,0,1,7,12.158,3.914,3.914,0,0,1,4.17,11.131,4.081,4.081,0,0,1,3.116,8.075V1.582A1.6,1.6,0,0,0,2.66.463a1.538,1.538,0,0,0-2.2,0A1.6,1.6,0,0,0,0,1.582V8.06a7.969,7.969,0,0,0,.833,3.764,5.783,5.783,0,0,0,2.324,2.4,7.049,7.049,0,0,0,5.85.342,6.082,6.082,0,0,0,1.663-1,1.513,1.513,0,0,0,.439.893,1.608,1.608,0,0,0,2.241,0,1.566,1.566,0,0,0,.33-.514,1.587,1.587,0,0,0,.11-.6V1.582a1.587,1.587,0,0,0-.1-.617,1.566,1.566,0,0,0-.335-.526Z" transform="translate(87.608 35.419)"/><path class="a" d="M7.259,2.851a4.18,4.18,0,0,1,1.659.31,3.918,3.918,0,0,1,1.329.981,1.541,1.541,0,0,0,.532.411,1.516,1.516,0,0,0,.654.143,1.231,1.231,0,0,0,.729-.223,1.376,1.376,0,0,0,.487-.5,1.4,1.4,0,0,0,.185-.676,1.231,1.231,0,0,0-.316-.842A6.708,6.708,0,0,0,10.163.622,6.6,6.6,0,0,0,7.259,0,7.34,7.34,0,0,0,3.514.968a6.762,6.762,0,0,0-2.59,2.7A8.175,8.175,0,0,0,0,7.566,7.883,7.883,0,0,0,.95,11.412a6.979,6.979,0,0,0,2.636,2.714,7.453,7.453,0,0,0,3.8.981,6.785,6.785,0,0,0,4.833-1.836,1.217,1.217,0,0,0,.279-.4,1.235,1.235,0,0,0,.1-.48,1.487,1.487,0,0,0-.164-.638,1.461,1.461,0,0,0-.423-.5,1.51,1.51,0,0,0-1.924.138,4.051,4.051,0,0,1-2.7.867,4.337,4.337,0,0,1-2.278-.6A4.131,4.131,0,0,1,3.568,10a5.208,5.208,0,0,1-.556-2.432A4.9,4.9,0,0,1,4.195,4.131a4.019,4.019,0,0,1,1.4-.976,3.962,3.962,0,0,1,1.668-.3Z" transform="translate(102.509 35.341)"/><path class="a" d="M11.127.994A7.211,7.211,0,0,0,7.393,0,7.347,7.347,0,0,0,3.632.994,7.142,7.142,0,0,0,.965,3.726,7.8,7.8,0,0,0,0,7.572a8.245,8.245,0,0,0,.9,3.842,6.881,6.881,0,0,0,2.469,2.714,6.625,6.625,0,0,0,8.275-1.03v.353a1.607,1.607,0,0,0,.1.624,1.587,1.587,0,0,0,.333.534,1.557,1.557,0,0,0,.512.359,1.534,1.534,0,0,0,1.219,0,1.557,1.557,0,0,0,.512-.359,1.587,1.587,0,0,0,.333-.534,1.607,1.607,0,0,0,.1-.624V7.572a7.721,7.721,0,0,0-.978-3.848A7.314,7.314,0,0,0,11.127.994Zm.053,8.974a4.315,4.315,0,0,1-1.562,1.675h0a4.353,4.353,0,0,1-4.451,0A4.4,4.4,0,0,1,3.592,9.967a4.966,4.966,0,0,1-.58-2.4A5.043,5.043,0,0,1,3.6,5.158,4.386,4.386,0,0,1,5.176,3.469a4.225,4.225,0,0,1,4.908.327,4.336,4.336,0,0,1,1.1,1.361,5.141,5.141,0,0,1,.569,2.419,5.059,5.059,0,0,1-.578,2.4Z" transform="translate(115.739 35.337)"/><path class="a" d="M9.052,16.979a1.254,1.254,0,0,0-.433-.332,1.235,1.235,0,0,0-.531-.115H7.209a1.485,1.485,0,0,1-.683-.163,1.511,1.511,0,0,1-.536-.46,2.484,2.484,0,0,1-.518-1.615V8.018H7.448a1.466,1.466,0,0,0,1.041-.38A1.266,1.266,0,0,0,8.8,7.2a1.285,1.285,0,0,0,.1-.528,1.346,1.346,0,0,0-.1-.555,1.327,1.327,0,0,0-.315-.464,1.466,1.466,0,0,0-1.041-.38H5.471V1.72A1.588,1.588,0,0,0,5.4,1.075a1.57,1.57,0,0,0-.32-.561,1.539,1.539,0,0,0-.517-.38,1.515,1.515,0,0,0-1.248,0A1.539,1.539,0,0,0,2.8.515a1.57,1.57,0,0,0-.32.561,1.588,1.588,0,0,0-.069.645V5.278H1.453a1.464,1.464,0,0,0-1.039.38A1.327,1.327,0,0,0,.1,6.121a1.346,1.346,0,0,0-.1.555A1.283,1.283,0,0,0,.1,7.2a1.264,1.264,0,0,0,.31.437,1.464,1.464,0,0,0,1.041.38h.958v6.272a5.887,5.887,0,0,0,.619,2.729,4.907,4.907,0,0,0,1.729,1.923,4.464,4.464,0,0,0,2.445.708h.466a1.856,1.856,0,0,0,1.252-.424,1.418,1.418,0,0,0,.383-.505,1.441,1.441,0,0,0,.127-.625,1.625,1.625,0,0,0-.384-1.117Z" transform="translate(129.929 30.701)"/><path class="a" d="M1.974,0A1.939,1.939,0,0,0,.726.444,2,2,0,0,0,.04,1.593,2.022,2.022,0,0,0,.227,2.924,1.972,1.972,0,0,0,1.2,3.83a1.929,1.929,0,0,0,1.32.07,1.962,1.962,0,0,0,1.063-.8A2.017,2.017,0,0,0,3.345.583,1.877,1.877,0,0,0,2.718.148,1.851,1.851,0,0,0,1.974,0Z" transform="translate(139.431 30.217)"/><path class="a" d="M1.539,0A1.515,1.515,0,0,0,.946.112,1.5,1.5,0,0,0,.1.973a1.553,1.553,0,0,0-.1.62V13.321a1.627,1.627,0,0,0,.278.875,1.587,1.587,0,0,0,.7.577,1.557,1.557,0,0,0,.9.09,1.573,1.573,0,0,0,.8-.426,1.566,1.566,0,0,0,.33-.514,1.587,1.587,0,0,0,.11-.6V1.584a1.528,1.528,0,0,0-.1-.618A1.508,1.508,0,0,0,2.693.441,1.478,1.478,0,0,0,2.177.1,1.459,1.459,0,0,0,1.57,0Z" transform="translate(139.828 35.449)"/><path class="a" d="M11.178.968A7.465,7.465,0,0,0,7.395,0,7.588,7.588,0,0,0,3.573.968,6.824,6.824,0,0,0,.936,3.648a8.58,8.58,0,0,0,0,7.8,6.817,6.817,0,0,0,2.636,2.68,8.01,8.01,0,0,0,7.632,0,6.852,6.852,0,0,0,2.616-2.68,8.525,8.525,0,0,0-.013-7.8A6.944,6.944,0,0,0,11.178.968ZM11.193,10a4.129,4.129,0,0,1-1.538,1.66,4.534,4.534,0,0,1-4.506,0A4.214,4.214,0,0,1,3.59,10a5.114,5.114,0,0,1-.569-2.43A5.194,5.194,0,0,1,3.59,5.122,4.2,4.2,0,0,1,5.15,3.449a4.532,4.532,0,0,1,4.506,0A4.112,4.112,0,0,1,11.193,5.12a5.294,5.294,0,0,1,.556,2.457A5.208,5.208,0,0,1,11.193,10Z" transform="translate(144.396 35.343)"/><path class="a" d="M12.927,3.223A5.789,5.789,0,0,0,10.6.82h0A7.047,7.047,0,0,0,4.753.478a6.086,6.086,0,0,0-1.663,1A1.5,1.5,0,0,0,2.675.567a1.645,1.645,0,0,0-2.234,0A1.533,1.533,0,0,0,.1,1.094a1.553,1.553,0,0,0-.1.62V13.468a1.627,1.627,0,0,0,.278.875,1.587,1.587,0,0,0,.7.577,1.562,1.562,0,0,0,1.7-.336,1.566,1.566,0,0,0,.33-.514,1.587,1.587,0,0,0,.11-.6V6.037a2.816,2.816,0,0,1,.466-1.581A3.321,3.321,0,0,1,4.909,3.324,4.158,4.158,0,0,1,6.789,2.9,3.914,3.914,0,0,1,9.621,3.927a4.086,4.086,0,0,1,1.054,3.058v6.477a1.6,1.6,0,0,0,.456,1.119,1.538,1.538,0,0,0,2.2,0,1.6,1.6,0,0,0,.456-1.119V6.984a7.977,7.977,0,0,0-.861-3.761Z" transform="translate(160.689 35.317)"/><path class="a" d="M11.724,1.693V.614A.619.619,0,0,0,11.547.18.6.6,0,0,0,11.12,0H4.371a.6.6,0,0,0-.427.18.619.619,0,0,0-.177.434V2.495a.619.619,0,0,0,.177.434.6.6,0,0,0,.427.18H8.492a.158.158,0,0,1,.063.011.16.16,0,0,1,.054.035.163.163,0,0,1,.036.053.165.165,0,0,1,.013.063c0,2.274,0,5.231-.015,6.408A11.743,11.743,0,0,1,7.4,14.732,12.366,12.366,0,0,1,2.785,19.8,22.148,22.148,0,0,1,.369,20.977a.606.606,0,0,0-.311.3.621.621,0,0,0-.031.438l.532,1.807a.62.62,0,0,0,.121.226.607.607,0,0,0,.2.156.591.591,0,0,0,.49,0A27.947,27.947,0,0,0,4.4,22.44a15.594,15.594,0,0,0,5.736-6.316,14.881,14.881,0,0,0,1.571-6.4C11.737,8.2,11.728,3.6,11.724,1.693Z" transform="translate(56.609 0.409)"/><path class="a" d="M3.582,14.126a8.01,8.01,0,0,0,7.632,0,6.852,6.852,0,0,0,2.616-2.68,8.006,8.006,0,0,0,.936-3.884,7.974,7.974,0,0,0-.951-3.913A6.943,6.943,0,0,0,11.178.968,7.465,7.465,0,0,0,7.4,0,7.588,7.588,0,0,0,3.573.968,6.822,6.822,0,0,0,.937,3.648,8.058,8.058,0,0,0,0,7.559a8,8,0,0,0,.936,3.884,6.817,6.817,0,0,0,2.645,2.682Zm0-9.017a4.2,4.2,0,0,1,1.56-1.673,4.532,4.532,0,0,1,4.506,0,4.112,4.112,0,0,1,1.538,1.671,5.294,5.294,0,0,1,.556,2.457A5.208,5.208,0,0,1,11.2,9.985a4.131,4.131,0,0,1-1.538,1.66h0a4.534,4.534,0,0,1-4.506,0A4.214,4.214,0,0,1,3.6,9.983a5.114,5.114,0,0,1-.573-2.43,5.194,5.194,0,0,1,.565-2.443Z" transform="translate(68.642 9.676)"/><path class="a" d="M7.358,21.177a7.347,7.347,0,0,0,3.752-.992,7.139,7.139,0,0,0,2.667-2.725,7.8,7.8,0,0,0,.969-3.846,8.254,8.254,0,0,0-.9-3.842,6.881,6.881,0,0,0-2.469-2.714,6.625,6.625,0,0,0-8.275,1.03v-6.5A1.627,1.627,0,0,0,2.84.716,1.588,1.588,0,0,0,2.145.129a1.562,1.562,0,0,0-1.7.307A1.533,1.533,0,0,0,.1.962a1.553,1.553,0,0,0-.1.62V13.614a7.716,7.716,0,0,0,.978,3.848,7.29,7.29,0,0,0,2.693,2.746,7.135,7.135,0,0,0,3.693.97ZM3,13.614a5.057,5.057,0,0,1,.569-2.4A4.4,4.4,0,0,1,4.686,9.875a4.285,4.285,0,0,1,4.887-.341,4.416,4.416,0,0,1,1.575,1.677,4.979,4.979,0,0,1,.591,2.4,5.043,5.043,0,0,1-.58,2.417,4.385,4.385,0,0,1-1.586,1.686,4.225,4.225,0,0,1-4.908-.327,4.336,4.336,0,0,1-1.1-1.361A5.133,5.133,0,0,1,3,13.614Z" transform="translate(84.499 4.031)"/><path class="a" d="M9.435,14.51a4.58,4.58,0,0,0,2.006-1.642,4.184,4.184,0,0,0,.688-2.334,3.639,3.639,0,0,0-.311-1.568,3.582,3.582,0,0,0-.95-1.275,9.223,9.223,0,0,0-4.11-1.66A12.185,12.185,0,0,1,4.7,5.451,2.1,2.1,0,0,1,3.82,4.87a1.214,1.214,0,0,1-.22-.742,1.048,1.048,0,0,1,.639-.936,3.929,3.929,0,0,1,1.848-.38,5.246,5.246,0,0,1,1.687.237,3.659,3.659,0,0,1,1.292.809,1.988,1.988,0,0,0,1.375.563,1.422,1.422,0,0,0,.879-.266,1.28,1.28,0,0,0,.378-.438,1.3,1.3,0,0,0,.149-.563,1.591,1.591,0,0,0-.4-.983,5.423,5.423,0,0,0-2.2-1.6A8.09,8.09,0,0,0,6.147,0,7.72,7.72,0,0,0,3.475.463,4.829,4.829,0,0,0,1.406,1.877,3.539,3.539,0,0,0,.6,4.209c0,2.247,1.738,3.726,5.167,4.4A7.675,7.675,0,0,1,8.4,9.48a1.361,1.361,0,0,1,.7,1.159,1.3,1.3,0,0,1-.193.672,1.271,1.271,0,0,1-.51.469,4.194,4.194,0,0,1-2.173.467,5.216,5.216,0,0,1-2.012-.391,3.789,3.789,0,0,1-1.4-.909,1.5,1.5,0,0,0-2.2-.127,1.452,1.452,0,0,0-.455.531A1.479,1.479,0,0,0,0,12.037a1.36,1.36,0,0,0,.1.535,1.341,1.341,0,0,0,.3.45,6.594,6.594,0,0,0,2.524,1.505,10.1,10.1,0,0,0,3.4.567,7.577,7.577,0,0,0,3.108-.585Z" transform="translate(99.473 9.671)"/><path class="a" d="M1.944,3.959a1.944,1.944,0,0,0,1.37-.583,2,2,0,0,0,.347-2.327A1.966,1.966,0,0,0,3.027.335,1.917,1.917,0,0,0,1.2.15a1.947,1.947,0,0,0-.76.572A2,2,0,0,0,.571,3.376a1.877,1.877,0,0,0,.627.436,1.851,1.851,0,0,0,.746.147Z" transform="translate(117.71 4.381)"/><path class="a" d="M1.539,0A1.515,1.515,0,0,0,.946.114,1.5,1.5,0,0,0,.1.975a1.553,1.553,0,0,0-.1.62V13.323a1.627,1.627,0,0,0,.278.875,1.587,1.587,0,0,0,.7.577,1.557,1.557,0,0,0,.9.09,1.573,1.573,0,0,0,.8-.426,1.566,1.566,0,0,0,.33-.514,1.587,1.587,0,0,0,.11-.6V1.583a1.528,1.528,0,0,0-.1-.618A1.508,1.508,0,0,0,2.693.441,1.478,1.478,0,0,0,2.178.1,1.459,1.459,0,0,0,1.57,0Z" transform="translate(118.119 9.765)"/><path class="a" d="M1.532,15.054a1.483,1.483,0,0,0,.61-.1,1.5,1.5,0,0,0,.517-.344,1.566,1.566,0,0,0,.33-.514,1.587,1.587,0,0,0,.11-.6V6.04a2.816,2.816,0,0,1,.466-1.581A3.321,3.321,0,0,1,4.883,3.326,4.158,4.158,0,0,1,6.763,2.9,3.914,3.914,0,0,1,9.595,3.929a4.086,4.086,0,0,1,1.054,3.058v6.477a1.6,1.6,0,0,0,.456,1.119,1.538,1.538,0,0,0,2.2,0,1.6,1.6,0,0,0,.456-1.119V6.987a7.978,7.978,0,0,0-.833-3.764A5.789,5.789,0,0,0,10.605.82h0A7.047,7.047,0,0,0,4.755.478a6.086,6.086,0,0,0-1.663,1A1.5,1.5,0,0,0,2.675.57,1.645,1.645,0,0,0,.441.57,1.533,1.533,0,0,0,.1,1.1a1.553,1.553,0,0,0-.1.62V13.471a1.569,1.569,0,0,0,.109.611,1.548,1.548,0,0,0,.336.518,1.518,1.518,0,0,0,.51.342,1.5,1.5,0,0,0,.6.11Z" transform="translate(123.398 9.636)"/><path class="b" d="M22.995,50.354l1.166-4.016a.785.785,0,0,0-.039-.557.8.8,0,0,0-.4-.4,48.447,48.447,0,0,1-5.272-2.6A27.121,27.121,0,0,1,8.384,31.627,26.078,26.078,0,0,1,5.669,20.49c-.042-2.582-.04-9.2-.031-13.92a.76.76,0,0,1,.054-.3.769.769,0,0,1,.165-.253.782.782,0,0,1,.25-.172.792.792,0,0,1,.3-.064H22.017a.794.794,0,0,0,.3-.065.785.785,0,0,0,.251-.173.771.771,0,0,0,.164-.254.762.762,0,0,0,.053-.3V.79a.768.768,0,0,0-.219-.552A.792.792,0,0,0,22.015,0H.779a.8.8,0,0,0-.3.065A.787.787,0,0,0,.227.238.773.773,0,0,0,.062.492a.764.764,0,0,0-.054.3V3.181c0,4.111-.029,14.065.024,17.4A31.934,31.934,0,0,0,3.349,34.215a33.147,33.147,0,0,0,12.12,13.47,61.917,61.917,0,0,0,6.492,3.161.771.771,0,0,0,.632-.014.758.758,0,0,0,.254-.2.745.745,0,0,0,.148-.283Z" transform="translate(0)"/><path class="a" d="M9.524,0A29.963,29.963,0,0,1,5.745,2.942,49.654,49.654,0,0,1,.473,5.622a.815.815,0,0,0-.4.408A.835.835,0,0,0,.034,6.6L1.2,10.752a.778.778,0,0,0,.146.294.762.762,0,0,0,.253.205.749.749,0,0,0,.633.019A60.911,60.911,0,0,0,8.726,8.007,35.165,35.165,0,0,0,13.535,4.2Z" transform="translate(26.38 39.695)"/><path class="a" d="M22.768,3.283V.815a.807.807,0,0,0-.219-.569A.781.781,0,0,0,22,0H.76A.781.781,0,0,0,.216.249.807.807,0,0,0,0,.815v4.34a.809.809,0,0,0,.053.307.8.8,0,0,0,.164.263A.784.784,0,0,0,.468,5.9a.773.773,0,0,0,.3.067H16.379a.776.776,0,0,1,.541.248.8.8,0,0,1,.214.563c0,4.874,0,11.706-.031,14.368a27.621,27.621,0,0,1-2.717,11.494c-.334.7-.694,1.383-1.072,2.044l4.1,4.288a34.69,34.69,0,0,0,2.012-3.647,33.825,33.825,0,0,0,3.317-14.071C22.8,17.792,22.779,7.534,22.768,3.283Z" transform="translate(27.31 0.112)"/><path class="a" d="M35.549,31.415l-6.711-6.88L27.715,23.4l-.086-.081a15.352,15.352,0,0,0,1.061-1.862,14.779,14.779,0,0,0,1.452-6.433A15.075,15.075,0,0,0,7.208,2.211a15.321,15.321,0,0,0-2.46,1.873,15.018,15.018,0,0,0-4.1,6.547,14.177,14.177,0,0,0-.439,1.875,13.939,13.939,0,0,0-.2,1.875c0,.219-.015.427-.015.637a15.616,15.616,0,0,0,.143,2.059c.033.269.081.551.152.891.055.263.116.54.191.829a.29.29,0,0,0,.024.079,14.885,14.885,0,0,0,1.538,3.687,15.2,15.2,0,0,0,1.114,1.641c.336.438.659.79.956,1.109s.615.621.94.915a15.087,15.087,0,0,0,18.35,1.313l.048.048,7.823,8.018a2.989,2.989,0,1,0,4.273-4.182ZM25.307,15.023a10.218,10.218,0,0,1-20.437,0,5.814,5.814,0,0,1,.022-.617A9.968,9.968,0,0,1,5.169,12.6a10.219,10.219,0,0,1,20.138,2.425Z" transform="translate(9.945 7.728)"/><path class="b" d="M7.413,13.724c2.717-2.81,9.007-9.691,11.461-12.209,1.645-1.689,3.117-1.963,4.268-.84,1.191,1.166.912,2.754-.8,4.5C19.471,8.1,12.751,15.375,9.865,18.283c-1.81,1.825-2.856,1.816-4.666,0-1.4-1.4-2.8-2.81-4.174-4.244C-.258,12.677-.328,11.2.768,10.119a2.6,2.6,0,0,1,3.735.326C5.484,11.413,6.357,12.516,7.413,13.724Z" transform="translate(18.189 9.532)"/></svg>