<svg id="sticky-notes" xmlns="http://www.w3.org/2000/svg" width="24" height="24" viewBox="0 0 24 24">
  <path id="Path_4408" data-name="Path 4408" d="M24,17.5v.75a.749.749,0,0,1-.22.53l-5,5a.749.749,0,0,1-.53.22H17.5V18.25a.755.755,0,0,1,.75-.75Z" fill="#1c1b1b"/>
  <path id="Path_4409" data-name="Path 4409" d="M21.25,5h-7.5V7.25a1.75,1.75,0,0,1-3.5,0V5H2.75A2.748,2.748,0,0,0,0,7.75v13.5A2.748,2.748,0,0,0,2.75,24H16.5V18.25a1.752,1.752,0,0,1,1.75-1.75H24V7.75A2.748,2.748,0,0,0,21.25,5ZM14,19.5H4.75a.75.75,0,0,1,0-1.5H14a.75.75,0,0,1,0,1.5Zm5.25-4H4.75a.75.75,0,0,1,0-1.5h14.5a.75.75,0,0,1,0,1.5Zm0-4H4.75a.75.75,0,0,1,0-1.5h14.5a.75.75,0,0,1,0,1.5Z" fill="#1c1b1b"/>
  <path id="Path_4410" data-name="Path 4410" d="M12,8a.75.75,0,0,1-.75-.75V3.5a.75.75,0,0,1,1.5,0V7.25A.75.75,0,0,1,12,8Z" fill="#1c1b1b"/>
  <path id="Path_4411" data-name="Path 4411" d="M12,4a2,2,0,1,1,2-2A2,2,0,0,1,12,4Z" fill="#1c1b1b"/>
</svg>
