<svg xmlns="http://www.w3.org/2000/svg" xmlns:xlink="http://www.w3.org/1999/xlink" width="91.401" height="106.2" viewBox="0 0 91.401 106.2"><defs><style>.a,.c{fill:#fff;}.a,.p{opacity:0.72;}.b{fill:#5c5049;}.d{fill:#292c47;}.e{fill:#244b84;}.f{fill:#de9673;}.g{fill:#2a5798;}.h{fill:#eea886;}.i{fill:#ded1c5;}.j{fill:#4583d3;}.k{fill:#a77860;}.l{fill:#245799;}.m{fill:#7abffa;}.n{fill:#68b4f2;}.o{fill:#a3d5ff;}.p{fill:#d1e5ff;}.q{fill:#b9d0ee;}.r{fill:#275ea5;}.s{fill:#a09832;}.t{fill:#faac40;}.u{fill:#727643;}.v{fill:#f49006;}.w{fill:#73a1de;}.x{fill:url(#a);}.y{fill:url(#b);}.z{fill:url(#c);}.aa{fill:url(#d);}.ab{fill:url(#e);}</style><linearGradient id="a" x1="0.046" y1="1.106" x2="0.626" y2="0.33" gradientUnits="objectBoundingBox"><stop offset="0" stop-color="#fff"/><stop offset="1"/></linearGradient><linearGradient id="b" x1="0.046" y1="1.106" x2="0.626" y2="0.33" gradientUnits="objectBoundingBox"><stop offset="0" stop-color="#ffa155"/><stop offset="1" stop-color="#ffa155"/></linearGradient><linearGradient id="c" y1="1.012" x2="0.814" y2="0.282" gradientUnits="objectBoundingBox"><stop offset="0.005" stop-color="#e6e6e6"/><stop offset="1" stop-color="#ffdcc2"/></linearGradient><linearGradient id="d" y1="1.012" x2="0.817" y2="0.283" xlink:href="#c"/><linearGradient id="e" y1="1.012" x2="0.815" y2="0.283" xlink:href="#c"/></defs><path class="a" d="M2,12.73h8.609a2.012,2.012,0,0,0,2-2.017v-8.7a2.012,2.012,0,0,0-2-2.017H2A2.012,2.012,0,0,0,0,2.017v8.7A2.012,2.012,0,0,0,2,12.73Z" transform="translate(52.537 17.469)"/><g transform="translate(0 16.641)"><g transform="translate(44.005 54.469)"><path class="b" d="M4.2,28.307,0,.125.805,0,5,28.181Z" transform="translate(0 0)"/></g><g transform="translate(38.88 54.469)"><path class="b" d="M4.2,28.307,0,.125.821,0,5,28.181Z" transform="translate(0 0)"/></g><g transform="translate(17.047 54.469)"><path class="b" d="M.805,28.307,0,28.181,4.2,0,5,.125Z" transform="translate(0 0)"/></g><path class="c" d="M11.148,35.53,14.431.608A64.758,64.758,0,0,0,5.218.03L0,35.514H11.148Z" transform="translate(34.172 19.361)"/><path class="c" d="M0,0H11.148V1.767H0Z" transform="translate(34.172 53.109)"/><path class="c" d="M1.75,34.058,0,.779S14.539-.817,23.473.56Z" transform="translate(25.114 19.41)"/><path class="d" d="M14.124,9.413S16.369,2.767,12.08.7A6.58,6.58,0,0,0,3.471,3.236c-.681,1.611-.511,4.551.077,6.6s.5,5.161-.774,6.193A7.257,7.257,0,0,0,0,22.315c.046,2.189,8.516-5.583,8.516-5.583Z" transform="translate(24.369 0)"/><path class="e" d="M1.7,7.509s-.139,4.707.526,4.989S5.4,11.153,6.519,9.527c1.115-1.611-1.394-5.38-1.8-7.46C4.552,1.191,2.6-.373,1.641.081A4.608,4.608,0,0,0,0,1.676S2.431,3.365,1.7,7.509Z" transform="translate(31.06 73.484)"/><g transform="translate(31.06 73.564)"><path class="f" d="M0,1.611A28.663,28.663,0,0,1,1.254,4.457c.418,1.251.511,4.692.774,4.926S4.4,8.555,4.692,7.257C4.97,5.974,4.119,3.394,3.3,2.033A8.441,8.441,0,0,0,1.657,0,2.165,2.165,0,0,0,0,1.611Z"/></g><path class="e" d="M0,0,2.276,3.331l-.434.3L.093,1.048Z" transform="translate(35.783 75.566)"/><path class="f" d="M8.5,1.257s1.115,1.892,0,3.269S-.062,9.687,0,11.861A19.281,19.281,0,0,0,1.9,18.32c.5.86,2.292,4.457,3.236,6.568s6.379,12.167,7.432,14.45c1.068,2.268.4-9.071.4-9.071L7.556,14.16l12.7-12.5S18.72-1.792,8.5,1.257Z" transform="translate(19.138 37.385)"/><path class="g" d="M9.43.181A23.987,23.987,0,0,0,4.506,1.792C3.112,2.62,0,6.421,0,8.047s13.579,3.159,13.579,3.159L16.15,20.7s6.859-1.689,7.68-3.1-2.71-11.385-3.19-13.5c-.5-2.111-3.05-3.519-5.915-3.925A19.311,19.311,0,0,0,9.43.181Z" transform="translate(23.04 17.146)"/><path class="h" d="M15.365,0s-.248,1.626.4,2.315,3.67,4.692,2.075,8.633c-1.471,3.613-4.3,3.55-4.3,3.55h-4.4S10.41,21,10.008,25.3C9.59,29.589,7.654,39.395,7.623,39.9c-.046.5-1.858,2.049-2.385,1.267,0,0-.046-5.9-.341-8.132-.279-2.221-1.5-11.135-1.874-12.464C2.653,19.252.485,15.248.485,14.826c0-.407-2.121-6.866,2.508-8.523C7.608,4.645,9.249.031,15.365,0Z" transform="translate(25.419 38.955)"/><path class="g" d="M2.721,5.895S-.314,9.461.027,10.1s3.314.97,5.187.422S7.49,5.457,8.45,3.58c.4-.782-.139-3.237-1.161-3.5A4.733,4.733,0,0,0,5.012.265S5.864,3.127,2.721,5.895Z" transform="translate(25.739 78.757)"/><g transform="translate(27.483 78.576)"><path class="h" d="M3.283.462a25.525,25.525,0,0,1-.805,3C2.029,4.7-.046,7.437,0,7.781c.062.36,2.369.86,3.391.031S5.358,4.45,5.559,2.871A8.22,8.22,0,0,0,5.544.243,2.087,2.087,0,0,0,3.283.462Z" transform="translate(0 0)"/></g><path class="e" d="M.836,0,.511,4.035,0,3.988.248.876Z" transform="translate(33.368 81.254)"/><path class="d" d="M24.173,12.533c-1.378,3.66-4.3,3.55-4.3,3.55h-4.4a8.641,8.641,0,0,0-6.317-3.441,13.2,13.2,0,0,0-3.391.078H5.716c-5.961.891-4.815,3.1-4.8,3.159a10.9,10.9,0,0,1-.9-4.207C.591,6.9,7.4,5.9,8.519,4.526s0-3.269,0-3.269c10.219-3.05,11.752.407,11.752.407a22,22,0,0,1,2.09-.735s.511,1.126.867,2.143C23.569,3.994,25.675,8.561,24.173,12.533Z" transform="translate(19.088 37.369)"/><path class="c" d="M19.9,0l1.5,14.2H1.5L0,0Z" transform="translate(19.138 23.645)"/><path class="i" d="M0,0H3.329V1.282H0Z" transform="translate(38.802 36.563)"/><path class="j" d="M0,0H62.075V1.939H0Z" transform="translate(0 37.845)"/><path class="h" d="M4.952.09S9.411,1.419,8.776,7.674,5.23,13.6,4.952,13.649,1.22,13.93.136,6.345C-.963-1.24,4.952.09,4.952.09Z" transform="translate(29.717 1.739)"/><path class="h" d="M5.037,1.418A10.632,10.632,0,0,0,5.191,4.78C5.579,6.062,0,6.109,0,5.046,0,3.842.577,2.841.035.776-.491-1.288,5.037,1.418,5.037,1.418Z" transform="translate(31.753 12.812)"/><path class="d" d="M4.12,3.252s2.415,3.894,4.97,4.8c0,0,1.394-6.537-4.351-7.9S-.108,6.755.326,8.882A17.357,17.357,0,0,1,4.12,3.252Z" transform="translate(29.387 1.36)"/><path class="k" d="M0,0A2.992,2.992,0,0,0,4.026.188,1.813,1.813,0,0,1,2.214,1.533,2.263,2.263,0,0,1,0,0Z" transform="translate(32.454 14.496)"/><path class="a" d="M0,2.956S1.27.469,3.422.344A4.259,4.259,0,0,1,6.859,2.127,3.661,3.661,0,0,0,3.422,0C.836,0,0,2.956,0,2.956Z" transform="translate(30.271 1.078)"/><path class="h" d="M6.222.255S6.144,4.587,2.753,4.712.059.568.059.568A11.521,11.521,0,0,1,6.222.255Z" transform="translate(31.296 17.04)"/><path class="l" d="M0,0H1.409V44.383H0Z" transform="translate(60.681 39.784)"/><path class="l" d="M0,0H1.409V44.383H0Z" transform="translate(2.106 39.784)"/></g><path class="c" d="M0,0H12.062V1.126H0Z" transform="translate(68.795 19.815)"/><path class="c" d="M0,0H20.841V1.126H0Z" transform="translate(68.795 24.866)"/><path class="c" d="M0,0H16.382V1.126H0Z" transform="translate(68.795 22.332)"/><path class="c" d="M0,0H9.089V1.126H0Z" transform="translate(68.795 27.384)"/><g transform="translate(54.456 20.815)"><path class="m" d="M0,0H8.748V6.052H0Z"/><path class="n" d="M0,3.378,4.382,0,8.748,3.378Z" transform="translate(0 2.659)"/><path class="o" d="M8.748,0,4.382,3.769,0,0Z"/></g><path class="p" d="M2,12.714h8.609a2.012,2.012,0,0,0,2-2.017V2.017a2.012,2.012,0,0,0-2-2.017H2A2.012,2.012,0,0,0,0,2.017v8.7A2,2,0,0,0,2,12.714Z" transform="translate(40.537)"/><path class="q" d="M0,0H22.7V1.126H0Z" transform="translate(56.795 2.346)"/><path class="q" d="M0,0H29.466V1.126H0Z" transform="translate(56.795 7.382)"/><path class="q" d="M0,0H11.644V1.126H0Z" transform="translate(56.795 4.864)"/><path class="q" d="M0,0H16.8V1.126H0Z" transform="translate(56.795 9.915)"/><g transform="translate(42.456 3.331)"><path class="m" d="M0,0H8.748V6.052H0Z" transform="translate(0.016)"/><path class="n" d="M0,3.378,4.366,0,8.733,3.378Z" transform="translate(0.015 2.674)"/><path class="o" d="M8.748,0,4.382,3.769,0,0Z"/></g><path class="c" d="M0,0H16.227V1.126H0Z" transform="translate(68.795 37.049)"/><g transform="translate(10.343 36.58)"><path class="r" d="M.9,9.572s1.192.579.883.313.774-1.72,2.276-3.66S4.569,3.457,3.64,1.2A1.718,1.718,0,0,0,2,0C1.054.032.187.845.45,1.736.884,3.191,1.472,4.614.373,6.068-.7,7.523.868,9.54.9,9.572Z" transform="translate(1.485 3.315)"/><path class="r" d="M.844,3.237c.728-.36,1.61-1.673.883-1.986S1.572,0,.844,0-.24,1.142.178,1.767C.178,1.767.116,3.6.844,3.237Z" transform="translate(4.761 1.798)"/><path class="r" d="M.837,1.226s1.13-.985,0-1.2C-.293-.181.017,1.07.11,1.226.218,1.383.837,1.226.837,1.226Z" transform="translate(4.954 0.603)"/><path class="s" d="M.776,1.907A1.074,1.074,0,0,0,1.659.859s-.7-1.3-1.285-.7C-.23.766-.106,2.064.776,1.907Z" transform="translate(0.525 3.379)"/><path class="j" d="M.9,9.555s1.734-3.19.821-5.427A5.55,5.55,0,0,1,2,0C1.054.031.187.845.45,1.736.884,3.19,1.472,4.614.373,6.068-.7,7.507.868,9.524.9,9.555Z" transform="translate(1.485 3.331)"/><path class="t" d="M5.125,0H0L.217.751H4.939Z" transform="translate(0.279 12.855)"/><path class="t" d="M3.406,4.3,3.84.86,3.948,0H0L.5,4.3Z" transform="translate(0.898 13.606)"/><path class="u" d="M0,.782,1.146,0,0,.626Z" transform="translate(5.621 6.412)"/><path class="u" d="M0,0,.619.563.666.438Z" transform="translate(4.335 2.049)"/><path class="u" d="M0,.109.759,0H.077Z" transform="translate(5.853 2.408)"/><path class="u" d="M0,0,.217.751H.31Z" transform="translate(5.11)"/><path class="u" d="M0,.313.062.422.557,0Z" transform="translate(5.992 0.438)"/><path class="u" d="M0,.438.139.5,0,0Z" transform="translate(5.621 0.203)"/><path class="u" d="M0,0,.465,1.189.232,0Z" transform="translate(5.295 8.836)"/><path class="u" d="M.991.672,0,0,.9.782Z" transform="translate(0 3.566)"/><path class="u" d="M1.425,0,0,.235H1.425Z" transform="translate(0.325 10.025)"/><path class="v" d="M3.84.86,3.948,0H0L.5,4.3h.96A3.306,3.306,0,0,1,3.84.86Z" transform="translate(0.898 13.606)"/></g><g transform="translate(4.335 31.559)"><path class="j" d="M8.454.563,8.423.907,8.315,2.033l-.015.3L8.253,2.8l-.031.281L7.99,5.521,7.85,7.1l-.015.125H.465L.434,6.85l-.279-4.5L.062.907.046.719V.641L0,0,3.917.25l.217.016.635.047L6.89.454h.062l1.44.109Z" transform="translate(0.635 15.702)"/><path class="w" d="M1.007,5.865,2.261,0S0,4.441,0,6.318C-.015,8.195,1.007,5.865,1.007,5.865Z" transform="translate(7.138 8.414)"/><path class="r" d="M1.266,10.7S2.52,2.455,1.622,0c0,0-1.781,8.21-1.61,11.025C.2,13.856,1.266,10.7,1.266,10.7Z" transform="translate(6.275 3.253)"/><path class="j" d="M2.1,5.38A35.265,35.265,0,0,0,.01,0a20.323,20.323,0,0,0,.9,5.38S2.333,6.834,2.1,5.38Z" transform="translate(0.624 9.352)"/><path class="w" d="M2.122,7.992C1.936,6.3.031,0,.031,0-.2,1.626.93,7.992.93,7.992S2.308,9.665,2.122,7.992Z" transform="translate(1.254 6.631)"/><path class="j" d="M1.845,11.964C1.721,11.244.2,0,.2,0-.431,1.689.622,11.573.622,11.573.684,12.183,1.953,12.683,1.845,11.964Z" transform="translate(2.134 2.721)"/><path class="w" d="M1.827,14.278C1.827,13.34.65,0,.65,0,.5.845,0,8.867,0,8.867l.635,5.74C.635,14.622,1.827,15.217,1.827,14.278Z" transform="translate(2.74)"/><path class="w" d="M1.862,0S-.1,10.65,0,12.324C.128,14,2.048,14.669,1.862,7.116,1.862,7.131,1.986,1.392,1.862,0Z" transform="translate(4.858 2.471)"/><path class="j" d="M1.733,4.5A37.52,37.52,0,0,0,1.268,0S-.156,10.259.014,11.119C.2,11.948,1.47,9.477,1.733,4.5Z" transform="translate(4.554 3.925)"/><path class="r" d="M1.75,9.305C2.059,5.63.6,0,.6,0,.186.845,0,5.708,0,5.708S.557,13.7.9,14.247C1.223,14.826,1.44,12.98,1.75,9.305Z" transform="translate(3.67 1.689)"/><path class="l" d="M8.408.109,8.377.454,8.268,1.58l-.031.282-.046.469-.031.282a4.51,4.51,0,0,0-1.812.923A9.682,9.682,0,0,0,3.917,6.756H.418L.387,6.381l-.279-4.5L.015.438,0,.25V.188L4.723.063,6.844,0h.062l1.44.094Z" transform="translate(0.681 16.155)"/><path class="j" d="M.557,0,0,2.33H9.724L9.12,0Z" transform="translate(0 14.278)"/></g><path class="c" d="M0,0H22.606V1.126H0Z" transform="translate(68.795 42.085)"/><path class="c" d="M0,0H13.533V1.126H0Z" transform="translate(68.795 39.567)"/><path class="c" d="M0,0H9.244V1.126H0Z" transform="translate(68.795 44.602)"/><g transform="translate(49.982 43.226)"><g transform="translate(0 4.598)"><path class="x" d="M4.815,6.662H.914L0,0H2.121C2.106,0,1.347,6.005,4.815,6.662Z"/></g><path class="y" d="M4.815,6.662H.914L0,0H2.121C2.106,0,1.347,6.005,4.815,6.662Z" transform="translate(0 4.598)"/><path class="z" d="M.859,0S-.349.407.1,1.486s1.223,1.767.5,3.1a1.722,1.722,0,0,0,.712-2.174C.688,1.063.3.672.859,0Z" transform="translate(1.774)"/><path class="aa" d="M.629,0S-.253.3.072,1.095s.9,1.3.356,2.268a1.263,1.263,0,0,0,.526-1.6C.505.782.227.5.629,0Z" transform="translate(3.737 1.22)"/><path class="ab" d="M.629,0S-.253.3.072,1.095s.9,1.3.356,2.268a1.263,1.263,0,0,0,.526-1.6C.49.782.211.5.629,0Z" transform="translate(0.516 1.22)"/></g><path class="a" d="M2,12.73h8.609a2.012,2.012,0,0,0,2-2.017v-8.7a2.012,2.012,0,0,0-2-2.017H2A2.012,2.012,0,0,0,0,2.017v8.7A2,2,0,0,0,2,12.73Z" transform="translate(52.537 34.687)"/><g transform="translate(54.456 38.034)"><path class="m" d="M0,0H8.748V6.052H0Z"/><path class="n" d="M0,3.378,4.382,0,8.748,3.378Z" transform="translate(0 2.674)"/><path class="o" d="M8.748,0,4.382,3.769,0,0Z"/></g></svg>