<svg xmlns="http://www.w3.org/2000/svg" width="35" height="35" viewBox="0 0 35 35"><defs><style>.a,.o{fill:#fff;}.a{stroke:#707070;opacity:0;}.b{fill:#2a5798;}.c{fill:#9cc5fa;}.d{fill:#f0f3f9;}.e{fill:#e8ac6e;}.f{fill:#ebb984;}.g{fill:#f8e6d3;}.h{fill:#f4dabf;}.i{fill:#f0cba4;}.j{fill:#fbf4ed;}.k{fill:#f3d7b9;}.l{fill:#eec295;}.m{fill:#f8e9d9;}.n{fill:#1e3e6c;}.p{fill:#e6ebf5;}.q{fill:#e7f1fd;}.r{fill:#f8f5f5;}.s{stroke:none;}.t{fill:none;}</style></defs><g transform="translate(-919 -310.238)"><g class="a" transform="translate(919 310.238)"><rect class="s" width="35" height="35"/><rect class="t" x="0.5" y="0.5" width="34" height="34"/></g><g transform="translate(923.419 311.752)"><g transform="translate(0 0)"><path class="b" d="M11.454,22.208h-.867a8.216,8.216,0,0,0-1.106-.033H7.028q-2.712-.037-5.416-.14c-.14-.008-.3.008-.4-.132a1.123,1.123,0,0,0-.256-.413,1.888,1.888,0,0,1-.413-.95c-.132-.842-.182-1.7-.264-2.551-.107-1.181-.14-2.361-.231-3.542-.017-.173-.008-.347-.017-.528-.017-.76-.041-1.528-.033-2.287C.01,10.359-.007,9.08.084,7.8.117,7.28.117,6.751.15,6.223.249,4.745.357,3.267.538,1.8a2.242,2.242,0,0,1,.5-1.115A.622.622,0,0,0,1.191.36C1.265.212,1.4.212,1.537.2A29.15,29.15,0,0,1,5.608.014a28.637,28.637,0,0,1,3.567.33,2.2,2.2,0,0,1,.561.165,2.109,2.109,0,0,1,1.049,1.073,2.919,2.919,0,0,1,.248.983,1.744,1.744,0,0,0,1.841,1.528H13c1.561-.041,3.113.041,4.673.083s3.113.1,4.657.239a4.162,4.162,0,0,1,.644.2A2.119,2.119,0,0,1,24.153,6.57c.083,1.916.173,3.831.124,5.747-.041,1.6-.1,3.212-.231,4.814-.074.966-.165,1.932-.264,2.89a2.115,2.115,0,0,1-1.932,1.891c-1.007.083-2.015.149-3.022.173-1.28.033-2.551.066-3.831.083H12.544A8.171,8.171,0,0,0,11.454,22.208Z" transform="translate(2.109 9.523)"/><path class="c" d="M11.989.083C13.5.107,15,.223,16.514.388a4.046,4.046,0,0,1,1.321.264A2.142,2.142,0,0,1,19.1,2.626c.1,1.841.215,3.674.272,5.516.066,2.039.017,4.079.05,6.118a3.491,3.491,0,0,0-1.329-.223c-2.873-.165-5.747-.256-8.62-.248a1.939,1.939,0,0,1-2.105-1.85,3.381,3.381,0,0,0-.182-.809c.107-.2.306-.157.471-.157,1.049-.008,2.1-.008,3.146-.008.768,0,1.544-.008,2.312,0a.678.678,0,0,1,.471.091c.091.182-.05.215-.165.239a1.876,1.876,0,0,1-.429.025H8.5c-.339.008-.4.124-.215.421a1.691,1.691,0,0,0,1.247.768.17.17,0,0,0,.091,0c1.189-.041,2.37.091,3.559.066,1.024-.025,2.039.083,3.063.083.3,0,.4-.05.372-.347-.058-.925-.025-1.858-.1-2.783-.041-.512-.05-1.032-.066-1.544-.041-1.049-.124-2.1-.206-3.146A2.017,2.017,0,0,0,14.416,3.03c-1.024-.116-2.048-.206-3.08-.272C10.321,2.7,9.3,2.667,8.282,2.626,7.654,2.6,7.027,2.56,6.4,2.584c-1.833.074-3.666.091-5.491.289-.215.025-.429,0-.644.041A.233.233,0,0,1,0,2.8V2.675c.074-.091-.008-.215.058-.314A2.157,2.157,0,0,1,1.924.438C3.212.3,4.5.182,5.788.116c.438-.025.883-.041,1.321-.05A7.685,7.685,0,0,1,8.083.033c.107-.008.223.033.33-.033h2.3a5.982,5.982,0,0,0,.941.033C11.749.058,11.873.025,11.989.083Z" transform="translate(5.601)"/><path class="d" d="M1.3,0A5.3,5.3,0,0,1,0,.058V0Z" transform="translate(12.696 0.025)"/><path class="d" d="M1.3.058A5.761,5.761,0,0,1,0,0H1.3Z" transform="translate(16.285 0.025)"/><path class="e" d="M.031.009A4.2,4.2,0,0,1,1.146.067H.031C-.01.05-.01.034.031.009Z" transform="translate(11.549 31.656)"/><path class="e" d="M0,.07A3.879,3.879,0,0,1,1.115.013c.041.025.041.041,0,.058Z" transform="translate(13.562 31.66)"/><path class="f" d="M.592,0V.058H.031C-.01.041-.01.017.031,0Z" transform="translate(10.987 31.666)"/><path class="f" d="M0,.058V0H.553c.041.025.041.041,0,.058Z" transform="translate(14.674 31.674)"/><path class="g" d="M.031,0h.5c.041.017.05.033,0,.05h-.5Q-.031.037.031,0Z" transform="translate(9.445 31.674)"/><path class="h" d="M.031,0h.5c.041.017.041.041,0,.05h-.5Q-.031.025.031,0Z" transform="translate(15.95 31.674)"/><path class="i" d="M.031.008C.18.008.32.008.469,0,.51.017.51.041.469.058H.031Q-.031.045.031.008Z" transform="translate(10.244 31.666)"/><path class="i" d="M.469.008v.05H.031C-.01.041-.01.017.031,0,.18.008.328.008.469.008Z" transform="translate(15.511 31.666)"/><path class="j" d="M.314,0V.05H0V0Z" transform="translate(9.161 31.674)"/><path class="k" d="M.314,0V.058H0V.008C.107,0,.215,0,.314,0Z" transform="translate(9.96 31.674)"/><path class="l" d="M0,.058V0H.314V.058Z" transform="translate(10.712 31.674)"/><path class="l" d="M.314,0V.061H0V0C.107,0,.215,0,.314,0Z" transform="translate(15.23 31.67)"/><path class="m" d="M0,.05V0H.306q.062.025,0,.05Z" transform="translate(16.475 31.681)"/><path class="j" d="M0,.05V0H.306V.05Z" transform="translate(16.782 31.681)"/><path class="n" d="M3.331,21.573a6.4,6.4,0,0,1-1.379-.132A1.908,1.908,0,0,1,.5,19.757,78.585,78.585,0,0,1,.012,9.419c.033-2.006.14-4.013.355-6.011C.417,2.938.458,2.467.507,2A1.98,1.98,0,0,1,2.151.262l.52-.074c.264-.231.413-.248.669-.058.083.008.165.017.306.033a2.366,2.366,0,0,0-.677.859,5.271,5.271,0,0,0-.281,1.635C2.563,3.928,2.448,5.2,2.382,6.471c-.058,1.123-.05,2.246-.1,3.369-.05,1.272.025,2.535.033,3.8.008,1.288.107,2.568.215,3.856.074.875.149,1.742.248,2.609a2.245,2.245,0,0,0,.76,1.428C3.447,21.548,3.389,21.557,3.331,21.573Z" transform="translate(0 9.795)"/><path class="o" d="M.008,3.276c0-.9-.008-1.792,0-2.692C.008.163.173.006.594.006q.755-.012,1.511,0A1.752,1.752,0,0,1,3.608,2.7c-.1.165-.083.231.058.347A1.978,1.978,0,0,1,2.4,6.546c-.578.017-1.156.017-1.734.017C.157,6.562,0,6.413,0,5.9,0,5.026.008,4.151.008,3.276Z" transform="translate(19.96 22.907)"/><path class="o" d="M6.556,3.27A3.278,3.278,0,1,1,3.286,0,3.279,3.279,0,0,1,6.556,3.27Z" transform="translate(12.612 22.913)"/><path class="p" d="M.669,1.452C.446,1.468.223,1.493,0,1.51,0,1.163,0,.816.008.469A.94.94,0,0,1,.537.255,29.2,29.2,0,0,1,5.342.007,22.1,22.1,0,0,1,9.182.321a1.981,1.981,0,0,1,1.42,1.04c.066.124.157.256.041.4a1.93,1.93,0,0,1-1.082.05,2.5,2.5,0,0,1-.355-.1,13.436,13.436,0,0,0-2.931-.429,31.421,31.421,0,0,0-5.433.116C.784,1.411.727,1.435.669,1.452Z" transform="translate(2.661 8.473)"/><path class="o" d="M2.93,2.766c0,.7.008,1.4,0,2.105A1.588,1.588,0,0,1,.255,6.119.5.5,0,0,1,.1,5.392a.5.5,0,0,1,.735-.033c.239.173.487.33.793.165s.339-.438.339-.743c-.008-1.338,0-2.683,0-4.021A1.889,1.889,0,0,1,1.973.454.464.464,0,0,1,2.46,0a.46.46,0,0,1,.462.479c.017.363.008.718.008,1.082Z" transform="translate(8.642 22.92)"/><path class="c" d="M0,.158C.479.15.966.15,1.445.142A.367.367,0,0,1,1.775.01C3.583,0,5.4-.007,7.208.01A.581.581,0,0,1,7.786.4.532.532,0,0,1,7.7.976c-.1.116-.206.206-.372.107H.908A2.329,2.329,0,0,0,0,.158Z" transform="translate(11.869 10.03)"/><path class="q" d="M16.522,8.679a.464.464,0,0,0,.347-.57c-.066-.289-.289-.372-.57-.372-1.883,0-3.773,0-5.656-.008-.132-.2-.248-.4-.388-.594A1.97,1.97,0,0,0,8.884,6.45,26.557,26.557,0,0,0,5.97,6.178c-.462-.017-.925-.066-1.387-.05a36.378,36.378,0,0,0-4.335.355A1.25,1.25,0,0,1,0,6.5a2.4,2.4,0,0,0,.058-.644,33.879,33.879,0,0,1,.256-3.65A2.086,2.086,0,0,1,2.353.431c.182-.008.372-.041.553-.058C4.1.258,5.284.167,6.473.117,7.753.068,9.025-.031,10.3.01c1.61.05,3.228.074,4.838.231.842.083,1.684.107,2.518.264a2.184,2.184,0,0,1,1.66,1.957c.1,1.5.206,3,.256,4.5l.05,1.263c.017.628.033,1.255.066,1.883.008.231-.083.314-.314.3-1.511-.116-3.03-.1-4.541-.14-.8-.025-1.61-.025-2.411-.05a1.9,1.9,0,0,1-1.577-1.263c-.058-.182.017-.215.173-.215h5.111A.626.626,0,0,0,16.522,8.679Z" transform="translate(2.671 2.434)"/><path class="r" d="M.059,0A.469.469,0,0,1,0,.314.452.452,0,0,1,.059,0Z" transform="translate(5.576 2.378)"/><path class="b" d="M0,1.016C0,.76.009.5,0,.24-.007.042.067-.007.249,0c.388.008.784,0,1.172,0a1.012,1.012,0,0,1,1.04,1,1.028,1.028,0,0,1-.974,1.04c-.429.025-.867,0-1.3.008-.157,0-.2-.066-.19-.206C.009,1.578,0,1.3,0,1.016Z" transform="translate(20.926 26.454)"/><path class="b" d="M0,.8C0,0,0,0,.793,0A3.309,3.309,0,0,1,1.2.01a.815.815,0,0,1,.76.826.8.8,0,0,1-.793.784c-.306.008-.619-.008-.925.008C.075,1.637-.008,1.587,0,1.406.017,1.2,0,1,0,.8Z" transform="translate(20.926 23.86)"/><path class="b" d="M2.32,0A2.32,2.32,0,1,1,0,2.32,2.322,2.322,0,0,1,2.32,0Z" transform="translate(13.569 23.862)"/><path class="c" d="M6.7.008h5.912c.116,0,.231,0,.339.008a.434.434,0,0,1,.421.421.443.443,0,0,1-.372.5,1.527,1.527,0,0,1-.339.017H.71C.628.95.545.95.462.941A.465.465,0,0,1,0,.462.428.428,0,0,1,.479.008C1.073,0,1.676,0,2.271,0,3.74.008,5.218.008,6.7.008Z" transform="translate(6.188 7.431)"/></g></g></g></svg>