<svg xmlns="http://www.w3.org/2000/svg" width="425.139" height="237.401" viewBox="0 0 425.139 237.401"><defs><style>.a{fill:#ebebeb;}.b{fill:#e0e0e0;}.c{fill:#f5f5f5;}.d{fill:#f6b333;}.e{fill:#263238;}.f{fill:#2a5798;}.g{fill:#fafafa;}.h{fill:#df9200;}.i{opacity:0.5;}.j{fill:#ffbe9d;}.k{opacity:0.3;}.l{opacity:0.2;}.m{opacity:0.6;}.n{fill:#fff;}.o{fill:#1c1b1b;}.p{fill:#455a64;}.q{fill:#eb996e;}.r{fill:#2e3b61;}.s{fill:#eaaa78;}.t{fill:#ebaf7f;}.u{fill:#d79662;}.v{fill:#e7f1fd;}.w{fill:#eebd94;}.x{fill:#d1e5ff;}</style></defs><g transform="translate(29.146 -46.313)"><g transform="translate(-29.146 52.961)"><g transform="translate(0 80.62)"><path class="a" d="M64.554,198.094s-4.554-.328-4.134,9.887a118.287,118.287,0,0,0,1.462,15.655s-.134,2.265-1.888,1.82-5.054-2.649-6.683-1c-1.691,1.708-1.089,4.329,1.153,7.417s6.905,10.031,7.325,10.661.577,1.776-.666,1.665-9.636-2.956-10.748,1.107,6.547,11.637,7.369,12.481.865,1.377.532,1.887-3.064-.711-5.485-1.423-5.351-1.112-5.8,1.286,2.929,9.416,15.562,16.792l6.077,3.034,5.752-3.669c11.832-8.6,14.486-15.922,13.8-18.264s-3.559-1.65-5.9-.7-4.932,2.439-5.315,1.964-.392-1.009.341-1.931,7.6-9.224,6.084-13.156-9.579-.262-10.8-.026-1.178-.934-.83-1.59,4.3-8.044,6.222-11.34,2.258-5.964.4-7.495c-1.787-1.477-4.849,1.047-6.55,1.665s-2.06-1.623-2.06-1.623a118.3,118.3,0,0,0-.112-15.723c-.6-10.205-5.211-9.381-5.211-9.381" transform="translate(-46.955 -198.078)"/><g transform="translate(17.957 9.164)"><path class="b" d="M78.185,214.016s.012.072.024.213.028.359.048.627c.039.562.093,1.373.164,2.412.139,2.095.319,5.128.526,8.876.416,7.5.9,17.857,1.4,29.3s.961,21.809,1.336,29.308c.19,3.741.344,6.771.451,8.879.052,1.04.092,1.852.12,2.415.011.268.019.477.025.628s0,.215,0,.215-.012-.072-.024-.213-.028-.359-.048-.627c-.039-.562-.093-1.373-.164-2.412-.139-2.095-.319-5.127-.526-8.875-.416-7.5-.9-17.858-1.4-29.306s-.961-21.8-1.335-29.3c-.19-3.741-.344-6.772-.452-8.879-.051-1.04-.092-1.852-.12-2.415-.011-.269-.02-.477-.025-.629S78.185,214.016,78.185,214.016Z" transform="translate(-78.183 -214.016)"/></g><g transform="translate(10.845 29.646)"><path class="b" d="M65.816,249.635a2.024,2.024,0,0,1,.378.315c.234.213.562.53.964.926.8.795,1.881,1.921,3.048,3.186l2.972,3.252.9.982a2.015,2.015,0,0,1,.317.375,2.014,2.014,0,0,1-.381-.312c-.233-.213-.562-.531-.96-.931-.795-.8-1.858-1.943-3.025-3.208l-2.994-3.229-.91-.978A1.95,1.95,0,0,1,65.816,249.635Z" transform="translate(-65.816 -249.635)"/></g><g transform="translate(20.031 28.249)"><path class="b" d="M81.791,257.439c-.045-.045,2.177-2.373,4.964-5.2s5.084-5.08,5.13-5.035-2.176,2.372-4.964,5.2S81.837,257.484,81.791,257.439Z" transform="translate(-81.791 -247.205)"/></g><g transform="translate(20.007 49.448)"><path class="b" d="M81.749,290.718a2.073,2.073,0,0,1,.424-.269l1.189-.668c1-.564,2.386-1.347,3.88-2.266s2.823-1.79,3.78-2.43l1.134-.757a2.058,2.058,0,0,1,.432-.255,2.086,2.086,0,0,1-.379.329c-.254.2-.625.481-1.093.818-.933.676-2.25,1.576-3.752,2.494s-2.9,1.684-3.924,2.211c-.513.262-.932.469-1.225.6A2.061,2.061,0,0,1,81.749,290.718Z" transform="translate(-81.749 -284.073)"/></g><g transform="translate(9.938 49.929)"><path class="b" d="M64.239,284.911a1.766,1.766,0,0,1,.42.2c.263.14.639.349,1.1.612.925.526,2.195,1.266,3.59,2.1s2.652,1.593,3.556,2.155c.452.281.815.512,1.064.676a1.792,1.792,0,0,1,.374.275,1.764,1.764,0,0,1-.42-.2c-.263-.14-.639-.349-1.1-.612-.925-.526-2.2-1.266-3.591-2.1s-2.652-1.592-3.556-2.154c-.451-.281-.815-.512-1.064-.676A1.791,1.791,0,0,1,64.239,284.911Z" transform="translate(-64.238 -284.909)"/></g><g transform="translate(7.941 65.475)"><path class="b" d="M60.766,311.945a2.881,2.881,0,0,1,.535.258l1.415.78c1.189.668,2.824,1.6,4.622,2.65s3.421,2.006,4.589,2.709l1.377.844a2.877,2.877,0,0,1,.489.337,2.91,2.91,0,0,1-.534-.259l-1.415-.78c-1.189-.668-2.824-1.6-4.623-2.65s-3.42-2.005-4.588-2.709l-1.377-.844A2.921,2.921,0,0,1,60.766,311.945Z" transform="translate(-60.766 -311.944)"/></g><g transform="translate(20.707 63.982)"><path class="b" d="M82.967,318.152a3.388,3.388,0,0,1,.528-.354l1.477-.9c1.247-.76,2.965-1.814,4.83-3.031s3.529-2.358,4.727-3.192l1.42-.987a3.378,3.378,0,0,1,.537-.34,3.281,3.281,0,0,1-.484.413c-.32.254-.79.614-1.378,1.048-1.175.869-2.825,2.036-4.7,3.253s-3.6,2.254-4.874,2.978c-.635.361-1.153.647-1.516.836A3.312,3.312,0,0,1,82.967,318.152Z" transform="translate(-82.967 -309.347)"/></g><g transform="translate(13.028 83.275)"><path class="b" d="M86.426,342.9H69.612l5.488,41.54h5.838Z" transform="translate(-69.612 -342.899)"/><g transform="translate(0.871 3.394)"><path class="c" d="M71.128,350.514c-.006,0,.019.059.09.148a1.06,1.06,0,0,0,.405.29,2.035,2.035,0,0,0,1.776-.218,13.487,13.487,0,0,1,2.18-1.435,4.774,4.774,0,0,1,3.091.062,13.2,13.2,0,0,1,2.879,1.395,20.06,20.06,0,0,0,2.341,1.256,6.468,6.468,0,0,0,1.727.5,3.193,3.193,0,0,0,.488.033c.112,0,.17,0,.171-.014a8.74,8.74,0,0,1-2.306-.695,23,23,0,0,1-2.29-1.3,12.782,12.782,0,0,0-2.928-1.44,4.933,4.933,0,0,0-3.263-.036,4.283,4.283,0,0,0-1.228.76,9.665,9.665,0,0,1-.963.746,1.974,1.974,0,0,1-1.637.284A1.685,1.685,0,0,1,71.128,350.514Z" transform="translate(-71.127 -348.801)"/></g><g transform="translate(1.484 9.708)"><path class="c" d="M72.195,362.832c.022.014.133-.171.4-.446a3.739,3.739,0,0,1,1.343-.852,6.01,6.01,0,0,1,2.338-.352,24.606,24.606,0,0,1,2.926.4,10.044,10.044,0,0,0,3,.124,8.238,8.238,0,0,0,2.358-.673,7.462,7.462,0,0,0,1.417-.843,2,2,0,0,0,.449-.4,14.943,14.943,0,0,1-1.944,1.069,8.623,8.623,0,0,1-2.31.6,10.325,10.325,0,0,1-2.922-.144,22.038,22.038,0,0,0-2.961-.38,5.914,5.914,0,0,0-2.419.425,3.528,3.528,0,0,0-1.349.96,2.4,2.4,0,0,0-.255.373C72.209,362.778,72.187,362.827,72.195,362.832Z" transform="translate(-72.193 -359.783)"/></g><g transform="translate(2.438 15.694)"><path class="c" d="M86.323,371.351a1.42,1.42,0,0,0-.463-.241,4.969,4.969,0,0,0-1.393-.3,8.876,8.876,0,0,0-2.107.12c-.784.127-1.624.344-2.507.531a10.566,10.566,0,0,1-2.5.282,5.452,5.452,0,0,1-1.988-.43,4.593,4.593,0,0,1-1.508-1.122,1.3,1.3,0,0,0,.285.439,3.566,3.566,0,0,0,1.141.86,5.375,5.375,0,0,0,2.059.507,10.153,10.153,0,0,0,2.571-.267c.892-.19,1.727-.413,2.494-.551A9.665,9.665,0,0,1,84.455,371,7.733,7.733,0,0,1,86.323,371.351Z" transform="translate(-73.851 -370.191)"/></g><g transform="translate(2.971 21.637)"><path class="c" d="M74.78,381.5a2.728,2.728,0,0,1,1.632-.164,7.867,7.867,0,0,1,1.708.637,6.491,6.491,0,0,0,2.217.611,6.646,6.646,0,0,0,4.022-.932,5.707,5.707,0,0,0,1-.769c.2-.218.309-.343.3-.357a14.6,14.6,0,0,1-1.394.959,6.9,6.9,0,0,1-3.9.826c-1.592-.091-2.814-1.04-3.918-1.166a2.5,2.5,0,0,0-1.268.11A.835.835,0,0,0,74.78,381.5Z" transform="translate(-74.779 -380.527)"/></g><g transform="translate(3.908 28.265)"><path class="c" d="M76.409,394.376a3.223,3.223,0,0,0,1.4-.279c.845-.282,1.891-.93,3.113-1.416a5.062,5.062,0,0,1,1.787-.374,3.285,3.285,0,0,1,1.436.328,3.177,3.177,0,0,1,1.039.9.77.77,0,0,0-.16-.354,2.3,2.3,0,0,0-.788-.713,3.293,3.293,0,0,0-1.524-.409,5,5,0,0,0-1.888.371c-1.266.5-2.279,1.171-3.086,1.491C76.943,394.261,76.4,394.332,76.409,394.376Z" transform="translate(-76.409 -392.053)"/></g><g transform="translate(4.732 34.286)"><path class="c" d="M77.842,402.536a3.919,3.919,0,0,0,1.065.346,19.571,19.571,0,0,0,5.359.527,3.923,3.923,0,0,0,1.112-.132c0-.083-1.7-.01-3.782-.22S77.863,402.456,77.842,402.536Z" transform="translate(-77.842 -402.526)"/></g></g></g><g transform="translate(324.433 93.688)"><g transform="translate(0 0)"><rect class="c" width="52.45" height="35.353" transform="matrix(0.975, -0.223, 0.223, 0.975, 0, 11.685)"/></g><g transform="translate(0.258 0.377)"><path class="b" d="M585.426,221.46a3.63,3.63,0,0,1-.371.568l-1.139,1.573-4.261,5.736L565.42,248.2l-.117.155-.176-.085-.425-.2L543.157,237.6l-6.505-3.22-1.758-.9a3.754,3.754,0,0,1-.6-.342,3.715,3.715,0,0,1,.641.255l1.8.817L543.3,237.3l21.605,10.335.426.2-.293.071,14.348-18.777,4.382-5.646,1.209-1.519A3.629,3.629,0,0,1,585.426,221.46Z" transform="translate(-534.294 -221.459)"/></g><g transform="translate(8.131 21.717)"><path class="b" d="M547.989,283.381c-.117-.06,2.649-5.663,6.176-12.513s6.483-12.357,6.6-12.3-2.648,5.662-6.177,12.514S548.106,283.441,547.989,283.381Z" transform="translate(-547.986 -258.571)"/></g><g transform="translate(37.807 17.4)"><path class="b" d="M599.6,251.066c.083-.1,4.954,3.719,10.878,8.534s10.663,8.8,10.58,8.9-4.953-3.719-10.88-8.536S599.513,251.168,599.6,251.066Z" transform="translate(-599.595 -251.064)"/></g></g><g transform="translate(143.111 0)"><g transform="translate(0)"><rect class="c" width="20.844" height="30.925" transform="matrix(0.225, -0.974, 0.974, 0.225, 0, 20.31)"/></g><g transform="translate(4.73 0.266)"><path class="b" d="M256.869,65.3a2.12,2.12,0,0,1-.343.206l-1.009.541-3.737,1.946-12.4,6.344-.1.052-.071-.09-.173-.219-8.737-11.093L227.669,59.6l-.7-.928a2.255,2.255,0,0,1-.23-.336,2.25,2.25,0,0,1,.274.3l.743.9,2.693,3.326,8.8,11.042.173.218-.173-.038,12.443-6.269,3.777-1.867,1.033-.495A2.159,2.159,0,0,1,256.869,65.3Z" transform="translate(-226.737 -58.337)"/></g><g transform="translate(0.04 10.701)"><path class="b" d="M218.582,86.359c-.047-.062,2.862-2.322,6.5-5.049s6.618-4.887,6.665-4.825-2.861,2.323-6.5,5.049S218.628,86.421,218.582,86.359Z" transform="translate(-218.581 -76.484)"/></g><g transform="translate(23.273 12.761)"><path class="b" d="M258.988,80.067c.071-.033,1.671,3.248,3.575,7.327s3.391,7.413,3.321,7.446-1.671-3.247-3.575-7.327S258.918,80.1,258.988,80.067Z" transform="translate(-258.986 -80.067)"/></g></g><g transform="translate(316.781 5.069)"><g transform="translate(0 0)"><rect class="c" width="23.963" height="16.152" transform="matrix(0.919, -0.395, 0.395, 0.919, 0, 9.461)"/></g><g transform="translate(0.147 0.148)"><path class="b" d="M542.809,66.946a1.614,1.614,0,0,1-.12.286l-.382.8-1.443,2.929-4.844,9.648-.04.08-.086-.024-.208-.057-10.543-2.927-3.188-.911-.864-.258a1.7,1.7,0,0,1-.3-.1,1.748,1.748,0,0,1,.309.062l.875.219,3.206.844,10.56,2.866.208.058-.126.056,4.9-9.619,1.5-2.9.419-.782A1.717,1.717,0,0,1,542.809,66.946Z" transform="translate(-520.793 -66.946)"/></g><g transform="translate(6.521 12.248)"><path class="b" d="M531.881,100.189c-.058-.017.724-2.763,1.745-6.131s1.9-6.087,1.954-6.069-.724,2.762-1.746,6.132S531.938,100.206,531.881,100.189Z" transform="translate(-531.878 -87.988)"/></g><g transform="translate(17.461 8.916)"><path class="b" d="M550.9,82.195c.029-.052,2.532,1.264,5.591,2.939s5.516,3.078,5.487,3.131-2.532-1.263-5.591-2.94S550.875,82.248,550.9,82.195Z" transform="translate(-550.904 -82.193)"/></g></g></g><g transform="translate(324.92 147.862)"><g transform="translate(0)"><g transform="translate(2.02 57.546)"><path class="d" d="M600.754,325.731a18.21,18.21,0,0,0-7.79-2.681,5.192,5.192,0,0,0-3.685.677.757.757,0,0,0-.379.673.821.821,0,0,0,.36.461,11.138,11.138,0,0,0,11.494.871" transform="translate(-588.893 -322.992)"/></g><g transform="translate(5.402 47.852)"><path class="d" d="M603.053,318.346a38.018,38.018,0,0,1-5.031-4.426,12.726,12.726,0,0,1-3.154-5.834,2.351,2.351,0,0,1,.249-1.952c4.011,3.132,7.161,7.183,7.936,12.212" transform="translate(-594.774 -306.134)"/></g><g transform="translate(13.584 48.199)"><path class="d" d="M609.259,318.792a18.189,18.189,0,0,1,.093-6.606,8.93,8.93,0,0,1,3.518-5.451,7.8,7.8,0,0,1-.093,5.179,25.166,25.166,0,0,1-3.489,7.346" transform="translate(-609.003 -306.736)"/></g><g transform="translate(7.95 67.3)"><path class="d" d="M609.027,339.955a11.511,11.511,0,0,0-6.247,3.161,11.819,11.819,0,0,0-3.574,6.135c2.341-.145,4.327-1.8,5.768-3.647s2.439-3.882,4.021-5.613" transform="translate(-599.206 -339.955)"/></g><g transform="translate(17.551 53.852)"><path class="d" d="M616.976,331.142a15.407,15.407,0,0,1,1.779-14.574,18.551,18.551,0,0,1-1.779,14.574" transform="translate(-615.902 -316.568)"/></g><g transform="translate(13.005 74.591)"><path class="d" d="M618.811,352.656a11.144,11.144,0,0,0-10.653,6.133c-.132.264-.248.6-.071.835a.791.791,0,0,0,.706.208,9.269,9.269,0,0,0,5.5-2.838,52.584,52.584,0,0,1,4.57-4.344" transform="translate(-607.996 -352.635)"/></g><g transform="translate(22.762 59.514)"><path class="d" d="M625.857,341.176a19.843,19.843,0,0,1-.2-11.083,5.407,5.407,0,0,1,2.366-3.6.463.463,0,0,1,.362-.063.476.476,0,0,1,.229.265,6.677,6.677,0,0,1,.558,3.179,19.908,19.908,0,0,1-.5,3.219c-.415,1.968-.637,4.082-1.715,5.778a11.711,11.711,0,0,0-.686,1.269c-.2.431-.206.583-.393.926" transform="translate(-624.965 -326.414)"/></g><g transform="translate(37.023 64.115)"><path class="d" d="M650.147,346.625a14.292,14.292,0,0,1,2.5-11.75c.18-.233.418-.484.712-.457.45.041.566.641.546,1.092a21.226,21.226,0,0,1-3.763,11.115" transform="translate(-649.765 -334.416)"/></g><g transform="translate(38.644 73.109)"><path class="d" d="M652.585,354.12a17.089,17.089,0,0,0,14.025-2.853,11.356,11.356,0,0,0-7.592-.932,10.837,10.837,0,0,0-6.433,3.784" transform="translate(-652.585 -350.057)"/></g><g transform="translate(39.69 67.231)"><path class="d" d="M654.4,347.2a16.208,16.208,0,0,1,12.729-7.36,7.84,7.84,0,0,1-4.163,4.6,23.118,23.118,0,0,1-6.11,1.787,4.307,4.307,0,0,0-2.455.971" transform="translate(-654.404 -339.835)"/></g><g transform="translate(35.838 47.242)"><path class="d" d="M649.533,319.9a36.975,36.975,0,0,0,1.628-7.454,12.414,12.414,0,0,0-1.485-7.374,16.231,16.231,0,0,0-.217,15.084" transform="translate(-647.705 -305.073)"/></g><g transform="translate(45.959 47.877)"><path class="d" d="M665.306,316.179c2.88-5.235,8.757-9.416,14.7-10-2.294,5.712-8.549,10.126-14.7,10" transform="translate(-665.306 -306.177)"/></g><g transform="translate(44.147 58.047)"><path class="d" d="M662.155,324.721c4.3.654,7.955,3.4,11.97,5.061a5.367,5.367,0,0,0,2.706.518,2.118,2.118,0,0,0,1.326-3.747,5.791,5.791,0,0,0-1.966-1.192,21.842,21.842,0,0,0-13.667-.762" transform="translate(-662.155 -323.863)"/></g><g transform="translate(41.661 61.711)"><path class="d" d="M657.832,330.443a5.07,5.07,0,0,1,2.075,1.438,22.383,22.383,0,0,0,9.077,4.663c.347.086.8.121.974-.193.15-.274-.04-.6-.235-.849a12.493,12.493,0,0,0-5.48-3.72c-2.095-.78-3.91-1.721-6.41-1.519" transform="translate(-657.832 -330.235)"/></g><g transform="translate(38.856 43.257)"><path class="d" d="M652.953,298.607a17.178,17.178,0,0,0,13.17,4.481.905.905,0,0,0,.6-.215c.331-.361-.067-.918-.453-1.218a15.173,15.173,0,0,0-13.317-3.048" transform="translate(-652.953 -298.142)"/></g><g transform="translate(42.182 38.928)"><path class="d" d="M658.737,294.191a18.356,18.356,0,0,1,16.434-2.712,13.049,13.049,0,0,1-7.831,3.438,24.791,24.791,0,0,1-8.6-.726" transform="translate(-658.737 -290.614)"/></g><g transform="translate(38.64 22.52)"><path class="d" d="M654.8,273.7c-.381-3.865-.134-6.916-.4-10.8-.021-.311-.088-.684-.378-.8-.4-.156-.741.341-.874.753a12.379,12.379,0,0,0,1.648,10.755" transform="translate(-652.578 -262.079)"/></g><g transform="translate(40.582 22.42)"><path class="d" d="M655.955,274.055a22.726,22.726,0,0,0,6.4-6.222c1.265-1.73,2.331-3.8,2.044-5.927a6.128,6.128,0,0,0-4.618,2.293,12.88,12.88,0,0,0-2.354,4.736c-.513,1.7-.872,3.448-1.473,5.119" transform="translate(-655.955 -261.905)"/></g><g transform="translate(46.79 23.143)"><path class="d" d="M666.833,272.842a51.62,51.62,0,0,0,15.755-9.29,8.041,8.041,0,0,0-5.918.455,18.662,18.662,0,0,0-9.919,8.793" transform="translate(-666.751 -263.162)"/></g><g transform="translate(42.351 32.127)"><path class="d" d="M659.031,283.343a32.05,32.05,0,0,0,8.748.043,37.148,37.148,0,0,0,8.167-2.714.958.958,0,0,0,.555-.421.64.64,0,0,0-.2-.7,1.686,1.686,0,0,0-.7-.326,15.118,15.118,0,0,0-8.826.527,40.937,40.937,0,0,0-7.749,3.59" transform="translate(-659.031 -278.786)"/></g><g transform="translate(24.286 31.046)"><path class="d" d="M629.073,289.714a15.474,15.474,0,0,1-.141-12.807,9.783,9.783,0,0,1,1.133,6.368c-.221,2.188-.887,4.44-.93,6.639" transform="translate(-627.615 -276.907)"/></g><g transform="translate(4.543 39.853)"><path class="d" d="M606.554,292.225a17.864,17.864,0,0,0-13.274,5.655,12.4,12.4,0,0,0,7.268-1.347,37,37,0,0,0,6.229-4.169" transform="translate(-593.28 -292.222)"/></g><g transform="translate(0 37.84)"><path class="d" d="M597.867,288.955c-2.424-.2-4.755-.5-7.086.217a8.5,8.5,0,0,0-5.4,4.579,12.8,12.8,0,0,0,6.643-1.255,38.211,38.211,0,0,0,5.844-3.542" transform="translate(-585.38 -288.722)"/></g><g transform="translate(6.169 34.434)"><path class="d" d="M610.318,286.52a22.352,22.352,0,0,0-6.958-3.475c-2.538-.592-5.481-.155-7.25,1.759,2.055,1.206,4.548,1.348,6.931,1.347s5.3-.029,7.55.766" transform="translate(-596.109 -282.799)"/></g><g transform="translate(16.161 23.031)"><path class="d" d="M617.715,278.207c-3.727-3.661-5.14-10.235-3.64-15.24a23.221,23.221,0,0,1,3.64,15.24" transform="translate(-613.484 -262.967)"/></g><g transform="translate(30.64 15.873)"><path class="d" d="M638.666,262.545c.7-1.634,1.2-3.349,1.828-5.012a14.412,14.412,0,0,1,2.606-4.621,6.863,6.863,0,0,1,4.617-2.393,18.6,18.6,0,0,1-8.959,12.053" transform="translate(-638.666 -250.519)"/></g><g transform="translate(19.144 23.492)"><path class="d" d="M628.314,270.338c-1.163-1.6-2.507-3.775-4.085-4.97a6.835,6.835,0,0,0-5.557-1.459,12.944,12.944,0,0,0,9.642,6.43" transform="translate(-618.672 -263.769)"/></g><g transform="translate(27.184 16.023)"><path class="d" d="M634.627,262.79a27.632,27.632,0,0,1-1.838-5.955,9.287,9.287,0,0,1,.932-6.055c2.046,3.868,2.7,8.019,1.011,12.054" transform="translate(-632.654 -250.78)"/></g><g transform="translate(30.659 7.826)"><path class="d" d="M638.7,244.722c1.159-3.834,4.67-6.657,8.46-7.952a3.16,3.16,0,0,1,1.484-.223,1.287,1.287,0,0,1,1.093.913c.138.652-.4,1.237-.907,1.67a28.8,28.8,0,0,1-10.13,5.593" transform="translate(-638.698 -236.525)"/></g><g transform="translate(30.64)"><path class="d" d="M638.726,235.8a27.487,27.487,0,0,1,1.106-7.322,9.256,9.256,0,0,1,4.608-5.565c.383,2.5-.718,4.981-2.047,7.13s-2.93,4.176-3.728,6.573" transform="translate(-638.666 -222.915)"/></g><g transform="translate(23.451 1.148)"><path class="d" d="M633.353,238.352c-.958-2.794-1.057-6.344-2.73-8.778-1.17-1.7-3.043-2.861-4.05-4.663a7.094,7.094,0,0,0,.236,5.294,15.309,15.309,0,0,0,3.1,4.432c1.238,1.323,2.3,2.317,3.45,3.716" transform="translate(-626.163 -224.911)"/></g><g transform="translate(30.515 13.615)"><path class="e" d="M638.592,329.856c-.074,0-.139-18.64-.144-41.63s.051-41.634.125-41.634.139,18.636.144,41.634S638.666,329.856,638.592,329.856Z" transform="translate(-638.448 -246.593)"/></g><g transform="translate(30.635 41.038)"><path class="e" d="M654.97,294.286a4,4,0,0,1-.7.263l-1.929.651c-1.626.554-3.86,1.356-6.285,2.35-2.4,1.03-4.665,1.866-5.955,2.983a4.368,4.368,0,0,0-1.2,1.583c-.185.438-.218.7-.243.7a.538.538,0,0,1,.008-.2,2.931,2.931,0,0,1,.137-.543,4.2,4.2,0,0,1,1.167-1.688,10.48,10.48,0,0,1,2.584-1.6c1.033-.482,2.179-.986,3.395-1.485,2.432-1,4.684-1.773,6.329-2.282.822-.256,1.492-.446,1.957-.57A3.93,3.93,0,0,1,654.97,294.286Z" transform="translate(-638.657 -294.283)"/></g><g transform="translate(31.917 27.925)"><path class="e" d="M661.258,271.48a1.148,1.148,0,0,1-.2.21l-.6.562-2.233,2.028L650.8,280.9c-2.9,2.582-5.409,5.05-7.146,6.908-.87.928-1.555,1.7-2.022,2.233l-.541.617a1.12,1.12,0,0,1-.2.2,1.151,1.151,0,0,1,.159-.239c.113-.15.277-.373.5-.65.443-.558,1.108-1.348,1.962-2.295a94.134,94.134,0,0,1,7.107-6.98c2.911-2.577,5.56-4.891,7.486-6.56l2.29-1.964.631-.524A1.13,1.13,0,0,1,661.258,271.48Z" transform="translate(-640.887 -271.479)"/></g><g transform="translate(38.69 33.516)"><path class="e" d="M652.671,287.655c-.076-.034.53-1.434,1.134-3.2s.9-3.263.974-3.25a10.937,10.937,0,0,1-.718,3.337,21.645,21.645,0,0,1-.9,2.24A3.491,3.491,0,0,1,652.671,287.655Z" transform="translate(-652.665 -281.202)"/></g><g transform="translate(19.872 37.64)"><path class="e" d="M630.743,301.986a3.332,3.332,0,0,1-.447-.519L629.15,300c-.962-1.243-2.292-2.96-3.783-4.838s-2.861-3.564-3.854-4.783l-1.17-1.449a3.254,3.254,0,0,1-.4-.553,3.408,3.408,0,0,1,.484.485c.3.324.721.8,1.236,1.394,1.031,1.189,2.426,2.857,3.919,4.738s2.8,3.618,3.724,4.892c.462.637.83,1.157,1.077,1.521A3.355,3.355,0,0,1,630.743,301.986Z" transform="translate(-619.938 -288.374)"/></g><g transform="translate(25.251 41.032)"><path class="e" d="M631.147,299.907a6.564,6.564,0,0,1-1.5-2.8,8,8,0,0,1-.339-2.824l.119.009c-.053.216-.092.33-.113.327s-.022-.124,0-.346l.119.01a12.877,12.877,0,0,0,.477,2.747A20.89,20.89,0,0,0,631.147,299.907Z" transform="translate(-629.293 -294.272)"/></g><g transform="translate(14.425 39.721)"><path class="e" d="M618.534,293.138a4.816,4.816,0,0,0-1.044-.607,6.982,6.982,0,0,0-2.9-.231,17.97,17.97,0,0,0-2.92.471,8.835,8.835,0,0,1-1.2.289,4.192,4.192,0,0,1,1.151-.472,13.382,13.382,0,0,1,2.951-.557,6.338,6.338,0,0,1,2.992.323A1.852,1.852,0,0,1,618.534,293.138Z" transform="translate(-610.466 -291.993)"/></g><g transform="translate(10.063 37.747)"><path class="e" d="M614.218,290.274c-.021.042-.609-.244-1.6-.583a16.115,16.115,0,0,0-8.066-.615c-1.032.185-1.657.378-1.671.334a1.519,1.519,0,0,1,.424-.181,10.01,10.01,0,0,1,1.209-.339,14.226,14.226,0,0,1,8.168.623,9.956,9.956,0,0,1,1.144.519A1.531,1.531,0,0,1,614.218,290.274Z" transform="translate(-602.881 -288.56)"/></g><g transform="translate(28.559 25.34)"><path class="e" d="M637.127,275.159a66.065,66.065,0,0,1-2.073-8.176,66.065,66.065,0,0,1,2.073,8.176Z" transform="translate(-635.046 -266.984)"/></g><g transform="translate(27.516 29.119)"><path class="e" d="M636.431,277.952a19.433,19.433,0,0,0-1.294-2.428,10.68,10.68,0,0,0-1.9-1.965,1.773,1.773,0,0,1,.735.379,5.933,5.933,0,0,1,1.39,1.431A5.379,5.379,0,0,1,636.431,277.952Z" transform="translate(-633.232 -273.556)"/></g><g transform="translate(13.582 59.735)"><path class="e" d="M626.077,354c-.029,0-.083-.448-.294-1.24a17.654,17.654,0,0,0-1.245-3.227,44.675,44.675,0,0,0-6.609-9.311c-1.475-1.686-2.907-3.276-4.122-4.8a33.718,33.718,0,0,1-2.948-4.251,20.392,20.392,0,0,1-1.488-3.155c-.137-.389-.237-.692-.292-.9A1.539,1.539,0,0,1,609,326.8c.024-.008.16.426.467,1.186a23.14,23.14,0,0,0,1.554,3.1A35.659,35.659,0,0,0,614,335.272c1.22,1.507,2.653,3.089,4.132,4.778a42.327,42.327,0,0,1,6.578,9.406,16.068,16.068,0,0,1,1.176,3.284,9.218,9.218,0,0,1,.165.935A1.452,1.452,0,0,1,626.077,354Z" transform="translate(-609 -326.798)"/></g><g transform="translate(30.657 70.314)"><path class="e" d="M653.417,345.2a6.826,6.826,0,0,1-.771.433,16.824,16.824,0,0,0-2,1.323,22.95,22.95,0,0,0-2.628,2.4c-.922.974-1.873,2.106-2.842,3.318-1.939,2.432-3.752,4.585-4.838,6.3-.551.852-.952,1.571-1.214,2.075a6.572,6.572,0,0,1-.425.777.775.775,0,0,1,.072-.219c.057-.139.135-.347.259-.6a19.732,19.732,0,0,1,1.148-2.13,69.568,69.568,0,0,1,4.789-6.371c.972-1.214,1.934-2.348,2.873-3.321a21.349,21.349,0,0,1,2.693-2.378,14.114,14.114,0,0,1,2.067-1.263c.256-.128.465-.207.6-.266A.731.731,0,0,1,653.417,345.2Z" transform="translate(-638.695 -345.196)"/></g><g transform="translate(35.494 75.689)"><path class="e" d="M657.279,354.564a11.233,11.233,0,0,1-1.63.237,21.51,21.51,0,0,0-3.868.761,11.626,11.626,0,0,0-3.462,1.818c-.8.616-1.175,1.126-1.212,1.1a1.231,1.231,0,0,1,.241-.375,6.156,6.156,0,0,1,.849-.869,10.478,10.478,0,0,1,3.5-1.926,17.462,17.462,0,0,1,3.931-.7A8.983,8.983,0,0,1,657.279,354.564Z" transform="translate(-647.106 -354.544)"/></g><g transform="translate(35.964 73.505)"><path class="e" d="M647.931,356.27c-.085-.048.65-1.171,1.22-2.68.535-1.524.66-2.86.756-2.844a2.584,2.584,0,0,1-.028.875,9.36,9.36,0,0,1-.476,2.061,9.966,9.966,0,0,1-.945,1.89A2.623,2.623,0,0,1,647.931,356.27Z" transform="translate(-647.924 -350.746)"/></g><g transform="translate(30.664 55.833)"><path class="e" d="M658.189,320.015a1.219,1.219,0,0,1-.261.139l-.766.348c-.336.144-.743.327-1.2.569s-1,.482-1.558.819l-.889.505c-.309.178-.614.388-.939.591-.656.4-1.313.888-2.014,1.388A34.572,34.572,0,0,0,642.8,332.4c-.476.718-.944,1.392-1.318,2.06-.192.332-.392.644-.559.958l-.475.906c-.317.571-.543,1.117-.765,1.585s-.4.88-.527,1.221l-.322.777a1.223,1.223,0,0,1-.129.266,1.209,1.209,0,0,1,.079-.284l.275-.8c.118-.347.273-.768.487-1.243s.425-1.03.733-1.61l.462-.92c.163-.319.36-.636.549-.972.369-.679.833-1.362,1.306-2.089a33.292,33.292,0,0,1,7.813-8.085c.711-.5,1.377-.984,2.042-1.377.329-.2.639-.408.952-.582l.9-.493c.569-.327,1.115-.562,1.584-.788s.883-.4,1.226-.529l.788-.3A1.191,1.191,0,0,1,658.189,320.015Z" transform="translate(-638.706 -320.013)"/></g><g transform="translate(38.494 61.694)"><path class="e" d="M652.326,332.152a1.873,1.873,0,0,1,.641-.954,4.044,4.044,0,0,1,2.581-.991,7.069,7.069,0,0,1,2.716.531,3.848,3.848,0,0,1,1.027.5,6.294,6.294,0,0,1-1.09-.319,8.189,8.189,0,0,0-2.645-.441,4.2,4.2,0,0,0-2.466.865A7.533,7.533,0,0,0,652.326,332.152Z" transform="translate(-652.323 -330.206)"/></g><g transform="translate(36.749 60.563)"><path class="e" d="M649.3,333.113a6.9,6.9,0,0,0,.569-4.874,1.586,1.586,0,0,1,.3.695,4.928,4.928,0,0,1-.417,3.573C649.523,332.918,649.322,333.131,649.3,333.113Z" transform="translate(-649.29 -328.238)"/></g><g transform="translate(17.785 89.613)"><path class="f" d="M616.309,378.758c.4,7.124,2.548,14.369,5.85,21.693h14.358a62.373,62.373,0,0,0,5.5-21.693Z" transform="translate(-616.309 -378.758)"/></g><g transform="translate(20.052 101.005)"><path class="g" d="M641.369,398.705c0,.074-4.728.135-10.558.135s-10.559-.06-10.559-.135,4.727-.135,10.559-.135S641.369,398.63,641.369,398.705Z" transform="translate(-620.252 -398.57)"/></g><g transform="translate(21.051 103.586)"><path class="g" d="M641.787,403.194c0,.074-4.432.135-9.9.135s-9.9-.06-9.9-.135,4.431-.135,9.9-.135S641.787,403.119,641.787,403.194Z" transform="translate(-621.99 -403.059)"/></g></g></g><g transform="translate(69.716 109.559)"><g transform="translate(8.641)"><rect class="f" width="221.104" height="146.214" rx="14.567"/></g><g transform="translate(0 136.771)"><path class="f" d="M0,0H239.55a0,0,0,0,1,0,0V0a12.794,12.794,0,0,1-12.794,12.794H12.794A12.794,12.794,0,0,1,0,0V0A0,0,0,0,1,0,0Z"/></g><g transform="translate(14.576 5.809)"><rect class="e" width="208.616" height="123.476"/></g><g transform="translate(97.397 135.4)"><path class="e" d="M330.245,391.773l2.973,4.728h41.828l2.76-4.728Z" transform="translate(-330.245 -391.773)"/></g><g transform="translate(14.921 5.64)"><g transform="translate(0.223)"><path class="a" d="M3.272,0H204.893a3.273,3.273,0,0,1,3.273,3.273V120.2a3.273,3.273,0,0,1-3.273,3.273H3.272A3.272,3.272,0,0,1,0,120.2V3.272A3.272,3.272,0,0,1,3.272,0Z"/></g><g transform="translate(0 9.228)"><path class="g" d="M401.479,303.557H193.313l.223-114.43H401.479Z" transform="translate(-193.313 -189.127)"/></g><g transform="translate(13.971 3.106)"><path class="e" d="M220.033,180.538a1.662,1.662,0,1,1-1.662-1.662A1.663,1.663,0,0,1,220.033,180.538Z" transform="translate(-216.709 -178.876)"/></g><g transform="translate(3.895 3.106)"><path class="e" d="M203.16,180.538a1.662,1.662,0,1,1-1.662-1.662A1.662,1.662,0,0,1,203.16,180.538Z" transform="translate(-199.835 -178.876)"/></g><g transform="translate(8.731 3.106)"><path class="e" d="M211.259,180.538a1.662,1.662,0,1,1-1.662-1.662A1.663,1.663,0,0,1,211.259,180.538Z" transform="translate(-207.934 -178.876)"/></g></g><g transform="translate(8.641 135.257)"><path class="e" d="M395.1,391.667c0,.079-49.074.144-109.6.144-60.543,0-109.607-.064-109.607-.144s49.064-.143,109.607-.143C346.022,391.524,395.1,391.588,395.1,391.667Z" transform="translate(-175.892 -391.524)"/></g><g transform="translate(82.554 29.615)"><g transform="translate(0.001 31.542)"><path class="d" d="M304.94,263.421l81.552-.762L388.88,318.1l-84.447-.607Z" transform="translate(-304.433 -262.659)"/></g><g transform="translate(0.508)"><path class="h" d="M305.314,240.109,343.846,208.8a4.432,4.432,0,0,1,5.6.006l37.421,30.543" transform="translate(-305.314 -207.805)"/></g><g transform="translate(0 54.817)"><path class="e" d="M304.432,334.695c-.1-.1,6.412-7.237,14.548-15.951s14.816-15.7,14.918-15.607-6.41,7.236-14.549,15.952S304.534,334.79,304.432,334.695Z" transform="translate(-304.431 -303.136)"/></g><g transform="translate(56.358 55.507)"><path class="e" d="M430.532,335.812c-.1.093-6.477-6.878-14.232-15.569s-13.96-15.814-13.856-15.907,6.475,6.877,14.233,15.57S430.636,335.719,430.532,335.812Z" transform="translate(-402.442 -304.335)"/></g><g class="i" transform="translate(0.508 31.542)"><path d="M386.866,262.659l-40.884,32.8-40.668-32.038" transform="translate(-305.314 -262.659)"/></g><g transform="translate(4.344 8.711)"><g transform="translate(0.097 0.151)"><path class="g" d="M312.334,249.679l-.18-25.471,71.408-.993.861,26.8-35.539,28.254Z" transform="translate(-312.154 -223.216)"/></g><path class="e" d="M312.262,249.567s.236.17.677.509l1.947,1.5,7.391,5.74,26.61,20.742h-.152l35.523-28.274-.056.12c-.165-5.112-.338-10.476-.513-15.933-.118-3.674-.234-7.305-.348-10.864l.151.144-71.409.94.095-.1c.037,8.008.066,14.367.086,18.734,0,2.179.008,3.859.01,5q0,.846,0,1.293c0,.291-.009.442-.009.442s-.009-.143-.015-.431-.012-.722-.021-1.282c-.014-1.141-.034-2.816-.06-4.99-.042-4.374-.1-10.744-.179-18.767V224h.1l71.408-1.045.146,0,0,.146c.115,3.56.232,7.191.35,10.864.175,5.458.347,10.821.51,15.934l0,.074-.058.047-35.555,28.234-.076.06-.076-.06L322.16,257.394l-7.338-5.782-1.915-1.519C312.475,249.748,312.262,249.567,312.262,249.567Z" transform="translate(-311.985 -222.953)"/></g><g transform="translate(15.808 21.659)"><path class="e" d="M380.7,245.522c0,.083-10.92.239-24.388.348s-24.392.132-24.393.049,10.918-.239,24.391-.348S380.7,245.439,380.7,245.522Z" transform="translate(-331.923 -245.472)"/></g><g transform="translate(15.823 28.854)"><path class="e" d="M380.731,258.034c0,.083-10.92.239-24.388.348s-24.392.132-24.393.049,10.918-.239,24.391-.348S380.73,257.951,380.731,258.034Z" transform="translate(-331.949 -257.984)"/></g><g transform="translate(15.841 37.146)"><path class="e" d="M380.761,272.455c0,.083-10.92.239-24.388.348s-24.392.132-24.393.049,10.918-.239,24.391-.349S380.76,272.372,380.761,272.455Z" transform="translate(-331.979 -272.405)"/></g><g transform="translate(18.1 45.437)"><path class="e" d="M382.448,286.875c0,.083-10.418.235-23.268.339s-23.271.123-23.272.04,10.415-.235,23.269-.339S382.448,286.792,382.448,286.875Z" transform="translate(-335.909 -286.823)"/></g><g transform="translate(27.365 52.718)"><path class="e" d="M380.177,299.553a1.042,1.042,0,0,1-.286.033l-.82.035-3.017.075-9.952.181c-3.888.073-7.409.1-9.957.093l-3.018-.02-.821-.021a.145.145,0,1,1,0-.06l.82-.035,3.017-.075,9.954-.181c3.887-.073,7.407-.1,9.955-.093l3.018.02.821.021A1.038,1.038,0,0,1,380.177,299.553Z" transform="translate(-352.021 -299.485)"/></g><g transform="translate(35.942 59.663)"><path class="e" d="M377.337,311.7a90.348,90.348,0,0,1-10.4.021,90.385,90.385,0,0,1,10.4-.021Z" transform="translate(-366.936 -311.562)"/></g></g></g><g transform="translate(11.903 258.483)"><g transform="translate(0 0)"><path class="e" d="M425.109,415.443c0,.082-85.988.15-192.036.15-106.084,0-192.054-.067-192.054-.15s85.97-.15,192.054-.15C339.121,415.293,425.109,415.36,425.109,415.443Z" transform="translate(-41.02 -415.293)"/></g></g><g transform="translate(219.098 58.444)"><g transform="translate(0 38.925)"><g transform="translate(0 50.442)"><path class="e" d="M401.584,222.825c.082.009.117.336.078.731s-.137.708-.22.7-.117-.335-.078-.731S401.5,222.816,401.584,222.825Z" transform="translate(-401.348 -222.825)"/></g><g transform="translate(0.529 44.841)"><path class="e" d="M402.741,213.085a6.746,6.746,0,0,1-.426,2.795,6.744,6.744,0,0,1,.426-2.795Z" transform="translate(-402.268 -213.085)"/></g><g transform="translate(1.485 39.302)"><path class="e" d="M404.577,203.453a6.737,6.737,0,0,1-.612,2.76,6.737,6.737,0,0,1,.612-2.76Z" transform="translate(-403.931 -203.452)"/></g><g transform="translate(2.819 33.861)"><path class="e" d="M407.094,193.989a6.742,6.742,0,0,1-.818,2.706,6.761,6.761,0,0,1,.818-2.706Z" transform="translate(-406.251 -193.989)"/></g><g transform="translate(4.573 28.563)"><path class="e" d="M410.364,184.777a6.731,6.731,0,0,1-1.045,2.627,6.767,6.767,0,0,1,1.045-2.627Z" transform="translate(-409.301 -184.776)"/></g><g transform="translate(6.785 23.474)"><path class="e" d="M414.448,175.928a6.734,6.734,0,0,1-1.286,2.514,3.441,3.441,0,0,1,.509-1.325C414.028,176.421,414.376,175.888,414.448,175.928Z" transform="translate(-413.148 -175.926)"/></g><g transform="translate(9.487 18.655)"><path class="e" d="M419.4,167.549a3.5,3.5,0,0,1-.662,1.256c-.416.658-.81,1.158-.881,1.114a3.466,3.466,0,0,1,.63-1.278C418.924,167.99,419.334,167.5,419.4,167.549Z" transform="translate(-417.847 -167.546)"/></g><g transform="translate(12.71 14.203)"><path class="e" d="M425.265,159.808c.062.055-.291.585-.788,1.183s-.953,1.043-1.018.992.288-.58.788-1.183S425.2,159.753,425.265,159.808Z" transform="translate(-423.451 -159.803)"/></g><g transform="translate(16.45 10.194)"><path class="e" d="M432.014,152.837c.055.062-.359.546-.923,1.08s-1.07.921-1.129.863.354-.542.924-1.08S431.959,152.775,432.014,152.837Z" transform="translate(-429.955 -152.831)"/></g><g transform="translate(20.673 6.707)"><path class="e" d="M439.584,146.776c.046.069-.424.5-1.052.956a3.5,3.5,0,0,1-1.229.715c-.051-.065.42-.493,1.052-.956A3.458,3.458,0,0,1,439.584,146.776Z" transform="translate(-437.299 -146.767)"/></g><g transform="translate(25.341 3.841)"><path class="e" d="M447.907,141.8c.037.074-.488.435-1.172.805a3.488,3.488,0,0,1-1.314.542c-.043-.071.482-.431,1.172-.805A3.454,3.454,0,0,1,447.907,141.8Z" transform="translate(-445.418 -141.783)"/></g><g transform="translate(30.405 1.706)"><path class="e" d="M456.883,138.09a6.757,6.757,0,0,1-2.657.965,6.757,6.757,0,0,1,2.657-.965Z" transform="translate(-454.225 -138.069)"/></g><g transform="translate(35.787 0.403)"><path class="e" d="M466.361,135.846a3.523,3.523,0,0,1-1.366.382,3.464,3.464,0,0,1-1.411.145,3.467,3.467,0,0,1,1.355-.44A3.413,3.413,0,0,1,466.361,135.846Z" transform="translate(-463.584 -135.803)"/></g><g transform="translate(41.377)"><path class="e" d="M476.133,135.237a6.743,6.743,0,0,1-2.827.032,6.744,6.744,0,0,1,2.827-.032Z" transform="translate(-473.306 -135.103)"/></g><g transform="translate(47.023 0.301)"><path class="e" d="M485.914,136.121a6.747,6.747,0,0,1-2.791-.451,6.747,6.747,0,0,1,2.791.451Z" transform="translate(-483.124 -135.625)"/></g><g transform="translate(52.554 1.463)"><path class="e" d="M495.415,138.6a6.736,6.736,0,0,1-2.67-.926,6.751,6.751,0,0,1,2.67.926Z" transform="translate(-492.744 -137.647)"/></g><g transform="translate(57.8 3.563)"><path class="e" d="M504.323,142.712a3.5,3.5,0,0,1-1.3-.57c-.674-.385-1.19-.757-1.154-.83a3.426,3.426,0,0,1,1.3.57C503.851,142.271,504.368,142.643,504.323,142.712Z" transform="translate(-501.866 -141.299)"/></g><g transform="translate(62.557 6.603)"><path class="e" d="M512.268,148.457c-.059.059-.578-.308-1.161-.819s-1.014-.979-.964-1.045.57.3,1.162.819S512.326,148.4,512.268,148.457Z" transform="translate(-510.139 -146.585)"/></g><g transform="translate(66.584 10.55)"><path class="e" d="M518.038,154.593c-.067.048-.317-.165-.558-.476s-.385-.607-.322-.66.314.16.558.477S518.1,154.545,518.038,154.593Z" transform="translate(-517.143 -153.449)"/></g></g><g transform="translate(91.461 17.073)"><g transform="translate(0 66.966)"><path class="e" d="M563.015,214.784a6.989,6.989,0,0,1-2.608-1.211,6.955,6.955,0,0,1,2.608,1.211Z" transform="translate(-560.405 -213.558)"/></g><g transform="translate(5.289 69.217)"><path class="e" d="M572.352,218.336a6.97,6.97,0,0,1-2.748-.84,6.971,6.971,0,0,1,2.748.84Z" transform="translate(-569.602 -217.473)"/></g><g transform="translate(10.852 70.611)"><path class="e" d="M582.134,220.272a6.981,6.981,0,0,1-2.857-.315,6.982,6.982,0,0,1,2.857.315Z" transform="translate(-579.276 -219.898)"/></g><g transform="translate(16.583 70.73)"><path class="e" d="M592.111,220.181a6.994,6.994,0,0,1-2.867.216,6.968,6.968,0,0,1,2.867-.216Z" transform="translate(-589.244 -220.105)"/></g><g transform="translate(22.291 69.718)"><path class="e" d="M601.977,218.374a3.576,3.576,0,0,1-1.365.488,3.456,3.456,0,0,1-1.44.14,3.715,3.715,0,0,1,1.377-.433A3.6,3.6,0,0,1,601.977,218.374Z" transform="translate(-599.172 -218.345)"/></g><g transform="translate(27.821 67.616)"><path class="e" d="M611.4,214.7a6.981,6.981,0,0,1-2.612,1.2,6.972,6.972,0,0,1,2.612-1.2Z" transform="translate(-608.787 -214.689)"/></g><g transform="translate(32.901 64.419)"><path class="e" d="M619.919,209.137c.053.062-.394.536-1.033,1.017a3.186,3.186,0,0,1-1.261.715c-.046-.07.451-.478,1.081-.953A4.114,4.114,0,0,1,619.919,209.137Z" transform="translate(-617.622 -209.13)"/></g><g transform="translate(37.274 60.225)"><path class="e" d="M627.061,201.84a3.129,3.129,0,0,1-.764,1.232c-.509.618-1.006,1.041-1.064.985s.332-.567.833-1.175S626.993,201.791,627.061,201.84Z" transform="translate(-625.227 -201.836)"/></g><g transform="translate(40.62 55.168)"><path class="e" d="M632.228,193.041a5.221,5.221,0,0,1-1.17,2.624,10.628,10.628,0,0,1,1.17-2.624Z" transform="translate(-631.045 -193.04)"/></g><g transform="translate(42.532 49.543)"><path class="e" d="M634.7,183.259a4.954,4.954,0,0,1-.293,2.857,4.547,4.547,0,0,1,.06-1.438A4.47,4.47,0,0,1,634.7,183.259Z" transform="translate(-634.371 -183.259)"/></g><g transform="translate(42.011 43.875)"><path class="e" d="M633.489,173.4a5.142,5.142,0,0,1,.638,2.8,10.916,10.916,0,0,1-.638-2.8Z" transform="translate(-633.466 -173.402)"/></g><g transform="translate(39.526 38.717)"><path class="e" d="M629.153,164.435c.066-.048.5.445.9,1.138a3.05,3.05,0,0,1,.546,1.344c-.076.036-.408-.514-.8-1.194A4.362,4.362,0,0,1,629.153,164.435Z" transform="translate(-629.143 -164.431)"/></g><g transform="translate(35.542 34.609)"><path class="e" d="M622.219,157.3a2.957,2.957,0,0,1,1.225.777c.607.526,1,1.046.945,1.1s-.547-.361-1.141-.875S622.17,157.366,622.219,157.3Z" transform="translate(-622.215 -157.288)"/></g><g transform="translate(30.331 32.251)"><path class="e" d="M613.153,153.219a4.661,4.661,0,0,1,2.729.9,4.767,4.767,0,0,1-1.387-.38A4.826,4.826,0,0,1,613.153,153.219Z" transform="translate(-613.152 -153.186)"/></g><g transform="translate(24.629 31.907)"><path class="e" d="M603.237,153.059a4.568,4.568,0,0,1,2.846-.374,15.222,15.222,0,0,1-2.846.374Z" transform="translate(-603.236 -152.589)"/></g><g transform="translate(19.668 33.405)"><path class="e" d="M594.615,156.941c-.06-.052.335-.587.983-1.075a2.7,2.7,0,0,1,1.3-.661c.04.076-.495.427-1.117.9S594.677,157,594.615,156.941Z" transform="translate(-594.609 -155.193)"/></g><g transform="translate(17.337 37.532)"><path class="e" d="M590.616,165.151a2.641,2.641,0,0,1,.083-1.454,2.572,2.572,0,0,1,.6-1.325,5.986,5.986,0,0,1-.313,1.4A5.656,5.656,0,0,1,590.616,165.151Z" transform="translate(-590.555 -162.37)"/></g><g transform="translate(17.547 43.174)"><path class="e" d="M591.895,174.9a4.353,4.353,0,0,1-.94-2.713,5.181,5.181,0,0,1,.523,1.338A5.125,5.125,0,0,1,591.895,174.9Z" transform="translate(-590.921 -172.182)"/></g><g transform="translate(20.125 48.255)"><path class="e" d="M597.558,182.928a2.868,2.868,0,0,1-1.227-.779c-.606-.534-.982-1.074-.921-1.126s.53.384,1.119.9S597.606,182.858,597.558,182.928Z" transform="translate(-595.404 -181.019)"/></g><g transform="translate(24.78 51.557)"><path class="e" d="M606.217,187.707a3.007,3.007,0,0,1-1.427-.266,2.97,2.97,0,0,1-1.29-.664,4.493,4.493,0,0,1,1.387.381A4.426,4.426,0,0,1,606.217,187.707Z" transform="translate(-603.499 -186.761)"/></g><g transform="translate(30.332 52.908)"><path class="e" d="M616.026,189.248a5.255,5.255,0,0,1-2.872-.061,10.416,10.416,0,0,1,2.872.061Z" transform="translate(-613.154 -189.111)"/></g><g transform="translate(36.056 51.979)"><path class="e" d="M625.891,187.518a5.374,5.374,0,0,1-2.782.708,9.977,9.977,0,0,1,2.782-.708Z" transform="translate(-623.109 -187.495)"/></g><g transform="translate(41.512 49.6)"><path class="e" d="M635.139,183.371c.043.071-.494.431-1.2.8a3.537,3.537,0,0,1-1.34.539,6.969,6.969,0,0,1,2.54-1.343Z" transform="translate(-632.597 -183.359)"/></g><g transform="translate(46.438 46.18)"><path class="e" d="M643.389,177.418c.056.061-.4.521-1.016,1.028s-1.157.863-1.206.8.406-.527,1.016-1.028A3.622,3.622,0,0,1,643.389,177.418Z" transform="translate(-641.164 -177.411)"/></g><g transform="translate(50.706 41.981)"><path class="e" d="M650.46,170.111c.066.051-.3.583-.82,1.19s-.988,1.052-1.048,1a3.6,3.6,0,0,1,.82-1.19C649.925,170.506,650.394,170.061,650.46,170.111Z" transform="translate(-648.586 -170.107)"/></g><g transform="translate(54.249 37.184)"><path class="e" d="M656.239,161.768a3.561,3.561,0,0,1-.612,1.309c-.411.684-.8,1.2-.869,1.155a3.609,3.609,0,0,1,.612-1.309C655.777,162.246,656.166,161.729,656.239,161.768Z" transform="translate(-654.747 -161.766)"/></g><g transform="translate(56.996 31.932)"><path class="e" d="M660.6,152.633a3.555,3.555,0,0,1-.385,1.394c-.285.745-.6,1.314-.676,1.278a4.08,4.08,0,0,1,.4-1.389A3.608,3.608,0,0,1,660.6,152.633Z" transform="translate(-659.525 -152.632)"/></g><g transform="translate(58.931 26.415)"><path class="e" d="M663.64,143.039a6.977,6.977,0,0,1-.721,2.783,6.974,6.974,0,0,1,.721-2.783Z" transform="translate(-662.891 -143.038)"/></g><g transform="translate(60.206 20.756)"><path class="e" d="M665.588,133.2a6.974,6.974,0,0,1-.435,2.842,6.969,6.969,0,0,1,.435-2.842Z" transform="translate(-665.107 -133.197)"/></g><g transform="translate(60.926 15.032)"><path class="e" d="M666.65,123.241a6.98,6.98,0,0,1-.213,2.867,6.981,6.981,0,0,1,.213-2.867Z" transform="translate(-666.36 -123.241)"/></g><g transform="translate(61.218 9.286)"><path class="e" d="M667.049,113.249a7,7,0,0,1-.056,2.875,6.968,6.968,0,0,1,.056-2.875Z" transform="translate(-666.868 -113.249)"/></g><g transform="translate(61.227 3.536)"><path class="e" d="M667.013,103.25a6.958,6.958,0,0,1,.041,2.875,6.983,6.983,0,0,1-.041-2.875Z" transform="translate(-666.882 -103.25)"/></g><g transform="translate(61.131)"><path class="e" d="M666.856,97.1c.083,0,.154.144.159.326s-.058.332-.141.334-.154-.144-.158-.326S666.774,97.1,666.856,97.1Z" transform="translate(-666.715 -97.1)"/></g></g><g transform="translate(126.23 0)"><rect class="f" width="39.317" height="26.501" transform="translate(0.015 4.26) rotate(-6.198)"/><path class="e" d="M623.735,98.03v-.014l-2.862-26.36.014,0,39.1-4.246v.014l2.863,26.36-.014,0ZM620.9,71.682,623.76,98l39.058-4.242L659.96,67.44Z" transform="translate(-620.871 -67.409)"/><g transform="translate(0.175 0.318)"><path class="e" d="M660.262,67.963a2.785,2.785,0,0,1-.326.39l-.985,1.072-3.672,3.9-12.242,12.8-.1.105-.124-.078-.3-.19L627.384,76.3l-4.563-2.964-1.231-.821a2.769,2.769,0,0,1-.416-.307,2.852,2.852,0,0,1,.455.246l1.266.765,4.624,2.868,15.186,9.577.3.19-.224.026L655.1,73.15l3.754-3.822,1.033-1.025A2.691,2.691,0,0,1,660.262,67.963Z" transform="translate(-621.174 -67.962)"/></g><g transform="translate(3.034 13.551)"><path class="e" d="M626.15,108.334c-.082-.055,2.465-3.986,5.688-8.778s5.9-8.635,5.985-8.58-2.465,3.985-5.689,8.779S626.231,108.388,626.15,108.334Z" transform="translate(-626.148 -90.975)"/></g><g transform="translate(27.665 11.81)"><path class="e" d="M668.984,87.948c.07-.068,3.364,3.2,7.356,7.3s7.171,7.483,7.1,7.552-3.363-3.2-7.356-7.3S668.913,88.017,668.984,87.948Z" transform="translate(-668.983 -87.947)"/></g></g></g><g transform="translate(191.088 46.313)"><g transform="translate(11.854 21.544)"><g transform="translate(2.932 70.479)"><path class="e" d="M378.419,206.348c.082-.014.2.293.268.684s.054.72-.028.734-.2-.293-.268-.684S378.338,206.361,378.419,206.348Z" transform="translate(-378.349 -206.347)"/></g><g transform="translate(2.037 64.868)"><path class="e" d="M376.837,196.591a6.81,6.81,0,0,1,.453,2.807,6.837,6.837,0,0,1-.453-2.807Z" transform="translate(-376.793 -196.591)"/></g><g transform="translate(1.211 59.243)"><path class="e" d="M375.406,186.808a6.819,6.819,0,0,1,.393,2.815,6.819,6.819,0,0,1-.393-2.815Z" transform="translate(-375.357 -186.808)"/></g><g transform="translate(0.552 53.595)"><path class="e" d="M374.272,176.986a6.808,6.808,0,0,1,.3,2.827,6.832,6.832,0,0,1-.3-2.827Z" transform="translate(-374.211 -176.986)"/></g><g transform="translate(0.13 47.925)"><path class="e" d="M373.566,167.124a6.806,6.806,0,0,1,.16,2.838,6.832,6.832,0,0,1-.16-2.838Z" transform="translate(-373.476 -167.124)"/></g><g transform="translate(0 42.238)"><path class="e" d="M373.409,157.235a6.828,6.828,0,0,1-.017,2.845,6.827,6.827,0,0,1,.017-2.845Z" transform="translate(-373.251 -157.235)"/></g><g transform="translate(0.207 36.568)"><path class="e" d="M373.919,147.374a6.819,6.819,0,0,1-.236,2.833,6.819,6.819,0,0,1,.236-2.833Z" transform="translate(-373.61 -147.374)"/></g><g transform="translate(0.835 30.948)"><path class="e" d="M375.239,137.6a6.827,6.827,0,0,1-.5,2.8,6.821,6.821,0,0,1,.5-2.8Z" transform="translate(-374.703 -137.6)"/></g><g transform="translate(1.985 25.454)"><path class="e" d="M377.538,128.046a6.823,6.823,0,0,1-.81,2.724,6.821,6.821,0,0,1,.81-2.724Z" transform="translate(-376.702 -128.046)"/></g><g transform="translate(3.784 20.183)"><path class="e" d="M380.993,118.882a6.825,6.825,0,0,1-1.145,2.6,6.827,6.827,0,0,1,1.145-2.6Z" transform="translate(-379.831 -118.88)"/></g><g transform="translate(6.241 15.222)"><path class="e" d="M385.582,110.255a3.527,3.527,0,0,1-.605,1.295c-.4.67-.789,1.181-.861,1.14a3.485,3.485,0,0,1,.6-1.295C385.127,110.72,385.513,110.21,385.582,110.255Z" transform="translate(-384.104 -110.252)"/></g><g transform="translate(9.336 10.675)"><path class="e" d="M391.279,102.349a3.527,3.527,0,0,1-.775,1.2c-.49.609-.942,1.062-1.009,1.013s.281-.587.776-1.2S391.217,102.294,391.279,102.349Z" transform="translate(-389.487 -102.344)"/></g><g transform="translate(13.064 6.678)"><path class="e" d="M398.074,95.4c.053.064-.371.543-.948,1.07s-1.091.907-1.149.849.366-.537.948-1.07S398.021,95.336,398.074,95.4Z" transform="translate(-395.971 -95.393)"/></g><g transform="translate(17.414 3.407)"><path class="e" d="M405.935,89.717c.04.072-.46.471-1.117.891a3.543,3.543,0,0,1-1.279.638c-.048-.067.452-.466,1.118-.891A3.453,3.453,0,0,1,405.935,89.717Z" transform="translate(-403.535 -89.705)"/></g><g transform="translate(22.342 1.068)"><path class="e" d="M414.754,85.657a6.82,6.82,0,0,1-2.647,1.036,6.82,6.82,0,0,1,2.647-1.036Z" transform="translate(-412.105 -85.638)"/></g><g transform="translate(27.733)"><path class="e" d="M422.89,83.845c.013.082-.29.208-.677.281s-.715.068-.733-.013.285-.207.677-.281S422.877,83.763,422.89,83.845Z" transform="translate(-421.48 -83.78)"/></g></g><rect class="d" width="28.814" height="42.749" transform="translate(0.019 26.893) rotate(-68.859)"/><path class="e" d="M392.534,88.643l-.013-.005L352.635,73.215l.005-.013,10.4-26.888.013.005,39.885,15.423-.005.013ZM352.672,73.2l39.845,15.408L402.9,61.757,363.054,46.35Z" transform="translate(-352.635 -46.313)"/><g transform="translate(10.412 0.391)"><path class="e" d="M410.616,62.411a3,3,0,0,1-.509.214l-1.486.543L403.126,65.1l-18.217,6.253-.15.051-.08-.137-.194-.332L374.7,54.045,371.772,48.9l-.779-1.407a2.989,2.989,0,0,1-.248-.5,3.1,3.1,0,0,1,.316.465l.841,1.371,3.034,5.079,9.885,16.834.194.332-.23-.086,18.254-6.144,5.534-1.816,1.509-.475A2.947,2.947,0,0,1,410.616,62.411Z" transform="translate(-370.743 -46.993)"/></g><g transform="translate(0.021 16.327)"><path class="e" d="M352.672,85.646c-.052-.094,4.371-2.619,9.877-5.638s10.014-5.393,10.065-5.3-4.37,2.618-9.878,5.638S352.723,85.74,352.672,85.646Z" transform="translate(-352.671 -74.707)"/></g><g transform="translate(33.342 21.119)"><path class="e" d="M410.624,83.04c.1-.031,1.651,4.771,3.459,10.726s3.19,10.808,3.087,10.84-1.651-4.771-3.459-10.727S410.522,83.071,410.624,83.04Z" transform="translate(-410.619 -83.04)"/></g></g><g transform="translate(11.874 70.89)"><g transform="translate(112.86 22.824)"><g transform="translate(64.247 50.915)"><path class="e" d="M349.188,217.293c.083.006.124.332.091.73s-.125.712-.208.7-.123-.334-.091-.729S349.106,217.288,349.188,217.293Z" transform="translate(-348.97 -217.293)"/></g><g transform="translate(64.458 45.067)"><path class="e" d="M349.49,207.123a7.231,7.231,0,0,1-.007,2.926,7.233,7.233,0,0,1,.007-2.926Z" transform="translate(-349.337 -207.123)"/></g><g transform="translate(64.147 39.231)"><path class="e" d="M348.862,196.974a7.215,7.215,0,0,1,.269,2.914,7.217,7.217,0,0,1-.269-2.914Z" transform="translate(-348.796 -196.974)"/></g><g transform="translate(63.202 33.463)"><path class="e" d="M347.189,186.944a7.225,7.225,0,0,1,.562,2.871,7.218,7.218,0,0,1-.562-2.871Z" transform="translate(-347.153 -186.943)"/></g><g transform="translate(61.626 27.834)"><path class="e" d="M344.434,177.153a7.24,7.24,0,0,1,.874,2.793,7.214,7.214,0,0,1-.874-2.793Z" transform="translate(-344.412 -177.152)"/></g><g transform="translate(59.397 22.432)"><path class="e" d="M340.551,167.76a7.213,7.213,0,0,1,1.2,2.668,7.22,7.22,0,0,1-1.2-2.668Z" transform="translate(-340.536 -167.758)"/></g><g transform="translate(56.498 17.355)"><path class="e" d="M335.5,158.932c.068-.046.482.469.917,1.155a3.691,3.691,0,0,1,.62,1.337c-.072.041-.464-.488-.875-1.18A3.757,3.757,0,0,1,335.5,158.932Z" transform="translate(-335.494 -158.929)"/></g><g transform="translate(52.918 12.732)"><path class="e" d="M329.275,150.895c.062-.056.532.4,1.052,1.028a3.687,3.687,0,0,1,.822,1.219c-.066.051-.537-.409-1.052-1.028A3.748,3.748,0,0,1,329.275,150.895Z" transform="translate(-329.269 -150.89)"/></g><g transform="translate(48.72 8.662)"><path class="e" d="M321.973,143.818c.052-.064.584.325,1.186.868s1.044,1.032.986,1.091a3.722,3.722,0,0,1-1.187-.868C322.362,144.37,321.92,143.881,321.973,143.818Z" transform="translate(-321.969 -143.811)"/></g><g transform="translate(43.978 5.239)"><path class="e" d="M313.724,137.87a3.676,3.676,0,0,1,1.3.686c.676.45,1.183.869,1.135.936a3.739,3.739,0,0,1-1.3-.686C314.189,138.359,313.682,137.94,313.724,137.87Z" transform="translate(-313.722 -137.859)"/></g><g transform="translate(38.77 2.578)"><path class="e" d="M304.665,133.247a7.244,7.244,0,0,1,2.658,1.225,7.209,7.209,0,0,1-2.658-1.225Z" transform="translate(-304.664 -133.231)"/></g><g transform="translate(33.197 0.803)"><path class="e" d="M294.973,130.172a7.222,7.222,0,0,1,2.824.762,7.216,7.216,0,0,1-2.824-.762Z" transform="translate(-294.972 -130.145)"/></g><g transform="translate(27.401)"><path class="e" d="M284.892,128.837a3.652,3.652,0,0,1,1.473-.066,3.69,3.69,0,0,1,1.443.3,3.717,3.717,0,0,1-1.467,0A3.769,3.769,0,0,1,284.892,128.837Z" transform="translate(-284.892 -128.748)"/></g><g transform="translate(21.57 0.091)"><path class="e" d="M274.753,129.306a7.233,7.233,0,0,1,2.9-.344,7.207,7.207,0,0,1-2.9.344Z" transform="translate(-274.753 -128.906)"/></g><g transform="translate(15.922 1.086)"><path class="e" d="M264.93,131.545a7.224,7.224,0,0,1,2.788-.884,7.226,7.226,0,0,1-2.788.884Z" transform="translate(-264.929 -130.637)"/></g><g transform="translate(10.654 3.124)"><path class="e" d="M255.77,135.586c-.043-.07.5-.441,1.215-.828a3.664,3.664,0,0,1,1.358-.565,7.228,7.228,0,0,1-2.573,1.393Z" transform="translate(-255.768 -134.18)"/></g><g transform="translate(5.98 6.159)"><path class="e" d="M247.645,141.34c-.056-.06.4-.531,1.028-1.052s1.17-.889,1.219-.822-.411.538-1.027,1.052A3.735,3.735,0,0,1,247.645,141.34Z" transform="translate(-247.64 -139.458)"/></g><g transform="translate(2.153 10.136)"><path class="e" d="M240.993,148.692a3.276,3.276,0,0,1,.743-1.274c.5-.644.985-1.094,1.046-1.04a4.262,4.262,0,0,1-.809,1.223C241.481,148.236,241.063,148.739,240.993,148.692Z" transform="translate(-240.984 -146.374)"/></g><g transform="translate(0 14.954)"><path class="e" d="M237.269,156.05c-.076-.033,0-.352.179-.712s.375-.62.449-.581-.007.357-.179.712S237.344,156.084,237.269,156.05Z" transform="translate(-237.24 -154.753)"/></g></g><g transform="translate(26.059 34.877)"><g transform="translate(24.551 37.874)"><path class="e" d="M173.751,215.833c-.006-.083.306-.188.7-.235s.718-.02.732.062-.3.187-.7.235S173.756,215.915,173.751,215.833Z" transform="translate(-173.751 -215.575)"/></g><g transform="translate(18.855 37.462)"><path class="e" d="M163.845,214.882a12.37,12.37,0,0,1,2.818.59,4.912,4.912,0,0,1-2.818-.59Z" transform="translate(-163.845 -214.858)"/></g><g transform="translate(13.706 34.932)"><path class="e" d="M154.893,210.467a4.305,4.305,0,0,1,1.287.653c.677.405,1.224.745,1.187.82a3.058,3.058,0,0,1-1.34-.563C155.337,210.966,154.846,210.533,154.893,210.467Z" transform="translate(-154.89 -210.458)"/></g><g transform="translate(9.422 31.095)"><path class="e" d="M147.447,203.791c.063-.055.535.385,1.092.946s.991,1.038.936,1.1-.585-.32-1.149-.891S147.386,203.844,147.447,203.791Z" transform="translate(-147.441 -203.786)"/></g><g transform="translate(6.037 26.439)"><path class="e" d="M141.563,195.691c.071-.042.481.461.915,1.122a3.632,3.632,0,0,1,.664,1.287c-.067.049-.476-.453-.915-1.122A3.573,3.573,0,0,1,141.563,195.691Z" transform="translate(-141.553 -195.689)"/></g><g transform="translate(3.546 21.246)"><path class="e" d="M137.238,186.658a7.018,7.018,0,0,1,1.129,2.651,6.993,6.993,0,0,1-1.129-2.651Z" transform="translate(-137.221 -186.657)"/></g><g transform="translate(1.883 15.729)"><path class="e" d="M134.356,177.063a6.988,6.988,0,0,1,.732,2.787,7.014,7.014,0,0,1-.732-2.787Z" transform="translate(-134.328 -177.062)"/></g><g transform="translate(0.864 10.054)"><path class="e" d="M132.6,167.194a7.009,7.009,0,0,1,.432,2.85,7.009,7.009,0,0,1-.432-2.85Z" transform="translate(-132.557 -167.194)"/></g><g transform="translate(0.285 4.317)"><path class="e" d="M131.622,157.217a7.009,7.009,0,0,1,.233,2.873,7.012,7.012,0,0,1-.233-2.873Z" transform="translate(-131.549 -157.217)"/></g><path class="e" d="M131.174,149.709c.082,0,.164.315.183.711s-.033.721-.116.725-.164-.314-.183-.711S131.091,149.713,131.174,149.709Z" transform="translate(-131.054 -149.709)"/></g><rect class="f" width="47.866" height="32.263" transform="translate(0.015 2.268) rotate(-2.699)"/><path class="e" d="M87.256,123.566v-.015L85.735,91.31h.015l47.827-2.254v.014l1.52,32.242h-.014Zm-1.49-32.229,1.517,32.2,47.784-2.252-1.517-32.2Z" transform="translate(-85.735 -89.055)"/><g transform="translate(0.186 0.394)"><path class="e" d="M133.872,89.742a3.371,3.371,0,0,1-.425.45l-1.277,1.229-4.753,4.466-15.827,14.649-.13.121-.144-.1-.349-.252L93.3,97.428l-5.325-3.941L86.542,92.4a3.427,3.427,0,0,1-.483-.4,3.416,3.416,0,0,1,.535.333l1.482,1.023,5.405,3.828,17.741,12.767.349.252-.274.016,15.915-14.554,4.846-4.364,1.331-1.17A3.337,3.337,0,0,1,133.872,89.742Z" transform="translate(-86.058 -89.741)"/></g><g transform="translate(1.704 14.65)"><path class="e" d="M88.7,134.759c-.1-.073,3.292-4.661,7.565-10.245s7.815-10.054,7.911-9.981-3.291,4.659-7.566,10.245S88.795,134.832,88.7,134.759Z" transform="translate(-88.698 -114.532)"/></g><g transform="translate(33.053 13.497)"><path class="e" d="M143.219,112.529c.091-.078,3.85,4.14,8.4,9.42s8.158,9.626,8.068,9.7-3.85-4.138-8.4-9.42S143.128,112.607,143.219,112.529Z" transform="translate(-143.217 -112.528)"/></g></g><g transform="translate(-25.967 138.909)"><g transform="translate(81.775 43.464)"><path class="j" d="M216.763,285.94a1.307,1.307,0,0,0-.992-1.457l-1.282.089-4.585-1.6a1.371,1.371,0,0,0-1.734,1.248c-.026,1.318-.551,4.906-1.619,3.778-.025-.026-.051-.048-.076-.073-1.512-1.687-3.262-2.5-3.938-2.4a.765.765,0,0,0-.328,1.355.813.813,0,0,0,.272.19c.047.02.1.057.153.082a11.367,11.367,0,0,1,1.752,1.565,6.029,6.029,0,0,1,1.154,1.744c.309.711.549,1.337.736,1.869l.072,4.215-1.831,19.706s-12.13-12.741-11.848-12.866l.7,19.834,7.348,6.081a9.241,9.241,0,0,0,15.132-7.273l-.424-25.481.3-3.341Z" transform="translate(-192.663 -282.931)"/></g><g transform="translate(0 74.485)"><path class="j" d="M88.2,336.879,74.931,367.266,64.425,389.183l-7.8,2.624s-6.175,1.793-6.175,3.071,1.629.987,1.629.987c.3,1.908,2.942.826,4.792-.031s5.959-1.026,5.959-1.026a1.674,1.674,0,0,0-.115,2.68c.654.459,1.795-.1,2.567-.919s2.758-1.206,4.97-1.994,2.576-3.763,2.576-3.763l26.584-44.78Z" transform="translate(-50.449 -336.879)"/></g><g transform="translate(30.022 56.177)"><path class="d" d="M154.464,334.381l3.343,4.414,7.237-16.061s-7.026-8.574-9.6-12.17c-2.547-3.565-4.459-4.184-4.459-4.184s-4.666-1.387-7-1.338l-11.533.688-11.714,5.114a16.216,16.216,0,0,0-7.052,5.938L102.66,334.5l15.617,6.676,5.237,29.943c1.005,4.49,1.883,8.728,6.029,10.8l28.965-27.837-3.394-5.345Z" transform="translate(-102.66 -305.04)"/><g transform="translate(15.889 23.85)"><path class="e" d="M138.516,346.518c.068.046-1.716,2.821-3.987,6.2s-4.167,6.077-4.236,6.031,1.716-2.82,3.987-6.2S138.447,346.471,138.516,346.518Z" transform="translate(-130.292 -346.517)"/></g><g transform="translate(27.809 52.273)"><path class="e" d="M171.607,395.949a5.148,5.148,0,0,1-.769.459c-.5.279-1.24.67-2.155,1.145-1.829.949-4.376,2.22-7.219,3.561s-5.447,2.495-7.343,3.3c-.948.4-1.718.722-2.255.934a5.136,5.136,0,0,1-.844.3,5.1,5.1,0,0,1,.8-.408l2.215-1.019c1.873-.856,4.459-2.04,7.3-3.379s5.4-2.579,7.252-3.479l2.2-1.059A5.141,5.141,0,0,1,171.607,395.949Z" transform="translate(-151.022 -395.947)"/></g><g transform="translate(14.7 10.822)"><path class="e" d="M136.708,330.4a9.906,9.906,0,0,1-1.015-1.279,20.617,20.617,0,0,0-2.573-2.934,9.073,9.073,0,0,0-3.316-1.953c-.951-.294-1.583-.287-1.58-.342a1.131,1.131,0,0,1,.442-.035,5.366,5.366,0,0,1,1.2.173,8.367,8.367,0,0,1,3.458,1.934A16.449,16.449,0,0,1,135.865,329,8,8,0,0,1,136.708,330.4Z" transform="translate(-128.224 -323.86)"/></g><g transform="translate(28.818 31.956)"><path class="e" d="M170.974,360.614a1.263,1.263,0,0,1,.014.318c-.005.208,0,.516-.029.911a21.9,21.9,0,0,1-.461,3.32,23.786,23.786,0,0,1-13.385,16.687,21.934,21.934,0,0,1-3.14,1.171c-.378.116-.681.175-.883.225a1.247,1.247,0,0,1-.313.055c-.006-.024.413-.146,1.161-.392a25.815,25.815,0,0,0,3.085-1.251,24.333,24.333,0,0,0,13.269-16.542,25.718,25.718,0,0,0,.552-3.283C170.921,361.05,170.948,360.613,170.974,360.614Z" transform="translate(-152.776 -360.614)"/></g><g class="k" transform="translate(15.677 27.954)"><path d="M131.888,373.409c-.05-.285,3.712-19.755,3.712-19.755l-5.676,8.525" transform="translate(-129.924 -353.654)"/></g><g transform="translate(51.043 10.655)"><path class="e" d="M191.446,323.57a1.446,1.446,0,0,1,.041.335c.016.252.036.571.06.961.044.876.1,2.075.178,3.539.147,3.025.346,7.135.566,11.675.217,4.562.388,8.692.478,11.683.045,1.5.074,2.706.083,3.543,0,.392,0,.711,0,.964a1.421,1.421,0,0,1-.019.337,1.444,1.444,0,0,1-.041-.335c-.016-.252-.036-.571-.06-.962-.044-.876-.1-2.075-.178-3.538-.147-3.025-.346-7.135-.566-11.677-.217-4.559-.388-8.69-.478-11.681-.045-1.5-.074-2.706-.083-3.543,0-.392,0-.711,0-.964A1.425,1.425,0,0,1,191.446,323.57Z" transform="translate(-191.427 -323.57)"/></g><g class="l" transform="translate(27.336 46.032)"><path d="M150.807,401.019a2.326,2.326,0,0,1,.1-3.232,7.13,7.13,0,0,1,3.18-1.639c5.5-1.783,11.037-4.3,14.668-8.808a8.657,8.657,0,0,1,1.627-1.75,2.242,2.242,0,0,1,2.258-.312c1.112.578,1.154,2.19.687,3.354a6.441,6.441,0,0,1-3.035,3.313" transform="translate(-150.199 -385.093)"/></g><g class="l" transform="translate(51.182 14.111)"><path d="M191.669,329.579l3.214,18.652-2.5-3.306Z" transform="translate(-191.669 -329.579)"/></g></g><g transform="translate(57.558 85.5)"><g transform="translate(48.793 33.786)"><path class="d" d="M240.837,414.79,235.4,433.43l23.156,6.881c.522-2.252-10.138-10.253-10.138-10.253l3.972-11.8Z" transform="translate(-235.402 -414.79)"/><g class="m" transform="translate(5.179 12.128)"><path class="n" d="M245.385,435.89a.987.987,0,0,0-.975.885.948.948,0,0,0,.869.973,1.04,1.04,0,0,0,1.027-.942c-.024-.484-.541-1.01-1.016-.913" transform="translate(-244.409 -435.881)"/></g><g class="m" transform="translate(0 16.782)"><path class="n" d="M235.4,445.833l.621-1.857,21.969,7.291s.9.755.566,1.447Z" transform="translate(-235.402 -443.976)"/></g><g transform="translate(10.938 14.979)"><path class="e" d="M256.914,441.122c-.037.112-.618,0-1.282.194-.669.181-1.1.585-1.193.51-.1-.053.272-.679,1.08-.9S256.969,441.025,256.914,441.122Z" transform="translate(-254.423 -440.84)"/></g><g transform="translate(13.543 16.873)"><path class="e" d="M260.97,444.247c-.007.117-.554.164-1.08.528-.536.348-.787.837-.9.8-.112-.014.007-.7.67-1.139S261,444.139,260.97,444.247Z" transform="translate(-258.955 -444.133)"/></g><g transform="translate(16.017 18.598)"><path class="e" d="M263.314,448.839c-.11-.006-.1-.618.375-1.151s1.076-.622,1.1-.514c.036.112-.406.343-.788.786S263.429,448.862,263.314,448.839Z" transform="translate(-263.256 -447.133)"/></g><g transform="translate(11.59 11.642)"><path class="e" d="M258,435.866c-.078.089-.551-.221-1.2-.368s-1.21-.093-1.24-.207.569-.375,1.334-.193S258.085,435.794,258,435.866Z" transform="translate(-255.559 -435.037)"/></g><g transform="translate(11.157 6.797)"><path class="e" d="M257.948,429.374a2.269,2.269,0,0,1-1.158-.351,5.431,5.431,0,0,1-1.1-.733,5.727,5.727,0,0,1-.561-.551,1.474,1.474,0,0,1-.269-.377.515.515,0,0,1,.126-.617.649.649,0,0,1,.572-.112,1.574,1.574,0,0,1,.417.19,4.321,4.321,0,0,1,.648.462,4.257,4.257,0,0,1,.861,1.02,2.014,2.014,0,0,1,.4,1.144c-.062.022-.219-.409-.643-.983a4.85,4.85,0,0,0-.861-.89,4.533,4.533,0,0,0-.6-.4c-.226-.137-.434-.2-.53-.11-.035.034-.043.05-.013.137a1.2,1.2,0,0,0,.2.276,6.363,6.363,0,0,0,.509.532,6.672,6.672,0,0,0,.993.763A8.3,8.3,0,0,1,257.948,429.374Z" transform="translate(-254.805 -426.61)"/></g><g transform="translate(14.032 6.248)"><path class="e" d="M259.878,429.086a1.925,1.925,0,0,1,.026-1.211,3.925,3.925,0,0,1,1.04-1.839,1,1,0,0,1,.914-.366.565.565,0,0,1,.388.467,1.621,1.621,0,0,1-.007.461,2.694,2.694,0,0,1-.232.781,2.78,2.78,0,0,1-.851,1.051c-.631.466-1.143.461-1.141.42-.021-.068.438-.17.956-.643a2.782,2.782,0,0,0,.691-.98,2.5,2.5,0,0,0,.178-.676c.037-.257,0-.483-.1-.485-.114-.036-.365.091-.518.259a4.016,4.016,0,0,0-.474.543,4.33,4.33,0,0,0-.569,1.09C259.949,428.628,259.944,429.087,259.878,429.086Z" transform="translate(-259.806 -425.655)"/></g></g><path class="o" d="M228.549,362.064c.586,4.3-.885,9.15-2.441,13.2l-10.156,23.878-11.239-1.725a14.475,14.475,0,0,1-5.34,3.607c-1.34.447-5.749,1.313-9.377-1.3h0s-5.135,7.153-13.214,9.317-20.312,3.356-26.234-6.1l28.19-27.167c.582.139,24.282-15.844,37.085-19.483C215.822,356.3,227.47,354.157,228.549,362.064Z" transform="translate(-150.547 -356.034)"/><g transform="translate(21.29 17.205)"><path class="p" d="M219.609,410.04a.778.778,0,0,1,.152-.092l.461-.244c.4-.214,1.006-.521,1.765-.941a29.044,29.044,0,0,0,2.688-1.657,14.013,14.013,0,0,0,3.044-2.822,9.777,9.777,0,0,0,1.973-4.563,15.32,15.32,0,0,0-.24-5.745,9.271,9.271,0,0,0-3.1-5.4A11.7,11.7,0,0,0,220,386.318a19.63,19.63,0,0,0-3.48.029,26.1,26.1,0,0,0-3.337.586,39.554,39.554,0,0,0-6.066,2.1c-3.758,1.641-7.019,3.414-9.884,4.637A35.36,35.36,0,0,1,190.248,396c-.425.1-.807.155-1.139.207s-.612.092-.84.112l-.519.05a.765.765,0,0,1-.178.007.845.845,0,0,1,.175-.037l.514-.079c.227-.029.505-.074.833-.14s.707-.129,1.129-.233a37.148,37.148,0,0,0,6.926-2.413c2.845-1.244,6.088-3.034,9.86-4.7a39.419,39.419,0,0,1,6.1-2.13,26.189,26.189,0,0,1,3.378-.6,19.811,19.811,0,0,1,3.536-.031,11.949,11.949,0,0,1,6.5,2.328,8.2,8.2,0,0,1,2.114,2.569,11.85,11.85,0,0,1,1.074,3,15.494,15.494,0,0,1,.216,5.847,9.963,9.963,0,0,1-2.052,4.652,14.016,14.016,0,0,1-3.115,2.829,27.327,27.327,0,0,1-2.728,1.623c-.77.405-1.38.7-1.794.892l-.473.217A.788.788,0,0,1,219.609,410.04Z" transform="translate(-187.572 -385.955)"/></g><g transform="translate(55.414 9.958)"><path class="p" d="M251.88,373.353a67.881,67.881,0,0,1-4.961,7.522,67.739,67.739,0,0,1,4.961-7.522Z" transform="translate(-246.916 -373.352)"/></g><g transform="translate(57.505 37.866)"><path class="p" d="M258.252,425.565c-.052.018-.187-.509-.664-1.212a4.863,4.863,0,0,0-5.786-1.877c-.8.289-1.217.636-1.249.592-.012-.014.08-.116.273-.267a4.061,4.061,0,0,1,.9-.522,4.792,4.792,0,0,1,6.043,1.961,4.087,4.087,0,0,1,.421.95C258.256,425.425,258.27,425.56,258.252,425.565Z" transform="translate(-250.552 -421.886)"/></g></g><g transform="translate(84.342)"><g transform="translate(0 11.697)"><g transform="translate(0.932)"><g transform="translate(8.133)"><path class="p" d="M212.89,247.115s3.761-1.13,8.756-6.7,7.012-12.633,7.674-12.648,3.437-1.565,9.791,9.925,4.4,14.413,3.315,14.471-8.633-1.451-13.209-.583a49.617,49.617,0,0,0-10.33,3.715Z" transform="translate(-212.89 -227.686)"/></g><g transform="translate(0 17.083)"><path class="e" d="M199.239,266.829l1.489,2.383.667,1.067a3.245,3.245,0,0,0,4.325,1.12l7.982-3.464-5.582-10.54-7.863,4.972A3.246,3.246,0,0,0,199.239,266.829Z" transform="translate(-198.746 -257.394)"/></g><g transform="translate(5.513 27.802)"><path class="e" d="M208.334,278.371l2.992,4.924,1.279-.46,9.044,6.3,2.036-4.843s-5.2-1.8-6.267-3.524-.019-2.216-.019-2.216l-2.572-2.519Z" transform="translate(-208.334 -276.036)"/></g><g transform="translate(24.829 0.243)"><path class="e" d="M251.025,238.118c3.39,6.228,5.028,11.881,3.66,12.626s-5.226-3.7-8.616-9.928-5.028-11.881-3.66-12.626S247.635,231.89,251.025,238.118Z" transform="translate(-241.926 -228.108)"/></g></g><g transform="translate(0 26.779)"><path class="p" d="M198.114,277.631l2.169-.863-1.569-2.511-1.589,1.159Z" transform="translate(-197.125 -274.257)"/></g><g transform="translate(7.281 28.666)"><path class="p" d="M216.327,277.537l-5.686,4.251-.853-1.4Z" transform="translate(-209.788 -277.537)"/></g><g transform="translate(1.399 26.779)"><path class="p" d="M199.748,274.257l1.569,2.511-.446.177-1.313-2.55Z" transform="translate(-199.558 -274.257)"/></g><g transform="translate(3.163 24.718)"><path class="p" d="M202.627,273.223a24.788,24.788,0,0,0,4.671-2.544,24.8,24.8,0,0,0-4.671,2.544Z" transform="translate(-202.626 -270.672)"/></g><g transform="translate(2.364 23.288)"><path class="p" d="M201.238,270.66a20.777,20.777,0,0,0,4.2-2.469,20.778,20.778,0,0,0-4.2,2.469Z" transform="translate(-201.237 -268.185)"/></g><g transform="translate(4.146 26.544)"><path class="p" d="M204.337,276.14c.015.037.274-.043.685-.2.205-.08.448-.181.717-.3s.54-.285.834-.445a9.483,9.483,0,0,0,2.025-1.339,11.45,11.45,0,0,0-2.163,1.089c-.292.159-.561.331-.817.461s-.488.244-.68.347C204.555,275.957,204.323,276.1,204.337,276.14Z" transform="translate(-204.336 -273.847)"/></g><g transform="translate(28.82 8.65)"><path class="p" d="M247.245,243.339s3.17-2.308,5.322,2.046-1.29,5.353-1.29,5.353A29.987,29.987,0,0,1,247.245,243.339Z" transform="translate(-247.245 -242.729)"/></g><g transform="translate(24.884 4.173)"><path class="e" d="M240.4,234.943a5.108,5.108,0,0,0,.194.848c.145.541.354,1.326.639,2.288l.576,1.537.323.856.17.447c.061.15.137.3.206.446l.895,1.881.236.493c.077.167.181.321.271.485l.569.982.571.982c.1.159.181.325.287.476l.312.449,1.192,1.709c.1.135.186.273.285.4l.305.37.585.706,1.052,1.262c.692.723,1.271,1.29,1.668,1.685a5.017,5.017,0,0,0,.641.589,5.1,5.1,0,0,0-.561-.666l-1.6-1.747-1.017-1.275-.568-.708-.3-.37c-.1-.127-.184-.266-.279-.4l-1.17-1.707-.308-.447c-.105-.15-.187-.315-.283-.473l-.566-.975-.567-.974c-.09-.162-.193-.315-.27-.48l-.236-.489c-.313-.645-.615-1.268-.9-1.861-.07-.149-.147-.293-.21-.44l-.174-.442-.335-.845-.6-1.517c-.3-.94-.549-1.706-.723-2.252A5.025,5.025,0,0,0,240.4,234.943Z" transform="translate(-240.401 -234.943)"/></g><g transform="translate(14.121 30.294)"><path class="j" d="M223.9,280.409a.979.979,0,0,1,.673,1.179c-.247.978-.652,2.513-.976,3.452a2.482,2.482,0,0,1-.431.852.8.8,0,0,1-1.463-.415,2.549,2.549,0,0,1,.083-1c.2-.911.573-2.281.9-3.4a.979.979,0,0,1,1.217-.667Z" transform="translate(-221.683 -280.369)"/><g transform="translate(1.557 1.589)"><path class="j" d="M226.61,283.172a.979.979,0,0,1,.673,1.179c-.247.977-.652,2.513-.976,3.452a2.486,2.486,0,0,1-.431.852.8.8,0,0,1-1.463-.415,2.552,2.552,0,0,1,.083-1c.2-.911.573-2.281.9-3.4a.978.978,0,0,1,1.217-.666Z" transform="translate(-224.39 -283.132)"/></g><g transform="translate(3.357 2.547)"><path class="j" d="M229.444,284.833a.847.847,0,0,1,.583,1.021c-.214.846-.564,2.176-.845,2.989a2.158,2.158,0,0,1-.373.738.7.7,0,0,1-1.267-.359,2.218,2.218,0,0,1,.072-.869c.175-.789.5-1.975.776-2.942a.848.848,0,0,1,1.054-.577Z" transform="translate(-227.522 -284.799)"/></g><g transform="translate(5.054 2.74)"><path class="j" d="M232.4,285.168a.852.852,0,0,1,.586,1.026c-.215.85-.567,2.186-.849,3a2.172,2.172,0,0,1-.375.741.7.7,0,0,1-1.273-.361,2.239,2.239,0,0,1,.073-.873c.176-.792.5-1.984.78-2.956a.852.852,0,0,1,1.059-.58Z" transform="translate(-230.473 -285.134)"/></g><g transform="translate(1.658 1.951)"><path class="q" d="M224.584,287.352a11.9,11.9,0,0,1,1.133-3.589,11.9,11.9,0,0,1-1.133,3.589Z" transform="translate(-224.566 -283.762)"/></g><g transform="translate(4.9 3.231)"><path class="q" d="M230.219,289.6a23.3,23.3,0,0,1,1.075-3.615,8.089,8.089,0,0,1-1.075,3.615Z" transform="translate(-230.204 -285.988)"/></g><g transform="translate(3.296 3.021)"><path class="q" d="M227.43,289.238a23.1,23.1,0,0,1,1.075-3.615,8.109,8.109,0,0,1-1.075,3.615Z" transform="translate(-227.415 -285.624)"/></g></g></g><g transform="translate(35.875)"><path class="e" d="M270.286,207.345c.066.05-2.292,3.252-5.265,7.152s-5.439,7.02-5.5,6.97,2.291-3.251,5.266-7.152S270.219,207.295,270.286,207.345Z" transform="translate(-259.515 -207.344)"/><g transform="translate(3.927 9.125)"><path class="e" d="M288.619,223.215c.035.075-4.923,2.45-11.073,5.3s-11.166,5.108-11.2,5.033,4.923-2.45,11.075-5.305S288.584,223.139,288.619,223.215Z" transform="translate(-266.345 -223.213)"/></g><g transform="translate(8.146 26.582)"><path class="e" d="M289.438,255.106c-.008.082-3.542-.191-7.892-.611s-7.873-.827-7.865-.909,3.541.191,7.893.611S289.446,255.024,289.438,255.106Z" transform="translate(-273.681 -253.572)"/></g></g></g><g transform="translate(51.654 22.864)"><g transform="translate(1.594 3.686)"><path class="j" d="M143.261,265.733l3.9,22.2a7.308,7.308,0,0,0,8.227,5.911h0a7.228,7.228,0,0,0,6.211-8.306l-.635-3.82s5.462-1.481,4.892-6.965c-.274-2.644-1.289-8.038-2.266-12.916a10.463,10.463,0,0,0-11.963-8.181h0A10.213,10.213,0,0,0,143.261,265.733Z" transform="translate(-143.052 -253.517)"/><g transform="translate(10.44 27.001)"><g transform="translate(0)"><path class="q" d="M168.694,301.683a13.2,13.2,0,0,1-7.486-1.209s2.173,3.747,7.664,2.627Z" transform="translate(-161.208 -300.474)"/></g></g></g><g transform="translate(0)"><path class="e" d="M162.446,249.735a1.938,1.938,0,0,0-2.524.158,1.749,1.749,0,0,0-.488-2.3,2.964,2.964,0,0,0-2.516-.365,8.711,8.711,0,0,0-2.348,1.154.882.882,0,0,0-.389-.892,2.032,2.032,0,0,0-.987-.309,7.492,7.492,0,0,0-4.146.931,25.807,25.807,0,0,0-3.837,2.6h0a18.221,18.221,0,0,0-3.506,3.751l-.043.039a6.109,6.109,0,0,0-1.374,3.981c.453,3.945,1.761,6.23,2.5,9.968a1.337,1.337,0,0,0,.281.693c.457.473,1.273.072,1.7-.424a7.056,7.056,0,0,0,1.46-4.443c.051-1.586-.173-3.171-.138-4.757l0-.112a8.377,8.377,0,0,1,.116-1.212,3.988,3.988,0,0,1,2.921-2.894c2.312-.393,6.871,1.851,9.132,1.493s2.376-1.952,2.376-1.952l1.329,2.7a8.123,8.123,0,0,0,.214-3.376,3.817,3.817,0,0,0,1.121-1.971A2.532,2.532,0,0,0,162.446,249.735Z" transform="translate(-140.279 -247.107)"/></g><g transform="translate(0.528 18.2)"><path class="j" d="M144.645,278.818c-.1-.03-3.95-.681-3.392,3.049s4.245,2.409,4.236,2.3S144.645,278.818,144.645,278.818Z" transform="translate(-141.198 -278.757)"/><g transform="translate(0.999 1.313)"><path class="q" d="M144.858,283.894c-.018-.009-.059.055-.163.122a.68.68,0,0,1-.492.082,1.628,1.628,0,0,1-.971-1.333,2.127,2.127,0,0,1,.045-.957.76.76,0,0,1,.422-.571.342.342,0,0,1,.416.121c.066.1.053.175.074.179s.072-.074.018-.224a.422.422,0,0,0-.184-.212.513.513,0,0,0-.379-.042.927.927,0,0,0-.6.678,2.189,2.189,0,0,0-.073,1.073,1.712,1.712,0,0,0,1.2,1.471.723.723,0,0,0,.589-.186C144.865,283.985,144.873,283.9,144.858,283.894Z" transform="translate(-142.935 -281.04)"/></g></g></g><g transform="translate(265.146 27.216)"><path class="r" d="M546.609,255.665s-5.1.354-8.863,9.537c-3.8,9.262,4.7,9.17,1.834,15.071s4.118,9.421,6.237,14.252,12.8,16.485,13.642,21.8S569.8,310.8,569.8,310.8s9.65-10.294,6.19-16.274c-5.7-9.857-.762-12-.941-17.5S564.419,249.824,546.609,255.665Z" transform="translate(-487.747 -254.675)"/><path class="s" d="M511.87,313.688s-19.741,8.6-23.491,8.441-26.857-7.038-26.857-7.038l.589,3.975s17.832,10.257,24.067,10.838c6.138.573,27.125-5.509,29.152-6.793S517.759,314.987,511.87,313.688Z" transform="translate(-455.777 -279.754)"/><path class="t" d="M546.311,314.078a19.866,19.866,0,0,0,6.946,2.956c10.705,2.473,14.808-6.575,16.348-12.786a9.2,9.2,0,0,0-3.627-1.114c-.774-.091-1.588-.152-2.261-.185-1.2-.921-2.994-4.689-3.39-10.54l-.5.135-8.437,2.309s.386,2.682.576,5.217c.147,1.984.4,3.135.028,3.6a2.884,2.884,0,0,0-1.288.98.015.015,0,0,1,0,.008A54.337,54.337,0,0,0,546.311,314.078Z" transform="translate(-491.81 -270.711)"/><path class="u" d="M555.137,294.956s.388,2.68.576,5.217c4.78-.478,7-5.03,7.862-7.526Z" transform="translate(-495.561 -270.812)"/><path class="t" d="M549.162,286.643s11.346-.626,10.847-7.686.63-11.895-6.635-11.794-8.481,2.894-8.888,5.291S546.2,286.624,549.162,286.643Z" transform="translate(-491.014 -259.982)"/><path class="f" d="M567.719,344.058c1.025-5.238,4.365-26.164,1.025-32.9-1.2-2.419-5.908-2.637-11.074-2.425-1.607,1.037-7.732,4.959-10.247,4.469-.027,0-.076-.017-.141-.033a1.451,1.451,0,0,1-.409-2.59s-2.792.5-5.969,1.1c-1.795.338-6.635,2.842-6.635,2.842s2.437,4.4,6.031,5.923c-.611,5.467.3,7.878,5.969,20.506,4.793,10.673-.646,20.283-.646,20.283s28.212,22.682,28.369,11.134C574.109,363.67,566.41,350.752,567.719,344.058Z" transform="translate(-486.693 -277.623)"/><path d="M532.076,397.107a5.245,5.245,0,0,1-3.773-2.3q-.2-.305-.436-.657c-3.211-4.861-4.461-19.75-11.684-35.61-1.76-3.861-8.075-4.556-9.8-8.921,0,0-4.238-14.148,8.113-14.565S547.577,374.423,547.9,378.6C548.221,382.637,556.07,399.814,532.076,397.107Z" transform="translate(-474.544 -288.835)"/><path class="f" d="M466.209,435.662h17.579s.657-2.8-.5-4.712c-1.022-1.688-.63-2.65.126-4.047a6.828,6.828,0,0,1-2.961.558,6.193,6.193,0,0,1-2.615-.919,63.394,63.394,0,0,1-5.008,5.262C471.685,432.629,466.563,432.335,466.209,435.662Z" transform="translate(-457.769 -327.715)"/><path class="f" d="M569.573,322.537s2.288,20.817-12.551,25.179-19.051-19.153-7.07-20.845A115.3,115.3,0,0,0,569.573,322.537Z" transform="translate(-490.4 -283.515)"/><path d="M496.668,338.734c-1.059,7.936-5.192,32.984-12.484,45.205-2.351,3.939,5.923,6.148,5.968,6.137,1.109-.29,2.958-2.06,3.81-2.827,5.92-5.336,17.938-20.443,17.938-32.556,0-5.905.1-17.185-4.191-20.051C505.064,332.876,497.089,335.582,496.668,338.734Z" transform="translate(-465.229 -288.422)"/><path class="o" d="M550.318,396.115s-.651-.907-1.788-2.628c-1.352-2.048-2.848-6.077-4.663-11.243-1.907-5.422-4.169-12.094-7-19.036-.872-2.143-1.8-4.311-2.784-6.476-1.76-3.861-6.6-3.328-8.322-7.693,0,0-6.719-15.132,5.632-15.55s35.821,40.48,37.17,44.441C570.044,382.264,577.248,400.269,550.318,396.115Z" transform="translate(-482.304 -288.168)"/><path class="f" d="M488.651,435.662H506.23s.657-2.8-.5-4.712c-1.021-1.688-.63-2.65.127-4.047a6.827,6.827,0,0,1-2.961.558,6.187,6.187,0,0,1-2.614-.919,63.3,63.3,0,0,1-5.009,5.262C494.127,432.629,489,432.335,488.651,435.662Z" transform="translate(-467.306 -327.715)"/><path class="o" d="M553.424,395.552c-1.907-5.422-4.169-12.094-7-19.036.738-5.259,2.331-9.86,5.008-11.714C551.436,364.8,557.933,384.928,553.424,395.552Z" transform="translate(-491.86 -301.477)"/><path class="o" d="M516.467,338.4c-1.058,7.936-2.549,33.547-9.841,45.767-2.351,3.939,5.923,6.148,5.968,6.137,1.11-.29,2.958-2.06,3.811-2.827,5.92-5.336,17.938-20.443,17.938-32.556,0-5.905-6.931-16.711-11.225-19.578A4.32,4.32,0,0,0,516.467,338.4Z" transform="translate(-474.766 -288.654)"/><path class="v" d="M472.108,303.413s-.9-2.288-2.539-2.139-16.525,2.139-16.525,2.139a4.23,4.23,0,0,1,2.386,1.551L462.3,325.2h17.613Z" transform="translate(-452.174 -274.476)"/><path class="w" d="M547.6,313s-24.951,9.189-28.7,9c-2.423-.121-22.565-7.2-22.565-7.2l-1.808,3.42s19.6,12.6,24.994,12.538c10.641-.123,28.6-6.655,30.621-7.939S553.484,314.3,547.6,313Z" transform="translate(-469.801 -279.462)"/><path class="w" d="M488.1,314.007s-1.808-2.783-3.608-2.865-4.911,1.228-5.974,1.432-4.092,1.187-3.192,2.66,5.074,1.8,6.875,1.473a8.346,8.346,0,0,1,4.092.72Z" transform="translate(-461.574 -278.671)"/><path class="w" d="M489.072,310.075s-2.864-1.313-3.682-1.559-.655,0-.409.78,1.719,1.516,1.719,1.76S489.072,310.075,489.072,310.075Z" transform="translate(-465.661 -277.518)"/><path class="n" d="M548.961,293.791a10.483,10.483,0,0,1,4.091-.179s-.16,1.177-2.386,1.294A1.776,1.776,0,0,1,548.961,293.791Z" transform="translate(-492.937 -271.19)"/><path class="f" d="M564.465,317.1a13.71,13.71,0,0,0,9.9,8.672s12.656-3.9,6.354-12.522C580.716,313.253,574.485,308.623,564.465,317.1Z" transform="translate(-499.526 -279.033)"/><path class="x" d="M452.4,303.427s-1.654.633-.4,2.778l16.093-2.146s-.559-2.488.7-2.759Z" transform="translate(-451.53 -274.49)"/><path class="s" d="M460.867,311.984c.382-1.53.358-1.9-.507-2.834-.572-.617-1.446.914-1.9,1.837a4.667,4.667,0,0,0-.545-1.1,10.623,10.623,0,0,0,.193,2.056h0a2.017,2.017,0,0,0-.01.264v0a4.459,4.459,0,0,0,2.344,4.763l-.58-1.7C460.215,315.2,460.479,313.538,460.867,311.984Z" transform="translate(-454.23 -277.766)"/><path class="r" d="M549.528,266.836a2.871,2.871,0,0,1,3.55,1.605c1.158,2.444,1.526,8.285,6.17,8.762s4.823-9.894,4.823-9.894l-11.623-4.59-6.138,3.874Z" transform="translate(-491.81 -258.094)"/><path class="r" d="M547.513,268.945s-2.619.056-3.217,2.261.336,6.318-1.114,6.616-2.768-6.854.037-9.179S547.513,268.945,547.513,268.945Z" transform="translate(-489.796 -260.203)"/></g></g></g></svg>