<svg xmlns="http://www.w3.org/2000/svg" width="32" height="32" viewBox="0 0 32 32"><defs><style>.a,.o{fill:#fff;}.a{stroke:#707070;opacity:0;}.b{fill:#2a5798;}.c{fill:#9cc5fa;}.d{fill:#f0f3f9;}.e{fill:#e8ac6e;}.f{fill:#ebb984;}.g{fill:#f8e6d3;}.h{fill:#f4dabf;}.i{fill:#f0cba4;}.j{fill:#fbf4ed;}.k{fill:#f3d7b9;}.l{fill:#eec295;}.m{fill:#f8e9d9;}.n{fill:#1e3e6c;}.p{fill:#e6ebf5;}.q{fill:#e7f1fd;}.r{fill:#f8f5f5;}.s{stroke:none;}.t{fill:none;}</style></defs><g transform="translate(-309 -800)"><g class="a" transform="translate(309 800)"><rect class="s" width="32" height="32"/><rect class="t" x="0.5" y="0.5" width="31" height="31"/></g><g transform="translate(307.813 798.474)"><path class="b" d="M17.338,31.557h-.814a7.715,7.715,0,0,0-1.038-.031h-2.3q-2.545-.035-5.083-.132c-.132-.008-.279.008-.372-.124a1.054,1.054,0,0,0-.24-.387,1.772,1.772,0,0,1-.387-.891c-.124-.79-.17-1.6-.248-2.394-.1-1.108-.132-2.216-.217-3.324-.015-.163-.008-.325-.015-.5-.015-.713-.039-1.433-.031-2.146.008-1.193-.008-2.394.077-3.6.031-.488.031-.984.062-1.48.093-1.387.194-2.774.364-4.153a2.1,2.1,0,0,1,.465-1.046.583.583,0,0,0,.147-.3c.07-.139.194-.139.325-.155a27.343,27.343,0,0,1,3.82-.17,26.875,26.875,0,0,1,3.347.31,2.065,2.065,0,0,1,.527.155A1.979,1.979,0,0,1,16.71,12.2a2.741,2.741,0,0,1,.232.922,1.636,1.636,0,0,0,1.728,1.433h.116c1.464-.039,2.921.039,4.385.078s2.921.093,4.37.225a3.92,3.92,0,0,1,.6.186,1.988,1.988,0,0,1,1.108,1.836c.078,1.8.163,3.595.116,5.393-.039,1.5-.093,3.014-.217,4.517-.07.906-.155,1.813-.248,2.712a1.985,1.985,0,0,1-1.813,1.774c-.945.078-1.89.139-2.836.163-1.2.031-2.394.062-3.6.078h-2.3A7.672,7.672,0,0,0,17.338,31.557Z" transform="translate(0.19 0.856)"/><path class="c" d="M20.8,2.715c1.418.023,2.828.132,4.246.287a3.8,3.8,0,0,1,1.24.248A2.01,2.01,0,0,1,27.474,5.1c.093,1.728.2,3.448.256,5.176.062,1.914.015,3.827.046,5.741a3.277,3.277,0,0,0-1.247-.209c-2.7-.155-5.393-.24-8.089-.232a1.819,1.819,0,0,1-1.976-1.736,3.175,3.175,0,0,0-.17-.759c.1-.186.287-.147.442-.147.984-.008,1.968-.008,2.952-.008.721,0,1.449-.008,2.169,0a.637.637,0,0,1,.442.085c.085.17-.047.2-.155.225a1.762,1.762,0,0,1-.4.023H17.525c-.318.008-.38.116-.2.4a1.587,1.587,0,0,0,1.17.721.159.159,0,0,0,.085,0c1.116-.039,2.224.085,3.339.062.961-.023,1.914.078,2.874.078.279,0,.372-.046.349-.325-.054-.868-.023-1.743-.093-2.611-.039-.48-.046-.968-.062-1.449-.039-.984-.116-1.968-.194-2.952a1.892,1.892,0,0,0-1.712-1.7c-.961-.108-1.921-.194-2.89-.256-.953-.054-1.914-.085-2.867-.124-.589-.023-1.178-.062-1.767-.039-1.72.07-3.44.085-5.152.271-.2.023-.4,0-.6.039a.219.219,0,0,1-.248-.108V5.148c.07-.085-.008-.2.054-.294a2.024,2.024,0,0,1,1.751-1.805c1.209-.132,2.417-.24,3.626-.3.411-.023.829-.039,1.24-.046a7.212,7.212,0,0,1,.914-.031c.1-.008.209.031.31-.031H19.6a5.613,5.613,0,0,0,.883.031C20.578,2.692,20.694,2.661,20.8,2.715Z" transform="translate(0.503)"/><path class="d" d="M16.8,2.659a4.976,4.976,0,0,1-1.224.054V2.659Z" transform="translate(1.141 0.002)"/><path class="d" d="M19.843,2.713a5.407,5.407,0,0,1-1.224-.054h1.224Z" transform="translate(1.464 0.002)"/><path class="e" d="M14.629,29.506a3.938,3.938,0,0,1,1.046.054H14.629C14.59,29.545,14.59,29.529,14.629,29.506Z" transform="translate(1.038 2.845)"/><path class="e" d="M16.309,29.567a3.639,3.639,0,0,1,1.046-.054c.039.023.039.039,0,.054Z" transform="translate(1.219 2.846)"/><path class="f" d="M14.679,29.506v.054h-.527c-.039-.016-.039-.039,0-.054Z" transform="translate(0.988 2.846)"/><path class="f" d="M17.252,29.567v-.054h.519c.039.023.039.039,0,.054Z" transform="translate(1.319 2.847)"/><path class="g" d="M12.843,29.513h.465c.039.015.046.031,0,.046h-.465Q12.785,29.547,12.843,29.513Z" transform="translate(0.849 2.847)"/><path class="h" d="M18.363,29.513h.465c.039.015.039.039,0,.046h-.465Q18.3,29.536,18.363,29.513Z" transform="translate(1.434 2.847)"/><path class="i" d="M13.521,29.514c.139,0,.271,0,.411-.008.039.015.039.039,0,.054h-.411Q13.463,29.549,13.521,29.514Z" transform="translate(0.921 2.846)"/><path class="i" d="M18.4,29.514v.047H17.99c-.039-.016-.039-.039,0-.054C18.129,29.514,18.269,29.514,18.4,29.514Z" transform="translate(1.394 2.846)"/><path class="j" d="M12.869,29.513v.046h-.294v-.046Z" transform="translate(0.823 2.847)"/><path class="k" d="M13.546,29.513v.054h-.294V29.52C13.353,29.513,13.453,29.513,13.546,29.513Z" transform="translate(0.895 2.847)"/><path class="l" d="M13.891,29.567v-.054h.294v.054Z" transform="translate(0.963 2.847)"/><path class="l" d="M18.017,29.513v.054h-.294v-.054C17.823,29.505,17.924,29.513,18.017,29.513Z" transform="translate(1.369 2.847)"/><path class="m" d="M18.779,29.566v-.046h.287q.058.023,0,.046Z" transform="translate(1.481 2.848)"/><path class="j" d="M19.039,29.566v-.046h.287v.046Z" transform="translate(1.508 2.848)"/><path class="n" d="M7.927,31.193a6,6,0,0,1-1.294-.124,1.791,1.791,0,0,1-1.364-1.581,73.741,73.741,0,0,1-.457-9.7c.031-1.883.132-3.765.333-5.64.046-.442.085-.883.132-1.325A1.858,1.858,0,0,1,6.819,11.2l.488-.07c.248-.217.387-.232.628-.054.077.008.155.015.287.031a2.221,2.221,0,0,0-.635.806,4.947,4.947,0,0,0-.263,1.534c-.116,1.193-.225,2.386-.287,3.58-.054,1.054-.046,2.107-.093,3.161-.046,1.193.023,2.379.031,3.564.008,1.209.1,2.41.2,3.618.07.821.139,1.635.232,2.448a2.106,2.106,0,0,0,.713,1.34C8.035,31.169,7.981,31.177,7.927,31.193Z" transform="translate(0 0.88)"/><path class="o" d="M21.744,25.148c0-.844-.008-1.681,0-2.526,0-.4.155-.542.55-.542q.709-.012,1.418,0a1.644,1.644,0,0,1,1.41,2.526c-.093.155-.078.217.054.325a1.856,1.856,0,0,1-1.185,3.285c-.542.015-1.085.015-1.627.015-.48,0-.628-.139-.628-.62C21.736,26.79,21.744,25.969,21.744,25.148Z" transform="translate(1.794 2.059)"/><path class="o" d="M21.654,25.147a3.076,3.076,0,1,1-3.068-3.068A3.077,3.077,0,0,1,21.654,25.147Z" transform="translate(1.134 2.059)"/><path class="p" d="M7.686,11.189c-.209.015-.418.039-.628.054,0-.325,0-.651.008-.976a.882.882,0,0,1,.5-.2,27.4,27.4,0,0,1,4.509-.232,20.745,20.745,0,0,1,3.6.294,1.86,1.86,0,0,1,1.333.976c.062.116.147.24.039.372a1.812,1.812,0,0,1-1.015.047,2.365,2.365,0,0,1-.333-.093,12.6,12.6,0,0,0-2.75-.4,29.487,29.487,0,0,0-5.1.108C7.795,11.151,7.74,11.174,7.686,11.189Z" transform="translate(0.239 0.762)"/><path class="o" d="M14.883,24.681c0,.658.008,1.317,0,1.976a1.49,1.49,0,0,1-2.51,1.17.469.469,0,0,1-.147-.682.464.464,0,0,1,.69-.031c.225.163.457.31.744.155s.318-.411.318-.7c-.008-1.255,0-2.518,0-3.773a1.774,1.774,0,0,1,.008-.287.446.446,0,0,1,.891.023c.015.341.008.674.008,1.015Z" transform="translate(0.777 2.06)"/><path class="c" d="M14.871,11.3c.449-.008.907-.008,1.356-.015a.344.344,0,0,1,.31-.124c1.7-.008,3.4-.015,5.1,0a.545.545,0,0,1,.542.364.5.5,0,0,1-.085.542c-.093.108-.194.194-.349.1h-6.02A2.185,2.185,0,0,0,14.871,11.3Z" transform="translate(1.067 0.902)"/><path class="q" d="M22.57,12.847a.436.436,0,0,0,.325-.535c-.062-.271-.271-.349-.535-.349-1.767,0-3.541,0-5.307-.008-.124-.186-.232-.38-.364-.558a1.849,1.849,0,0,0-1.286-.643,24.916,24.916,0,0,0-2.735-.256c-.434-.015-.868-.062-1.3-.046a34.127,34.127,0,0,0-4.068.333,1.174,1.174,0,0,1-.232.015,2.254,2.254,0,0,0,.054-.6,31.788,31.788,0,0,1,.24-3.425A1.957,1.957,0,0,1,9.275,5.107c.17-.008.349-.039.519-.054,1.116-.108,2.231-.194,3.347-.24,1.2-.046,2.394-.139,3.6-.1,1.511.046,3.029.07,4.54.217.79.077,1.581.1,2.363.248A2.05,2.05,0,0,1,25.2,7.013c.093,1.41.194,2.813.24,4.223q.023.593.047,1.185c.015.589.031,1.178.062,1.767.008.217-.078.294-.294.279-1.418-.108-2.843-.093-4.261-.132-.752-.023-1.511-.023-2.262-.046a1.787,1.787,0,0,1-1.48-1.185c-.054-.17.015-.2.163-.2h4.8A.588.588,0,0,0,22.57,12.847Z" transform="translate(0.24 0.219)"/><path class="r" d="M9.587,4.655a.44.44,0,0,1-.054.294A.424.424,0,0,1,9.587,4.655Z" transform="translate(0.501 0.214)"/><path class="b" d="M22.558,26.038c0-.24.008-.488,0-.728-.008-.186.062-.232.232-.225.364.008.736,0,1.1,0a.95.95,0,0,1,.976.938.964.964,0,0,1-.914.976c-.4.023-.814,0-1.216.008-.147,0-.186-.062-.178-.194C22.565,26.565,22.558,26.3,22.558,26.038Z" transform="translate(1.881 2.378)"/><path class="b" d="M22.557,23.636c0-.752,0-.752.744-.752a3.108,3.108,0,0,1,.38.008.765.765,0,0,1,.713.775.747.747,0,0,1-.744.736c-.287.008-.581-.008-.868.008-.155.008-.232-.039-.225-.209C22.573,24.008,22.557,23.822,22.557,23.636Z" transform="translate(1.881 2.145)"/><path class="b" d="M18.492,22.885a2.177,2.177,0,1,1-2.177,2.177A2.179,2.179,0,0,1,18.492,22.885Z" transform="translate(1.22 2.145)"/><path class="c" d="M16.334,8.951h5.547c.108,0,.217,0,.318.008a.407.407,0,0,1,.4.4.415.415,0,0,1-.349.465,1.434,1.434,0,0,1-.318.015H10.717c-.078,0-.155,0-.232-.008a.436.436,0,0,1-.434-.449.4.4,0,0,1,.449-.426c.558-.008,1.124-.008,1.681-.008C13.561,8.951,14.947,8.951,16.334,8.951Z" transform="translate(0.556 0.668)"/></g></g></svg>