<svg xmlns="http://www.w3.org/2000/svg" width="24" height="24" viewBox="0 0 24 24"><defs><style>.a{fill:#0a66c2;}.b{fill:#fff;}</style></defs><g transform="translate(-826 -990)"><path class="a" d="M24,12A12,12,0,1,1,12,0,12,12,0,0,1,24,12Z" transform="translate(826 990)"/><g transform="translate(832.566 996.615)"><path class="b" d="M2.393,1.2a1.2,1.2,0,1,1-.35-.846,1.2,1.2,0,0,1,.35.846Zm.036,2.082H.036v7.49H2.429Zm3.781,0H3.829v7.49H6.186V6.839c0-2.19,2.854-2.393,2.854,0v3.931H11.4V6.025c0-3.691-4.224-3.554-5.217-1.741L6.21,3.279Z" transform="translate(0 0)"/></g></g></svg>