<svg xmlns="http://www.w3.org/2000/svg" width="32" height="32" viewBox="0 0 32 32"><defs><style>.a{fill:#0a66c2;opacity:0;}.b{fill:#fff;}</style></defs><path class="a" d="M32,16A16,16,0,1,1,16,0,16,16,0,0,1,32,16Z"/><g transform="translate(4 4.999)"><path class="b" d="M5.028,2.515A2.514,2.514,0,1,1,4.292.737a2.514,2.514,0,0,1,.735,1.778ZM5.1,6.889H.075V22.626H5.1Zm7.944,0h-5V22.626H13V14.368c0-4.6,6-5.028,6,0v8.258h4.965V12.658C23.957,4.9,15.083,5.192,13,9l.05-2.112Z" transform="translate(0 0)"/></g></svg>