<svg xmlns="http://www.w3.org/2000/svg" width="16" height="20" viewBox="0 0 16 20"><defs><style>.a{fill:#f6b333;}.b{fill:#ed9e08;}</style></defs><path class="a" d="M7.718,0a8.212,8.212,0,0,0-8,7.987,7.823,7.823,0,0,0,1,3.994,23.462,23.462,0,0,0,3,3.994,34.531,34.531,0,0,0,4,3.994c.053.041-.063,0,0,0s-.053.041,0,0a34.524,34.524,0,0,0,4-3.994,23.467,23.467,0,0,0,3-3.994,7.823,7.823,0,0,0,1-3.994A8.212,8.212,0,0,0,7.718,0Zm0,4.992a3.271,3.271,0,0,1,3,3,3.517,3.517,0,0,1-3,3.239,3.517,3.517,0,0,1-3-3.239A3.271,3.271,0,0,1,7.718,4.992Z" transform="translate(0.282 0.014)"/><path class="b" d="M.857,0c-.29,0-.719-.031-1,0a8.173,8.173,0,0,1,7,7.987,7.823,7.823,0,0,1-1,3.994,23.462,23.462,0,0,1-3,3.994,25.433,25.433,0,0,1-3,3c.4.345.972.977,1,1,.053.041-.063,0,0,0s-.053.041,0,0a34.524,34.524,0,0,0,4-3.994,23.467,23.467,0,0,0,3-3.994,7.823,7.823,0,0,0,1-3.994A8.212,8.212,0,0,0,.857,0Z" transform="translate(7.143 0.014)"/></svg>