<svg xmlns="http://www.w3.org/2000/svg" width="19.513" height="23.047" viewBox="0 0 19.513 23.047"><defs><style>.a{fill:#1c1b1b;}.b{fill:#fefefe;}</style></defs><path class="a" d="M41.73,24a2.467,2.467,0,0,1-1.187-.684c-1.415-1.276-2.862-2.517-4.153-3.923a17.5,17.5,0,0,1-3.277-4.751,9.312,9.312,0,0,1,1.052-9.786A9.094,9.094,0,0,1,40,1.149a9.481,9.481,0,0,1,9.291,3.144A9.47,9.47,0,0,1,50.81,14.619a17.931,17.931,0,0,1-3.259,4.736c-1.382,1.507-2.937,2.83-4.454,4.193A2.151,2.151,0,0,1,42.18,24Z" transform="translate(-32.191 -0.948)"/><path class="b" d="M64.838,24.72a8.284,8.284,0,0,1,7.047,4.037A7.9,7.9,0,0,1,73.011,34.4,9.273,9.273,0,0,1,71.9,37.414a20.951,20.951,0,0,1-3.9,4.824c-.957.921-1.963,1.787-2.95,2.675-.235.212-.366.228-.569.046a56.658,56.658,0,0,1-4.538-4.3A16.538,16.538,0,0,1,57.2,36.678a7.976,7.976,0,0,1,.353-7.859A8.179,8.179,0,0,1,63.1,24.893a6.78,6.78,0,0,1,.755-.116C64.147,24.749,64.441,24.742,64.838,24.72Z" transform="translate(-54.97 -23.382)"/><path class="a" d="M138.059,95.553a4.292,4.292,0,1,1-4.277-4.3A4.311,4.311,0,0,1,138.059,95.553Z" transform="translate(-124 -86.168)"/><path class="b" d="M159.192,118.247a2.946,2.946,0,1,1-2.945-2.947,2.963,2.963,0,0,1,2.945,2.947Z" transform="translate(-146.484 -108.864)"/></svg>