<svg xmlns="http://www.w3.org/2000/svg" width="24" height="24" viewBox="0 0 24 24"><defs><style>.a{fill:#fff;stroke:#707070;opacity:0;}.b{fill:#1c1b1b;}.c{stroke:none;}.d{fill:none;}</style></defs><g transform="translate(16510 -15214)"><g class="a" transform="translate(-16510 15214)"><rect class="c" width="24" height="24"/><rect class="d" x="0.5" y="0.5" width="23" height="23"/></g><g transform="translate(-16854.75 14869.25)"><path class="b" d="M358.029,348.75c.095.026.191.049.284.078a1.635,1.635,0,0,1,1.164,1.527c.014,1.125.007,2.25,0,3.374a.333.333,0,0,1-.337.354.337.337,0,0,1-.329-.365q0-1.6,0-3.2a1.014,1.014,0,0,0-1.1-1.1h-5.294l-.008.031c.144.049.288.1.433.148.541.179,1.083.355,1.623.537a1.328,1.328,0,0,1,.99,1.373q0,4.445,0,8.889,0,.773,0,1.547c0,.041,0,.082.008.138.055,0,.1.009.155.009q1.054,0,2.107,0A1.012,1.012,0,0,0,358.816,361q0-1.578,0-3.156a.668.668,0,0,1,.027-.214.319.319,0,0,1,.348-.209.325.325,0,0,1,.287.287,1.334,1.334,0,0,1,.005.156q0,1.562,0,3.125a1.671,1.671,0,0,1-1.775,1.761h-2.251c0,.187,0,.363,0,.538a1.333,1.333,0,0,1-1.116,1.443c-.009,0-.016.012-.024.019h-.409l-1.125-.374-3.076-1.018a1.338,1.338,0,0,1-.861-.784c-.039-.095-.065-.2-.1-.293V349.875a1.336,1.336,0,0,1,.473-.8,5.1,5.1,0,0,1,.659-.329Zm-3.24,8.663q0-2.96,0-5.92a.673.673,0,0,0-.519-.726q-1.956-.651-3.914-1.3a.669.669,0,0,0-.937.671q0,5.936,0,11.871a.671.671,0,0,0,.515.714q1.979.658,3.961,1.311a.736.736,0,0,0,.307.036.668.668,0,0,0,.588-.711Q354.79,360.388,354.79,357.413Z"/><path class="b" d="M564.138,447.977c-.085.09-.168.182-.256.27q-1.222,1.224-2.446,2.445a.907.907,0,0,1-.141.124.325.325,0,0,1-.428-.059.332.332,0,0,1-.016-.42,1.263,1.263,0,0,1,.118-.126l1.867-1.868c.04-.04.078-.081.146-.153h-5.747a1.026,1.026,0,0,1-.234-.02.328.328,0,0,1,0-.635,1.019,1.019,0,0,1,.234-.02h5.746c-.059-.064-.094-.1-.132-.141-.637-.638-1.277-1.272-1.909-1.915a.52.52,0,0,1-.151-.294.325.325,0,0,1,.492-.283.726.726,0,0,1,.143.121q1.3,1.293,2.592,2.588c.043.043.081.092.121.137Z" transform="translate(-199.388 -92.098)"/></g></g></svg>