<svg xmlns="http://www.w3.org/2000/svg" width="19.747" height="20.767" viewBox="0 0 19.747 20.767"><defs><style>.a{fill:#fff;}</style></defs><g transform="translate(-389.188 -381.759)"><path class="a" d="M407.584,524.973H390.548a1.7,1.7,0,0,1-1.359-1.891c.026-3.353.01-6.706.01-10.059v-.263c.093.065.148.1.2.141q4,2.988,8.014,5.971a3.19,3.19,0,0,0,.966.489,2.544,2.544,0,0,0,2.347-.477q3.992-2.989,7.989-5.971c.061-.046.125-.089.217-.154v2.272q0,4.117,0,8.233a1.7,1.7,0,0,1-.423,1.21A1.822,1.822,0,0,1,407.584,524.973Z" transform="translate(0 -122.448)"/><path class="a" d="M434.106,412.057h13.83v.224q0,3.538,0,7.076a.364.364,0,0,1-.168.332q-2.824,2.1-5.641,4.2a1.634,1.634,0,0,1-2.173,0q-2.854-2.123-5.708-4.246a.313.313,0,0,1-.156-.278q.008-3.569,0-7.137C434.1,412.175,434.1,412.122,434.106,412.057Zm6.954,6.78c-1.06,0-2.121,0-3.181,0a.57.57,0,0,0-.469.192.469.469,0,0,0-.085.529.561.561,0,0,0,.557.33q3.161,0,6.322,0a.725.725,0,0,0,.293-.06.507.507,0,0,0,.292-.566.534.534,0,0,0-.548-.418Q442.65,418.835,441.06,418.837Zm-1.868-1.572c.459,0,.918,0,1.378,0a.52.52,0,1,0,.01-1.036q-1.368-.008-2.735,0a.52.52,0,1,0,.01,1.036C438.3,417.268,438.746,417.265,439.192,417.265Z" transform="translate(-41.973 -28.32)"/><path class="a" d="M662.278,478.118v-2.572l1.635,1.359Z" transform="translate(-255.259 -87.664)"/><path class="a" d="M519.319,382.677H516.07a2.231,2.231,0,0,1,1.6-.918C518.375,381.763,518.808,382.241,519.319,382.677Z" transform="translate(-118.597 0)"/><path class="a" d="M393.7,477.6l1.581-1.311v2.485Z" transform="translate(-4.218 -88.357)"/></g></svg>