<svg xmlns="http://www.w3.org/2000/svg" width="20" height="20" viewBox="0 0 20 20"><defs><style>.a{fill:#fff;stroke:#707070;opacity:0;}.b{stroke:none;}.c{fill:none;}</style></defs><g transform="translate(-1046.131 -539.131)"><g class="a" transform="translate(1046.131 539.131)"><rect class="b" width="20" height="20"/><rect class="c" x="0.5" y="0.5" width="19" height="19"/></g><g transform="translate(1051.065 542.377)"><path d="M393.735,332.544c.1.023.207.043.31.068a2.567,2.567,0,0,1,2.02,2.478c0,.043,0,.087,0,.164.054-.049.088-.079.12-.111q.835-.82,1.67-1.64a.567.567,0,0,1,.193-.134.318.318,0,0,1,.382.14.323.323,0,0,1-.068.409q-.761.752-1.526,1.5c-.221.218-.439.438-.665.651a.312.312,0,0,0-.109.251c0,1.1.008,2.207,0,3.311a2.538,2.538,0,0,1-1.318,2.3,2.611,2.611,0,0,1-2.972-.281c-.216-.193-.4-.424-.582-.623l-.732.722a3.39,3.39,0,0,0,.842.842A3.7,3.7,0,0,0,396.87,341a3.42,3.42,0,0,0,.254-1.153.954.954,0,0,1,.059-.332.306.306,0,0,1,.362-.158.331.331,0,0,1,.243.312,4.1,4.1,0,0,1-.517,2.023,4.24,4.24,0,0,1-2.254,1.951,4.56,4.56,0,0,1-.641.186c-.212.047-.43.069-.656.1v1.464c.049,0,.1.007.144.007.38,0,.76,0,1.14,0a.688.688,0,0,1,.2.023.33.33,0,0,1,.219.329.345.345,0,0,1-.284.294.637.637,0,0,1-.094,0h-3.164a.337.337,0,0,1-.373-.285.328.328,0,0,1,.359-.364c.34,0,.679,0,1.019,0h.154a.952.952,0,0,0,.013-.109c0-.422,0-.844,0-1.266,0-.087-.025-.124-.116-.135a4.271,4.271,0,0,1-2.911-1.629c-.016-.021-.034-.04-.062-.072-.037.034-.072.065-.1.1q-.465.457-.929.914a.34.34,0,0,1-.354.1.309.309,0,0,1-.222-.242.354.354,0,0,1,.134-.34c.336-.329.667-.662,1.007-.986a.181.181,0,0,0,.048-.254,4.119,4.119,0,0,1-.414-1.77.331.331,0,0,1,.211-.336.269.269,0,0,1,.331.062.572.572,0,0,1,.117.306,3.774,3.774,0,0,0,.312,1.378c.03-.024.057-.043.081-.066.225-.22.452-.439.67-.665a.251.251,0,0,0,.06-.17c-.01-.214-.05-.428-.051-.642,0-1.464,0-2.928,0-4.392a2.533,2.533,0,0,1,.9-2.008,2.563,2.563,0,0,1,1.331-.6c.039-.006.076-.018.115-.028Zm-2.223,7.176a.448.448,0,0,0,.055-.035q1.891-1.86,3.78-3.722a.215.215,0,0,0,.052-.139c0-.268.006-.536,0-.8a1.935,1.935,0,0,0-2.383-1.774,1.912,1.912,0,0,0-1.5,1.893c0,1.494,0,2.989,0,4.483Zm3.881-2.876c-.045.042-.072.066-.1.09l-1.857,1.826c-.556.547-1.11,1.095-1.669,1.638a.137.137,0,0,0-.029.2,1.956,1.956,0,0,0,2.538.833,1.8,1.8,0,0,0,1.111-1.643c.03-.952.009-1.906.01-2.86C395.4,336.91,395.4,336.889,395.394,336.844Z" transform="translate(-388.345 -332.544)"/></g></g></svg>