<svg xmlns="http://www.w3.org/2000/svg" width="663.749" height="354.786" viewBox="0 0 663.749 354.786"><defs><style>.a{fill:#e7f5fe;}.b,.e,.f,.g,.j,.m,.p{fill:none;}.b,.e,.m{stroke:#f6b333;}.b,.e,.f,.j,.l,.p{stroke-miterlimit:10;}.b{stroke-dasharray:4;}.c{fill:#fff1d6;}.d{fill:#f6b333;}.f,.g{stroke:#d2e8f9;}.g,.m{stroke-linecap:round;stroke-linejoin:round;}.h{fill:#26387a;}.i{fill:#ffb288;}.j{stroke:#0061a6;}.j,.l,.p{stroke-width:0.5px;}.k,.l{fill:#2a5798;}.l,.p{stroke:#082a5b;}.m{stroke-width:5px;}.n,.o{fill:#d98f00;}.o{opacity:0.5;mix-blend-mode:multiply;isolation:isolate;}.q{fill:#0f0f0f;}.r{fill:#0061a6;}.s{fill:#1e1e1e;}.t{fill:#ef9467;}.u{fill:#fdae2b;}.v{fill:#e2e8ed;}</style></defs><g transform="translate(-145.013 -172.555)"><path class="a" d="M745.008,400.659c-3.954-7.544-20.022-13.605-27.214-14.977-38.383-7.328-78.586-6.3-117.468-6.181-42.345.133-82.747,6.912-124.741,10.051-21.838,1.627-44.917-1.3-66.806-2.063q-54.067-1.873-108.111-4.4c-31.064-1.451-63.305,1.8-90.707,18.927-3.114,1.947-6.26,4.3-7.677,7.793-8.9,21.943,102.034,19.185,116.487,19.561,72.905,1.9,145.859,2.88,218.773.906,54.214-1.469,110.716-1.379,164.48-9.029,11.89-1.692,28.07-2.3,38.342-9.3C746.049,408.083,746.869,404.207,745.008,400.659Z" transform="translate(25.158 95.979)"/><g transform="translate(180.789 172.555)"><path class="b" d="M712.444,189.352c19.481,0,51.223,7.7,48.084,26.725-4.3,26.067-120.166,16.453-147.84,16.724-55.651.545-111.891.754-166.457,12.923-13.267,2.959-32.272,9.488-30.827,26.417.505,5.912,3.99,11.264,8.423,15.267,15.935,14.392,38.138,15.769,58.751,18.3,31.174,3.821,179.46-1.271,227.933,14.621,9.547,3.13,21.473,7.165,21.87,20.8,1.01,34.674-85.1,32.967-110.93,33.626-68.942,1.758-137.96,1.061-206.9-.3-55.714-1.1-111.6-2.073-167.228-5.669-20.735-1.34-54.649-1.742-70.462-17.308-8.843-8.7-10-24.527,3.979-32.612,9.853-5.7,38.759-3.206,49.885-4.164,35.957-3.094,21.863-26.19-9.657-26.19" transform="translate(-170.257 -164.76)"/><g transform="translate(491.731)"><path class="c" d="M558.557,222.5l-8.878-46.926a3.707,3.707,0,0,0-6.061-2.12l-36.2,31.151a3.708,3.708,0,0,0,1.195,6.31l45.077,15.774A3.708,3.708,0,0,0,558.557,222.5Z" transform="translate(-506.128 -172.555)"/><g transform="translate(6.213 6.03)"><path class="d" d="M549.748,219.877a2.3,2.3,0,0,1-.758-.129l-37.076-12.976a2.3,2.3,0,0,1-.742-3.919l29.776-25.622a2.3,2.3,0,0,1,3.766,1.318l7.3,38.6a2.3,2.3,0,0,1-2.266,2.732ZM513.9,204.367l35.032,12.26-6.9-36.469Z" transform="translate(-510.372 -176.673)"/></g><path class="d" d="M526.567,200.544h0a1.389,1.389,0,0,1-.873-1.711l3.676-12.9a2.182,2.182,0,0,1,2.81-1.432h0a2.181,2.181,0,0,1,1.3,2.871l-5.168,12.376A1.39,1.39,0,0,1,526.567,200.544Z" transform="translate(-497.076 -167.067)"/><path class="d" d="M527.329,198.419a1.416,1.416,0,1,1-.868-1.805A1.415,1.415,0,0,1,527.329,198.419Z" transform="translate(-497.567 -161.426)"/></g><g transform="translate(65.777 29.545)"><circle class="e" cx="2.431" cy="2.431" r="2.431" transform="translate(0 139.181)"/><circle class="f" cx="2.431" cy="2.431" r="2.431" transform="translate(360.776 94.207)"/><circle class="f" cx="2.431" cy="2.431" r="2.431" transform="translate(169.361 26.098)"/><circle class="f" cx="2.431" cy="2.431" r="2.431" transform="translate(166.444 210.938)"/><g transform="translate(222.77 70.254)"><line class="g" y2="5.499" transform="translate(2.749)"/><line class="g" x1="5.499" transform="translate(0 2.749)"/></g><g transform="translate(321.461)"><line class="g" y2="5.499" transform="translate(2.75)"/><line class="g" x1="5.499" transform="translate(0 2.75)"/></g><g transform="translate(474.145 148.325)"><line class="g" y2="5.499" transform="translate(2.75)"/><line class="g" x1="5.499" transform="translate(0 2.749)"/></g></g><g transform="matrix(0.656, -0.755, 0.755, 0.656, 8.107, 113.72)"><path class="c" d="M36.226,34.511,30.091,2.087A2.561,2.561,0,0,0,25.9.623L.891,22.146a2.562,2.562,0,0,0,.825,4.36L32.862,37.4A2.562,2.562,0,0,0,36.226,34.511Z"/><g transform="translate(4.293 4.166)"><path class="d" d="M27.207,29.852a1.589,1.589,0,0,1-.524-.089L1.066,20.8a1.592,1.592,0,0,1-.513-2.708L21.126.385a1.591,1.591,0,0,1,2.6.91l5.045,26.668a1.591,1.591,0,0,1-1.566,1.888ZM2.44,19.135l24.205,8.471-4.767-25.2Z"/></g><path class="d" d="M.644,11.169h0a.96.96,0,0,1-.6-1.183l2.54-8.912A1.508,1.508,0,0,1,4.522.085h0a1.507,1.507,0,0,1,.9,1.984L1.853,10.619A.96.96,0,0,1,.644,11.169Z" transform="translate(19.734 11.962)"/><path class="d" d="M1.9,1.3A.979.979,0,1,1,1.3.055.977.977,0,0,1,1.9,1.3Z" transform="translate(18.661 24.258)"/></g></g><g transform="translate(443.26 215.889)"><g transform="translate(58.167 140.036)"><g transform="translate(0 1.271)"><path class="h" d="M406.182,401.415s-10.235,4.366-10.228,6.55c.006,1.253,14.074-.54,14.922-1.388,1.357-1.357-.549-4.975-.549-4.975Z" transform="translate(-386.161 -250.993)"/><path class="i" d="M402.492,397.747l.656,6.293a1.923,1.923,0,0,0,1.772,1.132,2.976,2.976,0,0,0,2.373-1.132l-.505-7.875" transform="translate(-383.127 -253.429)"/><path class="h" d="M426.5,298.671c3.723,15,2.341,22.618-3.113,33.934-3.3,38.046-5.613,75.943-10.058,113.039l-4.7.268C397.948,409.8,388.12,355.8,389.373,306.445" transform="translate(-389.265 -298.671)"/><g transform="translate(22.729 5.153)"><path class="j" d="M416.98,302.191a28.388,28.388,0,0,1,1.583,11.111c-.182,5.692-2.495,10.844-3.992,16.244-2,7.2-2.152,14.368-2.7,21.747q-1.282,17.32-2.61,34.636-2.152,28.242-4.342,56.48-.064.839-.129,1.678" transform="translate(-404.79 -302.191)"/></g></g><g transform="translate(31.152)"><path class="h" d="M434.057,402.415s-10.235,4.366-10.228,6.55c.006,1.253,14.074-.54,14.922-1.388,1.357-1.357-.549-4.975-.549-4.975Z" transform="translate(-404.378 -249.258)"/><path class="i" d="M430.367,398.747l.656,6.293a1.923,1.923,0,0,0,1.771,1.132,2.977,2.977,0,0,0,2.373-1.132l-.505-7.875" transform="translate(-401.344 -251.695)"/><path class="h" d="M450.664,297.8c4.707,14.721,3.833,22.415-.859,34.066-.78,38.181-3.407,78.051-5.388,115.36h-4.834c-13.048-35.33-27.025-89.881-29.039-139.211" transform="translate(-410.543 -297.803)"/><g transform="translate(24.29 6.098)"><path class="j" d="M438.059,301.968s5.456,12.769-3.767,30.7C433.228,349.6,432.68,445.3,432.68,445.3" transform="translate(-424.56 -301.968)"/><path class="j" d="M427.134,304.73a8.426,8.426,0,0,0,4,3.112,19.883,19.883,0,0,0,4.99,1.13,35.41,35.41,0,0,0,6.085.313" transform="translate(-427.134 -300.686)"/><path class="j" d="M427.591,306.364a13.875,13.875,0,0,0,6.253,3.08,32.56,32.56,0,0,0,6.985.662" transform="translate(-426.922 -299.928)"/></g></g></g><g transform="translate(26.293 39.309)"><path class="i" d="M414.777,253.422c-16.277,28.325-33.8,53.977-44.188,84.95l-3.1-1.647c.791-28.757,10.112-70.57,22.35-96.605" transform="translate(-367.494 -223.844)"/><path class="k" d="M403.569,229a43.053,43.053,0,0,0-10.958,5.353,37.3,37.3,0,0,0-12.655,15.27,69.145,69.145,0,0,0-5.449,19.249,51.168,51.168,0,0,0,14.623,4.382,77.194,77.194,0,0,0,16.116,0" transform="translate(-364.24 -229.003)"/></g><g transform="translate(52.633 33.99)"><path class="k" d="M386.337,247.43c-1.732,30.634-.411,62.146.366,91.944,0,0,10.682,2.843,36.636,2.843,25.854,0,42.785-7.882,42.785-7.882-5.01-30.624-8.994-68.2-21.261-93.409,0,0-13.844-14.933-27.5-15.545a17.8,17.8,0,0,0-8.105,2.1c-1.927.9-10.783,3.06-10.783,3.06Z" transform="translate(-385.485 -225.37)"/><path class="l" d="M386.182,242.3c-.678,5.89-.678,24.069-.678,24.069" transform="translate(-385.477 -217.512)"/></g><g transform="translate(0 120.654)"><path class="m" d="M403.6,309.919c43.358-4.808,61.544,50.147,71.418,71.465,23.337,50.393,111.389,44.773,151.516,44.773,52.554,0,75.62,17.712,51.09,27" transform="translate(-324.447 -272.937)"/><path class="d" d="M431.231,322.857c0,22.3-16.882,35.765-31.31,35.765H376.254V287.09H399.92C414.349,287.09,431.231,300.551,431.231,322.857Z" transform="translate(-337.136 -283.393)"/><path class="n" d="M422.888,324.028c0,21.794-12.906,39.462-28.826,39.462H367.95V284.565h26.113C409.983,284.565,422.888,302.233,422.888,324.028Z" transform="translate(-340.99 -284.565)"/><path class="o" d="M414.654,296.793q-8.47,11.543-16.5,23.4a4,4,0,0,0,2.019-1.057c0,.593-.944,1.619-.11,2s1.72-.6,2.593-.329c.818-.192,1.583-1.22,2.181-1.811a4.534,4.534,0,0,0-.366,1.382c5.761-2.24,10.913-7.612,15.394-11.933A36.107,36.107,0,0,0,414.654,296.793Z" transform="translate(-326.971 -278.89)"/><path class="d" d="M28.825,0c15.92,0,28.825,17.668,28.825,39.463S44.745,78.926,28.825,78.926,0,61.258,0,39.463,12.906,0,28.825,0Z" transform="translate(0)"/><g transform="translate(21.352 19.614)"><g transform="translate(0 27.969)"><path class="n" d="M374,322.931c0,3.239-2.212,5.864-4.941,5.864s-4.941-2.625-4.941-5.864,2.212-5.865,4.941-5.865S374,319.691,374,322.931Z" transform="translate(-364.119 -317.066)"/></g><path class="n" d="M374,303.827c0,3.238-2.212,5.864-4.941,5.864s-4.941-2.625-4.941-5.864,2.212-5.865,4.941-5.865S374,300.587,374,303.827Z" transform="translate(-364.119 -297.962)"/></g></g><g transform="translate(70.851 34)"><path class="i" d="M444.736,258.055s1.83,18.642-6.5,34.143c-7.128,13.256-21.287,30.413-32.727,39.866l-2.748-.671c3.981-15.277,16.548-42.406,17.33-52.578s.594-21.956.782-27.622" transform="translate(-395.689 -213.397)"/><path class="k" d="M407.258,225.377s15.342,1.048,24.242,8.569c12.707,10.736,14.589,31.751,14.589,36.631-3.84,4.151-12.236,4.363-18.353,4.363a21.1,21.1,0,0,1-10.589-2.928l-1.247-23.18" transform="translate(-393.599 -225.377)"/><path class="i" d="M406.112,304.423a9.757,9.757,0,0,0-4.906,2.168c-1.344,1.05-3,2.808-2.824,3.61.182.846,2.385-.779,2.653-.451s-3.771,6.426-3.01,6.884,4.2-5.07,4.2-5.07-3.337,5.9-2.045,6.033c1.079.108,4.041-5.478,4.041-5.478s-2.5,5-1.647,5.183,3.18-4.787,3.18-4.787-1.89,4.252-1.165,4.325c.366.037,2.231-2.079,3.01-4.64.767-2.521,1.663-4.707.972-6.673" transform="translate(-397.929 -188.696)"/><line class="p" y2="21.119" transform="translate(24.189 25.889)"/></g><g transform="translate(51.526)"><path d="M385.576,212.366q-.121,1.375-.11,2.754a9.94,9.94,0,0,0,1.417,5.7,6,6,0,0,0,3.293,2.31c.934.255,2.157.146,2.559-.733a2.39,2.39,0,0,0,.148-1.007,27.057,27.057,0,0,0-1.944-9.966" transform="translate(-384.387 -197.85)"/><path class="i" d="M408.331,216.887c-1.315-5.132-5.455-12.317-12.191-10.874-4.23.9-8.125,3.788-9.37,7.822-1.486,4.817.924,10.421,3.811,14.354a11.865,11.865,0,0,0,3.972,3.684c3.9,2.017,9.164.365,11.81-2.994S409.371,220.948,408.331,216.887Z" transform="translate(-383.992 -200.449)"/><path class="i" d="M395.153,224.505l2.2,8.042-3,1.414a7.312,7.312,0,0,0,6.806,2.386c9.191-1.325,12.081-7.7,12.081-7.7l-5.189-.542-5.745-9.793" transform="translate(-380.261 -194.652)"/><path d="M413.552,212.993a12.914,12.914,0,0,0-6.219-8.379c-5.44-3.3-13.184-3.569-18.027.982-2.757,2.593-7.721,11.78-1.791,13.6,1.852.569,3.758-.556,5.37-1.634l4.918-3.288a3.9,3.9,0,0,1,1.922-.827,2.875,2.875,0,0,1,2.537,2.041,26.634,26.634,0,0,1,.714,3.4,3.24,3.24,0,0,0,1.233,2.057,1.512,1.512,0,0,0,2.13-.428,3.754,3.754,0,0,0,.06-1.688c-.01-.569.31-1.268.88-1.242a.989.989,0,0,1,.549.239c1.432,1.114.966,3.347,1.442,5.1.063.231-.416,3.774-.258,3.953C413.584,225.819,414.014,215.52,413.552,212.993Z" transform="translate(-384.729 -202.153)"/><path class="i" d="M399.8,213.424a1.264,1.264,0,0,1,1.168-1.316,2.487,2.487,0,0,1,1.791.681,3.958,3.958,0,0,1,1.5,2.886,4.454,4.454,0,0,1-.816,2.458,2.645,2.645,0,0,1-1.315,1.158,2.088,2.088,0,0,1-2.064-.657" transform="translate(-377.74 -197.538)"/></g></g><g transform="translate(147.562 214.633)"><g transform="translate(122.938 141.292)"><g transform="translate(44.613 3.197)"><path class="h" d="M290.1,401.262s9.874,1.647,10.146,3.815c.155,1.243-13.838,2.725-14.788,1.993-1.52-1.171.344-5.555.344-5.555Z" transform="translate(-251.399 -252.991)"/><path class="i" d="M289.322,397.451l.808,6.24a1.921,1.921,0,0,1-1.612,1.348,2.979,2.979,0,0,1-2.5-.815l-1.161-7.79" transform="translate(-251.401 -255.231)"/><path class="q" d="M263.019,299.987c-1.764,15.353-1.861,22.732,5,33.253,3.252,14.857,8.244,30.064,12.018,45.273-1.625,18.163,9.762,47.1,15.888,67.761l4.429-.757c5.951-37.19,8.15-94.226,2.808-144.15" transform="translate(-262.006 -299.987)"/><path class="r" d="M285.3,401.394l-.685-2.695,5.709-.212.076,2.487Z" transform="translate(-251.516 -254.278)"/></g><path class="h" d="M238.073,401.98s7.724,5.581,7.041,7.546c-.394,1.126-12.958-3.53-13.459-4.556-.8-1.643,2.644-4.593,2.644-4.593Z" transform="translate(-231.534 -250.204)"/><path class="i" d="M239.093,398.592l-1.95,5.666a1.828,1.828,0,0,1-1.946.469,2.837,2.837,0,0,1-1.786-1.754l2.3-7.137" transform="translate(-230.662 -252.311)"/><path class="s" d="M242.943,297.8c-4.707,14.721-3.833,22.415.861,34.066.284,13.946.425,28.058.586,42.172-9.937,24.87-11.51,47.186-10.253,70.867l4.792,1.777s28.53-49.728,33.777-69.386a324.924,324.924,0,0,0,10.36-69.282" transform="translate(-230.498 -297.803)"/><path class="r" d="M233.411,399.293l.759-3.2,6.132,2.852-1.209,2.74Z" transform="translate(-230.662 -252.192)"/></g><g transform="translate(194.033 9.047)"><path class="t" d="M298.03,226.028l-3.843-3.282v-6.8c0-1.054-1.429-7.383-2.719-7.383s-1.581-1.581-2.227-.937.528,7.793,0,8.32-1.209-3.4-1.7-2.908-.527,3.364-.527,4.834a9.773,9.773,0,0,0,2.342,5.351c1.167,1.165,6.329,6.745,6.329,6.745Z" transform="translate(-276.881 -207.475)"/><path class="k" d="M299.319,218.66l-3.214,3.656s12.693,16.8,16.714,22.426c-3.667-1.284-8.931-4.5-11.974-6.5-5.97-3.913-11.957-5.989-16.1-5.989-8.792,0-4.19,28.979,6.008,33.221,19.347,2.909,41.033,1.069,44.353-5.733C340.031,249.664,311.672,225.922,299.319,218.66Z" transform="translate(-280.094 -202.284)"/><path class="p" d="M302.446,236.475s2.42,6.759,6.724,8.966" transform="translate(-269.721 -194.017)"/></g><g transform="translate(131.55 37.32)"><path class="k" d="M260.129,236.152c-23.062,25.9-22.713,70.438-22.713,100.708,0,0,16.932,11.559,42.787,11.559,25.953,0,36.635-6.372,36.635-6.372.777-30.669-4.692-43.9.366-94.629,0,0-8.253-18.935-12.652-18.935s-21.609-1.7-21.609-1.7Z" transform="translate(-237.416 -226.786)"/><path class="p" d="M291.043,254.59s.524-8.859,2.675-11.011" transform="translate(-212.53 -218.993)"/></g><path class="i" d="M273.785,217.3c.858-5.227,4.581-12.692,11.418-11.849,4.294.53,7.619,3.5,10.021,6.969,2.061,2.976,1.284,5.827-1.65,13.365-.934,1.54-2.95,4.294-4.515,5.287-3.707,2.351-9.1,1.168-12.027-1.944A14.067,14.067,0,0,1,273.785,217.3Z" transform="translate(-89.083 -199.398)"/><path d="M276.446,218.557c.985-.148.007-.788.442.107.278.574.36.739.918.927s.558.682,1.015,1.023c.712.53,1.315-.19,1.615-.8a6.88,6.88,0,0,0,.408-3.723c-.1-.963-.424-2.487.52-3.158.772-.548,2.477.247,3.272.477,1.227.354,2.441.751,3.662,1.123,2.946.9,6.055,1.685,9.155,1.268a8.876,8.876,0,0,0,6.8-4.284c1.555-3.009-1.553-6.94-4.72-6.944a12.081,12.081,0,0,0-2.429.5,1.892,1.892,0,0,1-.909.013c-.69-.2-1-.981-1.385-1.587a5.215,5.215,0,0,0-5.249-2.158c-2.345.258-4.348,1.382-6.581,1.993a13.471,13.471,0,0,1-3.389.056,3.6,3.6,0,0,0-3.009,1.963c-.957-1-3.093,1.455-3.625,2.1-2.337,2.843-3.076,6.943-3.14,10.537-.056,3.145.469,7.718,3.916,8.983,1.458.536,2.376.821,2.438-.515-.64-1.386-.788-4.136-.919-5.291s.208-2.534,1.28-2.985" transform="translate(-90.831 -201.295)"/><path class="i" d="M288.277,224.686l-.751,7.9,2.6.735a7.311,7.311,0,0,1-5.9,4.149c-9.2,1.227-15.711-5.846-15.711-5.846l3.073-.594,4.651-14.665" transform="translate(-91.435 -194.303)"/><path class="i" d="M276.645,213.43a1.264,1.264,0,0,0-1.28-1.208,2.479,2.479,0,0,0-1.723.836c-2.575,2.562.66,8.811,3.2,5.584" transform="translate(-89.493 -196.225)"/><path d="M286.939,219.448c-.273.844-1.352,1.18-1.943,1.266-2.862.417-4.945-1.623-7.685-2.069a2.89,2.89,0,0,0-2.138.579,5.283,5.283,0,0,0-.9,2.427,6.829,6.829,0,0,0,0,1.184c.049.727-.285,1.254,0,1.879,1.238,2.716,6.588,3.569,8.68,3.4a3.673,3.673,0,0,0,2.387-.942c.942-.937,1.147-2.573,1.5-4.012A10.413,10.413,0,0,0,286.939,219.448Z" transform="translate(-82.371 -193.388)"/><path class="i" d="M287.369,221.8a.859.859,0,0,0-.46-.167,42.15,42.15,0,0,1-4.722-.608,2.167,2.167,0,0,0-.8.04,1.645,1.645,0,0,0-1,1.316,1.11,1.11,0,0,0,.687,1.263,7.258,7.258,0,0,0,3.032.662,4.358,4.358,0,0,0,2.84-.508C287.375,223.446,288,222.255,287.369,221.8Z" transform="translate(-85.937 -192.148)"/><g transform="translate(0 100.929)"><path class="m" d="M329.953,299.693c-50.384-2.634-79.714,23.368-100.548,70.727-27.035,61.462-64.822,66.371-81.843,66.034" transform="translate(-147.562 -256.648)"/><path class="d" d="M258.985,315.184c1.854,22.227,19.8,34.238,34.174,33.039l23.584-1.968L310.8,274.971l-23.583,1.968C272.835,278.138,257.131,292.955,258.985,315.184Z" transform="translate(-95.926 -268.035)"/><path class="n" d="M267.3,315.657c1.811,21.719,16.141,38.254,32.006,36.931l26.022-2.17-6.56-78.653-26.022,2.17C276.88,275.258,265.487,293.938,267.3,315.657Z" transform="translate(-92.086 -269.523)"/><ellipse class="d" cx="28.825" cy="39.463" rx="28.825" ry="39.463" transform="translate(196.096 4.792) rotate(-4.768)"/><g transform="translate(224.515 21.717)"><g transform="translate(2.325 27.873)"><path class="u" d="M302.527,310.376c.268,3.227,2.691,5.66,5.411,5.433s4.707-3.028,4.438-6.256-2.692-5.66-5.413-5.433S302.257,307.147,302.527,310.376Z" transform="translate(-302.502 -304.105)"/></g><path class="u" d="M300.939,291.338c.268,3.227,2.692,5.66,5.411,5.433s4.707-3.028,4.437-6.254-2.692-5.661-5.413-5.435S300.669,288.109,300.939,291.338Z" transform="translate(-300.914 -285.067)"/></g><g transform="translate(227.749 20.351)"><path class="v" d="M305.654,295.423l36.781-3.067a4.1,4.1,0,0,0,3.72-4.443h0a4.1,4.1,0,0,0-4.4-3.764l-36.781,3.067C302.157,287.451,302.693,295.671,305.654,295.423Z" transform="translate(-303.123 -284.134)"/><path class="v" d="M307.243,314.462l36.781-3.069a4.1,4.1,0,0,0,3.72-4.442h0a4.1,4.1,0,0,0-4.4-3.766l-36.781,3.069C303.744,306.488,304.281,314.709,307.243,314.462Z" transform="translate(-302.386 -275.3)"/></g></g><g transform="translate(139.591 37.32)"><path class="i" d="M244.593,258.055s-1.83,18.642,6.5,34.143c7.127,13.256,21.287,30.413,32.727,39.866l2.748-.671c-3.981-15.277-16.55-42.406-17.33-52.578s-.594-21.956-.782-27.622" transform="translate(-242.205 -215.46)"/><path class="k" d="M280.394,226.786s-16.166.931-25.463,7.956c-16.072,12.143-12.919,44.749-8.24,60.692S273.88,335.3,281.15,340.45c1.192,0,4.692-.3,4.568-3.038-4.022-12.431-15.484-45.128-15.484-45.128l1.81-44.107" transform="translate(-242.908 -226.786)"/><path class="i" d="M273.307,304.423a9.757,9.757,0,0,1,4.906,2.168c1.344,1.05,3,2.808,2.824,3.61-.183.846-2.385-.779-2.653-.451s3.77,6.426,3.01,6.884-4.2-5.07-4.2-5.07,3.337,5.9,2.045,6.033c-1.079.108-4.041-5.478-4.041-5.478s2.5,5,1.647,5.183-3.18-4.787-3.18-4.787,1.89,4.252,1.165,4.325c-.366.037-2.231-2.079-3.012-4.64-.766-2.521-1.662-4.707-.971-6.673" transform="translate(-230.055 -190.759)"/><path class="p" d="M266.1,296.25c-2.577-7.418-4.53-12.992-4.53-12.992l3.4-37.02" transform="translate(-234.246 -217.759)"/><path class="p" d="M242.973,252.38c-.092,10.04,1.117,22.409,3.691,31.177,2.252,7.673,8.635,17.2,15.462,25.583" transform="translate(-242.88 -214.909)"/></g></g><g transform="translate(598.465 213.612)"><path class="i" d="M479.125,219.665l2.6-1.777s1.2-5.656,1.87-6.67c.7-1.075,2.042-3.3,3.558-4.32.634-.428,3.527-2.064,4.258-1.334.36.359-.861,3.632-1.42,4.193s-2.208,3.067-1.95,3.853,1.625-.933,1.95-1.258.76-.726.912-.309c.253.7-1.208,4.64-2.351,5.783a7.363,7.363,0,0,1-4.288,2.224l-4.035,3.565" transform="translate(-444.604 -198.38)"/><path d="M509.968,203.264c4.3,2.533,6.959,7.3,7.989,12.078a5.015,5.015,0,0,0,.934,2.427,5.313,5.313,0,0,0,1.782,1.07,14.675,14.675,0,0,1,7.543,8.581c.536,1.58.119,3.811.739,5.158.763,1.653,3.569,2.028,5.08,2.528a11.506,11.506,0,0,1,.222,21.768,7.088,7.088,0,0,1,.818,5.97,13.866,13.866,0,0,1-3.151,5.313,29.386,29.386,0,0,1-23.038,9.5,21.607,21.607,0,0,1-7.243-1.449,29.3,29.3,0,0,1-7.06-4.514c-2.637-2.113-5.269-4.426-6.691-7.492s-1.328-7.077,1.082-9.448a7.336,7.336,0,0,1-7.32-3.3,10.718,10.718,0,0,1-1.221-8.207,20.407,20.407,0,0,1,3.792-7.568c1.2-1.6,2.569-3.218,2.823-5.2.423-3.3-1.422-6.256-1.9-9.543-.747-5.114-.515-9.509,3.864-12.228,1.4-3.643,3.105-6.452,7.137-7.525A17.726,17.726,0,0,1,509.968,203.264Z" transform="translate(-444.14 -200.598)"/><path class="k" d="M510.845,235.818c-14.6-3.824-31.323,2.215-35.046,2.2,5.1-5.1,14.466-16.459,17.7-20.384,0-2.7-1.637-3.449-1.637-3.449S451.805,234.9,455.83,248.42c4.2,14.121,43.449,7.191,46.585,11.245" transform="translate(-455.546 -194.295)"/><g transform="translate(30.673 153.821)"><path class="i" d="M503.983,324.828c-.044,1.195-5.273,26.912-5.659,29.672-1.12,8.036,3.126,16.1,2.713,28.556-.5,15.147-6.945,55.859-7.764,57.664s-4.745.151-4.745.151S477.2,386.258,476.566,363.91c-.527-18.408,2.148-58.246,2.148-58.246" transform="translate(-476.497 -305.664)"/><path class="h" d="M491.907,398.39a6.57,6.57,0,0,1,.628,2.007c-.085,1.7-.139,2.855-.139,2.855l-.736.048-.255-1.384a11.677,11.677,0,0,0-3.953,1.653c-.966.635-5.82.578-6.568.183a.981.981,0,0,1-.318-1.564c.281-.326,5.531-2.619,5.531-2.619" transform="translate(-474.729 -262.635)"/><path class="i" d="M486.052,398.352c-.426,1.026-4.575,3.285-4.192,3.59s2.793.318,5.47-.572c2.438-.813,3.817-1.72,3.9-2.36l-.467-1.716" transform="translate(-474.02 -263.144)"/></g><g transform="translate(67.886 155.669)"><path class="i" d="M528.531,325.312c-.007,1.2-4.452,27.06-4.752,29.831-.874,8.065,3.615,15.995,3.583,28.46-.041,15.156-5.24,56.045-6,57.875s-4.739.294-4.739.294-12.982-54.243-14.3-76.561c-1.088-18.384.372-58.285.372-58.285" transform="translate(-501.915 -306.926)"/><path class="h" d="M519.117,399.3a6.585,6.585,0,0,1,.687,1.987c-.032,1.7-.051,2.858-.051,2.858l-.735.072-.3-1.376a11.7,11.7,0,0,0-3.9,1.773c-.946.665-5.8.755-6.559.382a.981.981,0,0,1-.365-1.553c.271-.334,5.449-2.785,5.449-2.785" transform="translate(-499.25 -264.061)"/><path class="i" d="M513.261,399.412c-.394,1.039-4.471,3.424-4.08,3.716s2.8.233,5.449-.739c2.413-.884,3.764-1.834,3.823-2.476l-.518-1.7" transform="translate(-498.555 -264.565)"/></g><path class="d" d="M529.242,274.922s11.605,7.6,16.028,25.836c5.965,24.592-2.821,72.744-2.821,72.744a148.449,148.449,0,0,1-37.948,5.145c-19.77-.167-31.484-6.847-31.522-8.044s-2.949-37.649,1.069-62.383c4.509-27.76,16-35.241,16-35.241" transform="translate(-447.946 -167.01)"/><g transform="translate(35.254 40.578)"><path class="k" d="M509.933,228.792c1.8-.669,6.467.968,15.206,4.316,3.84,4.153,5.522,13.254,6.35,21.312-2.266,19.609-4.8,30.316-3.578,36.934.29,1.567,1.726,2.754,1.5,4.941-.474,4.522-7.88,5.208-21.936,6.8s-26.712-4.789-25.952-6.784,3.156-3.741,3.537-5.063,1.529-18.12.009-20.115-5.44-7.732-5.44-13.317c0-7.865,4.329-11.393,7.164-15.715,4.721-7.2,8.307-11.717,12.881-12.847C506.986,227.453,509.933,228.792,509.933,228.792Z" transform="translate(-479.626 -228.315)"/><path class="p" d="M485.932,235.431a10.247,10.247,0,0,1-1.211,6.19c-.53.867-3.722,4.118-4.35,6.19" transform="translate(-479.28 -225.012)"/></g><path class="i" d="M503.36,229.511c3.837-3.811,4.445-11.042,2.7-15.929-1.965-5.5-9.8-9.625-15.2-6.178C480.262,214.168,491.014,241.774,503.36,229.511Z" transform="translate(-441.162 -198.026)"/><path class="i" d="M493.041,222.241l.2,11.768s-.441,2.616,4.161,2.78c6.307.224,6.307-4.306,6.307-4.306L500.06,220.36" transform="translate(-438.146 -191.428)"/><path d="M501.456,203.666a3.583,3.583,0,0,0-4.025-.1,24.067,24.067,0,0,1-2.268,1.681,13.687,13.687,0,0,1-2.007.5,11.426,11.426,0,0,0-7.247,6.079c-1.3,2.931-.881,7.7,1.546,9.792a14.61,14.61,0,0,1,1.783-7.445c.634-1.007,1.635-2,2.817-1.865,1.328.149,2.05,1.569,3.007,2.5,1.451,1.413,3.534,1.7,5.451,1.985,2.168.324,3.842.706,4.91,2.834a14,14,0,0,1,.966,2.946,19.872,19.872,0,0,1,.662,3.622,8.886,8.886,0,0,0,.241,2.277,5.039,5.039,0,0,0,3.4,2.817c1.111.375,2.985.723,3.684-.537a12.821,12.821,0,0,0,1.285-3.72,16.7,16.7,0,0,0-2.719-11.442c-2.34-3.725-5.672-6.219-8.677-9.319A18.819,18.819,0,0,0,501.456,203.666Z" transform="translate(-441.79 -199.485)"/><path class="i" d="M498.319,216.455a2.511,2.511,0,0,1,1.82-1.953c3-.454,2.542,4.02,1.383,5.593-.673.917-2.417,2.114-3.2-.43" transform="translate(-435.697 -194.161)"/><g transform="translate(65.562 40.087)"><path class="i" d="M523.049,278.41l-1.41,3.014s-5.319,1.265-5.883,2.2c-.892,1.482-2.228,3.527-2.228,4.692s.111,6.271,1.569,6.271c.915,0,3.059-4.165,3.5-4.749,1.042-1.375,5.25-2.375,5.25-6l2.575-5.432" transform="translate(-494.201 -204.577)"/><path class="k" d="M500.327,228.794s12.415-3.159,22.113,2.96c7.538,4.758,26.934,28.425,26.937,41.979,0,9.137-18.141,31.773-18.141,31.773l-3.013-2.152s1.755-17.79,7.029-27.593c-3.888-3.89-19.053-15.968-22.862-19.776" transform="translate(-500.327 -227.979)"/><path class="p" d="M507.219,246.253c2.713,2.408,9.855,8.158,9.855,8.158" transform="translate(-497.129 -219.499)"/></g></g><g transform="translate(213.06 173.562)"><path class="a" d="M287.358,233.234l-15-12.087s6.743-24.906-2.184-33.606c-4.751-4.628-10.756-7.786-16.957-10.14-13.8-5.237-30.285-6.426-42.585,1.735-9.073,6.022-14.588,16.339-17.056,26.946-2.174,9.336-1.993,19.949,3.845,27.553a29.931,29.931,0,0,0,10.027,7.983c11.866,6.218,43.254,8.565,56.872-.562,3.771-2.527,3.44-5.943,5.022-11.281Z" transform="translate(-192.3 -173.242)"/><path class="k" d="M-10.609-6.058A9.284,9.284,0,0,1-11.515-1.8,6.628,6.628,0,0,1-14,.935a6.76,6.76,0,0,1-3.578.956A6.774,6.774,0,0,1-21.161.935,6.628,6.628,0,0,1-23.643-1.8a9.284,9.284,0,0,1-.907-4.254,9.279,9.279,0,0,1,.907-4.258,6.633,6.633,0,0,1,2.482-2.735,6.774,6.774,0,0,1,3.585-.956A6.76,6.76,0,0,1-14-13.051a6.633,6.633,0,0,1,2.482,2.735A9.279,9.279,0,0,1-10.609-6.058Zm-2.312,0a7.468,7.468,0,0,0-.608-3.185,4.53,4.53,0,0,0-1.662-1.965,4.356,4.356,0,0,0-2.384-.669,4.356,4.356,0,0,0-2.384.669,4.53,4.53,0,0,0-1.662,1.965,7.468,7.468,0,0,0-.608,3.185,7.474,7.474,0,0,0,.608,3.181A4.526,4.526,0,0,0-19.959-.908a4.356,4.356,0,0,0,2.384.669,4.356,4.356,0,0,0,2.384-.669,4.526,4.526,0,0,0,1.662-1.968A7.474,7.474,0,0,0-12.921-6.058Zm9.283,7.972a5.329,5.329,0,0,1-2.849-.748,5.039,5.039,0,0,1-1.889-2.1,6.951,6.951,0,0,1-.673-3.14,7.011,7.011,0,0,1,.673-3.159,5.034,5.034,0,0,1,1.889-2.1,5.329,5.329,0,0,1,2.849-.748A5.324,5.324,0,0,1-.785-9.33,5.043,5.043,0,0,1,1.1-7.229a7.011,7.011,0,0,1,.673,3.159A6.951,6.951,0,0,1,1.1-.931a5.048,5.048,0,0,1-1.885,2.1A5.324,5.324,0,0,1-3.638,1.914Zm.008-1.9A2.7,2.7,0,0,0-1.873-.542,3.313,3.313,0,0,0-.846-2.034,5.989,5.989,0,0,0-.509-4.078,6.022,6.022,0,0,0-.846-6.126a3.337,3.337,0,0,0-1.028-1.5A2.692,2.692,0,0,0-3.63-8.189a2.708,2.708,0,0,0-1.761.563,3.351,3.351,0,0,0-1.035,1.5,5.961,5.961,0,0,0-.34,2.048,5.929,5.929,0,0,0,.34,2.044A3.327,3.327,0,0,0-5.391-.542,2.72,2.72,0,0,0-3.63.017ZM3.65,6.032V-9.927H5.857v1.882h.189a7.237,7.237,0,0,1,.57-.839,3.192,3.192,0,0,1,1.028-.835,3.629,3.629,0,0,1,1.734-.359,4.514,4.514,0,0,1,2.5.71A4.828,4.828,0,0,1,13.617-7.32,7.456,7.456,0,0,1,14.252-4.1a7.591,7.591,0,0,1-.627,3.223A4.829,4.829,0,0,1,11.9,1.188a4.461,4.461,0,0,1-2.5.718,3.647,3.647,0,0,1-1.723-.355A3.321,3.321,0,0,1,6.631.72a6.13,6.13,0,0,1-.586-.846H5.91V6.032ZM5.864-4.124A5.114,5.114,0,0,0,6.65-1.158,2.565,2.565,0,0,0,8.894-.021a2.651,2.651,0,0,0,1.7-.54,3.29,3.29,0,0,0,1.031-1.47,5.942,5.942,0,0,0,.348-2.093,5.82,5.82,0,0,0-.344-2.067A3.209,3.209,0,0,0,10.6-7.63a2.7,2.7,0,0,0-1.708-.529A2.58,2.58,0,0,0,6.639-7.052,5.01,5.01,0,0,0,5.864-4.124Zm18.978-2.97-2.048.363A2.567,2.567,0,0,0,22.065-7.8a2.286,2.286,0,0,0-1.591-.487,2.851,2.851,0,0,0-1.606.427,1.258,1.258,0,0,0-.639,1.1,1.128,1.128,0,0,0,.427.941,3.566,3.566,0,0,0,1.394.578l1.844.423q3.174.733,3.174,3.143a3.034,3.034,0,0,1-.6,1.859A3.991,3.991,0,0,1,22.8,1.453a6.205,6.205,0,0,1-2.475.461,5.537,5.537,0,0,1-3.181-.835A3.535,3.535,0,0,1,15.631-1.3l2.184-.332A2.227,2.227,0,0,0,20.308.093a3.045,3.045,0,0,0,1.776-.465,1.359,1.359,0,0,0,.665-1.137q0-1.111-1.64-1.473l-1.965-.431a4.6,4.6,0,0,1-2.4-1.179,2.865,2.865,0,0,1-.771-2.048,2.944,2.944,0,0,1,.574-1.8,3.747,3.747,0,0,1,1.587-1.205,5.88,5.88,0,0,1,2.32-.431,4.811,4.811,0,0,1,2.962.816A3.829,3.829,0,0,1,24.842-7.093Zm4.915-6.7-.2,11.025H27.468l-.2-11.025ZM28.511,1.823a1.46,1.46,0,0,1-1.065-.442A1.45,1.45,0,0,1,27,.312,1.442,1.442,0,0,1,27.445-.75a1.505,1.505,0,0,1,2.131,0A1.442,1.442,0,0,1,30.022.312a1.45,1.45,0,0,1-.446,1.069A1.46,1.46,0,0,1,28.511,1.823Z" transform="translate(38.222 43.094)"/></g></g></svg>