<svg xmlns="http://www.w3.org/2000/svg" width="17.069" height="18.369" viewBox="0 0 17.069 18.369"><defs><style>.a{fill:#f6b333;}.b{fill:#ed9e08;}.c{fill:#d7e1f0;}.d{fill:#e6ebf5;}.e{fill:#f44336;}</style></defs><path class="a" d="M408.629,492.36H396.61a1.738,1.738,0,0,1-1.236-.6,1.912,1.912,0,0,1-.542-1.329q0-4.287,0-8.574a.982.982,0,0,1,.014-.232c.054-.133.126-.047.18-.007.207.152.4.317.6.478,1.616,1.308,3.241,2.6,4.856,3.914a2.005,2.005,0,0,0,2.645,0q1.7-1.372,3.406-2.742c.75-.6,1.5-1.209,2.247-1.81.446-.374.9-.739,1.358-1.1.063-.05.139-.145.211,0a.894.894,0,0,1,.016.232q0,4.9,0,9.8a2.041,2.041,0,0,1-1.289,1.879C408.934,492.326,408.777,492.316,408.629,492.36Z" transform="translate(-393.302 -473.991)"/><path class="b" d="M364.507,467.87c-.127-.045-.255-.086-.381-.134a1.94,1.94,0,0,1-1.269-1.8c-.011-1.589,0-3.177-.005-4.766q0-2.616,0-5.232a.3.3,0,0,1,.128-.269c.466-.362.924-.735,1.385-1.1a.3.3,0,0,1,.057.233c0,.313,0,.625,0,.938,0,.446-.011.893.015,1.339,0,2.965,0,5.929,0,8.894a1.887,1.887,0,0,0,.928,1.6,2.958,2.958,0,0,0,.792.3Z" transform="translate(-362.85 -449.501)"/><path class="b" d="M498.8,349.79c.239-.2.479-.388.716-.586a2.58,2.58,0,0,1,.967-.454h.646a2.588,2.588,0,0,1,.954.444c.242.2.487.4.731.6a.3.3,0,0,1-.236.058q-1.771,0-3.542,0A.3.3,0,0,1,498.8,349.79Z" transform="translate(-492.301 -348.75)"/><path class="c" d="M394.545,480.324a.211.211,0,0,1-.072-.153c.006-.391.007-.782.01-1.173a1.049,1.049,0,0,1,.41.272c.9.725,1.8,1.444,2.694,2.169.79.639,1.585,1.27,2.37,1.915a2.476,2.476,0,0,0,1.227.628,1.9,1.9,0,0,0,1.47-.373c.618-.471,1.214-.969,1.82-1.455q1.083-.87,2.164-1.743.838-.674,1.678-1.346c.051-.041.122-.157.192-.008.033.342.01.684.013,1.025a.35.35,0,0,1-.051.168l-3.554,2.861c-.739.595-1.467,1.2-2.218,1.781a2.026,2.026,0,0,1-2.561-.07c-1.016-.831-2.044-1.647-3.066-2.47l-2.466-1.988A.651.651,0,0,0,394.545,480.324Z" transform="translate(-392.96 -472.753)"/><path class="b" d="M574.193,647.313c0,.234-.2.362-.39.236-.232-.154-.444-.337-.662-.511-.649-.519-1.3-1.041-1.946-1.559-.172-.137-.225-.266-.148-.407a.268.268,0,0,1,.422-.1c.566.452,1.128.909,1.693,1.363.277.223.559.442.834.667C574.094,647.089,574.219,647.16,574.193,647.313Z" transform="translate(-561.055 -630.744)"/><path class="b" d="M443.946,647.4c-.026-.13.065-.2.148-.264q1.094-.884,2.19-1.765c.111-.089.226-.174.335-.265.163-.137.329-.141.439,0s.074.312-.1.448c-.306.245-.609.492-.915.737q-.806.646-1.613,1.289c-.12.1-.249.173-.4.044A.222.222,0,0,1,443.946,647.4Z" transform="translate(-440.063 -630.825)"/><path class="b" d="M683.259,454.815q-.006-.626-.012-1.251c-.068-.1-.037-.206-.045-.31a1.986,1.986,0,0,0-.1-.809.227.227,0,0,1-.022-.172c.055-.009.088.029.125.058l1.512,1.212a.091.091,0,0,1,.044.09,5.025,5.025,0,0,0-.632.48C683.831,454.338,683.548,454.58,683.259,454.815Z" transform="translate(-667.75 -447.319)"/><path class="d" d="M408.463,375.28q0,.164,0,.329-1.015.815-2.03,1.63c-.708.571-1.412,1.147-2.12,1.718-.55.444-1.089.906-1.659,1.324a1.991,1.991,0,0,1-2.453-.079c-.567-.461-1.146-.908-1.717-1.365s-1.119-.9-1.679-1.356l-2.317-1.872q0-.592-.01-1.183,0-1.282,0-2.564a1.419,1.419,0,0,1,1.106-1.4,2.079,2.079,0,0,1,.476-.059q1.7,0,3.407,0h4.014a1.715,1.715,0,0,1,.54.036.108.108,0,0,1-.1.034c.023.008-.021,0-.005,0a.983.983,0,0,1,.651.941c.016.466,0,.932,0,1.4a1.4,1.4,0,0,0,1.481,1.486c.46,0,.92,0,1.381,0a1.087,1.087,0,0,1,.931.547A.9.9,0,0,1,408.463,375.28Z" transform="translate(-392.966 -369.363)"/><path class="c" d="M593.538,376.081a1.064,1.064,0,0,0-.518-.789.885.885,0,0,0-.473-.14c-.49,0-.98,0-1.47,0a1.439,1.439,0,0,1-1.476-1.482c0-.43-.013-.861,0-1.291a1.077,1.077,0,0,0-.752-1.129c.068,0,.1-.007.139-.008s.072,0,.107,0a1.385,1.385,0,0,1,.9.388c1.062,1.045,2.111,2.1,3.163,3.158a1.184,1.184,0,0,1,.208.332A1.769,1.769,0,0,1,593.538,376.081Z" transform="translate(-578.041 -370.165)"/><path class="e" d="M523.969,406.731c-.021.555.031,1.112-.026,1.666a.844.844,0,0,1-.87.76.86.86,0,0,1-.862-.752,4.531,4.531,0,0,1-.018-.626q0-1.255,0-2.51a.9.9,0,0,1,.662-.967.861.861,0,0,1,1.088.728C524,405.6,523.948,406.164,523.969,406.731Z" transform="translate(-514.568 -401.614)"/><path class="e" d="M523.206,524.095a.872.872,0,0,1,.885.865.881.881,0,1,1-1.762.008A.873.873,0,0,1,523.206,524.095Z" transform="translate(-514.7 -515.707)"/></svg>