<svg xmlns="http://www.w3.org/2000/svg" width="20.565" height="18.848" viewBox="0 0 20.565 18.848">
  <g id="post-it" transform="translate(0 -21.38)">
    <path id="Path_4424" data-name="Path 4424" d="M15.934,99.785,10.683,86.506a.428.428,0,0,0-.348-.267L2.2,85.281a.422.422,0,0,0-.477.359l0,.016L0,99.363a.428.428,0,0,0,.369.48h.01l14.993,1.713h.049a.428.428,0,0,0,.428-.388l.111-1.188A.427.427,0,0,0,15.934,99.785Z" transform="translate(0 -61.33)" fill="#ffa000"/>
    <path id="Path_4425" data-name="Path 4425" d="M100.793,85.674a.428.428,0,0,0-.475-.376h0l-3.684.434-10.88,1.28a.428.428,0,0,0-.378.469l1.285,13.708a.428.428,0,0,0,.428.388h.049l14.993-1.713a.428.428,0,0,0,.377-.474v-.005Z" transform="translate(-81.941 -61.349)" fill="#ffe082"/>
    <path id="Path_4426" data-name="Path 4426" d="M299.167,98.909a.428.428,0,0,1-.3-.732l2.142-2.142a.428.428,0,1,1,.616.6l-.011.011-2.142,2.142A.428.428,0,0,1,299.167,98.909Z" transform="translate(-286.741 -71.532)" fill="#455a64"/>
    <circle id="Ellipse_151" data-name="Ellipse 151" cx="2.142" cy="2.142" r="2.142" transform="translate(13.711 21.38)" fill="#f44336"/>
  </g>
</svg>
