<svg id="OBJECTS" xmlns="http://www.w3.org/2000/svg" xmlns:xlink="http://www.w3.org/1999/xlink" width="366.535" height="319.438" viewBox="0 0 366.535 319.438">
  <defs>
    <clipPath id="clip-path">
      <circle id="Ellipse_129" data-name="Ellipse 129" cx="25.488" cy="25.488" r="25.488" transform="translate(0 50.899) rotate(-86.84)" fill="none"/>
    </clipPath>
    <clipPath id="clip-path-2">
      <circle id="Ellipse_133" data-name="Ellipse 133" cx="21.942" cy="21.942" r="21.942" fill="none"/>
    </clipPath>
  </defs>
  <path id="Path_3802" data-name="Path 3802" d="M263.118,89.633S231,96.448,224.194,131.485s20.437,59.362,59.362,58.392c0,0,54.486,1.949,71.044,36.986s58.4,25.3,69.1-9.734-3.9-90.5-49.637-110.948S293.289,83.8,263.118,89.633Z" transform="translate(-60.511 -86.766)" fill="#fff4e9"/>
  <path id="Path_3803" data-name="Path 3803" d="M59.867,282.579s20.437-36.016,75.911-25.3S207.809,315.667,253.54,314.7s102.184-19.467,124.569,8.755,3.9,84.675-64.229,80.777-69.1-30.17-107.06-20.437-61.31,30.17-117.763,11.682S44.288,305.934,59.867,282.579Z" transform="translate(-47.036 -99.66)" fill="#fff4e9"/>
  <path id="Path_3804" data-name="Path 3804" d="M57.07,427.071c0,2.327,22.441,4.211,50.118,4.211s50.118-1.847,50.118-4.211-22.441-4.211-50.118-4.211S57.07,424.744,57.07,427.071Z" transform="translate(-47.804 -112.482)" fill="#fff4e9"/>
  <path id="Path_3805" data-name="Path 3805" d="M110.766,188.012h-18.1a2.586,2.586,0,0,1-2.586-2.586h0a2.6,2.6,0,0,1,2.586-2.586h18.1Z" transform="translate(-50.329 -94.117)" fill="#18436d"/>
  <path id="Path_3806" data-name="Path 3806" d="M75.024,185.51h25.553v7.3H75.024a3.694,3.694,0,0,1-3.694-3.694h0A3.694,3.694,0,0,1,75.024,185.51Z" transform="translate(-48.895 -94.321)" fill="#2a5798"/>
  <path id="Path_3807" data-name="Path 3807" d="M99.964,185.51h25.544v7.3H99.964a3.694,3.694,0,0,1-3.694-3.694h0A3.694,3.694,0,0,1,99.964,185.51Z" transform="translate(-50.803 -94.321)" fill="#9be0ef"/>
  <path id="Path_3808" data-name="Path 3808" d="M102.727,189.2a2.373,2.373,0,1,1-2.364-2.373,2.373,2.373,0,0,1,2.364,2.373Z" transform="translate(-50.934 -94.422)" fill="#4295ef"/>
  <path id="Path_3809" data-name="Path 3809" d="M77.416,197.133l1.136-3.925L75.643,190.3a1.958,1.958,0,0,1-.379-2.235l1.995-4.091,8.431-.323,2.106,2.17-2.77.646-1.136,4.71a8.949,8.949,0,0,1,.646,1.939c0,.489-1.3,5.679-1.3,5.679Z" transform="translate(-49.181 -94.179)" fill="#ffbe9d"/>
  <path id="Path_3810" data-name="Path 3810" d="M75.15,189.64l7.462,1.782,3.084-.97,1.136,2.6-2.272.48-5.033.332Z" transform="translate(-49.187 -94.637)" fill="#aa6550"/>
  <path id="Path_3811" data-name="Path 3811" d="M88.461,185.776l-2.106-2.106-2.595,1.459" transform="translate(-49.846 -94.181)" fill="none" stroke="#aa6550" stroke-miterlimit="10" stroke-width="0.74"/>
  <path id="Path_3812" data-name="Path 3812" d="M86.073,183.67l-5.19.323-.813.646" transform="translate(-49.563 -94.181)" fill="none" stroke="#aa6550" stroke-miterlimit="10" stroke-width="0.74"/>
  <path id="Path_3813" data-name="Path 3813" d="M83.23,191.356l3.084-.923s1.782-1.949,2.918-1.625a1.7,1.7,0,0,1,1.3,1.1L87.45,192.99,83.4,194.283Z" transform="translate(-49.805 -94.571)" fill="#ffbe9d"/>
  <path id="Path_3814" data-name="Path 3814" d="M84.071,185.156l-6.806-1.136-2.115,5.19,3.408,4.054" transform="translate(-49.187 -94.207)" fill="none" stroke="#aa6550" stroke-miterlimit="10" stroke-width="0.74"/>
  <path id="Path_3815" data-name="Path 3815" d="M90.616,189.9s-1.219-1.459-2.318-1.1a4.507,4.507,0,0,0-1.9,1.588l-2.106.36" transform="translate(-49.886 -94.569)" fill="none" stroke="#aa6550" stroke-miterlimit="10" stroke-width="0.74"/>
  <path id="Path_3816" data-name="Path 3816" d="M75.33,201.2l1.949-4.544a13.206,13.206,0,0,1,6.806,1.792l-1.459,4.534Z" transform="translate(-49.201 -95.174)" fill="#dee0e8"/>
  <path id="Path_3817" data-name="Path 3817" d="M129.32,412.523s-1.062-2.272-5.015-1.672-4.405,1.367-4.858,3.343-1.847,4.1-2.77,4.562-4.257,2.77-6.991,3.186-3.038,2.124-2.429,2.891,10.934,1.367,13.215,1.062c0,0,7.748-.157,9.567-.766S129.468,413.29,129.32,412.523Z" transform="translate(-51.624 -111.555)" fill="#f6b333"/>
  <path id="Path_3818" data-name="Path 3818" d="M107.89,412.523s-1.062-2.272-5.015-1.672-4.405,1.367-4.858,3.343-1.847,4.1-2.77,4.562-4.257,2.77-6.991,3.186-3.038,2.124-2.429,2.891S96.762,426.2,99.043,425.9c0,0,7.748-.157,9.567-.766S108.038,413.29,107.89,412.523Z" transform="translate(-49.984 -111.555)" fill="#f6b333"/>
  <path id="Path_3819" data-name="Path 3819" d="M133.8,350.679a7.471,7.471,0,0,0-5.486-8.395c-6.649-2.115-7.905.924-9.918,6.7s1.7,59.916,1.7,59.916,8.1.185,10.057-.979c0,0,5.412-35.951,5.005-44.706S133.8,350.679,133.8,350.679Z" transform="translate(-52.45 -106.265)" fill="#18436d"/>
  <path id="Path_3820" data-name="Path 3820" d="M108.859,176.758s-4.488,1.145-7.037,8.044-.85,21.563.85,23.29,6.852,1.071,14-1.293c7.554-2.493,10.1-10.343,11.46-15.524C130.709,181.357,122.084,171.152,108.859,176.758Z" transform="translate(-51.128 -93.53)" fill="#ffbe9d"/>
  <path id="Path_3821" data-name="Path 3821" d="M125.587,217.01l-3.694-13.058s-7.3-2.133-11.848,2.77l-1.515,2.124v8.505a48.76,48.76,0,0,0,17.057-.342Z" transform="translate(-51.741 -95.697)" fill="#ffbe9d"/>
  <path id="Path_3822" data-name="Path 3822" d="M136.153,293.955a120.359,120.359,0,0,1,0,34.169c-2.77,18.22-8.2,20.049-13.215,20.049s-6.381-14.582-7.3-20.963-4.553-28.249,2.281-33.246S132.533,288.488,136.153,293.955Z" transform="translate(-52.149 -102.319)" fill="#18436d"/>
  <path id="Path_3823" data-name="Path 3823" d="M115.223,315.4s5.467-14.582-4.1-20.963-16.854-5.467-19.135,5.015-2.77,46.479.452,53.775S107.022,349.136,115.223,315.4Z" transform="translate(-50.335 -102.349)" fill="#18436d"/>
  <path id="Path_3824" data-name="Path 3824" d="M127.227,217.7s-1.025-3.583-1.93-3.888-12.153-1.515-18.23,2.133c-2.77,2.124-2.429,3.639-2.429,3.639S122.776,216.113,127.227,217.7Z" transform="translate(-51.442 -96.453)" fill="#dee0e8"/>
  <path id="Path_3825" data-name="Path 3825" d="M88.772,243.51s-3.26,41.058-2.346,56.859c1.21,3.038,26.559,3.869,30.817,3.565s18.183-3.306,18.47-4.22-2.65-41.391-2.041-45.648,2.429-25.211,1.847-28.249-3.343-8.81-9.115-10.029c0,0-18.83-1.21-32.2,4.562a133.5,133.5,0,0,0-16.392,3.943s3.408-17.278,5.107-22.385c0,0-4.617-3.408-9.235-2.189,0,0-8.505,19.347-10.214,36.376a3.694,3.694,0,0,0,3.168,4.017C73.922,241.2,88.772,243.51,88.772,243.51Z" transform="translate(-48.292 -95.388)" fill="#2a5798"/>
  <path id="Path_3826" data-name="Path 3826" d="M106.633,351.833a7.48,7.48,0,0,0-6.381-7.739c-6.834-1.367-7.748,1.847-9.115,7.739s6.741,57.589,6.741,57.589,8.939.517,10.768-.85c0,0,2.087-35.776.72-44.429S106.633,351.833,106.633,351.833Z" transform="translate(-50.398 -106.431)" fill="#18436d"/>
  <path id="Path_3827" data-name="Path 3827" d="M118.355,313.77s-6.381,20.511-11.165,30.53" transform="translate(-51.639 -104.135)" fill="none" stroke="#3f77bc" stroke-miterlimit="10" stroke-width="0.74"/>
  <path id="Path_3828" data-name="Path 3828" d="M104.569,351.188a8.081,8.081,0,0,0-7.739,0" transform="translate(-50.846 -106.923)" fill="none" stroke="#3f77bc" stroke-miterlimit="10" stroke-width="0.74"/>
  <path id="Path_3829" data-name="Path 3829" d="M105.283,353.964s-3.186-1.847-8.653,2.05" transform="translate(-50.831 -107.177)" fill="none" stroke="#3f77bc" stroke-miterlimit="10" stroke-width="0.74"/>
  <path id="Path_3830" data-name="Path 3830" d="M131.181,348.231s-2.5-2.281-8.2.231" transform="translate(-52.847 -106.699)" fill="none" stroke="#3f77bc" stroke-miterlimit="10" stroke-width="0.74"/>
  <path id="Path_3831" data-name="Path 3831" d="M129.3,350.731a6.852,6.852,0,0,0-7.065.924" transform="translate(-52.79 -106.918)" fill="none" stroke="#3f77bc" stroke-miterlimit="10" stroke-width="0.74"/>
  <line id="Line_139" data-name="Line 139" x2="1.367" y2="46.47" transform="translate(68.083 247.461)" fill="none" stroke="#3f77bc" stroke-miterlimit="10" stroke-width="0.74"/>
  <path id="Path_3832" data-name="Path 3832" d="M99.756,312.387s-5.162,3.038-7.286-1.847" transform="translate(-50.512 -103.888)" fill="none" stroke="#3f77bc" stroke-miterlimit="10" stroke-width="0.74"/>
  <path id="Path_3833" data-name="Path 3833" d="M94.61,313.2s-2.429,18.83-1.847,31.288" transform="translate(-50.528 -104.091)" fill="none" stroke="#3f77bc" stroke-miterlimit="10" stroke-width="0.74"/>
  <path id="Path_3834" data-name="Path 3834" d="M97.07,224s9.567,5.015,3.2,16.623" transform="translate(-50.864 -97.266)" fill="none" stroke="#3f77bc" stroke-miterlimit="10" stroke-width="0.74"/>
  <path id="Path_3835" data-name="Path 3835" d="M111.175,207.56s-1.588,4.1-6.945,3.417" transform="translate(-51.412 -96.008)" fill="none" stroke="#aa6550" stroke-miterlimit="10" stroke-width="0.74"/>
  <path id="Path_3836" data-name="Path 3836" d="M104.08,179.732s-2.6,3.574-2.77,5.679,3.251,4.22,3.694,5.541-.323,4.054.166,4.867a5.707,5.707,0,0,1,.646,1.782l.166,2.77,1.782.323s1.782-5.024,3.084-5.347,2.595,1.939,3.075,3.075,1.949,4.22,1.949,4.22,5.679,1.459,6.815,1.136,6.326-10.546,6.464-15.7-3.4-10.38-7.129-12.005S111.052,172.926,104.08,179.732Z" transform="translate(-51.188 -93.493)" fill="#2a383d"/>
  <path id="Path_3837" data-name="Path 3837" d="M107.013,198.658s.646-2.77,3.02-1.505-.434,7.979-2.373,7.545S106.588,199.757,107.013,198.658Z" transform="translate(-51.582 -95.187)" fill="#ffbe9d"/>
  <path id="Path_3838" data-name="Path 3838" d="M105.19,178.559s-.166-4.387,5.024-7.628,13.631,1.625,14.776,4.22,4.7,6,5.347,9.4-1.616,11.848-4.054,14.12c-.813.646-.813-1.136-.813-1.136a13.364,13.364,0,0,1-2.6,2.263c-.923.489-2.595-2.918-2.595-2.918a6.576,6.576,0,0,1-1.939,1.949c-1.136.646-1.625-3.888-1.625-3.888s-.979-4.867-2.918-7.139S106.16,180.821,105.19,178.559Z" transform="translate(-51.485 -93.123)" fill="#263238"/>
  <path id="Path_3839" data-name="Path 3839" d="M132.348,229c0,1.459-5.836,30.66-4.867,34.557s5.356,31.629,5.356,31.629" transform="translate(-53.183 -97.649)" fill="none" stroke="#3f77bc" stroke-miterlimit="10" stroke-width="0.74"/>
  <path id="Path_3840" data-name="Path 3840" d="M74.27,234.765c3.9-3.168,3.9-6.575,3.9-6.575a7.658,7.658,0,0,1,.73,5.116" transform="translate(-49.12 -97.587)" fill="none" stroke="#3f77bc" stroke-miterlimit="10" stroke-width="0.74"/>
  <path id="Path_3841" data-name="Path 3841" d="M114.5,181a122.252,122.252,0,0,1,9.078,8.764" transform="translate(-52.198 -93.976)" fill="none" stroke="#2a383d" stroke-miterlimit="10" stroke-width="0.74"/>
  <path id="Path_3842" data-name="Path 3842" d="M121.87,187.28s1.3-4.387,7.3-5.19" transform="translate(-52.762 -94.06)" fill="none" stroke="#2a383d" stroke-miterlimit="10" stroke-width="0.74"/>
  <path id="Path_3843" data-name="Path 3843" d="M118.468,184.9s-2.272.157-2.918,3.4" transform="translate(-52.278 -94.275)" fill="none" stroke="#2a383d" stroke-miterlimit="10" stroke-width="0.74"/>
  <rect id="Rectangle_1912" data-name="Rectangle 1912" width="139.169" height="78.829" rx="10.54" transform="translate(113.066 72.941)" fill="#bfd9ff"/>
  <rect id="Rectangle_1913" data-name="Rectangle 1913" width="158.636" height="89.855" rx="12.01" transform="translate(103.342 67.427)" fill="#f6b333"/>
  <circle id="Ellipse_127" data-name="Ellipse 127" cx="25.488" cy="25.488" r="25.488" transform="translate(197.459 136.526) rotate(-86.84)" fill="#fff"/>
  <g id="Group_6966" data-name="Group 6966" transform="translate(197.459 85.627)" clip-path="url(#clip-path)">
    <circle id="Ellipse_128" data-name="Ellipse 128" cx="12.144" cy="12.144" r="12.144" transform="translate(14.919 12.885)" fill="#7e2d2c"/>
    <path id="Path_3844" data-name="Path 3844" d="M308.794,238.556a20.575,20.575,0,0,0-41.1,0Z" transform="translate(-261.378 -182.507)" fill="#2a5798"/>
    <path id="Path_3845" data-name="Path 3845" d="M296.055,221.778a6.668,6.668,0,1,1-6.668-6.668A6.668,6.668,0,0,1,296.055,221.778Z" transform="translate(-262.528 -182.213)" fill="#ff7657"/>
    <path id="Path_3846" data-name="Path 3846" d="M304.449,209.5a2.724,2.724,0,1,1-2.724-2.724,2.724,2.724,0,0,1,2.724,2.724Z" transform="translate(-263.774 -181.575)" fill="#ff7657"/>
    <path id="Path_3847" data-name="Path 3847" d="M279.879,209.5a2.724,2.724,0,1,1-2.724-2.724,2.724,2.724,0,0,1,2.724,2.724Z" transform="translate(-261.894 -181.575)" fill="#ff7657"/>
    <path id="Path_3848" data-name="Path 3848" d="M299.747,208.839a10.759,10.759,0,1,1-10.759-10.759A10.759,10.759,0,0,1,299.747,208.839Z" transform="translate(-262.185 -180.91)" fill="#ff9677"/>
    <path id="Path_3849" data-name="Path 3849" d="M300.714,204.915c-1.21,3.537-6.132,5.051-11.017,3.4s-7.859-5.873-6.658-9.41,6.132-5.051,11.017-3.389S301.914,201.387,300.714,204.915Z" transform="translate(-262.532 -180.662)" fill="#7e2d2c"/>
  </g>
  <path id="Path_3850" data-name="Path 3850" d="M238.731,246.122h-56.12a8.912,8.912,0,0,1-8.921-8.921h0a8.921,8.921,0,0,1,8.921-8.921h56.12a8.921,8.921,0,0,1,8.921,8.921h0a8.912,8.912,0,0,1-8.921,8.921Z" transform="translate(-56.727 -97.594)" fill="#fff"/>
  <path id="Path_3851" data-name="Path 3851" d="M187.668,239.9l-2.133,1.117a.277.277,0,0,1-.4-.286l.406-2.364a.249.249,0,0,0-.074-.24l-1.718-1.681a.268.268,0,0,1,.148-.462l2.383-.351a.277.277,0,0,0,.2-.148l1.062-2.161a.277.277,0,0,1,.489,0l1.062,2.161a.259.259,0,0,0,.2.148l2.383.351a.268.268,0,0,1,.148.462l-1.718,1.681a.249.249,0,0,0-.074.24l.4,2.364a.268.268,0,0,1-.388.286l-2.133-1.117A.3.3,0,0,0,187.668,239.9Z" transform="translate(-57.49 -97.969)" fill="#ffa402"/>
  <path id="Path_3852" data-name="Path 3852" d="M200.519,239.9l-2.133,1.117a.268.268,0,0,1-.388-.286l.406-2.364a.277.277,0,0,0-.083-.24l-1.718-1.681a.268.268,0,0,1,.148-.462l2.383-.351a.259.259,0,0,0,.2-.148l1.062-2.161a.277.277,0,0,1,.489,0l1.062,2.161a.277.277,0,0,0,.212.148l2.373.351a.268.268,0,0,1,.148.462l-1.718,1.681a.249.249,0,0,0-.074.24l.406,2.364a.277.277,0,0,1-.4.286l-2.133-1.117a.3.3,0,0,0-.249,0Z" transform="translate(-58.473 -97.969)" fill="#ffa402"/>
  <path id="Path_3853" data-name="Path 3853" d="M213.349,239.9l-2.124,1.117a.268.268,0,0,1-.4-.286l.406-2.364a.277.277,0,0,0-.083-.24l-1.718-1.681a.268.268,0,0,1,.148-.462l2.383-.351a.259.259,0,0,0,.2-.148l1.062-2.161a.277.277,0,0,1,.489,0l1.062,2.161a.277.277,0,0,0,.212.148l2.373.351a.277.277,0,0,1,.157.462L215.8,238.13a.249.249,0,0,0-.074.24l.406,2.364a.268.268,0,0,1-.4.286l-2.087-1.117A.3.3,0,0,0,213.349,239.9Z" transform="translate(-59.455 -97.969)" fill="#ffa402"/>
  <path id="Path_3854" data-name="Path 3854" d="M226.179,239.9l-2.124,1.117a.268.268,0,0,1-.4-.286l.406-2.364a.277.277,0,0,0-.083-.24l-1.718-1.681a.268.268,0,0,1,.148-.462l2.383-.351a.259.259,0,0,0,.2-.148l1.062-2.161a.277.277,0,0,1,.489,0l1.071,2.161a.249.249,0,0,0,.2.148l2.373.351a.268.268,0,0,1,.157.462l-1.727,1.681a.249.249,0,0,0-.074.24l.406,2.364a.268.268,0,0,1-.4.286l-2.124-1.117A.314.314,0,0,0,226.179,239.9Z" transform="translate(-60.437 -97.969)" fill="#ffa402"/>
  <path id="Path_3855" data-name="Path 3855" d="M239.008,239.9l-2.124,1.117a.268.268,0,0,1-.4-.286l.406-2.364a.259.259,0,0,0-.083-.24l-1.718-1.681a.268.268,0,0,1,.148-.462l2.383-.351a.249.249,0,0,0,.2-.148l1.062-2.161a.277.277,0,0,1,.489,0l1.071,2.161a.249.249,0,0,0,.2.148l2.373.351a.268.268,0,0,1,.157.462l-1.718,1.681a.277.277,0,0,0-.074.24l.406,2.364a.268.268,0,0,1-.4.286l-2.124-1.117A.314.314,0,0,0,239.008,239.9Z" transform="translate(-61.418 -97.969)" fill="#c2d4d9"/>
  <line id="Line_140" data-name="Line 140" x2="40.873" transform="translate(122.477 95.003)" fill="none" stroke="#fff" stroke-linecap="round" stroke-linejoin="round" stroke-width="4.22"/>
  <line id="Line_141" data-name="Line 141" x2="52.232" transform="translate(122.477 118.681)" fill="none" stroke="#fff" stroke-linecap="round" stroke-linejoin="round" stroke-width="4.22"/>
  <line id="Line_142" data-name="Line 142" x2="17.842" transform="translate(122.477 106.352)" fill="none" stroke="#fff" stroke-linecap="round" stroke-linejoin="round" stroke-width="4.22"/>
  <line id="Line_143" data-name="Line 143" x2="36.339" transform="translate(150.052 106.352)" fill="none" stroke="#fff" stroke-linecap="round" stroke-linejoin="round" stroke-width="4.22"/>
  <line id="Line_144" data-name="Line 144" x2="25.063" transform="translate(217.937 79.507)" fill="none" stroke="#ffdeb3" stroke-linecap="round" stroke-linejoin="round" stroke-width="4.22"/>
  <line id="Line_145" data-name="Line 145" x2="44.771" transform="translate(131.564 67.344)" fill="none" stroke="#d38e2a" stroke-linecap="round" stroke-linejoin="round" stroke-width="1.05"/>
  <line id="Line_146" data-name="Line 146" x2="16.3" transform="translate(192.144 67.344)" fill="none" stroke="#d38e2a" stroke-linecap="round" stroke-linejoin="round" stroke-width="1.05"/>
  <line id="Line_147" data-name="Line 147" x2="50.607" transform="translate(187.037 157.126)" fill="none" stroke="#d38e2a" stroke-linecap="round" stroke-linejoin="round" stroke-width="1.05"/>
  <line id="Line_148" data-name="Line 148" y2="10.712" transform="translate(261.655 96.296)" fill="none" stroke="#d38e2a" stroke-linecap="round" stroke-linejoin="round" stroke-width="1.05"/>
  <line id="Line_149" data-name="Line 149" y2="31.463" transform="translate(103.342 109.28)" fill="none" stroke="#d38e2a" stroke-linecap="round" stroke-linejoin="round" stroke-width="1.05"/>
  <rect id="Rectangle_1914" data-name="Rectangle 1914" width="119.822" height="67.867" rx="9.07" transform="translate(122.744 170.553)" fill="#bfd9ff"/>
  <rect id="Rectangle_1915" data-name="Rectangle 1915" width="136.574" height="77.36" rx="10.34" transform="translate(114.368 165.806)" fill="#f6b333"/>
  <path id="Path_3856" data-name="Path 3856" d="M180,359v22.45a8.376,8.376,0,0,0,8.376,8.376H291.345a8.376,8.376,0,0,0,8.376-8.376V359Z" transform="translate(-57.209 -107.596)" fill="#f6b333"/>
  <path id="Path_3857" data-name="Path 3857" d="M305.218,149.5v-22.45a8.367,8.367,0,0,0-8.367-8.367H183.466a8.376,8.376,0,0,0-8.376,8.367V149.5Z" transform="translate(-56.834 -89.208)" fill="#f6b333"/>
  <circle id="Ellipse_130" data-name="Ellipse 130" cx="21.942" cy="21.942" r="21.942" transform="translate(196.586 182.651)" fill="#fff"/>
  <g id="Group_6967" data-name="Group 6967" transform="translate(196.586 182.651)" clip-path="url(#clip-path-2)">
    <circle id="Ellipse_131" data-name="Ellipse 131" cx="10.454" cy="10.454" r="10.454" transform="translate(7.331 20.369) rotate(-45)" fill="#f6b333"/>
    <path id="Path_3858" data-name="Path 3858" d="M299.9,334.129a17.712,17.712,0,0,0-35.388,0Z" transform="translate(-260.262 -287.05)" fill="#2a5798"/>
    <path id="Path_3859" data-name="Path 3859" d="M288.938,319.685a5.744,5.744,0,1,1-5.744-5.735A5.744,5.744,0,0,1,288.938,319.685Z" transform="translate(-261.252 -286.799)" fill="#b78851"/>
    <path id="Path_3860" data-name="Path 3860" d="M296.151,309.116a2.346,2.346,0,1,1-2.336-2.336A2.345,2.345,0,0,1,296.151,309.116Z" transform="translate(-262.324 -286.251)" fill="#ffdeb3"/>
    <path id="Path_3861" data-name="Path 3861" d="M275,309.116a2.346,2.346,0,1,1-2.336-2.336A2.345,2.345,0,0,1,275,309.116Z" transform="translate(-260.706 -286.251)" fill="#ffdeb3"/>
    <circle id="Ellipse_132" data-name="Ellipse 132" cx="9.253" cy="9.253" r="9.253" transform="translate(10.753 16.002) rotate(-13.34)" fill="#ffdeb3"/>
    <path id="Path_3862" data-name="Path 3862" d="M292.94,305.172c-1.034,3.048-5.282,4.35-9.484,2.918s-6.769-5.051-5.735-8.09,5.282-4.35,9.484-2.918S293.974,302.133,292.94,305.172Z" transform="translate(-261.255 -285.465)" fill="#f6b333"/>
  </g>
  <path id="Path_3863" data-name="Path 3863" d="M239.58,340.648H191.263a7.683,7.683,0,0,1-7.683-7.683h0a7.683,7.683,0,0,1,7.683-7.674H239.58a7.683,7.683,0,0,1,7.683,7.674h0A7.683,7.683,0,0,1,239.58,340.648Z" transform="translate(-57.483 -105.016)" fill="#ffdeb3"/>
  <path id="Path_3864" data-name="Path 3864" d="M195.633,335.3l-1.847.924a.24.24,0,0,1-.342-.249l.351-2.041a.212.212,0,0,0-.065-.2l-1.487-1.45a.231.231,0,0,1,.139-.4l2.041-.3a.277.277,0,0,0,.185-.129l.923-1.847a.231.231,0,0,1,.416,0l.923,1.847a.24.24,0,0,0,.175.129l2.041.3a.231.231,0,0,1,.138.4l-1.487,1.45a.212.212,0,0,0-.065.2l.351,2.041a.24.24,0,0,1-.342.249l-1.847-.924A.222.222,0,0,0,195.633,335.3Z" transform="translate(-58.141 -105.337)" fill="#fff"/>
  <path id="Path_3865" data-name="Path 3865" d="M206.713,335.3l-1.847.923a.24.24,0,0,1-.342-.249l.351-2.041a.24.24,0,0,0-.065-.2l-1.487-1.45a.231.231,0,0,1,.129-.4l2.05-.3a.258.258,0,0,0,.175-.129l.923-1.847a.24.24,0,0,1,.425,0l.923,1.847a.277.277,0,0,0,.176.129l2.05.3a.231.231,0,0,1,.129.4l-1.478,1.45a.249.249,0,0,0-.074.2l.351,2.041a.231.231,0,0,1-.342.249l-1.847-.923A.231.231,0,0,0,206.713,335.3Z" transform="translate(-58.989 -105.337)" fill="#fff"/>
  <path id="Path_3866" data-name="Path 3866" d="M217.713,335.3l-1.847.923a.231.231,0,0,1-.342-.249l.351-2.041a.249.249,0,0,0-.074-.2l-1.478-1.45a.231.231,0,0,1,.129-.4l2.05-.3a.277.277,0,0,0,.175-.129l.923-1.847a.24.24,0,0,1,.425,0l.924,1.847a.277.277,0,0,0,.175.129l2.05.3a.231.231,0,0,1,.129.4l-1.487,1.45a.24.24,0,0,0-.065.2l.351,2.041a.231.231,0,0,1-.342.249l-1.847-.923A.231.231,0,0,0,217.713,335.3Z" transform="translate(-59.83 -105.337)" fill="#fff"/>
  <path id="Path_3867" data-name="Path 3867" d="M228.774,335.3l-1.847.924a.24.24,0,0,1-.342-.249l.351-2.041a.212.212,0,0,0-.065-.2l-1.478-1.45a.231.231,0,0,1,.129-.4l2.041-.3a.277.277,0,0,0,.185-.129l.923-1.847a.231.231,0,0,1,.416,0l.923,1.847a.24.24,0,0,0,.175.129l2.05.3a.231.231,0,0,1,.129.4l-1.487,1.45a.212.212,0,0,0-.065.2l.351,2.041a.24.24,0,0,1-.342.249l-1.847-.924a.222.222,0,0,0-.2,0Z" transform="translate(-60.677 -105.337)" fill="#fff"/>
  <path id="Path_3868" data-name="Path 3868" d="M239.813,335.3l-1.847.923a.24.24,0,0,1-.342-.249l.351-2.041a.24.24,0,0,0-.065-.2l-1.487-1.45a.231.231,0,0,1,.129-.4l2.05-.3a.258.258,0,0,0,.175-.129l.923-1.847a.24.24,0,0,1,.425,0l.923,1.847a.277.277,0,0,0,.176.129l2.05.3a.231.231,0,0,1,.129.4l-1.478,1.45a.212.212,0,0,0-.065.2l.342,2.041a.231.231,0,0,1-.342.249l-1.847-.923A.231.231,0,0,0,239.813,335.3Z" transform="translate(-61.521 -105.337)" fill="#fff"/>
  <line id="Line_150" data-name="Line 150" x2="35.194" transform="translate(130.843 189.549)" fill="none" stroke="#fff" stroke-linecap="round" stroke-linejoin="round" stroke-width="3.63"/>
  <line id="Line_151" data-name="Line 151" x2="44.974" transform="translate(130.843 209.94)" fill="none" stroke="#fff" stroke-linecap="round" stroke-linejoin="round" stroke-width="3.63"/>
  <line id="Line_152" data-name="Line 152" x2="15.367" transform="translate(130.843 199.32)" fill="none" stroke="#fff" stroke-linecap="round" stroke-linejoin="round" stroke-width="3.63"/>
  <line id="Line_153" data-name="Line 153" x2="31.278" transform="translate(154.586 199.32)" fill="none" stroke="#fff" stroke-linecap="round" stroke-linejoin="round" stroke-width="3.63"/>
  <line id="Line_154" data-name="Line 154" x2="21.573" transform="translate(213.034 176.214)" fill="none" stroke="#ffdeb3" stroke-linecap="round" stroke-linejoin="round" stroke-width="4.22"/>
  <line id="Line_155" data-name="Line 155" y1="8.764" transform="translate(91.66 101.162)" fill="none" stroke="#d38e2a" stroke-linecap="round" stroke-linejoin="round" stroke-width="1.05"/>
  <line id="Line_156" data-name="Line 156" y1="23.844" transform="translate(91.66 71.481)" fill="none" stroke="#d38e2a" stroke-linecap="round" stroke-linejoin="round" stroke-width="1.05"/>
  <path id="Path_3869" data-name="Path 3869" d="M148.991,157.27a2.77,2.77,0,1,1-2.77-2.77A2.77,2.77,0,0,1,148.991,157.27Z" transform="translate(-54.413 -91.949)" fill="none" stroke="#d38e2a" stroke-linecap="round" stroke-linejoin="round" stroke-width="1.05"/>
  <rect id="Rectangle_1916" data-name="Rectangle 1916" width="10.38" height="10.38" transform="translate(245.106 220.227)" fill="none" stroke="#d38e2a" stroke-linecap="round" stroke-linejoin="round" stroke-width="1.05"/>
  <rect id="Rectangle_1917" data-name="Rectangle 1917" width="6.492" height="6.492" transform="translate(253.538 242.28)" fill="none" stroke="#d38e2a" stroke-linecap="round" stroke-linejoin="round" stroke-width="1.05"/>
  <line id="Line_157" data-name="Line 157" x2="84.674" transform="translate(122.8 251.367)" fill="none" stroke="#d38e2a" stroke-linecap="round" stroke-linejoin="round" stroke-width="1.05"/>
  <path id="Path_3870" data-name="Path 3870" d="M404.14,208.1s4.7,2.595,9.567-3.888c-.166-1.625-7.3-4.377-7.3-4.377Z" transform="translate(-74.359 -95.417)" fill="#ff7759"/>
  <path id="Path_3871" data-name="Path 3871" d="M407.942,190.86l5.319,14.73-5.5,3.463L402.17,193.5Z" transform="translate(-74.209 -94.731)" fill="#2b4177"/>
  <path id="Path_3872" data-name="Path 3872" d="M425.812,178.029l-4.553,4.821-4.959-7.877,6.307-2.022Z" transform="translate(-75.29 -93.36)" fill="#f55b51"/>
  <path id="Path_3873" data-name="Path 3873" d="M417.208,178.4l-1.108-1.967-.194.12-5.449-7.748-16.826,21.222-3,1.893.249.406,2.4,3.8.249.406,3-1.893,26.412-6.012-4.636-8.265.194-.12Z" transform="translate(-73.326 -93.043)" fill="#f55b51"/>
  <path id="Path_3874" data-name="Path 3874" d="M426.835,190.7h0a2.142,2.142,0,0,1-2.955-.665l-13.908-22.071a2.143,2.143,0,0,1,.665-2.955h0a2.152,2.152,0,0,1,2.955.674l13.926,22.071a2.133,2.133,0,0,1-.683,2.946Z" transform="translate(-74.78 -92.728)" fill="#2b4177"/>
  <path id="Path_3875" data-name="Path 3875" d="M397.259,205.319a13.7,13.7,0,0,0-.923,2.835c-.1.923-2.549,23.54-2.549,23.54l-15.7-9.937-4.617,13.612s21.009,7.822,26.781,8.459a3.888,3.888,0,0,0,4.442-1.847c.351-.286-1.45-34.742-1.45-34.742S402.126,202.585,397.259,205.319Z" transform="translate(-72.013 -95.771)" fill="#ffbe9d"/>
  <path id="Path_3876" data-name="Path 3876" d="M372.277,218.09l21.083,13.954-4.534,16.54-18.47-13.945S367.087,225.875,372.277,218.09Z" transform="translate(-71.697 -96.814)" fill="#4aa890"/>
  <ellipse id="Ellipse_134" data-name="Ellipse 134" cx="50.718" cy="4.257" rx="50.718" ry="4.257" transform="translate(256.89 310.923)" fill="#fff4e9"/>
  <path id="Path_3877" data-name="Path 3877" d="M353.275,421.687s5.679,5.938,8,7.222c-.517,1.034-8.773,1.034-11.867-.508a16.6,16.6,0,0,1-5.421-5.162l.259,3.869h-1.552a53.408,53.408,0,0,1-1.551-6.714c0-1.293,1.551-3.094,1.551-3.094Z" transform="translate(-69.539 -112.056)" fill="#2b4177"/>
  <path id="Path_3878" data-name="Path 3878" d="M355.32,338.705l-5.679,69.686-6.7-.517s-7.748-51.106-4.617-68.652S355.32,338.705,355.32,338.705Z" transform="translate(-69.266 -105.475)" fill="#ff8d68"/>
  <path id="Path_3879" data-name="Path 3879" d="M350.03,414.74s2.069,5.421,4.9,8.007-4.387,2.577-7.48,0-3.352-4.137-4.387-4.617.259-3.869.259-3.869Z" transform="translate(-69.656 -111.824)" fill="#ff8d68"/>
  <path id="Path_3880" data-name="Path 3880" d="M403.74,420.57s6.594,4.894,9.1,5.772c-.332,1.108-8.468,2.5-11.784,1.5a16.652,16.652,0,0,1-6.215-4.174l.924,3.777-1.524.259a53.991,53.991,0,0,1-2.66-6.354c-.222-1.274,1.007-3.315,1.007-3.315Z" transform="translate(-73.396 -112.112)" fill="#2b4177"/>
  <path id="Path_3881" data-name="Path 3881" d="M391.9,338.352,398.046,408l-6.7.619S375.1,359.556,375.19,341.732,391.9,338.352,391.9,338.352Z" transform="translate(-72.144 -105.593)" fill="#ff8d68"/>
  <path id="Path_3882" data-name="Path 3882" d="M399.365,414.23s2.946,5,6.178,7.065-3.888,3.278-7.388,1.256-4-3.5-5.107-3.842-.4-3.86-.4-3.86Z" transform="translate(-73.463 -111.822)" fill="#ff8d68"/>
  <path id="Path_3883" data-name="Path 3883" d="M381.4,274.333l.332,8.007a90.124,90.124,0,0,1,6.815,23.013c1.616,12.005,2.263,36.016,2.263,36.016l3.574,43.469s-7.139,2.6-12.975.97c0,0-7.139-24.325-9.087-32.765s-1.625-24.6-1.625-24.6l-5.837-22.709s-8.431,33.089-8.755,37.623-4.22,43.155-4.22,43.155a24.251,24.251,0,0,1-12.329-.323s-3.888-35.037-3.565-54.486c.646-14.6,1.616-22.062,1.616-22.062s-2.918-7.462.979-21.739c3.565-8.108,5.836-10.057,5.836-10.057l2.133-4.433Z" transform="translate(-69.143 -101.047)" fill="#2b4177"/>
  <path id="Path_3884" data-name="Path 3884" d="M353.9,214.23s-11.793,6.788-14.508,11.082S328.55,252.6,328.55,252.6s9.106,3.3,17.038,3.3c0,0-.776,7.388-1.551,9.678s1.939,3.288,1.939,3.288,19.005,5.181,33.116,2.106c0,0,1.736-.388,1.736-1.164s-.194-2.715-.194-2.715,1.358-13.16,1.745-15.487,4.617-8.644,4.257-11.156-6.972-14.2-6.972-14.2-4.451-5.227-6.381-6.575S365.9,216.5,365.9,216.5Z" transform="translate(-68.576 -96.519)" fill="#4aa890"/>
  <path id="Path_3885" data-name="Path 3885" d="M369.365,208.887c0,.3-1.117,6.871,2.521,11.525s-10.712,4.544-14.046-.3c-3.029-4.35-2.77-5.051-2.77-5.051s2.429-7.887,1.718-13.04C357.027,197.361,369.568,200.187,369.365,208.887Z" transform="translate(-70.604 -95.414)" fill="#ffbe9d"/>
  <line id="Line_158" data-name="Line 158" x1="5.938" y2="21.166" transform="translate(278.573 137.215)" fill="none" stroke="#318a7c" stroke-miterlimit="10" stroke-width="0.79"/>
  <path id="Path_3886" data-name="Path 3886" d="M358.619,236.68a13.991,13.991,0,0,1-5.809,6.769" transform="translate(-70.432 -98.237)" fill="none" stroke="#318a7c" stroke-miterlimit="10" stroke-width="0.79"/>
  <path id="Path_3887" data-name="Path 3887" d="M351.183,230.749a7.139,7.139,0,0,0-6.963-5.809" transform="translate(-69.775 -97.338)" fill="none" stroke="#318a7c" stroke-miterlimit="10" stroke-width="0.79"/>
  <path id="Path_3888" data-name="Path 3888" d="M384.43,228.71s6.326,10.389,6.261,12.846-4.128,9.42-4.128,9.42l-5.033,13.16" transform="translate(-72.629 -97.627)" fill="none" stroke="#318a7c" stroke-miterlimit="10" stroke-width="0.79"/>
  <line id="Line_159" data-name="Line 159" x1="6.778" y1="7.748" transform="translate(283.154 166.508)" fill="none" stroke="#318a7c" stroke-miterlimit="10" stroke-width="0.79"/>
  <path id="Path_3889" data-name="Path 3889" d="M359,293.569s3.223,3.546,4.193,4.322,7.554,1.358,7.554,1.358,2.9,4.839,3.694,4.617.582-.776.582-.776.194-8.708-.388-9.678-10.066-3.694-10.066-3.694l-1.164-1.358L359,293.569" transform="translate(-70.906 -102.191)" fill="#ffbe9d"/>
  <path id="Path_3890" data-name="Path 3890" d="M331.359,256.73c-.259.776-2.327,6.843-3.352,9.937s22.164,19.393,25.8,22.164l2.817,2.318,4.387-5.162L340.65,265.632l2.974-6.7Z" transform="translate(-68.532 -99.771)" fill="#ffbe9d"/>
  <line id="Line_160" data-name="Line 160" x1="1.228" y1="5.421" transform="translate(302.316 196.318)" fill="none" stroke="#aa6550" stroke-miterlimit="10" stroke-width="0.74"/>
  <line id="Line_161" data-name="Line 161" x1="1.422" y1="3.094" transform="translate(302.833 193.742)" fill="none" stroke="#aa6550" stroke-miterlimit="10" stroke-width="0.74"/>
  <path id="Path_3891" data-name="Path 3891" d="M375.619,293.9l.517,10.454h-1.681l-2.706-4.645" transform="translate(-71.881 -102.615)" fill="none" stroke="#aa6550" stroke-miterlimit="10" stroke-width="0.74"/>
  <path id="Path_3892" data-name="Path 3892" d="M348.025,184.135s.573-4.894-4.073-5.005-8.081,7.942-4.553,10.916c2.77,2.613,4.34,1.164,4.34,1.164s-1.219,4.026-.259,5.661c.6.554.656-3.583,2.429-5.541S348.025,184.135,348.025,184.135Z" transform="translate(-69.295 -93.833)" fill="#263238"/>
  <path id="Path_3893" data-name="Path 3893" d="M363.743,179.291s4.313.277,7.822,6.16,4.479,19.587,3.223,21.462-6.1,2.152-13.04,1.219c-7.332-.988-11.026-7.739-13.15-12.245C344.534,187.3,350.722,176.428,363.743,179.291Z" transform="translate(-70.015 -93.81)" fill="#ffbe9d"/>
  <path id="Path_3894" data-name="Path 3894" d="M369.3,210.652a12.2,12.2,0,0,1-8.4-4.2" transform="translate(-71.051 -95.924)" fill="none" stroke="#aa6550" stroke-miterlimit="10" stroke-width="0.75"/>
  <path id="Path_3895" data-name="Path 3895" d="M363.317,202.317a2.383,2.383,0,1,0,1.9-2.77A2.383,2.383,0,0,0,363.317,202.317Z" transform="translate(-71.233 -95.392)" fill="#aa6550"/>
  <path id="Path_3896" data-name="Path 3896" d="M367.619,198.133a.582.582,0,1,0,.462-.674A.582.582,0,0,0,367.619,198.133Z" transform="translate(-71.564 -95.235)" fill="#024470"/>
  <path id="Path_3897" data-name="Path 3897" d="M374.279,196.883a.582.582,0,0,0,1.145-.212.572.572,0,0,0-.674-.462.582.582,0,0,0-.471.674Z" transform="translate(-72.074 -95.139)" fill="#024470"/>
  <path id="Path_3898" data-name="Path 3898" d="M352.223,179.741s13.021-5.412,21.73,3.2c5.07,6.806-1.487,9.678-2.891,10.112s.083-2.161.083-2.161a20.408,20.408,0,0,1-8.478,4.063c-4.941.924-.49-1.727-.49-1.727a37.275,37.275,0,0,1-4.442,1.847c-.923.185,1.551,5.652,1.311,7.019-.4,1.394-4.1-5.172-4.1-5.172l-.212,4.165.646,4.331s-6.464-3.417-8.653-7.453S343.256,184.728,352.223,179.741Z" transform="translate(-69.845 -93.751)" fill="#263238"/>
  <path id="Path_3899" data-name="Path 3899" d="M356.778,199.3s-2-2.235-3.352-1.025,2.207,6.464,4.313,6.187S358.015,200.57,356.778,199.3Z" transform="translate(-70.456 -95.27)" fill="#aa6550"/>
  <path id="Path_3900" data-name="Path 3900" d="M355.934,212.8s4.534,8.755,13.3,8.755c1.459-1.616.157-5.19.157-5.19s5.033,3.408,5.033,7.628c0,0,4.377,4.22,6.16,7.3-.323,1.136-3.888,1.459-3.888,1.459s3.084,7.462,2.595,13.954c0,0-2.106,1.293-6.815.813,0,0,1.57-22.745-2.918-21.24-.49.157-5.679,0-11.359-2.918s-5.347-8.117-5.347-8.117.813-4.867,3.408-4.867Z" transform="translate(-70.435 -96.223)" fill="#2b4177"/>
  <path id="Path_3901" data-name="Path 3901" d="M372.472,199.61s2.429,1.579,2.189,2.77-1.708.609-1.708.609S372.1,200.22,372.472,199.61Z" transform="translate(-71.929 -95.4)" fill="#aa6550"/>
  <path id="Path_3902" data-name="Path 3902" d="M375.248,204.22a16.7,16.7,0,0,1-4.377,1.09c-1.219.249.97,2.189,2.918,1.459A2.133,2.133,0,0,0,375.248,204.22Z" transform="translate(-71.787 -95.753)" fill="#fff"/>
  <path id="Path_3903" data-name="Path 3903" d="M410,194.7s4.377-.73,5.356-.24-.249,9-.249,9l-3.888,1.7Z" transform="translate(-74.808 -94.993)" fill="#ffbe9d"/>
  <path id="Path_3904" data-name="Path 3904" d="M398.45,206.494a20.9,20.9,0,0,1,1.912-4.516,37.022,37.022,0,0,0,2.429-5.661s6.27-2.429,7.277-3.694a4.543,4.543,0,0,1,1.616-1.413,3.2,3.2,0,0,1-.6,3.842c-1.847,1.616-3.435,2.835-3.435,2.835a31.874,31.874,0,0,1-.406,6.871,5.947,5.947,0,0,1-2.429,3.306Z" transform="translate(-73.924 -94.757)" fill="#ffbe9d"/>
  <path id="Path_3905" data-name="Path 3905" d="M410.677,196.44l-2.429,1.893-1.828-.471" transform="translate(-74.534 -95.158)" fill="none" stroke="#aa6550" stroke-miterlimit="10" stroke-width="0.74"/>
  <path id="Path_3906" data-name="Path 3906" d="M410.15,197.1l1.1,8.274,3.888-1.7" transform="translate(-74.819 -95.208)" fill="none" stroke="#aa6550" stroke-miterlimit="10" stroke-width="0.74"/>
  <line id="Line_162" data-name="Line 162" y1="2.438" x2="3.528" transform="translate(336.06 106.149)" fill="none" stroke="#aa6550" stroke-miterlimit="10" stroke-width="0.74"/>
  <line id="Line_163" data-name="Line 163" y1="2.309" x2="3.768" transform="translate(335.7 103.6)" fill="none" stroke="#aa6550" stroke-miterlimit="10" stroke-width="0.74"/>
  <line id="Line_164" data-name="Line 164" y1="1.949" x2="3.158" transform="translate(335.7 101.042)" fill="none" stroke="#aa6550" stroke-miterlimit="10" stroke-width="0.74"/>
  <path id="Path_3907" data-name="Path 3907" d="M362.68,283.08a42.167,42.167,0,0,0,17.2.646" transform="translate(-71.187 -101.787)" fill="none" stroke="#2b3257" stroke-miterlimit="10" stroke-width="0.79"/>
  <path id="Path_3908" data-name="Path 3908" d="M346,187.864s1.219-8.311,11.673-9.734" transform="translate(-69.911 -93.757)" fill="none" stroke="#2a383d" stroke-miterlimit="10" stroke-width="0.74"/>
  <path id="Path_3909" data-name="Path 3909" d="M350,190.881s.97-4.137,6.566-8.311" transform="translate(-70.217 -94.096)" fill="none" stroke="#2a383d" stroke-miterlimit="10" stroke-width="0.74"/>
  <path id="Path_3910" data-name="Path 3910" d="M346.248,185.528s0-1.939-3.408-2.918" transform="translate(-69.669 -94.099)" fill="none" stroke="#2a383d" stroke-miterlimit="10" stroke-width="0.74"/>
  <path id="Path_3911" data-name="Path 3911" d="M345.721,192.36s-.97,5.6,2.927,9" transform="translate(-69.881 -94.845)" fill="none" stroke="#2a383d" stroke-miterlimit="10" stroke-width="0.74"/>
  <path id="Path_3912" data-name="Path 3912" d="M346.691,141.591a3.251,3.251,0,1,1-3.251-3.241,3.251,3.251,0,0,1,3.251,3.241Z" transform="translate(-69.466 -90.713)" fill="#d38e2a"/>
  <path id="Path_3913" data-name="Path 3913" d="M413.463,277.891a3.241,3.241,0,1,1-3.241-3.241A3.242,3.242,0,0,1,413.463,277.891Z" transform="translate(-74.577 -101.142)" fill="#ffdeb3"/>
  <path id="Path_3914" data-name="Path 3914" d="M167,372.391a3.241,3.241,0,1,1-3.241-3.241A3.241,3.241,0,0,1,167,372.391Z" transform="translate(-55.719 -108.372)" fill="#f6b333"/>
  <path id="Path_3915" data-name="Path 3915" d="M172.092,386.266a1.136,1.136,0,1,1-1.127-1.136,1.136,1.136,0,0,1,1.127,1.136Z" transform="translate(-56.431 -109.595)" fill="#f6b333"/>
  <path id="Path_3916" data-name="Path 3916" d="M339.541,166.412a5.541,5.541,0,1,1,5.541-5.541A5.541,5.541,0,0,1,339.541,166.412Z" transform="translate(-68.993 -92.012)" fill="#d38e2a"/>
  <line id="Line_165" data-name="Line 165" transform="translate(167.57 18.436)" fill="none" stroke="#d38e2a" stroke-linecap="round" stroke-linejoin="round" stroke-width="3.16"/>
  <line id="Line_166" data-name="Line 166" x2="27.372" transform="translate(173.656 18.436)" fill="none" stroke="#d38e2a" stroke-linecap="round" stroke-linejoin="round" stroke-width="3.16" stroke-dasharray="0 6.59"/>
  <line id="Line_167" data-name="Line 167" transform="translate(204.067 18.436)" fill="none" stroke="#d38e2a" stroke-linecap="round" stroke-linejoin="round" stroke-width="3.16"/>
  <line id="Line_168" data-name="Line 168" x2="28.222" transform="translate(224.993 268.073)" fill="none" stroke="#d38e2a" stroke-linecap="round" stroke-linejoin="round" stroke-width="3.16" stroke-dasharray="0 6.32"/>
  <circle id="Ellipse_135" data-name="Ellipse 135" cx="15.09" cy="15.09" r="15.09" transform="translate(120.437 31.581) rotate(-45)" fill="#2a5798"/>
  <path id="Path_3917" data-name="Path 3917" d="M194.24,121.677l4.377,4.377,8.515-8.515" transform="translate(-58.299 -89.121)" fill="none" stroke="#fff" stroke-linecap="round" stroke-linejoin="round" stroke-width="4.22"/>
</svg>
