<svg xmlns="http://www.w3.org/2000/svg" width="39.09" height="39.09" viewBox="0 0 39.09 39.09">
  <g id="replace" transform="translate(0 0)">
    <path id="Path_3749" data-name="Path 3749" d="M175,9.822,167.63,2.491a1.144,1.144,0,0,0-.2-.156v7.688h7.729a1.137,1.137,0,0,0-.16-.2Zm0,0" transform="translate(-154.65 -2.157)" fill="#f6b333"/>
    <path id="Path_3750" data-name="Path 3750" d="M20.69,26.4V10.164H11.638a1.145,1.145,0,0,1-1.145-1.145V.008H1.145A1.145,1.145,0,0,0,0,1.153V26.4A1.145,1.145,0,0,0,1.145,27.55h18.4A1.145,1.145,0,0,0,20.69,26.4Zm0,0" transform="translate(0 -0.007)" fill="#f6b333"/>
    <path id="Path_3751" data-name="Path 3751" d="M416,161.061l-7.373-7.331a1.142,1.142,0,0,0-.2-.155v7.688h7.729a1.149,1.149,0,0,0-.16-.2Zm0,0" transform="translate(-377.25 -141.849)" fill="#2a5798"/>
    <path id="Path_3752" data-name="Path 3752" d="M252.638,161.4a1.145,1.145,0,0,1-1.145-1.145v-9.011h-5.912V166.1a3.439,3.439,0,0,1-3.436,3.435H241v8.111a1.145,1.145,0,0,0,1.145,1.145h18.4a1.145,1.145,0,0,0,1.145-1.145V161.4Zm0,0" transform="translate(-222.601 -139.7)" fill="#2a5798"/>
    <path id="Path_3753" data-name="Path 3753" d="M92.44,400.918a1.145,1.145,0,0,0-1.69,1.542H88.49a1.146,1.146,0,0,1-1.145-1.145v-2.252a1.145,1.145,0,0,0-2.29,0v2.252a3.439,3.439,0,0,0,3.436,3.435h2.26a1.145,1.145,0,0,0,1.69,1.542l1.877-1.878a1.145,1.145,0,0,0,0-1.619Zm0,0" transform="translate(-78.561 -367.538)" fill="#f6b333"/>
    <path id="Path_3754" data-name="Path 3754" d="M254.694,5.71a1.145,1.145,0,0,0,1.69-1.542h2.26a1.146,1.146,0,0,1,1.145,1.145V7.565a1.145,1.145,0,0,0,2.29,0V5.313a3.439,3.439,0,0,0-3.436-3.435h-2.26a1.145,1.145,0,0,0-1.69-1.542l-1.877,1.877a1.145,1.145,0,0,0,0,1.619Zm0,0" transform="translate(-233.204 0)" fill="#2a5798"/>
  </g>
</svg>
