<svg xmlns="http://www.w3.org/2000/svg" width="22.868" height="22" viewBox="0 0 22.868 22">
  <g id="_2216349_building_building_location_commercial_company_map_icon" data-name="2216349_building_building location_commercial_company_map_icon" transform="translate(-19.9 -19.1)">
    <path id="Path_3593" data-name="Path 3593" d="M33.464,19.1H19.9v22H33.464ZM26.02,36.923H24.614V34.359H26.02Zm0-5.169H24.614V29.19H26.02Zm0-5.128H24.614V24.062H26.02Zm4.259,10.3H28.874V34.359H30.28Zm0-5.169H28.874V29.19H30.28Zm0-5.128H28.874V24.062H30.28Z" transform="translate(0 0)" fill="#f6b333"/>
    <path id="Path_3594" data-name="Path 3594" d="M63.646,51.114V40.9H55.5V53.885h5.376A2.771,2.771,0,0,0,63.646,51.114ZM60.5,49.749H57.774V48.385H60.5Zm0-3.432H57.774V44.911H60.5Z" transform="translate(-20.878 -12.785)" fill="#f6b333"/>
  </g>
</svg>
