<svg xmlns="http://www.w3.org/2000/svg" width="32" height="32" viewBox="0 0 32 32"><defs><style>.a{fill:#fff;stroke:#707070;opacity:0;}.b{fill:#22477c;}.c{fill:#1b3964;}.d{fill:#2a5798;}.e,.j{fill:#f8b432;}.f{fill:#e89b08;}.g{fill:#1e3e6c;}.h{fill:#b67a06;}.i,.k{fill:#e39808;}.j,.k{fill-rule:evenodd;}.l{stroke:none;}.m{fill:none;}</style></defs><g transform="translate(-1374 -839)"><g class="a" transform="translate(1374 839)"><rect class="l" width="32" height="32"/><rect class="m" x="0.5" y="0.5" width="31" height="31"/></g><g transform="translate(1373.952 838.801)"><path class="b" d="M6.241,30.794c-.342-.243-.388-.418-.182-.791a1.62,1.62,0,0,1,1.482-.927,1.184,1.184,0,0,1,.585-.084H21.952c.236,0,.471,0,.715-.008a.277.277,0,0,1,.228.084c.129.19.289.167.464.076a1.377,1.377,0,0,1,1.041.9.743.743,0,0,1,.091.753Z"/><path class="c" d="M24.482,30.793a1.7,1.7,0,0,0-.9-1.528.4.4,0,0,0-.243-.068c-.061-.038-.167.068-.182-.053-.015-.1.084-.122.16-.122a3.4,3.4,0,0,1,1.239.061,1.632,1.632,0,0,1,1.482.927c.205.372.152.547-.182.79C25.395,30.793,24.938,30.793,24.482,30.793Z"/><path class="d" d="M22.774,29.022a.524.524,0,0,1-.3.061H7.647c-.038,0-.076-.008-.114-.008.106-.091.061-.213.061-.319V22.744c0-.509.114-.616.616-.616.372,0,.737-.008,1.11-.015a.267.267,0,0,1,.106-.046,3.05,3.05,0,0,1,.456-.015H20.645c.578,0,1.155-.015,1.733-.008a.633.633,0,0,1,.388.068l.008.023a.262.262,0,0,1,.076.175c.023.464.023.927,0,1.383a.241.241,0,0,1-.061.152.835.835,0,0,1-.524.076c-4.074-.023-8.148-.008-12.23-.008H9.753c-.3.008-.35.061-.35.35v2.622c0,.106-.008.213.091.281a1,1,0,0,0,.448.046H20.63a3.078,3.078,0,0,1,.372.008c.486-.015.973-.008,1.467-.008a.5.5,0,0,1,.327.076.378.378,0,0,1,.076.266c.008.4.008.8,0,1.193A.415.415,0,0,1,22.774,29.022Z"/><path class="e" d="M9.381,22.105l-.03.008-.03-.008a1.76,1.76,0,0,1,1.741-1.741c.16-.008.319-.03.479-.046,2.318-.106,4.637-.03,6.948-.038h.372a2.641,2.641,0,0,1,.547.023,1.846,1.846,0,0,1,1.444.9,1.481,1.481,0,0,1,.213.638c.008.167-.038.281-.243.266-.076-.008-.152,0-.228,0H9.685A1.354,1.354,0,0,0,9.381,22.105Z"/><path class="f" d="M18.9,20.357H11.821c-.091,0-.19.03-.274-.046a1.9,1.9,0,0,0,1.148-1.041c.38-.783.783-1.558,1.178-2.341a.28.28,0,0,1,.266-.137c.813-.008,1.627-.03,2.44.015.023.008.068.015.076.038a4.278,4.278,0,0,0,.563,1.33c.152.357.342.692.517,1.041a1.823,1.823,0,0,0,1.034,1C18.821,20.236,18.912,20.251,18.9,20.357Z"/><path class="e" d="M16.67,16.883H14.2a.722.722,0,0,0-.334.053,2.578,2.578,0,0,1-.342-.114.857.857,0,0,1-.494-.981.875.875,0,0,1,.844-.669c.494-.008.988,0,1.475-.008a7.087,7.087,0,0,0,1.33-.053c0,.015-.008.03-.008.046a.91.91,0,0,1,.753.829.989.989,0,0,1-.623.92A.133.133,0,0,1,16.67,16.883Z"/><path class="g" d="M22.759,23.854c0-.578.008-1.148.008-1.726.418,0,.836-.015,1.254-.008.319,0,.464.16.464.509v6.127c0,.106-.046.228.061.319H23.177c.03.122.137.046.152.122-.281.251-.433.053-.57-.175,0-.57-.008-1.148-.008-1.718a.476.476,0,0,1-.084-.35V24.2A.635.635,0,0,1,22.759,23.854Z"/><path class="h" d="M16.668,16.883h.114a3.2,3.2,0,0,1,1.2-.076.255.255,0,0,1,.236.129c.388.768.791,1.535,1.163,2.311a1.945,1.945,0,0,0,1.155,1.064c-.046.145-.175.122-.274.129a6.57,6.57,0,0,1-.859-.084H18.9a2.346,2.346,0,0,1-.813-.486,2.807,2.807,0,0,1-.4-.578c-.35-.715-.707-1.429-1.072-2.136C16.539,17.028,16.516,16.944,16.668,16.883Z"/><path class="i" d="M19.405,20.357a6.242,6.242,0,0,0,1.133-.046c.2.023.4.031.593.061a1.757,1.757,0,0,1,1.634,1.733c-.578.008-1.155.015-1.733.015H9.668c-.091,0-.19-.008-.281-.015a.562.562,0,0,1,.334-.038H20.659c.38,0,.4-.015.3-.38a1.624,1.624,0,0,0-1.429-1.269A.5.5,0,0,1,19.405,20.357Z"/><path class="i" d="M18.221,16.937a4.659,4.659,0,0,0-1.125-.053c-.106-.008-.205,0-.312,0a1.156,1.156,0,0,0,.479-.494.855.855,0,0,0-.426-1.133c-.053-.03-.137-.015-.167-.091.486,0,.965.008,1.452.008a.867.867,0,0,1,.167,1.725C18.266,16.9,18.243,16.921,18.221,16.937Z"/><path class="j" d="M16.756,15.118a.31.31,0,0,0,.211-.051,3.017,3.017,0,0,0,1.049-.6A4.915,4.915,0,0,0,19.6,11.692c.306-1.519.577-3.041.849-4.565q.2-1.123.4-2.246c0-.014.007-.029.01-.043.023-.095.049-.2-.063-.268a.922.922,0,0,0-.376-.04l-.1,0H10.756a.28.28,0,0,1-.319-.251c-.057-.246-.119-.487-.182-.731L10.217,3.4A2.128,2.128,0,0,0,8.407,1.6h-.8a.107.107,0,0,1-.086.052.3.3,0,0,0-.036.009A2.122,2.122,0,0,0,5.891,4.2c.3,1.353.638,2.691.981,4.029A4.608,4.608,0,0,0,8.05,10.285a4.754,4.754,0,0,0,2.934,1.482.5.5,0,0,1,.471.357,4.943,4.943,0,0,0,2.508,2.592,5.378,5.378,0,0,0,.866.3c.177.05.353.1.525.159a1.827,1.827,0,0,0,1.33-.053C16.708,15.118,16.732,15.118,16.756,15.118ZM7.852,2.472A1.321,1.321,0,0,0,6.7,3.832a1.138,1.138,0,0,1,.02.141l0,.026c.1.395.191.79.285,1.186.216.906.431,1.812.68,2.706a4,4,0,0,0,3.109,2.964c.266.068.289.008.228-.228-.238-.937-.47-1.875-.7-2.812q-.174-.7-.348-1.406C9.737,5.428,9.5,4.456,9.25,3.483A1.317,1.317,0,0,0,7.852,2.472Z"/><path class="k" d="M21,4.634c-.055,0-.11.009-.165.011q-.194.992-.365,1.961c-.06.328-.117.656-.174.984-.118.675-.235,1.348-.373,2.018-.057.28-.1.561-.15.843a9.968,9.968,0,0,1-.458,1.947,4.168,4.168,0,0,1-2.341,2.592c-.038.015-.03.038-.008.061.025,0,.051,0,.076,0a.586.586,0,0,0,.152-.019,4.928,4.928,0,0,0,3.443-2.934.517.517,0,0,1,.471-.35,4.714,4.714,0,0,0,4.044-3.413c.332-1.056.581-2.139.83-3.221q.1-.457.212-.914a2.051,2.051,0,0,0-.646-2.037,2.749,2.749,0,0,0-.979-.53L24.484,1.6h-.8a.121.121,0,0,1-.1.06l-.04.008a2.165,2.165,0,0,0-1.566,1.7c-.031.147-.068.291-.1.435-.045.176-.09.351-.123.53-.046.22-.129.327-.372.3A1.807,1.807,0,0,0,21,4.634Zm4.192.055c.078-.3.154-.595.2-.865a1.336,1.336,0,0,0-1.178-1.361,1.316,1.316,0,0,0-1.368,1.011q-.555,2.212-1.1,4.423-.34,1.378-.681,2.753c-.046.19-.046.274.2.213a4.019,4.019,0,0,0,3.162-3.048c.184-.689.349-1.383.514-2.077l.117-.492C25.1,5.058,25.146,4.872,25.193,4.69Z"/><path class="e" d="M21,27.3c-.106,0-.205.008-.312.008H9.684c-.106,0-.205-.008-.312-.015a.349.349,0,0,1-.023-.2c0-1,.008-1.992-.008-2.995,0-.2.053-.258.258-.258q5.587.011,11.166,0c.236,0,.327.084.327.3.008.958.008,1.915,0,2.881A.345.345,0,0,1,21,27.3Z"/><path class="i" d="M21,27.3c0-1.041-.008-2.09.008-3.132,0-.228-.076-.289-.289-.281q-5.53.011-11.052,0c-.243,0-.3.084-.3.312.008,1.034.008,2.067.008,3.1-.084-.038-.046-.114-.046-.175,0-1.018,0-2.029-.008-3.048,0-.19.061-.236.243-.236q6.522.011,13.051.008c.046,0,.091.008.145.008v3.451C22.181,27.3,21.588,27.3,21,27.3Z"/></g></g></svg>