<svg xmlns="http://www.w3.org/2000/svg" width="25.497" height="17.384" viewBox="0 0 25.497 17.384"><defs><style>.a{opacity:0.2;}.b{fill:#2a5798;}</style></defs><g class="a" transform="translate(0 -74.667)"><g transform="translate(0 74.667)"><g transform="translate(0 0)"><path class="b" d="M174.144,170.667a3.477,3.477,0,1,0,3.477,3.477A3.48,3.48,0,0,0,174.144,170.667Z" transform="translate(-161.395 -165.452)"/><path class="b" d="M12.748,74.667A13.707,13.707,0,0,0,0,83.359a13.695,13.695,0,0,0,25.5,0A13.7,13.7,0,0,0,12.748,74.667Zm0,14.487a5.795,5.795,0,1,1,5.795-5.795A5.8,5.8,0,0,1,12.748,89.154Z" transform="translate(0 -74.667)"/></g></g></g></svg>