<svg xmlns="http://www.w3.org/2000/svg" width="1925.996" height="1960.206" viewBox="0 0 1925.996 1960.206"><defs><style>.a{opacity:0.07;}.b{fill:#f6b333;}.c{fill:#2a5798;}</style></defs><g class="a" transform="translate(-0.015)"><g transform="translate(0.015)"><path class="b" d="M870.2,1934.483l44.143-154.293a30.592,30.592,0,0,0-16.626-36.578C850.5,1722.828,746,1675.111,698.2,1643.853,527.78,1533.2,403.165,1392.96,317.29,1215.058a1014.21,1014.21,0,0,1-102.751-427.88c-1.579-99.177-1.5-353.395-1.164-534.789a29.6,29.6,0,0,1,29.013-30.177H833.207a29.678,29.678,0,0,0,29.013-30.343V30.343A29.761,29.761,0,0,0,833.124,0H29.486A29.761,29.761,0,0,0,.307,30.343V122.2c0,157.951-1.081,540.358.914,668.548a1242,1242,0,0,0,125.529,523.732,1267.017,1267.017,0,0,0,458.639,517.5c56.945,36.993,186.964,95.6,245.655,121.456a28.764,28.764,0,0,0,39.155-18.954Z" transform="translate(-0.015)"/><path class="c" d="M481.937,185.06A1131.607,1131.607,0,0,1,338.949,294.545C290.733,325.8,186.319,373.52,139.433,394.3a30.593,30.593,0,0,0-16.626,36.578l44.226,154.376A28.764,28.764,0,0,0,206.1,604.544c58.774-25.854,188.71-84.462,245.655-121.456a1327.558,1327.558,0,0,0,181.976-141.74Z" transform="translate(888.621 1353.381)"/><path class="c" d="M989.587,122.7V30.843A29.761,29.761,0,0,0,960.491.5H156.771a29.761,29.761,0,0,0-28.764,30.343V192.369a29.678,29.678,0,0,0,29.013,30.343H747.839a29.6,29.6,0,0,1,28.6,30.177c0,181.394,0,435.7-1.164,534.788a1014.21,1014.21,0,0,1-102.834,427.8c-12.636,26.187-26.27,51.459-40.568,76.066l155.124,159.614A1284.913,1284.913,0,0,0,863.144,1315.4,1241.995,1241.995,0,0,0,988.673,791.668C990.668,662.73,990,280.9,989.587,122.7Z" transform="translate(935.96 3.657)"/><path class="c" d="M1390.533,1232.047,1136.564,970.68l-42.48-43.312-3.242-3.076a583.87,583.87,0,0,0,40.153-70.745,563.3,563.3,0,0,0,54.95-244.408,570.036,570.036,0,0,0-867.9-486.572,580.013,580.013,0,0,0-93.108,71.161A570.867,570.867,0,0,0,69.9,442.458,540.348,540.348,0,0,0,53.271,513.7a531.535,531.535,0,0,0-7.4,71.244c0,8.313-.582,16.211-.582,24.192a595.57,595.57,0,0,0,5.4,78.227c1.247,10.225,3.076,20.949,5.736,33.835,2.078,9.976,4.406,20.534,7.232,31.507a11.057,11.057,0,0,0,.914,2.993,566.713,566.713,0,0,0,58.193,140.078,577.739,577.739,0,0,0,42.148,62.349c12.719,16.626,24.939,30.011,36.162,42.148s23.277,23.609,35.581,34.749c193.133,172.741,478.563,193.244,694.4,49.879l1.829,1.829,296.033,304.6a113.338,113.338,0,1,0,161.692-158.865ZM1002.971,609.3a386.689,386.689,0,0,1-773.377.083,221.726,221.726,0,0,1,.831-23.443A380.069,380.069,0,0,1,240.9,517.111C287.649,327.33,468.678,202.283,662.72,225.737s340.064,188.03,340.251,383.484Z" transform="translate(331.092 281.954)"/><path class="b" d="M363.347,555.722c102.834-104.58,340.841-360.71,433.7-454.4C859.313,38.475,915.012,28.25,958.573,70.065c45.058,43.395,34.5,102.5-30.343,167.428-108.57,108.82-362.871,379.664-472.107,487.9-68.5,67.919-108.072,67.586-176.572,0C226.512,673.1,173.474,620.815,121.6,567.444c-48.549-50.711-51.209-105.661-9.726-145.9,36.661-35.581,96.35-32.255,141.324,12.137C290.357,469.681,323.361,510.748,363.347,555.722Z" transform="translate(605.516 328.387)"/></g></g></svg>