<svg xmlns="http://www.w3.org/2000/svg" width="24" height="24" viewBox="0 0 24 24"><defs><style>.a{fill:#fff;stroke:#707070;opacity:0;}.b{fill:#1c1b1b;}.c{stroke:none;}.d{fill:none;}</style></defs><g transform="translate(-18760 -563)"><g class="a" transform="translate(18760 563)"><rect class="c" width="24" height="24"/><rect class="d" x="0.5" y="0.5" width="23" height="23"/></g><g transform="translate(18759.234 561.789)"><g transform="translate(4.496 2.377)"><path class="b" d="M4.389.115l-.97.293A4.741,4.741,0,0,0,.093,4.274c-.4,2.8.5,6.077,2.666,9.833S7.3,20.269,9.926,21.325a4.741,4.741,0,0,0,5.033-.955l.736-.7a2.709,2.709,0,0,0,.333-3.553L14.19,13.574a2.032,2.032,0,0,0-2.242-.753L9.17,13.67l-.072.014c-.306.045-1.012-.618-1.892-2.143-.921-1.6-1.114-2.529-.859-2.77L7.761,7.452a3.383,3.383,0,0,0,.778-3.861L7.644,1.6A2.709,2.709,0,0,0,4.39.115ZM6.407,2.154l.9,1.993a2.028,2.028,0,0,1-.466,2.316L5.42,7.783c-.908.858-.607,2.325.611,4.435,1.147,1.986,2.193,2.967,3.316,2.8l.168-.035,2.829-.863a.677.677,0,0,1,.748.251l1.837,2.547a1.355,1.355,0,0,1-.167,1.777l-.736.7a3.387,3.387,0,0,1-3.594.681c-2.3-.927-4.474-3.131-6.5-6.638s-2.85-6.505-2.5-8.964A3.387,3.387,0,0,1,3.811,1.7l.971-.293a1.355,1.355,0,0,1,1.626.742Z" transform="translate(0 0)"/></g></g></g></svg>