<svg xmlns="http://www.w3.org/2000/svg" width="32" height="32" viewBox="0 0 32 32"><defs><style>.a{fill:#fff;stroke:#707070;opacity:0;}.b{fill:#2a5798;}.c{fill:#fefefe;}.d{fill:#f6b333;}.e{fill:#d1e5ff;}.f{fill:#88a8f7;}.g{fill:#4a7afe;}.h{fill:#afc4fe;}.i{stroke:none;}.j{fill:none;}</style></defs><g transform="translate(-163 -834)"><g class="a" transform="translate(163 834)"><rect class="i" width="32" height="32"/><rect class="j" x="0.5" y="0.5" width="31" height="31"/></g><g transform="translate(169.062 835.025)"><path class="b" d="M24.3,32.243a1.068,1.068,0,0,1-.578.058q-6.827-.012-13.654-.016a3.046,3.046,0,0,1-1.215-.239A2.013,2.013,0,0,1,8,30.276q.013-12.783.008-25.559a1.8,1.8,0,0,1,2.054-2.026q6.827-.012,13.654-.016a1.255,1.255,0,0,1,.578.058c-.151.255-.411.189-.637.2-1.911.008-3.822,0-5.733.008-.83,0-.838.008-.838.832,0,.387,0,.766-.008,1.153a.724.724,0,0,1-.143.5.91.91,0,0,1-.57.082H10.508c-.947,0-1.115.165-1.115,1.1v20.9a1.985,1.985,0,0,0,.159.881.41.41,0,0,0,.109.1,2.023,2.023,0,0,0,.855.156h5.851a.91.91,0,0,1,.57.082.858.858,0,0,1,.151.585c.008.634,0,1.26,0,1.894,0,.823.017.84.83.84,1.9,0,3.8-.008,5.7.008C23.861,32.046,24.137,31.972,24.3,32.243Z" transform="translate(-8.002 -2.669)"/><path class="b" d="M23.413,32.237c-2.272-.008-4.535-.008-6.806-.016-.6,0-.6,0-.6-.585V28.763c.176-.255.453-.181.687-.181,1.953-.008,3.906,0,5.867-.008.88,0,.88,0,.88-.873V6.424c0-.865,0-.865-.888-.865-1.953,0-3.906.008-5.867-.008-.235,0-.52.074-.687-.189,0-.725.017-1.457-.008-2.182-.008-.338.109-.453.453-.445q3.206.012,6.412.008c.184,0,.36-.008.545-.016a1.76,1.76,0,0,1,1.3.84A2.622,2.622,0,0,1,24.9,4.645q-.013,12.833-.008,25.674A1.689,1.689,0,0,1,23.413,32.237Z" transform="translate(-7.108 -2.663)"/><path class="c" d="M16.778,5.1c2.4.008,4.8.016,7.2,0,.344,0,.436.082.436.42q-.013,11.264,0,22.537c0,.338-.084.436-.436.428-2.4-.008-4.8,0-7.2,0-.235-.008-.469-.033-.7-.033H9.67a.848.848,0,0,1-.453-.041c.184-.222.453-.189.7-.189,1.827-.008,3.654,0,5.482,0h.335c.838,0,.847-.008.855-.815,0-.3,0-.6.008-.906a.852.852,0,0,1,.134-.51.884.884,0,0,1,.671-.156c1.66-.008,3.319,0,4.987,0,.7,0,.738-.033.746-.716v-.782A.389.389,0,0,0,22.7,23.9c-.436-.008-.863,0-1.3-.008H17.415a.948.948,0,0,1-.679-.148,2.6,2.6,0,0,1-.017-1.779c.2-.206.461-.165.712-.165,1.66-.008,3.319,0,4.987-.008.671,0,.712-.049.712-.7,0-.247.008-.494,0-.741-.017-.4-.1-.478-.5-.486-.922-.016-1.844,0-2.766-.008H17.39a.916.916,0,0,1-.637-.14A2.783,2.783,0,0,1,16.677,18c.143-.247.394-.231.629-.231,1.173-.008,2.347,0,3.512,0,.637,0,.679-.025.562-.618a4.538,4.538,0,0,0-2.908-3.491c-.31-.124-.645-.181-.947-.321a.272.272,0,0,1-.109-.239c.092-.222.318-.247.5-.329A2.891,2.891,0,0,0,19.36,8.705,2.732,2.732,0,0,0,17.13,7.24a.545.545,0,0,1-.436-.2.9.9,0,0,1-.059-.132,5.063,5.063,0,0,1-.042-1.07.427.427,0,0,0-.486-.478c-2.062-.008-4.132-.008-6.194,0-.335,0-.486.156-.478.478v.535q0,10.572-.008,21.137c0,.3.092.642-.193.889-.134-.107-.067-.255-.067-.387q0-11.252-.008-22.5c0-.329.075-.436.427-.436C11.975,5.115,14.381,5.107,16.778,5.1Z" transform="translate(-7.874 -2.4)"/><path class="c" d="M16.759,17.958v1.7c-.008.016-.017.041-.025.058a.4.4,0,0,1-.335.124c-.377-.016-.469.189-.453.511.017.338.008.675,0,1.021-.008.288.109.436.411.428a.479.479,0,0,1,.377.124c.008.016.017.041.025.058v1.7c-.008.016-.017.041-.025.058a.4.4,0,0,1-.335.124c-.377-.017-.469.189-.453.51.017.338.008.675,0,1.021-.008.288.109.436.411.428a.479.479,0,0,1,.377.124c.008.016.017.041.025.058,0,.642-.008,1.285.008,1.927.008.338-.109.445-.453.445-2.246-.008-4.484-.008-6.731-.008-.126,0-.251.008-.377.016h.008c0-1.589.008-3.178.008-4.776V5.755c0-.593,0-.593.587-.593h6.37c.587,0,.587,0,.587.593,0,.412,0,.823-.008,1.235a.549.549,0,0,1-.461.239,2.791,2.791,0,0,0-2.263,1.787A2.747,2.747,0,0,0,14.58,12a3.027,3.027,0,0,0,1.132.757c.168.066.344.124.419.313a.281.281,0,0,1-.092.239A13.033,13.033,0,0,0,14.345,14a4.547,4.547,0,0,0-2.2,3.285c-.05.4-.017.453.4.453,1.157.008,2.313,0,3.479.008a1.375,1.375,0,0,1,.578.058.353.353,0,0,1,.117.074A.516.516,0,0,0,16.759,17.958Z" transform="translate(-7.867 -2.39)"/><path class="d" d="M16.02,6.89A3.012,3.012,0,0,1,19.1,9.311a3.1,3.1,0,0,1-2.045,3.508c-.117.041-.243.066-.36.1a.109.109,0,0,1-.1.033.419.419,0,0,0,.184.107,4.828,4.828,0,0,1,4.09,4.306c.017.3-.05.42-.394.42-1.492-.016-2.984,0-4.467,0l.008-.025c-.143-.124-.126-.3-.126-.461V7.351a.679.679,0,0,1,.067-.4A.384.384,0,0,1,16.02,6.89Z" transform="translate(-7.119 -2.199)"/><path class="d" d="M15.817,12.913a3.052,3.052,0,0,1,.3-6.027l.369-.049a.119.119,0,0,0,.008.058V6.9a.89.89,0,0,0-.042.445V17.31a.805.805,0,0,1-.042.445c-1.492,0-2.984,0-4.476.016-.293,0-.3-.124-.293-.346a4.821,4.821,0,0,1,4.09-4.364C15.716,12.978,16.018,13.085,15.817,12.913Z" transform="translate(-7.595 -2.203)"/><path class="e" d="M16.019,18.212c2.02,0,4.048.016,6.069,0,.394,0,.5.115.478.486a11.138,11.138,0,0,0,0,1.4c.017.338-.084.445-.436.445-1.936-.016-3.881-.008-5.817-.008-.1,0-.193.008-.293.008l.008-.016a3.261,3.261,0,0,1,0-2.289C16.036,18.229,16.019,18.212,16.019,18.212Z" transform="translate(-7.128 -0.931)"/><path class="e" d="M16.019,21.841c2.02,0,4.048.016,6.069,0,.394,0,.5.115.478.486a11.138,11.138,0,0,0,0,1.4c.017.338-.084.445-.436.445-1.936-.016-3.881-.008-5.817-.008-.1,0-.193.008-.293.008l.008-.016a3.261,3.261,0,0,1,0-2.289C16.036,21.857,16.019,21.841,16.019,21.841Z" transform="translate(-7.128 -0.525)"/><path class="f" d="M16.737,12.442a.4.4,0,0,1-.36-.14h.268C16.67,12.343,16.7,12.393,16.737,12.442Z" transform="translate(-7.065 -1.592)"/><path class="g" d="M12.59,20.526c-.729,0-1.45-.008-2.179,0-.21,0-.293-.049-.293-.272.017-.593.017-1.177,0-1.77-.008-.23.092-.272.293-.272q2.175.012,4.35,0c.226,0,.327.058.319.3q-.025.865,0,1.729c.008.247-.1.3-.319.288C14.04,20.518,13.311,20.526,12.59,20.526Z" transform="translate(-7.765 -0.931)"/><path class="g" d="M12.6,21.848c.729,0,1.45.008,2.179-.008.235-.008.318.066.31.3-.017.576-.008,1.153,0,1.729,0,.214-.059.288-.285.288-1.467-.008-2.925-.008-4.392,0-.218,0-.293-.066-.285-.28.008-.56.017-1.128,0-1.688-.008-.264.067-.354.344-.346C11.175,21.864,11.888,21.848,12.6,21.848Z" transform="translate(-7.764 -0.525)"/><path class="e" d="M16.117,18.229v2.289c-1,.033-1,.033-1-.939,0-.346.008-.683,0-1.029-.008-.247.075-.354.335-.338A5.806,5.806,0,0,0,16.117,18.229Z" transform="translate(-7.206 -0.931)"/><path class="e" d="M16.117,21.857v2.289c-1,.033-1,.033-1-.939,0-.346.008-.683,0-1.029-.008-.247.075-.354.335-.338A5.831,5.831,0,0,0,16.117,21.857Z" transform="translate(-7.206 -0.525)"/><path class="d" d="M15.935,17.746V7.412c0-.173-.05-.362.084-.511q0,5.422.008,10.853A.35.35,0,0,0,15.935,17.746Z" transform="translate(-7.116 -2.196)"/><path class="h" d="M15.4,12.3a.505.505,0,0,1,.327.041.41.41,0,0,1-.411.107C15.354,12.394,15.379,12.353,15.4,12.3Z" transform="translate(-7.183 -1.592)"/></g></g></svg>