<svg xmlns="http://www.w3.org/2000/svg" width="24" height="24" viewBox="0 0 24 24"><defs><style>.a{fill:#fff;stroke:#707070;opacity:0;}.b{fill:#2a5798;}.c{stroke:none;}.d{fill:none;}</style></defs><g transform="translate(12192 -182)"><g class="a" transform="translate(-12192 182)"><rect class="c" width="24" height="24"/><rect class="d" x="0.5" y="0.5" width="23" height="23"/></g><path class="b" d="M22.108,8.082,17,2.978a2.908,2.908,0,0,0-4.657.756L9.771,8.885a.793.793,0,0,1-.451.4L4.914,10.8a1.322,1.322,0,0,0-.5,2.184l3.284,3.284L3,20.965v1.121H4.121l4.7-4.7L12.1,20.674a1.322,1.322,0,0,0,2.185-.5l1.523-4.406a.793.793,0,0,1,.394-.451l5.15-2.575a2.908,2.908,0,0,0,.756-4.657Z" transform="translate(-12192.979 181.894)"/></g></svg>