<svg xmlns="http://www.w3.org/2000/svg" width="23.354" height="23.354" viewBox="0 0 23.354 23.354">
  <g id="location" transform="translate(0 0)">
    <path id="Path_3699" data-name="Path 3699" d="M22.669,10.993h-.753a10.262,10.262,0,0,0-9.556-9.556V.684a.684.684,0,0,0-1.368,0v.753a10.262,10.262,0,0,0-9.556,9.556H.684a.684.684,0,0,0,0,1.368h.753a10.262,10.262,0,0,0,9.556,9.556v.753a.684.684,0,0,0,1.368,0v-.753a10.262,10.262,0,0,0,9.556-9.556h.753a.684.684,0,0,0,0-1.368ZM12.361,20.545v-.7a.684.684,0,1,0-1.368,0v.7a8.909,8.909,0,0,1-8.184-8.184h.7a.684.684,0,1,0,0-1.368h-.7a8.909,8.909,0,0,1,8.184-8.184v.7a.684.684,0,1,0,1.368,0v-.7a8.909,8.909,0,0,1,8.184,8.184h-.7a.684.684,0,0,0,0,1.368h.7A8.909,8.909,0,0,1,12.361,20.545Z" fill="#f6b333"/>
    <ellipse id="Ellipse_114" data-name="Ellipse 114" cx="1" cy="0.5" rx="1" ry="0.5" transform="translate(10.677 9.677)" fill="#f6b333"/>
    <path id="Path_3700" data-name="Path 3700" d="M155.854,121a4.782,4.782,0,0,0-3.832,7.643l3.283,4.4a.684.684,0,0,0,1.1,0l3.283-4.4A4.782,4.782,0,0,0,155.854,121Zm0,6.842a2.053,2.053,0,1,1,2.053-2.053A2.055,2.055,0,0,1,155.854,127.842Z" transform="translate(-144.177 -115.481)" fill="#f6b333"/>
  </g>
</svg>
