<svg xmlns="http://www.w3.org/2000/svg" width="28.461" height="31.623" viewBox="0 0 28.461 31.623"><defs><style>.a{fill:#f6b333;}</style></defs><path class="a" d="M367.365,348.75h22.917a1.1,1.1,0,0,1,.717,1.176q-.013,8.1-.005,16.192v.371H382.5c-.814,0-1.149.334-1.149,1.146q0,4.11,0,8.219v.372H367.876c-.854,0-1.176-.324-1.176-1.182q0-12.527-.008-25.055A1.2,1.2,0,0,1,367.365,348.75Zm17.707,8.561a2.96,2.96,0,0,0-.422-3.891,2.822,2.822,0,0,0-3.535-.206,2.942,2.942,0,0,0-.675,4.094,4.17,4.17,0,0,0-1.908,2.8,15.3,15.3,0,0,0-.1,2.229.937.937,0,0,0,1.058,1.075q1.868,0,3.737,0c.962,0,1.924,0,2.886,0a.868.868,0,0,0,.945-.769,14.867,14.867,0,0,0-.038-2.294A4.22,4.22,0,0,0,385.072,357.311ZM374.93,367.345c1.114,0,2.229,0,3.343,0a.908.908,0,0,0,.993-.922.92.92,0,0,0-1-.917c-.628,0-1.256,0-1.884,0q-2.37,0-4.741,0a.913.913,0,0,0-.99.684.9.9,0,0,0,.909,1.153C372.681,367.351,373.806,367.345,374.93,367.345Zm0,3.942c1.124,0,2.249.008,3.373,0a.91.91,0,0,0,.9-1.246.936.936,0,0,0-1-.59q-3.267,0-6.533,0a1.73,1.73,0,0,0-.272.02.916.916,0,0,0,.216,1.817C372.719,371.291,373.823,371.288,374.927,371.287Zm-1.426-9.719c-.637,0-1.274,0-1.911,0a.92.92,0,1,0,.008,1.837q1.88.009,3.761,0a.92.92,0,1,0-.007-1.837C374.734,361.565,374.118,361.569,373.5,361.569Zm-.03-3.937v-.005c-.627,0-1.254-.006-1.88,0a.918.918,0,1,0-.024,1.833c1.274.014,2.547.008,3.821,0a.89.89,0,0,0,.8-.416.9.9,0,0,0-.715-1.409C374.806,357.61,374.138,357.632,373.471,357.632Zm0-2.122v0c.627,0,1.254.005,1.88,0a.918.918,0,1,0,.029-1.834c-1.274-.013-2.547-.007-3.821,0a.889.889,0,0,0-.766.365.919.919,0,0,0-.09.956.809.809,0,0,0,.766.508C372.14,355.517,372.808,355.509,373.475,355.509Z" transform="translate(-366.692 -348.75)"/><path class="a" d="M415.609,424.457a1.064,1.064,0,0,1-.715-1.177c.017-.293,0-.588,0-.92h.387c3.677,0,7.354-.006,11.031,0a3.1,3.1,0,0,0,2.338-.972q3.745-3.811,7.52-7.592a3.1,3.1,0,0,0,.941-2.307q-.011-7.039,0-14.078V397a12.617,12.617,0,0,1,1.322.01.875.875,0,0,1,.756.869c.007.112,0,.225,0,.337q0,12.5.008,25a1.2,1.2,0,0,1-.673,1.24Z" transform="translate(-410.739 -392.834)"/><path class="a" d="M577.848,588.4l-7.586,7.586V588.4Z" transform="translate(-553.922 -569.113)"/><path class="a" d="M533.933,470.734a2.721,2.721,0,0,1,1.3-2.861,2.534,2.534,0,0,1,2.832.088,2.7,2.7,0,0,1,1.133,2.773Z" transform="translate(-520.399 -457.754)"/><path class="a" d="M554.216,420.619a1.1,1.1,0,0,1-1.109,1.1,1.108,1.108,0,0,1-1.1-1.089,1.093,1.093,0,0,1,1.1-1.116A1.081,1.081,0,0,1,554.216,420.619Z" transform="translate(-536.925 -413.708)"/></svg>