<svg xmlns="http://www.w3.org/2000/svg" width="362.237" height="205.359" viewBox="0 0 362.237 205.359"><defs><style>.a{fill:#e7f3fe;}.b{fill:#f6b333;}.c{fill:#fff;}.d{opacity:0.8;}.e{fill:#9ec8ff;}.f{fill:#f37168;}.g{fill:#cce2ff;}.h{fill:#2a5798;}.i{fill:#9bd6e8;}.j{fill:#3a384d;}.k{fill:#f09959;}.l{fill:#e38540;}.m{fill:#7a4e34;}.n{fill:#d54a41;}.o{fill:#99bbeb;opacity:0.2;}.p{fill:#2e2d3d;}.q{fill:#d5e1e8;}.r{fill:#bdccd4;}.s{fill:#2e5b9a;}.t{fill:#6791c9;}.u{fill:#75a1de;}.v{fill:#c48e28;}.w{fill:#f2e5de;}.x{fill:#303c60;}</style></defs><g transform="translate(-229.12 -126.563)"><path class="a" d="M282.19,228.427c49.987-18.557,100.792-2.151,135.248,33.582s106.77-24.664,145.12,11.012c26.173,24.347,14.185,86.942-21.7,114.054-48.779,36.851-197.123,18.152-229.212,11.881-36.969-7.225-64-29.146-74.978-55.752C210.207,279.1,260.1,236.628,282.19,228.427Z" transform="translate(0 -82.827)"/><g transform="translate(267.022 126.563)"><g transform="translate(104.214 0)"><path class="b" d="M1492.155,171.381a41.457,41.457,0,0,0,.259-4.607c0-.822-.027-1.638-.075-2.448l-7.613-2.463a33.464,33.464,0,0,0-2.7-9.121l5.048-6.212a41.126,41.126,0,0,0-4-5.813l-7.614,2.484a33.833,33.833,0,0,0-7.537-5.794l.433-8a40.733,40.733,0,0,0-6.647-2.356l-4.7,6.488a33.851,33.851,0,0,0-9.5-.249l-4.353-6.728a40.717,40.717,0,0,0-6.762,2l.01,8.011a33.779,33.779,0,0,0-7.833,5.388l-7.47-2.882a41.176,41.176,0,0,0-4.3,5.593l4.714,6.471a33.466,33.466,0,0,0-3.178,8.965l-7.732,2.057a41.461,41.461,0,0,0-.259,4.607c0,.822.027,1.638.075,2.448l7.613,2.463a33.465,33.465,0,0,0,2.7,9.122l-5.048,6.212a41.117,41.117,0,0,0,4,5.813l7.614-2.484a33.827,33.827,0,0,0,7.537,5.794l-.433,8a40.731,40.731,0,0,0,6.647,2.356l4.7-6.488a33.853,33.853,0,0,0,9.5.249l4.353,6.728a40.7,40.7,0,0,0,6.762-2l-.01-8.011a33.773,33.773,0,0,0,7.834-5.388l7.47,2.882a41.193,41.193,0,0,0,4.3-5.593l-4.714-6.471a33.46,33.46,0,0,0,3.178-8.965Zm-40.776,11.488a16.095,16.095,0,1,1,16.095-16.095A16.095,16.095,0,0,1,1451.379,182.868Z" transform="translate(-1410.344 -126.563)"/><g transform="translate(62.386 30.556)"><path class="c" d="M1929.475,408.548a.6.6,0,0,1-.462-.986,27.228,27.228,0,0,0,4.8-26.226.6.6,0,0,1,1.137-.392,28.431,28.431,0,0,1-5.01,27.388A.6.6,0,0,1,1929.475,408.548Z" transform="translate(-1928.874 -380.537)"/></g><g transform="translate(50.49 13.482)"><path class="c" d="M1840.166,245.719a.6.6,0,0,1-.412-.163,27.025,27.025,0,0,0-9.358-5.766.6.6,0,0,1,.41-1.131,28.223,28.223,0,0,1,9.773,6.021.6.6,0,0,1-.413,1.039Z" transform="translate(-1829.999 -238.622)"/></g><g transform="translate(34.191 11.824)"><path class="c" d="M1695.131,226.888a.6.6,0,0,1-.147-1.185,28.5,28.5,0,0,1,6.969-.862.6.6,0,0,1,0,1.2,27.29,27.29,0,0,0-6.674.825A.605.605,0,0,1,1695.131,226.888Z" transform="translate(-1694.53 -224.841)"/></g></g><g transform="translate(0 115.684)"><path class="b" d="M600.819,1119.137a28.719,28.719,0,0,0,.179-3.191c0-.569-.019-1.134-.052-1.7l-5.273-1.706a23.178,23.178,0,0,0-1.867-6.318l3.5-4.3a28.489,28.489,0,0,0-2.77-4.026l-5.274,1.721a23.436,23.436,0,0,0-5.221-4.013l.3-5.541a28.208,28.208,0,0,0-4.6-1.632l-3.257,4.494a23.446,23.446,0,0,0-6.583-.173l-3.015-4.66a28.2,28.2,0,0,0-4.684,1.384l.007,5.549a23.393,23.393,0,0,0-5.426,3.732l-5.174-2a28.54,28.54,0,0,0-2.98,3.874l3.265,4.482a23.181,23.181,0,0,0-2.2,6.21l-5.355,1.425a28.7,28.7,0,0,0-.179,3.191c0,.569.019,1.134.052,1.7l5.273,1.706a23.169,23.169,0,0,0,1.867,6.318l-3.5,4.3a28.489,28.489,0,0,0,2.77,4.026l5.274-1.721a23.431,23.431,0,0,0,5.221,4.013l-.3,5.541a28.2,28.2,0,0,0,4.6,1.632l3.257-4.494a23.446,23.446,0,0,0,6.583.173l3.015,4.66a28.2,28.2,0,0,0,4.684-1.384l-.007-5.549a23.394,23.394,0,0,0,5.426-3.732l5.174,2a28.534,28.534,0,0,0,2.98-3.874l-3.265-4.482a23.177,23.177,0,0,0,2.2-6.21Zm-28.243,7.957a11.148,11.148,0,1,1,11.148-11.148A11.148,11.148,0,0,1,572.576,1127.094Z" transform="translate(-544.153 -1088.095)"/><g transform="translate(43.026 20.98)"><path class="c" d="M902.372,1282.243a.6.6,0,0,1-.462-.986,18.675,18.675,0,0,0,3.29-17.987.6.6,0,1,1,1.138-.392,19.877,19.877,0,0,1-3.5,19.148A.6.6,0,0,1,902.372,1282.243Z" transform="translate(-901.771 -1262.472)"/></g><g transform="translate(34.786 9.153)"><path class="c" d="M840.513,1169.46a.6.6,0,0,1-.412-.163,18.537,18.537,0,0,0-6.418-3.955.6.6,0,1,1,.41-1.131,19.731,19.731,0,0,1,6.833,4.21.6.6,0,0,1-.413,1.039Z" transform="translate(-833.286 -1164.174)"/></g><g transform="translate(23.497 8.005)"><path class="c" d="M740.055,1156.417a.6.6,0,0,1-.147-1.185,19.918,19.918,0,0,1,4.872-.6.6.6,0,0,1,0,1.2,18.72,18.72,0,0,0-4.578.566A.6.6,0,0,1,740.055,1156.417Z" transform="translate(-739.454 -1154.63)"/></g></g><path class="b" d="M2016.278,603.676c0-.311-.009-.62-.026-.927l3.951-3.172a21.039,21.039,0,0,0-1.435-4.539l-5.1-.386a16.97,16.97,0,0,0-4.416-4.686l-.017-5.083a21.06,21.06,0,0,0-4.523-1.745l-3.486,3.752a16.961,16.961,0,0,0-6.269.492l-4-3.167a21.178,21.178,0,0,0-4.229,2.452l.756,5.04a16.912,16.912,0,0,0-3.561,5.2l-4.974,1.153a21.175,21.175,0,0,0-.735,4.794l4.38,2.533a16.772,16.772,0,0,0,1.874,6.19l-2.193,4.594a21.314,21.314,0,0,0,3.223,3.507l4.7-1.84a16.783,16.783,0,0,0,6.193,2.457l2.214,4.559c.264.01.528.016.795.016a21.32,21.32,0,0,0,3.884-.356l1.493-4.828a16.871,16.871,0,0,0,5.828-3.384l4.937,1.109a21.238,21.238,0,0,0,2.63-3.884l-2.862-4.2A16.854,16.854,0,0,0,2016.278,603.676Zm-17.069,7.439A7.111,7.111,0,1,1,2006.32,604,7.111,7.111,0,0,1,1999.209,611.115Z" transform="translate(-1805.679 -528.207)"/></g><g transform="translate(504.207 144.601)"><g class="d" transform="translate(28.759 1.79)"><path class="e" d="M2764.987,306.039h-6.112a4.285,4.285,0,0,1-4.28-4.28v-6.112a4.285,4.285,0,0,1,4.28-4.28h6.112a4.285,4.285,0,0,1,4.28,4.28v6.112A4.285,4.285,0,0,1,2764.987,306.039Zm-6.112-12.988a2.6,2.6,0,0,0-2.6,2.6v6.112a2.6,2.6,0,0,0,2.6,2.6h6.112a2.6,2.6,0,0,0,2.6-2.6v-6.112a2.6,2.6,0,0,0-2.6-2.6Z" transform="translate(-2754.595 -291.367)"/></g><g class="d" transform="translate(0 1.79)"><path class="e" d="M2525.952,306.039h-6.112a4.285,4.285,0,0,1-4.28-4.28v-6.112a4.285,4.285,0,0,1,4.28-4.28h6.112a4.285,4.285,0,0,1,4.28,4.28v6.112A4.285,4.285,0,0,1,2525.952,306.039Zm-6.112-12.988a2.6,2.6,0,0,0-2.6,2.6v6.112a2.6,2.6,0,0,0,2.6,2.6h6.112a2.6,2.6,0,0,0,2.6-2.6v-6.112a2.6,2.6,0,0,0-2.6-2.6Z" transform="translate(-2515.56 -291.367)"/></g><g transform="translate(2.603 0)"><path class="f" d="M2542.312,289.4h-.035a.722.722,0,0,1-.538-.282l-4.393-5.73a.722.722,0,1,1,1.146-.878l3.874,5.053,10.114-10.837a.722.722,0,1,1,1.055.985l-10.7,11.46A.722.722,0,0,1,2542.312,289.4Z" transform="translate(-2537.197 -276.491)"/></g></g><path class="g" d="M746.281,1702.047c-25.022-1.223-110.142.849-136.029,1.657s-55.937-1.066-71.546-3.821-105.836.234-101.741,7.643,40.2,3.314,81.145,6.292,133.029-.372,153.8,0,39.819-.744,66.587-2.233S760.785,1702.756,746.281,1702.047Z" transform="translate(-182.719 -1383.141)"/><g transform="translate(255.503 163.984)"><rect class="h" width="52.305" height="85.731"/><rect class="c" width="47.846" height="80.717" transform="translate(2.739 1.747)"/><g transform="translate(5.512 5.028)"><g transform="translate(11.539 4.956)"><path class="i" d="M590.122,683.746c1.8-3.874,4.849-5.115,9.854-5.115,5.96,0,9.054,2.159,9.931,5.3C599.235,684.079,590.122,683.746,590.122,683.746Z" transform="translate(-590.122 -659.615)"/><path class="j" d="M599.658,520.749c-2.523.708-2.412,2.126-3.253,3.442s-2.668,2.193-2.887,3.07.563,2.7-.365,3.728-1.243,1.535-.877,2.558,1.17,2.631,1.243,2.851a4.1,4.1,0,0,0,2.339,1.974,26.361,26.361,0,0,1,4.751,1.1c1.17.512,4.93-.655,7.017-.582s3.509-1.465,3.362-2.488,1.539-3.07,1.535-4.824c0-1.884-2.193-3.289-2.778-4.532s.073-3.435-2.12-4.734a12.611,12.611,0,0,0-3.436-1.113A8.134,8.134,0,0,0,599.658,520.749Z" transform="translate(-591.885 -520.576)"/><path class="k" d="M657.8,612.408c-.571.842-.989.877-1.608,0a8.01,8.01,0,0,1-1.462-3.086V601.3a1.466,1.466,0,0,1,1.462-1.462H657.8a1.466,1.466,0,0,1,1.462,1.462v8.025A8.121,8.121,0,0,1,657.8,612.408Z" transform="translate(-646.953 -590.299)"/><path class="l" d="M657.8,599.835h-1.608a1.466,1.466,0,0,0-1.462,1.462v7.16c1.806.575,3.454-.568,4.532-1.855v-5.3A1.466,1.466,0,0,0,657.8,599.835Z" transform="translate(-646.953 -590.299)"/><ellipse class="k" cx="4.861" cy="6.623" rx="4.861" ry="6.623" transform="translate(5.178 2.994)"/><path class="j" d="M636.81,537.58c-3.07,5.19-7.6,4.678-7.6,4.678s.11-6.871,3.71-7.237,5.72,1.079,6.451,3.464a5.884,5.884,0,0,1,0,3.956,6.31,6.31,0,0,1-1.754-2.376A17.071,17.071,0,0,1,636.81,537.58Z" transform="translate(-624.505 -533.234)"/><ellipse class="k" cx="1.279" cy="1.919" rx="1.279" ry="1.919" transform="translate(2.541 8.879) rotate(-25.405)"/><path class="k" d="M706.079,590.378c-.455.957-.306,1.979.332,2.282s1.524-.227,1.979-1.184.306-1.979-.332-2.282S706.534,589.421,706.079,590.378Z" transform="translate(-691.896 -580.863)"/><path class="c" d="M662.027,630.368a2.1,2.1,0,0,1-3.655,0Z" transform="translate(-650.161 -617.159)"/></g><path class="h" d="M621.463,787.6H609.187a1.427,1.427,0,0,1,0-2.855h12.276a1.427,1.427,0,0,1,0,2.855Z" transform="translate(-594.099 -748.011)"/><path class="h" d="M607.277,824.057H590.506a1.427,1.427,0,0,1,0-2.855h16.771a1.427,1.427,0,0,1,0,2.855Z" transform="translate(-577.666 -780.077)"/><path class="h" d="M535.84,963.914h-40.8a.828.828,0,1,1,0-1.657h40.8a.828.828,0,0,1,0,1.657Z" transform="translate(-494.217 -904.162)"/><path class="h" d="M535.84,995.91h-40.8a.828.828,0,1,1,0-1.657h40.8a.828.828,0,0,1,0,1.657Z" transform="translate(-494.217 -932.308)"/><path class="h" d="M535.84,1027.906h-40.8a.828.828,0,1,1,0-1.657h40.8a.828.828,0,0,1,0,1.657Z" transform="translate(-494.217 -960.455)"/><g transform="translate(5.055)"><path class="h" d="M567.1,509.426H537.714a1.48,1.48,0,0,1-1.479-1.479V480.866a1.48,1.48,0,0,1,1.479-1.479H567.1a1.48,1.48,0,0,1,1.479,1.479v27.081A1.48,1.48,0,0,1,567.1,509.426ZM537.714,480.59a.279.279,0,0,0-.276.276v27.081a.279.279,0,0,0,.276.276H567.1a.279.279,0,0,0,.276-.276V480.866a.279.279,0,0,0-.276-.276Z" transform="translate(-536.235 -479.387)"/></g><g transform="translate(8.021 47.703)"><path class="h" d="M563.64,875.882l.851,1.724,1.9.276-1.377,1.342.325,1.895-1.7-.894-1.7.894.325-1.895-1.376-1.342,1.9-.276Z" transform="translate(-560.887 -875.882)"/><path class="h" d="M621.554,875.882l.851,1.724,1.9.276-1.376,1.342.325,1.895-1.7-.894-1.7.894.325-1.895-1.376-1.342,1.9-.276Z" transform="translate(-611.833 -875.882)"/><path class="h" d="M679.469,875.882l.851,1.724,1.9.276-1.376,1.342.325,1.895-1.7-.894-1.7.894.325-1.895-1.376-1.342,1.9-.276Z" transform="translate(-662.78 -875.882)"/><path class="h" d="M737.383,875.882l.851,1.724,1.9.276-1.376,1.342.325,1.895-1.7-.894-1.7.894.325-1.895-1.376-1.342,1.9-.276Z" transform="translate(-713.726 -875.882)"/></g></g></g><g transform="translate(372.111 163.984)"><rect class="h" width="52.305" height="85.731"/><rect class="c" width="47.846" height="80.717" transform="translate(2.739 1.747)"/><g transform="translate(5.512 5.028)"><g transform="translate(11.538 5.471)"><path class="m" d="M1578.225,596.877c0,3.84,2.312,10.036,7.766,9.837s6.66-6.1,6.871-7.771S1578.225,596.877,1578.225,596.877Z" transform="translate(-1575.952 -588.212)"/><path class="n" d="M1559.335,683.746c1.8-3.874,4.849-5.115,9.854-5.115,5.959,0,9.054,2.159,9.931,5.3C1568.448,684.079,1559.335,683.746,1559.335,683.746Z" transform="translate(-1559.335 -660.13)"/><path class="k" d="M1627.01,612.408c-.571.842-.989.877-1.608,0a8.008,8.008,0,0,1-1.462-3.086V601.3a1.466,1.466,0,0,1,1.462-1.462h1.608a1.466,1.466,0,0,1,1.462,1.462v8.025A8.123,8.123,0,0,1,1627.01,612.408Z" transform="translate(-1616.167 -590.815)"/><path class="l" d="M1627.01,599.835H1625.4a1.466,1.466,0,0,0-1.462,1.462v7.16c1.806.575,3.454-.568,4.532-1.855v-5.3A1.466,1.466,0,0,0,1627.01,599.835Z" transform="translate(-1616.167 -590.815)"/><ellipse class="k" cx="4.861" cy="6.623" rx="4.861" ry="6.623" transform="translate(5.178 2.478)"/><path class="m" d="M1588.542,528.927c-.578,2.037-1.844,2.013-3.608,2.682s-2.609,1.342-3.186,2.645c-.737,1.662.334,6.506.334,6.506s-4.469-3.344-3.952-8.6,3.618-7.3,6.537-7.3a4.678,4.678,0,0,1,4.028,1.779,4.372,4.372,0,0,1,3.025,1.748c1.976,2.341,1.368,8.026,0,10.063s-2.28,2.676-2.25,2.584,1.277-4.769.608-7.661A18.474,18.474,0,0,0,1588.542,528.927Z" transform="translate(-1575.832 -524.86)"/><path class="c" d="M1631.24,630.368a2.1,2.1,0,0,1-3.655,0Z" transform="translate(-1619.374 -617.674)"/></g><path class="h" d="M1590.677,787.6H1578.4a1.427,1.427,0,1,1,0-2.855h12.276a1.427,1.427,0,0,1,0,2.855Z" transform="translate(-1563.313 -748.011)"/><path class="h" d="M1576.49,824.057h-16.771a1.427,1.427,0,1,1,0-2.855h16.771a1.427,1.427,0,0,1,0,2.855Z" transform="translate(-1546.879 -780.077)"/><path class="h" d="M1505.055,963.914h-40.8a.828.828,0,0,1,0-1.657h40.8a.828.828,0,0,1,0,1.657Z" transform="translate(-1463.431 -904.162)"/><path class="h" d="M1505.055,995.91h-40.8a.828.828,0,0,1,0-1.657h40.8a.828.828,0,0,1,0,1.657Z" transform="translate(-1463.431 -932.308)"/><path class="h" d="M1505.055,1027.906h-40.8a.828.828,0,0,1,0-1.657h40.8a.828.828,0,0,1,0,1.657Z" transform="translate(-1463.431 -960.455)"/><g transform="translate(5.055)"><path class="h" d="M1536.311,509.426h-29.384a1.48,1.48,0,0,1-1.479-1.479V480.866a1.48,1.48,0,0,1,1.479-1.479h29.384a1.481,1.481,0,0,1,1.479,1.479v27.081A1.481,1.481,0,0,1,1536.311,509.426Zm-29.384-28.836a.279.279,0,0,0-.276.276v27.081a.279.279,0,0,0,.276.276h29.384a.279.279,0,0,0,.276-.276V480.866a.279.279,0,0,0-.276-.276Z" transform="translate(-1505.449 -479.387)"/></g><g transform="translate(8.021 47.703)"><path class="h" d="M1532.854,875.882l.851,1.724,1.9.276-1.376,1.342.325,1.895-1.7-.894-1.7.894.325-1.895-1.376-1.342,1.9-.276Z" transform="translate(-1530.101 -875.882)"/><path class="h" d="M1590.768,875.882l.851,1.724,1.9.276-1.377,1.342.325,1.895-1.7-.894-1.7.894.325-1.895-1.376-1.342,1.9-.276Z" transform="translate(-1581.047 -875.882)"/><path class="h" d="M1648.682,875.882l.851,1.724,1.9.276-1.376,1.342.325,1.895-1.7-.894-1.7.894.325-1.895-1.376-1.342,1.9-.276Z" transform="translate(-1631.994 -875.882)"/><path class="h" d="M1706.6,875.882l.851,1.724,1.9.276-1.376,1.342.325,1.895-1.7-.894-1.7.894.325-1.895-1.376-1.342,1.9-.276Z" transform="translate(-1682.94 -875.882)"/></g></g></g><path class="o" d="M862.939,524.8H780.393l5.839-84.555h79.683Z" transform="translate(-484.948 -275.939)"/><g transform="translate(304.116 148.302)"><rect class="h" width="71.441" height="117.096"/><rect class="c" width="65.351" height="110.247" transform="translate(3.741 2.386)"/><g transform="translate(7.529 7.088)"><g transform="translate(14.934 5.094)"><path class="p" d="M1094.8,421.859c-.046-.137-1.19-6.7-1.327-9.258s4.1-2.919,4.1-2.919,3.466-1.87,5.974-.912a10.111,10.111,0,0,1,5.355,4.576c1.14,2.007-1,8.26-1,8.26Z" transform="translate(-1086.941 -408.497)"/><path class="q" d="M1039.168,623.494c-.016-.108.293-2.692.3-2.8.578-5.442,7.286-6.973,13.98-6.973,7.865,0,13.2,1.439,14.052,7.094.025.166.479,2.757.456,2.931C1053.383,623.949,1039.168,623.494,1039.168,623.494Z" transform="translate(-1039.167 -589.033)"/><path class="k" d="M1131.721,523.273c-.779,1.15-1.351,1.2-2.2,0-.672-.953-2.918-3.126-2.918-4.224l.922-10.952a2,2,0,0,1,2-2h2.2a2,2,0,0,1,2,2l.428,10.952C1134.146,520.148,1132.42,522.242,1131.721,523.273Z" transform="translate(-1116.086 -494.358)"/><path class="l" d="M1132.61,506.1h-2.2a2,2,0,0,0-2,2l-.8,9.716c2.466.785,5.8-.811,7.27-2.569l-.279-7.146A2,2,0,0,0,1132.61,506.1Z" transform="translate(-1116.975 -494.358)"/><path class="r" d="M1097.339,618.822l3.521,6.509s1.885-1.55,2.068-1.246a27.854,27.854,0,0,1-.334,4.141,36.106,36.106,0,0,0,4.378-.125c.182-.182-.851-4.168-.426-4.168s1.706,1.155,1.706,1.155l3.932-6.265-.864-.21-6.442,3.466-6.89-3.39Z" transform="translate(-1090.34 -593.333)"/><path class="n" d="M1130.81,638.271l2.615,1.755-.81,4.658,3.527-.2-.881-4.236,2.167-1.979-1.018-.96h-4.582Z" transform="translate(-1119.784 -609.782)"/><path class="q" d="M1104.473,591.624l-3.234,3.078s3.3,5.861,3.478,5.861,2.8-3.231,2.8-3.231l1.674-.029,2.644,2.774,3.073-5.435-3.133-3.321s-2.676,5.169-3.162,5.29-.49.182-.883-.122S1104.473,591.624,1104.473,591.624Z" transform="translate(-1093.77 -569.324)"/><ellipse class="k" cx="6.639" cy="9.047" rx="6.639" ry="9.047" transform="translate(7.897 2.807)"/><path class="k" d="M1084.748,493.183c.621,1.307.418,2.7-.454,3.117s-2.082-.31-2.7-1.618-.418-2.7.454-3.117S1084.127,491.876,1084.748,493.183Z" transform="translate(-1076.171 -481.469)"/><path class="k" d="M1204.407,493.183c-.621,1.307-.418,2.7.454,3.117s2.082-.31,2.7-1.618.418-2.7-.454-3.117S1205.028,491.876,1204.407,493.183Z" transform="translate(-1184.211 -481.469)"/><path class="c" d="M1141.4,537.875s-1.319,2.136-2.946,2.136-2.946-2.136-2.946-2.136Z" transform="translate(-1123.919 -522.309)"/><path class="p" d="M1107.305,428.685c2.736-1.915,3.968-1.6,6.02,1.551s4.515,3.2,4.515,3.2l.319-3.263s-3.057-5.913-7.161-5.138a10.831,10.831,0,0,0-6.437,4.469s-.2,6.924.373,7.16.638-2.235,1.049-2.736-.41-2.873.137-3.968S1107.305,428.685,1107.305,428.685Z" transform="translate(-1096.664 -422.985)"/><path class="p" d="M1200.773,485.439c.955,1.046.593,5.2,1.095,5.153s.684-3.968.547-4.378S1200.773,485.439,1200.773,485.439Z" transform="translate(-1181.33 -476.182)"/></g><path class="h" d="M1045.505,785.308h-30.5a1.95,1.95,0,0,1,0-3.9h30.5a1.95,1.95,0,0,1,0,3.9Z" transform="translate(-1001.266 -731.449)"/><path class="h" d="M1069.459,835.1h-22.907a1.95,1.95,0,0,1,0-3.9h22.907a1.95,1.95,0,1,1,0,3.9Z" transform="translate(-1029.015 -775.247)"/><path class="h" d="M971.888,1026.119h-55.72a1.131,1.131,0,0,1,0-2.263h55.72a1.131,1.131,0,1,1,0,2.263Z" transform="translate(-915.037 -944.727)"/><path class="h" d="M971.888,1069.82h-55.72a1.131,1.131,0,0,1,0-2.262h55.72a1.131,1.131,0,1,1,0,2.262Z" transform="translate(-915.037 -983.171)"/><path class="h" d="M971.888,1113.522h-55.72a1.131,1.131,0,0,1,0-2.263h55.72a1.131,1.131,0,1,1,0,2.263Z" transform="translate(-915.037 -1021.614)"/><g transform="translate(7.125)"><path class="h" d="M1016.189,406.748H976.056a1.8,1.8,0,0,1-1.8-1.8V367.96a1.8,1.8,0,0,1,1.8-1.8h40.134a1.8,1.8,0,0,1,1.8,1.8v36.989A1.8,1.8,0,0,1,1016.189,406.748Zm-40.134-39.385a.6.6,0,0,0-.6.6v36.989a.6.6,0,0,0,.6.6h40.134a.6.6,0,0,0,.6-.6V367.96a.6.6,0,0,0-.6-.6Z" transform="translate(-974.256 -366.16)"/></g><g transform="translate(6.122 64.935)"><path class="h" d="M969.678,905.881l1.162,2.354,2.6.378-1.88,1.833.444,2.588-2.324-1.222-2.324,1.222.444-2.588-1.88-1.833,2.6-.378Z" transform="translate(-965.918 -905.881)"/><path class="h" d="M1048.78,905.881l1.162,2.354,2.6.378-1.88,1.833.444,2.588-2.324-1.222-2.324,1.222.444-2.588-1.88-1.833,2.6-.378Z" transform="translate(-1035.503 -905.881)"/><path class="h" d="M1127.882,905.881l1.162,2.354,2.6.378-1.88,1.833.444,2.588-2.324-1.222-2.324,1.222.444-2.588-1.88-1.833,2.6-.378Z" transform="translate(-1105.088 -905.881)"/><path class="h" d="M1206.984,905.881l1.162,2.354,2.6.378-1.88,1.833.444,2.588-2.324-1.222-2.324,1.222.444-2.588-1.88-1.833,2.6-.378Z" transform="translate(-1174.673 -905.881)"/><path class="h" d="M1287.343,905.881l1.162,2.354,2.6.378-1.88,1.833.444,2.588-2.324-1.222-2.324,1.222.444-2.588-1.88-1.833,2.6-.378Z" transform="translate(-1245.364 -905.881)"/></g></g></g><rect class="s" width="93.669" height="3.49" rx="1.745" transform="translate(397.622 258.144)"/><g transform="translate(434.626 198.504)"><path class="k" d="M2504.65,784.627c1.242,4.379-1.791,8.892-5.133,9.84s-5.727-2.028-6.969-6.407.46-8.7,3.8-9.646S2503.408,780.248,2504.65,784.627Z" transform="translate(-2425.377 -771.766)"/><path class="k" d="M2412.073,1536.709s8.565,13.3,9.722,13.881,4.049.723,2.964,2.892-1.518,10.7-2.531,11.134-9.688,1.446-8.387,0,2.1-.723,2.759-3.326,1.579-7.519.35-8.531-8.748-10.122-8.748-10.122Z" transform="translate(-2351.538 -1438.991)"/><path class="k" d="M1954.647,1584.192s-10.411,17.159-12.339,18.7-8.291,3.856-3.085,4.242,7.712-1.735,10.99-2.7,7.326-1.542,5.784-4.049-.9-7.978,2.423-11.449S1954.647,1584.192,1954.647,1584.192Z" transform="translate(-1937.219 -1480.762)"/><path class="t" d="M2102.876,1253.369s-25.774-.674-35.992,7.712c-5.977,9.062-20.436,35.8-21.56,38.745.771.771,5.109,2.163,7.037,1.97,5.688-6.782,13.206-12.645,16.2-17.965,3.685-6.555,4.82-9.833,10.8-10.411s19.473-2.506,23.522-2.506S2102.876,1253.369,2102.876,1253.369Z" transform="translate(-2032.318 -1189.729)"/><path class="s" d="M2629.775,1479.742h-1.351l-9.688-40.42h2.972Z" transform="translate(-2536.741 -1353.322)"/><path class="s" d="M2374.111,1469.294h1.351l11.117-41.849h-2.972Z" transform="translate(-2321.548 -1342.874)"/><path class="u" d="M2275.2,1238.789l-14.985,2.586s-19.913.183-29.014,1.878c-8.281,1.542-9.5,10.951,0,23.908,5.4,7.36,9.961,13.231,19.293,19.851,2.374-1.743,3.282-2.4,3.938-6.6-.676-.926-2.424-6.722-2.966-7.856-5.162-10.79-12.052-14.714-12.147-15.775,1.157-1.88,30.642,9.8,36.5,2.929C2281.42,1253.155,2275.2,1238.789,2275.2,1238.789Z" transform="translate(-2189.959 -1176.915)"/><path class="b" d="M2511.1,955.581a15.68,15.68,0,0,0-11.725,2.918c-3.285,3.348-7,8.87-6.774,17.978.289,11.568-1.79,12.311.379,15.492,9.046,3.736,24.518,19.786,20.875,2.579-2.638-12.459,5.786-21.746-1.01-35.567C2512.289,957.856,2511.6,956.765,2511.1,955.581Z" transform="translate(-2425.233 -927.63)"/><path class="v" d="M2492.6,1001.96c-.176,6.03-1.027,7.807-.376,9.7,3.688.377,10.434,1.852,12.12,4.212,1.928,2.7,3.856,3.085,2.956,1.092s-3.278-4.82.385-14.525,5.4-16.26,1.8-23.008Z" transform="translate(-2425.237 -948.76)"/><path class="k" d="M2565.166,867.505a47.069,47.069,0,0,1-3.027-12.216l-6.362,1.88s3.615,8.1.145,10.989a33.207,33.207,0,0,0-2.48,2.265A15.68,15.68,0,0,1,2565.166,867.505Z" transform="translate(-2479.302 -839.555)"/><path class="l" d="M2579.479,859.31c-.377-.335-.849-.754-1.344-1.192l-5.189,1.533-.011.028a21.178,21.178,0,0,1,1.621,6.338,18.3,18.3,0,0,0,5.176-5.14C2579.627,860.284,2579.544,859.755,2579.479,859.31Z" transform="translate(-2496.45 -842.043)"/><path class="k" d="M2331.1,970.535c-6.553,2.292-5.826,9.2-11.857,19.376-3.121,5.269-6.02,5.19-6.02,5.19a139.64,139.64,0,0,1-16.173-1.024c-5.544-.678-5.9.973-2.04,2.351,7.777,2.78,15.847,5.773,22.354,5.05s17.636-17.325,18.209-21.647C2336.37,973.855,2334.4,969.38,2331.1,970.535Z" transform="translate(-2249.713 -940.775)"/><g transform="translate(54.981 44.022)"><path class="s" d="M2417.236,1134.07q-.611,0-1.253-.016a62.32,62.32,0,0,1-11.9-1.464c-3.411-.693-5.289-1.075-7.476-.03a1.684,1.684,0,0,1-1.452-3.04c3.2-1.531,5.887-.986,9.6-.232a59.352,59.352,0,0,0,11.309,1.4c5.645.141,9.087-.7,10.831-2.631,1.554-1.724,2.009-4.62,1.431-9.114-.2-1.538-.4-2.818-.57-3.946a27.312,27.312,0,0,1-.415-8.54c.374-3.02,1.374-7.043,3.69-14.843a1.684,1.684,0,0,1,3.229.959c-4.316,14.535-4.1,15.951-3.176,21.909.177,1.149.379,2.451.582,4.031.712,5.542-.009,9.292-2.271,11.8C2427.07,1132.893,2423.29,1134.07,2417.236,1134.07Z" transform="translate(-2394.199 -1090.406)"/></g><path class="h" d="M1955.354,1704.4c-6.908,3.379-10.627,5.315-12.841,5.13-.523-.043-.956-.1-1.32-.154-2.464,1.456-6.4,3.177-1.972,3.5,5.206.385,7.712-1.735,10.99-2.7s7.326-1.542,5.784-4.049A5.268,5.268,0,0,1,1955.354,1704.4Z" transform="translate(-1937.219 -1586.507)"/><path class="h" d="M2462.81,1654.431c-.169,5.47-.921,10.89-4.266,11.913a5.62,5.62,0,0,1-2.41.215c-.526.651-1.168.658-2.03,1.615-1.3,1.446,7.374.434,8.386,0s1.446-8.965,2.531-11.134C2465.912,1655.259,2464.119,1654.843,2462.81,1654.431Z" transform="translate(-2391.8 -1542.55)"/><g transform="translate(11.9 37.661)"><path class="u" d="M2068.63,1060h-21.947a1.685,1.685,0,0,1-1.528-.974l-8.869-19.088a1.684,1.684,0,0,1,3.055-1.419l8.416,18.113h20.872a1.684,1.684,0,0,1,0,3.369Z" transform="translate(-2036.13 -1037.542)"/></g><path class="k" d="M2201.741,1151.873c-4.435-.064-8.833-2.708-11.018-2.322s-9.319,5.334-8.419,5.527,6.555-2.739,6.748-2.783a9.511,9.511,0,0,0,4.435,2.792c3.021.762.021-2.264,9.385.564C2208.96,1157.49,2201.741,1151.873,2201.741,1151.873Z" transform="translate(-2152.749 -1098.38)"/><path class="w" d="M2535.715,913.192l.652,5.25s-5.739.341-8.594,1.948-7.07,6.249-7.07,6.249l3.443-5.927.5-3.792Z" transform="translate(-2450.503 -890.491)"/><path class="w" d="M2380.769,965.842c-4.262-.8-6.234,3.021-9,9.255s-7.481,13.805-8.419,14.782-15.81,0-15.81,0-.45,4.306,0,4.82,3.021.45,3.021.45,1.028.821,1.992,1.471,9.126,1.871,12.918,1.678,7.262-.514,7.777-1.093,10.861-16.517,11.5-22.237S2382.944,966.249,2380.769,965.842Z" transform="translate(-2297.999 -936.714)"/><path class="x" d="M2470.481,727.418c-8.061.386-6.8,12.513-6.8,12.513s2.094.646,6.48-.077a24.2,24.2,0,0,1-.193-4.627,30.3,30.3,0,0,0,1.157,4.338c.927.425,1.976.048,3.76-.383a7.933,7.933,0,0,0,5.275,6.038c1.958.615,4.03,1.35,6.344.193s1.041-12.982-.187-15.36c-1.844-3.57-4.909-6.764-10.211-5.077A39.38,39.38,0,0,0,2470.481,727.418Z" transform="translate(-2400.28 -724.512)"/><path class="x" d="M2637.22,862.031l3.3,4.814s-3.653,9.126,6.971,13.261c8.32,3.238,7.34,8.944,3.58,14.681s2.249,10.749,2.249,10.749.917-6.356,9-7.556c11.022-1.636,14.143-16.434,5.91-23.833-6.812-6.123-8.885-1.052-13.5-6.547s-13.317-1.783-13.317-1.783l-3.19-4.653Z" transform="translate(-2553.001 -844.723)"/><g transform="translate(88.119 18.997)"><path class="x" d="M2700.534,907.743a.293.293,0,0,1-.257-.434c2.771-5.065.51-11.2-.627-12.863-.12-.176-.235-.355-.356-.544-1.118-1.745-2.508-3.915-9.93-5.252a11.813,11.813,0,0,1-4.767-2.509c-3.165-2.323-6.751-4.957-14.545-1.37a.293.293,0,1,1-.245-.532c8.106-3.732,11.842-.99,15.137,1.429a11.39,11.39,0,0,0,4.524,2.4c7.673,1.381,9.14,3.672,10.319,5.512.119.185.231.36.346.529,1.192,1.742,3.561,8.17.658,13.476A.293.293,0,0,1,2700.534,907.743Z" transform="translate(-2669.636 -882.409)"/></g><g transform="translate(73.846 10.775)"><path class="x" d="M2559.618,825.537a11.609,11.609,0,0,1-1.712-.138c-2.82-.422-6.6-2.025-6.9-11.025a.293.293,0,1,1,.586-.019c.122,3.71.858,6.455,2.188,8.158a6.148,6.148,0,0,0,4.214,2.307c2.61.391,4.34-.091,5.142-1.432a.293.293,0,0,1,.5.3C2562.9,824.919,2561.554,825.537,2559.618,825.537Z" transform="translate(-2551.006 -814.072)"/></g></g><path class="s" d="M1711.333,1304.38h2.166l8.425-64.4h-4.765Z" transform="translate(-1303.884 -979.456)"/><path class="s" d="M2244.746,1304.38h-2.166l-8.425-64.4h4.765Z" transform="translate(-1763.804 -979.456)"/><g transform="translate(242.959 304.675)"><rect class="e" width="6.705" height="6.035" rx="3.017" transform="translate(31.088 6.035) rotate(180)"/><rect class="e" width="6.705" height="6.035" rx="3.017" transform="translate(18.896 6.035) rotate(180)"/><rect class="e" width="6.705" height="6.035" rx="3.017" transform="translate(6.705 6.035) rotate(180)"/></g><g transform="translate(585.323 192.999)"><path class="e" d="M3.017,0h.671A3.017,3.017,0,0,1,6.705,3.017v0A3.017,3.017,0,0,1,3.688,6.035H3.017A3.017,3.017,0,0,1,0,3.017v0A3.017,3.017,0,0,1,3.017,0Z" transform="translate(6.035 0) rotate(90)"/><path class="e" d="M3.017,0h.671A3.017,3.017,0,0,1,6.705,3.017v0A3.018,3.018,0,0,1,3.688,6.035h-.67A3.017,3.017,0,0,1,0,3.017v0A3.017,3.017,0,0,1,3.017,0Z" transform="translate(6.035 12.191) rotate(90)"/><path class="e" d="M3.017,0h.671A3.017,3.017,0,0,1,6.705,3.017v0A3.018,3.018,0,0,1,3.688,6.035h-.67A3.017,3.017,0,0,1,0,3.018v0A3.017,3.017,0,0,1,3.017,0Z" transform="translate(6.035 24.383) rotate(90)"/></g></g></svg>