<svg xmlns="http://www.w3.org/2000/svg" width="24" height="21.007" viewBox="0 0 24 21.007">
  <g id="lock" transform="translate(0 -2.993)">
    <path id="Path_4413" data-name="Path 4413" d="M14.25,3H14S3.016,2.984,3,3H2.75A2.748,2.748,0,0,0,0,5.75v12.5A2.748,2.748,0,0,0,2.75,21H13V18.75a3.468,3.468,0,0,1,.23-1.25H3.75a.75.75,0,0,1,0-1.5h9.5a.748.748,0,0,1,.63.35,3.768,3.768,0,0,1,1.12-.9,4.509,4.509,0,0,1,2-3.69V5.75A2.748,2.748,0,0,0,14.25,3Zm-1,10.25H3.75a.75.75,0,0,1,0-1.5h9.5a.75.75,0,0,1,0,1.5Zm0-4.25H3.75a.75.75,0,0,1,0-1.5h9.5a.75.75,0,0,1,0,1.5Z" fill="#fff"/>
    <path id="Path_4414" data-name="Path 4414" d="M21.25,18.5h-3.5a.75.75,0,0,1-.75-.75V15.5a2.5,2.5,0,0,1,5,0v2.25A.75.75,0,0,1,21.25,18.5ZM18.5,17h2V15.5a1,1,0,0,0-2,0Z" fill="#fff"/>
    <path id="Path_4415" data-name="Path 4415" d="M22.25,24h-5.5A1.752,1.752,0,0,1,15,22.25v-3.5A1.752,1.752,0,0,1,16.75,17h5.5A1.752,1.752,0,0,1,24,18.75v3.5A1.752,1.752,0,0,1,22.25,24Z" fill="#fff"/>
  </g>
</svg>
