<svg xmlns="http://www.w3.org/2000/svg" width="50.513" height="50.513" viewBox="0 0 50.513 50.513"><defs><style>.a{fill:#e7f1fd;}.b{opacity:0.2;}.c{fill:#199b4d;}.d{fill:#fff;}.e,.f{stroke:none;}.f{fill:#d1e5ff;}</style></defs><g transform="translate(-1.846 -1.846)"><g class="a" transform="translate(1.846 1.846)"><path class="e" d="M 25.25634002685547 50.01268005371094 C 11.60564994812012 50.01268005371094 0.5 38.90702819824219 0.5 25.25634002685547 C 0.5 11.60564994812012 11.60564994812012 0.5 25.25634002685547 0.5 C 38.90702819824219 0.5 50.01268005371094 11.60564994812012 50.01268005371094 25.25634002685547 C 50.01268005371094 38.90702819824219 38.90702819824219 50.01268005371094 25.25634002685547 50.01268005371094 Z"/><path class="f" d="M 25.25634002685547 1 C 11.88135147094727 1 1 11.88135147094727 1 25.25634002685547 C 1 38.63133239746094 11.88135147094727 49.51268005371094 25.25634002685547 49.51268005371094 C 38.63133239746094 49.51268005371094 49.51268005371094 38.63133239746094 49.51268005371094 25.25634002685547 C 49.51268005371094 11.88135147094727 38.63133239746094 1 25.25634002685547 1 M 25.25634002685547 0 C 39.1815185546875 0 50.51268005371094 11.33129119873047 50.51268005371094 25.25634002685547 C 50.51268005371094 39.18138885498047 39.18138885498047 50.51268005371094 25.25634002685547 50.51268005371094 C 11.33129119873047 50.51268005371094 0 39.18138885498047 0 25.25634002685547 C 0 11.33129119873047 11.33129119873047 0 25.25634002685547 0 Z"/></g><g class="b" transform="translate(9.691 9.691)"><path class="c" d="M17.412,0A17.412,17.412,0,1,0,34.823,17.412,17.432,17.432,0,0,0,17.412,0Z"/><path class="d" d="M15.08.407l-8.646,9.1-4.119-4.7a1.264,1.264,0,0,0-1.9-.05,1.609,1.609,0,0,0-.045,2.1l5.07,5.751a1.319,1.319,0,0,0,.951.45,1.473,1.473,0,0,0,.951-.4l9.642-10.1a1.557,1.557,0,0,0,.045-2.1A1.315,1.315,0,0,0,15.08.407Z" transform="translate(8.706 10.882)"/></g></g></svg>