<svg xmlns="http://www.w3.org/2000/svg" width="21.472" height="28.183" viewBox="0 0 21.472 28.183"><defs><style>.a{fill:#fff;}</style></defs><path class="a" d="M77.832,0H61.815a2.729,2.729,0,0,0-2.726,2.726c0,20.273-.022,19.049.047,19.257a.914.914,0,0,0,.218.354c.057.057,5.576,5.583,5.657,5.645.359.277-.193.189,12.821.189a2.729,2.729,0,0,0,2.726-2.726V2.726A2.729,2.729,0,0,0,77.832,0ZM64.655,25.068,62.192,22.6h2.463Zm14.085.376a.91.91,0,0,1-.909.909H66.473V21.7a.909.909,0,0,0-.909-.909H60.907V2.726a.91.91,0,0,1,.909-.909H77.832a.91.91,0,0,1,.909.909Zm-2.9-7.1a.909.909,0,0,1-.909.909H64.655a.909.909,0,1,1,0-1.817h10.28A.909.909,0,0,1,75.844,18.345Zm0,4.657a.909.909,0,0,1-.909.909h-5.85a.909.909,0,1,1,0-1.817h5.85A.909.909,0,0,1,75.844,23ZM69.786,9.546a3.059,3.059,0,1,0-3.059-3.059A3.062,3.062,0,0,0,69.786,9.546Zm0-4.3a1.241,1.241,0,1,1-1.241,1.241,1.243,1.243,0,0,1,1.241-1.241ZM65.185,14V12.751a2,2,0,0,1,1.181-1.821l1.441-.644c.242-.108.072-.079,3.567-.079.255,0,.247.024,1.812.722a2,2,0,0,1,1.181,1.821V14a.909.909,0,1,1-1.817,0V12.751a.177.177,0,0,0-.1-.161l-1.264-.565H68.371l-1.264.565a.177.177,0,0,0-.1.161V14a.909.909,0,1,1-1.817,0Z" transform="translate(-59.086)"/></svg>