<svg xmlns="http://www.w3.org/2000/svg" width="42" height="42" viewBox="0 0 42 42"><defs><style>.a{fill:#2a5798;}</style></defs><g transform="translate(-2.4 -2.4)"><g transform="translate(2.4 2.4)"><path class="a" d="M0,10.5A1.313,1.313,0,0,1,1.313,9.188H9.188V1.313a1.313,1.313,0,1,1,2.625,0V9.188h7.875a1.313,1.313,0,1,1,0,2.625H11.813v7.875a1.313,1.313,0,1,1-2.625,0V11.813H1.313A1.313,1.313,0,0,1,0,10.5Z" transform="translate(10.5 10.5)"/><path class="a" d="M21,42A21,21,0,1,0,6.151,35.85,21,21,0,0,0,21,42Zm0-2.625a18.375,18.375,0,1,1,12.993-5.382A18.375,18.375,0,0,1,21,39.375Z"/></g></g></svg>