<svg xmlns="http://www.w3.org/2000/svg" width="50.03" height="50.03" viewBox="0 0 50.03 50.03"><defs><style>.a{fill:#e7f1fd;}.b{fill:#199b4d;}.c{fill:#fff;}.d,.e{stroke:none;}.e{fill:#d1e5ff;}</style></defs><g transform="translate(-1.846 -1.846)"><g class="a" transform="translate(1.846 1.846)"><path class="d" d="M 25.01512908935547 49.53025817871094 C 11.49743938446045 49.53025817871094 0.499999076128006 38.53281784057617 0.499999076128006 25.01512908935547 C 0.499999076128006 11.49743938446045 11.49743938446045 0.499999076128006 25.01512908935547 0.499999076128006 C 38.53281784057617 0.499999076128006 49.53025817871094 11.49743938446045 49.53025817871094 25.01512908935547 C 49.53025817871094 38.53281784057617 38.53281784057617 49.53025817871094 25.01512908935547 49.53025817871094 Z"/><path class="e" d="M 25.01512908935547 1 C 11.77313995361328 1 1 11.77313995361328 1 25.01512908935547 C 1 38.25711822509766 11.77313995361328 49.03025817871094 25.01512908935547 49.03025817871094 C 38.25711822509766 49.03025817871094 49.03025817871094 38.25711822509766 49.03025817871094 25.01512908935547 C 49.03025817871094 11.77313995361328 38.25711822509766 1 25.01512908935547 1 M 25.01512908935547 0 C 38.80731964111328 0 50.03025817871094 11.22306823730469 50.03025817871094 25.01512908935547 C 50.03025817871094 38.80718994140625 38.80718994140625 50.03025817871094 25.01512908935547 50.03025817871094 C 11.22306823730469 50.03025817871094 0 38.80718994140625 0 25.01512908935547 C 0 11.22306823730469 11.22306823730469 0 25.01512908935547 0 Z"/></g><g transform="translate(9.616 9.616)"><path class="b" d="M17.245,0A17.245,17.245,0,1,0,34.491,17.245,17.266,17.266,0,0,0,17.245,0Z"/><path class="c" d="M14.936.4,6.372,9.417,2.292,4.761A1.252,1.252,0,0,0,.409,4.712a1.594,1.594,0,0,0-.045,2.08l5.021,5.7a1.306,1.306,0,0,0,.941.446,1.459,1.459,0,0,0,.941-.4l9.55-10.005a1.542,1.542,0,0,0,.045-2.08A1.3,1.3,0,0,0,14.936.4Z" transform="translate(8.623 10.778)"/></g></g></svg>