<svg xmlns="http://www.w3.org/2000/svg" width="18.313" height="20.201" viewBox="0 0 18.313 20.201"><defs><style>.a{fill:#fff;}</style></defs><g transform="translate(-366.692 -348.75)"><path class="a" d="M367.129,348.75H382a.705.705,0,0,1,.466.757q-.009,5.206,0,10.413v.238h-5.514c-.529,0-.746.215-.746.737q0,2.643,0,5.285v.239h-8.745c-.554,0-.763-.208-.763-.76q0-8.056-.005-16.112A.772.772,0,0,1,367.129,348.75Zm11.493,5.506a1.891,1.891,0,0,0-.274-2.5,1.852,1.852,0,0,0-3.012.876,1.826,1.826,0,0,0,.279,1.624,2.681,2.681,0,0,0-1.238,1.8,9.75,9.75,0,0,0-.067,1.433.605.605,0,0,0,.687.691h2.425c.624,0,1.249,0,1.873,0a.562.562,0,0,0,.613-.495,9.472,9.472,0,0,0-.025-1.475A2.712,2.712,0,0,0,378.622,354.256Zm-6.583,6.452c.723,0,1.447,0,2.17,0a.587.587,0,0,0,.645-.593.6.6,0,0,0-.651-.59c-.408,0-.815,0-1.223,0q-1.538,0-3.077,0a.592.592,0,0,0-.643.44.582.582,0,0,0,.59.741C370.579,360.712,371.309,360.708,372.039,360.708Zm0,2.535c.73,0,1.46.005,2.189,0a.586.586,0,0,0,.587-.8.608.608,0,0,0-.65-.379q-2.12,0-4.241,0a1.143,1.143,0,0,0-.177.013.589.589,0,0,0,.14,1.169C370.6,363.246,371.32,363.243,372.037,363.243Zm-.926-6.25c-.413,0-.827,0-1.24,0a.592.592,0,1,0,0,1.182q1.22.006,2.441,0a.592.592,0,1,0,0-1.182C371.912,356.991,371.512,356.993,371.111,356.993Zm-.019-2.532v0c-.407,0-.814,0-1.22,0a.59.59,0,1,0-.015,1.179c.827.009,1.653.005,2.48,0a.588.588,0,0,0,.055-1.174C371.959,354.448,371.525,354.462,371.092,354.462Zm0-1.365v0c.407,0,.814,0,1.22,0a.591.591,0,1,0,.019-1.179c-.827-.008-1.653,0-2.48,0a.578.578,0,0,0-.5.235.587.587,0,0,0-.059.615.525.525,0,0,0,.5.327C370.228,353.1,370.661,353.1,371.094,353.1Z"/><path class="a" d="M415.357,414.654a.683.683,0,0,1-.464-.757c.011-.189,0-.378,0-.592h.251c2.387,0,4.773,0,7.16,0a2.022,2.022,0,0,0,1.517-.625q2.431-2.451,4.881-4.882a1.985,1.985,0,0,0,.611-1.483q-.007-4.527,0-9.054V397a8.261,8.261,0,0,1,.858.006.564.564,0,0,1,.491.559c0,.072,0,.145,0,.217q0,8.038.005,16.075a.771.771,0,0,1-.437.8Z" transform="translate(-45.664 -45.702)"/><path class="a" d="M574.894,588.4l-4.632,4.632V588.4Z" transform="translate(-192.861 -227.041)"/><path class="a" d="M533.924,469.468a1.662,1.662,0,0,1,.794-1.747,1.547,1.547,0,0,1,1.729.054,1.649,1.649,0,0,1,.692,1.693Z" transform="translate(-158.422 -112.487)"/><path class="a" d="M553.357,420.189a.669.669,0,0,1-.677.673.676.676,0,0,1-.669-.665.668.668,0,0,1,.671-.682A.66.66,0,0,1,553.357,420.189Z" transform="translate(-175.57 -67.044)"/></g></svg>