<svg xmlns="http://www.w3.org/2000/svg" width="16" height="12" viewBox="0 0 16 12"><defs><style>.a{fill:#2a5798;}</style></defs><g transform="translate(-348.75 -394.441)"><path class="a" d="M364.75,395.643v9.6a.236.236,0,0,0-.02.041,1.4,1.4,0,0,1-1.515,1.158H352.659c-.833,0-1.666,0-2.5,0a1.406,1.406,0,0,1-1.339-.949c-.028-.082-.048-.166-.071-.249v-9.6a.275.275,0,0,0,.019-.041,1.409,1.409,0,0,1,1.547-1.159h10.15c.958,0,1.916-.007,2.873,0a1.358,1.358,0,0,1,1.285.82A2.926,2.926,0,0,1,364.75,395.643Zm-14.125,4.8a4.219,4.219,0,1,0,4.22-4.156A4.206,4.206,0,0,0,350.625,400.446Zm10.824-3.234c-.317,0-.634,0-.951,0a.462.462,0,1,0,0,.922q.936,0,1.871,0a.463.463,0,1,0,0-.922C362.062,397.211,361.756,397.212,361.449,397.212Zm-.01,2.768c.307,0,.613,0,.92,0a.464.464,0,1,0,0-.922q-.928,0-1.856,0a.463.463,0,1,0,0,.922C360.816,399.982,361.127,399.98,361.439,399.98Zm0,1.846c.317,0,.634,0,.951,0a.461.461,0,1,0,0-.921q-.943,0-1.887,0a.462.462,0,1,0,0,.922C360.812,401.828,361.124,401.826,361.436,401.826Zm0,1.846c.307,0,.613,0,.92,0a.465.465,0,1,0,0-.922q-.92,0-1.84,0a.464.464,0,1,0,0,.922C360.819,403.673,361.125,403.672,361.432,403.672Z" transform="translate(0 0)"/><path class="a" d="M422.473,467.315a3.473,3.473,0,0,0-1.333-1.13,1.941,1.941,0,0,0,.452-1.712,1.906,1.906,0,0,0-.754-1.157,1.95,1.95,0,0,0-2.606,2.871,3.477,3.477,0,0,0-1.323,1.119,3.343,3.343,0,0,1,.274-4.245,3.4,3.4,0,0,1,5.291,4.255Z" transform="translate(-64.79 -64.864)"/><path class="a" d="M450.821,575.806a3.3,3.3,0,0,1-4.2-.005,2.449,2.449,0,0,1,4.2.005Z" transform="translate(-93.85 -172.861)"/><path class="a" d="M474.459,507.988a.975.975,0,1,1-.967-.978A.978.978,0,0,1,474.459,507.988Z" transform="translate(-118.631 -108)"/></g></svg>