<svg xmlns="http://www.w3.org/2000/svg" width="17.379" height="20.833" viewBox="0 0 17.379 20.833"><defs><style>.a{fill:#2a5798;}</style></defs><path class="a" d="M536.725,535.445a5.01,5.01,0,0,0,2.31-.75,8.932,8.932,0,0,0,.766-.5,1.789,1.789,0,0,1,1.464-.293,3.9,3.9,0,0,1,2.918,2.16,8.836,8.836,0,0,1,.881,2.914,13.919,13.919,0,0,1,.126,2.29,3.34,3.34,0,0,1-2.747,3.288,1.387,1.387,0,0,0-.429.081h-.081a.22.22,0,0,0-.2,0h-5.373a.431.431,0,0,1-.066-.311q0-4.263,0-8.525c0-.335,0-.335.334-.342A.25.25,0,0,0,536.725,535.445Z" transform="translate(-527.815 -523.803)"/><path class="a" d="M378.6,535.389c-.011.007-.022.019-.034.021-.332.059-.332.058-.332.408q0,4.381,0,8.762h-5.413c-.273-.095-.562-.119-.837-.21a3.252,3.252,0,0,1-2.255-2.836,11.066,11.066,0,0,1,.663-4.848,4.339,4.339,0,0,1,1.99-2.431,4.146,4.146,0,0,1,1.837-.451,1.109,1.109,0,0,1,.63.2c.331.211.66.427.995.633a4.883,4.883,0,0,0,2.272.745C378.279,535.4,378.442,535.388,378.6,535.389Z" transform="translate(-369.694 -523.748)"/><path class="a" d="M643.2,744.754a.137.137,0,0,1,.2,0Z" transform="translate(-629.285 -723.921)"/><path class="a" d="M536.317,336.132a4.817,4.817,0,0,1,3.807,1.723,4.567,4.567,0,0,1,1.127,2.259,5.057,5.057,0,0,1-3.9,5.954,2.784,2.784,0,0,1-.663.073c-.419.055-.438.041-.438-.362q0-4.649,0-9.3C536.25,336.362,536.224,336.234,536.317,336.132Z" transform="translate(-527.773 -336.131)"/><path class="a" d="M444.242,336.123q0,4.9,0,9.809c0,.147.033.219.191.2a1.16,1.16,0,0,1,.183,0,2.523,2.523,0,0,1-.965-.019,4.572,4.572,0,0,1-2.446-1,4.943,4.943,0,0,1-1.935-3.437,5.022,5.022,0,0,1,2.983-5.153A4.577,4.577,0,0,1,444.242,336.123Z" transform="translate(-435.698 -336.122)"/></svg>