<svg xmlns="http://www.w3.org/2000/svg" width="125.603" height="110.867" viewBox="0 0 125.603 110.867"><defs><style>.a{opacity:0.1;}.b{fill:#fff;}</style></defs><g class="a" transform="translate(0.001 -57.197)"><path class="b" d="M603.713,57.2H564.552a6.443,6.443,0,0,0-6.441,6.441V102.8a6.443,6.443,0,0,0,6.441,6.441H583.3q-.367,15.381-7.137,24.63-5.333,7.3-16.141,12.083a6.432,6.432,0,0,0-3.195,8.644l4.637,9.79a6.44,6.44,0,0,0,8.386,3.143,71.611,71.611,0,0,0,21.6-14.015,54.38,54.38,0,0,0,14.724-23.432q3.981-13.062,3.981-35.657V63.638A6.443,6.443,0,0,0,603.713,57.2Z" transform="translate(-484.552)"/><path class="b" d="M13.658,167.5a72.818,72.818,0,0,0,21.5-13.99,54.091,54.091,0,0,0,14.814-23.342q3.98-12.966,3.98-35.747V63.638A6.443,6.443,0,0,0,47.512,57.2H8.351A6.443,6.443,0,0,0,1.91,63.638V102.8a6.443,6.443,0,0,0,6.441,6.441H27.094q-.367,15.381-7.137,24.63-5.333,7.3-16.141,12.083A6.432,6.432,0,0,0,.622,154.6l4.625,9.764A6.459,6.459,0,0,0,13.658,167.5Z" transform="translate(0 0)"/></g></svg>