<svg xmlns="http://www.w3.org/2000/svg" width="16" height="16" viewBox="0 0 16 16"><defs><style>.a{fill:#1c1b1b;}</style></defs><g transform="translate(-285 -285)"><path class="a" d="M285,287.344c.036-.013.034-.05.046-.076a.62.62,0,0,1,.6-.389q1.2,0,2.406,0a.618.618,0,0,1,.652.632q.012,1.226,0,2.453a.623.623,0,1,1-1.246-.023c0-.249,0-.5,0-.788-.054.074-.088.116-.117.161a6.749,6.749,0,0,0,10.062,8.788,6.289,6.289,0,0,0,2.263-4.1,6.584,6.584,0,0,0-2.206-6.057,6.718,6.718,0,0,0-4.4-1.693.626.626,0,0,1-.211-1.232.11.11,0,0,0,.025-.018h.563a.041.041,0,0,0,.063,0h.125a8.007,8.007,0,0,1,6.542,4.348,7.742,7.742,0,0,1,.8,2.549c.019.148.008.3.036.446v.094c-.019.017-.015.04-.016.063s0,.045.016.063v.531a.32.32,0,0,0,0,.219v.156a.04.04,0,0,0,0,.063v.125a8.492,8.492,0,0,1-.141,1.061,8.049,8.049,0,0,1-1.671,3.415,7.987,7.987,0,0,1-5.055,2.827c-.158.021-.32.008-.477.041h-.094a.041.041,0,0,0-.062,0h-.125a.169.169,0,0,0-.156,0h-.437a.239.239,0,0,0-.188,0H292.5a.041.041,0,0,0-.062,0h-.125a9.606,9.606,0,0,1-1-.135,8.093,8.093,0,0,1-5.488-4.227,7.764,7.764,0,0,1-.789-2.536c-.019-.148-.008-.3-.036-.446v-.125c.019-.017.015-.04.016-.063s0-.045-.016-.062v-.594a.239.239,0,0,0,0-.187v-.094a.071.071,0,0,0,0-.094v-.125c.043-.307.052-.618.116-.924a8.1,8.1,0,0,1,1.331-3.054.4.4,0,0,0,.027-.038c.019-.034.068-.062.039-.108s-.067-.021-.1-.021c-.26,0-.52,0-.781,0a.688.688,0,0,1-.444-.165.552.552,0,0,1-.187-.347Z" transform="translate(0 0)"/><path class="a" d="M795.851,544.214a.176.176,0,0,1,0-.214Z" transform="translate(-494.851 -250.904)"/><path class="a" d="M285,529a.137.137,0,0,1,0,.183Z" transform="translate(0 -236.373)"/><path class="a" d="M528,795.9a.139.139,0,0,1,.183,0Z" transform="translate(-235.404 -494.9)"/><path class="a" d="M548,795.949a.1.1,0,0,1,.153,0Z" transform="translate(-254.779 -494.949)"/><path class="a" d="M285,523c.046.031.038.061,0,.092Z" transform="translate(0 -230.562)"/><path class="a" d="M555.061,285c-.02.038-.041.033-.061,0Z" transform="translate(-261.562)"/><path class="a" d="M796.091,523.06c0-.025-.007-.05.026-.06v.061C796.108,523.075,796.1,523.075,796.091,523.06Z" transform="translate(-495.117 -230.562)"/><path class="a" d="M796.089,524.956h.026v.061C796.087,525.006,796.085,524.982,796.089,524.956Z" transform="translate(-495.115 -232.457)"/><path class="a" d="M285,554a.051.051,0,0,1,.026.062c-.009.013-.018.012-.026,0Z" transform="translate(0 -260.593)"/><path class="a" d="M285,556h.026c0,.025,0,.05-.026.06Z" transform="translate(0 -262.53)"/><path class="a" d="M796.127,556.061c-.039-.02-.034-.041,0-.061Z" transform="translate(-495.127 -262.53)"/><path class="a" d="M523,796.105c.02-.04.041-.035.061,0Z" transform="translate(-230.562 -495.105)"/><path class="a" d="M557,796.105c.02-.035.041-.04.061,0Z" transform="translate(-263.499 -495.105)"/><path class="a" d="M520.986,366.73c0-.8,0-1.6,0-2.395a.6.6,0,0,1,.412-.581.61.61,0,0,1,.673.194.675.675,0,0,1,.136.442q0,1.96,0,3.921c0,.212,0,.212.219.212q1.381,0,2.761,0a.584.584,0,0,1,.561.351.578.578,0,0,1-.069.632.572.572,0,0,1-.474.237q-1.808,0-3.615,0a.6.6,0,0,1-.6-.631C520.984,368.316,520.986,367.523,520.986,366.73Z" transform="translate(-228.534 -76.225)"/></g></svg>