<svg xmlns="http://www.w3.org/2000/svg" width="25.384" height="24.281" viewBox="0 0 25.384 24.281"><defs><style>.a{fill:#fff;}</style></defs><g transform="translate(0 -0.333)"><path class="a" d="M16.831,220.655h-16a.828.828,0,0,1,0-1.655h16a.828.828,0,1,1,0,1.655Zm0,0" transform="translate(0 -207.355)"/><path class="a" d="M224.831,144.116a.828.828,0,0,1-.585-1.414l3.83-3.83-3.83-3.83a.828.828,0,0,1,1.171-1.171l4.415,4.415a.828.828,0,0,1,0,1.171l-4.415,4.415A.821.821,0,0,1,224.831,144.116Zm0,0" transform="translate(-212.415 -126.4)"/><path class="a" d="M47.829,24.613a12.077,12.077,0,0,1-11.3-7.7.828.828,0,1,1,1.541-.6,10.485,10.485,0,1,0,0-7.673.828.828,0,1,1-1.541-.6,12.14,12.14,0,1,1,11.3,16.581Zm0,0" transform="translate(-34.585 0)"/></g></svg>