<svg xmlns="http://www.w3.org/2000/svg" width="20.704" height="18.203" viewBox="0 0 20.704 18.203"><defs><style>.a{fill:#fff;}</style></defs><g transform="translate(-348.75 -372.005)"><path class="a" d="M348.75,471.174c.137-.162.264-.333.411-.486a10.982,10.982,0,0,0,2.254-3.586,14.113,14.113,0,0,0,.979-4.64c0-.066.011-.132.018-.211h17.029c-.038.479-.062.948-.115,1.414a14.549,14.549,0,0,1-1.815,5.69,10.693,10.693,0,0,1-1.758,2.308.936.936,0,0,1-.7.284q-7.753-.008-15.506,0a.767.767,0,0,1-.795-.45Z" transform="translate(0 -85.38)"/><path class="a" d="M434.019,579.915a.777.777,0,0,1-.814.45q-7.723-.012-15.445-.005c-.555,0-.765-.211-.765-.77s0-1.089,0-1.656h.252q6.186,0,12.372,0a2.085,2.085,0,0,0,1.528-.61,12.681,12.681,0,0,0,2.707-3.986c.052-.115.11-.227.165-.341Z" transform="translate(-64.565 -190.158)"/><path class="a" d="M434.006,375.644H417a1.365,1.365,0,0,1-.016-.143c0-.546,0-1.091,0-1.637a.6.6,0,0,1,.644-.645c.916,0,1.833,0,2.749,0h.246c0-.2,0-.384,0-.57a.607.607,0,1,1,1.212,0c0,.181,0,.362,0,.556h3.033c0-.189,0-.376,0-.562a.607.607,0,1,1,1.212-.008c0,.187,0,.374,0,.573h3.074c0-.18,0-.365,0-.551a.608.608,0,1,1,1.212,0c0,.175,0,.35,0,.558h.218c.876,0,1.752.012,2.628-.006a.748.748,0,0,1,.794.451Z" transform="translate(-64.552)"/></g></svg>