<svg xmlns="http://www.w3.org/2000/svg" width="24" height="24" viewBox="0 0 24 24"><defs><style>.a{fill:#fff;stroke:#707070;opacity:0;}.b{fill:#e21e1e;}.c{fill:#df1e1f;}.d{stroke:none;}.e{fill:none;}</style></defs><g class="a"><rect class="d" width="24" height="24"/><rect class="e" x="0.5" y="0.5" width="23" height="23"/></g><g transform="translate(1.752 1.751)"><path class="b" d="M285,295.89v-1.281c.048-.355.085-.713.145-1.066a10.276,10.276,0,0,1,8.338-8.385c.373-.066.75-.106,1.125-.157h1.281c.349.046.7.079,1.047.139a10.286,10.286,0,0,1,8.4,8.345c.066.373.106.75.157,1.125v1.281c-.031.25-.058.5-.094.751a10.288,10.288,0,0,1-8.371,8.7c-.379.069-.762.107-1.144.159h-1.281c-.25-.031-.5-.058-.75-.093a10.289,10.289,0,0,1-8.7-8.37C285.091,296.656,285.052,296.271,285,295.89Zm19.03-.643a8.782,8.782,0,1,0-8.779,8.783A8.784,8.784,0,0,0,304.03,295.247Z" transform="translate(-285 -285)"/><path class="c" d="M435.648,434.633a1.981,1.981,0,0,1,.157-.214q1.477-1.481,2.957-2.959a.731.731,0,0,1,1.258.414.76.76,0,0,1-.263.66q-1.461,1.455-2.918,2.914a1.867,1.867,0,0,1-.186.143c.078.083.125.136.175.187q1.465,1.465,2.931,2.929a.756.756,0,0,1,.261.661.731.731,0,0,1-1.26.41L435.8,436.82c-.051-.051-.1-.1-.165-.158-.059.056-.113.1-.164.155q-1.465,1.465-2.93,2.93a.742.742,0,0,1-.721.245.726.726,0,0,1-.4-1.192c.043-.05.092-.1.14-.143l2.873-2.874c.051-.051.1-.1.155-.164-.058-.061-.106-.114-.157-.165q-1.472-1.472-2.945-2.944a.719.719,0,0,1-.209-.784.7.7,0,0,1,.6-.492.754.754,0,0,1,.661.259q1.441,1.447,2.886,2.889C435.492,434.445,435.545,434.514,435.648,434.633Z" transform="translate(-425.385 -425.371)"/></g></svg>