<svg xmlns="http://www.w3.org/2000/svg" width="40" height="40" viewBox="0 0 40 40"><defs><style>.a{fill:#f44336;}.b{fill:#fff;}</style></defs><path class="a" d="M20,0A20,20,0,1,0,40,20,20.022,20.022,0,0,0,20,0Zm0,0"/><path class="b" d="M170.8,168.428a1.679,1.679,0,1,1-2.374,2.374l-5.045-5.046-5.045,5.046a1.679,1.679,0,0,1-2.374-2.374l5.045-5.045-5.045-5.045a1.679,1.679,0,1,1,2.374-2.374l5.045,5.045,5.045-5.045a1.679,1.679,0,0,1,2.374,2.374l-5.045,5.045Zm0,0" transform="translate(-143.383 -143.383)"/></svg>