<svg xmlns="http://www.w3.org/2000/svg" width="16.905" height="19.89" viewBox="0 0 16.905 19.89"><defs><style>.a{fill:#fff;}</style></defs><path class="a" d="M428.76,678.33c.6-.349,1.147-.672,1.7-.99a1.066,1.066,0,0,0,.538-.669,1.011,1.011,0,0,0-.361-1.109.991.991,0,0,0-1.174-.095c-.6.332-1.184.682-1.774,1.025q-1.2.7-2.4,1.395a.731.731,0,0,0-.308,1.131q1.208,2.11,2.421,4.217a1.055,1.055,0,0,0,1.943-.231,1.059,1.059,0,0,0-.124-.851c-.332-.573-.659-1.15-1-1.755a6.377,6.377,0,1,1-7.373,7.427,6.226,6.226,0,0,1,1.072-4.835,1.563,1.563,0,0,0,.364-.768,1.06,1.06,0,0,0-.675-1.083,1.034,1.034,0,0,0-1.219.356,8.16,8.16,0,0,0-1.232,2.237,8.46,8.46,0,1,0,10-5.289C429.038,678.412,428.926,678.378,428.76,678.33Z" transform="translate(-418.626 -675.319)"/></svg>