<svg xmlns="http://www.w3.org/2000/svg" width="15.791" height="20.723" viewBox="0 0 15.791 20.723"><defs><style>.a{fill:#fff;}</style></defs><g transform="translate(-394.457 -348.75)"><path class="a" d="M408.515,369.472h-7.528a.786.786,0,0,1-.529-.851c.013-1.4,0-2.806,0-4.208a.82.82,0,0,0-.927-.934q-2.165,0-4.33,0a.669.669,0,0,1-.735-.7q0-6.009,0-12.018a1.962,1.962,0,0,1,.708-1.528,2.342,2.342,0,0,1,1.033-.476h12.3l.231.062a2,2,0,0,1,1.511,2.019q0,6.066,0,12.132c0,1.51.005,3.019,0,4.529a1.982,1.982,0,0,1-1.374,1.877C408.76,369.408,408.637,369.438,408.515,369.472Zm-6.2-10.172c.883,0,1.767,0,2.65,0a.679.679,0,0,0,.742-.743q0-.4,0-.809a1.264,1.264,0,0,0-.519-1.131,15.523,15.523,0,0,0-1.593-.768.353.353,0,0,0-.14-.009c-.748,0-1.5,0-2.245,0a.9.9,0,0,0-.332.067c-.372.156-.746.312-1.106.493a1.4,1.4,0,0,0-.812,1.258c-.012.276,0,.553,0,.829,0,.571.24.811.811.812Zm-2.225-6.2a2.248,2.248,0,1,0,2.253-2.247A2.244,2.244,0,0,0,400.091,353.1Zm2.26,8.06h-2.569c-.411,0-.823-.006-1.234,0a.647.647,0,0,0-.651.658.674.674,0,0,0,.765.674q3.681,0,7.362,0a1.219,1.219,0,0,0,.241-.022.645.645,0,0,0,.519-.594.656.656,0,0,0-.712-.718Q404.212,361.159,402.352,361.162ZM404.205,365c-.64,0-1.28,0-1.92,0a.668.668,0,1,0,.012,1.333c1.253,0,2.506,0,3.759,0a1.127,1.127,0,0,0,.141-.008.666.666,0,0,0-.113-1.326C405.458,365,404.832,365,404.205,365Z" transform="translate(-0.012)"/><path class="a" d="M399.073,637.569a3.747,3.747,0,0,1-.467-.341q-1.938-1.924-3.861-3.863a1.015,1.015,0,0,1-.273-.455.639.639,0,0,1,.632-.765q2.074-.01,4.147,0a.632.632,0,0,1,.631.635q.009,2.074,0,4.147a.684.684,0,0,1-.525.642Z" transform="translate(0 -268.097)"/></g></svg>