<svg xmlns="http://www.w3.org/2000/svg" width="802.344" height="853.402" viewBox="0 0 802.344 853.402"><defs><style>.a{fill:#f5f5f5;}.b{fill:#e0e0e0;}.c{fill:#e7f1fd;}.d{fill:#263238;}.e{fill:#2a5798;}.f{fill:#fafafa;}.g{fill:#ebebeb;}.h{fill:#f6b333;}.i{fill:#eb996e;}.j{fill:#ffbe9d;}.k{fill:#3e528b;}.l,.m{opacity:0.2;}.n{fill:#455a64;}.o{fill:#e8505b;}.p{opacity:0.3;}.q,.r{opacity:0.7;}</style></defs><g transform="translate(0 353.236)"><path class="a" d="M0,32.059v97.813a32.1,32.1,0,0,0,32.061,32.057H383.086a32.1,32.1,0,0,0,32.061-32.057V47.06L458.922,1.235,32.266,0A31.885,31.885,0,0,0,0,32.059Z" transform="translate(0 0)"/><g transform="translate(44.802 47.882)"><path class="b" d="M318.553,11.3,0,9.864.206,0,318.759,1.644Z"/></g><g transform="translate(44.802 80.144)"><path class="b" d="M318.553,11.3,0,9.864.206,0,318.759,1.438Z"/></g><g transform="translate(237.445 112.36)"><path class="b" d="M0,0H9.863V125.983H0Z" transform="matrix(0.005, -1, 1, 0.005, 0, 9.863)"/></g></g><g transform="translate(325.335 691.474)"><path class="a" d="M0,32.059v97.814a32.1,32.1,0,0,0,32.061,32.056H383.086a32.1,32.1,0,0,0,32.061-32.056V47.06L458.922,1.235,32.266,0A31.885,31.885,0,0,0,0,32.059Z" transform="translate(0 0)"/><g transform="translate(46.446 45.416)"><path class="b" d="M318.553,11.3,0,9.864V0L318.553,1.438Z"/></g><g transform="translate(46.446 77.678)"><path class="b" d="M318.553,11.3,0,9.658V0L318.553,1.438Z"/></g><g transform="translate(238.785 109.837)"><path class="b" d="M0,0H9.864V125.983H0Z" transform="matrix(0.005, -1, 1, 0.005, 0, 9.864)"/></g></g><path class="a" d="M0,0H206.957a18.418,18.418,0,0,1,18.5,18.494V119.8a18.418,18.418,0,0,1-18.5,18.494H31.239a18.418,18.418,0,0,1-18.5-18.494V12.946Z" transform="translate(187.637 16.439)"/><g transform="translate(3.287 93.704)"><path class="b" d="M304.373,21.166V86.1A21.356,21.356,0,0,1,283,107.472H50.352A21.356,21.356,0,0,1,28.978,86.1V31.235L0,.822,283,0A21.313,21.313,0,0,1,304.373,21.166Z"/><g transform="translate(63.299 31.851)"><path class="a" d="M0,7.4,211.273,6.37V0L0,1.027Z"/></g><g transform="translate(63.299 53.222)"><path class="a" d="M0,7.4,211.273,6.37V0L0,1.027Z"/></g><g transform="translate(63.285 74.592)"><path class="a" d="M0,0H83.646V6.576H0Z" transform="matrix(1, -0.005, 0.005, 1, 0, 0.412)"/></g></g><g transform="translate(444.331 394.747)"><path class="b" d="M304.373,21.166V86.1A21.356,21.356,0,0,1,283,107.472H50.352A21.356,21.356,0,0,1,28.978,86.1V31.235L0,.822,283,0A21.182,21.182,0,0,1,304.373,21.166Z"/><g transform="translate(63.299 31.851)"><path class="a" d="M0,7.4l211.273-.822V0L0,1.027Z"/></g><g transform="translate(63.299 53.222)"><path class="a" d="M0,7.4l211.273-.822V0L0,1.027Z"/></g><g transform="translate(63.289 74.596)"><path class="a" d="M0,0H83.646V6.576H0Z" transform="matrix(1, -0.005, 0.005, 1, 0, 0.412)"/></g></g><g transform="translate(518.128 489.706)"><path class="c" d="M31.224,248.621C-3.508,214.715-4.125,162.315,4.918,116.7c1.439-7.6,2.055-15.823,6.782-21.988s13.975-9.247,20.346-4.932c5.138,3.7,6.577,10.686,8.837,16.645A46.181,46.181,0,0,0,56.092,126.56c4.521,3.288,10.276,5.754,15.414,3.9C78.7,128,80.96,118.957,82.193,111.353l6.782-42.537c1.233-7.6,2.466-15.412,5.96-22.193S104.8,33.884,112.4,33.062,128.229,37.788,128.64,45.6c.206,3.288-1.028,6.37-1.233,9.453-.206,3.288.617,6.987,3.494,8.22,2.877,1.438,6.371-.205,8.837-2.055,9.043-6.37,16.03-15.412,22.607-24.453S175.5,18.472,183.924,11.28,203.448-1.05,214.341.183s21.579,9.864,22.4,20.96c1.028,11.1-6.988,20.96-15.208,28.563a173.768,173.768,0,0,1-40.9,27.947c-2.672,1.233-5.549,2.671-6.988,5.343-2.466,4.726,1.439,10.685,6.166,13.151,5.343,2.877,11.509,3.288,17.469,4.932,5.755,1.644,11.715,5.343,13.153,11.3,1.85,8.22-5.96,15.412-13.359,19.727a150.557,150.557,0,0,1-47.064,17.878c-5.96,1.233-12.126,2.055-17.264,5.137-5.138,3.288-9.043,9.658-7.193,15.412s8.632,8.631,14.592,8.631c5.96-.205,11.715-2.466,17.675-3.7,11.1-2.26,24.457.616,29.595,10.891,3.494,6.576,2.466,15-.822,21.782S177.759,220.263,172,224.99c-19.935,16.85-43.981,29.18-69.671,33.7C76.644,262.8,53.831,261.362,31.224,248.621Z" transform="translate(0)"/><g transform="translate(25.06 9.43)"><path class="d" d="M0,273.1a351.845,351.845,0,0,1,22.607-60.62c10.481-21.988,24.046-45.208,39.048-68.839,3.7-5.959,7.4-11.713,11.1-17.467s7.4-11.507,11.3-16.85a323.942,323.942,0,0,1,24.251-29.385c8.221-9.042,16.236-17.261,23.84-24.864s14.8-14.59,21.785-20.755a270.272,270.272,0,0,1,34.527-26.3c4.316-2.877,7.81-4.726,10.07-6.165A18.062,18.062,0,0,1,201.2.411C201.819,0,202.024,0,202.23,0a6.083,6.083,0,0,1-.822.616,21.671,21.671,0,0,1-2.672,1.644c-2.261,1.438-5.549,3.493-9.865,6.37a325.375,325.375,0,0,0-34.116,26.508C147.973,41.3,140.78,48.29,133.176,55.893s-15.619,16.028-23.635,24.864A316.713,316.713,0,0,0,85.5,110.143c-3.9,5.343-7.4,10.891-11.1,16.85-3.7,5.754-7.4,11.713-11.1,17.467-15,23.631-28.567,46.852-39.048,68.634A336.25,336.25,0,0,0,1.439,273.508"/></g><g transform="translate(109.322 33.062)"><path class="d" d="M.206,85.484A22.1,22.1,0,0,1,0,82.2V72.949c.206-7.809.822-18.494,1.439-30.207s1.233-22.4,1.233-30.207V3.288c0-2.26,0-3.288.206-3.288,0,0,.205,1.233.411,3.288.206,2.26.411,5.343.411,9.247.206,7.809,0,18.494-.822,30.207-.617,11.713-1.439,22.193-1.85,30.207C.822,76.648.617,79.73.617,82.2.411,84.251.411,85.484.206,85.484Z"/></g><g transform="translate(109.938 113.453)"><path class="d" d="M100.293,2.833s-1.439,0-3.9-.206S90.222,2.216,85.7,2.011C76.658,1.6,63.916,1.189,50.146,1.6c-13.975.411-26.512,1.233-35.555,2.055C10.07,4.066,6.371,4.476,3.9,4.682S0,5.093,0,5.093a39.131,39.131,0,0,1,3.9-.822C6.371,3.86,10.07,3.244,14.592,2.627A310.948,310.948,0,0,1,50.352.161a313.775,313.775,0,0,1,35.76.822c4.521.411,8.221.822,10.687,1.233A17.049,17.049,0,0,1,100.293,2.833Z" transform="translate(0 0)"/></g><g transform="translate(20.538 87.311)"><path class="d" d="M28.567,132.952a6.623,6.623,0,0,1-.411-1.233c-.206-1.027-.617-2.26-1.028-3.9-1.028-3.288-2.261-8.22-3.7-14.179-2.877-11.918-6.371-28.563-9.865-47.057S6.782,31.44,4.11,19.522C2.877,13.768,1.85,8.836,1.028,5.343.617,3.7.411,2.466.206,1.438A6.569,6.569,0,0,1,0,0,6.627,6.627,0,0,1,.411,1.233c.206,1.027.617,2.26,1.028,3.9,1.028,3.288,2.261,8.22,3.7,14.179C8.015,31.235,11.509,47.879,15,66.373s6.782,35.139,9.454,47.057c1.233,5.754,2.261,10.685,3.083,14.179.411,1.644.617,2.877.822,3.9C28.567,132.336,28.772,132.952,28.567,132.952Z"/></g><g transform="translate(49.103 199.56)"><path class="d" d="M136.875.154a6.424,6.424,0,0,1-1.439.411c-1.028.205-2.466.411-3.9.616-3.7.616-8.632,1.233-14.592,2.26-12.331,1.849-29.389,4.726-48.3,7.809s-35.966,5.754-48.3,7.4c-6.166.822-11.3,1.438-14.8,1.849-1.644.205-2.877.206-4.11.411H0A6.423,6.423,0,0,1,1.439,20.5c1.028-.205,2.466-.411,3.9-.616,3.7-.616,8.632-1.233,14.592-2.26,12.331-1.849,29.389-4.726,48.3-7.809s35.966-5.754,48.3-7.4c6.166-.822,11.3-1.438,14.8-1.849C132.97.36,134.2.36,135.436.154,136.259-.051,136.875-.051,136.875.154Z" transform="translate(0 0)"/></g></g><g transform="translate(128.528 205.755)"><path class="c" d="M8.173,44.084C1.8,39.153-1.075,30.522.364,22.508c1.233-8.014,6.371-15,13.153-19.522C16.6.931,20.3-.713,24,.315a10.029,10.029,0,0,1,6.371,7.6,19.53,19.53,0,0,1-1.233,10.275C25.231,29.494,19.271,39.564,8.173,44.084Z" transform="translate(66.761 26.34)"/><path class="c" d="M57,13.676A53.015,53.015,0,0,0,9.727,1.347C5.617,2.374.89,4.635.068,8.745-.549,13.06,3.15,16.553,6.85,18.814c15.619,9.042,36.582,7.4,50.557-4.11" transform="translate(7.664 76.065)"/><path class="c" d="M4.236.763C11.224-1.086,18.828.558,24.993,4.257s10.892,9.453,14.8,15.412c7.4,11.713,10.07,27.536,10.481,41.509-15.414-.616-28.567-12.74-34.938-19.316C5.264,31.382-6.451,6.517,4.236.763Z" transform="translate(0 0)"/><g transform="translate(74.456 44.533)"><path class="d" d="M13.427,66.168c-.822-1.644-2.466-2.877-3.9-5.754C6.645,54.455,2.74,45.824.891,35.55S.274,15.617,2.74,9.453A45.234,45.234,0,0,1,6.44,2.26,19.571,19.571,0,0,1,8.289,0c.206.205-2.466,3.493-4.521,9.658C1.507,15.823.48,25.275,2.329,35.139S7.878,53.633,10.55,59.8" transform="translate(0)"/></g><g transform="translate(14.901 18.847)"><path class="d" d="M73.187,92.06c-2.055-2.671-4.727-6.165-8.015-10.275-6.782-8.836-16.236-20.96-26.717-34.111S18.313,22.6,11.12,13.973C7.832,9.864,4.955,6.37,2.9,3.9,1.05,1.438-.183.205.022,0c0,0,1.233,1.233,3.288,3.493s5.138,5.548,8.632,9.864C19.136,21.782,29,33.495,39.687,46.646,50.169,59.8,59.417,72.127,65.994,80.963c3.288,4.521,5.96,8.22,7.6,10.686" transform="translate(0)"/></g><g transform="translate(27.05 84.481)"><path class="d" d="M0,1.972c0-.205,1.028-.411,2.672-.822C3.494.945,4.727.739,5.96.534A25.656,25.656,0,0,1,10.276.123a53.854,53.854,0,0,1,11.3.411A60.037,60.037,0,0,1,35.144,4.027,63.481,63.481,0,0,1,47.475,10.6,53.63,53.63,0,0,1,56.106,18a20.585,20.585,0,0,1,2.877,3.288c.822,1.027,1.439,1.849,2.055,2.671,1.028,1.438.822,2.26.822,2.26-.206.205-1.85-3.082-6.371-7.4a66.48,66.48,0,0,0-8.632-6.987A60.868,60.868,0,0,0,34.733,5.671,69.635,69.635,0,0,0,21.579,2.178a76.307,76.307,0,0,0-11.1-.822C3.9,1.356,0,2.383,0,1.972Z"/></g></g><g transform="translate(211.478 116.924)"><path class="e" d="M288.755,699.7,51.381,698.668A51.658,51.658,0,0,1,0,646.679l2.466-595.1A51.966,51.966,0,0,1,54.464,0L291.837,1.027a51.659,51.659,0,0,1,51.38,51.989l-2.466,595.1A51.967,51.967,0,0,1,288.755,699.7Z" transform="translate(0)"/><g transform="translate(15.62 20.755)"><path class="f" d="M275.806,1.027,229.769.822c-6.166,0-11.1,5.137-11.3,11.713V20.96a11.628,11.628,0,0,1-11.3,11.713l-89.811-.411c-6.166,0-11.1-5.343-11.1-11.713V12.124c0-6.37-4.932-11.713-11.1-11.713H78.919L38.843,0C18.908,0,2.466,16.028,2.466,35.961L0,616.677c0,19.933,16.03,36.372,35.966,36.372l236.963,1.027c19.935,0,36.377-16.028,36.377-35.961L311.771,37.4A36.091,36.091,0,0,0,275.806,1.027Z"/></g><g transform="translate(147.556 615.169)"><path class="e" d="M9.425,4.932A4.826,4.826,0,0,1,4.712,9.865,4.826,4.826,0,0,1,0,4.932,4.826,4.826,0,0,1,4.712,0,4.826,4.826,0,0,1,9.425,4.932Z" transform="matrix(0.004, -1, 1, 0.005, 0, 9.425)"/></g><g transform="translate(162.632 615.176)"><path class="e" d="M9.425,4.932A4.826,4.826,0,0,1,4.712,9.865,4.826,4.826,0,0,1,0,4.932,4.826,4.826,0,0,1,4.712,0,4.826,4.826,0,0,1,9.425,4.932Z" transform="matrix(0.004, -1, 1, 0.005, 0, 9.425)"/></g><g transform="translate(177.913 615.419)"><path class="e" d="M9.425,4.932A4.826,4.826,0,0,1,4.712,9.865,4.826,4.826,0,0,1,0,4.932,4.826,4.826,0,0,1,4.712,0,4.826,4.826,0,0,1,9.425,4.932Z" transform="matrix(0.004, -1, 1, 0.005, 0, 9.425)"/></g></g><path class="g" d="M0,0C3.9.616,236.757,46.235,236.757,46.235V0Z" transform="translate(300.468 418.584)"/><path class="g" d="M0,34.75S253.4-1.006,251.143.022,0,.022,0,.022V34.75Z" transform="translate(227.098 677.275)"/><g transform="translate(520.785 34.111)"><path class="d" d="M1.233,28.563c0,15.775-.276,28.563-.617,28.563S0,44.338,0,28.563.276,0,.617,0,1.233,12.788,1.233,28.563Z"/></g><g transform="translate(570.263 99.23)"><path class="d" d="M57.133.616c0,.34-12.79.616-28.566.616S0,.957,0,.616,12.79,0,28.566,0,57.133.276,57.133.616Z" transform="matrix(0.915, -0.404, 0.404, 0.915, 0, 23.068)"/></g><g transform="translate(554.284)"><path class="d" d="M65.971,0a10.67,10.67,0,0,1-.617,1.027,30.158,30.158,0,0,1-1.85,3.082c-1.439,2.671-3.9,6.37-6.782,11.1-5.755,9.247-13.975,21.782-23.429,35.55S15.619,76.853,9.659,86.1c-2.877,4.521-5.343,8.22-6.988,10.891-.822,1.233-1.439,2.26-1.85,2.877S.206,100.9,0,100.9a10.671,10.671,0,0,1,.617-1.027,30.157,30.157,0,0,1,1.85-3.082c1.439-2.671,3.9-6.37,6.782-11.1C15,76.442,23.224,63.908,32.677,50.14S50.352,24.042,56.312,14.8C59.189,10.275,61.655,6.576,63.3,3.9c.822-1.233,1.439-2.26,1.85-2.877S65.766,0,65.971,0Z"/></g><g transform="translate(280.944 241.862)"><path class="h" d="M481.324,0H18.086A17.98,17.98,0,0,0,0,18.083V161.721A17.98,17.98,0,0,0,18.086,179.8H52.613c2.877,15,5.96,33.906,5.96,33.906L89.811,179.8H481.324a17.98,17.98,0,0,0,18.086-18.083V18.083A18.111,18.111,0,0,0,481.324,0Z"/><g transform="translate(43.775 55.277)"><g transform="translate(0.204 22.193)"><path class="a" d="M246.211.616c0,.205-55.079.616-123.105.616S0,1.027,0,.616C0,.411,55.079,0,123.105,0,190.926,0,246.211.205,246.211.616Z"/></g><g transform="translate(0.202)"><path class="a" d="M246.211.616c0,.205-55.079.616-123.105.616S0,1.027,0,.616C0,.411,55.079,0,123.105,0,190.926.205,246.211.411,246.211.616Z"/></g><g transform="translate(0.204 43.975)"><path class="a" d="M246.211.616c0,.205-55.079.616-123.105.616S0,1.027,0,.616C0,.411,55.079,0,123.105,0,190.926,0,246.211.205,246.211.616Z"/></g><g transform="translate(0 66.579)"><path class="a" d="M161.537.616c0,.34-36.161.616-80.769.616S0,.957,0,.616,36.161,0,80.769,0,161.537.276,161.537.616Z"/></g></g></g><g transform="translate(72.959 500.369)"><path class="e" d="M479.885,0H12.742A12.805,12.805,0,0,0,0,12.74V164.8a12.805,12.805,0,0,0,12.742,12.74H352.053l30.828,33.5s3.288-18.905,5.96-33.5h91.045a12.805,12.805,0,0,0,12.742-12.74V12.74A12.674,12.674,0,0,0,479.885,0Z"/><g transform="translate(215.178 55.688)"><g transform="translate(0.204 21.988)"><path class="a" d="M246.211.617c0,.205-55.079.616-123.105.616S0,1.027,0,.617C0,.411,55.079,0,123.105,0S246.211.411,246.211.617Z"/></g><g transform="translate(0.202)"><path class="a" d="M246.211.616c0,.205-55.079.617-123.105.617S0,1.027,0,.616,55.079,0,123.105,0,246.211.205,246.211.616Z"/></g><g transform="translate(0.204 43.769)"><path class="a" d="M246.211.617c0,.205-55.079.616-123.105.616S0,1.028,0,.617,55.079,0,123.105,0C191.132.205,246.211.411,246.211.617Z" transform="translate(0 0)"/></g><g transform="translate(0 66.373)"><path class="a" d="M161.537.617c0,.34-36.161.616-80.769.616S0,.957,0,.617,36.161,0,80.769,0,161.537.276,161.537.617Z"/></g></g></g><g transform="translate(579.03 117.231)"><g transform="translate(0.132)"><path class="d" d="M10.241,63.806c.206-3.7-3.083-9.042-6.166-11.918C.993,48.805-1.063,44.9.582,38.736,1.815,34.01,4.9,34.421,5.925,31.75c.822-2.055.411-4.315.617-6.576.617-7.6,8.837-13.562,16.236-11.507A19.5,19.5,0,0,1,39.014.1a19.383,19.383,0,0,1,18.7,9.864A14.522,14.522,0,0,1,78.884,21.681c4.11-3.082,10.481-1.849,13.77,2.055S96.148,33.6,93.681,38.12s-7.4,7.4-12.331,8.22a24.569,24.569,0,0,1-14.8-2.671,44.2,44.2,0,0,1-12.126-9.247" transform="translate(56.337)"/><path class="b" d="M177.979,86.922c0,48.006-39.842,86.922-88.989,86.922S0,134.928,0,86.922,39.842,0,88.989,0,177.979,38.917,177.979,86.922Z" transform="translate(11.291 126.07)"/><g transform="translate(0 21.064)"><g transform="translate(13.758)"><path class="i" d="M45.214,25.275,35.349,0,0,22.193l31.444,48.5C31.65,70.689,44.392,54.25,45.214,25.275Z" transform="translate(130.504 166.653)"/><g transform="translate(43.308)"><g transform="translate(0 3.377)"><g transform="translate(11.355)"><path class="j" d="M23.638,133.891a23.723,23.723,0,0,0,23.84-22.4c.617-10.48,1.028-20.549,1.028-20.549S67.824,89.505,69.674,70.6,71.729,7.72,71.729,7.72A67.457,67.457,0,0,0,4.113,10.6L2.264,11.83,0,110.054A23.551,23.551,0,0,0,23.638,133.891Z" transform="translate(0 0)"/><g transform="translate(30.366 34.845)"><g transform="translate(0.975 2.056)"><path class="d" d="M3.6.2A2.859,2.859,0,0,1,5.449,3.7,2.859,2.859,0,0,1,1.955,5.547,2.859,2.859,0,0,1,.106,2.054,2.506,2.506,0,0,1,3.6.2Z" transform="translate(0 0)"/></g><path class="d" d="M9.712,3.082C9.3,3.493,7.657,1.849,4.985,1.644S.258,2.671.052,2.26c-.206-.205.206-.822,1.028-1.233A6.808,6.808,0,0,1,4.985,0a6.937,6.937,0,0,1,3.7,1.438C9.712,2.466,9.917,3.082,9.712,3.082Z" transform="translate(0)"/></g><g transform="translate(59.758 35.05)"><g transform="translate(0.356 1.85)"><path class="d" d="M3.6.2A2.859,2.859,0,0,1,5.449,3.7,2.859,2.859,0,0,1,1.955,5.547,2.859,2.859,0,0,1,.106,2.054C.722.41,2.161-.412,3.6.2Z" transform="translate(0 0)"/></g><path class="d" d="M9.712,3.082C9.3,3.493,7.657,1.849,4.985,1.644S.258,2.671.052,2.26c-.206-.205.206-.822,1.028-1.233A6.808,6.808,0,0,1,4.985,0a6.937,6.937,0,0,1,3.7,1.438C9.712,2.26,9.917,2.877,9.712,3.082Z" transform="translate(0)"/></g><g transform="translate(49.533 35.456)"><path class="d" d="M0,23.02c0-.205,1.644-.411,4.316-.616.617,0,1.233-.205,1.233-.411a2.8,2.8,0,0,0-.411-2.055c-.617-1.849-1.028-3.493-1.644-5.548C1.233,6.581-.206.21.205,0S2.672,6.17,4.932,13.978a55.081,55.081,0,0,1,1.439,5.548A4.515,4.515,0,0,1,6.577,22.4c-.206.616-.822.822-1.233,1.027H4.11C1.644,23.431,0,23.225,0,23.02Z" transform="translate(0 0)"/></g><g transform="translate(24.047 81.696)"><path class="i" d="M24.457,9.042S12.331,9.042,0,0C0,0,4.727,14.179,24.046,13.973Z"/></g></g><g transform="translate(0 36.88)"><path class="j" d="M13,2.9A2.908,2.908,0,0,0,10.331.02C6.838-.186.878,1.047.056,10.911-.972,24.884,12.592,21.6,12.8,21.185,12.8,20.98,13,8.445,13,2.9Z" transform="translate(0 0)"/><g transform="translate(4.148 4.746)"><path class="i" d="M5.568,10.891a2.543,2.543,0,0,1-.617.411,2.779,2.779,0,0,1-1.85,0C1.664,10.686.636,8.22.636,5.754A6.927,6.927,0,0,1,1.664,2.26,2.363,2.363,0,0,1,3.719.616a1.237,1.237,0,0,1,1.439.822c.206.411,0,.616.206.616,0,0,.411-.205.205-.822A1.558,1.558,0,0,0,5.157.411,2.921,2.921,0,0,0,3.924,0,3.29,3.29,0,0,0,1.253,2.055,10.907,10.907,0,0,0,.02,5.959c-.206,2.877,1.233,5.548,3.083,6.37a2.611,2.611,0,0,0,2.261-.205C5.569,11.3,5.774,10.891,5.568,10.891Z" transform="translate(0)"/></g></g><g transform="translate(38.958 26.817)"><path class="d" d="M.148,3.712c.617.822,3.083.411,6.371.411C9.6,3.917,12.068,3.917,12.685,3.1,13.3,2.068,10.219-.192,6.314.013,2,.219-.674,2.89.148,3.712Z" transform="translate(0 0)"/></g><g transform="translate(69.68 26.815)"><path class="d" d="M.045,2.893C.456,4.126,2.717,4.537,5.388,4.537s4.932-.411,5.138-1.644C10.937,1.66,8.471.016,5.183.016,2.1-.19-.366,1.66.045,2.893Z" transform="translate(0 0)"/></g></g><path class="d" d="M74.5,17.261s-11.509,5.548-26.512-1.849c-9.865-4.932-21.374-7.4-23.84-5.343s-3.083,12.124-12.742,15c0,0,.617,19.316-6.988,18.7-7.81-.616-2.877-30.618-2.877-30.618L20.444,3.9,41,0,60.315,2.671l15,4.11Z" transform="translate(11.26)"/></g><g transform="translate(0 96.375)"><g transform="translate(0 14.107)"><path class="k" d="M0,18.566C20.141-2.188,55.7.072,55.7.072l29.389,20.96L101.732,1.716A106.256,106.256,0,0,1,135.642,12.2l1.233.411v.206c12.948,6.987,31.239,23.837,48.5,40.071L164.62,72.2,141.6,92.749v.411c-.206,1.233,3.288,29.385,6.782,50.756-20.963,19.933-47.68,28.563-77.48,23.426-9.454-1.644-13.975-3.9-22.813-6.165A31.6,31.6,0,0,1,24.662,133.23C23.018,115.352,21.99,93.16,21.99,93.16" transform="translate(0 0)"/><g transform="translate(120.024 5.415)"><path class="d" d="M0,0A22.567,22.567,0,0,1,1.233,3.288c.822,2.055,1.85,5.343,3.083,9.247,2.466,7.809,5.549,18.7,8.426,30.618,2.877,12.124,5.138,23.22,6.577,31.235.617,4.11,1.233,7.192,1.439,9.453a21.828,21.828,0,0,1,.411,3.493,28.122,28.122,0,0,1-.822-3.493c-.411-2.466-1.028-5.548-1.85-9.453-1.644-8.014-3.9-18.905-6.782-31.029S5.755,20.549,3.494,12.74C2.466,9.042,1.439,5.754.822,3.493A28.131,28.131,0,0,0,0,0Z"/></g><g transform="translate(138.737 46.461)"><path class="d" d="M51.377.617c0,.34-11.5.617-25.688.617S0,.957,0,.617,11.5,0,25.688,0,51.377.276,51.377.617Z" transform="matrix(0.775, -0.632, 0.632, 0.775, 0, 32.447)"/></g><path class="l" d="M18.086,0,0,59.387,6.782,62.88l6.577-16.85S20.141,10.686,18.086,0Z" transform="translate(8.425 47.13)"/><g class="m" transform="translate(92.483 1.305)"><path class="l" d="M25.69,4.11C35.349,9.247,11.1,21.576,0,21.166L8.015,0C8.015.205,22.4,2.466,25.69,4.11Z"/></g></g><path class="k" d="M0,15.617V0S30.622,7.809,31.855,26.3c0,0,3.9-20.344,19.73-21.371l2.261,28.563-18.5,16.028h-18.7L1.85,36.783,0,17.056" transform="translate(52.611)"/><g transform="translate(84.182 29.18)"><path class="d" d="M7.274,85.073V72.538c0-7.809-.206-18.494-1.233-30.207s-2.466-22.4-3.9-30C1.519,8.631.9,5.548.492,3.288.081,1.233-.125,0,.081,0A30.2,30.2,0,0,1,.9,3.288a75.006,75.006,0,0,1,1.85,9.042c1.439,7.6,3.083,18.289,4.11,30.207a272.432,272.432,0,0,1,.822,30.413c-.206,3.9-.206,6.987-.411,9.247A11.014,11.014,0,0,1,7.274,85.073Z" transform="translate(0)"/></g><g transform="translate(51.749 12.535)"><path class="d" d="M31.28,8.22a3.214,3.214,0,0,0-1.85.205c-1.233.411-2.261,1.849-3.083,3.9a81.785,81.785,0,0,0-5.754,17.056L20.388,30l-.617-.411c-1.85-1.027-3.7-2.26-5.549-3.493a102.973,102.973,0,0,1-9.865-7.6,11.656,11.656,0,0,1-3.288-4.521A14.022,14.022,0,0,1,.041,9.247,28.071,28.071,0,0,1,.658,2.466L1.274,0a22.38,22.38,0,0,1-.205,2.466A31.26,31.26,0,0,0,.658,9.247a20.189,20.189,0,0,0,1.028,4.521,12.1,12.1,0,0,0,3.288,4.11c2.877,2.466,6.371,4.932,9.865,7.4,1.85,1.233,3.7,2.466,5.549,3.493l-.822.411a79.7,79.7,0,0,1,6.166-17.056,11.65,11.65,0,0,1,1.644-2.671A3.132,3.132,0,0,1,29.431,8.22C30.664,7.809,31.486,8.22,31.28,8.22Z" transform="translate(0)"/></g><g transform="translate(86.729 4.932)"><path class="d" d="M17.469,0a11.307,11.307,0,0,1,.205,2.466c.206,1.849.206,4.11.411,6.781q.308,4.315,1.233,9.864c.206,1.849.822,3.7.411,5.959a9.292,9.292,0,0,1-4.11,5.137c-2.466,1.849-4.932,3.288-6.782,5.137l-.822.822V34.933A36.063,36.063,0,0,0,3.494,19.727,29.456,29.456,0,0,0,0,14.384l1.233,1.233a27.422,27.422,0,0,1,2.877,3.9A34.936,34.936,0,0,1,9.043,35.139l-.822-.205c1.85-2.055,4.521-3.493,6.782-5.343a10.955,10.955,0,0,0,3.7-4.521c.411-1.849-.205-3.7-.411-5.548-.617-3.7-.822-7.192-1.028-9.864-.206-2.877-.206-5.137-.206-6.781A23.156,23.156,0,0,1,17.469,0Z"/></g></g></g><g transform="translate(0 105.211)"><g transform="translate(11.033)"><path class="d" d="M46.447,0C45.214,1.438,0,61.853,0,61.853l6.371,3.7L52.818,5.959Z" transform="translate(159.331)"/><path class="j" d="M24.306,19.42S71.781,87.848,74.658,89.081c5.549,2.671,70.7-53.633,76.864-58.976.822-1.233,2.672-3.493,6.166-8.425,0,0,5.138-23.426,10.687-21.577s-3.083,11.918.617,20.755c3.494,8.836,19.935-12.329,20.552-14.179l4.11-5.548s4.316,12.535,4.11,17.672c-1.028,16.85-16.852,36.577-16.852,36.577S109.8,143.536,60.888,146.208c-13.975.822-39.048-39.043-55.7-68.839A40.856,40.856,0,0,1,16.907,24.352Z" transform="translate(0 28.254)"/><g transform="translate(189.525 38.016)"><path class="i" d="M.017,12.329c-.206,0,1.439-2.877,3.083-6.165C4.744,2.671,5.978,0,6.183,0S5.361,3.082,3.717,6.37A22.4,22.4,0,0,1,.017,12.329Z" transform="translate(0)"/></g></g><g transform="translate(0 14.384)"><path class="k" d="M27.117,0S-23.851,18.083,13.964,103.978l58.984-35.55L64.522,48.29Z" transform="translate(0)"/><g transform="translate(14.17 1.357)"><path class="d" d="M9.043.081A15.677,15.677,0,0,1,15.208.7,25.542,25.542,0,0,1,21.99,3.575a32.693,32.693,0,0,1,7.4,6.165c4.932,5.137,9.659,12.329,13.77,20.755,4.316,8.425,8.426,17.878,12.537,27.741q1.85,4.624,3.7,8.631l.206.411-.411.206C42.131,76.729,27.334,85.565,16.852,91.935,11.509,95.223,7.4,97.895,4.521,99.744c-1.439.822-2.466,1.644-3.288,2.055L0,102.416a7.418,7.418,0,0,1,1.028-.822c.822-.616,1.85-1.233,3.288-2.26,2.877-2.055,6.988-4.726,12.126-8.014C26.923,84.743,41.72,75.907,58.778,66.455l-.205.616-3.7-8.631C50.763,48.371,46.653,38.919,42.542,30.7,38.226,22.48,33.91,15.288,28.978,10.15a37.218,37.218,0,0,0-7.193-6.165,20.08,20.08,0,0,0-6.577-2.877C11.3.081,9.043.287,9.043.081Z" transform="translate(0 0)"/></g></g></g></g><g transform="translate(91.443 14.9)"><path class="n" d="M41.515,0a1.2,1.2,0,0,1,.206.822c0,.616.206,1.438.206,2.671a14.847,14.847,0,0,1-3.9,8.836,13.762,13.762,0,0,1-13.77,3.493,12.334,12.334,0,0,1-6.988-5.137,7.344,7.344,0,0,1-1.028-4.726A6.24,6.24,0,0,1,18.7,1.644a5.29,5.29,0,0,1,4.932-.411,5.754,5.754,0,0,1,3.288,3.288,8.626,8.626,0,0,1-1.439,8.631A10.576,10.576,0,0,1,11.92,16.028a19.51,19.51,0,0,0-5.138-1.849,5.936,5.936,0,0,0-3.9.411C.822,15.617,0,16.645,0,16.439l.617-.616L1.439,15c.411-.205.822-.616,1.233-.822a6.49,6.49,0,0,1,4.11-.616,20.721,20.721,0,0,1,5.343,1.849A16.109,16.109,0,0,0,15,16.439a8.847,8.847,0,0,0,3.288,0,10.292,10.292,0,0,0,6.166-3.7,8.279,8.279,0,0,0,1.233-7.6c-.822-2.466-4.316-4.11-6.782-2.671a4.794,4.794,0,0,0-2.055,3.493,6.425,6.425,0,0,0,.822,3.9,11.214,11.214,0,0,0,6.371,4.726c5.138,1.438,10.276-.205,12.948-3.082A15.171,15.171,0,0,0,41.1,3.082,4.577,4.577,0,0,0,41.515,0Z"/></g><g transform="translate(111.715 87.22)"><path class="d" d="M10.147,5.149c0,.205-.617.411-1.85.411A9.938,9.938,0,0,1,3.982,4.533,7.722,7.722,0,0,1,.694,1.656C.077.629-.128.012.077.012.283-.193,1.721,2.272,4.6,3.505,7.476,5.149,10.147,4.944,10.147,5.149Z"/></g><g transform="translate(61.235 79.629)"><path class="d" d="M6.782,3.7a2.312,2.312,0,0,1,0,2.26A3.39,3.39,0,0,1,4.727,7.6a4.018,4.018,0,0,1-3.288-.822A4.37,4.37,0,0,1,0,3.7,3.4,3.4,0,0,1,1.028,1.233,2.961,2.961,0,0,1,3.083,0c0,.205-.822.616-1.439,1.644a3.177,3.177,0,0,0,.411,4.11,2.447,2.447,0,0,0,2.261.616A3.243,3.243,0,0,0,5.96,5.343C6.782,4.521,6.577,3.7,6.782,3.7Z"/></g><g transform="translate(122.067 21.886)"><path class="n" d="M14.386,0a8.37,8.37,0,0,1,1.028,3.7,12.559,12.559,0,0,1-3.083,8.836A12.9,12.9,0,0,1,3.9,16.85,8.849,8.849,0,0,1,0,16.439c0-.205,1.439,0,3.7-.205a13.218,13.218,0,0,0,7.6-4.315A13.269,13.269,0,0,0,14.386,3.7C14.592,1.438,14.181,0,14.386,0Z" transform="translate(0 0)"/></g></g><g transform="translate(5.657 193.247)"><path class="b" d="M68.23.616c0,.34-15.274.616-34.115.616S0,.957,0,.616,15.274,0,34.115,0,68.23.276,68.23.616Z" transform="matrix(0.896, -0.443, 0.443, 0.896, 0, 30.236)"/></g><g transform="translate(0 169.947)"><path class="b" d="M61.654.616c0,.34-13.8.616-30.827.616S0,.957,0,.616,13.8,0,30.827,0,61.654.276,61.654.616Z" transform="matrix(0.881, -0.473, 0.473, 0.881, 0, 29.153)"/></g><g transform="translate(1.351 151.551)"><path class="b" d="M41.515,0c0,.205-2.261,1.438-5.96,3.493-4.11,2.26-9.043,5.137-14.8,8.22C15.208,15,10.07,17.878,6.166,20.138,2.466,22.193,0,23.631,0,23.426s2.055-1.644,5.755-3.9,8.837-5.343,14.592-8.631,11.1-5.959,15-8.014A44.822,44.822,0,0,1,41.515,0Z"/></g><g transform="translate(66.678 130.385)"><path class="b" d="M21.2,16.85c0,.205-1.644,0-3.9-1.027A36.627,36.627,0,0,1,9.074,10.48,96.649,96.649,0,0,1,2.292,3.288C.648,1.233-.174,0,.031,0A15.579,15.579,0,0,1,2.908,2.877C4.552,4.726,7.019,7.4,9.69,9.864a47.5,47.5,0,0,0,8.015,5.548C19.761,16.234,21.2,16.645,21.2,16.85Z" transform="translate(0)"/></g><g transform="translate(106.775 135.933)"><path class="b" d="M11.107,0c.206,0-1.028,3.493-4.316,6.165S.009,9.658.009,9.247c-.206-.205,3.083-1.438,6.166-3.9A34.023,34.023,0,0,0,11.107,0Z" transform="translate(0)"/></g><g transform="translate(57.049 166.963)"><path class="b" d="M114.268,0a2.984,2.984,0,0,1-1.233.205c-.822.205-2.055.206-3.288.411-2.877.411-6.988.616-12.126,1.027C87.345,2.466,72.959,3.288,57.34,3.9c-15.825.616-30.006.822-40.487.616-5.138,0-9.454-.206-12.331-.206-1.439,0-2.466-.205-3.288-.205S0,4.11,0,3.9H16.853C27.128,3.7,41.515,3.493,57.134,2.877,72.959,2.26,87.14,1.644,97.416,1.027c5.138-.411,9.248-.616,12.126-.822C110.98.205,112.007,0,112.83,0Z"/></g><g transform="translate(68.556 191.21)"><path class="b" d="M86.523,0S85.29.205,83.235.616c-2.261.205-5.343.616-9.248,1.027-7.81.822-18.7,1.438-30.622,2.055-11.92.411-22.813.616-30.622.616-3.9,0-7.193-.205-9.248-.205A23.6,23.6,0,0,1,0,3.9,23.6,23.6,0,0,1,3.494,3.7c2.466,0,5.549,0,9.248-.205,7.81-.205,18.7-.411,30.622-.822S66.177,1.644,73.987,1.027c3.7-.205,6.988-.411,9.248-.616A18.624,18.624,0,0,1,86.523,0Z" transform="translate(0 0)"/></g><g transform="translate(71.639 221.337)"><path class="b" d="M46.653.081c0,.205-2.672.616-6.782,1.027-4.316.411-10.07.822-16.441,1.233S11.1,2.752,6.782,2.752,0,2.547,0,2.547c0-.205,2.672-.205,6.782-.411,4.521-.205,10.276-.411,16.647-.822S35.349.7,39.871.492C43.981.081,46.653-.125,46.653.081Z"/></g><g transform="translate(43.074 149.531)"><path class="b" d="M28.156.581c0,.205-6.371.411-13.975.616C6.371,1.609.206,2.02,0,1.609,0,1.4,6.166.376,13.975.17,21.785-.241,28.156.17,28.156.581Z" transform="translate(0 0)"/></g><g transform="translate(121.329 148.104)"><path class="b" d="M1.233,18.291c0,10.1-.276,18.291-.616,18.291S0,28.393,0,18.291.276,0,.617,0,1.233,8.189,1.233,18.291Z" transform="matrix(0.004, -1, 1, 0.004, 0, 1.233)"/></g><g transform="translate(108.221 274.001)"><path class="b" d="M52.818.022a19,19,0,0,1-1.85,1.027c-1.233.616-3.083,1.438-5.343,2.466a141.243,141.243,0,0,1-18.5,5.959A113.614,113.614,0,0,1,8.015,12.146c-2.466.205-4.521.205-5.96.205S0,12.352,0,12.146s3.083-.206,8.015-.822A142.26,142.26,0,0,0,26.923,8.242a160.48,160.48,0,0,0,18.5-5.548C49.941,1.05,52.818-.183,52.818.022Z"/></g></g><g transform="translate(59.396 373.993)"><path class="b" d="M177.979,84.868c0,46.871-39.842,84.868-88.989,84.868S0,131.739,0,84.868,39.842,0,88.989,0,177.979,38,177.979,84.868Z" transform="translate(36.582 127.199)"/><g transform="translate(66.799)"><path class="d" d="M40.483,0C26.3.822,20.753,15.412,19.109,18.7s-1.85,6.987-2.261,10.686-.822,7.4-2.672,10.686C11.094,45,4.518,47.674,2.668,53.222c-2.055,6.37,3.083,12.946,1.85,19.522-.822,3.493-3.288,6.37-4.11,9.864C-.62,86.1.407,90,2.257,93.293c4.727,8.014,14.181,11.918,23.429,12.329s18.291-2.466,26.923-5.137" transform="translate(0 7.398)"/><path class="d" d="M12.629,0c-1.439,3.082,0,6.576,2.055,9.042,2.261,2.466,5.138,4.11,7.6,6.165s4.932,4.726,5.138,8.014c.206,3.082-1.233,5.959-.822,9.042,1.028,7.6,13.359,10.069,13.975,17.672.411,5.137-4.932,9.864-3.288,14.8.617,1.849,2.055,3.288,3.083,5.137,3.494,5.754,1.028,13.768-3.9,18.289-5.138,4.521-12.126,6.165-18.7,6.37-5.755.205-12.126-.616-15.414-5.343-3.083-4.11-2.466-9.864-1.85-15C3.381,50.14,2.97,25.686,2.353,1.438" transform="translate(90.128 25.686)"/><g transform="translate(23.54 5.707)"><g transform="translate(0.341 12.198)"><path class="j" d="M20.3,119.157c.206-12.74,0-25.892,0-25.892S4.068,90.388.985,69.017C-2.1,48.673,3.04,4.9,3.04,4.9,26.675-4.343,53.187-.85,69.628,18.261L67.162,121.006c-.206,11.918-10.892,21.166-23.635,20.755C30.58,141.35,20.3,131.281,20.3,119.157Z" transform="translate(0)"/><g transform="translate(3.039 33.878)"><g transform="translate(4.522 2.26)"><path class="d" d="M0,2.466A2.894,2.894,0,0,0,2.672,5.343,2.882,2.882,0,0,0,5.549,2.877,2.894,2.894,0,0,0,2.877,0,2.613,2.613,0,0,0,0,2.466Z"/></g><path class="d" d="M0,2.671c.411.411,2.466-1.233,5.343-1.027,5.549.822,5.343,1.644,5.343,1.233.206-.205-.206-.822-1.028-1.438A7.634,7.634,0,0,0,5.343,0,8.273,8.273,0,0,0,1.028,1.233,2.236,2.236,0,0,0,0,2.671Z"/></g><g transform="translate(33.608 34.906)"><g transform="translate(3.957 2.055)"><path class="d" d="M0,2.466A2.894,2.894,0,0,0,2.672,5.343,2.882,2.882,0,0,0,5.549,2.877,2.894,2.894,0,0,0,2.877,0,2.613,2.613,0,0,0,0,2.466Z" transform="translate(0 0)"/></g><path class="d" d="M.052,2.671C.463,3.082,2.519,1.438,5.4,1.644c2.877,0,5.138,1.438,5.343,1.233s-.206-.822-1.028-1.438A7.634,7.634,0,0,0,5.4,0,8.273,8.273,0,0,0,1.08,1.233C.258,1.849-.153,2.466.052,2.671Z"/></g><g transform="translate(15.235 34.079)"><path class="d" d="M7.537,24.458c0-.205-1.85-.411-4.727-.822-.822,0-1.439-.206-1.644-.822a3.443,3.443,0,0,1,.617-2.26C2.6,18.7,3.221,16.855,4.043,14.8,7.126,6.786,9.592,0,9.181,0,8.77-.2,6.1,6.375,2.81,14.389c-.822,2.055-1.439,3.9-2.261,5.754-.206.822-.822,1.849-.411,2.877a1.518,1.518,0,0,0,1.233,1.027,2.607,2.607,0,0,0,1.233.206C5.687,24.664,7.537,24.664,7.537,24.458Z" transform="translate(0 0)"/></g><g transform="translate(20.304 86.073)"><path class="i" d="M0,7.192A54.994,54.994,0,0,0,28.567,0S21.579,14.59.206,12.329Z"/></g><g transform="translate(23.664 63.841)"><path class="i" d="M.341,1.888A5.033,5.033,0,0,1,5.067.039,5.34,5.34,0,0,1,8.356,1.888a3.111,3.111,0,0,1,.206,3.493,3.8,3.8,0,0,1-3.9,1.027,11.188,11.188,0,0,1-3.7-2.26C.546,3.943.341,3.532.135,3.326A1.217,1.217,0,0,1,.341,1.888Z" transform="translate(0 0)"/></g><g transform="translate(21.947 60.797)"><path class="d" d="M9.454,0c-.411,0-.617,3.082-3.288,5.343S0,7.192,0,7.6c0,.205.822.616,2.261.616A8.882,8.882,0,0,0,7.4,6.576,6.7,6.7,0,0,0,9.865,2.055C10.07.616,9.659,0,9.454,0Z"/></g></g><path class="d" d="M60.719,15.459c-7.81,11.1-28.362,22.6-43.159,25.07C19.2,38.268,28.247,32.72,30.1,30.459,23.315,35.391,13.861,42.172,5.024,42.583a7.492,7.492,0,0,1-3.083-.411C.708,41.556.5,40.117.3,38.884A86.852,86.852,0,0,1,.913,19.568,22.12,22.12,0,0,1,8.518,5.8C14.272,1.485,22.287.252,30.1.047,36.468-.159,43.25.252,49,2.513,54.965,4.773,59.9,9.5,60.719,14.842" transform="translate(0 0)"/><g transform="translate(42.865 2.346)"><path class="d" d="M40.254,62.636a130.311,130.311,0,0,0,2.055-14.179C42.926,37.566,39.843-2.915,2.028.167L.589,11.674s-5.755,39.454,18.7,39.66c0,0,1.439,11.713,12.537,23.22C31.417,74.76,37.994,74.555,40.254,62.636Z" transform="translate(0 0)"/></g><g transform="translate(60.925 53.628)"><path class="j" d="M1.028.257A10.925,10.925,0,0,1,7.81.873a8.892,8.892,0,0,1,4.932,4.521,9.627,9.627,0,0,1,0,6.781,15.9,15.9,0,0,1-3.9,5.754A8.941,8.941,0,0,1,4.727,20.6,5.434,5.434,0,0,1,0,19.778"/></g><g transform="translate(62.95 56.762)"><path class="i" d="M.03,10.891c-.206,0,.617,1.438,2.877,1.027a4.066,4.066,0,0,0,2.672-2.26,9.82,9.82,0,0,0,1.233-3.7,7.076,7.076,0,0,0-.822-4.11A4.155,4.155,0,0,0,3.113,0C1.058,0,.236,1.438.441,1.438c.206.205,1.028-.616,2.466-.206,1.439.205,2.672,2.055,2.261,4.521-.206,2.26-1.233,4.521-2.466,4.932C1.264,11.3.236,10.685.03,10.891Z" transform="translate(0)"/></g></g><path class="d" d="M3.232,16.828a13.121,13.121,0,0,0,9.659,1.233A12.72,12.72,0,0,0,20.7,12.1a9.351,9.351,0,0,0,1.233-6.165C21.112,3.06,18.441,1.211,15.563.389A13.174,13.174,0,0,0,3.643,3.265,11.313,11.313,0,0,0,.56,14.978a10.183,10.183,0,0,0,9.865,6.781" transform="translate(86.368 0.022)"/><path class="d" d="M12.609,0a28.2,28.2,0,0,0-5.96,5.137C5.005,7.192,3.772,9.658,4.183,12.329a15.383,15.383,0,0,1,.411,4.315c-.206,2.055-1.85,3.493-3.083,5.137C-1.16,26.1-.133,32.262,3.361,35.961s8.837,5.548,13.975,5.754c3.083,0,6.166-.411,8.632-2.055,3.494-2.466,4.932-7.192,4.932-11.507" transform="translate(80.485 78.292)"/><g transform="translate(72.95 25.475)"><path class="n" d="M22.612.005c.206,0-.617,1.644-2.261,3.9a58.224,58.224,0,0,1-7.193,8.014,51.812,51.812,0,0,1-9.043,5.959A22.414,22.414,0,0,1,0,19.527C-.2,19.116,6.17,16.65,12.541,11.1,18.707,5.554,22.406-.2,22.612.005Z" transform="translate(0 0)"/></g><g transform="translate(81.787 25.272)"><path class="n" d="M17.679,0c.206,0,0,2.055-.617,5.137a49.674,49.674,0,0,1-4.727,11.713,40.586,40.586,0,0,1-8.015,9.658A21.446,21.446,0,0,1,0,29.594c-.206-.205,6.371-4.932,11.509-13.357C16.446,7.812,17.474-.2,17.679,0Z" transform="translate(0 0)"/></g><g transform="translate(17.219 42.331)"><path class="n" d="M.246,0C.657,0,1.068,3.493,2.1,7.809c1.233,4.11,2.672,7.4,2.466,7.6S2.3,12.535,1.068,8.22C-.165,3.7-.165,0,.246,0Z"/></g><g transform="translate(99.653 47.263)"><path class="n" d="M8.446,67.812a6.2,6.2,0,0,0,3.083,1.027,5.689,5.689,0,0,0,3.7-1.233A6.622,6.622,0,0,0,17.9,63.5a15.526,15.526,0,0,0,0-6.165,52.572,52.572,0,0,0-2.055-6.987,15.716,15.716,0,0,1-.822-8.22c.411-3.082,2.466-5.548,3.288-8.22a9.847,9.847,0,0,0-.617-8.014,10.354,10.354,0,0,0-5.549-5.137,18.22,18.22,0,0,1-3.494-1.644,8.367,8.367,0,0,1-2.877-2.466,12.538,12.538,0,0,1-1.233-6.37c0-2.055.206-3.7-.206-5.137A7.909,7.909,0,0,0,2.691,1.644,4.492,4.492,0,0,0,.02,0H.842A5.8,5.8,0,0,1,3.1,1.438a7.817,7.817,0,0,1,1.85,3.7,22.556,22.556,0,0,1,.411,5.343c0,1.849,0,4.11,1.233,5.959s3.494,2.671,5.96,3.7a10.83,10.83,0,0,1,6.166,5.548c1.233,2.671,1.85,5.959.617,8.836-1.028,2.877-2.877,5.343-3.288,8.014a19.888,19.888,0,0,0,.822,7.809,55.066,55.066,0,0,1,2.055,7.192,14.148,14.148,0,0,1-.206,6.576,8.148,8.148,0,0,1-3.083,4.521,6.193,6.193,0,0,1-3.9,1.027,3.475,3.475,0,0,1-2.466-.822A11.832,11.832,0,0,0,8.446,67.812Z" transform="translate(0 0)"/></g><g transform="translate(93.186 78.497)"><path class="n" d="M.114,35.139a2.007,2.007,0,0,0,1.233,1.027,3.416,3.416,0,0,0,3.9-1.027,6.024,6.024,0,0,0-.411-6.37c-1.233-2.26-3.494-4.521-4.11-8.014a5.011,5.011,0,0,1,1.233-4.726c1.028-1.233,2.261-2.055,2.877-3.082C6.485,10.891,6.485,8.425,6.28,6.37A19.393,19.393,0,0,0,5.047,1.644C4.636.616,4.43,0,4.636,0a9.8,9.8,0,0,1,.822,1.644A16.184,16.184,0,0,1,6.9,6.37a8.615,8.615,0,0,1-1.439,7.192C4.636,14.8,3.4,15.617,2.58,16.645a4.349,4.349,0,0,0-.822,3.9c.411,2.877,2.672,5.137,3.9,7.809,1.233,2.466,1.439,5.548,0,7.4a3.235,3.235,0,0,1-2.672,1.438,4.066,4.066,0,0,1-2.261-.411C-.091,35.961-.091,35.139.114,35.139Z" transform="translate(0)"/></g><g transform="translate(6.779 56.51)"><path class="n" d="M5.96,51.784,4.316,50.14A19.965,19.965,0,0,1,.822,44.8,10.452,10.452,0,0,1,0,40.276a7.76,7.76,0,0,1,1.85-4.932c1.233-1.438,3.083-2.26,4.316-3.7S7.4,28.358,6.988,26.3A24.547,24.547,0,0,0,4.727,20.96a23.965,23.965,0,0,1-2.055-5.343A6.249,6.249,0,0,1,3.7,10.48,24.081,24.081,0,0,1,6.782,7.192C8.837,5.548,10.07,3.7,10.276,2.26S10.07,0,10.276,0a2.543,2.543,0,0,1,.411.616,4.56,4.56,0,0,1,.206,1.849A9.953,9.953,0,0,1,7.4,8.014,15.027,15.027,0,0,0,4.521,11.3,5.706,5.706,0,0,0,3.7,15.823,14.919,14.919,0,0,0,5.755,20.96a30.233,30.233,0,0,1,2.466,5.754c.411,2.055.411,4.521-1.028,6.165s-3.288,2.26-4.316,3.7a7.067,7.067,0,0,0-1.644,4.315A13.248,13.248,0,0,0,1.85,45a20.106,20.106,0,0,0,3.288,5.343C5.343,50.962,5.96,51.578,5.96,51.784Z"/></g><g transform="translate(86.932 10.811)"><path class="o" d="M11.509,8.71c-.206.205-1.644-3.082-4.932-5.343C3.288.9,0,.285,0,.08S3.7-.126,7.193,2.545,11.715,8.71,11.509,8.71Z" transform="translate(0 0)"/></g><g transform="translate(97.207)"><path class="n" d="M4.11,0c.206,0,.822.822,1.439,2.26a11.507,11.507,0,0,1,.206,6.576,11.255,11.255,0,0,1-3.494,5.548C1.028,15.412,0,15.823,0,15.617S.822,15,1.85,13.768A16.949,16.949,0,0,0,4.932,8.631a14.922,14.922,0,0,0,.206-5.959C4.316.822,3.9,0,4.11,0Z"/></g></g><path class="p" d="M0,11.713s50.969,48.5,81.385,39.66,39.254-31.646,39.254-31.646l.822-8.22-3.083-2.055L1.439,0Z" transform="translate(63.711 241.04)"/><g transform="translate(0 120.417)"><g transform="translate(31.651 4.726)"><path class="i" d="M0,25.275,9.865,0,45.214,22.193,13.77,70.689S1.028,54.044,0,25.275Z" transform="translate(1.851 56.921)"/><path class="h" d="M41.72,12.329C58.162,3.7,79.33,1.233,79.33,1.233c6.166,12.329,25.69,13.973,37.4,5.548L126.6,0s1.439,0,4.11.206a53.022,53.022,0,0,1,47.064,42.331c1.644,8.22,3.083,17.878,2.466,26.714-1.233,22.4-24.457,24.453-24.457,24.453s-1.233,22.193-2.672,40.071c-1.233,13.357-8.015,23.426-20.346,28.974-9.043,4.11-14.181,6.165-25.9,8.014a87.4,87.4,0,0,1-77.275-26.714c3.494-21.371,6.988-49.112,6.577-50.345v-.411L13.153,72.744,0,61.853C.206,61.853,28.773,19.316,41.72,12.329Z"/></g><g transform="translate(65.766 28.358)"><path class="f" d="M36.171,2.671a11.826,11.826,0,0,0-5.755-1.644,9.968,9.968,0,0,0-5.96,2.055c-.822.822-1.644,1.849-2.672,2.877a5.986,5.986,0,0,1-3.7,2.466A5.2,5.2,0,0,1,13.77,7.192c-1.233-.822-2.261-1.644-3.288-2.26a7.775,7.775,0,0,0-5.96-.616A8.035,8.035,0,0,0,1.028,6.781C.411,7.6.206,8.22,0,8.014A3.611,3.611,0,0,1,.617,6.37,8.648,8.648,0,0,1,4.11,3.493a7.293,7.293,0,0,1,6.782.411c1.233.616,2.261,1.438,3.288,2.055a5.381,5.381,0,0,0,3.494,1.027,6.314,6.314,0,0,0,3.083-2.055,12.731,12.731,0,0,1,2.877-2.877A10.352,10.352,0,0,1,30.211,0a7.187,7.187,0,0,1,4.316,1.233C35.76,2.055,36.171,2.466,36.171,2.671Z" transform="translate(0)"/></g><g transform="translate(89.4 52.774)"><path class="f" d="M35.966,8.874c-.206.205-1.439-2.055-4.932-3.288a9.032,9.032,0,0,0-6.166,0,26.512,26.512,0,0,0-3.288,1.849,7.6,7.6,0,0,1-4.316,1.233,5.986,5.986,0,0,1-3.7-2.466C12.742,5.175,11.92,3.942,11.1,3.12A6.954,6.954,0,0,0,5.549.654a6.965,6.965,0,0,0-4.11,1.233C.617,2.5.206,2.914,0,2.914A2.9,2.9,0,0,1,1.028,1.681,8.571,8.571,0,0,1,5.343.037,7.722,7.722,0,0,1,11.715,2.5l2.466,3.082a5.186,5.186,0,0,0,3.083,2.055,6.342,6.342,0,0,0,3.7-1.027,28.706,28.706,0,0,1,3.494-1.849,9.512,9.512,0,0,1,6.782.206,7.822,7.822,0,0,1,3.7,2.671A2.9,2.9,0,0,1,35.966,8.874Z" transform="translate(0 0)"/></g><g transform="translate(143.247 15.647)"><path class="f" d="M34.116,1a14.31,14.31,0,0,0-5.96-.411,9.359,9.359,0,0,0-5.343,3.288,22.941,22.941,0,0,0-2.055,3.288,7.839,7.839,0,0,1-3.083,3.288,6.708,6.708,0,0,1-4.521-.206c-1.233-.411-2.466-1.027-3.7-1.438a6.543,6.543,0,0,0-5.96.822A7.7,7.7,0,0,0,.617,12.711,12.218,12.218,0,0,0,0,14.149a9.308,9.308,0,0,1,.206-1.644A7.236,7.236,0,0,1,3.083,9.012,8.236,8.236,0,0,1,9.865,7.984c1.233.411,2.466,1.027,3.7,1.438a5.729,5.729,0,0,0,3.7.205,5.621,5.621,0,0,0,2.672-2.671A19.513,19.513,0,0,1,21.99,3.464,9.257,9.257,0,0,1,27.95.176a10.4,10.4,0,0,1,4.521.205A3.178,3.178,0,0,1,34.116,1Z" transform="translate(0 0)"/></g><g transform="translate(125.778 42.331)"><path class="f" d="M27.539,8.014c-.206.205-1.028-1.644-3.7-2.671a9.02,9.02,0,0,0-4.727-.205A28.606,28.606,0,0,0,16.441,6.37a6.3,6.3,0,0,1-3.494.822A5,5,0,0,1,10.07,5.137c-.617-.822-1.233-1.849-1.644-2.466A5.054,5.054,0,0,0,4.316.616,6.964,6.964,0,0,0,0,2.055,4.562,4.562,0,0,1,.822,1.027,6.39,6.39,0,0,1,4.316,0,6.792,6.792,0,0,1,9.248,2.26L11.1,4.726A3.656,3.656,0,0,0,13.359,6.37c1.85.411,3.7-1.438,5.549-1.849a7.7,7.7,0,0,1,5.343.411C27.128,6.165,27.745,8.22,27.539,8.014Z"/></g><g transform="translate(72.959 70.894)"><path class="f" d="M27.539,8.014c-.206.205-1.028-1.644-3.7-2.671a9.021,9.021,0,0,0-4.727-.206A28.608,28.608,0,0,0,16.441,6.37a6.3,6.3,0,0,1-3.494.822A5,5,0,0,1,10.07,5.137c-.617-.822-1.233-1.849-1.644-2.466A5.054,5.054,0,0,0,4.316.616,6.964,6.964,0,0,0,0,2.055,4.562,4.562,0,0,1,.822,1.027,6.39,6.39,0,0,1,4.316,0,6.792,6.792,0,0,1,9.248,2.26L11.1,4.726A3.657,3.657,0,0,0,13.359,6.37c1.85.411,3.7-1.438,5.549-1.849a7.7,7.7,0,0,1,5.343.411A5.355,5.355,0,0,1,27.539,8.014Z"/></g><g transform="translate(121.872 77.265)"><path class="f" d="M27.95,2.26a8.983,8.983,0,0,0-4.316-1.233,6.586,6.586,0,0,0-4.521,1.438,19.375,19.375,0,0,0-2.055,2.055A5.242,5.242,0,0,1,13.975,6.37a5.052,5.052,0,0,1-3.494-1.027L8.015,3.493a5.21,5.21,0,0,0-4.521-.616A6.474,6.474,0,0,0,0,5.548,3.181,3.181,0,0,1,.411,4.315a6.963,6.963,0,0,1,2.877-2.26,6.227,6.227,0,0,1,5.343.411L11.1,4.315a3.237,3.237,0,0,0,2.672.822c1.85-.205,3.083-2.466,4.727-3.7A8.551,8.551,0,0,1,23.635,0C26.923.411,28.156,2.26,27.95,2.26Z"/></g><g transform="translate(105.638 99.869)"><path class="f" d="M27.95,2.26a8.983,8.983,0,0,0-4.316-1.233,6.586,6.586,0,0,0-4.521,1.438,19.375,19.375,0,0,0-2.055,2.055A5.242,5.242,0,0,1,13.975,6.37a5.052,5.052,0,0,1-3.494-1.027L8.015,3.493a5.21,5.21,0,0,0-4.521-.616A6.474,6.474,0,0,0,0,5.548,3.18,3.18,0,0,1,.411,4.315a6.963,6.963,0,0,1,2.877-2.26,6.227,6.227,0,0,1,5.343.411L11.1,4.315a3.237,3.237,0,0,0,2.672.822c1.85-.205,3.083-2.466,4.727-3.7A8.551,8.551,0,0,1,23.635,0C26.717.411,27.95,2.055,27.95,2.26Z" transform="translate(0 0)"/></g><g transform="translate(71.52 150.008)"><path class="f" d="M27.539,8.014c-.206.205-1.028-1.644-3.7-2.671a7.412,7.412,0,0,0-4.727,0,28.606,28.606,0,0,0-2.672,1.233,6.3,6.3,0,0,1-3.494.822A5,5,0,0,1,10.07,5.343,17.141,17.141,0,0,1,8.426,2.877,5.054,5.054,0,0,0,4.316.822C1.439.822.206,2.466,0,2.26A4.562,4.562,0,0,1,.822,1.233,6.126,6.126,0,0,1,4.11,0,6.511,6.511,0,0,1,9.043,2.055l1.85,2.466a4.31,4.31,0,0,0,2.261,1.644C15,6.37,16.853,4.726,18.7,4.11a7.7,7.7,0,0,1,5.343.411A6.574,6.574,0,0,1,27.539,8.014Z"/></g><g transform="translate(111.392 168.022)"><path class="f" d="M27.95,1.919A10.474,10.474,0,0,0,23.635.48a7.558,7.558,0,0,0-4.521,1.233,19.375,19.375,0,0,0-2.055,2.055,5.242,5.242,0,0,1-3.083,1.849A4.246,4.246,0,0,1,10.687,4.59L8.221,2.741A5.21,5.21,0,0,0,3.7,2.124,7.646,7.646,0,0,0,0,4.8,2.467,2.467,0,0,1,.617,3.563,5.475,5.475,0,0,1,3.494,1.508a5.688,5.688,0,0,1,5.343.616L11.3,3.974a3.237,3.237,0,0,0,2.672.822C15.825,4.59,17.058,2.33,18.7,1.3A7.106,7.106,0,0,1,23.84.069C26.923.275,28.156,1.919,27.95,1.919Z" transform="translate(0 0)"/></g><path class="d" d="M6.371,0C7.6,1.438,52.818,61.853,52.818,61.853l-6.371,3.7L0,5.959Z"/><path class="j" d="M168.327,14.694S125.99,87.848,123.113,89.081c-5.549,2.671-70.7-53.633-76.864-58.976-.822-1.233-2.672-3.493-6.166-8.425,0,0-5.138-23.426-10.687-21.577s3.083,11.918-.617,20.755C25.286,29.695,8.844,8.529,8.228,6.68L4.117,1.131S-.2,13.666.007,18.8C1.035,35.654,16.86,55.381,16.86,55.381S81.187,136.139,130.1,138.81c13.975.822,40.9-39.66,57.545-69.456,10.07-18.083,5.343-36.372-11.3-48.5Z" transform="translate(14.38 28.459)"/><g transform="translate(16.21 38.016)"><path class="i" d="M6.192,12.329c-.206,0-1.85-2.466-3.7-5.959C.848,2.877-.179,0,.026,0S1.465,2.877,3.109,6.165C4.958,9.658,6.4,12.329,6.192,12.329Z" transform="translate(0)"/></g><path class="h" d="M41.1,0C39.459,1.027,0,74.182,0,74.182l50.763,39.66S63.916,81.374,70.9,54.866c1.85-7.192.822-26.3-1.85-33.7-3.7-10.48-9.454-7.809-18.086-13.973Z" transform="translate(139.548 22.81)"/><g class="q" transform="translate(138.725 20.755)"><path class="r" d="M58.573,2.055s-.411-.205-1.439-.822A11.278,11.278,0,0,0,52.613.206c-2.055,0-4.316,1.027-6.577,2.671a28.279,28.279,0,0,0-6.577,7.192c-2.055,2.877-3.9,6.576-6.166,10.275-2.055,3.7-4.316,7.809-6.782,11.918-4.727,8.425-10.07,17.672-15.619,27.33C7.6,65.552,4.316,71.1,1.233,76.443l-.206-.616C14.8,86.717,26.717,96.17,35.349,102.951c4.11,3.288,7.6,5.959,9.865,8.014,1.028.822,2.055,1.644,2.672,2.26a2.461,2.461,0,0,1,.822.822,10.685,10.685,0,0,1-1.028-.617c-.617-.616-1.644-1.233-2.672-2.055-2.466-1.849-5.96-4.521-10.07-7.809C26.306,96.786,14.181,87.539.411,76.648L0,76.443l.206-.411c3.083-5.343,6.371-11.1,9.659-16.85,5.549-9.658,10.892-18.905,15.619-27.125,2.466-4.11,4.727-8.22,6.782-11.918,2.261-3.7,4.11-7.192,6.166-10.275a46.2,46.2,0,0,1,6.782-7.192C47.68,1.027,50.146,0,52.2,0a7.931,7.931,0,0,1,4.521,1.233c.411.205.822.616,1.028.616C58.573,1.849,58.573,2.055,58.573,2.055Z"/></g><g transform="translate(154.755 83.429)"><path class="f" d="M27.539,8.014c-.206.205-1.028-1.644-3.7-2.671a9.021,9.021,0,0,0-4.727-.205A28.605,28.605,0,0,0,16.441,6.37a6.3,6.3,0,0,1-3.494.822A5,5,0,0,1,10.07,5.137c-.617-.822-1.233-1.849-1.644-2.466A5.054,5.054,0,0,0,4.316.616,6.964,6.964,0,0,0,0,2.055,4.562,4.562,0,0,1,.822,1.027,6.391,6.391,0,0,1,4.316,0,6.792,6.792,0,0,1,9.248,2.26L11.1,4.726A3.656,3.656,0,0,0,13.359,6.37c1.85.411,3.7-1.438,5.549-1.849a7.7,7.7,0,0,1,5.343.411A5.355,5.355,0,0,1,27.539,8.014Z"/></g><g transform="translate(180.444 67.793)"><path class="f" d="M25.073,14.2A10.462,10.462,0,0,0,22.2,10.7a7.412,7.412,0,0,0-4.521-1.438,18.241,18.241,0,0,0-2.877.616A5.188,5.188,0,0,1,11.3,9.677,5.119,5.119,0,0,1,9.043,6.8c-.411-1.027-.617-2.055-1.028-2.877A5.2,5.2,0,0,0,4.521.84,7.692,7.692,0,0,0,0,1.046,1.518,1.518,0,0,1,1.028.429,4.861,4.861,0,0,1,4.521.224a6.145,6.145,0,0,1,4.11,3.493c.411,1.027.617,1.849,1.028,2.877A3.861,3.861,0,0,0,11.3,8.855c1.644.822,3.9-.411,5.96-.411A7.193,7.193,0,0,1,22.2,10.293C25.073,12.142,25.073,14.2,25.073,14.2Z" transform="translate(0 0)"/></g><g transform="translate(181.472 37.586)"><path class="f" d="M25.073,14.2A10.462,10.462,0,0,0,22.2,10.7a7.412,7.412,0,0,0-4.521-1.438,18.241,18.241,0,0,0-2.877.617A5.188,5.188,0,0,1,11.3,9.677,5.119,5.119,0,0,1,9.043,6.8c-.411-1.027-.617-2.055-1.028-2.877A5.2,5.2,0,0,0,4.521.84,7.692,7.692,0,0,0,0,1.046,1.518,1.518,0,0,1,1.028.43,4.861,4.861,0,0,1,4.521.224a6.145,6.145,0,0,1,4.11,3.493c.411,1.027.617,1.849,1.028,2.877A3.861,3.861,0,0,0,11.3,8.855c1.644.822,3.9-.411,5.96-.411A7.193,7.193,0,0,1,22.2,10.293C25.073,11.937,25.279,14.2,25.073,14.2Z" transform="translate(0 0)"/></g><g transform="translate(170.376 107.042)"><path class="f" d="M25.073,14.2A10.463,10.463,0,0,0,22.2,10.7a7.412,7.412,0,0,0-4.521-1.438,18.241,18.241,0,0,0-2.877.616A5.188,5.188,0,0,1,11.3,9.677,5.119,5.119,0,0,1,9.043,6.8c-.411-1.027-.617-2.055-1.028-2.877A5.2,5.2,0,0,0,4.521.841,7.691,7.691,0,0,0,0,1.046,1.518,1.518,0,0,1,1.028.43,4.861,4.861,0,0,1,4.521.224a6.145,6.145,0,0,1,4.11,3.493c.411,1.027.617,1.849,1.028,2.877A3.861,3.861,0,0,0,11.3,8.855c1.644.822,3.9-.411,5.96-.411A7.193,7.193,0,0,1,22.2,10.293C25.073,12.143,25.073,14.2,25.073,14.2Z" transform="translate(0 0)"/></g></g></g></svg>