<svg xmlns="http://www.w3.org/2000/svg" width="20" height="20" viewBox="0 0 20 20"><defs><style>.a{fill:#f4b844;}.b{fill:#fff;}.c{fill:#f6b333;}</style></defs><path class="a" d="M10,0A10,10,0,1,1,0,10,10,10,0,0,1,10,0Z" transform="translate(0)"/><circle class="b" cx="7.474" cy="7.474" r="7.474" transform="translate(2.526 2.526)"/><path class="c" d="M162.307,131.529H161.4a2.624,2.624,0,0,0-.49-.981h1.4a.49.49,0,1,0,0-.981h-4.757a.49.49,0,1,0,0,.981h1.373a1.717,1.717,0,0,1,1.471.981h-2.844a.49.49,0,1,0,0,.981h2.844a2.085,2.085,0,0,1-.392.687,1.643,1.643,0,0,1-1.079.539h-1.373a.46.46,0,0,0-.343.809l3.408,3.212a.588.588,0,0,0,.343.123.49.49,0,0,0,.343-.147.441.441,0,0,0,0-.662l-2.526-2.354h.147a2.6,2.6,0,0,0,1.79-.834,2.82,2.82,0,0,0,.687-1.373h.907a.49.49,0,0,0,0-.981Z" transform="translate(-149.928 -123.735)"/></svg>