<svg xmlns="http://www.w3.org/2000/svg" xmlns:xlink="http://www.w3.org/1999/xlink" width="392.999" height="201.288" viewBox="0 0 392.999 201.288"><defs><style>.a{fill:none;}.b{fill:#f5f5f5;}.c{fill:#97b8e1;}.d{fill:#e7f1fd;}.e{fill:#08367a;}.f{fill:#2a5798;}.aa,.g{fill:#fff;}.h,.j{fill:#c98400;}.i{fill:#f6b333;}.aa,.j{opacity:0.4;}.k{fill:#e4a11f;}.l{fill:#cacfd5;}.m{fill:#e9f3fe;}.n{fill:#295698;}.o{fill:#1c1b1b;}.p{fill:#110e0e;}.q{fill:#ffb27d;}.r{fill:#1b4582;}.s{fill:#699dee;}.t{fill:#afcdfb;}.u{clip-path:url(#a);}.v{fill:#e49963;}.w{fill:#d68d5d;}.x{fill:#82b479;}.y{fill:#d86713;}.z{fill:#0d0c0c;}.ab{fill:#283250;}</style><clipPath id="a"><path class="a" d="M959.753,360.873H937.8l6.874-27.582h21.957Z" transform="translate(-937.796 -333.291)"/></clipPath></defs><g transform="translate(-168.322 -262.988)"><g transform="translate(487.706 281.42)"><rect class="b" width="13.361" height="28.6" transform="translate(0 26.429)"/><rect class="b" width="16.418" height="27.634" transform="translate(13.916 57.028)"/><path class="b" d="M487,60.9h15.59V35.533h.555V60.9h14.429V34.97H487Z" transform="translate(-454.663 -34.97)"/><rect class="b" width="13.361" height="27.634" transform="translate(0 57.028)"/><rect class="b" width="14.429" height="27.634" transform="translate(48.476 57.028)"/><rect class="b" width="16.418" height="28.6" transform="translate(13.916 26.429)"/><rect class="b" width="14.429" height="28.6" transform="translate(48.476 26.429)"/><rect class="b" width="13.361" height="24.902" transform="translate(0 85.156)"/><path class="b" d="M421.693,60.9V35.533h.555V60.9h16.418V34.97H408.332V60.9Z" transform="translate(-408.332 -34.97)"/><rect class="b" width="16.418" height="24.902" transform="translate(13.916 85.156)"/><rect class="b" width="14.429" height="24.902" transform="translate(48.476 85.156)"/><rect class="b" width="15.59" height="28.6" transform="translate(32.332 26.429)"/><rect class="b" width="15.59" height="24.902" transform="translate(32.332 85.156)"/><rect class="b" width="15.59" height="27.634" transform="translate(32.332 57.028)"/></g><g transform="translate(422.592 281.42)"><rect class="b" width="13.361" height="28.6" transform="translate(0 26.429)"/><rect class="b" width="16.418" height="27.634" transform="translate(13.916 57.028)"/><path class="b" d="M328.569,60.9h15.59V35.533h.555V60.9h14.429V34.97H328.569Z" transform="translate(-296.237 -34.97)"/><rect class="b" width="13.361" height="27.634" transform="translate(0 57.028)"/><rect class="b" width="14.429" height="27.634" transform="translate(48.476 57.028)"/><rect class="b" width="16.418" height="28.6" transform="translate(13.916 26.429)"/><rect class="b" width="14.429" height="28.6" transform="translate(48.476 26.429)"/><rect class="b" width="13.361" height="24.902" transform="translate(0 85.156)"/><path class="b" d="M263.267,60.9V35.533h.555V60.9H280.24V34.97H249.906V60.9Z" transform="translate(-249.906 -34.97)"/><rect class="b" width="16.418" height="24.902" transform="translate(13.916 85.156)"/><rect class="b" width="14.429" height="24.902" transform="translate(48.476 85.156)"/><rect class="b" width="15.59" height="28.6" transform="translate(32.332 26.429)"/><rect class="b" width="15.59" height="24.902" transform="translate(32.332 85.156)"/><rect class="b" width="15.59" height="27.634" transform="translate(32.332 57.028)"/></g><g transform="translate(168.322 281.42)"><rect class="b" width="13.361" height="28.6" transform="translate(0 26.429)"/><rect class="b" width="16.418" height="27.634" transform="translate(13.916 57.028)"/><path class="b" d="M328.569,60.9h15.59V35.533h.555V60.9h14.429V34.97H328.569Z" transform="translate(-296.237 -34.97)"/><rect class="b" width="13.361" height="27.634" transform="translate(0 57.028)"/><rect class="b" width="14.429" height="27.634" transform="translate(48.476 57.028)"/><rect class="b" width="16.418" height="28.6" transform="translate(13.916 26.429)"/><rect class="b" width="14.429" height="28.6" transform="translate(48.476 26.429)"/><rect class="b" width="13.361" height="24.902" transform="translate(0 85.156)"/><path class="b" d="M263.267,60.9V35.533h.555V60.9H280.24V34.97H249.906V60.9Z" transform="translate(-249.906 -34.97)"/><rect class="b" width="16.418" height="24.902" transform="translate(13.916 85.156)"/><rect class="b" width="14.429" height="24.902" transform="translate(48.476 85.156)"/><rect class="b" width="15.59" height="28.6" transform="translate(32.332 26.429)"/><rect class="b" width="15.59" height="24.902" transform="translate(32.332 85.156)"/><rect class="b" width="15.59" height="27.634" transform="translate(32.332 57.028)"/></g><g transform="translate(440.162 372.678)"><g transform="translate(0 0)"><path class="c" d="M0,0H24.493V91.269H0Z" transform="translate(35.929 91.269) rotate(180)"/><rect class="d" width="17.997" height="91.269" transform="translate(17.997 91.269) rotate(180)"/></g><circle class="c" cx="4.017" cy="4.017" r="4.017" transform="translate(5.284 77.582)"/><g transform="translate(35.929 0)"><g transform="translate(0)"><path class="e" d="M0,0H24.493V91.269H0Z" transform="translate(35.929 91.269) rotate(180)"/><path class="f" d="M0,0H18V91.269H0Z" transform="translate(17.997 91.269) rotate(180)"/></g></g><circle class="e" cx="4.017" cy="4.017" r="4.017" transform="translate(41.212 77.582)"/><rect class="g" width="8.035" height="47.905" transform="translate(41.212 9.289)"/><g transform="translate(71.436 0)"><g transform="translate(0)"><rect class="h" width="24.493" height="91.269" transform="translate(35.929 91.269) rotate(180)"/><rect class="i" width="17.997" height="91.269" transform="translate(17.997 91.269) rotate(180)"/></g></g><circle class="h" cx="4.017" cy="4.017" r="4.017" transform="translate(76.72 77.582)"/><rect class="g" width="8.035" height="47.905" transform="translate(76.72 9.289)"/><rect class="g" width="8.035" height="47.905" transform="translate(4.981 9.901)"/></g><g transform="translate(227.267 299.118)"><path class="h" d="M1387.544,900.9l8.635,102.68s.9,6.224-3.725,6.235c-7.612.018-37.889,0-37.889,0s5.729-1.3,5.66-4.211c-.082-3.436-10.093-105.676-10.093-105.676Z" transform="translate(-1262.675 -845.026)"/><path class="i" d="M1337.019,996.78c1.5,0,30.415.1,37.828,0,3.231-.04,3.8-2.872,3.824-4.705a9.2,9.2,0,0,0-.1-1.529l-.224-2.669-.573-6.8-.505-6.01-.65-7.722-.547-6.518-6.136-72.961-37.412-.971s4.217,42.787,7.2,73.932c.333,3.47.65,6.8.943,9.9q.143,1.487.275,2.905c.276,2.947.529,5.653.749,8.042.116,1.259.223,2.429.32,3.5.381,4.2.6,6.882.607,7.392a4.324,4.324,0,0,1-.073.831C1341.931,996.673,1337.581,996.78,1337.019,996.78Z" transform="translate(-1247.586 -833.853)"/><path class="i" d="M774.325,515.784H953.939L932.9,600.277l-2.88,11.572-9.8,39.354H738.215Z" transform="translate(-738.215 -515.784)"/><path class="h" d="M2045.436,515.783l2.915.972L2015.6,654.141l-3.876-2.939Z" transform="translate(-1829.711 -515.783)"/><path class="h" d="M924.107,1466.225H743.214l-5-2.939H920.231Z" transform="translate(-738.218 -1327.867)"/><rect class="h" width="39.166" height="1.861" transform="translate(83.198 162.968)"/><path class="h" d="M1390,1483.845l.2,1.423,36.833,7.441-.506-6.01-.241-2.855Z" transform="translate(-1296.847 -1345.488)"/><path class="j" d="M1363.963,1586.171c1.5,0,30.415.1,37.828,0,3.231-.04,3.8-2.873,3.824-4.706l-36.659-6.9c.38,4.2.6,6.883.606,7.392a4.306,4.306,0,0,1-.073.831C1368.875,1586.064,1364.525,1586.171,1363.963,1586.171Z" transform="translate(-1274.53 -1423.244)"/><path class="j" d="M1468.844,1277.049l77.59,26.6,6.626-26.619Z" transform="translate(-1364.421 -1168.234)"/><path class="k" d="M816.109,515.783H995.723l-27.071,108.8-181.687.034Z" transform="translate(-779.998 -515.783)"/></g><path class="h" d="M1340.661,1344.556a6.155,6.155,0,0,1,5.772-4.833,3.868,3.868,0,0,1,3.893,4.833,6.155,6.155,0,0,1-5.772,4.833A3.867,3.867,0,0,1,1340.661,1344.556Z" transform="translate(-986.548 -922.846)"/><path class="l" d="M846.237,654.861h168.174l19.045-75.87,1.46-5.818,1.246-4.963,2.921-11.637H873.333l-3.208,11.637-1.368,4.963-1.6,5.818Z" transform="translate(-603.531 -251.625)"/><path class="f" d="M1016.588,556.573h165.75l-2.921,11.637H1013.38Z" transform="translate(-746.786 -251.625)"/><g transform="translate(456.368 308.752)"><path class="m" d="M2128.761,583.191a1.1,1.1,0,0,1,1.092,1.455,1.987,1.987,0,0,1-1.818,1.455,1.1,1.1,0,0,1-1.092-1.455A1.987,1.987,0,0,1,2128.761,583.191Z" transform="translate(-2116.86 -583.191)"/><path class="m" d="M2094.942,583.191a1.1,1.1,0,0,1,1.093,1.455,1.988,1.988,0,0,1-1.818,1.455,1.1,1.1,0,0,1-1.092-1.455A1.987,1.987,0,0,1,2094.942,583.191Z" transform="translate(-2087.876 -583.191)"/><path class="m" d="M2056.709,584.646a1.988,1.988,0,0,1,1.818-1.455,1.1,1.1,0,0,1,1.092,1.455,1.987,1.987,0,0,1-1.818,1.455A1.1,1.1,0,0,1,2056.709,584.646Z" transform="translate(-2056.665 -583.191)"/></g><g transform="translate(168.322 331.551)"><g transform="translate(0 59.33)"><path class="n" d="M410.795,1590.232s-2.141,1.984-1.723,3.394,2.35,2.35,2.611,4.073,1.305,2.663,2.245,2.663h4.481s.692-1.212-.979-1.578-2.3-2.39-2.2-4.27a33.637,33.637,0,0,0-.157-4.386l-3.55-.835Z" transform="translate(-409.018 -1527.628)"/><path class="n" d="M616.892,1627.955h-11.9a1.059,1.059,0,0,1-.232-.07c-.793-.4-.546-3.43-.45-4.37.018-.174.032-.277.032-.277s4.178-3.341,4.752-.783c.018.08.039.158.062.235.722,2.394,3.965,3.482,5.838,3.785A2.04,2.04,0,0,1,616.892,1627.955Z" transform="translate(-576.303 -1555.225)"/><path class="o" d="M569.966,1180.855s-.634,7.915-1.38,17.429c-1.013,12.924-2.232,28.8-2.353,31.807-.208,5.222-1.045,13.576-1.045,13.576s-1.983,1.985-5.952,1.148a136.667,136.667,0,0,1-4.547-24.542c-.016-.207-.031-.415-.047-.623-.94-12.844-2.4-39.892-2.4-39.892Z" transform="translate(-531.771 -1176.625)"/><path class="p" d="M569.966,1180.855s-.634,7.915-1.38,17.429l-13.9,21.989c-.016-.207-.031-.415-.047-.623-.94-12.844-2.4-39.892-2.4-39.892Z" transform="translate(-531.771 -1176.625)"/><path class="o" d="M454.973,1163.008s-11.435,28.665-18.954,42.137-9.868,17.23-9.868,17.23-4.308-1.723-4.7-2.9c0,0,2.875-26.007,7.91-32.346,2.845-3.582,6.187-14.332,6.344-18.092s1.018-11.2,1.018-11.2Z" transform="translate(-419.675 -1157.839)"/></g><path class="q" d="M724.213,1138.636l.654,1.3a2.926,2.926,0,0,1,2.409,3.929s-.493,1.426-1.409.975-.465-.413-1.779-1.02a2.615,2.615,0,0,1-1.78-2.843l-.21-1.134Z" transform="translate(-677.351 -1082.05)"/><path class="q" d="M559.9,827.7a33.579,33.579,0,0,0,.524-4.781l-5.8-4.676a11.635,11.635,0,0,1-3.9,9.521s7.731,3.806,12.2,2.4A10.7,10.7,0,0,0,559.9,827.7Z" transform="translate(-530.463 -807.453)"/><path class="q" d="M575.245,777s-7.381,1.226-8.074-3.382-2.112-7.553,2.571-8.531,5.865.643,6.471,2.124S577.147,776.557,575.245,777Z" transform="translate(-543.921 -761.631)"/><path class="p" d="M555.081,755.017a7.639,7.639,0,0,1,6.874-7.163c4.606-.679,1.817-4.528,1.29-5.137,0,0-3.521.672-7.125,1.463C548.555,745.839,554.281,754.1,555.081,755.017Z" transform="translate(-531.781 -742.716)"/><path class="r" d="M575.553,942.321a12.633,12.633,0,0,0,1.719-2.33s-8.386-10.419-9.068-11.5-5.775-18.411-5.775-18.411l-12.879-2.609s10.75,22.179,12.531,24.882c2.943,4.468,11.747,11.118,11.747,11.118A5.3,5.3,0,0,0,575.553,942.321Z" transform="translate(-529.466 -883.925)"/><path class="f" d="M544.721,917.837a.723.723,0,0,1-.47.179c-1.678-.023-6.571.909-10.711.484a30.844,30.844,0,0,1-9.9-2.856c-.441-.2-1.455-.739-1.432-1.231.015-.539.068-1.321.136-2.306A123.325,123.325,0,0,0,522.591,896c-.072-1.265-.11-2.52-.114-3.756-.034-9.209,1.76-17.355,5.43-20.1.313-.225,2.269.761,4.037,1.634a5.914,5.914,0,0,0,4.319.475l2.035,1.472a15.424,15.424,0,0,1,4.833,7.72c.761,3.065,1.208,8.593,1.454,14.321.112,2.6.2,5.214.225,7.7v.089c.022.246.022.515.022.761C544.923,912.691,544.833,917.747,544.721,917.837Z" transform="translate(-506.033 -853.618)"/><path class="f" d="M523.162,994.455a123.314,123.314,0,0,0,.245-16.109c-.072-1.265-.11-2.52-.114-3.756,1.529-3.708,2.778-6.4,2.778-6.4h3.853S532.749,987.486,523.162,994.455Z" transform="translate(-506.848 -935.966)"/><g transform="translate(4.366 19.184)"><path class="q" d="M444.019,1153.7l-.731,1.261a2.926,2.926,0,0,1-1.966,4.168s-1.463.369-1.588-.645.091-.615-.122-2.047a2.615,2.615,0,0,1,1.4-3.047l.833-.8Z" transform="translate(-439.567 -1113.197)"/><path class="f" d="M445.708,917.791a12.627,12.627,0,0,0,2.892.161s4.119-12.724,4.649-13.887,12.235-14.92,12.235-14.92l-4.876-12.2s-12.66,21.147-13.946,24.118c-2.124,4.91-2.861,15.919-2.861,15.919A5.3,5.3,0,0,0,445.708,917.791Z" transform="translate(-443.196 -876.942)"/></g></g><g transform="translate(209.341 262.988)"><path class="d" d="M1020.432,473.149H941.92l26.84-108.584h78.511Z" transform="translate(-917.486 -350.047)"/><path class="d" d="M938.379,425.747H859.867l26.84-108.584h78.512Z" transform="translate(-847.16 -309.42)"/><path class="d" d="M849.467,371.572H770.956L797.8,262.988h78.512Z" transform="translate(-770.956 -262.988)"/><path class="s" d="M1045.424,364.565l-24.84,101.16-65.27.649,67.241,1.479Z" transform="translate(-928.964 -350.047)"/><path class="s" d="M961.623,317.162l-23.6,100.192-65.27.649,66.378,1.64Z" transform="translate(-858.204 -309.42)"/><path class="g" d="M959.753,360.873H937.8l6.874-27.582h21.957Z" transform="translate(-913.951 -323.243)"/><path class="t" d="M1206.238,337.1H1166.9l.968-3.811h39.34Z" transform="translate(-1110.309 -323.243)"/><path class="t" d="M1193.823,391.841h-39.34l.968-3.811h39.34Z" transform="translate(-1099.668 -370.159)"/><path class="t" d="M1180.844,446.58H1141.5l.968-3.811h39.34Z" transform="translate(-1088.544 -417.074)"/><path class="t" d="M1165.607,501.319h-39.34l.968-3.811h39.34Z" transform="translate(-1075.486 -463.99)"/><path class="t" d="M969.659,558.315H897.644l.968-3.811h72.015Z" transform="translate(-879.537 -512.84)"/><path class="t" d="M956.208,615.311H884.193l.968-3.811h72.015Z" transform="translate(-868.009 -561.69)"/><path class="t" d="M937.586,679.5H865.57l.968-3.811h72.015Z" transform="translate(-852.048 -616.702)"/><path class="t" d="M920.656,734.917H848.641l.968-3.811h72.015Z" transform="translate(-837.538 -664.202)"/><g transform="translate(23.845 10.048)"><g class="u"><g transform="translate(1.33 2.346)"><path class="v" d="M1100.7,542.826s1.288-.587,1.79-.408,1.866.768,1.836,1.358-2.219,1.244-3.68.529S1100.7,542.826,1100.7,542.826Z" transform="translate(-1078.154 -514.845)"/><path class="f" d="M1053.746,451.431a.874.874,0,0,1-.092.2c-.433.7-7.57.733-8.386.147-.364-.262-.476-3.873-.487-7.785-.014-4.837.124-10.135.124-10.135s2.792,1.3,2.928,2.891-1.038,11.181-.222,11.767,4.578.662,5.833,1.03A3.326,3.326,0,0,1,1053.746,451.431Z" transform="translate(-1030.82 -421.834)"/><path class="o" d="M1017.244,350.734a2.7,2.7,0,0,0-1.8-.592.871.871,0,0,1,.413-.134,2.886,2.886,0,0,0-1.056.134s-2.494-1.714-4.185,1.633c0,0,.247-.237.579-.5-.976,1.925-.649,5.071,1.532,5.905C1014.146,357.723,1022.249,355.946,1017.244,350.734Z" transform="translate(-1001.539 -349.703)"/><path class="v" d="M1022.467,410.693a4.086,4.086,0,0,1-2.544.132,3.252,3.252,0,0,1-1.449-1.8c.439-.03.638-.6.956-3.126l.188.063,3.166,1.065s-.207,1.013-.334,1.976C1022.344,409.809,1022.293,410.583,1022.467,410.693Z" transform="translate(-1008.273 -397.866)"/><path class="w" d="M1029.648,407.4s-.206,1.013-.333,1.976c-1.812-.287-2.558-2.07-2.832-3.041Z" transform="translate(-1015.137 -398.244)"/><path class="o" d="M1019.532,364.812a9.637,9.637,0,0,1-.82-2.946c-.044-.94.866-4.287,4.226-3.352a4.69,4.69,0,0,1,1.834.979c.678.6,1.61,1.821.026,4.639l-.442.964Z" transform="translate(-1008.476 -357.115)"/><path class="v" d="M1028.149,375.554s-4.311-.487-3.967-3.167.02-4.548,2.787-4.351,3.169,1.289,3.272,2.211S1029.28,375.612,1028.149,375.554Z" transform="translate(-1013.149 -365.404)"/><path class="r" d="M1054.028,461.227c-.036-.315.638-.461.761-.169a5.893,5.893,0,0,1,.256,1.725,10.83,10.83,0,0,1-.449,3.462Z" transform="translate(-1038.744 -445.008)"/><path class="o" d="M1022.7,365.753c-.559-.891-1.084-.781-1.4-.576-.75-1.51-3.948.118-3.948.118a5.161,5.161,0,0,1-2.066,2.807,3.589,3.589,0,0,0,2.589.355c1.47-.181,2.765-2.072,3.25-2.87a3.438,3.438,0,0,1,.793,1.392c.126.71.04,2.127.456,2.133C1022.379,369.113,1023.544,367.091,1022.7,365.753Z" transform="translate(-1005.545 -362.416)"/><path class="g" d="M1046.837,407.857s.036.351.89.408c0,0,.717.048.744-.329A2.308,2.308,0,0,0,1046.837,407.857Z" transform="translate(-1032.583 -399.455)"/><path class="x" d="M1055.091,507.209a.883.883,0,0,1-.092.2c-.434.7-7.57.733-8.386.147-.364-.262-.482-4.749.522-8.619.239,2.319-.2,6.954,1.015,7.332C1049.528,506.7,1053.285,506.711,1055.091,507.209Z" transform="translate(-1032.165 -477.612)"/><path class="f" d="M963.193,438.046c-2.833,8.179-1.542,9.659-2.554,10.367-.005,0-.849.245-.855.249-1.05.7-.945-.3-4.08.6a48.438,48.438,0,0,1-5.056,1.282,9.94,9.94,0,0,1-1.706.158c-.968-.012-1.658-.27-1.807-.944-.432-1.959,3.45-6.51,3.08-10.007,0-.03-.006-.061-.008-.09a3.755,3.755,0,0,1,.092-1.016c.4-1.873,1.948-4.468,3.491-6.656a22.542,22.542,0,0,1,3.512-4.239c3.328,2.607,3.885.871,3.885.871S964.16,435.257,963.193,438.046Z" transform="translate(-947.102 -416.594)"/><path class="f" d="M960.085,484.22h0c-1.05.7-1.247-.218-4.382.684a48.43,48.43,0,0,1-5.056,1.282,10.107,10.107,0,0,0-1.706.157c-.968-.012-1.658-.27-1.807-.944-.432-1.959,3.45-6.51,3.08-10.007,0-.03-.006-.06-.008-.09a3.168,3.168,0,0,1,.092-1.016c.357-1.416,1.617-2.839,3.109-4.956.691.95,6.836.749,4.329,8.928C956.969,480.765,959.969,482.182,960.085,484.22Z" transform="translate(-947.102 -452.233)"/><path class="v" d="M1031.35,576.049a4.493,4.493,0,0,1,1.942.183c.575.326,1.707,1.113,1.551,1.436s-1.618.316-2.182-.1-1.068-.047-1.778-.39S1031.35,576.049,1031.35,576.049Z" transform="translate(-1018.714 -543.673)"/><path class="r" d="M973.271,427.386s-4.9-.569-6.084,1.678-1.989,10.578-1.031,13.239,7.8,6.978,8.6,7.218,1.46-.942,1.443-1.082-6.838-7.3-6.721-7.935S973.271,427.386,973.271,427.386Z" transform="translate(-963.07 -416.228)"/></g></g></g></g><g transform="translate(305.156 286.924)"><path class="v" d="M2137.225,1576.68l-1.75,7.373-2.622-.015-.1-7.358Z" transform="translate(-2019.708 -1412.86)"/><path class="v" d="M1968.189,1573.059l-4.98,7.059-1.941-2.492,3-5.537Z" transform="translate(-1872.729 -1408.926)"/><path class="o" d="M2083.262,893.863a5.077,5.077,0,0,1,2.749-.526,1.285,1.285,0,0,0-.58-.275,4.257,4.257,0,0,1,1.521.4c6.545-2.522,7.573,7.115,7.436,9.354s2.2,2.97,5.6,4.734c6.5,3.366,7.068,7.872,7.068,7.872-.051.03-.1.064-.16.1-.322-.546-.986-1.572-1.546-1.727a23.215,23.215,0,0,1,.9,2.193c-1.917,1.458-5.5,4.689-8,6.979a3.683,3.683,0,0,0-.171-1.419l-.308,1.859c-1.338,1.229-2.26,2.094-2.26,2.094.165-1.809-8.182-11.357-12.538-14.216a12.584,12.584,0,0,1-1.465-4.535,11.891,11.891,0,0,0,.891,4.1C2078.716,907.458,2080.863,895.226,2083.262,893.863Z" transform="translate(-1974.853 -826.929)"/><path class="v" d="M2100.118,983.014a6.033,6.033,0,0,0,3.7.676,4.8,4.8,0,0,0,2.465-2.363c-.636-.126-.82-1-.806-4.761l-.288.057-4.839.958s.11,1.523.113,2.957C2100.467,981.743,2100.394,982.885,2100.118,983.014Z" transform="translate(-1991.734 -898.516)"/><path class="w" d="M2101.744,977.921s.11,1.523.114,2.957c2.708-.076,4.139-2.547,4.726-3.916Z" transform="translate(-1993.128 -898.857)"/><path class="o" d="M2088.807,913.653a14.229,14.229,0,0,0,1.76-4.159c.243-1.369-.454-6.442-5.553-5.712a6.93,6.93,0,0,0-2.873,1.086c-1.107.748-2.7,2.362-.918,6.789l.464,1.5Z" transform="translate(-1974.853 -836.073)"/><path class="o" d="M1966.8,1264.455l2.565.079,2.776.085a54.81,54.81,0,0,0,10.011-18.586q.126-.4.266-.808c1.969-5.741,6.05-12.946,8.2-19.468.342-1.039.65-2.017.926-2.942q.133-.445.256-.874a69.165,69.165,0,0,0,2.467-12.986l-15.531.124A289.532,289.532,0,0,1,1966.8,1264.455Z" transform="translate(-1877.469 -1097.69)"/><path class="d" d="M2052.029,1026.682c.039,7.39-1.084,10.561-1.084,10.561a20.868,20.868,0,0,0,14.553.891c.093-.029,5.944-1.2,5.944-1.2-.133-.3-1.746-5.412-1.875-5.686a22,22,0,0,1-2.1-6.422,23.433,23.433,0,0,1-.192-6.192,49.658,49.658,0,0,1,1.917-9.724,50.474,50.474,0,0,1-6.412-2.191,5.008,5.008,0,0,1-3.459,1.283c-1.574-.035-2.085-.708-2-1.444-1.677.933-3.016,1.815-3.016,1.815-1.426,2.476-4.318,4.882-4.527,8.681C2049.727,1017.986,2052.027,1026.475,2052.029,1026.682Z" transform="translate(-1948.589 -924.219)"/><path class="i" d="M1923.523,1015.7c2.28-2.663,8.187-8.439,14.283-9.148l-5.26,10.247a4.535,4.535,0,0,1-1.853,2.78,30.526,30.526,0,0,1-8.666,3.616,45.528,45.528,0,0,1-7.776-4.724c-1.41-1.033-3.886-4.972-3.886-4.972l.668-2.236s4.206,2.351,5.708,3.029c.856.386,2.827,1.309,4.216,1.962A2.167,2.167,0,0,0,1923.523,1015.7Z" transform="translate(-1829.1 -924.219)"/><path class="v" d="M2082.621,928.343s6.406.106,6.411-3.885.834-6.665-3.256-6.9-4.887,1.286-5.213,2.617S2080.955,928.212,2082.621,928.343Z" transform="translate(-1974.91 -847.92)"/><path class="o" d="M2097.076,912.155s1.754,4.682,4.447,5.374,3.859-.029,3.859-.029a7.623,7.623,0,0,1-2.493-4.5S2098.4,909.927,2097.076,912.155Z" transform="translate(-1989.128 -842.616)"/><path class="o" d="M2080.665,915.1a5.659,5.659,0,0,0-1.63,2.062c-.319,1.016-.463,3.108-1.073,3.037,0,0-1.321-3.182.164-4.982C2079.7,913.308,2080.665,915.1,2080.665,915.1Z" transform="translate(-1972.282 -845.181)"/><path class="v" d="M1881.6,1022.486a4,4,0,0,0-4.481-2.8c-.411.129-1.611.607-.844,1.892.565.947.81.458,1.7,1.731a2.834,2.834,0,0,0,2.958,1.408Z" transform="translate(-1799.669 -935.44)"/><path class="v" d="M2132.05,1625.383a7.1,7.1,0,0,0,.334,3.023s.43,1.955-1.5,1.992-2.4-.146-2.18-1.344.633-3.273.633-3.273Z" transform="translate(-2016.196 -1454.603)"/><path class="y" d="M2127.719,1649.06s.042.026.121.064h3.77a.93.93,0,0,0,.106-.064,9.462,9.462,0,0,0-.138-2.827c-2.182,2-3.546-.05-3.546-.05A10.23,10.23,0,0,0,2127.719,1649.06Z" transform="translate(-2015.39 -1472.43)"/><path class="v" d="M1928.786,1616.773a48.208,48.208,0,0,0,4.641-5.946l2.64,1.353-5.9,5.542-1.381-.181Z" transform="translate(-1844.889 -1442.127)"/><path class="y" d="M1913.383,1626.931h4.858a6.9,6.9,0,0,0,1.448-2.245,2.383,2.383,0,0,1,1.608-1.074v3.282h1.008l.954-3.489c.628-1.155.05-2.2-.393-3.115-.514,0-1.9.351-4.521,3.307a3.437,3.437,0,0,1-2.76,1.287.22.22,0,0,1-.039.02A3.522,3.522,0,0,0,1913.383,1626.931Z" transform="translate(-1831.688 -1450.237)"/><path class="i" d="M2044.379,1006.555s-3.707,9.157-3.816,11.01-.436,30.3-.436,30.3.218,1.308-2.289.763a8.42,8.42,0,0,1-3.161-1.09s2.4-17.551,1.744-23.655,5.014-16.061,5.014-16.061Z" transform="translate(-1935.647 -924.219)"/><path class="o" d="M1984.744,1332l2.776.085a54.8,54.8,0,0,0,10.011-18.587q.126-.4.266-.808c1.969-5.741,6.05-12.946,8.2-19.468.343-1.039.65-2.017.926-2.942.088-.3.174-.587.256-.874l-2.287-1.736s-6.866,11.119-8.992,21.583C1994.053,1318.346,1986.658,1329.283,1984.744,1332Z" transform="translate(-1892.851 -1165.16)"/><path class="o" d="M2114.9,1292.535c-.039,5.089.218,16.788.881,21.631h2.459c1.36,0,2.037-.02,2.037-.02,1.663-8.421,2.845-15.389,3.707-21.393.706-4.927,1.334-9.151,1.817-12.788.486-3.66.824-6.724.945-9.313q.028-.611.041-1.189t.007-1.128l-13.419-1.308C2113.539,1275.943,2114.918,1289.578,2114.9,1292.535Z" transform="translate(-2003.093 -1147.464)"/><path class="z" d="M2147.418,1335.91c1.359,0,2.037-.02,2.037-.02,1.663-8.421,2.845-15.389,3.706-21.393.707-4.927,1.334-9.151,1.817-12.788.486-3.66.824-6.724.945-9.313l-4.924,2.9s3.143,1.109,1.944,9.5S2149.087,1334.721,2147.418,1335.91Z" transform="translate(-2032.275 -1169.207)"/><path class="i" d="M2115.485,1048.444s.945,3.415,4.216,2.979a39.414,39.414,0,0,0,7.92-2.4s-1.4-4.416-3.135-10.218c-2.1-7.023-4.708-16.078-5.936-21.789a35.3,35.3,0,0,1-.667-3.894l-2.713-5.264s-4.045,9.08-4.263,11.369S2115.485,1048.444,2115.485,1048.444Z" transform="translate(-2000.975 -925.339)"/><path class="k" d="M2143.981,1078.945c.146,3.706,1.019,10.9,8.794,14.752.02.01.041.021.062.029-2.1-7.023-4.708-16.078-5.936-21.789C2145.474,1074.072,2143.9,1076.9,2143.981,1078.945Z" transform="translate(-2029.327 -980.257)"/><g transform="translate(0 0)"><rect class="f" width="3.468" height="13.792" transform="translate(68.474 70.926) rotate(-45)"/><path class="f" d="M4.915,0A4.915,4.915,0,0,1,9.829,4.915V71.2A4.915,4.915,0,0,1,0,71.2V4.915A4.915,4.915,0,0,1,4.915,0Z" transform="translate(74.237 81.188) rotate(-45)"/><path class="f" d="M1353.728,442.413a40.787,40.787,0,1,0,57.682,0A40.787,40.787,0,0,0,1353.728,442.413Zm54.5,54.5a36.294,36.294,0,1,1,0-51.328A36.294,36.294,0,0,1,1408.233,496.918Z" transform="translate(-1341.782 -430.467)"/></g><path class="v" d="M2090.03,1018.889l-3.581-11.028a55.221,55.221,0,0,1,6.793,2.49,15.8,15.8,0,0,1,2.3,6.05s.927,10.133-1.144,13.839c0,0-6.541,1.308-17.006-2.289v-2.4s11.446.6,13.79.872Z" transform="translate(-1972.255 -925.339)"/><path class="i" d="M2138.477,1007.861s6.638.468,8.236,4.029,2.108,15.407.073,18.9a18.532,18.532,0,0,1-7.756-.129l-.183-.035s-1.581-3.87-.164-4.633c0,0,4.179.218,3.743-1.163S2138.477,1007.861,2138.477,1007.861Z" transform="translate(-2024.282 -925.339)"/><path class="v" d="M2051.271,1108.838a5.724,5.724,0,0,1-1.106-2.234,2.429,2.429,0,0,0-2.372-2.172c-1.574-.207-2.25-.229-2.246.214a11.743,11.743,0,0,0,3.544,5.391C2051.348,1111.887,2051.271,1108.838,2051.271,1108.838Z" transform="translate(-1944.963 -1007.986)"/></g><g transform="translate(309.796 291.765)"><path class="aa" d="M1448.126,486.34l-48.607,48.607a36.253,36.253,0,0,0,2.714,4.6l50.5-50.5A36.263,36.263,0,0,0,1448.126,486.34Z" transform="translate(-1395.784 -482.606)"/><path class="aa" d="M1422.4,462.5a36.313,36.313,0,0,0-46.717,46.717Z" transform="translate(-1373.389 -460.211)"/><path class="aa" d="M1514.847,650.291a36.3,36.3,0,0,0,48.622-48.622Z" transform="translate(-1494.63 -581.451)"/></g><path class="ab" d="M209.35,1667.418h392.3a.341.341,0,0,0,.35-.329h0a.341.341,0,0,0-.35-.329H209.35a.341.341,0,0,0-.35.329h0A.341.341,0,0,0,209.35,1667.418Z" transform="translate(-40.678 -1203.143)"/></g></svg>