<svg xmlns="http://www.w3.org/2000/svg" width="24" height="24" viewBox="0 0 24 24"><defs><style>.a{fill:#fff;stroke:#707070;opacity:0;}.b{fill:#1c1b1b;}.c{stroke:none;}.d{fill:none;}</style></defs><g transform="translate(-1783 -728)"><g class="a" transform="translate(1783 728)"><rect class="c" width="24" height="24"/><rect class="d" x="0.5" y="0.5" width="23" height="23"/></g><g transform="translate(1782.2 726.954)"><g transform="translate(4.8 2.4)"><path class="b" d="M0,3.327A3.327,3.327,0,0,1,3.327,0h9.315a3.327,3.327,0,0,1,3.327,3.327v17.3a.665.665,0,0,1-1.057.538L7.984,16.126,1.057,21.164A.665.665,0,0,1,0,20.626Zm3.327-2a2,2,0,0,0-2,2V19.32l6.262-4.554a.665.665,0,0,1,.782,0l6.262,4.554V3.327a2,2,0,0,0-2-2Z"/></g></g></g></svg>