<svg xmlns="http://www.w3.org/2000/svg" width="15.969" height="21.291" viewBox="0 0 15.969 21.291"><defs><style>.a{fill:#fff;}</style></defs><g transform="translate(-4.8 -2.4)"><g transform="translate(4.8 2.4)"><path class="a" d="M0,3.327A3.327,3.327,0,0,1,3.327,0h9.315a3.327,3.327,0,0,1,3.327,3.327v17.3a.665.665,0,0,1-1.057.538L7.984,16.126,1.057,21.164A.665.665,0,0,1,0,20.626Zm3.327-2c-.529,0,2.274,15.931,1.9,16.305S1.331,2.8,1.331,3.327H14.638L7.593,14.766C7.707,14.683,5.7,3.6,5.84,3.6S8.262,14.683,8.376,14.766L2.656,1.64l.306-.309c0-.529.739.374.365,0s9.845,0,9.315,0Z"/></g></g></svg>