<svg xmlns="http://www.w3.org/2000/svg" width="40" height="40" viewBox="0 0 40 40"><defs><style>.a{fill:#fff;stroke:#707070;opacity:0;}.b{fill:#f6b333;}.c{fill:#ed9e08;}.d{stroke:none;}.e{fill:none;}</style></defs><g class="a"><rect class="d" width="40" height="40"/><rect class="e" x="0.5" y="0.5" width="39" height="39"/></g><g transform="translate(6.028 2)"><g transform="translate(0 0)"><path class="b" d="M23.532,0H5.68A5.54,5.54,0,0,0,0,5.389V36.181a.771.771,0,0,0,.5.711.848.848,0,0,0,.885-.166l9.163-8.7c3.587,3.358,8.529,8.006,9.059,8.579a.839.839,0,0,0,1.125.215.78.78,0,0,0,.3-.349.451.451,0,0,0,.063-.285V3.849A2.374,2.374,0,0,1,23.532,1.54a.791.791,0,0,0,.811-.77A.791.791,0,0,0,23.532,0Z" transform="translate(0 0)"/><path class="c" d="M3.246,0A3.246,3.246,0,0,1,6.492,3.246V5.68a.812.812,0,0,1-.811.811H0V3.246A3.246,3.246,0,0,1,3.246,0Z" transform="translate(21.098 0)"/></g></g></svg>