<svg xmlns="http://www.w3.org/2000/svg" width="16" height="14" viewBox="0 0 16 14"><defs><style>.a{fill:#2a5798;}</style></defs><g transform="translate(-348.75 -372.005)"><path class="a" d="M348.75,469.216c.106-.127.2-.26.318-.38a8.584,8.584,0,0,0,1.742-2.8,11.108,11.108,0,0,0,.757-3.622c0-.052.009-.1.014-.165h13.16c-.029.374-.048.74-.089,1.1a11.437,11.437,0,0,1-1.4,4.441,8.34,8.34,0,0,1-1.358,1.8.72.72,0,0,1-.544.221q-5.991-.006-11.983,0a.592.592,0,0,1-.614-.351Z" transform="translate(0 -86.567)"/><path class="a" d="M430.282,578.4a.607.607,0,0,1-.635.351q-6.028-.009-12.055,0c-.433,0-.6-.165-.6-.6s0-.85,0-1.293h.2q4.828,0,9.657,0a1.627,1.627,0,0,0,1.193-.476,9.9,9.9,0,0,0,2.113-3.111c.04-.09.086-.177.129-.266Z" transform="translate(-65.532 -192.743)"/><path class="a" d="M430.27,374.846H416.995a1.064,1.064,0,0,1-.013-.112c0-.426,0-.852,0-1.278a.469.469,0,0,1,.5-.5c.715,0,1.43,0,2.146,0h.192c0-.155,0-.3,0-.445a.474.474,0,1,1,.946,0c0,.141,0,.283,0,.434h2.367c0-.148,0-.293,0-.439a.473.473,0,1,1,.946-.006c0,.146,0,.292,0,.447h2.4c0-.14,0-.285,0-.43a.474.474,0,1,1,.946,0c0,.137,0,.273,0,.435h.17c.684,0,1.367.01,2.051,0a.584.584,0,0,1,.62.352Z" transform="translate(-65.52)"/></g></svg>