<svg xmlns="http://www.w3.org/2000/svg" width="20" height="20.032" viewBox="0 0 20 20.032"><defs><style>.a{fill:#9a5555;opacity:0;}.b{fill:#f6b333;}.c{fill:#ed9e08;}</style></defs><g transform="translate(-803 -501.986)"><rect class="a" width="20" height="20" transform="translate(803 502)"/><g transform="translate(803.456 502)"><path class="b" d="M7.718,0a8.218,8.218,0,0,0-8,8,7.845,7.845,0,0,0,1,4,23.5,23.5,0,0,0,3,4,34.557,34.557,0,0,0,4,4c.053.041-.063,0,0,0s-.053.041,0,0a34.55,34.55,0,0,0,4-4,23.5,23.5,0,0,0,3-4,7.845,7.845,0,0,0,1-4A8.218,8.218,0,0,0,7.718,0Zm0,5a3.274,3.274,0,0,1,3,3,3.52,3.52,0,0,1-3,3.244A3.52,3.52,0,0,1,4.718,8,3.274,3.274,0,0,1,7.718,5Z" transform="translate(1.826)"/><path class="c" d="M.857,0c-.29,0-.719-.031-1,0a8.182,8.182,0,0,1,7,8,7.845,7.845,0,0,1-1,4,23.5,23.5,0,0,1-3,4,25.453,25.453,0,0,1-3,3c.4.345.972.979,1,1,.053.041-.063,0,0,0s-.053.041,0,0a34.55,34.55,0,0,0,4-4,23.5,23.5,0,0,0,3-4,7.845,7.845,0,0,0,1-4A8.218,8.218,0,0,0,.857,0Z" transform="translate(8.687)"/></g></g></svg>