<svg xmlns="http://www.w3.org/2000/svg" width="30.734" height="26.385" viewBox="0 0 30.734 26.385"><defs><style>.a{fill:#f6b333;}</style></defs><path class="a" d="M348.75,646.945a1.708,1.708,0,0,0,.06-.194A3.533,3.533,0,0,1,351.179,644a.407.407,0,0,1,.278.009,4.545,4.545,0,0,0,3.616.009.52.52,0,0,1,.361.007,3.484,3.484,0,0,1,2.341,3.156c.035.556.006,1.115.006,1.716h-.391q-4.127,0-8.253,0c-.129,0-.258.016-.387.025Z" transform="translate(-348.75 -622.541)"/><path class="a" d="M628.688,648.962c-.129-.009-.258-.025-.386-.025q-4.126,0-8.251,0h-.41a10.126,10.126,0,0,1,.142-2.482,3.534,3.534,0,0,1,2.275-2.41.45.45,0,0,1,.306.009,4.542,4.542,0,0,0,3.615,0,.481.481,0,0,1,.334.005,3.514,3.514,0,0,1,2.325,2.817,1.261,1.261,0,0,0,.051.168Z" transform="translate(-597.954 -622.577)"/><path class="a" d="M468.582,388.637a6.278,6.278,0,1,1,6.276-6.29A6.3,6.3,0,0,1,468.582,388.637Zm-3.182-6.014,2.542,2.546,3.84-3.839-1.233-1.224-2.643,2.662-1.318-1.332Z" transform="translate(-453.213 -376.081)"/><path class="a" d="M493.3,648.886h-9.03a8.006,8.006,0,0,1,.252-2.831,3.6,3.6,0,0,1,2.182-2.048.413.413,0,0,1,.278.015,4.539,4.539,0,0,0,3.613,0,.5.5,0,0,1,.334,0,3.521,3.521,0,0,1,2.369,3.349C493.313,647.871,493.3,648.37,493.3,648.886Z" transform="translate(-473.422 -622.547)"/><path class="a" d="M509.682,564.38a2.7,2.7,0,1,1,2.713-2.667A2.7,2.7,0,0,1,509.682,564.38Z" transform="translate(-494.326 -544.335)"/><path class="a" d="M645.232,564.371a2.7,2.7,0,0,1,0-5.409,2.7,2.7,0,1,1,0,5.409Z" transform="translate(-619.028 -544.326)"/><path class="a" d="M376.817,561.674a2.7,2.7,0,1,1-5.406-.011,2.7,2.7,0,0,1,5.406.011Z" transform="translate(-369.597 -544.331)"/></svg>