<svg xmlns="http://www.w3.org/2000/svg" width="24" height="24" viewBox="0 0 24 24"><defs><style>.a{fill:#fff;stroke:#707070;opacity:0;}.b{fill:#03b44a;}.c{fill:#fefaf4;}.d{stroke:none;}.e{fill:none;}</style></defs><g transform="translate(-135.634 -713.634)"><g class="a" transform="translate(135.634 713.634)"><rect class="d" width="24" height="24"/><rect class="e" x="0.5" y="0.5" width="23" height="23"/></g><g transform="translate(137.594 716.056)"><g transform="translate(0 0)"><path class="b" d="M9.957,9.4v.077a1.6,1.6,0,0,1-.37.514c-.529.57-1.033,1.156-1.563,1.727a.6.6,0,0,0-.18.519c.1.8.17,1.6.262,2.405.015.123.01.242.031.365.036.252-.015.324-.262.375-.493.108-.992.211-1.486.313-.442.093-.879.2-1.316.278a.433.433,0,0,0-.314.226c-.442.781-.894,1.557-1.342,2.333a.425.425,0,0,0-.036.067c-.175.3-.236.329-.55.185C1.99,18.408,1.147,18.023.3,17.653a.436.436,0,0,1-.283-.247A1.74,1.74,0,0,1,0,17.041V12.447C0,12.3.016,12.154.026,12c-.005-.021-.005-.041-.01-.062.005-.139.123-.211.2-.3.329-.385.668-.761,1.007-1.136.483-.54.966-1.079,1.444-1.624.36-.406.725-.817,1.09-1.218.082-.093.154-.19.236-.278s.057-.149-.021-.231C3.82,7.01,3.65,6.881,3.5,6.737c-.087-.082-.159-.057-.231.015-.164.154-.3.329-.452.5C2.3,7.832,1.779,8.408,1.265,8.988c-.334.375-.658.755-1,1.115-.077.082-.164.149-.242-.005A1.936,1.936,0,0,1,0,9.754V1.789a1.709,1.709,0,0,1,.015-.324.389.389,0,0,1,.257-.242C.916.941,1.553.653,2.19.37c.247-.108.488-.226.74-.324.216-.082.272-.067.4.139.375.622.725,1.259,1.09,1.881.118.2.231.4.344.6a.459.459,0,0,0,.334.236c.91.19,1.82.385,2.73.576.324.067.35.108.314.442-.087.915-.19,1.824-.288,2.734a.583.583,0,0,0,.17.488c.524.56,1.028,1.146,1.547,1.711A2.036,2.036,0,0,1,9.957,9.4Z" transform="translate(9.771 0.004)"/><path class="b" d="M9.854,11.942c0,1.84.005,3.685.005,5.524,0,.123-.1.154-.185.2-.637.288-1.275.57-1.917.858l-.648.293c-.278.128-.36.108-.514-.159Q5.916,17.482,5.243,16.3a.6.6,0,0,0-.437-.329c-.853-.175-1.707-.365-2.56-.54a.621.621,0,0,1-.093-.026c-.365-.087-.365-.1-.329-.468.082-.925.2-1.85.288-2.775a.461.461,0,0,0-.123-.37l-.822-.915C.822,10.5.478,10.118.139,9.733A1.727,1.727,0,0,1,0,9.481V9.4a1.5,1.5,0,0,1,.355-.5C.884,8.33,1.393,7.734,1.933,7.168a.6.6,0,0,0,.18-.519c-.1-.8-.17-1.6-.262-2.41-.015-.149-.021-.293-.041-.442a.227.227,0,0,1,.2-.278c.637-.149,1.28-.272,1.917-.411.319-.067.637-.139.961-.206A.44.44,0,0,0,5.2,2.672C5.644,1.891,6.1,1.115,6.544.339c.021-.031.036-.067.057-.1.159-.267.236-.288.514-.159C7.947.457,8.79.822,9.628,1.2c.1.046.231.067.242.216v8.736a.147.147,0,0,1,.005.082,5.46,5.46,0,0,1-.658.8c-.164.19-.252.185-.432.005C8.086,10.349,7.4,9.656,6.7,8.962c-.046-.046-.093-.087-.139-.134a.157.157,0,0,0-.252-.005c-.149.149-.3.3-.452.447a.158.158,0,0,0,.005.262.819.819,0,0,1,.067.067c.972.966,1.933,1.932,2.9,2.9.2.2.206.19.4-.026.134-.154.267-.308.411-.457C9.695,11.968,9.751,11.9,9.854,11.942Z" transform="translate(0 0)"/><path class="c" d="M.073,3.663A.24.24,0,0,0,.1,3.612C.731,2.908,1.368,2.2,2,1.495c.422-.468.843-.935,1.254-1.408.082-.1.134-.123.236-.021.206.2.427.391.643.576.072.062.087.1.015.18L.109,5.338c-.005.005-.01.005-.015.01-.082-.041-.087-.123-.087-.2C0,4.747,0,4.341.006,3.941.011,3.848.062,3.761.073,3.663Z" transform="translate(9.755 6.553)"/><path class="c" d="M4.2,1.6a2.607,2.607,0,0,1,.026.632c.005.355,0,.7,0,1.059,0,.01-.005.021-.005.036-.236.262-.478.519-.709.781-.077.087-.118.1-.206.01C2.227,3.032,1.142,1.953.062.874-.015.8-.025.756.057.679c.211-.2.416-.4.612-.612.1-.108.154-.072.242.01.766.771,1.537,1.531,2.3,2.307.123.123.185.128.3-.005C3.727,2.107,3.964,1.856,4.2,1.6Z" transform="translate(5.633 8.617)"/></g></g></g></svg>