<svg xmlns="http://www.w3.org/2000/svg" width="24" height="24" viewBox="0 0 24 24"><defs><style>.a{fill:#fff;stroke:#707070;opacity:0;}.b{fill:#1c1b1b;}.c{stroke:none;}.d{fill:none;}</style></defs><g transform="translate(16486 -15188)"><g class="a" transform="translate(-16486 15188)"><rect class="c" width="24" height="24"/><rect class="d" x="0.5" y="0.5" width="23" height="23"/></g><g transform="translate(-16830.75 14843.25)"><path class="b" d="M355.844,348.75h1.813a.357.357,0,0,0,.056.025.976.976,0,0,1,.774.858c.056.365.1.732.137,1.1a.2.2,0,0,0,.156.2,7,7,0,0,1,.662.274.188.188,0,0,0,.234-.03c.28-.225.565-.443.85-.663a.99.99,0,0,1,1.382.085q.5.494.994.994a.989.989,0,0,1,.085,1.382c-.224.294-.456.582-.676.879a.214.214,0,0,0-.023.175c.092.243.191.483.3.719a.236.236,0,0,0,.15.119c.283.044.568.072.852.108a1.385,1.385,0,0,1,.826.284,1.245,1.245,0,0,1,.334.587v1.813a.674.674,0,0,0-.029.071.991.991,0,0,1-.885.765q-.533.075-1.069.132a.2.2,0,0,0-.2.156c-.079.22-.167.437-.267.649a.2.2,0,0,0,.023.248c.229.283.452.572.672.862a.985.985,0,0,1-.084,1.358q-.5.506-1.005,1.005a.987.987,0,0,1-1.382.084c-.289-.222-.577-.445-.862-.672a.171.171,0,0,0-.208-.027c-.226.105-.457.2-.69.287a.176.176,0,0,0-.137.162c-.03.279-.065.558-.1.837a1.559,1.559,0,0,1-.216.756,1.154,1.154,0,0,1-.655.421h-1.813a.357.357,0,0,0-.056-.026.978.978,0,0,1-.774-.858c-.056-.365-.1-.732-.137-1.1a.206.206,0,0,0-.156-.2c-.22-.079-.437-.167-.649-.266a.2.2,0,0,0-.248.024q-.431.349-.875.681a.984.984,0,0,1-1.346-.093q-.506-.5-1.005-1.005a.986.986,0,0,1-.083-1.381c.218-.285.438-.57.662-.85a.189.189,0,0,0,.028-.235,7,7,0,0,1-.273-.662.205.205,0,0,0-.2-.154c-.357-.038-.713-.085-1.069-.13a.914.914,0,0,1-.65-.334,3.367,3.367,0,0,1-.263-.5v-1.844a.241.241,0,0,0,.03-.051,1,1,0,0,1,.893-.756c.356-.048.712-.093,1.068-.131a.2.2,0,0,0,.187-.148c.082-.224.172-.446.273-.662a.189.189,0,0,0-.021-.235c-.225-.279-.444-.564-.662-.849a.99.99,0,0,1,.084-1.393q.489-.493.983-.982a.988.988,0,0,1,1.392-.09q.434.332.862.671a.162.162,0,0,0,.194.032c.236-.107.48-.2.716-.3a.221.221,0,0,0,.115-.137c.043-.272.07-.547.106-.82a1.623,1.623,0,0,1,.21-.774A1.13,1.13,0,0,1,355.844,348.75Zm.906,15.336h.656c.284,0,.4-.1.433-.381.056-.439.112-.878.163-1.317a.4.4,0,0,1,.292-.361q.554-.208,1.093-.454a.409.409,0,0,1,.475.052c.342.273.689.539,1.035.807.233.181.365.174.57-.03q.465-.463.928-.928c.212-.212.22-.341.033-.583-.271-.35-.541-.7-.816-1.047a.392.392,0,0,1-.042-.448c.162-.359.317-.723.454-1.093a.41.41,0,0,1,.371-.3c.445-.051.889-.107,1.332-.165a.357.357,0,0,0,.359-.406q0-.68,0-1.359a.353.353,0,0,0-.358-.405q-.665-.088-1.332-.166a.41.41,0,0,1-.371-.3q-.2-.547-.447-1.079a.407.407,0,0,1,.044-.475c.273-.342.539-.689.807-1.035.188-.243.181-.369-.032-.582q-.464-.464-.928-.928c-.206-.205-.336-.212-.57-.031-.35.271-.7.541-1.047.816a.4.4,0,0,1-.462.043c-.349-.16-.7-.314-1.063-.443a.432.432,0,0,1-.326-.4c-.047-.44-.105-.878-.164-1.317a.355.355,0,0,0-.411-.352q-.672,0-1.344,0a.357.357,0,0,0-.415.365c-.057.439-.114.877-.164,1.317a.418.418,0,0,1-.308.383c-.36.132-.717.278-1.065.44a.415.415,0,0,1-.488-.043c-.35-.28-.705-.552-1.06-.825a.339.339,0,0,0-.534.036q-.476.474-.95.951a.35.35,0,0,0-.033.558c.271.35.54.7.816,1.047a.409.409,0,0,1,.046.476c-.161.349-.312.7-.442,1.064a.425.425,0,0,1-.391.319c-.434.048-.868.106-1.3.161a.364.364,0,0,0-.375.422q0,.664,0,1.328a.363.363,0,0,0,.373.424c.439.057.877.113,1.317.163a.41.41,0,0,1,.372.3c.133.36.277.717.44,1.065a.424.424,0,0,1-.045.5c-.28.349-.553.7-.826,1.06a.335.335,0,0,0,.037.522q.474.476.95.95c.205.2.338.213.571.033q.531-.411,1.06-.825a.386.386,0,0,1,.436-.041c.355.159.712.317,1.078.449a.442.442,0,0,1,.328.418c.045.435.1.868.162,1.3a.355.355,0,0,0,.411.352C356.3,364.087,356.525,364.086,356.749,364.086Z"/><path d="M464.251,467.6a3.459,3.459,0,1,1,3.356-3.566A3.469,3.469,0,0,1,464.251,467.6Zm2.662-3.459a2.763,2.763,0,1,0-2.758,2.764A2.757,2.757,0,0,0,466.913,464.145Z" transform="translate(-107.4 -107.396)"/></g></g></svg>