<svg xmlns="http://www.w3.org/2000/svg" width="16" height="16" viewBox="0 0 16 16"><defs><style>.a{fill:#2a5798;}</style></defs><path class="a" d="M11.658,241.636a9.335,9.335,0,0,0-1.864-.207,9.448,9.448,0,0,0-1.881.207.65.65,0,0,0-.338.189.6.6,0,0,0-.16.343l-.145,1.252a1.112,1.112,0,0,1-.186.495,1.164,1.164,0,0,1-.4.361,1.215,1.215,0,0,1-.525.152,1.241,1.241,0,0,1-.54-.091l-1.2-.5a.66.66,0,0,0-.386-.039.642.642,0,0,0-.339.182,7.969,7.969,0,0,0-1.884,3.111.594.594,0,0,0,0,.375.617.617,0,0,0,.229.3l1.062.749a1.15,1.15,0,0,1,.355.4,1.091,1.091,0,0,1,0,1.023,1.151,1.151,0,0,1-.355.4l-1.062.751a.621.621,0,0,0-.229.3.592.592,0,0,0,0,.374A7.972,7.972,0,0,0,3.7,254.886a.649.649,0,0,0,.339.183.668.668,0,0,0,.387-.039l1.2-.506a1.233,1.233,0,0,1,.538-.093,1.22,1.22,0,0,1,.524.15,1.134,1.134,0,0,1,.583.854l.145,1.252a.6.6,0,0,0,.157.339.642.642,0,0,0,.332.191,8.462,8.462,0,0,0,3.765,0,.642.642,0,0,0,.332-.191.6.6,0,0,0,.157-.339l.145-1.254a1.1,1.1,0,0,1,.183-.5,1.17,1.17,0,0,1,.4-.362,1.23,1.23,0,0,1,1.065-.056l1.2.506a.66.66,0,0,0,.387.039.642.642,0,0,0,.339-.182,7.973,7.973,0,0,0,1.883-3.112.59.59,0,0,0,0-.374.617.617,0,0,0-.229-.3l-1.061-.75a1.151,1.151,0,0,1-.355-.4,1.091,1.091,0,0,1,0-1.023,1.149,1.149,0,0,1,.354-.4l1.061-.751a.616.616,0,0,0,.228-.3.589.589,0,0,0,0-.373,7.971,7.971,0,0,0-1.884-3.112.649.649,0,0,0-.339-.182.668.668,0,0,0-.387.039l-1.2.5a1.214,1.214,0,0,1-1.262-.2,1.118,1.118,0,0,1-.385-.721l-.146-1.254a.6.6,0,0,0-.159-.342.647.647,0,0,0-.337-.189ZM9.785,252.1a2.844,2.844,0,0,1-1.968-.781,2.588,2.588,0,0,1,0-3.771,2.868,2.868,0,0,1,3.935,0,2.588,2.588,0,0,1,0,3.771A2.844,2.844,0,0,1,9.785,252.1Z" transform="translate(-1.785 -241.429)"/></svg>