<svg xmlns="http://www.w3.org/2000/svg" width="400.795" height="190.745" viewBox="0 0 400.795 190.745"><defs><style>.a{opacity:0.3;}.b{fill:#aec3ff;}.c{fill:#dfebfd;}.d{opacity:0.5;}.e{fill:#c5ddff;}.f{opacity:0.2;}.g{fill:#91b5f8;}.h{fill:#2a5798;}.i{fill:#f6b333;}.j{fill:#d1e4ff;}.k{fill:#d5951b;}.l{fill:#e6f0ff;}.m{fill:#ffb27d;}.n{fill:#233862;}.o{fill:#ed985f;}.p{fill:#fff;}.q{fill:#1c1c1c;}.r{fill:#ed975d;}.s{fill:#0b3777;}.t{fill:#d8920c;}.u{fill:#0e2644;}.v{fill:#0a0a0a;}.w{fill:#181819;}.x{fill:#fca56b;}.y{fill:#2e3552;}</style></defs><g transform="translate(-185.788 -251.777)"><g class="a" transform="translate(258.623 331.43)"><path class="b" d="M608.751,979.043C606.12,969.394,621.7,963.75,621.7,963.75s18.091,8.972,21.07,7.69S628.8,960.749,628.8,960.749c5.072-3.676,22.643-5.126,22.643-5.126s9.109,17.508,11.68,15.532-8.856-15.091-8.856-15.091c6.12-1.493,14.539,1.728,14.539,1.728,11.873,6.324,3.139,21.244,3.139,21.244a32.087,32.087,0,0,0,10.9,10.626h0a23.26,23.26,0,0,1,3.637,2.4l-1.419.832c-.339-.312-.683-.605-1.031-.875a.01.01,0,0,0-.006,0l-.015-.012c-.226-.162-.549-.392-.946-.67h0c-.931-.594-1.592-1.049-2.043-1.393l0,0c-2.862-1.9-6.769-4.273-8.444-4.269a3.189,3.189,0,0,0-.078-.829l.078.829c.625,6.629-11.008,14.622-18.587,17.2s-5.75-1.056-3.925-6.291,9.937-8.9,11.479-11.434-2.466-1.818-6.772,1.176-3.915,8.827-10.793,13.8-20.47-5.477-20.47-5.477c5.946-1.391,13.337-9.459,12.666-11.4s-13.925,6.073-16.312,6.775S611.382,988.692,608.751,979.043Z" transform="translate(-608.452 -955.623)"/></g><g transform="translate(397.53 359.935)"><path class="c" d="M1819.027,1217.488c9.676-9.4-4.536-26.638-4.536-26.638s-27.159-2-29.738-5.531,23.554-2.826,23.554-2.826c-3.366-7.748-22.77-21.49-22.77-21.49s-22.589,14.076-24.219,10.017,20.637-11.443,20.637-11.443c-6.081-5.932-18.066-7.971-18.066-7.971-18.124-.805-18.222,22.51-18.222,22.51a43.27,43.27,0,0,1-19.947,4.857h0a31.377,31.377,0,0,0-5.868.29l1.076,1.94c.608-.13,1.208-.234,1.8-.308a.012.012,0,0,1,.011,0l.026,0c.374-.033.906-.079,1.558-.129h.006c1.489-.051,2.568-.126,3.327-.215h.007c4.627-.244,10.792-.317,12.733.838a4.3,4.3,0,0,1,.66-.909l-.66.909c-5.275,7.267,2.746,24.529,9.773,32.728s7.4,2.719,8.873-4.61-5.431-17.148-5.48-21.152,4.11-.418,7.055,6.012-1.512,12.934,3.063,23.423,27.523,7.689,27.523,7.689c-5.949-5.7-8.993-20.135-6.884-21.924s12,16.607,14.289,19.059S1809.351,1226.885,1819.027,1217.488Z" transform="translate(-1719.852 -1151.588)"/></g><g transform="translate(277.76 310.389)"><g class="d" transform="translate(8.441)"><path class="e" d="M826.42,826.866s-12.36-12.876-25.979-15.853a1.982,1.982,0,0,0-1.969,3.165l.059.073C800.529,816.705,816.676,821.23,826.42,826.866Z" transform="translate(-798.041 -810.965)"/></g><g class="d" transform="translate(0 8.41)"><path class="e" d="M780.768,879.659s-20.563-12.238-38.8-10.753a2.1,2.1,0,0,0-1.952,2.147,3.336,3.336,0,0,0,1.7,2.473C745.039,875.895,766.7,875.986,780.768,879.659Z" transform="translate(-740.012 -868.781)"/></g></g><g class="d" transform="translate(462.009 328.384)"><g class="d" transform="translate(1.358)"><path class="b" d="M2016.036,964.314s2.934-18.348,12.819-28.974a2.063,2.063,0,0,1,3.562,1.539c0,.032,0,.065-.007.1C2032.157,940.261,2021.028,953.712,2016.036,964.314Z" transform="translate(-2016.036 -934.683)"/></g><g class="d" transform="translate(0 2.342)"><path class="b" d="M2006.7,983.3s10.33-22.668,26.814-32.219a2.189,2.189,0,0,1,2.943.679,3.473,3.473,0,0,1,.016,3.122C2035.03,958.886,2016.555,971.815,2006.7,983.3Z" transform="translate(-2006.699 -950.782)"/></g></g><g class="f" transform="translate(375.728 264.991)"><path class="g" d="M1416.648,549.735l7.2-.79a1.6,1.6,0,0,1,1.509.727q.622.972,1.333,1.9a26.932,26.932,0,0,0,2.84,3.189,1.583,1.583,0,0,1,.386,1.743l-2.779,7.038a1.554,1.554,0,0,0,.76,1.974l6.19,3.088a1.537,1.537,0,0,0,1.972-.541l3.765-5.863a1.543,1.543,0,0,1,1.73-.663,27.967,27.967,0,0,0,8.774.9,1.594,1.594,0,0,1,1.592,1.111l1.259,4.047a1.609,1.609,0,0,0,1.826,1.091l6.736-1.343a1.41,1.41,0,0,0,.389-.128,1.545,1.545,0,0,0,.866-1.574l-.584-5.377-.145-1.31a27.664,27.664,0,0,0,3.271-2.147,28.049,28.049,0,0,0,3.841-3.536,1.543,1.543,0,0,1,1.724-.411l5.667,2.245a1.6,1.6,0,0,0,2.021-.776l2.362-4.733.673-1.358a1.62,1.62,0,0,0-.57-2.089l-4.9-3.15a1.541,1.541,0,0,1-.687-1.682,27.755,27.755,0,0,0,.764-5.889,4.907,4.907,0,0,0,.017-.5.818.818,0,0,1,.011-.168,1.579,1.579,0,0,1,1.117-1.349l6.568-2.058a1.176,1.176,0,0,0,.214-.084,1.606,1.606,0,0,0,.871-1.737l-1.328-6.717a1.6,1.6,0,0,0-1.739-1.277l-7.507.827a1.544,1.544,0,0,1-1.547-.817,28.233,28.233,0,0,0-2.339-3.6q-.7-.923-1.47-1.77a1.627,1.627,0,0,1-.3-1.687l2.669-6.766a1.553,1.553,0,0,0-.751-1.961l-6.129-3.046a1.624,1.624,0,0,0-2.1.575l-2.98,4.638a1.6,1.6,0,0,1-1.858.652,27.907,27.907,0,0,0-8.461-1.544,1.585,1.585,0,0,1-1.49-1.119L1446.05,500a1.639,1.639,0,0,0-1.874-1.115l-6.693,1.32a1.567,1.567,0,0,0-1.256,1.713l.031.314.681,6.247a1.6,1.6,0,0,1-.87,1.608l-.006,0a27.753,27.753,0,0,0-4.158,2.625c-.71.541-1.378,1.111-2.028,1.706a1.571,1.571,0,0,1-1.655.318l-5.753-2.279a1.626,1.626,0,0,0-2.056.783l-3.036,6.1a1.754,1.754,0,0,0-.157.537,1.619,1.619,0,0,0,.72,1.517l3.919,2.506a1.617,1.617,0,0,1,.729,1.411,1.724,1.724,0,0,1-.082.44,27.8,27.8,0,0,0-1.444,10.9,1.565,1.565,0,0,1-.844,1.5,1.6,1.6,0,0,1-.25.1l-5.319,1.663a1.592,1.592,0,0,0-1.085,1.821l.03.156,1.289,6.549A1.62,1.62,0,0,0,1416.648,549.735Zm46.089-20.3a18.6,18.6,0,0,1,.967,3.326,14.618,14.618,0,0,1-1.062,7.9c-.109.222-.222.438-.336.654-7.077,13.049-25.524,10.4-28.521-4.357a15.158,15.158,0,0,1,.56-6.886,9.879,9.879,0,0,1,.554-1.357,17.188,17.188,0,0,1,3.448-4.716A15,15,0,0,1,1462.737,529.433Z" transform="translate(-1413.534 -498.859)"/></g><g transform="translate(467.974 272.486)"><path class="h" d="M2049.645,581.982l4.469-.491a1,1,0,0,1,.937.451q.386.6.828,1.183a16.752,16.752,0,0,0,1.764,1.981.983.983,0,0,1,.24,1.082l-1.726,4.371a.965.965,0,0,0,.472,1.225l3.845,1.918a.954.954,0,0,0,1.225-.336l2.338-3.641a.958.958,0,0,1,1.074-.412,17.376,17.376,0,0,0,5.448.558.989.989,0,0,1,.989.69l.782,2.514a1,1,0,0,0,1.134.677l4.183-.834a.868.868,0,0,0,.242-.079.959.959,0,0,0,.538-.978l-.363-3.339-.09-.814a17.163,17.163,0,0,0,2.031-1.333,17.443,17.443,0,0,0,2.385-2.2.959.959,0,0,1,1.071-.255l3.519,1.394a.993.993,0,0,0,1.255-.482l1.467-2.939.418-.843a1.006,1.006,0,0,0-.354-1.3l-3.041-1.956a.958.958,0,0,1-.427-1.044,17.243,17.243,0,0,0,.475-3.657,3.081,3.081,0,0,0,.01-.31.509.509,0,0,1,.007-.1.98.98,0,0,1,.694-.838l4.078-1.278a.718.718,0,0,0,.133-.052,1,1,0,0,0,.541-1.079l-.825-4.171a.992.992,0,0,0-1.08-.793l-4.662.514a.958.958,0,0,1-.961-.507,17.557,17.557,0,0,0-1.453-2.236q-.437-.573-.913-1.1a1.011,1.011,0,0,1-.188-1.047l1.658-4.2a.965.965,0,0,0-.466-1.218l-3.806-1.891a1.009,1.009,0,0,0-1.3.357l-1.851,2.88a.99.99,0,0,1-1.154.4,17.33,17.33,0,0,0-5.254-.959.985.985,0,0,1-.925-.695l-1.15-3.676a1.018,1.018,0,0,0-1.164-.692l-4.156.82a.974.974,0,0,0-.78,1.064l.019.2.423,3.879a1,1,0,0,1-.54,1l0,0a17.217,17.217,0,0,0-2.582,1.63c-.441.336-.856.69-1.259,1.059a.976.976,0,0,1-1.028.2l-3.572-1.415a1.009,1.009,0,0,0-1.276.486l-1.886,3.789a1.091,1.091,0,0,0-.1.333,1.006,1.006,0,0,0,.447.942l2.433,1.556a1,1,0,0,1,.453.876,1.089,1.089,0,0,1-.051.273,17.267,17.267,0,0,0-.9,6.768.972.972,0,0,1-.524.931,1.011,1.011,0,0,1-.155.063l-3.3,1.033a.988.988,0,0,0-.674,1.131l.018.1.8,4.067A1.006,1.006,0,0,0,2049.645,581.982Zm28.621-12.607a11.574,11.574,0,0,1,.6,2.065,9.078,9.078,0,0,1-.66,4.9c-.067.138-.138.272-.209.406a9.38,9.38,0,0,1-17.364-6.982,6.085,6.085,0,0,1,.344-.843,10.672,10.672,0,0,1,2.141-2.929A9.314,9.314,0,0,1,2078.265,569.375Z" transform="translate(-2047.711 -550.388)"/></g><g transform="translate(441.27 251.777)"><path class="i" d="M1866.7,433.021l3.052-1.024a.714.714,0,0,1,.724.173q.362.363.759.7a11.976,11.976,0,0,0,1.536,1.117.7.7,0,0,1,.332.721l-.542,3.321a.691.691,0,0,0,.517.786l2.982.756a.683.683,0,0,0,.806-.421l1.081-2.9a.686.686,0,0,1,.689-.452,12.434,12.434,0,0,0,3.9-.439.709.709,0,0,1,.8.332l.93,1.64a.716.716,0,0,0,.9.3l2.8-1.22a.626.626,0,0,0,.157-.092.686.686,0,0,0,.227-.766l-.762-2.281-.187-.555a12.33,12.33,0,0,0,1.218-1.242,12.513,12.513,0,0,0,1.334-1.9.686.686,0,0,1,.71-.341l2.675.439a.711.711,0,0,0,.8-.529l.578-2.28.164-.654a.72.72,0,0,0-.445-.854l-2.426-.906a.685.685,0,0,1-.457-.666,12.355,12.355,0,0,0-.225-2.631,2.168,2.168,0,0,0-.04-.219.354.354,0,0,1-.011-.074.7.7,0,0,1,.358-.692l2.659-1.515a.511.511,0,0,0,.085-.057.713.713,0,0,0,.214-.837l-1.212-2.793a.71.71,0,0,0-.876-.39l-3.183,1.07a.687.687,0,0,1-.75-.209,12.513,12.513,0,0,0-1.357-1.343q-.393-.335-.806-.63a.723.723,0,0,1-.291-.7l.52-3.192a.691.691,0,0,0-.512-.781l-2.951-.744a.722.722,0,0,0-.856.448l-.856,2.3a.709.709,0,0,1-.745.459,12.407,12.407,0,0,0-3.822.129.7.7,0,0,1-.753-.345l-1.365-2.4a.729.729,0,0,0-.92-.307l-2.783,1.207a.7.7,0,0,0-.384.863l.043.134.887,2.65a.712.712,0,0,1-.226.781l0,0a12.326,12.326,0,0,0-1.558,1.534c-.257.3-.494.613-.72.933a.7.7,0,0,1-.689.295l-2.715-.446a.723.723,0,0,0-.819.535l-.742,2.938a.769.769,0,0,0-.017.248.719.719,0,0,0,.456.591l1.939.718a.719.719,0,0,1,.45.544.771.771,0,0,1,.006.2,12.365,12.365,0,0,0,.4,4.872.7.7,0,0,1-.225.731.727.727,0,0,1-.1.068l-2.154,1.226a.708.708,0,0,0-.3.894l.028.065,1.179,2.723A.721.721,0,0,0,1866.7,433.021Zm18.1-13.18a8.268,8.268,0,0,1,.735,1.354,6.5,6.5,0,0,1,.285,3.531c-.026.107-.055.211-.084.316a6.717,6.717,0,0,1-13.212-2.24,4.366,4.366,0,0,1,.113-.642,7.638,7.638,0,0,1,1.052-2.375A6.669,6.669,0,0,1,1884.806,419.841Z" transform="translate(-1864.124 -408.018)"/></g><g transform="translate(311.503 427.119)"><path class="j" d="M372.747,1628.074h13.16c.705-.6-.488-1.957-1.735-2.048a7.683,7.683,0,0,0-2.009.238c-.181-2.405-1.215-13.218-5.113-12.784-4.382.486,0,4.762,1.239,7.293a60.24,60.24,0,0,1,2.328,5.832c-.356.077-.724.153-1.1.222-.581-1.784-2.742-7.783-5.491-7.433-3.227.409-1.93,2.815.357,4.242,1.678,1.05,3.739,2.542,4.718,3.263a13.979,13.979,0,0,1-2.574.206A5.547,5.547,0,0,0,372.747,1628.074Z" transform="translate(-372.093 -1613.467)"/></g><g transform="translate(532.509 424.889)"><path class="j" d="M2506.5,1614.653h-14.881c-.8-.676.552-2.213,1.961-2.316a8.691,8.691,0,0,1,2.271.269c.2-2.72,1.374-14.947,5.781-14.456,4.956.55,0,5.385-1.4,8.247a67.983,67.983,0,0,0-2.632,6.6c.4.087.818.172,1.244.251.657-2.017,3.1-8.8,6.209-8.405,3.649.463,2.182,3.182-.4,4.8-1.9,1.187-4.228,2.875-5.335,3.69a15.841,15.841,0,0,0,2.91.233C2504.77,1613.5,2506.014,1614.249,2506.5,1614.653Z" transform="translate(-2491.378 -1598.136)"/></g><g transform="translate(281.613 304.074)"><g transform="translate(70.903 45.762)"><path class="k" d="M1417.642,1082.972l-7.2,85.585s-.754,5.188,3.1,5.2c6.345.015,31.581,0,31.581,0s-4.776-1.08-4.718-3.51c.068-2.864,8.413-88.083,8.413-88.083Z" transform="translate(-1410.384 -1082.162)"/></g><g transform="translate(72.977 44.21)"><path class="i" d="M1459.692,1163.113c-1.248,0-25.68.045-31.859-.034-2.693-.033-3.165-2.394-3.187-3.922a7.639,7.639,0,0,1,.082-1.274l.187-2.224.477-5.67.421-5.009.541-6.437.456-5.433,5.114-60.814,31.184-.809s-3.515,35.663-6,61.623c-.277,2.892-.541,5.666-.786,8.255q-.119,1.24-.229,2.421c-.231,2.456-.441,4.712-.625,6.7-.1,1.05-.186,2.025-.266,2.918-.317,3.5-.5,5.737-.506,6.161a3.588,3.588,0,0,0,.061.693C1455.269,1162.989,1459.223,1163.113,1459.692,1163.113Z" transform="translate(-1424.645 -1071.486)"/></g><g transform="translate(2.43 0)"><path class="i" d="M939.642,767.552l17.533,70.426,2.4,9.645,8.166,32.8h151.711l-30.1-112.873Z" transform="translate(-939.642 -767.552)"/></g><path class="k" d="M925.365,767.551l-2.43.81,27.3,114.514,3.231-2.45Z" transform="translate(-922.935 -767.551)"/><g transform="translate(27.299 112.874)"><path class="k" d="M1110.614,1545.995h150.777l4.164-2.45h-151.71Z" transform="translate(-1110.614 -1543.545)"/></g><g transform="translate(80.248 135.836)"><rect class="i" width="32.645" height="1.551" transform="translate(32.645 1.551) rotate(180)"/></g><g transform="translate(73.724 115.323)"><path class="k" d="M1460.65,1560.383l-.169,1.186-30.7,6.2.421-5.009.2-2.379Z" transform="translate(-1429.78 -1560.383)"/></g><g class="d" transform="translate(72.978 126.131)"><path class="k" d="M1459.7,1644.389c-1.248,0-25.68.045-31.859-.034-2.693-.033-3.165-2.394-3.187-3.922l30.556-5.749c-.317,3.5-.5,5.736-.506,6.161a3.6,3.6,0,0,0,.061.693C1455.275,1644.266,1459.229,1644.389,1459.7,1644.389Z" transform="translate(-1424.651 -1634.684)"/></g><g transform="translate(2.43)"><path class="i" d="M939.641,767.551h149.712l24.291,90.715H962.224Z" transform="translate(-939.641 -767.551)"/></g><g transform="translate(8.631 4.859)"><path class="h" d="M1143.012,882.884H1002.836l-5.009-19.955-1.938-7.721-.79-3.149-5.148-20.507-.267-1.068-2.721-10.84-1.217-4.85-1.039-4.137-2.435-9.7h138.155l2.674,9.7,1.14,4.137,1.337,4.85,8.808,31.953h0l.747,2.707.347,1.257,6.082,22.059Z" transform="translate(-982.271 -800.959)"/></g><g transform="translate(25.013 90.715)"><path class="i" d="M1151.778,1391.2l-51.312,22.423L1094.9,1391.2Z" transform="translate(-1094.898 -1391.203)"/></g><g transform="translate(60.322 14.56)"><g transform="translate(9.588)"><g transform="translate(0.048 0.047)"><path class="l" d="M1428.391,909.518c-11.452,0-22.315-9.317-24.214-20.77s5.873-20.77,17.325-20.77,22.315,9.317,24.214,20.77S1439.844,909.518,1428.391,909.518Zm-6.3-37.959c-9.478,0-15.91,7.711-14.338,17.189s10.562,17.189,20.039,17.189,15.91-7.711,14.338-17.189S1431.574,871.559,1422.1,871.559Z" transform="translate(-1403.891 -867.978)"/></g><path class="i" d="M1428.116,909.286c-11.479,0-22.366-9.339-24.27-20.817s5.886-20.817,17.365-20.817a25.579,25.579,0,0,1,24.27,20.817,1.517,1.517,0,0,1-1.533,1.838,2.258,2.258,0,0,1-2.143-1.838,21.062,21.062,0,0,0-19.984-17.141c-9.452,0-15.866,7.69-14.3,17.141s10.532,17.141,19.984,17.141a2.258,2.258,0,0,1,2.143,1.838A1.517,1.517,0,0,1,1428.116,909.286Z" transform="translate(-1403.56 -867.652)"/></g><g transform="translate(0 55.612)"><g transform="translate(0 0)"><path class="l" d="M1411.193,1251.945l.329,1.986a1.63,1.63,0,0,1-1.643,1.97h-69.584a2.427,2.427,0,0,1-2.3-1.97l-.329-1.986a1.63,1.63,0,0,1,1.643-1.97H1408.9A2.427,2.427,0,0,1,1411.193,1251.945Z" transform="translate(-1337.641 -1249.975)"/></g><g transform="translate(0 0)"><path class="k" d="M1388.713,1249.975l.983,5.926h-49.4a2.427,2.427,0,0,1-2.3-1.97l-.329-1.986a1.63,1.63,0,0,1,1.643-1.97Z" transform="translate(-1337.641 -1249.975)"/></g><g transform="translate(26.109)"><path class="i" d="M1531.849,1249.975l-4.483,5.926h-10.227l4.483-5.926Z" transform="translate(-1517.139 -1249.975)"/></g><g transform="translate(42.576)"><path class="i" d="M1638.841,1249.975l.983,5.926h-9.479l4.483-5.926Z" transform="translate(-1630.345 -1249.975)"/></g><g transform="translate(9.642)"><path class="i" d="M1418.642,1249.975l-4.483,5.926h-10.227l4.483-5.926Z" transform="translate(-1403.932 -1249.975)"/></g><g transform="translate(0 0)"><path class="i" d="M1345.527,1249.975l-4.483,5.926h-.75a2.427,2.427,0,0,1-2.3-1.97l-.329-1.986a1.63,1.63,0,0,1,1.643-1.97Z" transform="translate(-1337.641 -1249.975)"/></g></g><g transform="translate(18.877 16.74)"><path class="l" d="M1471.492,984.836h-3.878l-.2-1.19h5.421l.17,1.025-2.372,6.688h-1.521Z" transform="translate(-1467.416 -983.514)"/><path class="l" d="M1515.171,986.726c-.365-2.2.683-3.988,2.71-3.988s3.642,1.763,4.011,3.988c.366,2.2-.682,3.989-2.71,3.989S1515.54,988.952,1515.171,986.726Zm5.322,0c-.252-1.521-1.241-2.766-2.431-2.766s-1.749,1.212-1.492,2.766c.252,1.521,1.23,2.766,2.431,2.766S1520.749,988.269,1520.493,986.726Z" transform="translate(-1508.163 -982.738)"/><path class="l" d="M1567.319,985.013a1.547,1.547,0,0,1,1.5-1.972,2.267,2.267,0,0,1,2.134,1.972,1.547,1.547,0,0,1-1.5,1.972A2.267,2.267,0,0,1,1567.319,985.013Zm2.655,0a1.225,1.225,0,0,0-1.035-1.124c-.518,0-.742.507-.64,1.124a1.216,1.216,0,0,0,1.035,1.124C1569.852,986.137,1570.076,985.63,1569.974,985.013Zm3.456-1.884h1.091l-4.362,7.713h-1.091Zm-.8,5.829a1.547,1.547,0,0,1,1.5-1.972,2.267,2.267,0,0,1,2.134,1.972,1.547,1.547,0,0,1-1.5,1.972A2.267,2.267,0,0,1,1572.634,988.958Zm2.655,0a1.225,1.225,0,0,0-1.035-1.124c-.518,0-.742.507-.64,1.124a1.216,1.216,0,0,0,1.035,1.124C1575.167,990.081,1575.391,989.575,1575.289,988.958Z" transform="translate(-1552.761 -982.997)"/></g><g transform="translate(28.742 50.826)"><path class="l" d="M1535.238,1217.772h.418l.331,2h1.25l.063.38h-1.667Z" transform="translate(-1535.238 -1217.67)"/><path class="l" d="M1550.067,1222.469a.775.775,0,0,1,.8-.937,1.141,1.141,0,0,1,1.11.937.775.775,0,0,1-.806.934A1.139,1.139,0,0,1,1550.067,1222.469Zm1.5,0a.68.68,0,0,0-.646-.578.449.449,0,0,0-.444.578.682.682,0,0,0,.642.577A.45.45,0,0,0,1551.568,1222.469Z" transform="translate(-1547.899 -1220.883)"/><path class="l" d="M1566.846,1223.422l-.036-.221a.606.606,0,0,1-.538.258.7.7,0,0,1-.732-.56c-.066-.4.212-.588.629-.588a1.616,1.616,0,0,1,.508.075l-.005-.034a.453.453,0,0,0-.505-.384,1.122,1.122,0,0,0-.494.112l-.167-.329a1.381,1.381,0,0,1,.658-.149.838.838,0,0,1,.914.757l.176,1.063Zm-.114-.75a1.28,1.28,0,0,0-.423-.071c-.258,0-.393.105-.363.285a.361.361,0,0,0,.39.265c.272,0,.45-.153.413-.377Z" transform="translate(-1561.103 -1220.943)"/><path class="l" d="M1579.127,1218.651a.711.711,0,0,1,.677-.931.9.9,0,0,1,.664.316l-.16-.964h.411l.411,2.479h-.411l-.05-.3a.589.589,0,0,1-.555.337A1.056,1.056,0,0,1,1579.127,1218.651Zm1.45,0a.66.66,0,0,0-.615-.574c-.282,0-.48.218-.42.581a.654.654,0,0,0,.612.574A.449.449,0,0,0,1580.577,1218.651Z" transform="translate(-1572.729 -1217.072)"/><path class="l" d="M1593.767,1217.212h.441l.065.391h-.442Zm.127.666h.411l.3,1.793h-.411Z" transform="translate(-1585.254 -1217.192)"/><path class="l" d="M1601.155,1221.569h.411l.046.278a.529.529,0,0,1,.508-.316.75.75,0,0,1,.753.689l.189,1.141h-.411l-.169-1.019a.457.457,0,0,0-.456-.438c-.238,0-.377.167-.33.445l.168,1.012h-.411Z" transform="translate(-1591.567 -1220.883)"/><path class="l" d="M1616.145,1223.7l.1-.309a1.33,1.33,0,0,0,.67.19c.367,0,.536-.19.476-.55l-.023-.139a.619.619,0,0,1-.577.329.989.989,0,0,1-.955-.846.67.67,0,0,1,.675-.842.928.928,0,0,1,.679.306l-.045-.268h.411l.237,1.427a.815.815,0,0,1-.115.676.871.871,0,0,1-.7.241A1.739,1.739,0,0,1,1616.145,1223.7Zm1.142-1.324a.614.614,0,0,0-.609-.5.4.4,0,0,0-.427.5.6.6,0,0,0,.592.5A.417.417,0,0,0,1617.287,1222.374Z" transform="translate(-1604.102 -1220.883)"/></g></g></g><g transform="translate(193.141 352.254)"><g transform="translate(0 0)"><g transform="translate(37.028)"><path d="M796.164,1102.609s.351-3.824-3.922-3.824a5.016,5.016,0,0,1,1.965,1.054,5.053,5.053,0,0,0-5.691.859c-2.966,2.458-1.123,8.625-2.025,9.8s-4.414,1.4-3.985,5.191,11.147,8.527,10.459,11.659c0,0,4.2-6.174,1.2-8.992a5.567,5.567,0,0,1,1.613,3.018s.4-3.2-1.639-4.224c-1.8-.906-3.278-4.218-3.122-4.81S796.164,1102.609,796.164,1102.609Z" transform="translate(-782.469 -1098.785)"/></g><g transform="translate(41.989 22.187)"><path class="m" d="M821.1,1251.316s3.192,13.207,6.326,15.847c1.884,1.587,7.484,5.229,7.484,5.229l-2.33.845s-7.768-2.624-9.507-4.668-6.5-12.291-6.5-12.291Z" transform="translate(-816.575 -1251.316)"/></g><g transform="translate(45.372 42.936)"><path class="h" d="M859.312,1399.115l-.75-1.858a5.269,5.269,0,0,0-4.886-3.3H839.836v46.271h57.248v-37.49h-32.4A5.8,5.8,0,0,1,859.312,1399.115Z" transform="translate(-839.836 -1393.961)"/></g><g transform="translate(14.523 32.905)"><path class="i" d="M629.74,1337.484c.028.05.058.1.088.155.7,1.214,2.3,4.189,4.066,7.445.835,1.544,1.709,3.153,2.538,4.666,1.429,2.611,2.729,4.937,3.487,6.166.771,1.25,1.339,2.127,1.569,2.479l0,0a.581.581,0,0,1,.075.362,18.959,18.959,0,0,0,.051,3.274,25.118,25.118,0,0,0,8.207,16.269l2.124.314s-3.005-11.134-3.891-17.429a12.11,12.11,0,0,1-.163-2.5,26.068,26.068,0,0,0-.685-6.812,152.566,152.566,0,0,0-4.343-15.768c-.1-.308-3.086-11.111-3.086-11.111-2.507,2.191-11.649,3.095-11.649,3.095S626.58,1331.864,629.74,1337.484Z" transform="translate(-627.75 -1325)"/></g><g transform="translate(34.264 84.275)"><path class="n" d="M772.384,1683.1H763.52a4.869,4.869,0,0,1,.25-2.376c.444-.983,1.076-1.015.081-2.556.563.58,2.374.82,3.655.647a10.843,10.843,0,0,0,1.537,2.339C769.623,1681.568,772.205,1681.419,772.384,1683.1Z" transform="translate(-763.472 -1678.165)"/></g><g transform="translate(16.513 40.163)"><path class="k" d="M641.433,1380.124c.028.051.058.1.088.155.7,1.214,4.476,8.192,6.241,11.448a47.205,47.205,0,0,1-.623-16.829Z" transform="translate(-641.433 -1374.898)"/></g><g transform="translate(42.602 3.225)"><path d="M827.7,1121.016a35.528,35.528,0,0,0-5.322,2.6c-2.4,2.664-1.717,6.14-.343,6.173.881.021.71,1.487.71,1.487l9.817-4.153S831.384,1120.232,827.7,1121.016Z" transform="translate(-820.791 -1120.954)"/></g><g transform="translate(41.049 20.204)"><path class="h" d="M815.279,1237.682a12.577,12.577,0,0,1,1.307,5.406s-1.8,2.843-6.474,3.564C810.113,1246.652,814.13,1237.68,815.279,1237.682Z" transform="translate(-810.113 -1237.682)"/></g><g transform="translate(1.175 31.055)"><path class="i" d="M558.235,1317.888l.03-1.658c-3.3.417-11.388-3.947-11.388-3.947s-3.455,2.3-3.928,8.861c-.231,3.2-1.692,16.751-1.853,20.8-.059,1.466-.078,2.513-.085,2.931a.007.007,0,0,1,0,0,.577.577,0,0,1-.14.341,18.91,18.91,0,0,0-1.79,2.743c-5.04,9.377-2.4,22.119-2.4,22.119l1.17-.3s4.262-13.209,7.047-18.922a11.961,11.961,0,0,1,1.261-2.159,26.055,26.055,0,0,0,3.24-6.031C551.452,1337.754,558.235,1317.888,558.235,1317.888Z" transform="translate(-535.987 -1312.283)"/></g><g transform="translate(0 84.211)"><path class="n" d="M536.822,1682.722h-8.864a4.866,4.866,0,0,1,.251-2.375c.444-.983,1.138-1.43.972-2.62a3.193,3.193,0,0,0,2.762,1.057,9.734,9.734,0,0,0,1.538,1.993C534.061,1681.193,536.643,1681.044,536.822,1682.722Z" transform="translate(-527.91 -1677.726)"/></g><g transform="translate(11.712 15.18)"><path class="h" d="M637.166,1219.044c-1.191.2.194,1.149-1.443,1.327a29.587,29.587,0,0,0-6,.931,1.353,1.353,0,0,0-.863.7c-.547,1.643-4.007,4.466-4.007,4.466-15.434-.7-16.428-7.581-16.428-7.581,10.017-9.728,18.538-15.031,25.581-15.687a12.531,12.531,0,0,1,5.108.537c2.463,1.1,3.813,4.434,3.813,4.434S641.69,1218.272,637.166,1219.044Z" transform="translate(-608.428 -1203.147)"/></g><g transform="translate(31.932 19.848)"><path class="h" d="M754.511,1247.795a29.594,29.594,0,0,0-6,.931c-3.644-7.262,3.117-13.487,3.117-13.487S754,1244.882,754.511,1247.795Z" transform="translate(-747.435 -1235.239)"/></g><g transform="translate(33.898 18.538)"><path class="m" d="M768.072,1226.24s-5.861-.32-6.9,3.36,1.954,18.367,2.6,19.883c1.175,2.76,7.1,10.98,7.1,10.98l1.9-.984s-3.815-12.033-4.666-13.224C766.766,1244.385,769.826,1227.841,768.072,1226.24Z" transform="translate(-760.952 -1226.233)"/></g><g transform="translate(43.56 51.528)"><path class="m" d="M829.536,1453.287a8.661,8.661,0,0,1,.884.908c.394.482.048.656,1.18,2.837,0,0-.058.3-.3.248s-1.1-.9-1.538-.84c0,0-.313.258-.348,1.113a20.623,20.623,0,0,1-.174,2.9c-.139.332-1.156-1.393-1.657-2.64-.439-1.093-.011-4.781-.011-4.781Z" transform="translate(-827.382 -1453.031)"/></g><g transform="translate(32.96 17.451)"><path class="h" d="M754.5,1228.135c.015.086,5.546,1.018,9.006-.738,0,0,2.89-9.054-1.24-8.621s-6.576,1.734-6.68,3.711A38.057,38.057,0,0,1,754.5,1228.135Z" transform="translate(-754.503 -1218.761)"/></g><g transform="translate(42.263 12.871)"><path class="m" d="M818.47,1190.8a3.683,3.683,0,0,0,1.112,2.578c.735.756,1.8,1.347,2.542.6a8.1,8.1,0,0,0,1.154-1.393c.644-1.108,1.412-2.24,1.412-2.24l-3.317-2.906-.2-.174a8.454,8.454,0,0,1-2.471,2.8A.77.77,0,0,0,818.47,1190.8Z" transform="translate(-818.463 -1187.269)"/></g><g transform="translate(45.111 13.044)"><path class="o" d="M841.422,1191.37s-.767,1.13-1.411,2.238c-2.062-1.271-2.064-3.824-1.905-5.146Z" transform="translate(-838.044 -1188.462)"/></g><g transform="translate(44.974 7.116)"><path class="m" d="M840.706,1158s-5.006-2.786-3.223-5.876,2.337-5.532,5.609-3.884,3.207,3.182,2.863,4.359S842.054,1158.646,840.706,1158Z" transform="translate(-837.099 -1147.71)"/></g><g transform="translate(44.448 6.698)"><path d="M843.709,1148.337c-.229-1.372-.926-1.5-1.412-1.412a4,4,0,0,0-4.869-1.864,6.816,6.816,0,0,1-3.946,2.37s.581,1.081,2.975,1.75a4.091,4.091,0,0,0,2.361-.189,13.36,13.36,0,0,1-3.4,1.281c3.154.289,6.155-2.6,6.467-2.9a4.491,4.491,0,0,1,.248,2.067c-.208.93-1.033,2.613-.529,2.831C841.605,1152.266,844.053,1150.395,843.709,1148.337Z" transform="translate(-833.481 -1144.831)"/></g><g transform="translate(60.505 43.174)"><path class="m" d="M944.611,1395.695s-1.4,1.048-.344,1.733,2.932.87,2.94.421C947.233,1396.339,946.481,1395.267,944.611,1395.695Z" transform="translate(-943.874 -1395.6)"/></g></g><g transform="translate(55.252 57.59)"><path class="i" d="M912.877,1512.552h29.581c1.219,0,2.159-1.865,2.174-3.184.048-4.145-4.4-10.766-14.481-7.834,0,0-2.845-7.679-12.842-6.748-5.87.547-9.141,6.536-9.535,11.874A5.343,5.343,0,0,0,912.877,1512.552Z" transform="translate(-907.759 -1494.707)"/></g><g transform="translate(66.579 65.149)"><g transform="translate(4.245 4.026)"><rect class="p" width="5.729" height="13.162" transform="translate(5.729 13.162) rotate(180)"/></g><path class="p" d="M999.849,1553.359h-14.22l7.11-6.684Z" transform="translate(-985.629 -1546.676)"/></g></g><g transform="translate(417.714 355.583)"><g transform="translate(0)"><path class="n" d="M1872.582,1128.569l-7.476,1.718-3.714,6.712-2.777-15.328Z" transform="translate(-1858.615 -1121.671)"/></g><g transform="translate(4.996 7.139)"><rect class="n" width="1.366" height="7.901" transform="matrix(0.799, -0.602, 0.602, 0.799, 0, 0.822)"/></g></g><g transform="translate(292.562 255.422)"><g transform="translate(22.398 60.819)"><path class="m" d="M1152.419,859.036a.873.873,0,0,0-.156.934.007.007,0,0,0,0,0,5.808,5.808,0,0,0,1.835,2.013c.11.089.209.17.295.245l.066.059.051.046c.806.744.5.914,1.952,2.422,1.652,1.719,2.79,1.75,3.113,1.594.274-.134-.282-1.045-.9-2.07-.03-.049-.059-.1-.09-.149-.082-.136-.164-.275-.245-.411-.722-1.233-.537-1.812-.365-3.647.139-1.491,2.32-8.333,2.32-8.333l-3.166-.545s-.954,5.447-2,6.286c-.562.447-1.19.453-1.73.784q-.057.035-.113.071A4.163,4.163,0,0,0,1152.419,859.036Z" transform="translate(-1152.194 -851.198)"/></g><g transform="translate(22.398 67.96)"><path class="n" d="M1152.419,900.991a.873.873,0,0,0-.156.934.007.007,0,0,0,0,0,6.726,6.726,0,0,0,1.838,2.007c.109.091.206.174.292.252l.066.059.051.046c.806.744.5.914,1.952,2.422,1.652,1.719,2.79,1.75,3.113,1.594.274-.134-.282-1.045-.9-2.07a7.042,7.042,0,0,1-2.945-2.17c-.958-1.224-1.61-2.783-2.262-3.74l-.186-.035A4.16,4.16,0,0,0,1152.419,900.991Z" transform="translate(-1152.194 -900.295)"/></g><g transform="translate(45.621 59.855)"><path class="m" d="M1314.38,851.4c.2.977,1.589.814,3.145.434s1.187.072,3.4-.174,2.886-1.071,2.954-1.4c.061-.292-1.034-.4-2.208-.531-.147-.016-.3-.035-.444-.053-1.326-.166-2.3-1.022-3.5-1.724-1.14-.665-2.842-3.376-2.842-3.376l-3.038.241s1.594,2.421,2.211,3.474a3.671,3.671,0,0,1,.3,2.07A3.9,3.9,0,0,0,1314.38,851.4Z" transform="translate(-1311.848 -844.573)"/></g><g transform="translate(48.107 65.009)"><path class="n" d="M1332.129,882.107c1.556-.38,1.186.072,3.4-.174s2.886-1.071,2.954-1.4c.061-.292-1.034-.4-2.208-.531l-.011.023a6.244,6.244,0,0,1-3.172.986c-1.5.037-3.095-.394-4.132-.377a3.891,3.891,0,0,0,.023,1.039C1329.18,882.65,1330.573,882.487,1332.129,882.107Z" transform="translate(-1328.938 -880.002)"/></g><g transform="translate(26.09 42.385)"><path d="M1187.994,729.337l-2.84,7.642-3.708,9.978a6.006,6.006,0,0,1-1.97-.18,8.537,8.537,0,0,1-1.9-.927s1.03-10.713,2.95-16.863a10.951,10.951,0,0,1,1.652-3.574C1185.151,721.893,1187.994,729.337,1187.994,729.337Z" transform="translate(-1177.572 -724.467)"/></g><g transform="translate(6.156 33.592)"><path class="q" d="M1068,665.547c-1.617-.521-5.834-.008-10.409.82a3.1,3.1,0,0,1-3.2-1.447h0l-11.513-.9s-3.8,8.425-1.719,13.794a2.02,2.02,0,0,0,2.012,1.3h0s6.957.01,9.182.01c5.726,0,12.118-3.936,12.945-4.1,1.353-.271,1.895,2.436,3.248,5.278s12.722,12.587,12.722,12.587a10.012,10.012,0,0,0,2.469-.253,2.432,2.432,0,0,0,1.06-.669S1072.194,666.9,1068,665.547Z" transform="translate(-1040.53 -664.021)"/></g><g transform="translate(0.042)"><path d="M1017.245,433.759a4.085,4.085,0,0,0-2.2-.572,6.107,6.107,0,0,1-1.062-.064c-4.394-.644-7.04,5.738-7.2,7.667-.285,3.541-2.158,4.081-4.794,6.3-5.286,4.446-3.736,9.613-.846,11.532,1.734,1.152,4.791,0,4.791,0,.043.03,8.361-4.65,12.461-6.907C1024.547,450.839,1019.715,435.229,1017.245,433.759Z" transform="translate(-998.5 -433.077)"/></g><g transform="translate(10.897 10.268)"><path class="m" d="M1078.737,510.113a5.42,5.42,0,0,1-3.378.1,6.021,6.021,0,0,1-2.231-2.673c.582-.027,1.222-.536,1.714-3.877l.248.089,4.17,1.5s-.3,1.338-.5,2.612C1078.6,508.938,1078.509,509.962,1078.737,510.113Z" transform="translate(-1073.127 -503.667)"/></g><g transform="translate(12.86 10.357)"><path class="r" d="M1090.789,505.778s-.166.722-.409,2.071a4.709,4.709,0,0,1-3.761-3.571Z" transform="translate(-1086.619 -504.278)"/></g><g transform="translate(12.442 3.15)"><path class="m" d="M1088.956,464.767s-5.705-.766-5.174-4.311.153-6.032,3.818-5.693,4.168,1.8,4.279,3.024S1090.454,464.875,1088.956,464.767Z" transform="translate(-1083.748 -454.732)"/></g><g transform="translate(10.805 2.836)"><path d="M1082.055,454s-3.652,3.147-6.136,3.4-3.425-.544-3.425-.544a9.7,9.7,0,0,0,2.345-3.178,1.748,1.748,0,0,1,1.44-1.03C1078.053,452.5,1081.416,452.43,1082.055,454Z" transform="translate(-1072.494 -452.577)"/></g><g transform="translate(18.083 3.297)"><path d="M1122.528,456.428a8.993,8.993,0,0,1,1.607,2.057,6.9,6.9,0,0,1,.187,3.671s1.9-3.7.826-5.5A1.521,1.521,0,0,0,1122.528,456.428Z" transform="translate(-1122.528 -455.746)"/></g><g transform="translate(6.001 14.01)"><path class="h" d="M1054.778,540.5c-.173,11.548-.047,9.135-1.311,10.231a4.849,4.849,0,0,1-2.286.5c-3.541.235-9.766-.348-10-1-.817-2.264-.24-2.968-.922-6.435-.071-.369-.159-.768-.262-1.2-.568-2.381-1.121-3.191.895-7.016,1.828-3.465,3.727-6.277,3.9-6.176,4.823,2.863,5.212.457,5.212.457S1054.862,534.872,1054.778,540.5Z" transform="translate(-1039.468 -529.397)"/></g><g transform="translate(26.09 46.903)"><path class="q" d="M1185.154,763.525l-3.708,9.978a6.007,6.007,0,0,1-1.97-.18,8.539,8.539,0,0,1-1.9-.927s1.03-10.714,2.95-16.863Z" transform="translate(-1177.572 -755.532)"/></g><g transform="translate(16.532 14.469)"><path class="h" d="M1111.865,532.549s4.963.841,5.545,2.978,2.5,15.106,2.5,15.106-1.4,1.367-2.565.2-3.668-12.134-3.668-12.134Z" transform="translate(-1111.865 -532.549)"/></g><g transform="translate(6.79 23.598)"><path class="s" d="M1055.811,607.558c-3.541.235-9.766-.348-10-1-.817-2.264-.24-2.968-.922-6.434l1.708-4.81s-.282,5.356,1.3,6.764,6.467,2.719,7.234,3.9A4.311,4.311,0,0,1,1055.811,607.558Z" transform="translate(-1044.887 -595.311)"/></g><g transform="translate(13.657 33.052)"><path class="m" d="M1092.1,660.843s3.494-.778,4.057-.468a8.207,8.207,0,0,1,2.114,1.832c.173.393-1.255-.3-1.719-.423a4.132,4.132,0,0,0-1.484.325,4.931,4.931,0,0,1-2.659.267Z" transform="translate(-1092.097 -660.302)"/></g><g transform="translate(0 14.011)"><path class="h" d="M1009.526,529.4s-4.691.289-6.315,2.554c-2.286,3.188-6.821,16.776-4.222,18.588,2.927,2.041,13.32.534,13.32.534a4.222,4.222,0,0,0-.135-2.4c-.481-.782-8.3-2.045-8.663-2.406s4.512-7.038,4.512-8.121S1009.526,529.4,1009.526,529.4Z" transform="translate(-998.21 -529.398)"/></g><g transform="translate(17.883 34.097)"><path class="m" d="M1121.153,667.489a6.76,6.76,0,0,0,.972,1.057.718.718,0,0,0,.4.085l-.493-.888Z" transform="translate(-1121.153 -667.489)"/></g><g transform="translate(17.714 33.125)"><path class="m" d="M1119.99,660.8l2.128,1.033a.379.379,0,0,1-.353.136,5.08,5.08,0,0,1-.923-.254Z" transform="translate(-1119.99 -660.804)"/></g><g transform="translate(13.657 23.451)"><g transform="translate(0 12.103)"><path class="s" d="M1114.328,677.507H1092.1V678h22.033Z" transform="translate(-1092.097 -677.507)"/></g><g transform="translate(5.198)"><path class="s" d="M1127.835,606.9h16.835l5.064-12.593h-16.809Z" transform="translate(-1127.835 -594.302)"/></g><g transform="translate(16.148 5.495)"><path class="b" d="M1204.748,632.882a.583.583,0,0,0-.572-.8,1.148,1.148,0,0,0-1.031.8.583.583,0,0,0,.571.8A1.148,1.148,0,0,0,1204.748,632.882Z" transform="translate(-1203.112 -632.081)"/></g></g></g><g transform="translate(490.244 323.513)"><g transform="translate(20.938 19.21)"><path class="t" d="M2344.759,1033.26s8.158,8.3,8.575,11.745-4.23,8.825-4.23,8.825Z" transform="translate(-2344.759 -1033.26)"/></g><g transform="translate(4.335 111.665)"><path class="u" d="M2242.56,1670.441s-.312,4.856-1.251,4.924c-.125.009-4.766,0-4.766,0l-5.924-.047a1.923,1.923,0,0,1,1.774-1.726c1.732-.3,4.633-1.509,5.688-3.795C2239.189,1667.391,2242.56,1670.441,2242.56,1670.441Z" transform="translate(-2230.619 -1668.872)"/></g><g transform="translate(17.53 111.694)"><path class="u" d="M2333.273,1670.638s-.312,4.856-1.251,4.924c-.125.009-4.766,0-4.766,0l-5.924-.047a1.922,1.922,0,0,1,1.774-1.725c1.732-.3,4.633-1.509,5.688-3.8C2329.9,1667.588,2333.273,1670.638,2333.273,1670.638Z" transform="translate(-2321.332 -1669.069)"/></g><g transform="translate(9.829 53.634)"><path class="v" d="M2268.388,1277.31s1.528,9.912,7.269,27.516,6.513,25.222,6.513,25.222l6.2-.161s.094-19.224-2.55-28.076-.506-31.891-.506-31.891Z" transform="translate(-2268.388 -1269.921)"/></g><g transform="translate(6.82 54.134)"><path class="w" d="M2247.707,1273.355a240.557,240.557,0,0,0,2.292,33.273c2.544,18.34,1.651,26.121,1.651,26.121l6.188.219s3.738-18.334,2.7-27.513,5.132-31.479,5.132-31.479Z" transform="translate(-2247.7 -1273.355)"/></g><g transform="translate(10.817 11.831)"><path class="m" d="M2283.245,989.912l-3.3,2.154-4.763-.9c.066-.385.384-1.978.674-3.421.018-.085.035-.17.051-.253.248-1.228.462-2.283.462-2.283l4.455-1.954,1.66-.728c0,.026-.131,1.363-.149,1.559A11.346,11.346,0,0,0,2283.245,989.912Z" transform="translate(-2275.181 -982.528)"/></g><g transform="translate(10.132 16.604)"><path class="i" d="M2272.38,1016.846c.092-.039,5.741-1.692,6.354-1.489s.973,1.391.973,1.391l-9.239,2.068A4.586,4.586,0,0,1,2272.38,1016.846Z" transform="translate(-2270.469 -1015.34)"/></g><g transform="translate(5.763 17.963)"><path class="i" d="M2261.833,1062.741c-.967,4.363-16.893,4.846-20.99.875-.466-.453-.484-2.554-.3-5.387.356-5.535,1.481-13.86,1.533-18.114a33.687,33.687,0,0,1,.693-6.063,49.237,49.237,0,0,1,2.036-7.254s7.784-2.5,9.239-2.067C2261.048,1026.807,2262.8,1058.377,2261.833,1062.741Z" transform="translate(-2240.433 -1024.682)"/></g><g transform="translate(5.87 26.517)"><path class="t" d="M2241.172,1108.488c.356-5.535,1.481-13.86,1.533-18.114a33.665,33.665,0,0,1,.693-6.062l4.681-.816S2253.239,1103.327,2241.172,1108.488Z" transform="translate(-2241.172 -1083.496)"/></g><g transform="translate(7.082 43.074)"><path class="m" d="M2250.84,1198.042a1.1,1.1,0,0,1-.354,1.273,2.135,2.135,0,0,0-.955,1.945c.152.606,1.619,1.6,2.129,1.44s1.548-.954,1.437-1.274.7-2.8-.536-3.764A1,1,0,0,0,2250.84,1198.042Z" transform="translate(-2249.501 -1197.316)"/></g><g transform="translate(0 19.226)"><path class="i" d="M2214.394,1033.369s-4.438.585-8.086,5.936-6.049,9.329-5.383,11.262,6.757,8.644,7.809,8.647a2.822,2.822,0,0,0,2.853-2.482s-3.86-6.852-3.011-7.815c.363-.411,5.166-4.237,5.907-2.322C2215.709,1049.764,2214.394,1033.369,2214.394,1033.369Z" transform="translate(-2200.814 -1033.369)"/></g><g transform="translate(11.491 12.559)"><path class="x" d="M2285.961,988.424c-.981,1.653-4.625,3.077-6.146,3.6.018-.085.035-.17.052-.254.248-1.228.462-2.283.462-2.283l4.455-1.954C2285.768,987.522,2286.366,987.744,2285.961,988.424Z" transform="translate(-2279.816 -987.533)"/></g><g transform="translate(9.438 2.449)"><path class="m" d="M2266.591,929.815s7.164,2.252,8.5-2.231,3.156-7.211-1.361-8.839-5.919-.182-6.728,1.206S2264.762,929.114,2266.591,929.815Z" transform="translate(-2265.701 -918.025)"/></g><g transform="translate(10.349)"><path class="w" d="M2272.629,905.135s.446,5.221,1.526,5,2.06-.39,1.9,1.183-1.662,3.387,1.664,3.672,8.128-8.284,7.217-9.91C2282.307,900.385,2268.83,899.409,2272.629,905.135Z" transform="translate(-2271.959 -901.192)"/></g></g><g transform="translate(185.788 441.461)"><rect class="y" width="400.795" height="1.061" rx="0.531" transform="translate(0 0)"/></g></g></svg>