<svg xmlns="http://www.w3.org/2000/svg" width="24" height="24" viewBox="0 0 24 24"><defs><style>.a{fill:#fff;stroke:#707070;opacity:0;}.b{fill:#1c1b1b;}.c{stroke:none;}.d{fill:none;}</style></defs><g transform="translate(-1818 -730)"><g class="a" transform="translate(1818 730)"><rect class="c" width="24" height="24"/><rect class="d" x="0.5" y="0.5" width="23" height="23"/></g><g transform="translate(1815.331 727.331)"><g transform="translate(4 4)"><path class="b" d="M18,1.334a2,2,0,1,0,1.414.586A2,2,0,0,0,18,1.334Zm-3.334,2a3.334,3.334,0,1,1,.8,2.171L6.515,9.665a3.332,3.332,0,0,1,0,2.005l8.959,4.16A3.333,3.333,0,1,1,14.823,17l-8.959-4.16a3.333,3.333,0,1,1,0-4.342l8.959-4.16a3.333,3.333,0,0,1-.153-1ZM3.334,8.667a2,2,0,1,0,1.414.586A2,2,0,0,0,3.334,8.667ZM18,16a2,2,0,1,0,1.414.586A2,2,0,0,0,18,16Z" transform="translate(0 0)"/></g></g></g></svg>