<svg xmlns="http://www.w3.org/2000/svg" width="24" height="24" viewBox="0 0 24 24"><defs><style>.a{fill:#fff;}.b{fill:#199b4d;}</style></defs><g transform="translate(0 0)"><path class="a" d="M12,0A12,12,0,1,0,24,12,12.014,12.014,0,0,0,12,0Z" transform="translate(0 0)"/><path class="b" d="M11.576.265,4.939,6.194,1.777,3.132A1.089,1.089,0,0,0,.317,3.1.932.932,0,0,0,.282,4.467L4.174,8.214a1.1,1.1,0,0,0,.73.293,1.242,1.242,0,0,0,.73-.261l7.4-6.581A.9.9,0,0,0,13.07.3,1.134,1.134,0,0,0,11.576.265Z" transform="translate(5.317 7.747)"/></g></svg>