<svg xmlns="http://www.w3.org/2000/svg" width="24" height="24" viewBox="0 0 24 24"><defs><style>.a{fill:#f8b432;}</style></defs><g transform="translate(-2 -2)"><g transform="translate(2 2)"><g transform="translate(12.663 1.473)"><path class="a" d="M2.962,2.924A5.451,5.451,0,0,0,0,0V4.957c1.291-.018,2.552-.094,3.738-.224A12.517,12.517,0,0,0,2.962,2.924Z"/></g><g transform="translate(12.65 7.44)"><path class="a" d="M4.144,0A40.533,40.533,0,0,1,0,.263V3.9H4.654A19.307,19.307,0,0,0,4.144,0Z"/></g><g transform="translate(6.696 7.408)"><path class="a" d="M.518,0A19.291,19.291,0,0,0,0,3.932H4.654V.291A39.906,39.906,0,0,1,.518,0Z"/></g><g transform="translate(7.609 1.473)"><path class="a" d="M.766,2.924A12.483,12.483,0,0,0,0,4.7c1.176.139,2.433.224,3.728.25V0A5.45,5.45,0,0,0,.766,2.924Z"/></g><g transform="translate(6.699 12.65)"><path class="a" d="M0,0A18.7,18.7,0,0,0,.72,4.61a38.733,38.733,0,0,1,3.931-.315V0Z"/></g><g transform="translate(18.068 6.061)"><path class="a" d="M4.379,0C3.632.3,3.333.417,3.236.459L3.352.422c.024-.008-.254.1-.116.037A22.859,22.859,0,0,1,0,1.2,20.869,20.869,0,0,1,.519,5.3H5.932A12.144,12.144,0,0,0,4.379,0Z"/></g><g transform="translate(0 12.626)"><path class="a" d="M5.415,0H0A12.13,12.13,0,0,0,2.1,6.18a8.358,8.358,0,0,1,1.441-.66,17.58,17.58,0,0,1,2.6-.68A20.318,20.318,0,0,1,5.415,0Z"/></g><g transform="translate(0 6.004)"><path class="a" d="M2.616.395C2.475.347,2.07.2,1.586,0A12.142,12.142,0,0,0,0,5.357H5.413a20.846,20.846,0,0,1,.529-4.143A21.288,21.288,0,0,1,2.616.395Z"/></g><g transform="translate(2.388)"><path class="a" d="M1.177,3.564A12.423,12.423,0,0,0,0,4.925c.219.088.451.174.692.257l.007,0a20.136,20.136,0,0,0,3.244.787,14.1,14.1,0,0,1,.943-2.249C6.006,1.615,7.488.291,9.116,0A12.153,12.153,0,0,0,1.177,3.564Z"/></g><g transform="translate(2.992 18.71)"><path class="a" d="M4.281,1.483A13.449,13.449,0,0,1,3.61,0,16.545,16.545,0,0,0,1.034.659,7.307,7.307,0,0,0,0,1.112q.275.314.572.613A12.153,12.153,0,0,0,8.512,5.29C6.883,5,5.4,3.591,4.281,1.483Z"/></g><g transform="translate(12.497)"><path class="a" d="M7.939,3.565A12.153,12.153,0,0,0,0,0C1.628.291,3.11,1.615,4.23,3.723a14.13,14.13,0,0,1,.957,2.292,21.455,21.455,0,0,0,3.277-.749c.1-.039.266-.112.691-.286A12.41,12.41,0,0,0,7.939,3.565Z"/></g><g transform="translate(12.497 18.495)"><path class="a" d="M4.983,0A13.643,13.643,0,0,1,4.23,1.7C3.11,3.807,1.628,5.214,0,5.5A12.153,12.153,0,0,0,7.939,1.94a12.441,12.441,0,0,0,1-1.132A23.767,23.767,0,0,0,4.983,0Z"/></g><g transform="translate(7.888 18.228)"><path class="a" d="M0,.261Q.223.8.483,1.291A5.648,5.648,0,0,0,3.445,4.3V0C2.218.04,1.062.128,0,.261Z"/></g><g transform="translate(17.919 12.636)"><path class="a" d="M.665,0A20.475,20.475,0,0,1,0,4.609a23.633,23.633,0,0,1,4.368.963A12.139,12.139,0,0,0,6.081,0H.665Z"/></g><g transform="translate(12.65 12.653)"><path class="a" d="M0,0V4.27H.119c1.325,0,2.625.061,3.86.176A18.826,18.826,0,0,0,4.651,0Z"/></g><g transform="translate(12.666 18.203)"><path class="a" d="M.119,0H0V4.324A5.649,5.649,0,0,0,2.962,1.317,11.935,11.935,0,0,0,3.505.138C2.419.048,1.281,0,.119,0Z"/></g></g></g></svg>