<svg xmlns="http://www.w3.org/2000/svg" width="32" height="32" viewBox="0 0 32 32"><defs><style>.a{fill:#fff;stroke:#707070;opacity:0;}.b{fill:#e39808;}.c{fill:#2a5798;}.d{fill:#1e3e6c;}.e{fill:#b4d5fe;}.f{fill:#c8dffe;}.g{fill:#d7e1f0;}.h{fill:#f8b432;}.i{fill:#cae1fe;}.j{fill:#ebf4ff;}.k{fill:#f3fafe;}.l{fill:#fedf7d;}.m{fill:#c8dfec;}.n{fill:#bccbdd;}.o{fill:#c8cdd0;}.p{fill:#dfe2db;}.q{stroke:none;}.r{fill:none;}</style></defs><g transform="translate(-1238 -821)"><g class="a" transform="translate(1238 821)"><rect class="q" width="32" height="32"/><rect class="r" x="0.5" y="0.5" width="31" height="31"/></g><g transform="translate(1237.35 819.938)"><path class="b" d="M14.221,1.708c.227-.129.51-.024.728-.186h.429a.649.649,0,0,0,.429,0h.307a.827.827,0,0,0,.485,0h.485a13.54,13.54,0,0,0,1.407.283,10.423,10.423,0,0,1,4.279,2.112,10.289,10.289,0,0,1,3.664,5.939,10.351,10.351,0,0,1-2.33,9.249,16.778,16.778,0,0,0-2.848,4.442.127.127,0,0,1-.105.032c-1.238-.016-2.483.016-3.721-.016-.21-.065-.113-.2-.065-.315a13.481,13.481,0,0,1,1.44-2.589c.493-.7,1.068-1.319,1.61-1.974a3.7,3.7,0,0,0,.429-.623,6.732,6.732,0,0,1,.874-.922.742.742,0,0,0,.243-.939.228.228,0,0,1-.016-.146,13.5,13.5,0,0,0,.607-2.4.373.373,0,0,1,.081-.194.433.433,0,0,1,.324-.129.671.671,0,0,0,.7-.647,6.247,6.247,0,0,0,0-1.23.624.624,0,0,0-.647-.623.553.553,0,0,1-.429-.186,17.714,17.714,0,0,0-.68-2.468c0-.032-.008-.065.008-.089.3-.51.081-.89-.3-1.246a10.08,10.08,0,0,0-.874-.785,10.933,10.933,0,0,0-3.3-3,10.353,10.353,0,0,0-2.88-1.165C14.431,1.87,14.253,1.9,14.221,1.708Z" transform="translate(0.601)"/><path class="c" d="M12.949,30.64a2.408,2.408,0,0,1-.817-.485,1.75,1.75,0,0,1-.445-1.3c.008-.129.008-.259.008-.388a.428.428,0,0,1,.364-.105c1.853,0,3.705-.008,5.557,0,.9,0,1.788-.008,2.686,0,.154,0,.324-.032.453.1a2.665,2.665,0,0,1-.032.8c-.121-.105-.1-.259-.1-.4a.225.225,0,0,0-.259-.259H17.123a.225.225,0,0,0-.259.259v.121a1.507,1.507,0,0,1-1.246,1.651C14.729,30.64,13.839,30.64,12.949,30.64Z" transform="translate(0.415 1.962)"/><path class="d" d="M15.352,30.629a3.066,3.066,0,0,0,.833-.575,1.7,1.7,0,0,0,.324-1.165c-.024-.388-.008-.388.388-.388,1.068,0,2.136.008,3.2-.008.291-.008.372.089.34.356a3.13,3.13,0,0,0,.008.388,1.49,1.49,0,0,1-.955,1.262c-.089.04-.2.024-.267.113C17.94,30.629,16.646,30.629,15.352,30.629Z" transform="translate(0.683 1.972)"/><path class="b" d="M16.454,1.529a.441.441,0,0,1-.485,0Z" transform="translate(0.729 0.001)"/><path class="b" d="M15.72,1.529a.352.352,0,0,1-.429,0Z" transform="translate(0.679 0.001)"/><path class="e" d="M20.354,28.612c-1.043-.008-2.087-.008-3.139-.016,0-.146.13-.162.218-.218a1.057,1.057,0,0,0,.1-1.78c-.081-.065-.283-.089-.154-.283a.453.453,0,0,1,.1-.032c.825-.016,1.65,0,2.475-.008a1.486,1.486,0,0,0,.421-.04c.226-.016.461-.089.671.073a1.2,1.2,0,0,1,.93.947,1.152,1.152,0,0,1-1.019,1.359C20.758,28.62,20.556,28.612,20.354,28.612Z" transform="translate(0.82 1.805)"/><path class="f" d="M21.045,26.46h-.671a4.71,4.71,0,0,1-.955.024c-.647.008-1.3,0-1.95,0-.081-.016-.17.04-.251-.032-.016-.138.113-.146.186-.194a1.064,1.064,0,0,0-.073-1.918c-.081-.049-.2-.065-.186-.2a.179.179,0,0,1,.089-.04.478.478,0,0,1,.154.008c.963.032,1.933.032,2.9,0,.267.04.55-.049.809.105A1.138,1.138,0,0,1,22,25.247a1.226,1.226,0,0,1-.7,1.133A1.812,1.812,0,0,1,21.045,26.46Z" transform="translate(0.815 1.65)"/><path class="e" d="M17.334,24.305h-.121c-.016-.113.081-.121.146-.162a1.065,1.065,0,0,0,.049-1.9c-.17-.121-.17-.121-.032-.21h3.276a.771.771,0,0,1,.332.024.073.073,0,0,1,.04-.008,1.146,1.146,0,0,1,.922.914.65.65,0,0,1,0,.429,1.123,1.123,0,0,1-.607.793c-.089.04-.235.024-.243.178a2.179,2.179,0,0,1-.793-.057c-.607.065-1.221.016-1.836.024A6.641,6.641,0,0,1,17.334,24.305Z" transform="translate(0.819 1.499)"/><path class="g" d="M21.623,23.327V22.9A.352.352,0,0,1,21.623,23.327Z" transform="translate(1.142 1.563)"/><path class="h" d="M21.5,18.081A3.743,3.743,0,0,1,20.84,19a15.011,15.011,0,0,0-2.621,3.811c-.105.218-.2.437-.3.664-.138.13-.307.089-.461.089H11.554a.186.186,0,0,1-.113-.032,16.225,16.225,0,0,0-2.969-4.572,9.761,9.761,0,0,1-2.314-5.017A10.38,10.38,0,0,1,8.382,5.458a10.5,10.5,0,0,1,6.2-3.746c.081-.016.162-.008.243-.016a20.5,20.5,0,0,1,2.03.664,11.371,11.371,0,0,1,2.734,1.7,11.684,11.684,0,0,1,1.788,1.95,3.534,3.534,0,0,0-.963.388.718.718,0,0,1-.7-.057,7.1,7.1,0,0,0-1.141-.485.879.879,0,0,1-.679-.8.586.586,0,0,0-.566-.575,5.456,5.456,0,0,0-1.359,0,.593.593,0,0,0-.574.6.856.856,0,0,1-.615.753,8.6,8.6,0,0,0-1.23.518.809.809,0,0,1-.914-.073.686.686,0,0,0-.987.032,6.67,6.67,0,0,0-.793.793.663.663,0,0,0-.016.955.807.807,0,0,1,.1.955,8.766,8.766,0,0,0-.469,1.181.829.829,0,0,1-.752.615.691.691,0,0,0-.712.769q-.024.485,0,.971a.709.709,0,0,0,.744.777.826.826,0,0,1,.769.583,7.561,7.561,0,0,0,.469,1.084.833.833,0,0,1-.113,1.036.645.645,0,0,0,.032,1.036c.259.259.51.518.777.769a.6.6,0,0,0,.914.04.921.921,0,0,1,1.205-.162,6.2,6.2,0,0,0,.93.372.883.883,0,0,1,.647.89.616.616,0,0,0,.582.688,4.053,4.053,0,0,0,1.327,0,.623.623,0,0,0,.591-.688.883.883,0,0,1,.647-.89c.388-.138.777-.291,1.149-.461a.642.642,0,0,1,.76.1,1.019,1.019,0,0,0,.955.324A.18.18,0,0,1,21.5,18.081Z" transform="translate(0 0.013)"/><path class="i" d="M17.85,26.362a1.744,1.744,0,0,1,.607.607,1.121,1.121,0,0,1-.542,1.521,1.327,1.327,0,0,0-.178.113c-1.65,0-3.309.008-4.959.016h-.971c-.154,0-.3-.016-.453-.008a1.154,1.154,0,0,1-1.2-1,1.122,1.122,0,0,1,.89-1.246.382.382,0,0,0,.073-.049,1.052,1.052,0,0,1,.785-.04c.955.032,1.917.008,2.872.016.858.008,1.715,0,2.572,0A.9.9,0,0,1,17.85,26.362Z" transform="translate(0.303 1.806)"/><path class="j" d="M11.849,26.519a1.843,1.843,0,0,0-.728-.057,1.152,1.152,0,0,1-.631-1.942.862.862,0,0,1,.574-.307c.243-.218.534-.146.817-.121a1.216,1.216,0,0,0,.3.04c1.8,0,3.592.008,5.388-.008a.186.186,0,0,1,.113.032c.146.081.3.162.437.251a1.2,1.2,0,0,1,.445,1.06,1.1,1.1,0,0,1-.825.931c-.089.146-.235.089-.356.089h-5.2A.764.764,0,0,0,11.849,26.519Z" transform="translate(0.303 1.648)"/><path class="i" d="M17.674,24.306h-.065a.357.357,0,0,1-.2.032H12.059a.336.336,0,0,1-.2-.024,3.24,3.24,0,0,0-.793.057c-.138-.178-.38-.194-.534-.372a1.113,1.113,0,0,1-.3-1.214,1.064,1.064,0,0,1,.906-.736h.04a.457.457,0,0,1,.21-.024H17.56c.081,0,.162-.024.235.032a1.254,1.254,0,0,1,.736.85,1.172,1.172,0,0,1-.663,1.327c-.04.016-.089.049-.129.065A.2.2,0,0,1,17.674,24.306Z" transform="translate(0.304 1.499)"/><path class="k" d="M21.3,17.9a.836.836,0,0,1-.987-.227.643.643,0,0,0-.825-.146A9.508,9.508,0,0,1,18.335,18a.721.721,0,0,0-.558.769c-.008.51-.2.761-.7.809a5.009,5.009,0,0,1-1.391-.024.659.659,0,0,1-.582-.7c-.016-.542-.137-.72-.647-.89a9.131,9.131,0,0,1-1.011-.413.67.67,0,0,0-.906.138.711.711,0,0,1-1.173-.024c-.259-.259-.518-.51-.769-.777a.7.7,0,0,1-.04-1.028c.372-.437.388-.583.129-1.084a8.152,8.152,0,0,1-.437-1.028.7.7,0,0,0-.728-.526.726.726,0,0,1-.785-.769c-.016-.372-.016-.744,0-1.125a.722.722,0,0,1,.769-.785.694.694,0,0,0,.671-.51,9.365,9.365,0,0,1,.51-1.295.665.665,0,0,0-.113-.809.7.7,0,0,1-.008-1.052,11.662,11.662,0,0,1,.833-.842.711.711,0,0,1,1.06-.024.708.708,0,0,0,.849.073,6.465,6.465,0,0,1,1.2-.5.762.762,0,0,0,.591-.744.7.7,0,0,1,.744-.647c.4-.016.793-.016,1.181,0a.706.706,0,0,1,.744.712.685.685,0,0,0,.51.647,8.466,8.466,0,0,1,1.311.55A.652.652,0,0,0,20.4,6a.843.843,0,0,1,.76-.186,6.806,6.806,0,0,1,1.133,1.076c.3.324.291.591.008,1.036a.99.99,0,0,0,.057,1.052,11.854,11.854,0,0,0,.615,1.44.683.683,0,0,0,.4.13.684.684,0,0,1,.736.7,10.957,10.957,0,0,1,0,1.262.691.691,0,0,1-.752.7.57.57,0,0,0-.324.065,7.655,7.655,0,0,0-.922,1.812.507.507,0,0,0,.1.542.633.633,0,0,1,.146.259.751.751,0,0,1-.17,1.068C21.9,17.284,21.6,17.592,21.3,17.9Z" transform="translate(0.199 0.194)"/><path class="l" d="M21.475,15.287a.734.734,0,0,1-.21-1.076,7.413,7.413,0,0,0,.461-1.076.649.649,0,0,1,.429-.461A11.613,11.613,0,0,1,21.475,15.287Z" transform="translate(1.105 0.815)"/><path class="l" d="M22.085,10.174a.614.614,0,0,1-.307-.388,9.264,9.264,0,0,0-.51-1.287.6.6,0,0,1,.137-.809A8.27,8.27,0,0,1,22.085,10.174Z" transform="translate(1.109 0.451)"/><path class="g" d="M17.725,22.058c-2.208,0-4.417-.008-6.617-.008A.521.521,0,0,1,11.455,22q3.046-.012,6.091-.008c1.181.008,2.362.008,3.535.016.121,0,.243-.032.348.049Z" transform="translate(0.373 1.497)"/><path class="m" d="M11.732,26.359c.1-.105.227-.057.348-.057h5.153a.754.754,0,0,0,.38-.057c.04.073.113.057.178.057.016.016.024.024.024.04a.1.1,0,0,1-.016.024h-.065C15.737,26.359,13.731,26.359,11.732,26.359Z" transform="translate(0.419 1.808)"/><path class="n" d="M17.387,26.356V26.3h2.969c-.081.1-.186.057-.283.057Z" transform="translate(0.832 1.812)"/><path class="o" d="M17.326,24.15h2.969c-.057.073-.146.057-.227.057H17.545C17.472,24.207,17.391,24.223,17.326,24.15Z" transform="translate(0.828 1.654)"/><path class="p" d="M11.732,24.15h5.76c-.081.089-.186.057-.283.057H12.016C11.918,24.207,11.813,24.239,11.732,24.15Z" transform="translate(0.419 1.654)"/><path class="i" d="M12.812,14.406A4.429,4.429,0,0,1,12.8,8.734a4.3,4.3,0,0,1,2.54-1.513,4.254,4.254,0,0,1,3.737.987,4.288,4.288,0,0,1,1.553,3.576,4.259,4.259,0,0,1-1.019,2.622c-.121-.032-.154-.146-.21-.243a3.818,3.818,0,0,0-2.022-1.586c-.105-.04-.259-.016-.275-.186a3.488,3.488,0,0,0,.437-.534,1.543,1.543,0,0,0-.332-1.974,1.553,1.553,0,0,0-2.33,1.99,3.676,3.676,0,0,0,.429.51c.016.113-.073.129-.146.154a3.852,3.852,0,0,0-2.225,1.756A.168.168,0,0,1,12.812,14.406Z" transform="translate(0.422 0.41)"/><path class="c" d="M12.742,14.048a3.769,3.769,0,0,1,2.192-1.885c.089-.032.186-.073.275-.105.081-.065.154-.008.218.024a1.417,1.417,0,0,0,1.432,0c.065-.032.137-.089.218-.024a4.875,4.875,0,0,1,1.416.72,3.785,3.785,0,0,1,1.052,1.27A4.412,4.412,0,0,1,12.742,14.048Z" transform="translate(0.493 0.768)"/><path class="c" d="M16.959,12.259a1.59,1.59,0,0,1-1.869,0,1.637,1.637,0,1,1,2.475-1.877A1.612,1.612,0,0,1,16.959,12.259Z" transform="translate(0.613 0.567)"/></g></g></svg>