<svg xmlns="http://www.w3.org/2000/svg" width="24" height="24" viewBox="0 0 24 24"><defs><style>.a{fill:#fff;opacity:0;}.b{fill:#1c1b1b;}</style></defs><g transform="translate(-1487 -417)"><rect class="a" width="24" height="24" transform="translate(1487 417)"/><g transform="translate(1485.397 413.888)"><g transform="translate(2.067 5.499)"><path class="b" d="M4.774,18.352a.919.919,0,0,1-.233.618.746.746,0,0,1-1.125,0,.919.919,0,0,1-.233-.618V2.985l-1.823,2a.8.8,0,0,1-.258.19.735.735,0,0,1-.3.067.762.762,0,0,1-.563-.256.937.937,0,0,1,0-1.237L3.415.258,3.427.246A.743.743,0,0,1,4.54.256l3.182,3.5a.884.884,0,0,1,.173.284.954.954,0,0,1,0,.669.885.885,0,0,1-.172.284.8.8,0,0,1-.258.19.73.73,0,0,1-.609,0A.8.8,0,0,1,6.6,4.989l-1.823-2Zm6.364-16.6a.761.761,0,0,1-.563-.256.919.919,0,0,1-.233-.618.919.919,0,0,1,.233-.618A.761.761,0,0,1,11.138,0h1.591a.761.761,0,0,1,.563.256.919.919,0,0,1,.233.618.919.919,0,0,1-.233.618.761.761,0,0,1-.563.256Zm0,5.243a.761.761,0,0,1-.563-.256.936.936,0,0,1,0-1.236.761.761,0,0,1,.563-.256h4.773a.761.761,0,0,1,.563.256.936.936,0,0,1,0,1.236.761.761,0,0,1-.563.256Zm0,5.243a.761.761,0,0,1-.563-.256.936.936,0,0,1,0-1.236.761.761,0,0,1,.563-.256h7.955a.761.761,0,0,1,.563.256.936.936,0,0,1,0,1.236.761.761,0,0,1-.563.256Zm-.8,4.369a.919.919,0,0,0,.233.618.761.761,0,0,0,.563.256H22.276a.761.761,0,0,0,.563-.256.936.936,0,0,0,0-1.236.761.761,0,0,0-.563-.256H11.138a.761.761,0,0,0-.563.256A.919.919,0,0,0,10.343,16.6Z" transform="translate(0 0)"/></g></g></g></svg>