<svg xmlns="http://www.w3.org/2000/svg" width="1105.687" height="824" viewBox="0 0 1105.687 824"><defs><style>.a{fill:#ebebeb;}.b{fill:#e6e6e6;}.c{fill:#f0f0f0;}.d{fill:#f5f5f5;}.e,.s{fill:#fafafa;}.f,.u{fill:#fff;}.g{fill:#e0e0e0;opacity:0.6;}.h{fill:#1c1b1b;}.i{fill:#ffb573;}.j{fill:#f6b333;}.k,.m{opacity:0.2;}.l{fill:#263238;}.n,.q{fill:#407bff;}.o{fill:#dc940a;}.p{fill:#294c7b;}.q{opacity:0.3;}.r,.s{opacity:0.5;}.t{fill:#d48e07;}.u{opacity:0.4;}.v,.x{fill:#2a5798;}.v{opacity:0.7;}.w{fill:#c7defa;}</style></defs><path class="a" d="M0,0H1105.687V.553H0Z" transform="translate(0 724.132)"/><path class="a" d="M0,0H73.241V.553H0Z" transform="translate(921.656 759.714)"/><path class="a" d="M0,0H19.217V.553H0Z" transform="translate(713.234 765.729)"/><path class="a" d="M0,0H42.436V.553H0Z" transform="translate(877.009 739.192)"/><path class="a" d="M0,0H95.509V.553H0Z" transform="translate(116.009 742.907)"/><path class="a" d="M0,0H14V.553H0Z" transform="translate(231.221 742.907)"/><path class="a" d="M0,0H207.161V.553H0Z" transform="translate(290.729 752.239)"/><path class="a" d="M439.6,625.5H12.627A12.627,12.627,0,0,1,0,612.875V12.627A12.627,12.627,0,0,1,12.627,0H439.6a12.627,12.627,0,0,1,12.627,12.627V612.875A12.627,12.627,0,0,1,439.6,625.5ZM12.627.553A12.074,12.074,0,0,0,.553,12.627V612.875a12.074,12.074,0,0,0,12.074,12.074H439.6a12.074,12.074,0,0,0,12.074-12.074V12.627A12.074,12.074,0,0,0,439.6.553Z" transform="translate(84.497)"/><path class="a" d="M439.643,625.5H12.627A12.627,12.627,0,0,1,0,612.875V12.627A12.627,12.627,0,0,1,12.627,0H439.643a12.627,12.627,0,0,1,12.583,12.627V612.875A12.627,12.627,0,0,1,439.643,625.5ZM12.627.553A12.074,12.074,0,0,0,.553,12.627V612.875a12.074,12.074,0,0,0,12.074,12.074H439.643a12.074,12.074,0,0,0,12.074-12.074V12.627A12.074,12.074,0,0,0,439.643.553Z" transform="translate(562.795)"/><path class="b" d="M0,0H60.127V160.2H0Z" transform="matrix(-1, 0, 0, -1, 181.709, 724.132)"/><path class="c" d="M11.433,42.327H0V0H23.4Z" transform="translate(121.559 681.783)"/><path class="b" d="M0,0H60.127V160.2H0Z" transform="matrix(-1, 0, 0, -1, 524.737, 724.132)"/><path class="c" d="M0,0H353V148.652H0Z" transform="matrix(-1, 0, 0, -1, 474.583, 712.566)"/><path class="c" d="M11.964,42.327H23.4V0H0Z" transform="translate(451.187 681.783)"/><path class="b" d="M106.854,114.375H0V0H106.854ZM2.211,112.164H104.642V2.211H2.211Z" transform="translate(357.093 580.301)"/><path class="b" d="M106.964,114.375H0V0H106.964ZM2.322,112.164H104.753V2.211H2.211Z" transform="translate(244.644 580.301)"/><path class="b" d="M106.854,114.375H0V0H106.854ZM2.211,112.164H104.642V2.211H2.211Z" transform="translate(132.196 580.301)"/><path class="b" d="M0,0H354.284V301.661H0Z" transform="matrix(-1, 0, 0, -1, 954.584, 390.759)"/><path class="d" d="M0,0H358.773V301.661H0Z" transform="matrix(-1, 0, 0, -1, 951.112, 390.759)"/><path class="e" d="M0,0H272.713V330.158H0Z" transform="matrix(0, 1, -1, 0, 936.804, 103.583)"/><path class="f" d="M174.079,272.713,44.139,0H0L129.94,272.713Z" transform="translate(722.213 103.583)"/><path class="f" d="M160.325,272.713,30.384,0H0L129.94,272.713Z" transform="translate(679.312 103.583)"/><path class="b" d="M0,0H272.713V17.072H0Z" transform="matrix(0, 1, -1, 0, 729.245, 103.605)"/><path class="b" d="M0,0H272.713V17.072H0Z" transform="matrix(0, 1, -1, 0, 842.732, 103.605)"/><path class="d" d="M0,0H292.66V21.583H0Z" transform="matrix(0, 1, -1, 0, 726.149, 92.836)"/><path class="d" d="M0,0H292.66V21.583H0Z" transform="matrix(0, 1, -1, 0, 839.637, 92.836)"/><path class="b" d="M0,0H272.713V1.526H0Z" transform="matrix(0, 1, -1, 0, 608.172, 103.605)"/><path class="b" d="M1.835,0H385.663A1.858,1.858,0,0,1,387.5,1.835h0a1.858,1.858,0,0,1-1.835,1.835H1.835A1.858,1.858,0,0,1,0,1.835H0A1.858,1.858,0,0,1,1.835,0Z" transform="translate(584.488 70.5)"/><path class="b" d="M2.5,10.349A2.5,2.5,0,0,0,5,7.851V2.5a2.5,2.5,0,1,0-5,0V7.851a2.5,2.5,0,0,0,2.5,2.5Z" transform="translate(952.085 72.336)"/><path class="b" d="M2.5,10.349A2.5,2.5,0,0,0,5,7.851V2.5a2.5,2.5,0,1,0-5,0V7.851a2.5,2.5,0,0,0,2.5,2.5Z" transform="translate(611.666 72.336)"/><path class="g" d="M0,0H358.53V149.714H0Z" transform="matrix(-1, 0, 0, -1, 945.429, 222.072)"/><path class="e" d="M9.664,0H59.8a9.664,9.664,0,0,1,9.664,9.664v86.6a9.664,9.664,0,0,1-9.664,9.664H9.664A9.664,9.664,0,0,1,0,96.263V9.664A9.664,9.664,0,0,1,9.664,0Z" transform="translate(190.643 457.987)"/><path class="b" d="M3.251,0H66.209a3.251,3.251,0,0,1,3.251,3.251V5.86a3.251,3.251,0,0,1-3.251,3.251H3.251A3.251,3.251,0,0,1,0,5.86V3.251A3.251,3.251,0,0,1,3.251,0Z" transform="translate(190.643 450.136)"/><path class="c" d="M7.01,0H43.387A7.01,7.01,0,0,1,50.4,7.01V69.881a7.01,7.01,0,0,1-7.01,7.01H7.01A7.01,7.01,0,0,1,0,69.881V7.01A7.01,7.01,0,0,1,7.01,0Z" transform="translate(397.406 487.023)"/><path class="b" d="M2.344,0H48.053A2.344,2.344,0,0,1,50.4,2.344V4.268a2.344,2.344,0,0,1-2.344,2.344H2.344A2.344,2.344,0,0,1,0,4.268V2.344A2.344,2.344,0,0,1,2.344,0Z" transform="translate(397.406 481.339)"/><path class="c" d="M13.268,0H82.175A13.268,13.268,0,0,1,95.443,13.269V48.5A13.268,13.268,0,0,1,82.175,61.765H13.268A13.268,13.268,0,0,1,0,48.5V13.269A13.268,13.268,0,0,1,13.268,0Z" transform="translate(243.163 502.149)"/><path class="d" d="M4.445,0H91a4.445,4.445,0,0,1,4.445,4.445V8.072A4.445,4.445,0,0,1,91,12.517H4.445A4.445,4.445,0,0,1,0,8.072V4.445A4.445,4.445,0,0,1,4.445,0Z" transform="translate(243.163 491.357)"/><path class="b" d="M0,0H11.145V182.752H0Z" transform="matrix(-1, 0, 0, -1, 635.704, 724.132)"/><path class="b" d="M0,0H60.348V35.56H0Z" transform="translate(886.031 505.798)"/><path class="d" d="M0,0H300.039V35.56H0Z" transform="matrix(-1, 0, 0, -1, 886.009, 541.357)"/><path class="b" d="M0,0H60.348V35.56H0Z" transform="translate(886.031 600.779)"/><path class="d" d="M0,0H300.039V35.56H0Z" transform="matrix(-1, 0, 0, -1, 886.009, 636.316)"/><path class="b" d="M0,0H11.145V182.752H0Z" transform="matrix(-1, 0, 0, -1, 935.743, 724.132)"/><path class="d" d="M0,0H11.145V182.752H0Z" transform="matrix(-1, 0, 0, -1, 886.009, 724.132)"/><path class="d" d="M0,0H11.145V182.752H0Z" transform="matrix(-1, 0, 0, -1, 597.115, 724.132)"/><path class="c" d="M0,0H141.838V159.068H0Z" transform="matrix(-1, 0, 0, -1, 295.926, 263.337)"/><path class="d" d="M0,0H149.644V159.068H0Z" transform="matrix(-1, 0, 0, -1, 293.715, 263.337)"/><path class="f" d="M0,0H134.012V124.567H0Z" transform="matrix(0, -1, 1, 0, 156.609, 250.798)"/><path class="c" d="M25.149,0a24.989,24.989,0,0,0-9.774,48.054L108.1,87.02V32.774L34.768,1.924A24.988,24.988,0,0,0,25.149,0Z" transform="translate(173.101 145.18)"/><path class="c" d="M0,0H141.838V159.068H0Z" transform="matrix(-1, 0, 0, -1, 484.291, 342.86)"/><path class="d" d="M0,0H149.644V159.068H0Z" transform="matrix(-1, 0, 0, -1, 482.079, 342.86)"/><path class="f" d="M0,0H134.013V124.567H0Z" transform="matrix(0, -1, 1, 0, 344.996, 330.343)"/><path class="c" d="M76.315,32.11,0,0V55.573L56.456,79.3a25.619,25.619,0,0,0,19.9-47.214Z" transform="translate(344.974 216.034)"/><g transform="translate(124.08 773.933)"><path class="d" d="M857.527,25.033c0,13.826-191.964,25.033-428.763,25.033S0,38.859,0,25.033,191.964,0,428.763,0,857.527,11.208,857.527,25.033Z"/></g><g transform="translate(158.732 119.509)"><path class="h" d="M36.789,11.514C39,2.2,62.131-6.642,82.034,7.091a48.652,48.652,0,0,1,18.73,55.839C90.083,94.553,145.832,93.381,158.746,146.7c10.194,42.017.73,101.527-56.147,98.3-86.774-4.931-79.234-89.828-83.081-134.521S-31.675,16.025,36.789,11.514Z" transform="translate(233.64 4.427)"/><path class="i" d="M75.275,1.128c-.376,6.457-1.128,12.362-1.968,18.51S71.295,31.756,69.99,37.771,67.226,49.8,65.324,55.728a161.834,161.834,0,0,1-6.457,17.691l-1.946,4.423c-.265.663-.8,1.614-1.216,2.433s-.929,1.57-1.371,2.366a66.917,66.917,0,0,1-6.059,8.072,140.048,140.048,0,0,1-13.268,13.269A247.674,247.674,0,0,1,5.9,126.1L0,118.466c4.157-4.025,8.4-8.182,12.494-12.34s8.138-8.381,11.986-12.671A160.859,160.859,0,0,0,35.205,80.43,59.843,59.843,0,0,0,39.362,73.8c.243-.509.553-1.039.752-1.548s.4-.885.663-1.614l1.482-3.892a218.471,218.471,0,0,0,8.845-32.8c1.128-5.617,1.924-11.323,2.786-17.006S55.351,5.4,55.859,0Z" transform="translate(166.472 133.921)"/><path class="j" d="M13.268,1.3C5.418,3.295,0,35.626,0,35.626L30.053,56.059S42.414,17.735,36.377,9.089C29.986.11,24.723-1.615,13.268,1.3Z" transform="translate(215.211 110.502)"/><path class="k" d="M6.037,0,0,32.574l12.163,8.249Z" transform="translate(223.15 119.038)"/><path class="i" d="M20.234,0,0,3.229,11.543,16.011s11.941-2.72,14.02-10.372Z" transform="translate(149.821 249.423)"/><path class="i" d="M0,2.521,11.543,15.038l9.575-2.256L9.575,0Z" transform="translate(140.246 252.652)"/><path class="i" d="M20.345,44.14H1.283L0,0H19.062Z" transform="translate(250.637 611.788)"/><path class="i" d="M40,38.545,22.357,45.754,0,7.187,17.647,0Z" transform="translate(362.776 561.213)"/><path class="l" d="M20.756,11.175,39.154.229A1.5,1.5,0,0,1,41.122.56L51.87,13.829a3.052,3.052,0,0,1-.885,4.423c-6.479,3.693-9.8,5.175-17.89,9.974C28.12,31.189,16.4,41.317,9.522,45.408s-11.278-2.5-8.845-4.821A65.259,65.259,0,0,0,18.544,13.674a4.976,4.976,0,0,1,2.211-2.5Z" transform="translate(361.06 593.138)"/><path class="l" d="M31.028,0H52.434a1.5,1.5,0,0,1,1.526,1.3l2.432,16.94a3.052,3.052,0,0,1-3.052,3.383c-7.474-.133-11.057-.575-20.477-.575-5.794,0-17.691.6-25.785.6s-8.425-7.917-5.086-8.625C16.919,9.819,22.8,5.374,27.843,1.15A4.975,4.975,0,0,1,31.028,0Z" transform="translate(220.229 653.716)"/><g class="m" transform="translate(250.66 561.213)"><path class="k" d="M0,0,.641,22.755H19.7L19.062,0Z" transform="translate(0 50.597)"/><path class="k" d="M17.669,0,0,7.209,11.543,27.068,29.19,19.881Z" transform="translate(112.117)"/></g><path class="j" d="M2.269,5.648S-6.819,8.855,11.38,120.643h77.4C87.474,89.13,87.451,69.78,102.511,5.051A228.451,228.451,0,0,0,69.65.628a246.209,246.209,0,0,0-35.161,0C19.385,2.11,2.269,5.648,2.269,5.648Z" transform="translate(226.21 106.158)"/><path class="k" d="M12.778,0C5.768,1.747-.711,9.4.063,23.485A33.88,33.88,0,0,0,6.52,41.177C7.759,30.341,9.837,17.758,13.154,1.659Z" transform="translate(309.552 136.862)"/><path class="e" d="M0,31.086S10.062,37.3,12.693,46.566C23.617,38.56,38.456,16.291,39.053,2.978A2.919,2.919,0,0,0,36.134.015a37.261,37.261,0,0,0-5.042.2Z" transform="translate(264.768 106.771)"/><path class="e" d="M19.173,31.149S9.111,37.363,6.48,46.629c-11.742-8.6-5.219-36.975,1.5-46.44a33.568,33.568,0,0,1,7.121,0Z" transform="translate(245.595 106.708)"/><path class="i" d="M35.782,0c-2.211,11.3-4.423,32.044,3.494,39.585a81.822,81.822,0,0,1-31.07,30.96c-15.679-12.539-4.069-30.96-4.069-30.96,12.6-3.008,12.3-12.362,10.084-21.163Z" transform="translate(256.606 67.357)"/><path class="k" d="M12.782,0,0,10.9a36.2,36.2,0,0,1,1.084,6.236C5.9,16.453,13.489,12.34,14.507,7.1,14.993,4.644,13.224,1.172,12.782,0Z" transform="translate(270.761 74.875)"/><path class="i" d="M57.127,33.242c-5.219,18.178-7.054,25.984-18.465,33.37C21.5,77.669.317,67.342.007,47.948-.281,30.5,8.322,3.719,28,.38A25.807,25.807,0,0,1,57.127,33.242Z" transform="translate(254.191 15.937)"/><path class="h" d="M0,4.86c.862,6.148,34.52,25.918,40.91,15.613S38.013,2.295,23.772.437A36.332,36.332,0,0,0,0,4.86Z" transform="translate(272.066 13.093)"/><path class="h" d="M1.036,0C-3.1,5.462,5.658,44.627,18.2,40.956s11.964-16.232,3.251-27.8A33.635,33.635,0,0,0,1.036,0Z" transform="translate(292.966 21.27)"/><path class="n" d="M13.832.022S-1.2,146.817.078,204.977C1.382,265.438,23.54,403.32,23.54,403.32H49.3s-4.069-134.366-1.791-193.743C49.988,144.849,70.554,0,70.554,0Z" transform="translate(223.758 226.823)"/><path class="o" d="M13.832.022S-1.2,146.817.078,204.977C1.382,265.438,23.54,403.32,23.54,403.32H49.3s-4.069-134.366-1.791-193.743C49.988,144.849,70.554,0,70.554,0Z" transform="translate(223.758 226.823)"/><path class="l" d="M32.441,10.836H2.211L0,1.194,33.856,0Z" transform="translate(242.809 620.236)"/><path class="k" d="M9.23,9.074C-9.788,47.332,5.4,117.1,12.127,143.065c3.45-38.987,9.266-86.644,13.8-121.629C23.029,1.622,17.987-8.551,9.23,9.074Z" transform="translate(261.752 254.303)"/><path class="n" d="M0,.111S17.536,152.7,30.782,201.771c15.723,58.183,79.609,157.454,79.609,157.454l24.06-9.819S93.209,236.38,81.18,205.663C55.528,140.249,77.487,42.747,56.987,0Z" transform="translate(258.023 226.734)"/><path class="o" d="M0,.111S17.536,152.7,30.782,201.771c15.723,58.183,79.609,157.454,79.609,157.454l24.06-9.819S93.209,236.38,81.18,205.663C55.528,140.249,77.487,42.747,56.987,0Z" transform="translate(258.023 226.734)"/><path class="l" d="M36.864,11.809,7.01,23.994,0,15.922,34.475,0Z" transform="translate(358.884 564.441)"/><path class="p" d="M43.852,32.659A130.027,130.027,0,1,0,137.941.241,130.032,130.032,0,0,0,43.852,32.659Zm158.71,179.347a109.467,109.467,0,1,1,25.88-34.013,109.462,109.462,0,0,1-25.88,34.013Z" transform="translate(0 0)"/><path class="q" d="M200.621,100.982c0,55.771-44.91,100.982-100.31,100.982S0,156.752,0,100.982,44.91,0,100.31,0,200.621,45.211,200.621,100.982Z" transform="matrix(0.061, -0.998, 0.998, 0.061, 23.8, 224.049)"/><g class="r" transform="translate(29.728 29.917)"><path class="s" d="M106.4,0h-1.88L.325,92.216a9.178,9.178,0,0,1-.133,1.9,99.914,99.914,0,0,0,16.5,61.478L165.36,23.839A99.886,99.886,0,0,0,106.4,0Z" transform="translate(0)"/><path class="s" d="M150.219,0,0,132.951A99.512,99.512,0,0,0,16.895,148.3L163.421,18.576A99.514,99.514,0,0,0,150.219,0Z" transform="translate(24.849 33.238)"/></g><path class="l" d="M27.534,10.949,10.417,26.1a6.28,6.28,0,0,1-8.845-.531h0A6.281,6.281,0,0,1,2.1,16.72L19.219,1.572a6.28,6.28,0,0,1,8.845.531h0a6.281,6.281,0,0,1-.531,8.846Z" transform="translate(204.816 217.444)"/><path class="p" d="M14.385,2.179C27.277,13.523,39.617,25.377,51.8,37.385S75.883,61.71,87.648,73.962s23.308,24.9,34.763,37.594c10.747,13.269,25.387,23.065,27.576,43.9a10.526,10.526,0,0,1-9.376,11.566,10.792,10.792,0,0,1-3.472-.221c-20.411-4.71-28.372-20.434-40.225-32.707Q80.2,114.74,63.875,95.014T31.921,54.988c-10.438-13.534-20.7-27.223-30.384-41.42A8.647,8.647,0,0,1,14.385,2.179Z" transform="translate(211.662 223.295)"/><path class="i" d="M14.435,9.942A13.821,13.821,0,0,1,5.59,15.758C.813,16.642-1.044,12.264.57,8,2.1,4.148,6.408-.85,11.008.123a6.214,6.214,0,0,1,3.428,9.819Z" transform="translate(298.098 57.371)"/><path class="n" d="M2.23,4.964H2.009A2.565,2.565,0,0,1,.151,3.283,1.526,1.526,0,0,1,.284,1.735C1.677-.255,8.554-.012,9.35.033a.42.42,0,0,1,.4.288.442.442,0,0,1,0,.487C7.847,2.487,4.6,5.23,2.23,4.964ZM8.178.873C5.414.873,1.721,1.16.991,2.222a.641.641,0,0,0,0,.686,1.7,1.7,0,0,0,1.216,1.15C3.49,4.323,5.679,3.129,8.2.873Z" transform="translate(372.267 606.581)"/><path class="n" d="M7.275,6.13C4.931,5.864.641,4.25.088,2.37A1.57,1.57,0,0,1,.751.513,2.366,2.366,0,0,1,2.7.048c2.72.509,5.551,5.219,5.661,5.418a.442.442,0,0,1-.376.686ZM2.388.933a1.437,1.437,0,0,0-1.084.31C.84,1.6.862,1.884.95,2.083c.442,1.261,3.87,2.808,6.17,3.14C6.1,3.7,4.157,1.265,2.542.955Z" transform="translate(373.568 601.302)"/><path class="n" d="M5.463,4.836A7.165,7.165,0,0,1,.842,3.664,2.5,2.5,0,0,1,.023,1.452,1.46,1.46,0,0,1,.8.258c2.344-1.283,9.929,2.61,10.792,3.052a.442.442,0,0,1-.111.84,32.572,32.572,0,0,1-6.015.686ZM2.058.9a1.791,1.791,0,0,0-.84.155.553.553,0,0,0-.31.487,1.614,1.614,0,0,0,.509,1.437c1.15,1.039,4.29,1.216,8.514.531A24.546,24.546,0,0,0,2.058.9Z" transform="translate(238.65 652.22)"/><path class="n" d="M6.609,8.6H6.432C4.221,7.584-.334,3.471.019,1.3c0-.509.442-1.15,1.7-1.283a3.251,3.251,0,0,1,2.5.774c2.388,1.99,2.831,7.121,2.853,7.342a.442.442,0,0,1-.442.487ZM2.076.883H1.811C.992.883.926,1.3.9,1.414c-.221,1.3,2.831,4.423,5.153,5.927A10.46,10.46,0,0,0,3.624,1.458a2.366,2.366,0,0,0-1.548-.6Z" transform="translate(243.409 647.791)"/><path class="t" d="M81.091.592l1.99,6.922c.265.531-.376,1.084-1.26,1.084H2.034C1.327,8.6.752,8.266.708,7.824L0,.9C0,.415.553.017,1.327.017H79.72a1.415,1.415,0,0,1,1.371.575Z" transform="translate(235.069 221.719)"/><path class="k" d="M81.091.592l1.99,6.922c.265.531-.376,1.084-1.26,1.084H2.034C1.327,8.6.752,8.266.708,7.824L0,.9C0,.415.553.017,1.327.017H79.72a1.415,1.415,0,0,1,1.371.575Z" transform="translate(235.069 221.719)"/><path class="n" d="M1.814,9.974h2.1c.42,0,.73-.221.708-.487l-1-9C3.628.221,3.23,0,2.81,0H.709C.289,0-.021.221,0,.487l1,9C1.018,9.752,1.394,9.974,1.814,9.974Z" transform="translate(303.554 221.095)"/><path class="u" d="M1.814,9.974h2.1c.42,0,.73-.221.708-.487l-1-9C3.628.221,3.23,0,2.81,0H.709C.289,0-.021.221,0,.487l1,9C1.018,9.752,1.394,9.974,1.814,9.974Z" transform="translate(303.554 221.095)"/><path class="n" d="M1.814,9.974h2.1c.42,0,.73-.221.708-.487l-1-9C3.628.221,3.23,0,2.81,0H.709C.289,0-.021.221,0,.487l1,9C1.04,9.752,1.394,9.974,1.814,9.974Z" transform="translate(241.282 221.095)"/><path class="u" d="M1.814,9.974h2.1c.42,0,.73-.221.708-.487l-1-9C3.628.221,3.23,0,2.81,0H.709C.289,0-.021.221,0,.487l1,9C1.04,9.752,1.394,9.974,1.814,9.974Z" transform="translate(241.282 221.095)"/><path class="n" d="M1.814,9.974h2.1c.42,0,.73-.221.708-.487l-1-9C3.628.221,3.23,0,2.81,0H.709C.289,0-.021.221,0,.487l1,9C1.04,9.752,1.394,9.974,1.814,9.974Z" transform="translate(272.286 221.095)"/><path class="u" d="M1.814,9.974h2.1c.42,0,.73-.221.708-.487l-1-9C3.628.221,3.23,0,2.81,0H.709C.289,0-.021.221,0,.487l1,9C1.04,9.752,1.394,9.974,1.814,9.974Z" transform="translate(272.286 221.095)"/><path class="i" d="M18.8,8.4,0,0,5.352,18.62s11.941,2.7,17.138-3.273Z" transform="translate(249.686 233.899)"/><path class="i" d="M74.5,0c.862,6.634,1.548,13.092,2.322,19.637l1.99,19.66c.708,6.634,1.238,13.114,1.835,19.682l.84,9.863.2,2.455a14.713,14.713,0,0,0,.111,1.968,14.763,14.763,0,0,1,0,2.211,20.876,20.876,0,0,1-2.632,7.983,33.171,33.171,0,0,1-8.845,9.686,67.844,67.844,0,0,1-9.465,5.993A132.679,132.679,0,0,1,41.6,107.232c-6.479,2.211-12.959,4.025-19.482,5.683S9.067,115.9,2.211,116.94L0,107.52c6.081-1.99,12.317-4.069,18.332-6.369s12.074-4.6,17.868-7.231a139.844,139.844,0,0,0,16.541-8.625,53.338,53.338,0,0,0,6.922-5.02,17.05,17.05,0,0,0,4.179-5,3.1,3.1,0,0,0,.376-1.371v-.663l-.354-2.455-1.415-9.8c-.885-6.634-1.835-13.07-2.654-19.593L57.3,21.783c-.708-6.634-1.548-13.092-2.211-19.66Z" transform="translate(263.242 134.23)"/><path class="j" d="M21.219.422C28.98,2.789,38.29,29.481,38.29,29.481L11.157,57.433S-2.775,28.685.5,18.689C3.881,8.251,12.373-2.253,21.219.422Z" transform="translate(307.502 110.831)"/><path class="i" d="M0,3.87,5.307,19.217l15.59-.6L15.546,0Z" transform="translate(234.14 233.899)"/></g><g transform="translate(331.284 236.38)"><path class="l" d="M56.677,65.856C61.742,29.5,36.377,0,0,0H265.652c36.355,0,61.742,29.478,56.678,65.856Z" transform="translate(267.401)"/><path class="v" d="M56.677,65.856C61.742,29.5,36.377,0,0,0H265.652c36.355,0,61.742,29.478,56.678,65.856Z" transform="translate(267.401)"/><path class="w" d="M135.736,0h265.63c-36.355,0-69.946,29.478-75.032,65.856L266.3,496.709c-5.064,36.356-38.655,65.856-75.01,65.856H57.321c-36.355,0-61.742-29.478-56.678-65.856L60.682,65.834C65.79,29.478,99.359,0,135.736,0Z" transform="translate(131.687 0.022)"/><path class="l" d="M266.3,0c-5.064,36.356,20.3,65.856,56.677,65.856H57.321C20.966,65.856-4.421,36.378.643,0Z" transform="translate(0 496.731)"/><path class="v" d="M266.3,0c-5.064,36.356,20.3,65.856,56.677,65.856H57.321C20.966,65.856-4.421,36.378.643,0Z" transform="translate(0 496.731)"/><path class="f" d="M4.757,10.882H107.608a6.5,6.5,0,0,0,6.214-5.44h0A4.644,4.644,0,0,0,109.134,0H6.283A6.5,6.5,0,0,0,.069,5.441h0a4.644,4.644,0,0,0,4.688,5.44Z" transform="translate(304.13 123.175)"/><path class="f" d="M4.757,10.882H80.364a6.5,6.5,0,0,0,6.214-5.44h0A4.644,4.644,0,0,0,81.89,0H6.283A6.5,6.5,0,0,0,.069,5.442h0a4.644,4.644,0,0,0,4.688,5.44Z" transform="translate(301.299 143.454)"/><path class="x" d="M.32,32.862C-2.2,51.018,10.448,65.724,28.6,65.724A39.031,39.031,0,0,0,66.02,32.862C68.541,14.706,55.892,0,37.737,0A39.031,39.031,0,0,0,.32,32.862Z" transform="translate(209.342 102.279)"/><path class="f" d="M.3,29.346A27.069,27.069,0,0,0,1.894,43.322a24.767,24.767,0,0,0,23.64,15.369,34.564,34.564,0,0,0,27.93-15.369,32.84,32.84,0,0,0,5.484-13.976C61.159,13.136,49.9,0,33.693,0A34.852,34.852,0,0,0,.3,29.346Z" transform="translate(212.877 105.795)"/><path class="x" d="M0,6a19,19,0,0,0,7.235,8.733,19,19,0,0,0,10.921,3.054,26.536,26.536,0,0,0,12.153-3.278A26.537,26.537,0,0,0,39.584,6,31.622,31.622,0,0,0,20.632,0,39.671,39.671,0,0,0,0,6Z" transform="translate(221.162 140.379)"/><path class="x" d="M.134,10.021A8.514,8.514,0,0,0,8.759,20.039,11.919,11.919,0,0,0,20.192,10.021,8.514,8.514,0,0,0,11.567,0,11.919,11.919,0,0,0,.134,10.021Z" transform="translate(233.344 117.932)"/><path class="f" d="M4.757,10.882H39.476a6.5,6.5,0,0,0,6.214-5.44h0A4.644,4.644,0,0,0,41,0H6.283A6.5,6.5,0,0,0,.069,5.441h0a4.644,4.644,0,0,0,4.688,5.44Z" transform="translate(291.79 211.787)"/><path class="f" d="M4.757,10.882H54.336a6.5,6.5,0,0,0,6.214-5.44h0A4.644,4.644,0,0,0,55.862,0H6.283A6.5,6.5,0,0,0,.069,5.441h0a4.644,4.644,0,0,0,4.688,5.44Z" transform="translate(347.428 211.787)"/><path class="f" d="M4.779,10.882H89.784A6.5,6.5,0,0,0,96,5.441h0A4.644,4.644,0,0,0,91.31,0H6.283A6.5,6.5,0,0,0,.069,5.441h0a4.644,4.644,0,0,0,4.71,5.44Z" transform="translate(288.937 232.066)"/><path class="x" d="M.32,32.862C-2.2,51.018,10.448,65.724,28.6,65.724A39.031,39.031,0,0,0,66.042,32.862C68.563,14.706,55.914,0,37.759,0A39.031,39.031,0,0,0,.32,32.862Z" transform="translate(196.914 190.912)"/><path class="f" d="M.3,29.346A27.068,27.068,0,0,0,1.894,43.322,24.767,24.767,0,0,0,25.467,58.691,34.564,34.564,0,0,0,53.4,43.322a32.84,32.84,0,0,0,5.484-13.976C61.092,13.136,49.836,0,33.627,0A34.852,34.852,0,0,0,.3,29.346Z" transform="translate(200.515 194.429)"/><path class="x" d="M0,6a19,19,0,0,0,7.235,8.733,19,19,0,0,0,10.921,3.054,26.536,26.536,0,0,0,12.153-3.278A26.537,26.537,0,0,0,39.584,6,31.622,31.622,0,0,0,20.632,0,39.671,39.671,0,0,0,0,6Z" transform="translate(208.8 228.99)"/><path class="x" d="M.134,10.021A8.514,8.514,0,0,0,8.759,20.039,11.92,11.92,0,0,0,20.192,10.021,8.514,8.514,0,0,0,11.567,0,11.919,11.919,0,0,0,.134,10.021Z" transform="translate(221.005 206.544)"/><path class="f" d="M4.779,10.882H65.216a6.5,6.5,0,0,0,6.214-5.44h0A4.644,4.644,0,0,0,66.742,0H6.283A6.5,6.5,0,0,0,.069,5.442a4.644,4.644,0,0,0,4.71,5.44Z" transform="translate(279.406 300.399)"/><path class="f" d="M4.757,10.882h94.2a6.5,6.5,0,0,0,6.214-5.44h0A4.644,4.644,0,0,0,100.487,0H6.283A6.5,6.5,0,0,0,.069,5.442h0a4.644,4.644,0,0,0,4.688,5.44Z" transform="translate(276.51 320.678)"/><path class="f" d="M6.693,15.285h144.27a9.111,9.111,0,0,0,8.713-7.652h0A6.5,6.5,0,0,0,153.042,0H8.816A9.111,9.111,0,0,0,.1,7.634h0a6.5,6.5,0,0,0,6.59,7.652Z" transform="translate(171.502 402.63)"/><path class="f" d="M6.689,15.285H112.7a9.111,9.111,0,0,0,8.713-7.629A6.5,6.5,0,0,0,114.781,0H8.812A9.111,9.111,0,0,0,.1,7.656a6.5,6.5,0,0,0,6.59,7.629Z" transform="translate(167.547 431.069)"/><path class="f" d="M3.371,7.918h172a4.71,4.71,0,0,0,4.423-3.958A3.361,3.361,0,0,0,176.388,0H4.476A4.71,4.71,0,0,0,.053,3.96h0A3.361,3.361,0,0,0,3.371,7.918Z" transform="translate(224.978 61.896)"/><path class="x" d="M.326,32.906C-2.217,51.04,10.388,65.724,28.587,65.724A39.031,39.031,0,0,0,66.026,32.862C68.547,14.706,55.9,0,37.743,0A39.031,39.031,0,0,0,.326,32.906Z" transform="translate(184.635 279.502)"/><path class="f" d="M.3,29.346A27.069,27.069,0,0,0,1.894,43.322a24.767,24.767,0,0,0,23.64,15.369,34.564,34.564,0,0,0,27.93-15.369,32.84,32.84,0,0,0,5.484-13.976C61.159,13.136,49.9,0,33.693,0A34.852,34.852,0,0,0,.3,29.346Z" transform="translate(188.087 283.041)"/><path class="x" d="M0,6a19,19,0,0,0,7.235,8.732,19,19,0,0,0,10.921,3.054A26.536,26.536,0,0,0,30.308,14.5,26.537,26.537,0,0,0,39.584,6,31.622,31.622,0,0,0,20.632,0,39.671,39.671,0,0,0,0,6Z" transform="translate(196.46 317.602)"/><path class="x" d="M.134,10.021A8.514,8.514,0,0,0,8.759,20.039,11.919,11.919,0,0,0,20.192,10.021,8.514,8.514,0,0,0,11.567,0,11.919,11.919,0,0,0,.134,10.021Z" transform="translate(208.643 295.156)"/></g></svg>