<svg xmlns="http://www.w3.org/2000/svg" width="99" height="99" viewBox="0 0 99 99"><defs><style>.a{fill:#32ba7c;}.b{fill:#0aa06e;}.c{fill:#fff;}</style></defs><circle class="a" cx="49.5" cy="49.5" r="49.5" transform="translate(0 0)"/><path class="b" d="M188.8,194.161l25.453,25.453a49.467,49.467,0,0,0,36.7-47.782v-1.405L230.961,152Z" transform="translate(-151.948 -122.331)"/><g transform="translate(16.63 24.438)"><path class="c" d="M119.319,221.227a5.846,5.846,0,0,1,0,8.12l-4.528,4.528a5.846,5.846,0,0,1-8.12,0L86.84,213.888a5.846,5.846,0,0,1,0-8.12l4.528-4.528a5.846,5.846,0,0,1,8.12,0Z" transform="translate(-85.2 -185.078)"/><path class="c" d="M200.393,126.84a5.846,5.846,0,0,1,8.12,0l4.528,4.528a5.846,5.846,0,0,1,0,8.12l-34.353,34.2a5.846,5.846,0,0,1-8.12,0l-4.528-4.528a5.846,5.846,0,0,1,0-8.12Z" transform="translate(-148.941 -125.2)"/></g></svg>