<svg xmlns="http://www.w3.org/2000/svg" width="83" height="83" viewBox="0 0 83 83">
  <g id="_1930264_check_complete_done_green_success_icon" data-name="1930264_check_complete_done_green_success_icon" transform="translate(-23.416 -23.017)">
    <path id="XMLID_3_" d="M106,64.382v-.125c0-.285,0-.57-.018-.837,0-.16-.018-.32-.018-.5,0-.16-.018-.32-.018-.481-.018-.2-.018-.392-.036-.588,0-.125-.018-.249-.018-.374l-.053-.641c0-.089-.018-.2-.018-.285-.018-.231-.053-.463-.071-.712,0-.053-.018-.125-.018-.178a41.5,41.5,0,0,0-82.466.018c0,.053-.018.125-.018.178-.018.231-.053.463-.071.712a1.531,1.531,0,0,0-.018.285l-.053.641c0,.125-.018.249-.018.374-.018.2-.018.392-.036.588,0,.16-.018.32-.018.481s-.018.32-.018.5c0,.285-.018.57-.018.837v.285c0,.285,0,.57.018.837,0,.16.018.32.018.5,0,.16.018.32.018.481.018.2.018.392.036.588,0,.125.018.249.018.374l.053.641c0,.089.018.2.018.285.018.231.053.463.071.712,0,.053.018.125.018.178a41.506,41.506,0,0,0,82.466-.018c0-.053.018-.125.018-.178.018-.231.053-.463.071-.712a1.529,1.529,0,0,0,.018-.285l.053-.641c0-.125.018-.249.018-.374.018-.2.018-.392.036-.588,0-.16.018-.32.018-.481s.018-.32.018-.5c0-.285.018-.57.018-.837v-.16Z" transform="translate(0.416 0.117)" fill="#2bb673"/>
    <g id="XMLID_1_" transform="translate(47.001 50.576)">
      <g id="Group_6283" data-name="Group 6283">
        <line id="XMLID_2_" y1="28.067" x2="28.085" transform="translate(7.116)" fill="none" stroke="#fff" stroke-miterlimit="10" stroke-width="10"/>
        <line id="XMLID_4_" x1="14.231" y1="14.231" transform="translate(0 14.033)" fill="none" stroke="#fff" stroke-miterlimit="10" stroke-width="10"/>
      </g>
    </g>
  </g>
</svg>
