<svg xmlns="http://www.w3.org/2000/svg" width="385.465" height="340.313" viewBox="0 0 385.465 340.313">
  <g id="search-2_Prancheta_1" data-name="search-2_Prancheta 1" transform="translate(-22.107 -57.386)">
    <g id="BACKGROUND" transform="translate(22.107 57.386)">
      <g id="Group_7008" data-name="Group 7008" transform="translate(18.144 0)" opacity="0.1">
        <path id="Path_3923" data-name="Path 3923" d="M412.331,261.387a109.624,109.624,0,0,0-.508-18.7c-3.3-29.141-18.246-56.625-40.257-76.013-7.85-6.911-16.783-13.112-21.892-22.239-8.6-15.379-7.952-33.05-18.61-48.217a90.326,90.326,0,0,0-43.852-33.176C234.826,44.9,161.486,74.459,168.093,137.572c0,.228.051.558.076.973a22.975,22.975,0,0,1-22.476,24.447c-48.327,1.142-89.928,38.4-98.836,85.606-5.761,30.36,3.62,63.629,25.826,85.132,16.571,16.03,38.81,24.836,61.058,30.884,44.613,12.13,91.561,14.676,137.561,10.041,43.057-4.348,88.473-16.724,116.321-49.849C402.477,307.109,410.986,284.447,412.331,261.387Z" transform="translate(-45.198 -57.765)" fill="#f6b333"/>
      </g>
      <path id="Path_3927" data-name="Path 3927" d="M27.257,117.437a79.76,79.76,0,0,0-5.549,48.91c3.933,19.185,15.878,33.929,11.733,54.392-2.538,12.46-3.155,24.015-4.433,36.374-2.614,25.3,13.847,47.616,34.225,59.662,16.571,9.787,35.993,13.458,55.043,13.2,17.147-.237,34.259-3.384,50.873-7.664,16.013-4.1,31.662-9.508,48.445-7.8,13.957,1.413,26.528,7.452,39.529,11.953,31.036,10.743,68.62,12.257,97-4.094a81.892,81.892,0,0,0,38.32-89.158c-3.477-15.345-9.3-30.825-7.529-46.812,1.269-11.149,6.37-21.909,5.439-33.083-.626-7.427-3.891-14.38-7.892-20.691-14.6-22.966-39.055-38.336-64.915-46.812C293.21,77.848,268.1,72.071,242.769,73.974c-52.4,3.984-63.079-4.3-116.617-15.793-34.564-7.393-73.23,18.965-93.447,49.494A73.374,73.374,0,0,0,27.257,117.437Z" transform="translate(-20.107 -22.216)" fill="#f6b333" opacity="0.1"/>
      <circle id="Ellipse_144" data-name="Ellipse 144" cx="1.269" cy="1.269" r="1.269" transform="translate(44.065 40.802)" fill="#3e479b" opacity="0.58"/>
      <path id="Path_3932" data-name="Path 3932" d="M64.231,458.306a1.523,1.523,0,1,1-1.176-1.8A1.523,1.523,0,0,1,64.231,458.306Z" transform="translate(-29.522 -119.203)" fill="#3e479b" opacity="0.58"/>
    </g>
    <g id="OBJECTS" transform="translate(75.037 86.684)">
      <rect id="Rectangle_1922" data-name="Rectangle 1922" width="149.641" height="110.738" rx="1.85" transform="matrix(0.51, -0.86, 0.86, 0.51, 137.577, 193.405)" fill="#3e479b" opacity="0.14"/>
      <rect id="Rectangle_1923" data-name="Rectangle 1923" width="149.641" height="110.738" rx="1.85" transform="matrix(0.51, -0.86, 0.86, 0.51, 135.18, 188.354)" fill="#aad0f2"/>
      <path id="Path_3954" data-name="Path 3954" d="M369.06,348.7,263.246,329.187a1.565,1.565,0,0,1-1.26-1.819l26.561-144.083a1.565,1.565,0,0,1,1.827-1.26L396.188,201.54a1.573,1.573,0,0,1,1.26,1.827L370.887,347.451a1.565,1.565,0,0,1-1.827,1.252Z" transform="translate(-113.385 -106.207)" fill="#3e479b" opacity="0.14"/>
      <rect id="Rectangle_1924" data-name="Rectangle 1924" width="149.641" height="110.738" transform="translate(146.046 218.644) rotate(-79.56)" fill="#fff"/>
      <rect id="Rectangle_1925" data-name="Rectangle 1925" width="149.641" height="110.738" rx="1.85" transform="translate(146.046 218.644) rotate(-79.56)" fill="#c0e4ff"/>
      <path id="Path_3955" data-name="Path 3955" d="M395.327,219.94h-.161l-26.485-4.881a.859.859,0,0,1,.3-1.692l26.494,4.889a.849.849,0,1,1-.152,1.692Z" transform="translate(-129.721 -111.038)" fill="#fff"/>
      <path id="Path_3956" data-name="Path 3956" d="M393.483,229.937h-.152l-26.46-4.9a.86.86,0,0,1,.3-1.692l26.485,4.881a.849.849,0,0,1-.152,1.692Z" transform="translate(-129.442 -112.576)" fill="#fff"/>
      <path id="Path_3957" data-name="Path 3957" d="M391.484,240.8h-.152l-26.46-4.881a.86.86,0,1,1,.313-1.692l26.452,4.881a.849.849,0,0,1-.152,1.692Z" transform="translate(-129.135 -114.253)" fill="#fff"/>
      <rect id="Rectangle_1926" data-name="Rectangle 1926" width="53.021" height="49.536" rx="2" transform="translate(174.3 125.688) rotate(-79.56)" fill="#3e479b" opacity="0.14"/>
      <rect id="Rectangle_1927" data-name="Rectangle 1927" width="50.382" height="47.388" rx="2" transform="translate(174.744 123.255) rotate(-79.56)" fill="#599af2"/>
      <path id="Path_3958" data-name="Path 3958" d="M349,194.217l-46.6-8.586.846-4.416a1.692,1.692,0,0,1,1.92-1.32l43.42,8a1.6,1.6,0,0,1,1.277,1.853Z" transform="translate(-119.617 -105.879)" fill="#ecf1f7" opacity="0.07"/>
      <path id="Path_3959" data-name="Path 3959" d="M316.578,207.724a5.692,5.692,0,0,1-1-.093l-.643-.118a6.336,6.336,0,0,1-5.075-7.359l1.633-8.831a1.269,1.269,0,1,1,2.5.457l-1.624,8.831a3.79,3.79,0,0,0,3.028,4.407l.643.118a2.944,2.944,0,0,0,3.426-2.36l4.12-22.349a3.037,3.037,0,0,0-2.436-3.536l-1.1-.2a3.231,3.231,0,0,0-3.756,2.58l-.093.558a1.286,1.286,0,0,1-1.48,1.015,1.269,1.269,0,0,1-1.023-1.48l.1-.55a5.769,5.769,0,0,1,6.708-4.619l1.108.2a5.574,5.574,0,0,1,4.466,6.488l-4.12,22.349A5.482,5.482,0,0,1,316.578,207.724Z" transform="translate(-120.751 -104.989)" fill="#3e479b"/>
      <path id="Path_3960" data-name="Path 3960" d="M319.841,190.939h-.076l-16.918-3.113a.431.431,0,0,1-.338-.5.423.423,0,0,1,.491-.338l16.918,3.121a.425.425,0,0,1-.076.846Z" transform="translate(-119.632 -106.975)" fill="#fff"/>
      <path id="Path_3961" data-name="Path 3961" d="M369.24,291.971h-.152l-80.936-14.922a.86.86,0,0,1,.3-1.692L369.4,290.279a.85.85,0,1,1-.161,1.692Z" transform="translate(-117.312 -120.59)" fill="#fff"/>
      <path id="Path_3962" data-name="Path 3962" d="M362.4,329.087h-.152l-80.936-14.913a.847.847,0,1,1,.3-1.666l80.936,14.922a.835.835,0,0,1-.152,1.658Z" transform="translate(-116.259 -126.315)" fill="#fff"/>
      <path id="Path_3963" data-name="Path 3963" d="M323.144,302.654h-.152l-38.26-7.055a.86.86,0,0,1,.3-1.692l38.26,7.055a.849.849,0,1,1-.152,1.692Z" transform="translate(-116.785 -123.449)" fill="#fff"/>
      <path id="Path_3964" data-name="Path 3964" d="M329.377,268.85a.49.49,0,0,1-.152,0l-38.26-7.046a.847.847,0,0,1,.3-1.666l38.269,7.055a.85.85,0,1,1-.161,1.692Z" transform="translate(-117.748 -118.245)" fill="#fff"/>
      <path id="Path_3965" data-name="Path 3965" d="M373.952,311.876H373.8l-36.458-6.717a.859.859,0,1,1,.3-1.692l36.458,6.716a.849.849,0,1,1-.152,1.692Z" transform="translate(-124.892 -124.922)" fill="#fff"/>
      <rect id="Rectangle_1928" data-name="Rectangle 1928" width="50.627" height="20.682" rx="3.33" transform="translate(192.689 0)" fill="#599af2"/>
      <rect id="Rectangle_1929" data-name="Rectangle 1929" width="68.561" height="28.016" rx="3.33" transform="translate(208.634 15.218)" fill="#c0e4ff"/>
      <rect id="Rectangle_1930" data-name="Rectangle 1930" width="77.333" height="28.998" rx="4.52" transform="translate(221.56 37.313)" fill="#fff"/>
      <rect id="Rectangle_1931" data-name="Rectangle 1931" width="77.333" height="28.998" rx="4.52" transform="translate(221.56 37.313)" fill="#aad0f2"/>
      <path id="Path_3966" data-name="Path 3966" d="M410.034,156.427a3.384,3.384,0,1,1,3.384-3.384A3.384,3.384,0,0,1,410.034,156.427Zm0-5.871a2.538,2.538,0,1,0,2.538,2.538A2.538,2.538,0,0,0,410.034,150.557Z" transform="translate(-135.681 -101.223)" fill="#fff"/>
      <path id="Path_3967" data-name="Path 3967" d="M393.644,156.427a3.384,3.384,0,1,1,3.384-3.384A3.384,3.384,0,0,1,393.644,156.427Zm0-5.871a2.538,2.538,0,1,0,2.538,2.538,2.538,2.538,0,0,0-2.538-2.538Z" transform="translate(-133.155 -101.223)" fill="#fff"/>
      <path id="Path_3968" data-name="Path 3968" d="M378.384,156.427a3.384,3.384,0,1,1,3.384-3.384A3.384,3.384,0,0,1,378.384,156.427Zm0-5.871a2.538,2.538,0,1,0,2.538,2.538A2.538,2.538,0,0,0,378.384,150.557Z" transform="translate(-130.804 -101.223)" fill="#fff"/>
      <path id="Path_3969" data-name="Path 3969" d="M151.363,94.8H259.318a3.933,3.933,0,0,1,3.933,3.933v159.03a13.585,13.585,0,0,1-13.585,13.585H174.727A28.947,28.947,0,0,1,145.78,242.4V100.383A5.583,5.583,0,0,1,151.363,94.8Z" transform="translate(-95.482 -92.77)" fill="#fff"/>
      <path id="Path_3970" data-name="Path 3970" d="M147.148,94.8h114.02a2.1,2.1,0,0,1,2.106,2.106V258.4a12.942,12.942,0,0,1-12.951,12.951H172.2a26.375,26.375,0,0,1-26.375-26.367V96.17A1.37,1.37,0,0,1,147.148,94.8Z" transform="translate(-95.489 -92.77)" fill="#f6b333"/>
      <path id="Path_3971" data-name="Path 3971" d="M159.04,94.8H263.5a1.692,1.692,0,0,1,1.692,1.692V258.906a12.511,12.511,0,0,1-12.511,12.511H184.037A25.927,25.927,0,0,1,158.11,245.49V95.731A.93.93,0,0,1,159.04,94.8Z" transform="translate(-97.382 -92.77)" fill="#fff" opacity="0.39"/>
      <path id="Path_3972" data-name="Path 3972" d="M177.49,298.537h94.378a19.667,19.667,0,0,0,19.667-19.667V271.4H196.092v7.469A19.667,19.667,0,0,1,177.49,298.537Z" transform="translate(-100.369 -119.983)" fill="#f6b333"/>
      <g id="Group_7016" data-name="Group 7016" transform="translate(90.072 151.417)" opacity="0.28">
        <path id="Path_3973" data-name="Path 3973" d="M192.8,298.537h84.024c9.669,0,17.51-8.806,17.51-19.667V271.4H209.363v7.469C209.363,289.4,202.029,297.978,192.8,298.537Z" transform="translate(-192.8 -271.4)" fill="#fff"/>
      </g>
      <path id="Path_3974" data-name="Path 3974" d="M251.074,247.062H183.216a.846.846,0,1,1,0-1.692h67.859a.846.846,0,1,1,0,1.692Z" transform="translate(-101.121 -115.972)" fill="#fff"/>
      <path id="Path_3975" data-name="Path 3975" d="M252.264,213.292H181.716a.846.846,0,1,1,0-1.692h70.549a.846.846,0,1,1,0,1.692Z" transform="translate(-100.89 -110.768)" fill="#fff"/>
      <path id="Path_3976" data-name="Path 3976" d="M216.758,230.162H180.706a.846.846,0,0,1,0-1.692h36.053a.846.846,0,1,1,0,1.692Z" transform="translate(-100.734 -113.368)" fill="#fff"/>
      <path id="Path_3977" data-name="Path 3977" d="M214.524,230.162H183.936a.846.846,0,0,1,0-1.692h30.588a.846.846,0,0,1,0,1.692Z" transform="translate(-101.232 -113.368)" fill="#fff"/>
      <path id="Path_3978" data-name="Path 3978" d="M228.736,177.172H182.3a.846.846,0,1,1,0-1.692h46.44a.846.846,0,1,1,0,1.692Z" transform="translate(-100.979 -105.202)" fill="#fff"/>
      <path id="Path_3979" data-name="Path 3979" d="M260.069,177.172H245.926a.846.846,0,0,1,0-1.692h14.144a.846.846,0,0,1,0,1.692Z" transform="translate(-110.784 -105.202)" fill="#fff"/>
      <path id="Path_3980" data-name="Path 3980" d="M255.955,194.052H205.666a.846.846,0,1,1,0-1.692h50.289a.846.846,0,0,1,0,1.692Z" transform="translate(-104.58 -107.803)" fill="#fff"/>
      <path id="Path_3981" data-name="Path 3981" d="M197.052,194.052H181.716a.846.846,0,1,1,0-1.692h15.336a.846.846,0,0,1,0,1.692Z" transform="translate(-100.89 -107.803)" fill="#fff"/>
      <path id="Path_3982" data-name="Path 3982" d="M251.074,162.892H183.216a.846.846,0,1,1,0-1.692h67.859a.846.846,0,1,1,0,1.692Z" transform="translate(-101.121 -103.002)" fill="#fff"/>
      <path id="Path_3983" data-name="Path 3983" d="M251.074,129.112H183.216a.846.846,0,1,1,0-1.692h67.859a.846.846,0,1,1,0,1.692Z" transform="translate(-101.121 -97.796)" fill="#fff"/>
      <path id="Path_3984" data-name="Path 3984" d="M207.978,145.982H182.3a.846.846,0,0,1,0-1.692h25.682a.846.846,0,1,1,0,1.692Z" transform="translate(-100.979 -100.396)" fill="#fff"/>
      <path id="Path_3985" data-name="Path 3985" d="M257.271,145.982h-30.6a.846.846,0,1,1,0-1.692h30.6a.846.846,0,0,1,0,1.692Z" transform="translate(-107.816 -100.396)" fill="#fff"/>
      <circle id="Ellipse_145" data-name="Ellipse 145" cx="61.264" cy="61.264" r="61.264" transform="translate(114.138 104.469) rotate(-45)" fill="#fff" opacity="0.21"/>
      <path id="Path_3986" data-name="Path 3986" d="M275.884,213.4a3.384,3.384,0,0,1-3.384-3.384A49.063,49.063,0,0,1,321.478,161a3.384,3.384,0,1,1,0,6.767,42.3,42.3,0,0,0-42.211,42.211,3.384,3.384,0,0,1-3.384,3.417Z" transform="translate(-115.009 -102.971)" fill="#fff" opacity="0.76"/>
      <path id="Path_3987" data-name="Path 3987" d="M324.1,279.7A63.3,63.3,0,1,1,387.4,216.4,63.3,63.3,0,0,1,324.1,279.7Zm0-122.718A59.425,59.425,0,1,0,383.517,216.4,59.427,59.427,0,0,0,324.1,156.977Z" transform="translate(-123.27 -111.817)" fill="#3e479b" opacity="0.58"/>
      <ellipse id="Ellipse_146" data-name="Ellipse 146" cx="61.264" cy="61.263" rx="61.264" ry="61.263" transform="translate(139.52 43.209)" fill="none"/>
      <path id="Path_3988" data-name="Path 3988" d="M380.036,259.913a3.374,3.374,0,0,1,.29-.232,71.631,71.631,0,1,0-13.136,13.068l8.267-8.276Zm-56.308,17.375a61.273,61.273,0,1,1,61.264-61.27,61.275,61.275,0,0,1-61.264,61.27Z" transform="translate(-122.944 -111.544)" fill="#f6b333"/>
      <path id="Path_3989" data-name="Path 3989" d="M323.7,288.455a72.494,72.494,0,1,1,57.4-28.207l-.184.184a1.22,1.22,0,0,0-.184.145l-12.9,12.893A71.786,71.786,0,0,1,323.7,288.455Zm0-142.98a70.524,70.524,0,1,0,0,141.049A69.8,69.8,0,0,0,366.567,272l12.758-12.826a3.366,3.366,0,0,1,.29-.252,69.81,69.81,0,0,0,14.655-42.93A70.6,70.6,0,0,0,323.7,145.476Zm0,132.758A62.241,62.241,0,1,1,385.936,216,62.243,62.243,0,0,1,323.7,278.234Zm0-122.536A60.3,60.3,0,1,0,384,216,60.307,60.307,0,0,0,323.7,155.7Z" transform="translate(-122.92 -111.52)" fill="#f6b333"/>
      <path id="Path_3990" data-name="Path 3990" d="M387.334,277.994l-3.987-3.987a3.959,3.959,0,0,1,0-5.577l-11.962,11.948-.2.2a3.917,3.917,0,0,0,0,5.576L376.027,291C377.686,288.283,382.357,283.027,387.334,277.994Z" transform="translate(-124.368 -120.969)" fill="#f6b333"/>
      <path id="Path_3991" data-name="Path 3991" d="M379.453,267.581a2.4,2.4,0,0,0,0,3.384l2.419,2.419a68.113,68.113,0,0,1,7.74-6.953l-2.817-2.817a2.377,2.377,0,0,0-3.121-.2,2.973,2.973,0,0,0-.254.2Z" transform="translate(-131.383 -118.676)" fill="#f6b333"/>
      <path id="Path_3992" data-name="Path 3992" d="M379.554,268.254a2.749,2.749,0,0,0,0,3.872l2.768,2.768a77.951,77.951,0,0,1,8.857-7.957l-3.223-3.223a2.72,2.72,0,0,0-3.572-.232,3.4,3.4,0,0,0-.29.232Z" transform="translate(-128.002 -113.344)" fill="#3e479b" opacity="0.14"/>
      <path id="Path_3993" data-name="Path 3993" d="M442.9,317.314l-50.335-50.9c-.184-.174-.736.068-1.529.6a77.922,77.922,0,0,0-8.857,7.957c-3.456,3.494-6.7,7.144-7.812,9-.358.6-.494,1.026-.339,1.181l50.335,50.9a13.019,13.019,0,0,0,18.537,0A13.348,13.348,0,0,0,442.9,317.314Z" transform="translate(-126.848 -115.453)" fill="#f6b333"/>
      <path id="Path_3994" data-name="Path 3994" d="M443.133,317.314l-50.335-50.9c-.678-.678-6.418,4.462-11.345,9.535-4.191,4.327,56.569,65.271,61.69,60.1h0A13.348,13.348,0,0,0,443.133,317.314Z" transform="translate(-127.082 -115.454)" fill="#3e479b" opacity="0.14"/>
      <path id="Path_3995" data-name="Path 3995" d="M231.392,286.7H159.405a9.127,9.127,0,0,1-9.127-9.119V271.6a9.153,9.153,0,0,0-9.153-9.161H107.873A9.161,9.161,0,0,0,98.72,271.6v95.021a8.527,8.527,0,0,0,8.527,8.527H231.392a8.527,8.527,0,0,0,8.527-8.527V295.227A8.535,8.535,0,0,0,231.392,286.7Z" transform="translate(-88.231 -118.602)" fill="#184382"/>
      <path id="Path_3996" data-name="Path 3996" d="M222.012,286.7H150.025a9.119,9.119,0,0,1-9.119-9.119V271.6a9.161,9.161,0,0,0-9.161-9.161H98.5A9.161,9.161,0,0,0,89.34,271.6v95.021a8.527,8.527,0,0,0,8.535,8.527H222.012a8.527,8.527,0,0,0,8.527-8.527V295.227A8.527,8.527,0,0,0,222.012,286.7Z" transform="translate(-86.785 -118.602)" fill="#184382"/>
      <path id="Path_3997" data-name="Path 3997" d="M218.992,286.7H147.005a9.127,9.127,0,0,1-9.127-9.119V271.6a9.153,9.153,0,0,0-9.153-9.161H95.481A9.161,9.161,0,0,0,86.32,271.6v95.021a8.527,8.527,0,0,0,8.527,8.527H218.992a8.527,8.527,0,0,0,8.527-8.527V295.227a8.527,8.527,0,0,0-8.527-8.527Z" transform="translate(-86.32 -118.602)" fill="#fff" opacity="0.12"/>
      <path id="Path_3998" data-name="Path 3998" d="M203.757,286.7H141.676c-4.348,0-7.867-4.086-7.867-9.119V271.6c0-5.075-3.536-9.161-7.9-9.161H97.241c-4.365,0-7.9,4.1-7.9,9.161v95.021c0,4.712,3.3,8.527,7.359,8.527H203.757c4.06,0,7.351-3.815,7.351-8.527V295.227C211.108,290.524,207.818,286.7,203.757,286.7Z" transform="translate(-86.785 -118.602)" fill="#fff" opacity="0.12"/>
      <path id="Path_3999" data-name="Path 3999" d="M97.056,297.353a.846.846,0,0,1-.846-.846V275.748a5.837,5.837,0,0,1,5.828-5.828H126.57a.846.846,0,1,1,0,1.692H102.038a4.145,4.145,0,0,0-4.136,4.136v20.759A.846.846,0,0,1,97.056,297.353Z" transform="translate(-87.844 -119.755)" fill="#fff"/>
    </g>
  </g>
</svg>
