<svg xmlns="http://www.w3.org/2000/svg" width="16" height="14" viewBox="0 0 16 14"><defs><style>.a{fill:#2a5798;}</style></defs><g transform="translate(-385.744 -408.728)"><path class="a" d="M619.116,534.968a3.826,3.826,0,0,1-2.2,1.072c0-.175.011-.335,0-.493-.049-.574-.077-1.152-.168-1.72a3.35,3.35,0,0,0-1.246-2.246c-.238-.181-.5-.326-.743-.48a5.512,5.512,0,0,0,.694-.153,3.192,3.192,0,0,0,.5-.283c.043-.025.1-.065.137-.057a7.054,7.054,0,0,1,1.625.467,2.072,2.072,0,0,1,1.229,1.6c.072.391.095.79.138,1.186.013.122.021.245.032.368Z" transform="translate(-217.372 -115.441)"/><path class="a" d="M445.88,550.053a12.121,12.121,0,0,1-3.2-.342,4.37,4.37,0,0,1-1.712-.825c-.048-.04-.092-.085-.138-.128a.681.681,0,0,1-.235-.579,18.267,18.267,0,0,1,.171-2.369,3.1,3.1,0,0,1,.558-1.382,2.848,2.848,0,0,1,1.437-.936c.433-.139.877-.24,1.319-.347a.236.236,0,0,1,.187.053,2,2,0,0,0,1.476.507,1.907,1.907,0,0,0,1.356-.54.155.155,0,0,1,.124-.027,7.5,7.5,0,0,1,1.93.6,2.576,2.576,0,0,1,1.382,1.9,11.388,11.388,0,0,1,.183,1.961c.007.194,0,.39.02.582a.65.65,0,0,1-.22.569,3.341,3.341,0,0,1-1.049.681,7.9,7.9,0,0,1-2.516.57C446.524,550.034,446.1,550.042,445.88,550.053Z" transform="translate(-51.92 -127.325)"/><path class="a" d="M487.977,412.012a5.76,5.76,0,0,1,.214-1.63,2.177,2.177,0,0,1,1.885-1.594,4.547,4.547,0,0,1,1.577.02,2.126,2.126,0,0,1,1.8,1.648,5.288,5.288,0,0,1-.014,3.015,3.016,3.016,0,0,1-1.606,1.914,2.335,2.335,0,0,1-2.663-.411,3.52,3.52,0,0,1-1.175-2.46c-.008-.086-.012-.172-.014-.259S487.977,412.092,487.977,412.012Z" transform="translate(-97.066 0)"/><path class="a" d="M427.347,421.543a5.984,5.984,0,0,0,.212,5.193,1.708,1.708,0,0,1-.858.3,2.1,2.1,0,0,1-1.979-1.053,2.909,2.909,0,0,1-.486-1.488,4.963,4.963,0,0,1,.163-1.7,1.744,1.744,0,0,1,1.468-1.288A3.58,3.58,0,0,1,427.347,421.543Z" transform="translate(-36.427 -12.038)"/><path class="a" d="M595.668,421.536a3.512,3.512,0,0,1,1.761.033,1.606,1.606,0,0,1,1.142,1.1,4.115,4.115,0,0,1-.037,2.85,2.316,2.316,0,0,1-1.562,1.456,1.885,1.885,0,0,1-1.519-.236A5.977,5.977,0,0,0,595.668,421.536Z" transform="translate(-199.098 -12.033)"/><path class="a" d="M390.12,531.143a3.622,3.622,0,0,0-1.235.92,3.771,3.771,0,0,0-.8,1.965c-.072.55-.1,1.106-.141,1.659-.009.118-.012.236-.018.371a5.255,5.255,0,0,1-1.191-.358,2.632,2.632,0,0,1-.857-.568.424.424,0,0,1-.132-.331,12.961,12.961,0,0,1,.174-2.142,2.221,2.221,0,0,1,1.67-1.733c.38-.117.772-.2,1.16-.288a.165.165,0,0,1,.13.027,1.7,1.7,0,0,0,1.091.428c.048,0,.1.011.144.019C390.116,531.114,390.117,531.13,390.12,531.143Z" transform="translate(0 -115.469)"/></g></svg>