<svg xmlns="http://www.w3.org/2000/svg" width="24" height="24" viewBox="0 0 24 24"><defs><style>.a{fill:#fff;stroke:#707070;opacity:0;}.b{fill:#d48e07;}.c{fill:#f8b432;}.d{fill:#f7fafb;}.e{stroke:none;}.f{fill:none;}</style></defs><g transform="translate(-217 -454)"><g class="a" transform="translate(217 454)"><rect class="e" width="24" height="24"/><rect class="f" x="0.5" y="0.5" width="23" height="23"/></g><g transform="translate(215.737 452.736)"><path class="b" d="M4.418,0H1.941A1.929,1.929,0,0,0,0,1.862V3.1a.614.614,0,0,0,.619.621H5.657A.614.614,0,0,0,6.277,3.1V1.862A1.857,1.857,0,0,0,4.418,0Z" transform="translate(10.125 8.848)"/><path class="b" d="M6.223,1.862A1.866,1.866,0,0,1,4.356,3.723H1.867A1.866,1.866,0,0,1,0,1.862V.621A.621.621,0,0,1,.622,0H5.6a.621.621,0,0,1,.622.621Z" transform="translate(2.625 7.625)"/><path class="b" d="M6.223,1.862A1.866,1.866,0,0,1,4.356,3.723H1.867A1.866,1.866,0,0,1,0,1.862V.621A.621.621,0,0,1,.622,0H5.6a.621.621,0,0,1,.622.621Z" transform="translate(17.678 7.625)"/><path class="c" d="M18.593,8.737,15.356.923A1.853,1.853,0,0,0,13.743,0H5.087a1.877,1.877,0,0,0-1.65,1l-3.2,7.74A3.2,3.2,0,0,0,0,9.935v.748a1.87,1.87,0,0,0,1.875,1.871H16.955a1.87,1.87,0,0,0,1.875-1.871V9.935A3.2,3.2,0,0,0,18.593,8.737Z" transform="translate(3.848 11.349)"/><path class="c" d="M15.667,0H5.61A5.614,5.614,0,0,0,0,5.6v.622H6.233V5.6a.617.617,0,0,1,.623-.622H14.42a.617.617,0,0,1,.623.622v.622h6.233V5.6A5.614,5.614,0,0,0,15.667,0Z" transform="translate(2.625 2.625)"/><path class="d" d="M3.75,0A3.75,3.75,0,1,0,7.5,3.75,3.761,3.761,0,0,0,3.75,0Z" transform="translate(9.54 13.902)"/><path class="b" d="M1.25,0A1.25,1.25,0,1,0,2.5,1.25,1.254,1.254,0,0,0,1.25,0Z" transform="translate(12.04 16.402)"/></g></g></svg>