<svg xmlns="http://www.w3.org/2000/svg" width="16" height="16" viewBox="0 0 16 16"><defs><style>.a{fill:#2a5798;}</style></defs><g transform="translate(-348.75 -348.75)"><path class="a" d="M363.531,472.5H349.969a1.573,1.573,0,0,1-.881-.509,1.772,1.772,0,0,1-.338-.735V461.25h16v10.009c-.011.039-.024.078-.033.117a1.427,1.427,0,0,1-.779.985A3.281,3.281,0,0,1,363.531,472.5Zm-6.793-6.092h4.638a.476.476,0,0,0,.529-.529q0-1.336,0-2.672a.476.476,0,0,0-.53-.529h-9.245a.478.478,0,0,0-.537.537q0,1.313,0,2.625c0,.4.172.568.569.568Zm-2.332,4.662h2.279a.476.476,0,0,0,.533-.526q0-1.336,0-2.671a.478.478,0,0,0-.541-.533h-4.543a.478.478,0,0,0-.54.533q0,1.328,0,2.655a.481.481,0,0,0,.549.541Zm5.625,0c.458,0,.916,0,1.374,0a.467.467,0,0,0,.5-.495q0-1.366,0-2.733a.469.469,0,0,0-.509-.5q-1.366,0-2.732,0a.469.469,0,0,0-.508.5q0,1.359,0,2.717a.472.472,0,0,0,.517.51C359.126,471.073,359.579,471.072,360.032,471.072Z" transform="translate(0 -107.752)"/><path class="a" d="M348.75,352.549v-2.564c.012-.045.025-.09.036-.135a1.376,1.376,0,0,1,.675-.906,3.7,3.7,0,0,1,.507-.193h13.563a.854.854,0,0,0,.088.029,1.385,1.385,0,0,1,1.019.846,3.359,3.359,0,0,1,.112.359v2.564Zm3.31-2.374a.474.474,0,1,0,.471.468A.476.476,0,0,0,352.06,350.175Zm1.883,0a.474.474,0,1,0,.463.476A.476.476,0,0,0,353.943,350.175Zm1.867.949a.474.474,0,1,0-.466-.473A.477.477,0,0,0,355.81,351.124Z" transform="translate(0)"/><path class="a" d="M448.126,518.514v1.88h-8.32v-1.88Z" transform="translate(-87.213 -162.702)"/><path class="a" d="M443.465,631.025V632.9h-3.784v-1.879Z" transform="translate(-87.157 -270.568)"/><path class="a" d="M599.181,631.018V632.9H597.3v-1.879Z" transform="translate(-238.212 -270.562)"/></g></svg>