<svg id="Group_694" data-name="Group 694" xmlns="http://www.w3.org/2000/svg" width="40" height="40" viewBox="0 0 40 40">
  <g id="Rectangle_454" data-name="Rectangle 454" fill="#fff" stroke="#707070" stroke-width="1" opacity="0">
    <rect width="40" height="40" stroke="none"/>
    <rect x="0.5" y="0.5" width="39" height="39" fill="none"/>
  </g>
  <g id="Group_4689" data-name="Group 4689" transform="translate(-1783 -728)">
    <g id="Rectangle_193" data-name="Rectangle 193" transform="translate(1783 728)" fill="#fff" stroke="#707070" stroke-width="1" opacity="0">
      <rect width="40" height="40" stroke="none"/>
      <rect x="0.5" y="0.5" width="39" height="39" fill="none"/>
    </g>
    <path id="Vector" d="M20,0A20,20,0,1,0,40,20,20.024,20.024,0,0,0,20,0Z" transform="translate(1783 728)" fill="#199b4d"/>
    <path id="Vector-2" data-name="Vector" d="M19.294.441,8.232,10.323l-5.27-5.1A1.815,1.815,0,0,0,.529,5.165a1.553,1.553,0,0,0-.058,2.28L6.957,13.69a1.826,1.826,0,0,0,1.216.489,2.071,2.071,0,0,0,1.216-.434L21.726,2.776A1.508,1.508,0,0,0,21.784.5,1.891,1.891,0,0,0,19.294.441Z" transform="translate(1791.333 741.333)" fill="#fff"/>
  </g>
</svg>
