<svg xmlns="http://www.w3.org/2000/svg" width="32" height="32" viewBox="0 0 32 32"><defs><style>.a{fill:#1da1f2;}.b{fill:#fff;}</style></defs><path class="a" d="M32,16A16,16,0,1,1,16,0,16,16,0,0,1,32,16Z"/><g transform="translate(8.565 9.391)"><path class="b" d="M4.2,13.22a9.148,9.148,0,0,0,9.454-9.09,6.686,6.686,0,0,0,1.223-2.347.364.364,0,0,0-.512-.421,1.554,1.554,0,0,1-.943.13,1.554,1.554,0,0,1-.842-.444A3.215,3.215,0,0,0,7.963.906a3.413,3.413,0,0,0-.95,3.223,7.205,7.205,0,0,1-6.19-2.95.355.355,0,0,0-.62.2A8,8,0,0,0,4,9.683,5.562,5.562,0,0,1,.311,11.567a.372.372,0,0,0-.116.694A9.09,9.09,0,0,0,4.2,13.22Z" transform="translate(0 0)"/></g></svg>