<svg xmlns="http://www.w3.org/2000/svg" width="32" height="32" viewBox="0 0 32 32"><defs><style>.a{fill:#1da1f2;opacity:0;}.b{fill:#fff;}</style></defs><path class="a" d="M32,16A16,16,0,1,1,16,0,16,16,0,0,1,32,16Z"/><g transform="translate(8.241 8.442)"><path class="b" d="M6.946,21.889A15.148,15.148,0,0,0,22.6,6.837a11.07,11.07,0,0,0,2.025-3.886.6.6,0,0,0-.848-.7,2.572,2.572,0,0,1-1.561.216,2.572,2.572,0,0,1-1.394-.736A5.323,5.323,0,0,0,13.186,1.5a5.651,5.651,0,0,0-1.574,5.337c-4.584.274-7.731-1.9-10.249-4.885a.588.588,0,0,0-1.026.328A13.246,13.246,0,0,0,6.631,16.033a9.209,9.209,0,0,1-6.116,3.12A.616.616,0,0,0,.323,20.3,15.052,15.052,0,0,0,6.946,21.889Z" transform="translate(-4.564 -3.392)"/></g></svg>