<svg xmlns="http://www.w3.org/2000/svg" width="24" height="24" viewBox="0 0 24 24"><defs><style>.a{fill:#1da1f2;}.b{fill:#fff;}</style></defs><g transform="translate(-1159 -989)"><path class="a" d="M24,12A12,12,0,1,1,12,0,12,12,0,0,1,24,12Z" transform="translate(1159 989)"/><g transform="translate(1164 994)"><path class="b" d="M2.961,9.332A6.458,6.458,0,0,0,9.635,2.915,4.719,4.719,0,0,0,10.5,1.258a.257.257,0,0,0-.362-.3,1.1,1.1,0,0,1-.666.092A1.1,1.1,0,0,1,8.876.739,2.269,2.269,0,0,0,5.621.64,2.409,2.409,0,0,0,4.95,2.915,5.086,5.086,0,0,1,.581.832a.251.251,0,0,0-.437.14A5.647,5.647,0,0,0,2.827,6.835,3.926,3.926,0,0,1,.22,8.165a.263.263,0,0,0-.082.49A6.417,6.417,0,0,0,2.961,9.332Z" transform="translate(1.752 2.335)"/></g></g></svg>