<svg xmlns="http://www.w3.org/2000/svg" width="306.406" height="153" viewBox="0 0 306.406 153"><defs><style>.a{fill:#e0e0e0;}.b{fill:#fafafa;}.c{fill:#ebebeb;}.d{fill:#f5f5f5;}.e{fill:#263238;}.f{fill:#1c1b1b;}.g{fill:#e7f1fd;}.h,.u{fill:#2a5798;}.i{opacity:0.6;}.j{fill:#fff;}.k{opacity:0.3;}.l{fill:#455a64;}.m{fill:#ffbe9d;}.n{fill:#eb996e;}.o{opacity:0.2;}.p{fill:#f6b333;}.q{fill:#e68452;}.r{fill:#284672;}.s{fill:#c17f00;}.t{opacity:0.4;}.u{opacity:0;}</style></defs><g transform="translate(110.14 -34.97)"><g transform="translate(-110.14 34.97)"><g transform="translate(284.186 1.814)"><g transform="translate(1.415 0.006)"><rect class="a" width="20.805" height="21.687"/></g><rect class="b" width="20.805" height="21.687" transform="translate(0.006 0.006)"/><path class="a" d="M673.97,61.958H653.152v-21.7H673.97Zm-20.8-.013h20.792V40.271H653.165Z" transform="translate(-653.152 -40.258)"/><g transform="translate(2.803 2.922)"><rect class="b" width="15.211" height="15.857"/></g><g transform="translate(0.027 18.883)"><path class="a" d="M656.006,95.3a2.47,2.47,0,0,1-.375.436c-.243.257-.584.6-.967.981s-.734.713-.994.951a2.414,2.414,0,0,1-.44.366,2.444,2.444,0,0,1,.373-.435c.243-.256.585-.6.969-.982s.736-.715,1-.953A2.413,2.413,0,0,1,656.006,95.3Z" transform="translate(-653.23 -95.294)"/></g><g transform="translate(18.014 18.844)"><path class="a" d="M705.656,95.183a2.492,2.492,0,0,1,.436.375c.256.243.6.584.98.967s.713.735.951.994a2.447,2.447,0,0,1,.366.44,2.412,2.412,0,0,1-.435-.373c-.256-.243-.6-.585-.982-.969s-.714-.736-.953-1A2.353,2.353,0,0,1,705.656,95.183Z" transform="translate(-705.655 -95.182)"/></g><g transform="translate(17.972 0.229)"><path class="a" d="M705.536,43.661a2.49,2.49,0,0,1,.375-.436c.243-.256.584-.6.967-.98s.734-.713.994-.951a2.424,2.424,0,0,1,.44-.366,2.412,2.412,0,0,1-.373.435c-.243.256-.585.6-.969.982s-.736.714-1,.953A2.365,2.365,0,0,1,705.536,43.661Z" transform="translate(-705.535 -40.926)"/></g><g transform="translate(0.027 0.227)"><path class="a" d="M655.964,43.695a2.473,2.473,0,0,1-.436-.375c-.257-.243-.6-.585-.98-.967s-.713-.734-.951-.994a2.406,2.406,0,0,1-.366-.44,2.423,2.423,0,0,1,.435.373c.256.243.6.585.982.969s.715.736.953,1A2.385,2.385,0,0,1,655.964,43.695Z" transform="translate(-653.229 -40.918)"/></g><g transform="translate(2.736 2.855)"><path class="a" d="M676.363,64.5a.635.635,0,0,1,0-.077c0-.054,0-.127,0-.221q0-.3-.007-.856c0-.751-.009-1.844-.016-3.232-.007-2.777-.017-6.734-.029-11.471l.058.059-15.168.009h0l.067-.067c0,5.82-.007,11.265-.009,15.856l-.058-.058,10.984.03,3.085.015.816.007.211,0,.074,0a.544.544,0,0,1-.067,0l-.2,0-.805.007-3.073.015-11.021.03h-.058V64.5c0-4.592-.006-10.037-.009-15.856v-.067h.069l15.168.009h.059v.059c-.012,4.753-.023,8.722-.03,11.508-.007,1.382-.012,2.47-.015,3.219,0,.366-.005.648-.007.844l0,.215A.562.562,0,0,1,676.363,64.5Z" transform="translate(-661.126 -48.578)"/></g><g transform="translate(7.871 8.312)"><rect class="c" width="5.076" height="5.076"/></g></g><g transform="translate(274.873 62.774)"><path class="c" d="M637.949,218.776s-3.089-.222-2.8,6.708a80.272,80.272,0,0,0,.992,10.621s-.091,1.537-1.281,1.235-3.429-1.8-4.535-.679c-1.147,1.159-.739,2.938.782,5.032s4.685,6.806,4.97,7.233.391,1.205-.452,1.13-6.538-2.006-7.292.751,4.442,7.9,5,8.468.587.934.361,1.281-2.079-.483-3.721-.965-3.631-.754-3.932.873,1.987,6.388,10.558,11.392l4.123,2.059,3.9-2.49c8.027-5.836,9.828-10.8,9.365-12.391s-2.414-1.119-4-.475-3.346,1.655-3.606,1.333-.266-.685.231-1.31,5.153-6.258,4.127-8.926-6.5-.178-7.331-.018-.8-.634-.563-1.079,2.917-5.458,4.221-7.694,1.532-4.046.275-5.085c-1.212-1-3.29.71-4.444,1.129s-1.4-1.1-1.4-1.1a80.249,80.249,0,0,0-.076-10.667c-.41-6.924-3.536-6.365-3.536-6.365" transform="translate(-626.01 -218.765)"/><g transform="translate(12.182 6.218)"><path class="a" d="M661.519,236.888s.008.049.016.144l.033.425c.026.382.063.932.111,1.637.095,1.421.216,3.479.357,6.022.283,5.086.613,12.115.952,19.879s.652,14.8.906,19.884c.129,2.538.234,4.594.306,6.024.035.706.062,1.256.081,1.638.007.182.013.324.017.426s0,.146,0,.146-.008-.049-.016-.145l-.033-.425c-.026-.382-.063-.932-.111-1.637-.095-1.421-.216-3.479-.356-6.022-.283-5.086-.613-12.116-.952-19.883s-.652-14.793-.906-19.88c-.129-2.538-.234-4.595-.307-6.024-.035-.706-.062-1.256-.081-1.638-.007-.182-.013-.324-.017-.426S661.519,236.888,661.519,236.888Z" transform="translate(-661.518 -236.888)"/></g><g transform="translate(7.358 20.113)"><path class="a" d="M647.456,277.389a1.37,1.37,0,0,1,.256.213c.159.144.381.36.654.629.544.539,1.276,1.3,2.068,2.162l2.017,2.206.614.666a1.354,1.354,0,0,1,.215.255,1.375,1.375,0,0,1-.258-.212c-.158-.145-.381-.36-.651-.632-.539-.544-1.26-1.318-2.052-2.176l-2.032-2.191-.617-.663A1.34,1.34,0,0,1,647.456,277.389Z" transform="translate(-647.455 -277.389)"/></g><g transform="translate(13.59 19.165)"><path class="a" d="M665.621,281.569c-.031-.031,1.477-1.61,3.368-3.527s3.449-3.447,3.48-3.416-1.477,1.609-3.368,3.527S665.652,281.6,665.621,281.569Z" transform="translate(-665.621 -274.626)"/></g><g transform="translate(13.573 33.548)"><path class="a" d="M665.572,321.056a1.4,1.4,0,0,1,.287-.183l.807-.453c.68-.382,1.618-.914,2.633-1.537s1.915-1.215,2.564-1.649l.769-.513a.171.171,0,1,1,.036.05c-.172.135-.424.326-.741.555-.634.458-1.527,1.069-2.546,1.692s-1.967,1.143-2.662,1.5c-.349.178-.632.318-.831.409A1.4,1.4,0,0,1,665.572,321.056Z" transform="translate(-665.572 -316.547)"/></g><g transform="translate(6.743 33.875)"><path class="a" d="M645.663,317.5a1.216,1.216,0,0,1,.285.134c.178.1.434.237.748.415.628.357,1.489.859,2.436,1.422s1.8,1.08,2.413,1.462c.306.191.553.347.722.459a.158.158,0,1,1-.032.052c-.178-.1-.434-.237-.747-.415-.628-.357-1.489-.859-2.436-1.422s-1.8-1.08-2.412-1.462c-.307-.19-.553-.347-.722-.458A1.216,1.216,0,0,1,645.663,317.5Z" transform="translate(-645.662 -317.498)"/></g><g transform="translate(5.388 44.421)"><path class="a" d="M641.714,348.238a2.031,2.031,0,0,1,.363.176l.96.529c.807.453,1.916,1.088,3.136,1.8s2.321,1.361,3.114,1.838l.934.573a1.983,1.983,0,0,1,.332.229,1.954,1.954,0,0,1-.363-.175l-.96-.529c-.807-.453-1.916-1.088-3.137-1.8s-2.32-1.36-3.113-1.838l-.934-.573A1.948,1.948,0,0,1,641.714,348.238Z" transform="translate(-641.713 -348.237)"/></g><g transform="translate(14.049 43.409)"><path class="a" d="M666.958,351.26a2.229,2.229,0,0,1,.359-.24l1-.61c.846-.515,2.012-1.231,3.277-2.057s2.394-1.6,3.207-2.166l.964-.669a2.283,2.283,0,0,1,.364-.231,2.258,2.258,0,0,1-.328.28c-.218.173-.536.416-.935.711-.8.59-1.917,1.381-3.186,2.207s-2.445,1.529-3.307,2.021c-.431.245-.783.439-1.028.567A2.3,2.3,0,0,1,666.958,351.26Z" transform="translate(-666.957 -345.286)"/></g><g transform="translate(8.839 56.498)"><path class="a" d="M663.179,383.437H651.772L655.5,411.62h3.961Z" transform="translate(-651.772 -383.437)"/><g transform="translate(0.591 2.302)"><path class="d" d="M653.5,391.31s.013.04.061.1a.725.725,0,0,0,.275.2,1.381,1.381,0,0,0,1.2-.148,9.163,9.163,0,0,1,1.479-.974,3.237,3.237,0,0,1,2.1.042,8.988,8.988,0,0,1,1.953.946,13.545,13.545,0,0,0,1.588.852,4.375,4.375,0,0,0,1.172.339,2.108,2.108,0,0,0,.331.023c.076,0,.115,0,.116-.01a5.956,5.956,0,0,1-1.564-.472,15.536,15.536,0,0,1-1.554-.879,8.672,8.672,0,0,0-1.986-.977,3.346,3.346,0,0,0-2.214-.024,2.908,2.908,0,0,0-.833.515,6.523,6.523,0,0,1-.653.506,1.34,1.34,0,0,1-1.111.193A1.139,1.139,0,0,1,653.5,391.31Z" transform="translate(-653.495 -390.148)"/></g><g transform="translate(1.007 6.586)"><path class="d" d="M654.709,404.7c.015.009.09-.116.269-.3a2.539,2.539,0,0,1,.911-.578,4.066,4.066,0,0,1,1.586-.239,16.633,16.633,0,0,1,1.985.27,6.824,6.824,0,0,0,2.032.084,5.6,5.6,0,0,0,1.6-.456,5.08,5.08,0,0,0,.962-.572,1.354,1.354,0,0,0,.3-.274,10.186,10.186,0,0,1-1.319.725,5.853,5.853,0,0,1-1.567.407,7,7,0,0,1-1.983-.1,14.934,14.934,0,0,0-2.009-.258,4.021,4.021,0,0,0-1.641.288,2.4,2.4,0,0,0-.915.651,1.625,1.625,0,0,0-.173.253C654.718,404.666,654.7,404.7,654.709,404.7Z" transform="translate(-654.708 -402.634)"/></g><g transform="translate(1.654 10.647)"><path class="d" d="M665.054,415.257a.961.961,0,0,0-.315-.163,3.365,3.365,0,0,0-.945-.2,6.043,6.043,0,0,0-1.429.082c-.532.086-1.1.233-1.7.36a7.156,7.156,0,0,1-1.7.192,3.7,3.7,0,0,1-1.349-.292,3.111,3.111,0,0,1-1.023-.761.881.881,0,0,0,.193.3,2.415,2.415,0,0,0,.775.583,3.63,3.63,0,0,0,1.4.344,6.852,6.852,0,0,0,1.745-.181c.606-.129,1.171-.28,1.692-.373a6.552,6.552,0,0,1,1.393-.119A5.238,5.238,0,0,1,665.054,415.257Z" transform="translate(-656.593 -414.47)"/></g><g transform="translate(2.016 14.68)"><path class="d" d="M657.648,426.886a1.848,1.848,0,0,1,1.107-.112,5.361,5.361,0,0,1,1.159.432,4.388,4.388,0,0,0,1.5.415,4.514,4.514,0,0,0,2.729-.632,3.877,3.877,0,0,0,.679-.522c.139-.148.21-.233.2-.242a9.944,9.944,0,0,1-.946.65,4.678,4.678,0,0,1-2.646.561c-1.08-.062-1.909-.706-2.658-.791a1.7,1.7,0,0,0-.86.075A.566.566,0,0,0,657.648,426.886Z" transform="translate(-657.647 -426.223)"/></g><g transform="translate(2.651 19.176)"><path class="d" d="M659.5,440.9a2.188,2.188,0,0,0,.951-.189c.573-.191,1.283-.631,2.112-.961a3.445,3.445,0,0,1,1.212-.254,2.238,2.238,0,0,1,.975.223,2.162,2.162,0,0,1,.7.608.52.52,0,0,0-.109-.241,1.561,1.561,0,0,0-.534-.484,2.237,2.237,0,0,0-1.034-.278,3.392,3.392,0,0,0-1.281.251c-.859.342-1.546.795-2.094,1.012C659.862,440.827,659.5,440.875,659.5,440.9Z" transform="translate(-659.5 -439.329)"/></g><g transform="translate(3.211 23.262)"><path class="d" d="M661.131,451.243a2.653,2.653,0,0,0,.722.235,13.266,13.266,0,0,0,3.636.357,2.665,2.665,0,0,0,.754-.089c0-.056-1.156-.007-2.566-.149S661.145,451.189,661.131,451.243Z" transform="translate(-661.131 -451.236)"/></g></g></g><g transform="translate(0 6.888)"><g transform="translate(35.487 5.472)"><g transform="translate(0 0)"><g transform="translate(0)"><rect class="a" width="2.949" height="14.673" transform="translate(0 0.016) rotate(-0.307)"/></g></g></g><g transform="translate(9.884 5.469)"><g transform="translate(0.056 0.041)"><g transform="translate(0 0)"><g transform="translate(0)"><rect class="c" width="7.637" height="8.101" transform="matrix(1, -0.005, 0.005, 1, 0, 0.041)"/></g></g></g><g transform="translate(7.656 0)"><g transform="translate(0)"><rect class="d" width="7.637" height="8.101" transform="translate(0 0.041) rotate(-0.307)"/></g></g><g transform="translate(0 2.076)"><path class="a" d="M84.586,77.279q7.613.063,15.237-.07a.081.081,0,0,0,0-.162c-5.075-.028-10.162,0-15.237.093a.07.07,0,0,0,0,.139Z" transform="translate(-84.519 -77.036)"/></g></g><g transform="translate(5.121 13.402)"><g transform="translate(0.058 0.074)"><g transform="translate(0 0)"><g transform="translate(0)"><rect class="c" width="13.874" height="6.602" transform="translate(0 0.074) rotate(-0.307)"/></g></g></g><g transform="translate(13.866 0)"><g transform="translate(0)"><g transform="translate(0)"><rect class="d" width="13.874" height="6.601" transform="translate(0 0.074) rotate(-0.307)"/></g></g></g><g transform="translate(0 1.66)"><path class="a" d="M70.7,99.269c9.217.1,18.466.011,27.683-.137a.081.081,0,0,0,0-.162c-9.218-.049-18.467-.043-27.683.16a.07.07,0,0,0,0,.139Z" transform="translate(-70.635 -98.944)"/></g></g><g transform="translate(0 20.151)"><rect class="a" width="53.753" height="2.365"/><g transform="translate(8.801 1.137)"><rect class="a" width="2.182" height="8.07"/></g><g transform="translate(41.375 1.137)"><rect class="a" width="2.182" height="8.07"/></g></g><g transform="translate(38.365 0)"><g transform="translate(0)"><g transform="translate(0)"><rect class="c" width="2.949" height="20.181" transform="matrix(1, -0.005, 0.005, 1, 0, 0.016)"/></g></g></g><g transform="translate(41.308 3.757)"><g transform="translate(0.031 0)"><g transform="translate(0)"><g transform="translate(0)"><rect class="d" width="4.582" height="16.355" transform="translate(0 0.025) rotate(-0.307)"/></g></g></g><g transform="translate(0 3.071)"><path class="a" d="M180.689,75.026a33.011,33.011,0,0,1-4.582,0,33.153,33.153,0,0,1,4.582,0Z" transform="translate(-176.107 -74.947)"/></g><g transform="translate(0 2.384)"><path class="a" d="M180.689,73.024a33.16,33.16,0,0,1-4.582,0,33.007,33.007,0,0,1,4.582,0Z" transform="translate(-176.107 -72.944)"/></g><g transform="translate(0 13.814)"><path class="a" d="M180.689,106.338a33.014,33.014,0,0,1-4.582,0,33.153,33.153,0,0,1,4.582,0Z" transform="translate(-176.107 -106.259)"/></g><g transform="translate(0 13.127)"><path class="a" d="M180.689,104.336a33.15,33.15,0,0,1-4.582,0,33.014,33.014,0,0,1,4.582,0Z" transform="translate(-176.107 -104.256)"/></g><g transform="translate(2.285 4.338)"><path class="a" d="M182.848,86.007c-.044,0-.08-1.65-.08-3.685s.036-3.685.08-3.685.079,1.65.079,3.685S182.892,86.007,182.848,86.007Z" transform="translate(-182.768 -78.637)"/></g></g><g transform="translate(45.94 7.773)"><rect class="c" width="4.988" height="12.344"/></g><g transform="translate(38.948 2.598)"><circle class="a" cx="0.848" cy="0.848" r="0.848"/></g><g transform="translate(39.534 5.777)"><rect class="a" width="0.524" height="12.005"/></g></g><g transform="translate(79.755 36.447)"><g transform="translate(1.415 0.007)"><rect class="a" width="20.805" height="21.687"/></g><rect class="b" width="20.805" height="21.687" transform="translate(0.006 0.007)"/><path class="a" d="M78.127,201.944H57.309v-21.7H78.127Zm-20.8-.013H78.114V180.257H57.322Z" transform="translate(-57.309 -180.244)"/><g transform="translate(2.803 2.922)"><rect class="b" width="15.211" height="15.857"/></g><g transform="translate(0.027 18.883)"><path class="a" d="M60.163,235.282a2.487,2.487,0,0,1-.375.436c-.243.256-.584.6-.967.98s-.735.713-.994.951a2.448,2.448,0,0,1-.44.366,2.414,2.414,0,0,1,.373-.435c.243-.256.585-.6.969-.982s.736-.714,1-.953A2.379,2.379,0,0,1,60.163,235.282Z" transform="translate(-57.387 -235.281)"/></g><g transform="translate(18.014 18.845)"><path class="a" d="M109.813,235.17a2.486,2.486,0,0,1,.436.375c.256.243.6.584.98.967s.713.734.951.994a2.428,2.428,0,0,1,.366.44,2.414,2.414,0,0,1-.435-.373c-.256-.243-.6-.585-.982-.969s-.714-.736-.953-1A2.37,2.37,0,0,1,109.813,235.17Z" transform="translate(-109.812 -235.169)"/></g><g transform="translate(17.972 0.229)"><path class="a" d="M109.693,183.648a2.473,2.473,0,0,1,.375-.436c.243-.257.584-.6.967-.98s.734-.713.994-.951a2.424,2.424,0,0,1,.44-.366,2.441,2.441,0,0,1-.373.435c-.243.256-.585.6-.969.982s-.736.715-1,.953A2.4,2.4,0,0,1,109.693,183.648Z" transform="translate(-109.692 -180.913)"/></g><g transform="translate(0.027 0.227)"><path class="a" d="M60.121,183.681a2.471,2.471,0,0,1-.436-.375c-.257-.243-.6-.584-.98-.967s-.713-.735-.951-.994a2.41,2.41,0,0,1-.366-.44,2.441,2.441,0,0,1,.435.373c.256.243.6.585.982.969s.715.736.953,1A2.389,2.389,0,0,1,60.121,183.681Z" transform="translate(-57.386 -180.905)"/></g><g transform="translate(2.736 2.855)"><path class="a" d="M80.52,204.488a.613.613,0,0,1,0-.077c0-.054,0-.127,0-.221,0-.2,0-.485-.007-.856,0-.751-.009-1.844-.015-3.232-.007-2.777-.018-6.733-.03-11.47l.058.059-15.168.009h0l.067-.067c0,5.82-.007,11.264-.009,15.856l-.058-.058,10.984.029,3.085.015.816.007.211,0a.663.663,0,0,1,.074,0,.517.517,0,0,1-.067,0l-.2,0-.805.007-3.072.015-11.021.029h-.058v-.058c0-4.592-.006-10.037-.009-15.856v-.068h.069l15.168.009h.059v.059c-.012,4.753-.023,8.722-.03,11.508-.007,1.382-.012,2.47-.015,3.218q0,.55-.007.845c0,.092,0,.162,0,.215A.569.569,0,0,1,80.52,204.488Z" transform="translate(-65.283 -188.564)"/></g><g transform="translate(7.871 8.312)"><rect class="c" width="5.076" height="5.076"/></g></g><g transform="translate(200.189)"><rect class="d" width="11.153" height="23.874" transform="translate(0 22.061)"/><rect class="d" width="13.705" height="23.068" transform="translate(11.616 47.604)"/><path class="d" d="M487,56.619h13.014V35.44h.463V56.619h12.044V34.97H487Z" transform="translate(-460.006 -34.97)"/><rect class="d" width="11.153" height="23.068" transform="translate(0 47.604)"/><rect class="d" width="12.044" height="23.068" transform="translate(40.465 47.604)"/><rect class="d" width="13.705" height="23.874" transform="translate(11.616 22.061)"/><rect class="d" width="12.044" height="23.874" transform="translate(40.465 22.061)"/><rect class="d" width="11.153" height="20.787" transform="translate(0 71.084)"/><path class="d" d="M419.485,56.619V35.44h.463V56.619h13.7V34.97H408.332V56.619Z" transform="translate(-408.332 -34.97)"/><rect class="d" width="13.705" height="20.787" transform="translate(11.616 71.084)"/><rect class="d" width="12.044" height="20.787" transform="translate(40.465 71.084)"/><rect class="d" width="13.014" height="23.874" transform="translate(26.989 22.061)"/><rect class="d" width="13.014" height="20.787" transform="translate(26.989 71.084)"/><rect class="d" width="13.014" height="23.068" transform="translate(26.989 47.604)"/></g><g transform="translate(145.834)"><rect class="d" width="11.153" height="23.874" transform="translate(0 22.061)"/><rect class="d" width="13.705" height="23.068" transform="translate(11.616 47.604)"/><path class="d" d="M328.569,56.619h13.014V35.44h.463V56.619H354.09V34.97H328.569Z" transform="translate(-301.58 -34.97)"/><rect class="d" width="11.153" height="23.068" transform="translate(0 47.604)"/><rect class="d" width="12.044" height="23.068" transform="translate(40.465 47.604)"/><rect class="d" width="13.705" height="23.874" transform="translate(11.616 22.061)"/><rect class="d" width="12.044" height="23.874" transform="translate(40.465 22.061)"/><rect class="d" width="11.153" height="20.787" transform="translate(0 71.084)"/><path class="d" d="M261.059,56.619V35.44h.463V56.619h13.7V34.97H249.906V56.619Z" transform="translate(-249.906 -34.97)"/><rect class="d" width="13.705" height="20.787" transform="translate(11.616 71.084)"/><rect class="d" width="12.044" height="20.787" transform="translate(40.465 71.084)"/><rect class="d" width="13.014" height="23.874" transform="translate(26.989 22.061)"/><rect class="d" width="13.014" height="20.787" transform="translate(26.989 71.084)"/><rect class="d" width="13.014" height="23.068" transform="translate(26.989 47.604)"/></g></g><g transform="translate(-35.359 182.528)"><g transform="translate(0)"><path class="e" d="M272.815,465.968c0,.049-51.492.089-115,.089-63.526,0-115.007-.04-115.007-.089s51.481-.089,115.007-.089C221.323,465.879,272.815,465.919,272.815,465.968Z" transform="translate(-42.813 -465.879)"/></g></g><g transform="translate(57.611 73.331)"><g transform="translate(13.972 42.689)"><g transform="translate(0 27.824)"><path class="f" d="M604.739,397.315V420.7h2.773l1.032-23.45Z" transform="translate(-554.799 -382.112)"/><path class="f" d="M471.861,397.249l1.323,23.45h2.627l.03-23.384Z" transform="translate(-467.511 -382.112)"/><rect class="g" width="51.943" height="16.925" rx="6.543"/></g><path class="g" d="M563.213,292.288c.621-4.683,1.128-9.728-1.123-13.882a12.956,12.956,0,0,0-12.384-6.321,16.116,16.116,0,0,0-11.921,7.713,21.451,21.451,0,0,0-2.668,14.18" transform="translate(-508.909 -272.033)"/><g transform="translate(4.129 38.698)"><path class="e" d="M497.662,384.914c0,.049-5.92.089-13.222.089s-13.223-.04-13.223-.089,5.919-.089,13.223-.089S497.662,384.865,497.662,384.914Z" transform="translate(-471.217 -384.825)"/></g><g transform="translate(25.635 38.688)"><path class="b" d="M539.027,384.8c.012.015-1.125.965-2.541,2.121s-2.574,2.081-2.586,2.066,1.125-.965,2.541-2.121S539.014,384.781,539.027,384.8Z" transform="translate(-533.9 -384.796)"/></g><g transform="translate(9.865 33.226)"><path class="b" d="M503.782,368.875c.012.016-3.527,2.535-7.9,5.626s-7.932,5.585-7.944,5.568,3.526-2.535,7.9-5.627S503.77,368.859,503.782,368.875Z" transform="translate(-487.937 -368.875)"/></g><g transform="translate(3.247 32.968)"><path class="b" d="M479.063,368.123c.012.016-2.311,1.713-5.186,3.79s-5.217,3.748-5.229,3.732,2.31-1.713,5.187-3.79S479.051,368.107,479.063,368.123Z" transform="translate(-468.648 -368.123)"/></g><g transform="translate(2.926 29.323)"><path class="b" d="M473.066,357.5a.244.244,0,0,1-.055.037l-.164.1-.6.347c-.509.3-1.2.721-1.943,1.23s-1.386,1-1.844,1.373l-.541.44-.148.119a.24.24,0,0,1-.055.038s.014-.019.045-.049l.139-.129c.121-.112.3-.269.527-.458.451-.379,1.094-.883,1.836-1.393s1.442-.929,1.958-1.215c.258-.143.469-.255.617-.328l.171-.083A.221.221,0,0,1,473.066,357.5Z" transform="translate(-467.711 -357.5)"/></g></g><g transform="translate(56.616 50.672)"><path class="b" d="M594.827,295.3s-.034.034-.1.093l-.307.256c-.267.222-.658.537-1.147.919-.977.765-2.353,1.79-3.923,2.849s-3.037,1.951-4.113,2.569c-.538.309-.977.554-1.282.718l-.352.188c-.081.042-.125.061-.125.061s.039-.028.118-.074l.346-.2,1.27-.738c1.069-.63,2.529-1.527,4.1-2.585s2.948-2.075,3.932-2.83l1.16-.9.315-.246C594.787,295.327,594.827,295.3,594.827,295.3Z" transform="translate(-583.475 -295.301)"/></g><g transform="translate(59.838 45.361)"><path class="e" d="M592.867,279.821a.535.535,0,0,1,.144.07,4.4,4.4,0,0,1,.393.239,7.218,7.218,0,0,1,1.285,1.1,10.46,10.46,0,0,1,2.461,4.961,19.773,19.773,0,0,1,.242,5.562c-.057.711-.122,1.284-.173,1.679-.025.18-.046.33-.064.454a.541.541,0,0,1-.034.157,4.186,4.186,0,0,1,.029-.618c.03-.4.075-.971.116-1.68a21.246,21.246,0,0,0-.29-5.517,10.733,10.733,0,0,0-2.38-4.913A10.358,10.358,0,0,0,592.867,279.821Z" transform="translate(-592.866 -279.82)"/></g><g transform="translate(59.352 45.941)"><path class="b" d="M596.98,281.512a.272.272,0,0,1-.048.047l-.147.124c-.128.107-.318.257-.555.438-.474.363-1.143.845-1.908,1.339s-1.482.9-2.008,1.186c-.263.141-.478.251-.628.325l-.173.083a.229.229,0,0,1-.063.024.262.262,0,0,1,.056-.037l.167-.095.616-.344c.519-.293,1.229-.71,1.993-1.2s1.436-.968,1.917-1.32l.568-.419.155-.113A.226.226,0,0,1,596.98,281.512Z" transform="translate(-591.45 -281.511)"/></g><g transform="translate(0 56.242)"><g transform="translate(0 39.588)"><g transform="translate(0.007)"><path class="h" d="M426.742,426.981l.344,8.494s-8.518,3.2-8.607,4.779l16.493-.077.006-13.257Z" transform="translate(-418.48 -426.921)"/></g><g class="i" transform="translate(12.908 7.789)"><path class="j" d="M456.884,449.65a.673.673,0,0,1,.469.766.647.647,0,0,1-.756.472.71.71,0,0,1-.493-.814.672.672,0,0,1,.84-.4" transform="translate(-456.081 -449.622)"/></g><g class="i" transform="translate(0 11.92)"><path class="j" d="M434.96,463l-.052-1.336-15.794.573s-.733.323-.647.84Z" transform="translate(-418.46 -461.664)"/></g><g transform="translate(8.346 8.396)"><path class="e" d="M442.785,451.468c0,.08.406.115.8.372s.61.595.684.562c.074-.016-.048-.5-.535-.8S442.767,451.394,442.785,451.468Z" transform="translate(-442.785 -451.392)"/></g><g transform="translate(6.619 9.162)"><path class="e" d="M437.752,453.658c-.018.078.331.214.607.553s.356.7.436.7c.075.012.129-.459-.221-.875S437.753,453.581,437.752,453.658Z" transform="translate(-437.751 -453.625)"/></g><g transform="translate(4.996 9.883)"><path class="e" d="M433.671,457.114c.073.017.184-.386-.025-.826s-.586-.614-.62-.547.2.3.366.666S433.591,457.106,433.671,457.114Z" transform="translate(-433.02 -455.727)"/></g><g transform="translate(8.48 6.234)"><path class="e" d="M443.177,445.384c.034.073.4-.039.858-.011s.811.171.852.1-.3-.355-.838-.381S443.138,445.321,443.177,445.384Z" transform="translate(-443.175 -445.091)"/></g><g class="k" transform="translate(8.34 1.743)"><path d="M442.766,432l.059,1.514,8.106-.111,0-1.364Z" transform="translate(-442.766 -432)"/></g><g transform="translate(8.444 3.474)"><path class="e" d="M443.072,438.384a1.547,1.547,0,0,0,.826-.008,3.706,3.706,0,0,0,.863-.269,3.894,3.894,0,0,0,.473-.254,1.011,1.011,0,0,0,.248-.2.351.351,0,0,0,.035-.429.443.443,0,0,0-.354-.183,1.075,1.075,0,0,0-.309.044,2.954,2.954,0,0,0-.513.179,2.917,2.917,0,0,0-.76.5c-.381.356-.51.658-.482.673s.222-.227.61-.521a3.3,3.3,0,0,1,.735-.419,3.088,3.088,0,0,1,.473-.149c.175-.047.323-.049.368.029.016.03.019.042-.018.093a.818.818,0,0,1-.182.143,4.4,4.4,0,0,1-.435.251,4.591,4.591,0,0,1-.8.31A5.762,5.762,0,0,0,443.072,438.384Z" transform="translate(-443.072 -437.046)"/></g><g transform="translate(7.458 2.309)"><path class="e" d="M441.289,436.27a1.315,1.315,0,0,0,.214-.8,2.675,2.675,0,0,0-.33-1.4.683.683,0,0,0-.529-.415.387.387,0,0,0-.344.232,1.13,1.13,0,0,0-.083.3,1.842,1.842,0,0,0,0,.557,1.9,1.9,0,0,0,.357.852c.324.426.661.52.667.493.027-.041-.255-.195-.5-.6a1.909,1.909,0,0,1-.265-.775,1.712,1.712,0,0,1,.013-.478c.025-.175.09-.317.156-.3.082,0,.222.13.29.269a2.735,2.735,0,0,1,.207.447,2.962,2.962,0,0,1,.164.823C441.33,435.956,441.245,436.258,441.289,436.27Z" transform="translate(-440.197 -433.652)"/></g></g><path class="f" d="M459.439,314.622l-19.057-3.006a6.62,6.62,0,0,0-5.261,1.445h0a6.622,6.622,0,0,0-2.388,5.35l1.354,34.686h11.756V326.16l11.286.207,8.953-7.875,6.454-1.146,4.814-2.932Z" transform="translate(-428.862 -311.535)"/><g transform="translate(18.006 7.816)"><path class="l" d="M470.946,334.316a.309.309,0,0,1,.012.086c0,.068.01.152.017.255.015.225.027.557.039.983.027.854.05,2.089.071,3.616.043,3.054.074,7.272.083,11.931s-.01,8.88-.051,11.934c-.021,1.527-.045,2.762-.08,3.616-.014.427-.03.758-.053.983-.009.1-.017.187-.023.255a.31.31,0,0,1-.014.086.322.322,0,0,1,0-.088l.006-.256c.011-.224.015-.555.019-.982.013-.853.018-2.089.023-3.615,0-3.067,0-7.279,0-11.933C470.966,342.019,470.948,335.287,470.946,334.316Z" transform="translate(-470.942 -334.316)"/></g></g><g transform="translate(34.914 94.811)"><g transform="translate(0.058)"><path class="h" d="M520.906,428.151l4.576,7.164s-5.745,7.057-5.029,8.464l14.21-8.373-6.671-11.455Z" transform="translate(-520.391 -423.95)"/></g><g class="i" transform="translate(8.71 8.14)"><path class="j" d="M546.079,447.695a.674.674,0,0,1,.792.426.648.648,0,0,1-.415.788.711.711,0,0,1-.836-.455.672.672,0,0,1,.523-.772" transform="translate(-545.609 -447.674)"/></g><g class="i" transform="translate(0 10.327)"><path class="j" d="M534.551,455.178l-.717-1.128-13.356,8.45s-.47.648-.137,1.052Z" transform="translate(-520.222 -454.05)"/></g><g transform="translate(4.871 11.064)"><path class="e" d="M534.423,456.562c.043.068.409-.105.881-.083s.827.207.874.141-.292-.405-.865-.422S534.371,456.507,534.423,456.562Z" transform="translate(-534.418 -456.198)"/></g><g transform="translate(3.746 12.756)"><path class="e" d="M531.143,461.3c.024.077.394.017.8.172s.659.425.727.381c.072-.027-.12-.462-.631-.645S531.105,461.23,531.143,461.3Z" transform="translate(-531.14 -461.13)"/></g><g transform="translate(2.704 14.289)"><path class="e" d="M529.352,466.513c.072-.022-.036-.426-.438-.7s-.816-.235-.811-.16.325.16.652.391S529.279,466.547,529.352,466.513Z" transform="translate(-528.103 -465.596)"/></g><g transform="translate(4.001 8.822)"><path class="e" d="M531.9,450.522c.067.046.328-.237.736-.442s.786-.261.787-.341-.438-.155-.916.092S531.831,450.487,531.9,450.522Z" transform="translate(-531.885 -449.664)"/></g><g class="k" transform="translate(1.481 1.537)"><path d="M524.538,432.512l.814,1.278,6.946-4.179-.684-1.181Z" transform="translate(-524.538 -428.43)"/></g><g transform="translate(3.116 5.95)"><path class="e" d="M529.305,443.559c.016.029.316-.09.71-.423a3.7,3.7,0,0,0,.61-.667,3.861,3.861,0,0,0,.281-.458,1.01,1.01,0,0,0,.116-.294.351.351,0,0,0-.186-.388.442.442,0,0,0-.4.021,1.071,1.071,0,0,0-.245.194,2.911,2.911,0,0,0-.755,1.23,1.379,1.379,0,0,0-.078.824c.045,0,.077-.307.264-.757a3.31,3.31,0,0,1,.424-.732,3.109,3.109,0,0,1,.334-.366c.127-.128.255-.2.333-.161.029.017.037.026.032.089a.84.84,0,0,1-.086.215,4.345,4.345,0,0,1-.249.436,4.576,4.576,0,0,1-.532.669C529.539,443.345,529.282,443.522,529.305,443.559Z" transform="translate(-529.304 -441.291)"/></g><g transform="translate(1.208 6.273)"><path class="e" d="M525.8,444.225a1.315,1.315,0,0,0-.218-.8,2.681,2.681,0,0,0-.556-.722,2.717,2.717,0,0,0-.436-.325.683.683,0,0,0-.666-.092.386.386,0,0,0-.18.374,1.125,1.125,0,0,0,.081.3,1.838,1.838,0,0,0,.282.48,1.9,1.9,0,0,0,.737.556,1.064,1.064,0,0,0,.825.09,6.709,6.709,0,0,1-.739-.269,1.9,1.9,0,0,1-.619-.536,1.716,1.716,0,0,1-.229-.419c-.067-.164-.082-.319-.016-.337a.474.474,0,0,1,.386.086,2.735,2.735,0,0,1,.4.282,2.961,2.961,0,0,1,.556.629C525.679,443.933,525.758,444.237,525.8,444.225Z" transform="translate(-523.744 -442.234)"/></g></g><g transform="translate(1.515 28.746)"><path class="m" d="M430.455,242.084l-5.517-2.81c-1.437-.621-1.986-.979-1.852-1.24.178-.349.094-.223,2.867.535,0,0-3.948-1.117-2.9-1.547a4.446,4.446,0,0,1,1.511.165c-1-.341-1.38-.688-1.319-.95.1-.451,2.467.1,3.565.382a22.261,22.261,0,0,1-2.992-.95c-.492-.306.172-.528.773-.557.675-.032,4.619.343,5.763.392a.675.675,0,0,0,.782-.665,4.261,4.261,0,0,1,.823-3.346c.367-.293.892.113.749.612a6.211,6.211,0,0,0-.075,1.681,3.977,3.977,0,0,0,.294,1.309c.2.482.389.883.558,1.219l4.511,4.483-3.625,4.592Z" transform="translate(-422.874 -231.395)"/><g transform="translate(0.759 6.586)"><path class="n" d="M428.854,251.737a14.866,14.866,0,0,1-3.768-1.132,14.857,14.857,0,0,1,3.768,1.132Z" transform="translate(-425.086 -250.591)"/></g><g transform="translate(1.164 5.589)"><path class="n" d="M430.356,248.666a16.919,16.919,0,0,1-4.087-.963,16.92,16.92,0,0,1,4.087.963Z" transform="translate(-426.268 -247.686)"/></g><g transform="translate(1.934 4.692)"><path class="n" d="M432.391,245.949a15.164,15.164,0,0,1-3.879-.86,15.163,15.163,0,0,1,3.879.86Z" transform="translate(-428.511 -245.07)"/></g></g><g transform="translate(32.152)"><path class="e" d="M513.51,148.921c1.4-.429,2.867.827,4.308.545a8.544,8.544,0,0,0,2.314-1.305,4.493,4.493,0,0,1,4-.152,3.192,3.192,0,0,1,2.117,2.572c1.082-.621,2.887.741,3.5,2.055a5.932,5.932,0,0,1,.112,4.081,19.147,19.147,0,0,1-3.166,6.739c-.131.178-.341.375-.541.281a.481.481,0,0,1-.208-.388,16.016,16.016,0,0,1,.068-3.9,9.7,9.7,0,0,0-.244-3.878,3.786,3.786,0,0,0-2.659-2.621,4.135,4.135,0,0,0-2.767.593c-.84.471-1.579,1.1-2.379,1.64a5.32,5.32,0,0,1-2.661,1.031,2.523,2.523,0,0,1-2.405-1.284,1.679,1.679,0,0,1,.992-2.31,1.894,1.894,0,0,1-.38-3.7Z" transform="translate(-512.17 -147.609)"/><g transform="translate(2.215 1.848)"><path class="m" d="M532.078,160.651l-1.4,14.561c-.237,2.476-2.834,6.148-5.3,5.789h0c-2.3-.336-3.591-4.315-3.366-6.626.106-1.1.192-2.01.2-2.124a4.435,4.435,0,0,1-3.589-4.4c.04-1.785.423-5.456.808-8.773A6.883,6.883,0,0,1,526.516,153l.356.013C530.706,153.372,532.544,156.828,532.078,160.651Z" transform="translate(-518.626 -152.995)"/><g transform="translate(3.545 18.004)"><path class="n" d="M529,206.669a8.593,8.593,0,0,0,4.862-1.2s-1.231,2.617-4.9,2.156Z" transform="translate(-528.957 -205.47)"/></g></g><g transform="translate(14.999 12.138)"><path class="m" d="M556.157,183.077c.064-.025,2.564-.661,2.395,1.861a1.9,1.9,0,0,1-2.666,1.759C555.886,186.624,556.157,183.077,556.157,183.077Z" transform="translate(-555.886 -182.988)"/><g transform="translate(0.832 0.841)"><path class="n" d="M558.313,187.4c.012-.007.042.034.114.073a.439.439,0,0,0,.328.029,1.089,1.089,0,0,0,.568-.941,1.456,1.456,0,0,0-.081-.637.509.509,0,0,0-.308-.359.224.224,0,0,0-.267.1c-.039.068-.026.12-.04.123s-.051-.046-.024-.149a.284.284,0,0,1,.11-.152.333.333,0,0,1,.247-.048.619.619,0,0,1,.433.422,1.5,1.5,0,0,1,.105.713,1.143,1.143,0,0,1-.714,1.046.47.47,0,0,1-.4-.094C558.313,187.465,558.3,187.407,558.313,187.4Z" transform="translate(-558.31 -185.439)"/></g></g><g transform="translate(2.27 1.222)"><path class="e" d="M518.785,157.088a5.336,5.336,0,0,0,4.776-.9c.925-.73,1.656-1.8,2.794-2.108a3,3,0,0,1,2.283.394,5.8,5.8,0,0,1,1.683,1.659c-.779,1.852-.373,3.963.044,5.929a1,1,0,0,0,.273.593.8.8,0,0,0,1.014-.187,3.12,3.12,0,0,0,.743-1.622,10.387,10.387,0,0,0,.119-4.1,7.075,7.075,0,0,0-1.818-3.637,6.7,6.7,0,0,0-4.636-1.94,8.231,8.231,0,0,0-4.831,1.538,4.822,4.822,0,0,0-1.613,1.732" transform="translate(-518.785 -151.17)"/></g><g transform="translate(11.083 12.419)"><path class="n" d="M544.52,183.942a.069.069,0,0,0,.031-.133.069.069,0,0,0-.031.133Z" transform="translate(-544.472 -183.808)"/></g><g transform="translate(10.009 12.116)"><path class="n" d="M541.388,183.077a.081.081,0,1,0-.043-.091A.072.072,0,0,0,541.388,183.077Z" transform="translate(-541.342 -182.923)"/></g><g transform="translate(9.277 12.024)"><path class="n" d="M539.258,182.857c.034.005.069-.035.078-.091s-.011-.106-.045-.111-.069.035-.078.091S539.223,182.852,539.258,182.857Z" transform="translate(-539.21 -182.655)"/></g><g transform="translate(10.512 13.136)"><path class="n" d="M542.869,185.976c.034,0,.063-.016.064-.038s-.027-.041-.061-.042-.063.016-.064.038S542.835,185.975,542.869,185.976Z" transform="translate(-542.808 -185.896)"/></g><g transform="translate(9.533 12.809)"><path class="n" d="M540.008,185.084a.072.072,0,1,0-.054-.078A.067.067,0,0,0,540.008,185.084Z" transform="translate(-539.954 -184.943)"/></g><g transform="translate(4.387 12.012)"><path class="n" d="M525,182.76a.071.071,0,1,0-.045-.083A.067.067,0,0,0,525,182.76Z" transform="translate(-524.955 -182.621)"/></g><g transform="translate(3.644 11.901)"><path class="n" d="M522.845,182.453a.081.081,0,1,0-.051-.086A.072.072,0,0,0,522.845,182.453Z" transform="translate(-522.792 -182.296)"/></g><g transform="translate(5.036 12.083)"><path class="n" d="M526.9,182.937a.055.055,0,1,0-.048-.068A.06.06,0,0,0,526.9,182.937Z" transform="translate(-526.847 -182.828)"/></g><g transform="translate(4.479 12.776)"><path class="n" d="M525.257,184.984a.073.073,0,1,0-.025-.093A.068.068,0,0,0,525.257,184.984Z" transform="translate(-525.224 -184.848)"/></g><g transform="translate(3.811 12.659)"><path class="n" d="M523.351,184.612a.053.053,0,1,0-.073-.037A.059.059,0,0,0,523.351,184.612Z" transform="translate(-523.277 -184.507)"/></g></g><g transform="translate(19.283 61.263)"><path class="f" d="M500.19,326.673c-.307.028-19.89,2.347-22.965,4.072-1.7.953-1.549,2.622-1.813,3.333-1.036,2.784-.152,5.607,1.292,8.2l14.359,25.035,9.105-6.124-9.15-19.983,14.01-1.375a7.623,7.623,0,0,0,6.388-5.94l1.666-7.726Z" transform="translate(-474.859 -326.169)"/><g transform="translate(13.78 9.77)"><path class="l" d="M526.357,379.9c-.045.021-2.662-5.617-5.845-12.59s-5.728-12.644-5.683-12.665,2.662,5.615,5.846,12.591S526.4,379.879,526.357,379.9Z" transform="translate(-514.828 -354.645)"/></g><g transform="translate(0 1.703)"><path class="l" d="M500,331.136a.35.35,0,0,1-.091.015l-.268.026-1.03.087-3.79.305c-3.2.263-7.623.6-12.5,1.064-.61.058-1.211.124-1.8.191-.292.043-.593.068-.871.124a4.407,4.407,0,0,0-.824.242,6.166,6.166,0,0,0-2.669,1.849,6.287,6.287,0,0,0-.813,1.291,5.95,5.95,0,0,0-.414,1.379,9.179,9.179,0,0,0-.06,2.6,15.7,15.7,0,0,0,.925,3.665c.162.418.305.735.406.948l.116.242a.383.383,0,0,1,.035.085.355.355,0,0,1-.051-.077c-.03-.052-.077-.13-.132-.235-.111-.209-.266-.523-.438-.938a15,15,0,0,1-.985-3.675,9.189,9.189,0,0,1,.039-2.637,6.047,6.047,0,0,1,.417-1.418,6.4,6.4,0,0,1,.829-1.331,6.311,6.311,0,0,1,2.735-1.908,4.575,4.575,0,0,1,.849-.251c.3-.061.588-.084.886-.128.594-.068,1.2-.134,1.806-.192,4.878-.466,9.3-.781,12.506-1.011l3.794-.249,1.033-.053.269-.008A.356.356,0,0,1,500,331.136Z" transform="translate(-474.663 -331.132)"/></g></g><g transform="translate(9.243 22.499)"><path class="h" d="M490.386,239.678l.739-23.6-7.425-1.586-.805-1.307L477.9,216.4l-1,2.254-1.214-2.575-1.8-1.365-.828,1.6-5.594,2.3a2.33,2.33,0,0,0-1.2,1.111l-6.282,12.536-11.138-7.716-3.449,6.073L458.292,241.6a5.335,5.335,0,0,0,7.234-1.426l3.306-4.7,1.387,7.908.227,8.016,9.708,1.81,13.6-1.263Z" transform="translate(-445.399 -213.185)"/><g class="k" transform="translate(34.263 33.743)"><path d="M545.262,317.7a20.1,20.1,0,0,0,13.455-3.46l-.742-2.7Z" transform="translate(-545.262 -311.535)"/></g><path class="h" d="M541.545,221.619s-4.625,1.419-4.985,6.1-.537,18.1-.537,18.1-.721.54-.54,1.081-13.33,8.106-13.33,8.106l2.7,4.708a58.757,58.757,0,0,0,18.258-6.084c4.934-2.585,2.992-22.837,2.9-23.107S544.71,221.607,541.545,221.619Z" transform="translate(-495.819 -218.725)"/><g transform="translate(21.839 10.251)"><path class="e" d="M512.033,263.013a.925.925,0,0,1-.053-.2l-.118-.576-.4-2.125c-.164-.906-.359-1.974-.573-3.156l-.331-1.865c-.086-.651-.176-1.325-.268-2.015-.353-2.754-.673-5.245-.909-7.077-.105-.889-.192-1.616-.255-2.147-.025-.238-.045-.432-.06-.585a.1.1,0,1,1,.036,0c.025.152.056.344.094.581.077.529.183,1.254.311,2.139.248,1.83.586,4.318.96,7.068l.265,2.015.321,1.866c.2,1.184.382,2.254.535,3.161l.346,2.134.085.582A.877.877,0,0,1,512.033,263.013Z" transform="translate(-509.051 -243.062)"/></g><g transform="translate(26.252 2.893)"><path class="e" d="M524.7,259.717a.417.417,0,0,1-.053-.077l-.143-.234-.543-.916-2.012-3.452-.033-.057.062-.024a32.347,32.347,0,0,0,6-3.268c2.222-1.44,4.618-3.221,7.431-4.712l-.036.123a1.186,1.186,0,0,1,.869-1.7l-.08.076.143-1.088a56.61,56.61,0,0,0,.372-9.4c-.059-1.446-.2-2.815-.281-4.1a18.038,18.038,0,0,1,.073-3.593,8.92,8.92,0,0,1,.866-2.834,6.677,6.677,0,0,1,1.321-1.806,5.114,5.114,0,0,1,1.143-.832c.141-.079.259-.121.333-.156a.653.653,0,0,1,.117-.046,5.91,5.91,0,0,0-1.545,1.085,6.716,6.716,0,0,0-1.28,1.8,8.892,8.892,0,0,0-.83,2.806,18.1,18.1,0,0,0-.05,3.566c.087,1.284.234,2.656.3,4.107a55.771,55.771,0,0,1-.359,9.43l-.144,1.091-.009.069-.071.007a1.013,1.013,0,0,0-.734,1.431l.048.079-.084.044c-2.8,1.477-5.2,3.252-7.428,4.685a31.737,31.737,0,0,1-6.047,3.242l.029-.08,1.967,3.478.518.931.13.242A.449.449,0,0,1,524.7,259.717Z" transform="translate(-521.914 -221.618)"/></g><g transform="translate(39.721 28.149)"><path class="e" d="M563.631,297.756a4.561,4.561,0,0,0-2.46-2.52,1.176,1.176,0,0,1,.527.14,3.431,3.431,0,0,1,1.806,1.85A1.179,1.179,0,0,1,563.631,297.756Z" transform="translate(-561.171 -295.23)"/></g><g transform="translate(40.484 26.839)"><path class="e" d="M565.779,294.076a5.437,5.437,0,0,0-2.384-2.66,3.561,3.561,0,0,1,2.384,2.66Z" transform="translate(-563.394 -291.412)"/></g><g transform="translate(29.336 34.908)"><path class="e" d="M548.863,314.929a.781.781,0,0,1-.167.1l-.5.245c-.434.208-1.066.5-1.853.848-1.573.7-3.768,1.616-6.24,2.507a51.752,51.752,0,0,1-6.444,1.932c-.845.166-1.53.3-2.012.34l-.552.057a.812.812,0,0,1-.193.008.8.8,0,0,1,.189-.044l.546-.09c.476-.059,1.155-.213,1.993-.395a59.81,59.81,0,0,0,6.411-1.977c2.467-.889,4.666-1.789,6.25-2.455l1.875-.8.511-.214A.794.794,0,0,1,548.863,314.929Z" transform="translate(-530.904 -314.928)"/></g><g transform="translate(27.659 2.939)"><path class="e" d="M528.3,221.752c.009.012-.041.062-.1.173a3.29,3.29,0,0,0-.2.506,9.546,9.546,0,0,0-.364,1.777l-.027.259-.137-.219-.038-.062c-.389-.634-.68-1.23-.955-1.62s-.48-.606-.459-.626a1.932,1.932,0,0,1,.561.552,17.894,17.894,0,0,1,1,1.6l.038.06-.164.04a7.293,7.293,0,0,1,.425-1.8,2.236,2.236,0,0,1,.26-.5C528.223,221.78,528.294,221.744,528.3,221.752Z" transform="translate(-526.014 -221.751)"/></g><g transform="translate(32.501 2.028)"><path class="e" d="M545.183,219.1c.017.025-.4.3-1.017.808a13.712,13.712,0,0,0-2.156,2.248,13.419,13.419,0,0,0-.8,1.184l-.093.155-.059-.17c-.288-.827-.529-1.538-.693-2.044a4.888,4.888,0,0,1-.234-.814,4.935,4.935,0,0,1,.332.779c.192.5.455,1.2.754,2.023l-.152-.015a12.031,12.031,0,0,1,.8-1.206,11.9,11.9,0,0,1,2.219-2.239,9.365,9.365,0,0,1,.785-.546A1.332,1.332,0,0,1,545.183,219.1Z" transform="translate(-540.128 -219.097)"/></g><g transform="translate(31.207 6.519)"><path class="e" d="M537.64,253.447a1.035,1.035,0,0,1-.038-.214c-.02-.16-.044-.364-.075-.617-.062-.536-.142-1.312-.232-2.271-.182-1.919-.4-4.575-.574-7.511s-.278-5.6-.326-7.527c-.024-.964-.038-1.744-.04-2.283,0-.254,0-.46,0-.621a.109.109,0,1,1,.036,0l.033.62c.024.561.057,1.335.1,2.28.081,1.925.2,4.585.378,7.521s.372,5.589.521,7.511c.073.944.133,1.716.176,2.276.017.254.031.459.042.62A.991.991,0,0,1,537.64,253.447Z" transform="translate(-536.355 -232.187)"/></g><g transform="translate(29.653 21.948)"><path class="e" d="M541.5,277.155a2.652,2.652,0,0,1-.309.393c-.206.246-.517.593-.91,1.012a39.414,39.414,0,0,1-6.859,5.779c-.48.317-.874.564-1.152.725a2.715,2.715,0,0,1-.44.238,2.654,2.654,0,0,1,.4-.3l1.118-.771c.939-.657,2.212-1.6,3.55-2.727s2.482-2.222,3.289-3.036l.949-.971A2.691,2.691,0,0,1,541.5,277.155Z" transform="translate(-531.826 -277.155)"/></g><g transform="translate(31.292 28.968)"><path class="e" d="M536.665,302.006a26.991,26.991,0,0,1,.07-4.389,26.989,26.989,0,0,1-.07,4.389Z" transform="translate(-536.604 -297.617)"/></g><g class="k" transform="translate(20.732 15.166)"><path d="M508.425,264.7a54.529,54.529,0,0,0-.92-7.315,73.272,73.272,0,0,1-1.679,10.965Z" transform="translate(-505.826 -257.388)"/></g><g class="k" transform="translate(31.502 1.914)"><path d="M537.215,222.319c.349-.288.763-.054.971.347a2.969,2.969,0,0,1,.186,1.33,1.643,1.643,0,0,0,.14.728.665.665,0,0,0,.593.386c.293-.016.506-.276.678-.514q2.044-2.825,3.822-5.832c-1.91.74-3.195,2.555-4.431,4.478-.051.019-1-3.078-1-3.078-.263.668-.694,1.486-.958,2.154" transform="translate(-537.215 -218.765)"/></g><g class="k" transform="translate(27.561 2.91)"><path d="M525.728,221.961a18.884,18.884,0,0,0,2.793,4.51,11.986,11.986,0,0,0-.245-3.323c.349.241,1.044.836,1.393,1.077,0,0-.758-1.636-1.069-2.23-.083-.158-.208-.337-.387-.328-.206.01-.3.251-.356.45l-.5,1.948a5.38,5.38,0,0,0-1.535-2.215" transform="translate(-525.728 -221.666)"/></g><g class="k" transform="translate(29.954 22.423)"><path d="M532.742,285.955a3.03,3.03,0,0,1,1.137-2.844c.665-.5,1.517-.71,2.181-1.215,1.147-.872,1.587-2.52,2.862-3.191.477-.25,1.2-.255,1.418.238.2.44-.156.919-.49,1.266a35.075,35.075,0,0,1-7.113,5.68" transform="translate(-532.705 -278.539)"/></g><g class="k" transform="translate(39.862 28.139)"><path d="M561.583,295.41a3.453,3.453,0,0,1,1.008,2.386,3.628,3.628,0,0,0,.035.782.719.719,0,0,0,.485.564.688.688,0,0,0,.748-.6,1.831,1.831,0,0,0-.217-1.033,4.152,4.152,0,0,0-1.965-2.311" transform="translate(-561.583 -295.199)"/></g><g class="o" transform="translate(14.4 18.845)"><path d="M487.448,268.264a5.511,5.511,0,0,1,.9,3.067,8.859,8.859,0,0,0-.179,1.859c.014.153-.245.206-.124.3.2.157.519-.007.61-.245a1.235,1.235,0,0,0-.039-.75.526.526,0,0,0,.651.485.848.848,0,0,0,.576-.685,2.39,2.39,0,0,0-.065-.937,6.355,6.355,0,0,0-.7-2.037,2.431,2.431,0,0,0-1.7-1.212" transform="translate(-487.371 -268.11)"/></g><g transform="translate(14.508 18.924)"><path class="e" d="M488.333,273.5a8.694,8.694,0,0,0-.645-5.157,2.4,2.4,0,0,1,.39.68,6.561,6.561,0,0,1,.466,3.721A2.394,2.394,0,0,1,488.333,273.5Z" transform="translate(-487.685 -268.342)"/></g></g><g transform="translate(44.409 59.181)"><path class="g" d="M548.834,348.358c-1.435-6.421,1.017-17.449,5.59-22.181a20.342,20.342,0,0,1,18.053-5.749v28.245Z" transform="translate(-548.244 -320.102)"/><g transform="translate(4.007 16.35)"><path class="b" d="M579.7,367.756c.01.017-4.486,2.7-10.042,5.984s-10.069,5.94-10.079,5.923,4.486-2.7,10.043-5.984S579.688,367.739,579.7,367.756Z" transform="translate(-559.576 -367.756)"/></g><g transform="translate(0.325 6.737)"><path class="b" d="M572.647,339.739s-.08.054-.236.152l-.685.423-2.528,1.54c-2.137,1.3-5.1,3.077-8.377,5.021s-6.266,3.685-8.439,4.92c-1.088.616-1.968,1.113-2.583,1.446l-.707.385c-.162.088-.249.13-.249.13s.082-.051.242-.142l.7-.4,2.571-1.466c2.167-1.246,5.146-2.992,8.428-4.937l8.387-5,2.54-1.521.692-.411C572.562,339.785,572.647,339.739,572.647,339.739Z" transform="translate(-548.843 -339.739)"/></g><g transform="translate(4.007 0.492)"><path class="b" d="M576.649,321.537s-.057.037-.169.1l-.492.276-1.818,1c-1.539.836-3.675,1.971-6.041,3.213l-8.554,4.524s.057-.037.169-.1l.492-.276,1.818-1c1.539-.836,3.676-1.971,6.041-3.213Z" transform="translate(-559.576 -321.537)"/></g><g transform="translate(0 0.232)"><path class="e" d="M571.542,321.062a.537.537,0,0,1-.11,0l-.322-.029c-.283-.02-.7-.085-1.234-.11a22.8,22.8,0,0,0-4.543.162c-.237.035-.483.06-.73.106l-.755.152c-.517.088-1.037.257-1.584.4a19.271,19.271,0,0,0-3.337,1.344,17.023,17.023,0,0,0-6.181,5.337,23.077,23.077,0,0,0-2.115,3.71,26.266,26.266,0,0,0-1.393,3.73,31.172,31.172,0,0,0-.816,3.513c-.173,1.117-.3,2.163-.355,3.124a28.366,28.366,0,0,0,.063,4.551c.034.538.115.949.141,1.231l.037.321a.52.52,0,0,1,.007.11.491.491,0,0,1-.025-.107c-.014-.081-.032-.186-.055-.318-.038-.281-.13-.692-.175-1.23a26.679,26.679,0,0,1-.119-4.566c.046-.965.168-2.017.335-3.14a30.768,30.768,0,0,1,.8-3.535,26.132,26.132,0,0,1,1.392-3.757,23.039,23.039,0,0,1,2.129-3.74,17.069,17.069,0,0,1,6.251-5.38,19.167,19.167,0,0,1,3.371-1.339c.551-.138,1.076-.3,1.6-.389l.761-.148c.249-.044.5-.067.735-.1a21.754,21.754,0,0,1,4.565-.106c.539.035.952.113,1.234.144l.32.046A.483.483,0,0,1,571.542,321.062Z" transform="translate(-547.897 -320.777)"/></g></g><path class="m" d="M503.306,319.073a11.12,11.12,0,0,1-2.275-.3,7.8,7.8,0,0,0-2.752-.348c-.64.1-2.281.746-3.325,1.044s-1.889.05-1.938.547.5,1.115,1.541,1.115c0,0-1.143.376-.945.625s.547.845,1.044.845a1.058,1.058,0,0,0,.895.994s.3.746,1.74,1.094c0,0-.111.646.988.845s7.264-2.585,7.264-2.585Z" transform="translate(-467.434 -259.803)"/></g><g transform="translate(-72.946 76.391)"><g transform="translate(0.949)"><g transform="translate(0 20.679)"><path class="f" d="M161.613,217.152c-.831-.8-2.251-.1-2.948.817s-1.191,2.109-2.25,2.573-2.435.065-3.324.8c-1.225,1.018-.537,3.376-1.862,4.261a17.029,17.029,0,0,1-1.781.629c-1.324.683-1.309,2.551-1.1,4.027a14.321,14.321,0,0,0,1.745,5.97c1.143,1.751,3.368,2.983,5.347,2.308,1.9-.649,2.878-2.7,3.652-4.556l3.211-7.7a17.946,17.946,0,0,0,1.446-4.587,6.048,6.048,0,0,0-1.085-4.567" transform="translate(-148.242 -216.799)"/></g><g transform="translate(10.834)"><path class="f" d="M180.1,162.409a2.143,2.143,0,0,1,1.552-1.817,11.779,11.779,0,0,0,2.375-.9,11.349,11.349,0,0,0,1.572-1.612,5.232,5.232,0,0,1,8.8,2.4,3.432,3.432,0,0,1-.857,3.445c-1.107.933-2.748.726-4.166.436s-3.024-.577-4.208.256a6.069,6.069,0,0,0-1.56,2.076,3.7,3.7,0,0,1-1.81,1.812c-.825.284-1.946-.207-1.979-1.079" transform="translate(-179.818 -156.529)"/></g><g transform="translate(8.329 2.549)"><path class="e" d="M175.362,167.756a2.376,2.376,0,0,1-.935,1.853,3.264,3.264,0,0,0-1.183,1.748c-.106.832.5,1.652.326,2.472a6.032,6.032,0,0,1-.762,1.394,2.963,2.963,0,0,0-.151,2.183,9.684,9.684,0,0,0,1.047,2.876,11.511,11.511,0,0,0,5.589,3.334,21.642,21.642,0,0,0,6.172.339c1.689-.1,3.632-.026,5.04-2.351a17.539,17.539,0,0,0,1.478-4.158,6.437,6.437,0,0,0,.275-3.574c-.2-.677-.609-1.278-.808-1.955a15.4,15.4,0,0,1-.258-2.628,6.028,6.028,0,0,0-8.577-4.76" transform="translate(-172.518 -163.96)"/></g><g transform="translate(11.644 3.253)"><g transform="translate(1.553 0.862)"><path class="m" d="M199.7,173.674c-.158-2.425-1.771-5.4-4.187-5.135l-7.541,1.924a1.422,1.422,0,0,0-1.269,1.445l.848,18.192-.052.011s1.719,5.131,6.7,3.564a2.906,2.906,0,0,0,1.636-2.5l.051.007c0-.132,0-.255.005-.381a11.906,11.906,0,0,0,.03-2.5h0c.014-1.469.012-2.071.013-2.057s3.1-.521,3.73-4.565A43.167,43.167,0,0,0,199.7,173.674Z" transform="translate(-186.706 -168.522)"/></g><path class="e" d="M182.179,182.11a3.589,3.589,0,0,0,4.27-3.969c-.126-.993-.661-2-.317-2.942.455-1.242,2.2-1.625,2.659-2.864.269-.721.027-1.563.332-2.269a2.7,2.7,0,0,1,1.665-1.292,6.945,6.945,0,0,0,1.98-.859,1.556,1.556,0,0,0,.559-1.9,38.294,38.294,0,0,0-8.833,2.146,3.406,3.406,0,0,0-1.743,1.129,3.567,3.567,0,0,0-.358,2.166q.254,5.444.508,10.888" transform="translate(-182.179 -166.01)"/></g></g><g transform="translate(5.962 23.753)"><path class="p" d="M247.356,271.245l5.955-11.335-2.921-3.138L242.874,264l2.108,5.8Z" transform="translate(-215.419 -246.132)"/><path class="p" d="M216.06,235.518h0a10.114,10.114,0,0,1,3.979,2.658,9.707,9.707,0,0,1,1.654,2.474l7.68,16.335,6.615,2.683-5.824,1.678-5.188-3.8Z" transform="translate(-197.805 -232.17)"/><path class="b" d="M210,254.936l-2.787,2.148-13.9-14.3-7.947-14.355.919-2.67,6.144,2.559,1.774,2.236.916-3.111.395.559.641,1.739s6.033,5.02,7.335,9c1.087,3.322.746,10.185,1.408,12.05Z" transform="translate(-177.638 -225.76)"/><path class="p" d="M169.087,230.308c-.093.279-5.942,2.629-6.222,4.677s4.2,17.885,4.2,17.885l7.106,6.278h18.249l-5.789-10.838a27.52,27.52,0,0,0-4.684-6.366c-1.713-1.736-3.786-3.883-4.853-5.165-1.157-1.39-6.06-7.876-6.06-7.876Z" transform="translate(-162.852 -227.824)"/><g transform="translate(9.895 2.835)"><path class="e" d="M191.695,234.321a7.093,7.093,0,0,1,1.034.464c.628.307,1.49.742,2.438,1.232l1.075.561-.124.081a7.791,7.791,0,0,1,.116-1.912,2.646,2.646,0,0,1,.2-.723,6.936,6.936,0,0,1-.1.74,9.34,9.34,0,0,0-.051,1.884l.012.15-.135-.069-1.079-.553c-.947-.49-1.8-.943-2.414-1.279A7.089,7.089,0,0,1,191.695,234.321Z" transform="translate(-191.694 -234.024)"/></g><g transform="translate(16.653 2.572)"><path class="e" d="M213.077,234.673a2.409,2.409,0,0,1-.353.555l-.073.1-.037-.126c-.116-.391-.266-.936-.42-1.541l-.035-.138.165.02c-.549,1.036-.884,1.9-.931,1.887a7.174,7.174,0,0,1,.773-1.97l.108-.206.058.225.035.137c.154.606.284,1.156.368,1.555l-.11-.023A2.442,2.442,0,0,1,213.077,234.673Z" transform="translate(-211.389 -233.257)"/></g><g transform="translate(16.834 5.622)"><path class="e" d="M219.046,254.1a3.2,3.2,0,0,1-.292-.464l-.745-1.292c-.626-1.093-1.495-2.6-2.479-4.25s-1.9-3.131-2.56-4.2l-.783-1.269a3.232,3.232,0,0,1-.269-.477,3.152,3.152,0,0,1,.328.44c.2.289.486.712.831,1.239.691,1.054,1.621,2.526,2.607,4.178s1.837,3.17,2.435,4.279c.3.554.537,1.006.7,1.321A3.221,3.221,0,0,1,219.046,254.1Z" transform="translate(-211.918 -242.145)"/></g><g class="k" transform="translate(20.757 21.288)"><path d="M223.745,295.135a9.094,9.094,0,0,0,3.2.159,3.084,3.084,0,0,0,2.424-1.89,2,2,0,0,1,.4-.914c.408-.377,1.058-.145,1.611-.2a2.026,2.026,0,0,0,1.469-1.029,6,6,0,0,0,.614-1.748,2.672,2.672,0,0,0,.108-.908.9.9,0,0,0-.474-.739c-.418-.189-.889.085-1.261.354a95.041,95.041,0,0,0-8.485,7.182" transform="translate(-223.351 -287.807)"/></g></g><g transform="translate(68.062 74.189)"><g transform="translate(0)"><path class="f" d="M350.115,372.764l5.3,6.644s8.534-3.159,9.634-2.027l-12.512,10.745-8.688-10.013Z" transform="translate(-343.851 -372.764)"/><g class="i" transform="translate(7.127 9.156)"><path class="j" d="M364.729,399.718a.674.674,0,0,0,.148.887.648.648,0,0,0,.88-.139.71.71,0,0,0-.161-.938.672.672,0,0,0-.9.246" transform="translate(-364.624 -399.449)"/></g><g class="i" transform="translate(7.852 4.344)"><path class="j" d="M367.572,396.443l-.836-1.043,12.31-9.912s.765-.236,1.039.21Z" transform="translate(-366.736 -385.425)"/></g><g transform="translate(11.021 6.395)"><path class="e" d="M376.668,391.413c.05.063-.231.353-.363.808s-.071.849-.149.873-.289-.407-.119-.955S376.633,391.346,376.668,391.413Z" transform="translate(-375.974 -391.402)"/></g><g transform="translate(13.117 5.815)"><path class="e" d="M382.458,389.72c.065.047-.11.378-.1.815s.189.761.126.811-.4-.263-.407-.806S382.407,389.663,382.458,389.72Z" transform="translate(-382.081 -389.713)"/></g><g transform="translate(15.017 5.291)"><path class="e" d="M388.19,389.646c-.044.061-.391-.172-.522-.641s.041-.848.11-.819.046.359.16.743S388.245,389.588,388.19,389.646Z" transform="translate(-387.619 -388.185)"/></g><g transform="translate(9.079 4.997)"><path class="e" d="M371.572,387.357c.022.078-.331.234-.656.554s-.5.66-.578.635,0-.465.383-.837S371.561,387.283,371.572,387.357Z" transform="translate(-370.313 -387.328)"/></g></g><g class="k" transform="translate(1.165 1.317)"><path d="M353.393,376.6l.947,1.183-6.2,5.225-.9-1.028Z" transform="translate(-347.245 -376.603)"/></g><g transform="translate(6.636 3.576)"><path class="e" d="M365.8,383.315c.022.025-.187.27-.63.535a3.7,3.7,0,0,1-.829.362,3.9,3.9,0,0,1-.524.118,1.023,1.023,0,0,1-.316.015.351.351,0,0,1-.307-.3.441.441,0,0,1,.148-.37,1.075,1.075,0,0,1,.263-.169,2.947,2.947,0,0,1,.5-.2,2.9,2.9,0,0,1,.9-.117,1.377,1.377,0,0,1,.805.192c-.01.044-.316-.026-.8.006a3.293,3.293,0,0,0-.829.165,3.048,3.048,0,0,0-.455.2c-.163.079-.276.175-.259.263.007.033.013.043.074.058a.83.83,0,0,0,.232-.012,4.277,4.277,0,0,0,.494-.1,4.621,4.621,0,0,0,.805-.288A5.7,5.7,0,0,1,365.8,383.315Z" transform="translate(-363.193 -383.186)"/></g><g transform="translate(7.853 1.374)"><path class="e" d="M368.125,379.256c-.013.028-.323-.087-.685-.464a2.674,2.674,0,0,1-.5-.759,2.705,2.705,0,0,1-.167-.518.683.683,0,0,1,.128-.659.386.386,0,0,1,.412-.05,1.119,1.119,0,0,1,.261.174,1.835,1.835,0,0,1,.363.422,1.9,1.9,0,0,1,.288.877,1.065,1.065,0,0,1-.181.81,6.777,6.777,0,0,0-.015-.786,1.9,1.9,0,0,0-.308-.759,1.707,1.707,0,0,0-.322-.352c-.134-.116-.276-.18-.314-.124a.471.471,0,0,0-.043.394,2.745,2.745,0,0,0,.136.473,2.973,2.973,0,0,0,.416.73C367.889,379.045,368.151,379.217,368.125,379.256Z" transform="translate(-366.739 -376.768)"/></g></g><g transform="translate(60.289 93.137)"><g transform="translate(0)"><path class="f" d="M329.434,428.028l-.322,8.495s8.526,3.18,8.62,4.756l-16.493-.033L321.2,427.99Z" transform="translate(-321.197 -427.99)"/><g class="i" transform="translate(2.335 7.781)"><path class="j" d="M328.484,450.7a.674.674,0,0,0-.467.767.648.648,0,0,0,.757.47.71.71,0,0,0,.491-.816.672.672,0,0,0-.842-.4" transform="translate(-328.003 -450.668)"/></g><g class="i" transform="translate(0.042 11.92)"><path class="j" d="M321.318,464.069l.048-1.336,15.8.531s.734.321.65.838Z" transform="translate(-321.318 -462.733)"/></g><g transform="translate(6.678 8.375)"><path class="e" d="M342.164,452.474c0,.081-.406.116-.8.374s-.608.6-.682.564c-.074-.016.047-.5.533-.8S342.182,452.4,342.164,452.474Z" transform="translate(-340.66 -452.4)"/></g><g transform="translate(8.816 9.136)"><path class="e" d="M347.987,454.65c.018.078-.331.214-.6.554s-.354.7-.434.7c-.075.012-.13-.459.219-.876S347.985,454.573,347.987,454.65Z" transform="translate(-346.891 -454.617)"/></g><g transform="translate(10.793 9.852)"><path class="e" d="M352.752,458.095c-.073.017-.185-.385.023-.826s.585-.615.619-.548-.2.3-.364.667S352.832,458.087,352.752,458.095Z" transform="translate(-352.655 -456.706)"/></g><g transform="translate(6.326 6.215)"><path class="e" d="M341.351,446.394c-.034.073-.4-.038-.858-.009s-.81.173-.852.1.3-.355.837-.384S341.39,446.331,341.351,446.394Z" transform="translate(-339.636 -446.103)"/></g></g><g class="k" transform="translate(0.002 1.721)"><path d="M329.373,433.006l-.055,1.514-8.106-.09-.008-1.364Z" transform="translate(-321.204 -433.006)"/></g><g transform="translate(5.568 3.458)"><path class="e" d="M339.932,439.4a1.55,1.55,0,0,1-.826-.006,3.7,3.7,0,0,1-.864-.267,3.839,3.839,0,0,1-.474-.253,1.02,1.02,0,0,1-.249-.195.351.351,0,0,1-.036-.428.443.443,0,0,1,.353-.183,1.076,1.076,0,0,1,.309.043,2.956,2.956,0,0,1,.513.177,2.9,2.9,0,0,1,.761.5c.382.355.512.656.484.672s-.222-.226-.611-.519a3.273,3.273,0,0,0-.736-.417,3.068,3.068,0,0,0-.474-.147c-.175-.046-.323-.048-.368.03-.016.03-.019.041.018.092a.826.826,0,0,0,.183.142,4.309,4.309,0,0,0,.436.25,4.555,4.555,0,0,0,.8.308A5.717,5.717,0,0,1,339.932,439.4Z" transform="translate(-337.426 -438.069)"/></g><g transform="translate(7.75 2.287)"><path class="e" d="M344,437.274a1.315,1.315,0,0,1-.216-.8,2.672,2.672,0,0,1,.326-1.405.682.682,0,0,1,.528-.416.386.386,0,0,1,.344.231,1.108,1.108,0,0,1,.084.3,1.842,1.842,0,0,1,0,.556,1.9,1.9,0,0,1-.354.853c-.323.427-.659.523-.666.5-.027-.04.255-.2.5-.606a1.9,1.9,0,0,0,.263-.776,1.7,1.7,0,0,0-.014-.477c-.025-.175-.091-.317-.156-.3-.082,0-.222.13-.29.27a2.736,2.736,0,0,0-.206.447,2.968,2.968,0,0,0-.162.824C343.963,436.96,344.049,437.262,344,437.274Z" transform="translate(-343.785 -434.654)"/></g></g><g transform="translate(34.636 22.617)"><path class="j" d="M253.563,244.379l8.82-20.371s-5.116,6.406-7.793,6.346c0,0-2.956,6.524-4.862,11.693l-2.9,7.495Z" transform="translate(-246.689 -223.473)"/><path class="e" d="M253.3,243.354a.9.9,0,0,1-.111.1l-.341.272-1.326,1.036-4.923,3.808-.174.134.079-.206,3.32-8.657c1.253-3.271,2.756-6.828,4.421-10.545l.023-.052h.06a3.256,3.256,0,0,0,1.5-.459,16.547,16.547,0,0,0,3.425-2.75,41.244,41.244,0,0,0,2.8-3.1l.394-.482-.248.57-6.359,14.605-1.856,4.225-.5,1.124-.132.288a.539.539,0,0,1-.049.094.621.621,0,0,1,.037-.1l.12-.3.479-1.141,1.813-4.25,6.292-14.613.145.088a41.109,41.109,0,0,1-2.812,3.119,16.652,16.652,0,0,1-3.465,2.782,3.418,3.418,0,0,1-1.584.48l.083-.052c-1.663,3.713-3.172,7.267-4.432,10.53s-2.4,6.19-3.357,8.643l-.095-.071,4.948-3.756,1.349-1.013.354-.261C253.258,243.381,253.3,243.354,253.3,243.354Z" transform="translate(-246.428 -222.448)"/></g><path class="e" d="M164.472,416.254l2.646,17.315h2.627l-1.293-17.25Z" transform="translate(-157.954 -327.144)"/><path class="e" d="M300.26,416.32v17.25h2.772l1.032-17.315Z" transform="translate(-247.154 -327.144)"/><g transform="translate(5.589 28.418)"><path class="m" d="M239.195,260.676s1.119-2.568,1.715-2.924,4.244-2.02,4.244-2.02l-.375.819,3.633-2.168a2.272,2.272,0,0,1,.061.282,1.661,1.661,0,0,1-.341,1.245c-.566.775-.378.7-.378.7s.614.369.306.917a12.358,12.358,0,0,1-.828,1.219,1.6,1.6,0,0,1,.336,1.336,2.793,2.793,0,0,1,.082,1.347,7.371,7.371,0,0,1-1.547,2.27l-7.057,3.361-2.846-4.83Z" transform="translate(-210.661 -249.228)"/><path class="p" d="M174.734,246.705l4.232,9.037,9.387-4.078s3.9,2.273,3.357,4.756l-8.457,6.947a7.574,7.574,0,0,1-5.728,1.665h0a7.574,7.574,0,0,1-5.409-3.359l-6.122-9.316-3.423-5.595a5.224,5.224,0,0,1,.143-5.79,4.243,4.243,0,0,1,1.209-1.135C165.451,238.908,169.992,238.5,174.734,246.705Z" transform="translate(-161.766 -239.358)"/><g transform="translate(26.472 5.021)"><path class="m" d="M242.569,266.045a.42.42,0,0,1,.091-.056l.274-.145,1.058-.537,3.868-1.923-.02.014a10.99,10.99,0,0,0,1.2-1.529,1.914,1.914,0,0,0,.346-.951,2.737,2.737,0,0,0-.111-1.059l-.01-.031.01-.026a1.428,1.428,0,0,0-.324-1.254l-.041-.054.04-.052c.245-.323.488-.664.708-1.022a.743.743,0,0,0,.176-.536.754.754,0,0,0-.341-.451l.077.007a.111.111,0,0,1-.136-.047.139.139,0,0,1-.012-.085.379.379,0,0,1,.023-.078,1.3,1.3,0,0,1,.059-.118c.042-.073.086-.143.132-.212.089-.137.2-.274.28-.4a1.65,1.65,0,0,0,.264-.91,1.474,1.474,0,0,0-.066-.427l.129.045-3.634,2.165-.236.141.115-.25.376-.818.111.111c-1.557.716-3,1.358-4.21,1.984a2.355,2.355,0,0,0-.612.725c-.166.267-.315.53-.448.785-.269.509-.493.979-.681,1.392l-.007.015-.014.007-1.538.775-.4.2a.077.077,0,1,1-.011-.022l.392-.218,1.518-.813-.021.022c.182-.419.4-.893.663-1.409.131-.258.277-.526.444-.8a4.668,4.668,0,0,1,.274-.408,1.364,1.364,0,0,1,.377-.368c1.221-.647,2.651-1.293,4.209-2.018l.2-.1-.094.206-.373.819-.121-.109,3.63-2.171.1-.057.034.1a1.61,1.61,0,0,1,.078.488,1.822,1.822,0,0,1-.292,1.007c-.1.15-.194.272-.282.409-.045.067-.087.134-.126.2-.018.034-.036.067-.049.1-.005.015-.01.029-.012.036s0,0,0,0a.13.13,0,0,0-.028,0c-.023,0-.024,0-.037.008s0,0,0,0a.022.022,0,0,0,0-.01h0c.013.049-.018-.067-.015-.055l-.006,0,.077.007a.922.922,0,0,1,.422.57.672.672,0,0,1-.038.366,2.416,2.416,0,0,1-.162.294c-.227.366-.472.707-.722,1.035v-.106a2.11,2.11,0,0,1,.349.678,1.221,1.221,0,0,1,0,.74V259.8a2.867,2.867,0,0,1,.116,1.132,1.651,1.651,0,0,1-.123.544,3.189,3.189,0,0,1-.252.474,10.981,10.981,0,0,1-1.234,1.544l-.009.009-.011.005-3.895,1.868-1.075.5-.283.127A.387.387,0,0,1,242.569,266.045Z" transform="translate(-238.923 -253.993)"/></g><g transform="translate(31.316 7.176)"><path class="q" d="M256.083,260.278a17.867,17.867,0,0,1-3.042,1.877,17.962,17.962,0,0,1,3.042-1.877Z" transform="translate(-253.041 -260.275)"/></g><g transform="translate(34.424 7.09)"><path class="q" d="M264.861,260.024a20.993,20.993,0,0,1-2.76,2.717,21.038,21.038,0,0,1,2.76-2.717Z" transform="translate(-262.1 -260.022)"/></g><g transform="translate(35.433 9.266)"><path class="q" d="M266.415,266.367a6.311,6.311,0,0,1-1.372,1.611,6.308,6.308,0,0,1,1.372-1.611Z" transform="translate(-265.039 -266.365)"/></g><g transform="translate(36.198 10.732)"><path class="q" d="M268.008,270.64c.038.033-.118.271-.317.556s-.369.513-.413.489.061-.3.267-.591S267.972,270.608,268.008,270.64Z" transform="translate(-267.269 -270.637)"/></g><g transform="translate(6.091 1.145)"><path class="p" d="M193.471,266.456s.013-.015.043-.042l.135-.113.532-.429,2.029-1.607,7.237-5.674-.03.059a3.608,3.608,0,0,0-.266-1.383,5.758,5.758,0,0,0-.779-1.273,9.928,9.928,0,0,0-2.4-2.063l.079,0-4.86,2.114-4.526,1.965-.076.033-.037-.073c-1.246-2.451-2.395-4.758-3.562-6.761-.578-1-1.153-1.936-1.694-2.8s-1.036-1.671-1.54-2.364a8.749,8.749,0,0,0-2.924-2.712c-.2-.12-.391-.211-.554-.29s-.3-.144-.415-.192l-.257-.113a.407.407,0,0,1-.085-.044,7.913,7.913,0,0,1,1.341.586,7.714,7.714,0,0,1,1.433.979,10.078,10.078,0,0,1,1.553,1.719c.514.693,1.016,1.5,1.562,2.359s1.128,1.793,1.712,2.8c1.18,2,2.337,4.311,3.586,6.758l-.113-.04,4.525-1.968,4.862-2.11.042-.019.037.023a10.052,10.052,0,0,1,2.443,2.108,5.9,5.9,0,0,1,.8,1.315,3.767,3.767,0,0,1,.273,1.452v.036l-.03.023-7.276,5.624-2.056,1.573-.547.41-.142.1A.209.209,0,0,1,193.471,266.456Z" transform="translate(-179.518 -242.696)"/></g><g transform="translate(16.625 16.191)"><path class="p" d="M210.226,289.583c-.049-.021.21-.666.358-1.5s.137-1.53.19-1.532a4.637,4.637,0,0,1-.549,3.034Z" transform="translate(-210.22 -286.549)"/></g></g><g transform="translate(27.814 48.567)"><path class="p" d="M322.079,317.058l15.481,20.574-7.241,6.22-7.455-9.748Z" transform="translate(-289.301 -310.548)"/><path class="p" d="M226.544,305.578s24.906-7.587,27.188-7.492,6.612,8.333,6.612,8.333l-6.992-.253-8.841,13.5-14.3-.666Z" transform="translate(-226.544 -298.085)"/><g transform="translate(8.873 1.496)"><path class="e" d="M263.892,302.447c.014.047-2.546.85-5.717,1.792s-5.755,1.669-5.769,1.621,2.545-.85,5.718-1.793S263.878,302.4,263.892,302.447Z" transform="translate(-252.406 -302.445)"/></g><path class="p" d="M286.232,321.253h6.993a8.224,8.224,0,0,1,7.758,5.494h0a12.7,12.7,0,0,1,.706,4.83l-.544,28.447h-9.414l-.169-9.091-1.19-17.284-8.149.344-4.618-.287Z" transform="translate(-260.085 -313.304)"/><g transform="translate(17.518 7.807)"><path class="e" d="M286.439,320.839a4,4,0,0,1-.132.6,15.934,15.934,0,0,1-.494,1.6,16.346,16.346,0,0,1-1.039,2.266,18.446,18.446,0,0,1-1.7,2.533,45.47,45.47,0,0,1-3.8,4.02l-1.208,1.161a4.132,4.132,0,0,1-.458.411,4.016,4.016,0,0,1,.409-.46c.271-.289.671-.7,1.168-1.2.987-1.011,2.4-2.368,3.752-4.042A18.347,18.347,0,0,0,285.694,323c.248-.659.438-1.2.546-1.579A4.081,4.081,0,0,1,286.439,320.839Z" transform="translate(-277.602 -320.839)"/></g><g transform="translate(26.242 7.842)"><path class="e" d="M311.7,321.241c0,.027-.488-.018-1.271-.061s-1.866-.077-3.062-.052-2.279.094-3.062.147a10.353,10.353,0,0,1-1.271.065,1.292,1.292,0,0,1,.336-.071c.218-.035.533-.076.924-.12.782-.085,1.867-.177,3.069-.2a26.624,26.624,0,0,1,3.075.1c.392.037.708.079.926.114A1.257,1.257,0,0,1,311.7,321.241Z" transform="translate(-303.03 -320.942)"/></g><g transform="translate(30.132 18.186)"><path class="e" d="M315.84,374.427a1.185,1.185,0,0,1-.025-.237c-.01-.174-.022-.4-.038-.68-.027-.612-.065-1.462-.112-2.5-.093-2.114-.221-5.034-.423-8.255s-.443-6.136-.616-8.245c-.085-1.039-.154-1.887-.2-2.5-.02-.281-.036-.506-.048-.68a.12.12,0,1,1,.036,0c.021.173.048.4.081.677.063.61.152,1.456.259,2.493.206,2.107.465,5.02.669,8.245s.31,6.147.371,8.262c.023,1.043.042,1.894.055,2.506,0,.281,0,.507,0,.681A1.191,1.191,0,0,1,315.84,374.427Z" transform="translate(-314.367 -351.09)"/></g><g transform="translate(41.268 17.177)"><path class="e" d="M347.174,348.149c.049,0,.016,6.519-.074,14.557s-.2,14.557-.253,14.557-.016-6.518.074-14.559S347.125,348.148,347.174,348.149Z" transform="translate(-346.824 -348.149)"/></g><g transform="translate(30.172 16.107)"><path class="e" d="M318.249,345.039a10.181,10.181,0,0,0-3.763,2.309,1.891,1.891,0,0,1,.411-.518,6.565,6.565,0,0,1,2.7-1.659A1.9,1.9,0,0,1,318.249,345.039Z" transform="translate(-314.485 -345.033)"/></g><g class="k" transform="translate(17.518 7.899)"><path d="M277.6,333.611a7.99,7.99,0,0,0,5.61-1.281,7.732,7.732,0,0,0,3.293-4.6c.208-.843.271-1.716.478-2.559a3.887,3.887,0,0,1,1.273-2.214c.8-.61,2.758-1,3.342-1.815a26.578,26.578,0,0,0-3.1.2,18.019,18.019,0,0,1-2.244.166,22.423,22.423,0,0,1-.821,2.5,49.415,49.415,0,0,1-7.827,9.612" transform="translate(-277.603 -321.107)"/></g></g><g transform="translate(0 35.594)"><path class="g" d="M151.524,260.274s-3.709.147-4.844,1.7c-2,2.742-.877,5.119-.988,5.93s6.3,45.884,6.3,45.884h2.64l47.752.441,2.291-5.572-1.1-15.067-12.767.057s-5.228-15.007-9.8-16.011c-3.1-.679-10.366-.439-14.738-.212a6.109,6.109,0,0,1-5.447-2.781Z" transform="translate(-145.476 -260.274)"/><g transform="translate(2.544 1.043)"><path class="e" d="M198.717,314.016s-.263.034-.771.058-1.256.038-2.224.047c-1.936.026-4.747.035-8.248.032-7-.005-16.762-.061-27.8-.156h-.071l-.014-.069-.609-2.9-.6-3.005c-2.4-12.221-3.8-23.419-4.558-31.539-.38-4.061-.607-7.354-.751-9.63-.062-1.134-.111-2.017-.144-2.622q-.021-.443-.032-.682c-.006-.154,0-.233,0-.233s.011.079.023.232l.05.681c.041.605.1,1.486.178,2.62.165,2.274.412,5.565.808,9.623.787,8.114,2.211,19.3,4.607,31.517.2,1.012.4,2.016.6,3l.607,2.9-.085-.07,27.795.215,8.247.022,2.224-.015c.254,0,.445-.019.575-.021S198.717,314.016,198.717,314.016Z" transform="translate(-152.891 -263.314)"/></g><g transform="translate(45.552 33.199)"><path class="e" d="M280.559,377.711a1,1,0,0,1,.02-.215c.023-.158.053-.36.09-.608s.094-.586.136-.962.11-.8.143-1.279.092-.995.112-1.555c.038-.559.039-1.158.048-1.788a38.18,38.18,0,0,0-.239-4.089,39.886,39.886,0,0,0-.706-4.036c-.289-1.227-.6-2.32-.9-3.226-.137-.457-.291-.861-.413-1.219s-.237-.664-.333-.913l-.213-.577a.957.957,0,0,1-.063-.206,1,1,0,0,1,.1.192l.244.565c.106.246.232.548.362.9s.294.758.439,1.214c.312.9.637,2,.936,3.228a37.483,37.483,0,0,1,.724,4.053,35.987,35.987,0,0,1,.226,4.111c-.013.633-.02,1.234-.065,1.8-.026.563-.083,1.084-.134,1.56s-.118.9-.17,1.28-.113.7-.166.96c-.051.247-.092.447-.124.6A.958.958,0,0,1,280.559,377.711Z" transform="translate(-278.244 -357.036)"/></g><g transform="translate(12.875 16.873)"><path class="e" d="M183,314.162a1.289,1.289,0,0,1,.193-.163l.576-.44.42-.315c.16-.1.341-.209.532-.325a12.65,12.65,0,0,1,1.327-.742l.8-.387c.276-.137.581-.237.887-.364s.623-.258.96-.364l1.039-.328a29.757,29.757,0,0,1,4.741-.986,34.485,34.485,0,0,1,4.834-.293c.745-.013,1.452.047,2.113.071.659.061,1.275.1,1.833.183a23.846,23.846,0,0,1,2.622.481l.7.194a1.353,1.353,0,0,1,.24.079,1.384,1.384,0,0,1-.249-.044l-.7-.161c-.613-.13-1.507-.3-2.622-.423-.556-.071-1.17-.106-1.827-.16-.659-.017-1.363-.072-2.1-.055a35.868,35.868,0,0,0-4.81.306,30.734,30.734,0,0,0-4.717.967l-1.034.319c-.336.1-.648.241-.957.353s-.61.219-.886.352l-.8.374a13.361,13.361,0,0,0-1.332.714c-.192.112-.375.211-.537.311l-.426.3-.594.411A1.418,1.418,0,0,1,183,314.162Z" transform="translate(-183.001 -309.453)"/></g></g></g><g transform="translate(53.468 63.807)"><g transform="translate(7.179 11.409)"><g transform="translate(8.679 0)"><path class="e" d="M452.605,153.529a1.068,1.068,0,1,0,1.068-1.068A1.068,1.068,0,0,0,452.605,153.529Z" transform="translate(-452.605 -152.461)"/></g><g transform="translate(4.406 0)"><circle class="e" cx="1.068" cy="1.068" r="1.068"/></g><path class="e" d="M427.453,152.995a1.068,1.068,0,1,0,1.459-.391A1.068,1.068,0,0,0,427.453,152.995Z" transform="translate(-427.31 -152.461)"/></g><path class="e" d="M418.972,119.213a1.211,1.211,0,0,0-.216,0l-.635.018c-.139.007-.3.006-.468.021l-.56.079-.653.094-.73.181a11.826,11.826,0,0,0-3.537,1.542,12.484,12.484,0,0,0-5.733,9.382,12.991,12.991,0,0,0-.035,1.71c.02.289.014.583.057.875s.088.585.132.881a12.554,12.554,0,0,0,1.189,3.48,13.4,13.4,0,0,0,2.273,3.128,13.146,13.146,0,0,0,3.275,2.353,11.908,11.908,0,0,0,3.992,1.225,7.92,7.92,0,0,0,1.065.091,9.613,9.613,0,0,0,1.076.02,12.785,12.785,0,0,0,2.156-.272,12.6,12.6,0,0,0,4.292-1.806l-.13.013,4.372,1.755.259.1-.074-.269-1.285-4.674-.022.115a12.549,12.549,0,0,0,2.333-5.341,11.367,11.367,0,0,0,.17-2.737,8.779,8.779,0,0,0-.124-1.314l-.1-.64c-.039-.21-.1-.414-.153-.619a12.5,12.5,0,0,0-4.878-7.111,11.945,11.945,0,0,0-2.9-1.532l-.654-.234-.621-.158-.568-.141c-.182-.035-.358-.054-.523-.079-.331-.042-.621-.1-.876-.112l-.642-.022-.392-.009a.581.581,0,0,0-.133,0,.6.6,0,0,0,.132.018l.391.031.638.043c.253.02.54.083.867.132a12.435,12.435,0,0,1,9.942,9.223c.048.2.11.4.147.608l.094.629a8.583,8.583,0,0,1,.116,1.29,11.155,11.155,0,0,1-.177,2.683,12.315,12.315,0,0,1-2.3,5.225l-.039.052.017.063,1.276,4.677.185-.165-4.37-1.76-.069-.027-.062.041a12.344,12.344,0,0,1-4.2,1.764,12.53,12.53,0,0,1-2.108.267,9.353,9.353,0,0,1-1.052-.019,7.619,7.619,0,0,1-1.041-.088,11.634,11.634,0,0,1-3.9-1.194,12.9,12.9,0,0,1-3.208-2.3,13.178,13.178,0,0,1-2.233-3.057,12.332,12.332,0,0,1-1.175-3.406q-.067-.435-.133-.863c-.043-.286-.037-.574-.059-.858a12.161,12.161,0,0,1,2.034-7.407,12.609,12.609,0,0,1,3.577-3.541,11.9,11.9,0,0,1,3.48-1.569l.72-.192.646-.106.555-.091c.17-.019.326-.023.464-.034l.631-.046A1.255,1.255,0,0,0,418.972,119.213Z" transform="translate(-406.386 -119.208)"/></g><g transform="translate(-109.243 119.825)"><g transform="translate(12.776 45.268)"><path class="p" d="M76.923,415.062l3.318,16.369H92.518l3.207-15.315Z" transform="translate(-76.923 -415.062)"/></g><g transform="translate(12.776 60.089)"><path class="f" d="M76.923,458.259l1.77,2.433H93.615l2.11-2.433Z" transform="translate(-76.923 -458.259)"/></g><g transform="translate(21.157 11.872)"><path class="e" d="M101.491,351.6c-.045,0-.1-7.583-.13-16.936s-.011-16.938.034-16.938.1,7.582.13,16.938S101.536,351.6,101.491,351.6Z" transform="translate(-101.348 -317.726)"/></g><g transform="translate(24.311 26.768)"><path class="e" d="M112.666,361.143a.777.777,0,0,1-.062.176l-.206.491-.15.353-.153.431-.178.494c-.062.175-.11.366-.171.563a22.927,22.927,0,0,0-.645,2.822,34.39,34.39,0,0,0-.357,3.529,47.588,47.588,0,0,0,.182,6.447c.074.823.149,1.488.2,1.947.024.215.043.39.058.529a.773.773,0,0,1,.009.186.8.8,0,0,1-.042-.182l-.089-.526c-.074-.457-.167-1.121-.256-1.944a42.42,42.42,0,0,1-.231-6.467,32.148,32.148,0,0,1,.372-3.547,21.418,21.418,0,0,1,.683-2.832c.065-.2.117-.388.183-.563l.19-.492.167-.428c.057-.129.115-.244.164-.349l.234-.48A.8.8,0,0,1,112.666,361.143Z" transform="translate(-110.543 -361.143)"/></g><g transform="translate(22.852 20.635)"><path class="e" d="M109.282,343.267a1.581,1.581,0,0,1-.073.25l-.24.705-.176.508-.186.612c-.135.439-.291.937-.43,1.5l-.231.877-.216.959c-.161.66-.277,1.377-.426,2.126-.254,1.506-.478,3.171-.632,4.928s-.209,3.437-.232,4.965c0,1.528.015,2.9.078,4.059.021.578.058,1.1.087,1.558s.055.853.085,1.175.042.558.056.743a1.492,1.492,0,0,1,.009.26,1.586,1.586,0,0,1-.042-.257l-.087-.74c-.039-.322-.077-.716-.113-1.174s-.084-.98-.112-1.558c-.078-1.156-.109-2.535-.113-4.066.014-1.532.073-3.216.219-4.978s.384-3.431.647-4.94c.153-.751.274-1.469.442-2.13l.226-.96.242-.877c.146-.561.311-1.058.454-1.5l.2-.609.19-.5.269-.7A1.494,1.494,0,0,1,109.282,343.267Z" transform="translate(-106.289 -343.267)"/></g><g transform="translate(15.449 12.898)"><path class="e" d="M89.1,353.9a.35.35,0,0,1-.013-.086c-.005-.066-.013-.15-.022-.253-.016-.235-.039-.561-.068-.975-.055-.859-.134-2.081-.231-3.586-.2-3.027-.49-7.209-1.014-11.808-.268-2.3-.579-4.483-.9-6.463-.172-.988-.328-1.929-.5-2.8-.162-.877-.337-1.69-.5-2.432s-.32-1.41-.456-2-.263-1.092-.371-1.5l-.239-.949-.058-.248a.336.336,0,0,1-.014-.086.347.347,0,0,1,.031.082l.074.244.269.942c.117.409.256.91.4,1.5s.321,1.251.481,1.994.35,1.554.518,2.431.344,1.816.52,2.8c.332,1.981.648,4.167.916,6.469.525,4.6.8,8.79.967,11.819.085,1.515.143,2.741.179,3.589l.037.977c0,.1,0,.188.005.254A.327.327,0,0,1,89.1,353.9Z" transform="translate(-84.713 -320.715)"/></g><g transform="translate(13.861 13.622)"><path class="h" d="M87.334,324.721a2.285,2.285,0,0,0-2.265-1.9,3.566,3.566,0,0,0-2.744,1.49A8.586,8.586,0,0,0,81,327.248a19.927,19.927,0,0,0-.813,7.805,11.813,11.813,0,0,0,3.248,7.037,1.33,1.33,0,0,0,1.119.512,1.35,1.35,0,0,0,.59-.365,17.466,17.466,0,0,0,5.669-13.283,5.4,5.4,0,0,0-.71-2.858c-.551-.828-1.835-1.708-2.772-1.375" transform="translate(-80.083 -322.825)"/></g><g transform="translate(7.154 0)"><g transform="translate(0.025 2.981)"><path class="r" d="M66.484,295.742l-1.52,2.752c-.035.064-.082.136-.155.142s-.14-.069-.183-.136l-4.018-6.166.926-.524Z" transform="translate(-60.608 -291.81)"/></g><path class="h" d="M74.586,294.995l-13.7-8.087a.638.638,0,0,1-.333-.337c-.055-.2.1-.4.244-.549a9.444,9.444,0,0,1,7.324-2.878,8.369,8.369,0,0,1,6.621,4.118,7.549,7.549,0,0,1-.151,7.732" transform="translate(-60.536 -283.123)"/><g transform="translate(2.32 1.154)"><path class="e" d="M67.3,286.536a.775.775,0,0,1,.18-.022c.118-.006.293-.027.518-.025a10.283,10.283,0,0,1,1.9.151,11.114,11.114,0,0,1,8.87,8.026,10.3,10.3,0,0,1,.34,1.877,3.758,3.758,0,0,1,.021.4.668.668,0,0,1-.106.3,2.3,2.3,0,0,0,.021-.692,11.722,11.722,0,0,0-.388-1.852,11.2,11.2,0,0,0-8.779-7.944,11.672,11.672,0,0,0-1.882-.2C67.547,286.543,67.3,286.551,67.3,286.536Z" transform="translate(-67.298 -286.487)"/></g><g transform="translate(7.261 6.287)"><path class="e" d="M86.634,301.45a3.3,3.3,0,0,1-.693.315c-.436.172-1.047.392-1.729.609s-1.308.389-1.764.5a3.286,3.286,0,0,1-.748.142,3.727,3.727,0,0,1,.716-.254l1.745-.545,1.74-.562A3.752,3.752,0,0,1,86.634,301.45Z" transform="translate(-81.7 -301.446)"/></g><g transform="translate(10.01 0.493)"><path class="e" d="M89.739,284.56a9.578,9.578,0,0,1,.077,3.064,28.651,28.651,0,0,1-.077-3.064Z" transform="translate(-89.712 -284.56)"/></g><g transform="translate(0.225 1.943)"><path class="e" d="M61.193,290.474a6.169,6.169,0,0,1,1-.35c.623-.192,1.49-.435,2.457-.668s1.85-.411,2.492-.524a6.112,6.112,0,0,1,1.046-.141,7.394,7.394,0,0,1-1.023.255c-.635.142-1.511.338-2.476.57s-1.834.457-2.463.62A7.33,7.33,0,0,1,61.193,290.474Z" transform="translate(-61.193 -288.786)"/></g></g><g transform="translate(0 12.165)"><path class="h" d="M55.107,319.6a5.623,5.623,0,0,0-3.9-1.011,11.934,11.934,0,0,0-4.272,1.1,13.17,13.17,0,0,0-5.864,4.616,7.7,7.7,0,0,0-.827,7.208,1.026,1.026,0,0,0,.468.568,1.117,1.117,0,0,0,.773-.059,43.3,43.3,0,0,0,7.692-3.066,14.511,14.511,0,0,0,5.913-5.651,4.854,4.854,0,0,0,.622-1.875,2.331,2.331,0,0,0-.6-1.831" transform="translate(-39.684 -318.58)"/><g transform="translate(0.908 0.743)"><path class="e" d="M56.869,320.747a.984.984,0,0,1-.189.077l-.551.189-.4.133c-.144.052-.3.117-.466.181-.332.135-.718.269-1.125.466l-.645.294c-.223.1-.446.23-.683.35-.477.234-.958.533-1.472.836a23.245,23.245,0,0,0-5.8,5.1c-.366.47-.724.911-1.017,1.353-.15.219-.3.424-.435.633l-.373.6c-.247.378-.43.744-.606,1.057-.085.157-.169.3-.239.439l-.183.379-.258.522a.992.992,0,0,1-.1.178.929.929,0,0,1,.07-.191l.23-.536.171-.386c.066-.139.146-.286.228-.447.169-.318.345-.69.587-1.074l.366-.611c.129-.212.281-.42.429-.642.29-.449.646-.895,1.011-1.371a22.511,22.511,0,0,1,5.836-5.135c.519-.3,1.007-.6,1.489-.828.239-.119.465-.243.691-.344l.653-.285c.411-.191.8-.319,1.139-.446.169-.061.326-.121.472-.169l.4-.12.561-.161A.952.952,0,0,1,56.869,320.747Z" transform="translate(-42.331 -320.746)"/></g><g transform="translate(0.457 5.727)"><path class="e" d="M46.8,335.274a27.631,27.631,0,0,1-2.867.924,27.7,27.7,0,0,1-2.914.766,27.671,27.671,0,0,1,2.867-.924A27.82,27.82,0,0,1,46.8,335.274Z" transform="translate(-41.017 -335.27)"/></g><g transform="translate(6.045 5.961)"><path class="e" d="M57.379,342.051a4.575,4.575,0,0,1-.063-.893c-.015-.552-.018-1.316.006-2.158s.069-1.605.115-2.156a4.592,4.592,0,0,1,.113-.888,5.053,5.053,0,0,1,0,.895c-.019.605-.041,1.34-.066,2.154s-.039,1.549-.054,2.154A5.127,5.127,0,0,1,57.379,342.051Z" transform="translate(-57.304 -335.955)"/></g><g transform="translate(11.046 2.355)"><path class="e" d="M72.374,332.385c-.045,0-.189-1.548-.322-3.465s-.2-3.473-.158-3.476.189,1.548.322,3.465S72.419,332.382,72.374,332.385Z" transform="translate(-71.88 -325.444)"/></g><g transform="translate(4.793 2.176)"><path class="e" d="M53.655,324.95a5.118,5.118,0,0,1,.919-.028c.566,0,1.349.021,2.212.049s1.645.064,2.211.1a5.137,5.137,0,0,1,.915.088,5.076,5.076,0,0,1-.917.028c-.567,0-1.35-.021-2.214-.049s-1.647-.064-2.212-.1A5.061,5.061,0,0,1,53.655,324.95Z" transform="translate(-53.655 -324.922)"/></g></g><g transform="translate(17.741 15.556)"><path class="e" d="M91.455,346.154a.787.787,0,0,1-.02-.184c-.006-.138-.014-.313-.024-.527-.021-.458-.025-1.122-.008-1.941s.071-1.8.169-2.875.261-2.262.482-3.495.5-2.4.78-3.444.58-1.981.855-2.755.511-1.4.692-1.819l.209-.487a.777.777,0,0,1,.083-.165.8.8,0,0,1-.052.177l-.179.5c-.162.429-.384,1.055-.641,1.832s-.54,1.711-.819,2.757-.538,2.207-.765,3.434-.379,2.406-.493,3.481-.174,2.047-.2,2.864-.045,1.479-.044,1.936c0,.215-.005.389-.007.527A.763.763,0,0,1,91.455,346.154Z" transform="translate(-91.392 -328.463)"/></g><g transform="translate(14.372 24.273)"><path class="e" d="M85.727,353.87a3.747,3.747,0,0,1-.547.6c-.355.354-.858.828-1.432,1.332s-1.111.941-1.508,1.246a3.781,3.781,0,0,1-.666.464,4.216,4.216,0,0,1,.593-.553l1.473-1.279,1.461-1.293A4.253,4.253,0,0,1,85.727,353.87Z" transform="translate(-81.573 -353.869)"/></g><g transform="translate(18.99 22.202)"><path class="e" d="M98.908,353.4a6.438,6.438,0,0,1-.582-.806l-1.355-1.977-1.382-1.957a6.434,6.434,0,0,1-.554-.826,5.544,5.544,0,0,1,.647.757c.38.483.889,1.163,1.424,1.933s1,1.483,1.317,2.007A5.575,5.575,0,0,1,98.908,353.4Z" transform="translate(-95.034 -347.833)"/></g><g transform="translate(14.066 16.778)"><path class="e" d="M87.207,332.025c.025.038-1.416,1.008-3.218,2.166s-3.283,2.067-3.307,2.029,1.416-1.008,3.219-2.167S87.182,331.987,87.207,332.025Z" transform="translate(-80.681 -332.024)"/></g><g transform="translate(20.409 17.018)"><path class="e" d="M103.416,336.87a53.548,53.548,0,0,1-4.244-4.146,26.855,26.855,0,0,1,2.18,2.014A26.883,26.883,0,0,1,103.416,336.87Z" transform="translate(-99.171 -332.724)"/></g><g transform="translate(25.676 12.023)"><path class="h" d="M114.522,327.218l1.237-.1a6.127,6.127,0,0,0,2.5-.765,9.9,9.9,0,0,1,1.164-.585,14.971,14.971,0,0,1,4.882-.587,20.214,20.214,0,0,0,7.766-1.986.753.753,0,0,0,.338-.307c.254-.463-.218-.875-.624-1.125a25.491,25.491,0,0,0-6.569-3.222,8.6,8.6,0,0,0-7.063.858c-2.367,1.629-3.23,4.975-3.63,7.821" transform="translate(-114.522 -318.165)"/><g transform="translate(0.027 1.172)"><path class="e" d="M132.486,324.979a1.233,1.233,0,0,1-.21-.1l-.586-.307c-.508-.267-1.241-.662-2.166-1.106a20.277,20.277,0,0,0-3.352-1.292,11.059,11.059,0,0,0-4.345-.352,7.424,7.424,0,0,0-3.961,1.7,8.813,8.813,0,0,0-2.063,2.9c-.434.927-.7,1.716-.9,2.256l-.22.624a1.209,1.209,0,0,1-.086.214,1.22,1.22,0,0,1,.055-.225l.191-.634a20.657,20.657,0,0,1,.853-2.284,8.771,8.771,0,0,1,2.068-2.961,7.513,7.513,0,0,1,4.04-1.75,11.061,11.061,0,0,1,4.407.369,19.5,19.5,0,0,1,3.362,1.333c.922.459,1.646.869,2.146,1.154l.572.334A1.2,1.2,0,0,1,132.486,324.979Z" transform="translate(-114.599 -321.582)"/></g><g transform="translate(7.807 1.354)"><path class="e" d="M144.412,326.923c-.025.037-1.643-1.009-3.613-2.337s-3.547-2.436-3.522-2.474,1.643,1.009,3.613,2.337S144.438,326.886,144.412,326.923Z" transform="translate(-137.277 -322.111)"/></g><g transform="translate(10.838 1.258)"><path class="e" d="M148.489,321.843a3.941,3.941,0,0,1-1.178.212,3.986,3.986,0,0,1-1.2-.015,30.786,30.786,0,0,1,2.379-.2Z" transform="translate(-146.11 -321.831)"/></g><g transform="translate(4.927 0.346)"><path class="e" d="M130.09,319.175a3.151,3.151,0,0,1-.531.829,3.545,3.545,0,0,1-.672.764,3.145,3.145,0,0,1,.531-.829A3.538,3.538,0,0,1,130.09,319.175Z" transform="translate(-128.883 -319.174)"/></g><g transform="translate(2.662 3.638)"><path class="e" d="M127.2,332.249a4.269,4.269,0,0,1-.779-.422c-.467-.284-1.1-.7-1.774-1.189s-1.27-.953-1.7-1.293a4.774,4.774,0,0,1-.672-.576,4.669,4.669,0,0,1,.741.483l1.724,1.253c.673.489,1.291.917,1.741,1.225A5.273,5.273,0,0,1,127.2,332.249Z" transform="translate(-122.28 -328.768)"/></g></g><g transform="translate(24.6 25.773)"><path class="h" d="M114.283,358.8a2.615,2.615,0,0,0-2.83,2.032,5.729,5.729,0,0,0,.73,3.521,17.956,17.956,0,0,0,4.879,6.384,12.065,12.065,0,0,0,7.46,2.746c-.5-2.317.132-4.737-.146-7.091a9.224,9.224,0,0,0-8.169-8.088c-.753-.081-1.625-.2-1.925.5" transform="translate(-111.386 -358.243)"/><g transform="translate(2.896 0.558)"><path class="e" d="M130.069,374.553a.792.792,0,0,1-.168-.078,3.033,3.033,0,0,1-.442-.3,4.6,4.6,0,0,1-1.165-1.558c-.188-.365-.4-.762-.6-1.2l-.635-1.4a13.523,13.523,0,0,0-.78-1.5,11.7,11.7,0,0,0-1.073-1.46c-.808-.949-1.675-1.77-2.426-2.554a16.652,16.652,0,0,1-1.85-2.219,8.132,8.132,0,0,1-.9-1.726,5.28,5.28,0,0,1-.158-.506.787.787,0,0,1-.037-.181c.015,0,.082.241.254.664a8.913,8.913,0,0,0,.94,1.684,17.559,17.559,0,0,0,1.863,2.18c.754.776,1.626,1.594,2.442,2.553a11.64,11.64,0,0,1,1.085,1.482,13.343,13.343,0,0,1,.781,1.521l.62,1.408c.2.437.4.838.584,1.2a4.77,4.77,0,0,0,1.1,1.563C129.846,374.427,130.079,374.537,130.069,374.553Z" transform="translate(-119.827 -359.87)"/></g><g transform="translate(7.031 8.071)"><path class="e" d="M131.884,387.011a3.548,3.548,0,0,1,.108-.794c.092-.486.244-1.153.448-1.88s.424-1.375.6-1.838a3.524,3.524,0,0,1,.323-.734,4.344,4.344,0,0,1-.212.772c-.146.471-.347,1.121-.551,1.844s-.372,1.383-.493,1.861A4.3,4.3,0,0,1,131.884,387.011Z" transform="translate(-131.878 -381.766)"/></g><g transform="translate(7.249 6.345)"><path class="e" d="M138.179,378.021a4.935,4.935,0,0,1-.831-.191c-.508-.133-1.21-.315-1.991-.491s-1.494-.313-2.01-.411a4.865,4.865,0,0,1-.833-.184,4.006,4.006,0,0,1,.852.069c.522.069,1.242.188,2.027.365s1.486.377,1.988.539A3.969,3.969,0,0,1,138.179,378.021Z" transform="translate(-132.514 -376.737)"/></g><g transform="translate(2.653 3.17)"><path class="e" d="M119.124,373.593a4.806,4.806,0,0,1,.128-.92c.1-.563.269-1.337.489-2.183s.456-1.6.641-2.144a4.805,4.805,0,0,1,.338-.864,5.612,5.612,0,0,1-.227.9c-.156.55-.372,1.309-.593,2.152s-.4,1.61-.535,2.166A5.642,5.642,0,0,1,119.124,373.593Z" transform="translate(-119.119 -367.482)"/></g><g transform="translate(3.645 1.968)"><path class="e" d="M128.573,364.683c0,.045-1.478-.074-3.29-.266s-3.277-.385-3.272-.43,1.477.074,3.29.266S128.578,364.638,128.573,364.683Z" transform="translate(-122.011 -363.978)"/></g></g><g transform="translate(10.601 46.227)"><path class="l" d="M93.71,417.939c0,.045-5.178.082-11.563.082s-11.565-.037-11.565-.082,5.177-.082,11.565-.082S93.71,417.894,93.71,417.939Z" transform="translate(-70.582 -417.857)"/></g><g transform="translate(14.544 52.89)"><path class="f" d="M97.657,437.359c0,.045-3.489.082-7.791.082s-7.792-.037-7.792-.082,3.488-.082,7.792-.082S97.657,437.314,97.657,437.359Z" transform="translate(-82.074 -437.277)"/></g><g transform="translate(14.68 53.842)"><path class="f" d="M97.782,440.136c0,.045-3.428.082-7.655.082s-7.656-.037-7.656-.082,3.427-.082,7.656-.082S97.782,440.091,97.782,440.136Z" transform="translate(-82.47 -440.054)"/></g><g transform="translate(14.144 52.104)"><path class="f" d="M97.028,435.07c0,.045-3.609.082-8.059.082s-8.059-.037-8.059-.082,3.608-.082,8.059-.082S97.028,435.025,97.028,435.07Z" transform="translate(-80.91 -434.988)"/></g><g transform="translate(10.6 43.115)"><g transform="translate(0.039 0.04)"><rect class="p" width="23.051" height="3.167"/></g><path class="p" d="M93.709,412.034H70.579v-3.246h23.13Zm-23.051-.079H93.63v-3.089H70.658Z" transform="translate(-70.579 -408.788)"/></g></g><g transform="translate(153.412 48.125)"><rect class="e" width="39.667" height="2.041" transform="translate(0 32.33)"/><g transform="translate(0.098)"><g transform="translate(16.123 3.5)"><g transform="translate(2.327 4.592)"><path class="a" d="M660.888,100.471a.208.208,0,0,0-.028-.063l-.1-.178c-.088-.154-.224-.378-.419-.653a7.028,7.028,0,0,0-2.068-1.954,5.07,5.07,0,0,0-1.855-.681,4.589,4.589,0,0,0-2.254.236,3.655,3.655,0,0,0-1.929,1.579,11.788,11.788,0,0,0-.845,2.55,4.622,4.622,0,0,1-.539,1.216,3.683,3.683,0,0,1-.916.9c-.345.255-.706.483-1.032.751a4.448,4.448,0,0,0-.839.909,5.583,5.583,0,0,0-.859,2.1,7.453,7.453,0,0,0-.115,1.972,15.009,15.009,0,0,0,.5,2.806c.086.325.157.576.207.746a1.772,1.772,0,0,0,.084.257,1.693,1.693,0,0,0-.053-.265l-.179-.753a16.2,16.2,0,0,1-.453-2.8,7.442,7.442,0,0,1,.132-1.94,5.5,5.5,0,0,1,.851-2.042,4.321,4.321,0,0,1,.815-.876c.319-.259.677-.485,1.029-.743a3.825,3.825,0,0,0,.954-.939,4.75,4.75,0,0,0,.559-1.258,11.857,11.857,0,0,1,.828-2.519,3.522,3.522,0,0,1,1.846-1.52,4.482,4.482,0,0,1,2.185-.243,5,5,0,0,1,1.817.648,7.207,7.207,0,0,1,2.075,1.895c.2.268.345.485.441.634A1.846,1.846,0,0,0,660.888,100.471Z" transform="translate(-647.075 -96.894)"/></g><path class="a" d="M653.73,116.376c.239-.223.355-.068.677-.009a2,2,0,0,1,.868.433,3.656,3.656,0,0,1,1.185,3.836,2.853,2.853,0,0,1-2.62-4.285" transform="translate(-648.942 -105.024)"/><path class="a" d="M682.868,102.9c.12-.3.292-.214.607-.3a2,2,0,0,1,.97.017,3.656,3.656,0,0,1,2.72,2.953,2.853,2.853,0,0,1-4.209-2.741" transform="translate(-668.26 -96.014)"/><path class="a" d="M647.534,132.053a3.292,3.292,0,0,1,5.177.252,4.073,4.073,0,0,1-2.685,1.058,4.159,4.159,0,0,1-2.7-1.094" transform="translate(-644.91 -114.651)"/><path class="a" d="M643.722,113.3a3.337,3.337,0,0,1-3.37-3.982,2.995,2.995,0,0,1,3.481,3.949" transform="translate(-640.291 -100.418)"/><path class="a" d="M651.746,99.668a3.337,3.337,0,0,1-4.5-2.636,2.995,2.995,0,0,1,4.6,2.568" transform="translate(-644.859 -92.095)"/><path class="a" d="M663.564,100.112a3.336,3.336,0,0,1,4.5,2.636,2.995,2.995,0,0,1-4.6-2.568" transform="translate(-655.518 -94.273)"/><path class="a" d="M663.435,88.416a3.337,3.337,0,0,1-1.776-4.9,2.995,2.995,0,0,1,1.891,4.913" transform="translate(-654.008 -83.511)"/><path class="a" d="M677.712,89.782a3.337,3.337,0,0,1,2.724-4.449,2.995,2.995,0,0,1-2.658,4.544" transform="translate(-664.745 -84.708)"/></g><path class="h" d="M632.885,145.374,631,133.538l14.452.175-1.425,11.506" transform="translate(-618.065 -112.874)"/><g transform="translate(20.781 11.28)"><g transform="translate(0 3.092)"><path class="p" d="M654.143,123.04a2.466,2.466,0,0,0,2.4.2,2.6,2.6,0,0,0,1.312-2.073,2.772,2.772,0,0,0-3.986,1.659" transform="translate(-653.867 -118.911)"/><path class="p" d="M673.4,130.469a2.465,2.465,0,0,0,2.4.2,2.6,2.6,0,0,0,1.312-2.073,2.772,2.772,0,0,0-3.987,1.659" transform="translate(-666.516 -123.791)"/><path class="p" d="M662.9,116.188a2.464,2.464,0,0,0,1.892,1.488,2.6,2.6,0,0,0,2.236-1.01,2.773,2.773,0,0,0-4.242-.807" transform="translate(-659.725 -115.203)"/><path class="p" d="M665.382,126.669a2.466,2.466,0,0,0-2.157,1.068,2.6,2.6,0,0,0-.05,2.453,2.773,2.773,0,0,0,2.553-3.483" transform="translate(-659.796 -122.735)"/><path class="p" d="M676.388,139.994a2.464,2.464,0,0,0,.057,2.406,2.6,2.6,0,0,0,2.2,1.081,2.947,2.947,0,0,0-.137-2.394,2.688,2.688,0,0,0-1.922-1.227" transform="translate(-668.474 -131.401)"/></g><g transform="translate(2.894)"><path class="p" d="M671.163,118.423a1.73,1.73,0,0,0-.572-.364,2.462,2.462,0,0,0-.783-.137,9.444,9.444,0,0,0-1.067.062,3.115,3.115,0,0,1-1.313-.113,2.012,2.012,0,0,1-1.084-1.048,5.991,5.991,0,0,1-.467-1.6,4.592,4.592,0,0,0-.557-1.64,5.784,5.784,0,0,0-1.222-1.242,5.933,5.933,0,0,1-1.17-1.187,3.911,3.911,0,0,1-.582-2.72,3.815,3.815,0,0,1,.71-1.749,2.884,2.884,0,0,1,.347-.382.753.753,0,0,1,.137-.116.765.765,0,0,1-.114.138,3.774,3.774,0,0,0-.32.4,3.9,3.9,0,0,0-.649,1.728,3.835,3.835,0,0,0,.592,2.624,5.867,5.867,0,0,0,1.148,1.15,5.856,5.856,0,0,1,1.255,1.275,4.693,4.693,0,0,1,.575,1.7,5.94,5.94,0,0,0,.446,1.564,1.886,1.886,0,0,0,1,.991,3.053,3.053,0,0,0,1.26.124,8.815,8.815,0,0,1,1.078-.039,2.416,2.416,0,0,1,.8.168,1.331,1.331,0,0,1,.435.281.735.735,0,0,1,.089.1C671.157,118.408,671.165,118.421,671.163,118.423Z" transform="translate(-662.303 -106.189)"/></g><g transform="translate(2.894)"><path class="p" d="M671.163,118.423a1.73,1.73,0,0,0-.572-.364,2.462,2.462,0,0,0-.783-.137,9.444,9.444,0,0,0-1.067.062,3.115,3.115,0,0,1-1.313-.113,2.012,2.012,0,0,1-1.084-1.048,5.991,5.991,0,0,1-.467-1.6,4.592,4.592,0,0,0-.557-1.64,5.784,5.784,0,0,0-1.222-1.242,5.933,5.933,0,0,1-1.17-1.187,3.911,3.911,0,0,1-.582-2.72,3.815,3.815,0,0,1,.71-1.749,2.884,2.884,0,0,1,.347-.382.753.753,0,0,1,.137-.116.765.765,0,0,1-.114.138,3.774,3.774,0,0,0-.32.4,3.9,3.9,0,0,0-.649,1.728,3.835,3.835,0,0,0,.592,2.624,5.867,5.867,0,0,0,1.148,1.15,5.856,5.856,0,0,1,1.255,1.275,4.693,4.693,0,0,1,.575,1.7,5.94,5.94,0,0,0,.446,1.564,1.886,1.886,0,0,0,1,.991,3.053,3.053,0,0,0,1.26.124,8.815,8.815,0,0,1,1.078-.039,2.416,2.416,0,0,1,.8.168,1.331,1.331,0,0,1,.435.281.735.735,0,0,1,.089.1C671.157,118.408,671.165,118.421,671.163,118.423Z" transform="translate(-662.303 -106.189)"/></g></g><g transform="translate(0 8.778)"><path class="s" d="M598.246,138.046a3.657,3.657,0,0,0-4.948-3.6A6.1,6.1,0,0,0,598.116,138" transform="translate(-593.298 -122.097)"/><path class="s" d="M603.917,146.309a2.606,2.606,0,0,0-.156,2.944,6.618,6.618,0,0,0,2.248,2.158,4.749,4.749,0,0,0-2.044-5.385" transform="translate(-599.923 -129.856)"/><path class="s" d="M614.83,136.125a4.218,4.218,0,0,0,4.794,3.758,5.766,5.766,0,0,0-1.607-3.051,2.757,2.757,0,0,0-3.233-.409" transform="translate(-607.412 -123.312)"/><path class="s" d="M604.978,129.238a2.478,2.478,0,0,0-2.242-1.881,4.305,4.305,0,0,0-2.915.98,3.79,3.79,0,0,0,5.167.51" transform="translate(-597.583 -117.583)"/><path class="s" d="M597.208,157.909a3.385,3.385,0,0,0-.829,3.594,5.975,5.975,0,0,0,2.464,2.949,7.851,7.851,0,0,0,.458-3.82,4.012,4.012,0,0,0-2.177-3.032" transform="translate(-595.197 -137.459)"/><path class="s" d="M614.381,121.85a3.05,3.05,0,0,1,4.83-.282,2.635,2.635,0,0,1-4.755.122" transform="translate(-607.147 -113.096)"/><path class="s" d="M608.247,109.666a3.963,3.963,0,0,1-5.055-3.1,9.045,9.045,0,0,1,2.388.035,3.885,3.885,0,0,1,2.114,1.041,2.1,2.1,0,0,1,.553,2.024" transform="translate(-599.797 -103.894)"/><path class="s" d="M622.33,103.9a3.24,3.24,0,0,1-.021-5,6.782,6.782,0,0,1,1.417,3.022,2.549,2.549,0,0,1-.011,1.251,1.152,1.152,0,0,1-.875.818" transform="translate(-611.588 -98.895)"/><g class="t" transform="translate(0 12.118)"><path class="s" d="M598.246,138.046a3.657,3.657,0,0,0-4.948-3.6A6.1,6.1,0,0,0,598.116,138" transform="translate(-593.298 -134.215)"/></g><g class="t" transform="translate(3.46 16.171)"><path class="s" d="M603.917,146.309a2.606,2.606,0,0,0-.156,2.944,6.618,6.618,0,0,0,2.248,2.158,4.749,4.749,0,0,0-2.044-5.385" transform="translate(-603.384 -146.027)"/></g><g class="t" transform="translate(7.372 12.753)"><path class="s" d="M614.83,136.125a4.218,4.218,0,0,0,4.794,3.758,5.766,5.766,0,0,0-1.607-3.051,2.757,2.757,0,0,0-3.233-.409" transform="translate(-614.784 -136.064)"/></g><g class="t" transform="translate(2.238 9.76)"><path class="s" d="M604.978,129.238a2.478,2.478,0,0,0-2.242-1.881,4.305,4.305,0,0,0-2.915.98,3.79,3.79,0,0,0,5.167.51" transform="translate(-599.821 -127.343)"/></g><g class="t" transform="translate(0.992 20.142)"><path class="s" d="M597.208,157.909a3.385,3.385,0,0,0-.829,3.594,5.975,5.975,0,0,0,2.464,2.949,7.851,7.851,0,0,0,.458-3.82,4.012,4.012,0,0,0-2.177-3.032" transform="translate(-596.189 -157.601)"/></g><g class="t" transform="translate(7.233 7.417)"><path class="s" d="M614.381,121.85a3.05,3.05,0,0,1,4.83-.282,2.635,2.635,0,0,1-4.755.122" transform="translate(-614.381 -120.513)"/></g><g class="t" transform="translate(3.395 2.611)"><path class="s" d="M608.247,109.666a3.963,3.963,0,0,1-5.055-3.1,9.045,9.045,0,0,1,2.388.035,3.885,3.885,0,0,1,2.114,1.041,2.1,2.1,0,0,1,.553,2.024" transform="translate(-603.192 -106.504)"/></g><g class="t" transform="translate(9.553)"><path class="s" d="M622.33,103.9a3.24,3.24,0,0,1-.021-5,6.782,6.782,0,0,1,1.417,3.022,2.549,2.549,0,0,1-.011,1.251,1.152,1.152,0,0,1-.875.818" transform="translate(-621.141 -98.895)"/></g><g transform="translate(1.808 4.861)"><path class="s" d="M611.466,120.469a.312.312,0,0,1,0-.081l.014-.238c.013-.209.033-.517.04-.914a8.177,8.177,0,0,0-.537-3.284,5.01,5.01,0,0,0-1.32-1.858,3.526,3.526,0,0,0-2.4-.884,3.013,3.013,0,0,0-1.356.34,2.7,2.7,0,0,0-1.047,1,5.388,5.388,0,0,0-.608,3.019,21.5,21.5,0,0,1,.072,3.177,4.859,4.859,0,0,1-.4,1.473,3.09,3.09,0,0,1-.889,1.165,4.454,4.454,0,0,1-1.238.633,6.328,6.328,0,0,0-1.167.529,4.232,4.232,0,0,0-1.533,1.67,4.04,4.04,0,0,0-.443,1.827,4.3,4.3,0,0,0,.232,1.412,5.232,5.232,0,0,0,.547,1.1.316.316,0,0,1-.053-.062,2.321,2.321,0,0,1-.139-.194,3.858,3.858,0,0,1-.412-.822,4.263,4.263,0,0,1-.261-1.432,4.1,4.1,0,0,1,.431-1.877,4.321,4.321,0,0,1,1.562-1.731c.715-.476,1.658-.594,2.385-1.166a3.721,3.721,0,0,0,1.222-2.542,21.789,21.789,0,0,0-.076-3.154,5.519,5.519,0,0,1,.634-3.105,2.845,2.845,0,0,1,1.109-1.052,3.144,3.144,0,0,1,1.422-.351,3.653,3.653,0,0,1,2.491.93,5.1,5.1,0,0,1,1.337,1.914,6.852,6.852,0,0,1,.455,1.874,10.3,10.3,0,0,1,.041,1.454c-.016.4-.046.707-.07.915l-.03.237A.313.313,0,0,1,611.466,120.469Z" transform="translate(-598.568 -113.064)"/><g class="t"><path class="s" d="M611.466,120.469a.312.312,0,0,1,0-.081l.014-.238c.013-.209.033-.517.04-.914a8.177,8.177,0,0,0-.537-3.284,5.01,5.01,0,0,0-1.32-1.858,3.526,3.526,0,0,0-2.4-.884,3.013,3.013,0,0,0-1.356.34,2.7,2.7,0,0,0-1.047,1,5.388,5.388,0,0,0-.608,3.019,21.5,21.5,0,0,1,.072,3.177,4.859,4.859,0,0,1-.4,1.473,3.09,3.09,0,0,1-.889,1.165,4.454,4.454,0,0,1-1.238.633,6.328,6.328,0,0,0-1.167.529,4.232,4.232,0,0,0-1.533,1.67,4.04,4.04,0,0,0-.443,1.827,4.3,4.3,0,0,0,.232,1.412,5.232,5.232,0,0,0,.547,1.1.316.316,0,0,1-.053-.062,2.321,2.321,0,0,1-.139-.194,3.858,3.858,0,0,1-.412-.822,4.263,4.263,0,0,1-.261-1.432,4.1,4.1,0,0,1,.431-1.877,4.321,4.321,0,0,1,1.562-1.731c.715-.476,1.658-.594,2.385-1.166a3.721,3.721,0,0,0,1.222-2.542,21.789,21.789,0,0,0-.076-3.154,5.519,5.519,0,0,1,.634-3.105,2.845,2.845,0,0,1,1.109-1.052,3.144,3.144,0,0,1,1.422-.351,3.653,3.653,0,0,1,2.491.93,5.1,5.1,0,0,1,1.337,1.914,6.852,6.852,0,0,1,.455,1.874,10.3,10.3,0,0,1,.041,1.454c-.016.4-.046.707-.07.915l-.03.237A.313.313,0,0,1,611.466,120.469Z" transform="translate(-598.568 -113.064)"/></g></g></g><g transform="translate(20.51 11.249)"><path class="p" d="M668.316,113.31a3.08,3.08,0,0,0,.216-1.059,2.644,2.644,0,0,0-.281-1.222,2.55,2.55,0,0,0-1.179-1.138,2.579,2.579,0,0,0-.928-.25,3.026,3.026,0,0,0-1.039.122c-.708.186-1.408.589-2.246.755a2.649,2.649,0,0,1-1.3-.032,1.955,1.955,0,0,1-1.061-.847,21.345,21.345,0,0,0-1.256-2.487,2.486,2.486,0,0,0-1.141-.746,3.209,3.209,0,0,0-1.334-.135,3.42,3.42,0,0,0-2.219,1.154,5.218,5.218,0,0,0-1.1,2.037,6.147,6.147,0,0,0-.246,2.018,22.114,22.114,0,0,0,.375,2.952l.138.8.031.209a.036.036,0,1,1-.016,0l-.046-.206q-.062-.292-.167-.795a20.065,20.065,0,0,1-.426-2.96,6.2,6.2,0,0,1,.232-2.059,5.317,5.317,0,0,1,1.119-2.1,3.977,3.977,0,0,1,1.014-.812,3.494,3.494,0,0,1,2.694-.259,2.639,2.639,0,0,1,1.212.792,20.144,20.144,0,0,1,1.266,2.505,1.8,1.8,0,0,0,.977.788,2.512,2.512,0,0,0,1.23.033c.807-.154,1.511-.551,2.239-.738a3.128,3.128,0,0,1,1.082-.117,2.668,2.668,0,0,1,.968.271,2.627,2.627,0,0,1,1.209,1.2,2.667,2.667,0,0,1,.264,1.262,2.509,2.509,0,0,1-.156.8A1.3,1.3,0,0,1,668.316,113.31Z" transform="translate(-653.077 -106.097)"/></g><path class="p" d="M672.672,107.574a2.809,2.809,0,0,0,2.577.169,2.6,2.6,0,0,0,1.312-2.073,2.772,2.772,0,0,0-3.986,1.659" transform="translate(-645.375 -94.357)"/><path class="p" d="M680.843,118.526a2.807,2.807,0,0,0,1.2,2.289,2.6,2.6,0,0,0,2.453.042A2.772,2.772,0,0,0,681,118.315" transform="translate(-650.806 -102.823)"/><path class="p" d="M694.461,112.69a2.809,2.809,0,0,0,2.581-.106,2.6,2.6,0,0,0,1.084-2.2,2.773,2.773,0,0,0-3.787,2.075" transform="translate(-659.672 -97.538)"/><path class="p" d="M659.22,98.807a2.938,2.938,0,0,1-1.024-2.433,2.6,2.6,0,0,1,1.593-1.866,2.773,2.773,0,0,1-.406,4.3" transform="translate(-635.915 -87.235)"/><g transform="translate(1.983)"><g transform="translate(2.764 4.592)"><path class="p" d="M607.134,90.271a.241.241,0,0,1,.028-.063l.1-.177c.088-.154.224-.378.419-.653a7.033,7.033,0,0,1,2.068-1.954,5.075,5.075,0,0,1,1.856-.682,4.593,4.593,0,0,1,2.254.236,3.658,3.658,0,0,1,1.929,1.579,11.788,11.788,0,0,1,.845,2.55,4.617,4.617,0,0,0,.539,1.216,3.678,3.678,0,0,0,.916.9c.345.255.705.484,1.032.751a4.441,4.441,0,0,1,.839.909,5.587,5.587,0,0,1,.859,2.1,7.454,7.454,0,0,1,.115,1.972,15.014,15.014,0,0,1-.5,2.806c-.086.325-.157.576-.207.746a1.679,1.679,0,0,1-.084.257,1.792,1.792,0,0,1,.054-.265l.179-.753a16.235,16.235,0,0,0,.453-2.8,7.436,7.436,0,0,0-.132-1.94,5.5,5.5,0,0,0-.85-2.042,4.312,4.312,0,0,0-.815-.875c-.319-.259-.677-.485-1.029-.743a3.826,3.826,0,0,1-.954-.939,4.755,4.755,0,0,1-.559-1.258,11.844,11.844,0,0,0-.829-2.519,3.52,3.52,0,0,0-1.846-1.52,4.482,4.482,0,0,0-2.185-.243,5,5,0,0,0-1.817.648,7.2,7.2,0,0,0-2.075,1.895c-.2.268-.345.485-.441.634A1.733,1.733,0,0,1,607.134,90.271Z" transform="translate(-607.134 -86.694)"/></g><path class="p" d="M634.716,106.177c-.239-.222-.356-.068-.677-.009a2,2,0,0,0-.868.433,3.655,3.655,0,0,0-1.185,3.836,2.852,2.852,0,0,0,2.62-4.285" transform="translate(-620.599 -94.824)"/><path class="p" d="M603.376,92.7c-.12-.3-.292-.214-.607-.3a2,2,0,0,0-.97.018,3.656,3.656,0,0,0-2.72,2.953,2.853,2.853,0,0,0,4.209-2.742" transform="translate(-599.079 -85.814)"/><path class="p" d="M636.618,121.853a3.292,3.292,0,0,0-5.177.252,4.072,4.072,0,0,0,2.685,1.059,4.162,4.162,0,0,0,2.7-1.094" transform="translate(-620.338 -104.451)"/><path class="p" d="M643.631,103.1A3.337,3.337,0,0,0,647,99.121a2.995,2.995,0,0,0-3.481,3.949" transform="translate(-628.158 -90.219)"/><path class="p" d="M633.925,89.468a3.337,3.337,0,0,0,4.5-2.636,3,3,0,0,0-4.6,2.568" transform="translate(-621.908 -81.896)"/><path class="p" d="M622.107,89.912a3.337,3.337,0,0,0-4.5,2.636,2.995,2.995,0,0,0,4.6-2.568" transform="translate(-611.249 -84.073)"/><path class="p" d="M625.126,78.216a3.337,3.337,0,0,0,1.776-4.905,2.995,2.995,0,0,0-1.891,4.913" transform="translate(-615.649 -73.311)"/><path class="p" d="M610.361,79.583a3.337,3.337,0,0,0-2.724-4.449,2.995,2.995,0,0,0,2.658,4.543" transform="translate(-604.423 -74.509)"/></g><path class="u" d="M630.464,164.04l1.106,1.371h13.6l.927-1.371Z" transform="translate(-617.712 -132.911)"/><g transform="translate(13.157 31.037)"><path class="e" d="M646.575,163.853c0,.043-3.342.078-7.464.078s-7.464-.035-7.464-.078,3.341-.079,7.464-.079S646.575,163.809,646.575,163.853Z" transform="translate(-631.647 -163.774)"/></g><g transform="translate(14 25.762)"><path class="e" d="M646.659,148.589s-.025.042-.085.112a2.983,2.983,0,0,1-.277.291,5.07,5.07,0,0,1-1.215.843,5.344,5.344,0,0,1-2.123.545,5.1,5.1,0,0,1-1.3-.109,7.674,7.674,0,0,1-1.324-.438c-.877-.374-1.674-.8-2.45-1.046a4.227,4.227,0,0,0-2.116-.2,2.752,2.752,0,0,0-1.3.6c-.258.227-.357.4-.37.386a.458.458,0,0,1,.068-.123,1.937,1.937,0,0,1,.261-.308,2.7,2.7,0,0,1,1.317-.666,4.246,4.246,0,0,1,2.182.175c.795.245,1.6.67,2.467,1.039a7.76,7.76,0,0,0,1.3.433,5.052,5.052,0,0,0,1.26.114,5.389,5.389,0,0,0,2.081-.5A6.452,6.452,0,0,0,646.659,148.589Z" transform="translate(-634.102 -148.399)"/></g><g transform="translate(13.85 24.808)"><path class="e" d="M646.508,145.7s-.028.04-.093.105a3.332,3.332,0,0,1-.3.271,5.639,5.639,0,0,1-1.259.781,5.921,5.921,0,0,1-2.138.511,5.816,5.816,0,0,1-1.3-.087,8.711,8.711,0,0,1-1.345-.38c-.9-.326-1.721-.7-2.509-.92a4.983,4.983,0,0,0-2.133-.193,3.2,3.2,0,0,0-1.347.515c-.282.2-.406.349-.418.338s.025-.042.085-.113a2.255,2.255,0,0,1,.3-.275,3.1,3.1,0,0,1,1.365-.575,4.968,4.968,0,0,1,2.19.164c.8.216,1.635.589,2.523.912a8.889,8.889,0,0,0,1.32.377,5.789,5.789,0,0,0,1.268.094,6,6,0,0,0,2.1-.468A7.441,7.441,0,0,0,646.508,145.7Z" transform="translate(-633.666 -145.619)"/></g></g><g transform="translate(10.743 33.835)"><rect class="e" width="1.191" height="3.32"/><rect class="e" width="1.191" height="3.32" transform="translate(16.99)"/></g></g></g></svg>