<svg xmlns="http://www.w3.org/2000/svg" width="45.419" height="45.419" viewBox="0 0 45.419 45.419"><defs><style>.a{fill:#f6b333;}</style></defs><g transform="translate(-2.344 -2.344)"><g transform="translate(2.344 2.344)"><path class="a" d="M38.767,6.651A22.709,22.709,0,0,0,6.652,38.767,22.709,22.709,0,1,0,38.767,6.651Zm-1.46,1.46a20.51,20.51,0,0,1,6.047,14.6H38.675A15.983,15.983,0,0,0,22.709,6.744c-.522,0-1.039.026-1.548.075v-4.7q.769-.057,1.548-.057A20.51,20.51,0,0,1,37.307,8.111Zm-14.6,28.5a13.9,13.9,0,1,1,13.9-13.9A13.917,13.917,0,0,1,22.709,36.61Z"/></g></g></svg>