<svg xmlns="http://www.w3.org/2000/svg" width="24" height="24" viewBox="0 0 24 24"><defs><style>.a{fill:#fff;stroke:#707070;opacity:0;}.b{fill:#1c1b1b;}.c{stroke:none;}.d{fill:none;}</style></defs><g transform="translate(-1213 -550)"><g class="a" transform="translate(1213 550)"><rect class="c" width="24" height="24"/><rect class="d" x="0.5" y="0.5" width="23" height="23"/></g><g transform="translate(1214.563 449.115)"><g transform="translate(0 106.662)"><g transform="translate(0 0)"><path class="b" d="M21.254,112.632c-.168-.244-4.205-5.97-10.588-5.97C5.19,106.662.31,112.354.1,112.6a.446.446,0,0,0,0,.574c.205.243,5.085,5.935,10.562,5.935s10.356-5.692,10.562-5.935A.444.444,0,0,0,21.254,112.632Zm-10.588,5.586c-4.39,0-8.564-4.187-9.625-5.333,1.059-1.148,5.228-5.333,9.625-5.333,5.137,0,8.763,4.18,9.648,5.309C19.292,113.97,15.094,118.218,10.667,118.218Z" transform="translate(0 -106.662)"/></g></g><g transform="translate(7.111 109.329)"><g transform="translate(0 0)"><path class="b" d="M174.218,170.662a3.556,3.556,0,1,0,3.556,3.556A3.559,3.559,0,0,0,174.218,170.662Zm0,6.222a2.667,2.667,0,1,1,2.667-2.667A2.67,2.67,0,0,1,174.218,176.884Z" transform="translate(-170.662 -170.662)"/></g></g></g></g></svg>