<svg xmlns="http://www.w3.org/2000/svg" width="13.847" height="18.463" viewBox="0 0 13.847 18.463">
  <path id="Path_3801" data-name="Path 3801" d="M17.116,8.5V6.193a5.193,5.193,0,0,0-10.385,0V8.5A1.7,1.7,0,0,0,5,10.231v7.5a1.736,1.736,0,0,0,1.731,1.731H17.116a1.736,1.736,0,0,0,1.731-1.731v-7.5A1.7,1.7,0,0,0,17.116,8.5ZM7.885,6.193a4.039,4.039,0,0,1,8.077,0V8.5H7.885ZM12.5,14.732V16a.577.577,0,0,1-1.154,0V14.732a1.681,1.681,0,0,1-1.154-1.615,1.731,1.731,0,0,1,3.462,0A1.681,1.681,0,0,1,12.5,14.732Z" transform="translate(-5 -1)" fill="#f6b333"/>
</svg>
