<svg xmlns="http://www.w3.org/2000/svg" width="24" height="24" viewBox="0 0 24 24"><defs><style>.a{fill:#fff;stroke:#707070;opacity:0;}.b{fill:#1c1b1b;}.c{stroke:none;}.d{fill:none;}</style></defs><g transform="translate(0 -0.377)"><g class="a" transform="translate(0 0.377)"><rect class="c" width="24" height="24"/><rect class="d" x="0.5" y="0.5" width="23" height="23"/></g><path class="b" d="M17.941,157.035l5.445,5.445a3.1,3.1,0,0,1-.807,4.969L17.085,170.2a.849.849,0,0,0-.422.481l-1.625,4.7a1.411,1.411,0,0,1-2.33.537l-3.5-3.5L4.2,177.422H3v-1.2l5.01-5.01-3.5-3.5a1.411,1.411,0,0,1,.537-2.331l4.7-1.625a.848.848,0,0,0,.481-.421l2.747-5.495a3.1,3.1,0,0,1,4.97-.807Zm4.249,6.641-5.445-5.445a1.411,1.411,0,0,0-2.259.367l-2.747,5.5a2.539,2.539,0,0,1-1.442,1.264l-4.275,1.478,7.565,7.564,1.476-4.275a2.538,2.538,0,0,1,1.264-1.441l5.5-2.749a1.41,1.41,0,0,0,.367-2.259Z" transform="translate(-1.647 -154.774)"/></g></svg>