<svg xmlns="http://www.w3.org/2000/svg" width="298.288" height="178.5" viewBox="0 0 298.288 178.5"><defs><style>.a{fill:#a1c2ec;}.b{fill:#bfd6f2;}.c{fill:#9abfe2;}.d{fill:#c8dbf4;}.e{fill:#9fc1f4;}.f{fill:#8cb4f4;}.g{fill:#bad4f4;}.h{fill:#dfebfd;}.i{fill:#b7d3f3;}.j{fill:#8cb8f8;}.k{fill:#fafcff;}.l{fill:#233862;}.m{fill:#ffb27d;}.n{fill:#0f2549;}.o{fill:#1d467c;}.p{fill:#2a5798;}.q{fill:#ffe2a9;}.r{fill:#e7b275;}.s{fill:#fff;}.t{fill:#ebf3ff;}.u{fill:#d48e07;}.v{fill:#ed7d2b;}.w{fill:#f6b333;}.x{fill:#182d4f;}.y{fill:#1b3051;}.z{fill:#73a2e5;}</style></defs><g transform="translate(-3.739 -3.562)"><g transform="translate(3.739 3.562)"><g transform="translate(0)"><path class="a" d="M2.014,10.465s-4.348-5.046-.268-8.252c0,0,2.98-1.794,5.41-1.649,0,0-3.443,5.739-2.329,6.315S8.2.2,8.2.2s6.782-.654,8.963.389c0,0-5.8,4.718-4.576,5s7.479-4.35,7.479-4.35,6.311,1.069,5.974,4.9-2.511,5.013-3.461,4.912-6.547-2.225-6.665-1.446,3.244,3.326,5.6,3.443c0,0-4.45,4.883-7.407,3.474s-3.217-3.642-5.065-4.486-3.417-.835-2.656.019,4.1,1.685,5.151,3.54,2,3.107-1.06,2.649S2.446,15.56,2.227,13.01Z" transform="translate(38.553 83.014)"/><path class="a" d="M24.742.03S7.6-.627,3.814,4.249A12.334,12.334,0,0,1,.4,9.016L0,10.105S2.971,6.989,4.034,6.8C4.034,6.8,2.371.758,24.742.03Z" transform="translate(36.752 89.229)"/><path class="a" d="M3.935.429A10.7,10.7,0,0,0,0,7.974l.668.06s1.175-5,3.3-6.958S3.935.429,3.935.429Z" transform="translate(33.219 97.811)"/><path class="a" d="M25.366,17.818s6.921-3.854,3.689-9.082c0,0-2.581-3.211-5.349-4.036,0,0,1.475,7.8,0,7.982s-1.014-8.808-1.014-8.808S15.407.386,12.549.662c0,0,4.518,7.615,3.043,7.431S9.045.2,9.045.2,1.576-1.171.378,3.23s.738,6.606,1.844,6.886,8.2.184,8.022,1.1S5.265,13.6,2.591,12.777c0,0,2.948,7.247,6.824,6.886s5.072-2.752,7.468-2.933,4.149.459,2.948,1.1-5.255.21-7.193,1.849-3.5,2.647.092,3.381,10.051.275,11.342-2.477Z" transform="translate(0 69.314)"/><path class="a" d="M0,0S19.364,6.239,21.576,13.212a14.576,14.576,0,0,0,1.844,6.7v1.376s-2.029-4.679-3.135-5.322C20.286,15.964,24.619,9.909,0,0Z" transform="translate(3.79 73.921)"/><path class="a" d="M.927.857a12.648,12.648,0,0,1,1.282,10l-.769-.205s.746-6.05-.816-9.093S.927.857.927.857Z" transform="translate(26.29 92.973)"/><path class="b" d="M5.993,23.483S-3.124,18.4,1.132,11.51c0,0,3.4-4.233,7.049-5.322,0,0-1.944,10.28,0,10.522s1.337-11.6,1.337-11.6S19.12.515,22.889.873c0,0-5.956,10.038-4.012,9.8s8.63-10.4,8.63-10.4S37.353-1.546,38.932,4.26s-.973,8.708-2.435,9.071-10.818.242-10.575,1.451,6.564,3.145,10.088,2.056c0,0-3.89,9.554-9,9.071s-6.685-3.628-9.846-3.87-5.47.6-3.89,1.451,6.929.278,9.485,2.437,4.614,3.489-.122,4.457S9.4,30.74,7.694,27.112Z" transform="translate(30.377 58.335)"/><path class="b" d="M30.878,0S5.352,8.224,2.435,17.416A19.19,19.19,0,0,1,0,26.245V28.06s2.674-6.168,4.132-7.014C4.136,21.044-1.577,13.063,30.878,0Z" transform="translate(33.934 64.402)"/><path class="b" d="M2.383,1.132A16.682,16.682,0,0,0,.692,14.319l1.013-.27S.721,6.075,2.781,2.061,2.383,1.132,2.383,1.132Z" transform="translate(31.555 89.515)"/><path class="c" d="M17.857,17.768a17.935,17.935,0,0,0,6.834-1.353,17.863,17.863,0,0,0,5.793-3.852A17.761,17.761,0,0,0,34.355,6.8,17.689,17.689,0,0,0,35.714,0H0A17.723,17.723,0,0,0,5.23,12.564a17.9,17.9,0,0,0,12.627,5.2Z" transform="translate(18.204 101.769)"/><path class="d" d="M2.2,0H34a2.209,2.209,0,0,1,1.558.642,2.187,2.187,0,0,1,.645,1.55H0A2.187,2.187,0,0,1,.645.642,2.209,2.209,0,0,1,2.2,0Z" transform="translate(17.958 118.247)"/><path class="e" d="M0,0H36.708V.545H0Z" transform="translate(17.617 101.766)"/><path class="f" d="M7.715,49.107H7.8a1.193,1.193,0,0,0,1.211-1.275L4.2,0,0,.372,6.912,48.461a.781.781,0,0,0,.8.645Z" transform="translate(120.492 129.035)"/><path class="f" d="M1.306,49.107H1.217A1.193,1.193,0,0,1,.006,47.831L4.82,0l4.2.372L2.108,48.461a.781.781,0,0,1-.8.645Z" transform="translate(80.55 129.035)"/><path class="f" d="M7.715,49.107H7.8a1.193,1.193,0,0,0,1.211-1.275L4.2,0,0,.372,6.912,48.461a.781.781,0,0,0,.8.645Z" transform="translate(154.45 129.035)"/><path class="f" d="M8.7,52.727.159,10.744C-.938,5.06,3.8-.138,9.942,0L26.421.378A13.006,13.006,0,0,1,38.633,9.727l12.5,43Z" transform="translate(74.586 69.349)"/><path class="f" d="M8.7,52.727.159,10.744C-.938,5.06,3.8-.138,9.942,0L26.421.378A13.006,13.006,0,0,1,38.628,9.727l12.5,43Z" transform="translate(79.755 69.349)"/><path class="f" d="M2.381,0h65.2a2.387,2.387,0,0,1,1.684.694,2.363,2.363,0,0,1,.7,1.675V7.663H2.381A2.388,2.388,0,0,1,.7,6.969,2.363,2.363,0,0,1,0,5.294V2.376A2.371,2.371,0,0,1,1.469.181,2.392,2.392,0,0,1,2.381,0Z" transform="matrix(-1, 0, 0, -1, 153.247, 129.733)"/><path class="f" d="M1.919,0H43.478A1.914,1.914,0,0,1,45.4,1.909V5.748a1.914,1.914,0,0,1-1.919,1.909H1.919A1.914,1.914,0,0,1,0,5.748V1.909A1.914,1.914,0,0,1,1.919,0Z" transform="matrix(-1, 0, 0, -1, 159.744, 129.733)"/><path class="c" d="M53.261.911V2.343c0,.5-.163.911-.363.911H.363c-.2,0-.363-.409-.363-.911V.911C0,.409.163,0,.363,0H52.9C53.1,0,53.261.411,53.261.911Z" transform="translate(10.576 120.618)"/><path class="g" d="M42.369.911V2.343c0,.5-.15.911-.332.911H.332C.149,3.253,0,2.844,0,2.343V.911C0,.409.15,0,.332,0h41.7C42.219,0,42.369.411,42.369.911Z" transform="translate(21.468 120.618)"/><path class="d" d="M0,0H37.294V54.085H0Z" transform="translate(13.247 123.873)"/><path class="h" d="M0,0H37.294V54.085H0Z" transform="translate(23.699 123.873)"/><path class="i" d="M33.286,49.568H0V0H33.286ZM.359,49.211H32.927V.356H.36Z" transform="translate(25.703 125.403)"/><path class="i" d="M0,0H32.927V.357H0Z" transform="translate(25.883 141.799)"/><path class="i" d="M0,0H32.927V.357H0Z" transform="translate(25.883 158.517)"/><path class="i" d="M6.65,1.074H.54A.542.542,0,0,1,.158.916.537.537,0,0,1,0,.537H0A.537.537,0,0,1,.158.158.542.542,0,0,1,.54,0H6.65a.542.542,0,0,1,.381.158.533.533,0,0,1,0,.759.542.542,0,0,1-.381.158Z" transform="translate(39.07 127.517)"/><path class="i" d="M6.65,1.074H.54A.54.54,0,0,1,0,.537H0A.537.537,0,0,1,.158.158.542.542,0,0,1,.54,0H6.65a.542.542,0,0,1,.381.158.533.533,0,0,1,0,.759.542.542,0,0,1-.381.158Z" transform="translate(39.07 143.873)"/><path class="i" d="M6.65,1.074H.54A.542.542,0,0,1,.158.916.537.537,0,0,1,0,.537H0A.537.537,0,0,1,.158.158.542.542,0,0,1,.54,0H6.65a.542.542,0,0,1,.381.158.537.537,0,0,1,.158.379h0a.537.537,0,0,1-.158.379.542.542,0,0,1-.381.158Z" transform="translate(39.07 160.914)"/><path class="j" d="M1.973,0h23.64a1.968,1.968,0,0,1,1.973,1.963v22.7a1.968,1.968,0,0,1-1.973,1.963H1.973A1.968,1.968,0,0,1,0,24.665V1.963A1.968,1.968,0,0,1,1.973,0Z" transform="translate(184.631)"/><path class="k" d="M1.8,0H23.394a1.8,1.8,0,0,1,1.8,1.793V22.528a1.8,1.8,0,0,1-1.8,1.793H1.8A1.8,1.8,0,0,1,0,22.528V1.793A1.8,1.8,0,0,1,1.8,0Z" transform="translate(185.825 1.154)"/><path class="i" d="M1.143.569A.572.572,0,1,1,.572,0,.57.57,0,0,1,1.143.569Z" transform="translate(197.852 3.015)"/><path class="i" d="M78.519,5.129a.567.567,0,0,1,.222.773.573.573,0,0,1-.777.221.567.567,0,0,1-.222-.773A.573.573,0,0,1,78.519,5.129Z" transform="translate(124.719 -0.965)"/><path class="i" d="M80.1,6.536a.567.567,0,0,1-.171.786.573.573,0,0,1-.79-.17.567.567,0,0,1,.171-.786A.573.573,0,0,1,80.1,6.536Z" transform="translate(127.11 1.151)"/><path class="i" d="M1.143.569A.572.572,0,1,1,.572,0,.57.57,0,0,1,1.143.569Z" transform="translate(207.798 12.343)"/><path class="i" d="M80.109,10.225a.567.567,0,0,1,0,.8.574.574,0,0,1-.808,0,.567.567,0,0,1,0-.8A.574.574,0,0,1,80.109,10.225Z" transform="translate(127.262 7.725)"/><path class="i" d="M78.8,11.533a.567.567,0,0,1,0,.8.574.574,0,0,1-.808,0,.567.567,0,0,1,0-.8A.574.574,0,0,1,78.8,11.533Z" transform="translate(124.984 9.998)"/><path class="i" d="M1.143.569A.572.572,0,1,1,.572,0,.57.57,0,0,1,1.143.569Z" transform="translate(197.852 22.808)"/><path class="i" d="M75.42,5.352a.567.567,0,0,1-.222.773A.573.573,0,0,1,74.42,5.9a.567.567,0,0,1,.222-.773A.573.573,0,0,1,75.42,5.352Z" transform="translate(118.948 -0.961)"/><path class="i" d="M73.859,6.366a.567.567,0,0,1,.17.786.573.573,0,0,1-.79.17.567.567,0,0,1-.17-.786A.573.573,0,0,1,73.859,6.366Z" transform="translate(116.566 1.151)"/><path class="i" d="M1.143.569A.572.572,0,1,1,.572,0,.57.57,0,0,1,1.143.569Z" transform="translate(187.888 12.343)"/><path class="i" d="M73.861,10.226a.567.567,0,0,1,0,.8.574.574,0,0,1-.808,0,.567.567,0,0,1,0-.8A.574.574,0,0,1,73.861,10.226Z" transform="translate(116.406 7.726)"/><path class="i" d="M75.172,11.534a.567.567,0,0,1,0,.8.574.574,0,0,1-.808,0,.567.567,0,0,1,0-.8A.574.574,0,0,1,75.172,11.534Z" transform="translate(118.684 9.998)"/><path class="i" d="M1.143.569A.572.572,0,1,1,.572,0,.57.57,0,0,1,1.143.569Z" transform="translate(198.269 12.343)"/><path class="i" d="M0,0H.16V7.1H0Z" transform="translate(198.763 5.809)"/><path class="i" d="M76.3,10.087,80.08,7.131l.289.366-3.785,2.956Z" transform="translate(122.332 2.638)"/><path class="l" d="M26.42,1a22.85,22.85,0,0,1-7.963,8.465H0S29.11-3.657,26.42,1Z" transform="translate(113.665 112.288)"/><path class="m" d="M.922,13.681c-.2,1.927,2.494,2.423,5.618,2.613s2.172.815,6.447,1.632,6-.33,6.32-.9c.282-.51-1.7-1.328-3.813-2.253-.267-.116-.532-.235-.8-.353C12.317,13.347,11,11.2,9.16,9.2,7.417,7.315,5.806,1.3,5.806,1.3L0,0S1.577,5.411,2.119,7.719a7.087,7.087,0,0,1-.641,4.015A7.613,7.613,0,0,0,.922,13.681Z" transform="translate(161.926 160.289)"/><path class="n" d="M5.627,4.555c3.124.189,2.173.815,6.447,1.632s6-.33,6.32-.9c.282-.51-1.7-1.328-3.813-2.253l-.033.036a12.256,12.256,0,0,1-6.488.008C5.239,2.279,2.513.565.566,0A7.547,7.547,0,0,0,.01,1.942C-.186,3.869,2.507,4.367,5.627,4.555Z" transform="translate(162.835 172.027)"/><path class="o" d="M56,17.275c-3.125-2.183-23.794-6.074-34.341-7.2L10,0S.075,14.623,0,25.811c-.037,5.217,2.378,5.739,2.379,5.739s37.372.275,39.011.444c2.681.275,6.219,6.922,7.1,12.976S64.961,75.645,64.961,75.645a19.616,19.616,0,0,0,4.753.949,4.736,4.736,0,0,0,2.365-.638S63.049,22.192,56,17.275Z" transform="translate(98.048 89.765)"/><path class="m" d="M.923,13.681c-.2,1.927,2.494,2.423,5.618,2.613s2.173.815,6.447,1.632,6-.33,6.32-.9c.282-.51-1.7-1.328-3.813-2.253-.265-.116-.532-.235-.8-.353C12.319,13.347,11,11.2,9.162,9.2,7.419,7.315,5.807,1.3,5.807,1.3L0,0S1.577,5.411,2.119,7.719a7.087,7.087,0,0,1-.641,4.015A7.662,7.662,0,0,0,.923,13.681Z" transform="translate(152.258 160.289)"/><path class="l" d="M5.627,4.555c3.124.189,2.173.815,6.447,1.632s6-.33,6.32-.9c.282-.51-1.7-1.328-3.813-2.253l-.033.036a12.256,12.256,0,0,1-6.488.008C5.24,2.279,2.514.565.567,0A7.547,7.547,0,0,0,.011,1.942C-.191,3.869,2.5,4.367,5.627,4.555Z" transform="translate(153.171 172.027)"/><path class="p" d="M56,17.28c-2.715-1.9-10.879-3.367-19.891-4.463A6.052,6.052,0,0,1,30.96,8.289h0L10,0S.075,14.623,0,25.811c-.037,5.217,2.378,5.739,2.379,5.739s37.372.275,39.011.444c2.681.275,6.219,6.922,7.1,12.976S64.961,75.645,64.961,75.645a19.616,19.616,0,0,0,4.753.949,4.736,4.736,0,0,0,2.365-.638S63.044,22.2,56,17.28Z" transform="translate(88.3 89.759)"/><path class="o" d="M38.116,1.878c-2.88-1.5-7.263-1.709-7.976-1.8C21.619-1.067,16.491,11.253,16.188,14.987c-.556,6.886-4.214,7.93-9.363,12.243C-3.5,35.87-.472,45.91,5.174,49.64c3.388,2.238,9.356,0,9.356,0,.085.059,16.329-9.035,24.336-13.422C50.872,34.513,45.456,5.712,38.116,1.878Z" transform="translate(78.132 27.127)"/><path class="q" d="M11.395,11.729c.037.019-3.786,1.75-6.547.842C2.251,11.72-.035,7.83,0,7.824,1.127,7.662,2.273,6.555,2.593,0l.5.128,8.391,2.111s-.332,2.645-.469,5.146C10.9,9.482,10.923,11.48,11.395,11.729Z" transform="translate(103.076 47.374)"/><path class="r" d="M8.628,1.544s0,.545-.314,3C3.572,3.358,1.477,1.792,0,0Z" transform="translate(105.932 48.065)"/><path class="q" d="M13.224,18.275s-11.1,1.8-12.115-5.1S-2.027,1.871,5.013.432s8.81.99,9.713,3.207S16.084,17.629,13.224,18.275Z" transform="translate(103.127 31.668)"/><path class="o" d="M16.246,1.235s-5.04,7.914-9.537,9.789S0,11.948,0,11.948A18.79,18.79,0,0,0,2.58,4.714,3.4,3.4,0,0,1,4.686,1.983C7.915.7,14.159-1.333,16.246,1.235Z" transform="translate(100.115 30.581)"/><path class="o" d="M0,2.118A17.873,17.873,0,0,1,4.167,5.034,13.4,13.4,0,0,1,6.6,11.754S8.059,3.8,5.024,1.061C1.8-1.836,0,2.118,0,2.118Z" transform="translate(111.937 30.463)"/><path class="s" d="M29.9,21.592c-.337,22.445-.092,17.752-2.563,19.881-.595.51-2.266.819-4.465.963-6.921.457-19.073-.677-19.536-1.949-1.6-4.4-.469-5.767-1.794-12.5-.138-.717-.31-1.492-.513-2.336-1.11-4.627-2.189-6.2,1.747-13.635,3.571-6.733,7.768-12.2,8.1-12.007,9.419,5.564,9.741.9,9.741.9S30.067,10.646,29.9,21.592Z" transform="translate(93.446 54.349)"/><path class="s" d="M0,0S9.641,1.626,10.779,5.778s7.836,28.566,7.836,28.566-4.927.881-7.2-1.384S3.491,11.948,3.491,11.948Z" transform="translate(114.066 55.256)"/><path class="t" d="M21.33,23.8c-6.921.457-19.073-.677-19.536-1.949C.2,17.451,1.325,16.084,0,9.346L3.332,0S2.781,10.407,5.865,13.145s12.63,5.285,14.129,7.571A8.326,8.326,0,0,1,21.33,23.8Z" transform="translate(94.992 72.987)"/><path class="m" d="M0,1.051S6.824-.46,7.923.142s3.791,2.8,4.128,3.561S9.6,3.123,8.694,2.881a8.1,8.1,0,0,0-2.9.638A9.673,9.673,0,0,1,.6,4.038Z" transform="translate(108.399 91.357)"/><path class="s" d="M22.6,0S12.942.561,9.769,4.963c-4.464,6.2-13.321,32.6-8.245,36.116,5.716,3.966,26.019,1.038,26.019,1.038s.675-3.141-.264-4.661S11.065,33.481,10.36,32.779,19.172,19.1,19.172,17,22.6,0,22.6,0Z" transform="translate(81.726 54.356)"/><path class="m" d="M0,0A13.144,13.144,0,0,0,1.9,2.054a1.4,1.4,0,0,0,.769.165L1.7.494Z" transform="translate(116.653 93.394)"/><path class="m" d="M0,0,4.157,2.008a.742.742,0,0,1-.688.265,9.935,9.935,0,0,1-1.8-.494Z" transform="translate(116.322 91.499)"/><path class="u" d="M19.305,1.53H0A1.526,1.526,0,0,1,.45.448,1.542,1.542,0,0,1,1.538,0H19.3Z" transform="translate(112.33 94.73)"/><path class="v" d="M7.352,0H37.2l-7.16,20.92H0Z" transform="translate(124.227 75.341)"/><path class="w" d="M37.2,0l-7.16,20.92H0L7.352,0Z" transform="translate(124.666 75.341)"/><path class="s" d="M2.952,1.447A1.939,1.939,0,0,1,1.158,2.895,1.114,1.114,0,0,1,.039,1.447,1.939,1.939,0,0,1,1.833,0,1.115,1.115,0,0,1,2.952,1.447Z" transform="translate(142.822 84.16)"/><path class="x" d="M1,0h130.8a.993.993,0,0,1,1,.991V3.715a.993.993,0,0,1-1,.991H1a.993.993,0,0,1-1-.991V.991A.993.993,0,0,1,1,0Z" transform="translate(104.662 96.261)"/><path class="x" d="M14.806,79.836l.056-.006a1.2,1.2,0,0,0,.808-.445,1.191,1.191,0,0,0,.252-.884L4.267,0,0,.128,13.714,79.053a.98.98,0,0,0,1.092.783Z" transform="translate(224.85 98.655)"/><path class="x" d="M1.125,79.836l-.056-.006a1.2,1.2,0,0,1-.808-.445A1.191,1.191,0,0,1,.008,78.5L11.664,0l4.267.128L2.217,79.053a.98.98,0,0,1-1.092.783Z" transform="translate(100.151 98.655)"/><path class="x" d="M1.125,79.836l-.056-.006a1.2,1.2,0,0,1-.808-.445A1.191,1.191,0,0,1,.008,78.5L11.664,0l4.267.128L2.217,79.053a.98.98,0,0,1-1.092.783Z" transform="translate(127.135 98.655)"/><path class="l" d="M0,11.769H23.128c1.113-1.351.7-6.334.534-7.963-.035-.328-.059-.519-.059-.519S15.706-3,14.62,1.814c-.033.15-.073.3-.117.444-1.366,4.5-7.5,6.547-11.038,7.117C1.165,9.749.314,10.939,0,11.769Z" transform="translate(197.024 166.658)"/><path class="o" d="M49.715,0C48.88,0,10.1,7.245,3.681,15.146.477,19.1,0,64.679,0,64.679S3.964,69.57,12.527,66.73c0,0,6.28-31.189,5.815-40.648-.128-2.616,26.5-.383,31.372-1.634S66.5,12.644,63.873,7.506,49.715,0,49.715,0Z" transform="translate(210.419 103.651)"/><path class="q" d="M14.44,0S6.622.1,4.767.893s-5.6,2.6-4.6,2.878,5.8-.115,6.833.043a17.531,17.531,0,0,0,2.948-.043h3.589Z" transform="translate(199.826 92.489)"/><path class="q" d="M15.866,10.367A14.336,14.336,0,0,0,10.611,8.1,22.828,22.828,0,0,1,6.83,7.325C4.439,6.487-.348,2.209.02,1.708,1.174.1,6.763,3.5,7.737,3.137S5.865.758,6.854.049c.513-.37,1.728,1.484,2.716,1.671,1.338.255,2.384,2.132,2.788,2.23a31.325,31.325,0,0,1,4.219,2.733Z" transform="translate(189.253 63.442)"/><path class="u" d="M42.9,0S36.949,1.836,31.081,17.912s-8.1,16.944-10.228,17.571S0,39.819,0,39.819V44.59H28.845S39.661,34.352,42.9,27.46,42.9,0,42.9,0Z" transform="translate(213.367 51.662)"/><path class="y" d="M0,11.769H23.128c1.113-1.351.7-6.334.534-7.963-.035-.328-.059-.519-.059-.519S15.706-3,14.62,1.814c-.033.15-.073.3-.117.444-1.366,4.5-7.5,6.547-11.038,7.117C1.165,9.749.314,10.939,0,11.769Z" transform="translate(186.802 166.658)"/><path class="p" d="M49.715,0C48.879,0,10.1,7.245,3.681,15.146.477,19.1,0,64.679,0,64.679S3.966,69.57,12.527,66.73c0,0,6.28-31.189,5.815-40.648-.128-2.616,26.5-.383,31.372-1.634S66.5,12.644,63.873,7.506,49.715,0,49.715,0Z" transform="translate(198.992 103.651)"/><path class="q" d="M2.425,20.639a37.839,37.839,0,0,0,8.244-1.785c3.161-1.02,5.708-2.512,4.067-5.385C13.224,10.819,10.775,4.9,10.94,0L5.059,4.718l-3.994,3.2a47.39,47.39,0,0,0,.454,5.2q.119.905.283,1.95a1.412,1.412,0,0,1-.113.81,1.42,1.42,0,0,1-.543.613l-.09.056A2.215,2.215,0,0,0,2.425,20.639Z" transform="translate(248.705 36.118)"/><path class="r" d="M.059,2.462A9.641,9.641,0,0,0,.206,5.679a16.72,16.72,0,0,0,6.89-3.4C5.283,1.78,4.624-.17,3.273.012Z" transform="translate(249.713 40.795)"/><path class="q" d="M2.672,22.553s13.7,2.265,14.986-6.249S21.578,2.355,12.886.55,2,1.737.876,4.474-.858,21.739,2.672,22.553Z" transform="translate(243.804 21.281)"/><path class="p" d="M.123,2.518c-.588,2.049.986,4.545,3.629,5.368C7.675,9.1,6.807,13.893,8.573,13.828s2.478-2.752,4.054-.606c1.345,1.831-1.119,4-.95,5.007.291,1.724,3.006,5.252,5.451,5.074s7.023-11.743,6.107-15.321S18.659.631,15.193.11s-8.279.968-9.39.968S.441,1.411.123,2.518Z" transform="translate(242.543 19.473)"/><path class="w" d="M34.238,16.244C32.258,8.315,26.788,0,23.085,0,16.779.011,7.715,1.668,4.055,10.651c-2.692,6.616-6.291,44.674-2.228,47.38,9.289,6.188,30.82,18.818,34.645,5.938C39.978,52.167,37.674,30.007,34.238,16.244Z" transform="translate(240.236 47.229)"/><path class="w" d="M58.721,4.767A7.455,7.455,0,0,0,53.752.272a7.5,7.5,0,0,0-6.589,1.293,70.64,70.64,0,0,0-7.926,7.37C27.47,21.4,25.078,21.325,22.869,21.068s-20.882-4.2-20.882-4.2A5.617,5.617,0,0,0,.468,18.7,3.453,3.453,0,0,0,.1,21.254c-.732-.471,6.619,4.571,10.277,6.58a100.915,100.915,0,0,0,15.011,6.088,3.893,3.893,0,0,0,2.522-.037c4.3-1.543,18.757-7.168,30.523-16.927C61.527,14.384,60.388,9.084,58.721,4.767Z" transform="translate(200.439 50.815)"/><path class="s" d="M16.355,3.2,14.927,0S2.148,1.037,0,8.273C0,8.273,9.906,3.355,16.355,3.2Z" transform="translate(247.601 44.108)"/><path class="f" d="M7.715,49.107H7.8a1.193,1.193,0,0,0,1.211-1.275L4.2,0,0,.372,6.912,48.461a.781.781,0,0,0,.8.645Z" transform="translate(287.267 129.035)"/><path class="f" d="M7.713,49.107H7.8a1.193,1.193,0,0,0,1.211-1.275L4.2,0,0,.372,6.912,48.461a.781.781,0,0,0,.8.645Z" transform="translate(262.491 129.035)"/><path class="z" d="M1.306,49.107H1.217A1.193,1.193,0,0,1,.006,47.831L4.82,0l4.2.372L2.108,48.461a.781.781,0,0,1-.8.645Z" transform="translate(222.386 129.035)"/><path class="f" d="M42.263,52.685l4.568-39.949C47.43,6.98,45.494,1.342,37.144.905L22.454.013C13.748-.344,9.818,6.865,8.716,12.415L0,56.329Z" transform="translate(251.357 69.572)"/><path class="z" d="M2.381,0H69.959V5.287a2.363,2.363,0,0,1-.7,1.675,2.388,2.388,0,0,1-1.684.694H2.381A2.388,2.388,0,0,1,.7,6.963,2.363,2.363,0,0,1,0,5.287V2.369A2.363,2.363,0,0,1,.7.694,2.388,2.388,0,0,1,2.381,0Z" transform="translate(223.588 122.076)"/><path class="f" d="M1.85,0H42.194V5.817a1.842,1.842,0,0,1-1.14,1.706,1.858,1.858,0,0,1-.709.141H1.85A1.854,1.854,0,0,1,.542,7.124,1.836,1.836,0,0,1,0,5.823V1.847A1.842,1.842,0,0,1,1.14.141,1.858,1.858,0,0,1,1.85,0Z" transform="translate(251.353 122.076)"/></g></g></g></svg>