<svg xmlns="http://www.w3.org/2000/svg" width="24" height="24" viewBox="0 0 24 24"><defs><style>.a,.b{fill:#fff;}.a{stroke:#707070;opacity:0;}.c{fill:#2a5798;}.d{stroke:none;}.e{fill:none;}</style></defs><g transform="translate(13839 -17922)"><g class="a" transform="translate(-13839 17922)"><rect class="d" width="24" height="24"/><rect class="e" x="0.5" y="0.5" width="23" height="23"/></g><g transform="translate(-13837.305 17923.592)"><path class="b" d="M16.488,5.476h-.041a6.183,6.183,0,0,0-12.284,0H4.122a4.122,4.122,0,1,0,0,8.244H16.488a4.122,4.122,0,0,0,0-8.244Z" transform="translate(0 0.8)"/><path class="c" d="M6.038,4.087a.687.687,0,1,0,.971-.971L4.1.2a.687.687,0,0,0-.973,0L.21,3.116a.687.687,0,1,0,.971.971L2.923,2.345v8.646a.687.687,0,0,0,1.374,0V2.345Z" transform="translate(6.695 8.337)"/></g></g></svg>