<svg xmlns="http://www.w3.org/2000/svg" width="20.3" height="20.242" viewBox="0 0 20.3 20.242">
  <g id="_5402394_internet_link_hyperlink_url_web_icon" data-name="5402394_internet_link_hyperlink_url_web_icon" transform="translate(-2.697 -2.747)">
    <path id="Path_3586" data-name="Path 3586" d="M17.9,14.315a1.086,1.086,0,0,1-.764-1.855l2.313-2.313a2.182,2.182,0,0,0,0-3.088L17.9,5.511a2.247,2.247,0,0,0-3.088,0L12.5,7.824A1.091,1.091,0,0,1,10.96,6.3l2.313-2.313a4.473,4.473,0,0,1,6.175,0l1.538,1.538a4.364,4.364,0,0,1,0,6.175L18.662,14A1.091,1.091,0,0,1,17.9,14.315Z" transform="translate(0.731)" fill="#f6b333"/>
    <path id="Path_3587" data-name="Path 3587" d="M8.6,22.262a4.364,4.364,0,0,1-3.088-1.276L3.977,19.448a4.364,4.364,0,0,1,0-6.175L6.3,10.96A1.091,1.091,0,0,1,7.828,12.5L5.515,14.811a2.182,2.182,0,0,0,0,3.088l1.549,1.549a2.247,2.247,0,0,0,3.088,0l2.313-2.313A1.091,1.091,0,1,1,14,18.662L11.69,20.975A4.364,4.364,0,0,1,8.6,22.262Z" transform="translate(0 0.726)" fill="#f6b333"/>
    <path id="Path_3588" data-name="Path 3588" d="M8.912,16.941a1.091,1.091,0,0,1-.775-1.866l6.95-6.939a1.092,1.092,0,1,1,1.538,1.549l-6.95,6.939A1.091,1.091,0,0,1,8.912,16.941Z" transform="translate(0.466 0.462)" fill="#f6b333"/>
  </g>
</svg>
