<svg xmlns="http://www.w3.org/2000/svg" width="20" height="20" viewBox="0 0 20 20"><defs><style>.a{fill:#fefefe;opacity:0;}.b{fill:#f4b844;}.c{fill:#575b6d;}.d{fill:#414451;}.e{fill:#62667c;}.f{fill:#585b6d;}</style></defs><g transform="translate(-348.687 -348.667)"><path class="a" d="M368.684,358.667q0,4.918,0,9.837c0,.128-.018.163-.157.163q-9.838-.007-19.676,0c-.147,0-.167-.038-.167-.172q.006-9.827,0-19.655c0-.134.019-.173.167-.173q9.828.008,19.656,0c.152,0,.177.04.177.182Q368.68,353.758,368.684,358.667Z" transform="translate(0)"/><path class="b" d="M480.712,426.791l-1.781-.009c-.4,0-.565-.127-.645-.523q-.721-3.57-1.432-7.143a1.11,1.11,0,0,1,1.14-1.38q3.81-.005,7.62,0a1.109,1.109,0,0,1,1.14,1.38q-.7,3.559-1.425,7.115c-.087.433-.242.55-.681.552l-1.751.009a.352.352,0,0,1-.268.084q-.824.01-1.648,0A.352.352,0,0,1,480.712,426.791Z" transform="translate(-123.118 -68.599)"/><path class="b" d="M478.486,542.538a6.042,6.042,0,0,0,1.065.028c.559.009,1.12.028,1.677,0a1.243,1.243,0,0,1,1.375.864.444.444,0,0,1-.036.606,1.179,1.179,0,0,1-1.219.792c-.993-.011-1.986.009-2.979.016a1.064,1.064,0,0,1-.534.047,7.233,7.233,0,0,1-1.391-.047c-1.012-.007-2.025-.02-3.037-.019a1.126,1.126,0,0,1-.98-.459,2.813,2.813,0,0,1-.181-.331.446.446,0,0,1-.036-.606,1.257,1.257,0,0,1,1.375-.865c.809.033,1.62.009,2.429.007a.666.666,0,0,0,.313-.029,1.617,1.617,0,0,1,.651-.038A9.41,9.41,0,0,1,478.486,542.538Z" transform="translate(-118.72 -183.691)"/><path class="c" d="M485.409,609.331c1.208.31,2.414.628,3.625.925a.438.438,0,0,1,.393.5,1.87,1.87,0,0,0,.037.719.983.983,0,0,1-.626,0,2.688,2.688,0,0,0,.028-.52c.013-.134-.048-.188-.17-.219-1.172-.3-2.343-.594-3.513-.9-.153-.04-.18,0-.178.139,0,.484,0,.969,0,1.453a.426.426,0,0,1-.534,0c0-.484-.005-.969,0-1.454,0-.144-.031-.182-.183-.142-1.169.309-2.339.61-3.51.911-.12.031-.184.087-.171.221a1.926,1.926,0,0,0,.036.518,1.251,1.251,0,0,1-.661.007,1.452,1.452,0,0,0,.06-.765.406.406,0,0,1,.343-.456c1.228-.309,2.454-.626,3.681-.941A1.117,1.117,0,0,1,485.409,609.331Z" transform="translate(-126.025 -245.161)"/><path class="d" d="M529.223,638.949l.534,0c.566.291.8.692.682,1.174a.975.975,0,1,1-1.421-1.07C529.085,639.019,529.154,638.985,529.223,638.949Z" transform="translate(-170.779 -272.682)"/><path class="d" d="M585.906,639.005a.986.986,0,0,1,.626,0,.948.948,0,0,1,.652,1.039.973.973,0,0,1-1.923.03A.943.943,0,0,1,585.906,639.005Z" transform="translate(-223.116 -272.687)"/><path class="d" d="M472.389,639.02a1,1,0,0,1,.661-.007.943.943,0,0,1,.628,1.1.974.974,0,0,1-1.909-.015A.957.957,0,0,1,472.389,639.02Z" transform="translate(-118.412 -272.691)"/><path class="b" d="M443.105,512.66c-.7-.039-.712.128-.7-.759.006-.686,0-.686.682-.686.311,0,.622.007.932,0,.264-.007.371.119.366.371,0,.223,0,.447,0,.67,0,.327-.067.388-.393.4a.594.594,0,0,0-.286.034A.875.875,0,0,1,443.105,512.66Z" transform="translate(-91.326 -154.837)"/><path class="b" d="M614.322,512.689a1.508,1.508,0,0,0-.2-.033c-.46-.017-.481-.038-.481-.513,0-1.049-.079-.915.918-.922.252,0,.5,0,.757,0a.269.269,0,0,1,.3.306c0,.253-.01.505,0,.757.014.282-.117.389-.386.372-.106-.007-.213.006-.32.01A.874.874,0,0,1,614.322,512.689Z" transform="translate(-249.324 -154.843)"/><path class="e" d="M531.06,588.016a1.709,1.709,0,0,0-1.345,0c0-.562-.009-1.124.019-1.684.011-.221-.163-.165-.248-.24a.217.217,0,0,1,.152-.077,12.179,12.179,0,0,1,1.45,0,.217.217,0,0,1,.152.077c-.082.061-.2.061-.2.229C531.063,586.883,531.056,587.45,531.06,588.016Z" transform="translate(-171.676 -223.823)"/><path class="c" d="M530,573.453h-1.754c-.113-.047-.105-.148-.1-.242,0-.3.007-.592.011-.889a13.767,13.767,0,0,1,1.942,0c0,.3.009.593.011.889C530.1,573.306,530.109,573.406,530,573.453Z" transform="translate(-170.432 -211.18)"/><path class="c" d="M451.451,529.555a1.374,1.374,0,0,1,.6.023q0,.491,0,.983c0,.647.261.907.911.915.067,0,.135,0,.2.006a1.728,1.728,0,0,0,.037.606,3.443,3.443,0,0,1-.639-.03,1.326,1.326,0,0,1-1.105-1.309C451.448,530.352,451.452,529.953,451.451,529.555Z" transform="translate(-99.687 -171.742)"/><path class="c" d="M608.747,529.58a1.386,1.386,0,0,1,.6-.023q0,.539,0,1.078a1.359,1.359,0,0,1-1.455,1.457c-.1,0-.194,0-.291,0a1.7,1.7,0,0,0,.036-.606c.963-.032,1.114-.188,1.114-1.152C608.745,530.081,608.746,529.83,608.747,529.58Z" transform="translate(-243.733 -171.744)"/><path class="f" d="M528.9,534.768a13.038,13.038,0,0,1-2.178,0q0-.354,0-.708H528.9Q528.9,534.414,528.9,534.768Z" transform="translate(-169.122 -175.913)"/></g></svg>