<svg xmlns="http://www.w3.org/2000/svg" width="32" height="32" viewBox="0 0 32 32"><defs><style>.a{fill:#fff;stroke:#707070;opacity:0;}.b{fill:#2a5798;}.c{fill:#f8b432;}.d{fill:#1e3e6c;}.e{fill:#575b6d;}.f{fill:#e39808;}.g{stroke:none;}.h{fill:none;}</style></defs><g transform="translate(-353 -836)"><g class="a" transform="translate(353 836)"><rect class="g" width="32" height="32"/><rect class="h" x="0.5" y="0.5" width="31" height="31"/></g><g transform="translate(352.78 836.048)"><path class="b" d="M23.735,8.38c2.014,0,4.029.012,6.031.012.782,0,1.031.252,1.031,1.045,0,1.586-.012,3.184,0,4.77a.914.914,0,0,1-.533.985c-.154.06-.178.168-.178.312,0,.2-.012.42-.024.625a.126.126,0,0,1-.13-.012c-.284-.541-.284-.541-.865-.384q-4.5,1.207-9.017,2.4c-.439.12-.889.24-1.327.36-.166.048-.344.12-.284.324.059.252.261.132.4.1,2.322-.6,4.633-1.225,6.956-1.85,1.161-.312,2.323-.613,3.484-.925.261-.072.581-.24.758.168,0,3.292-.012,6.572.012,9.852a3.31,3.31,0,0,1-.415,1.658,1.69,1.69,0,0,1-.652.108H3.39c-.2,0-.415.048-.592-.108a3.309,3.309,0,0,1-.415-1.658c.024-3.28.012-6.56.012-9.84.095-.312.332-.288.569-.228.865.192,1.718.445,2.583.673l6.612,1.766c.474.12.936.276,1.422.372.142.036.355.144.415-.084s-.142-.288-.32-.336c-1.149-.324-2.311-.625-3.472-.937q-3.395-.9-6.778-1.8c-.628-.168-.628-.156-.912.372a.105.105,0,0,1-.13.012c-.012-.168-.024-.324-.024-.493a.441.441,0,0,0-.3-.517.7.7,0,0,1-.415-.685c0-1.742-.012-3.484,0-5.214,0-.541.32-.817.9-.829H8.141c.19,0,.379-.012.581-.012A.831.831,0,0,1,9.3,8.188c1.09,0,2.18-.036,3.282.024q3.644-.072,7.3,0c1.09-.048,2.192-.024,3.282-.024A.84.84,0,0,1,23.735,8.38Z" transform="translate(0 0.004)"/><path class="b" d="M9.9,7.327c0-.493-.012-.985.012-1.49A1.859,1.859,0,0,1,11.75,3.975q4.479-.018,8.958,0a1.859,1.859,0,0,1,1.837,1.862c.012.493,0,.985.012,1.49a.267.267,0,0,1-.225.24A2.375,2.375,0,0,1,21,7.483c-.249-.3-.166-.661-.178-1-.024-.673-.095-.769-.747-.769-2.56,0-5.119-.012-7.679,0-.664,0-.747.1-.77.793a1.52,1.52,0,0,1-.166.961,2.314,2.314,0,0,1-1.339.1A.246.246,0,0,1,9.9,7.327Z" transform="translate(0.008 0)"/><path class="c" d="M21.018,7.323a6.506,6.506,0,0,0,1.529,0c.19.012.379.036.569.036.533.012.6.072.6.613v.4H19.857A.738.738,0,0,1,19.75,7.5c.119-.3.4-.3.675-.3A1.018,1.018,0,0,1,21.018,7.323Z" transform="translate(0.017 0.003)"/><path class="c" d="M9.9,7.324a5.919,5.919,0,0,0,1.529,0,1.006,1.006,0,0,1,.592-.132c.273,0,.557.024.675.312a.736.736,0,0,1-.095.865H8.74c.024-.853-.19-1.057.96-1.021A.613.613,0,0,0,9.9,7.324Z" transform="translate(0.007 0.003)"/><path class="b" d="M2.464,16.193c0,3.5-.012,6.992-.012,10.488,0,.12-.012.264.083.336.3.2.284.5.273.8-.4-.192-.427-.577-.427-.961V16.121h.071l.024.036Z" transform="translate(0.001 0.011)"/><path class="b" d="M29.623,27.835c-.012-.3-.036-.6.272-.8.107-.072.083-.216.083-.336,0-3.5-.012-6.992-.012-10.488l-.012-.036.024-.036h.071V26.826C30.05,27.223,30.05,27.619,29.623,27.835Z" transform="translate(0.026 0.011)"/><path class="c" d="M18.094,21.444a.58.58,0,0,1-.557.276c-.912-.012-1.825,0-2.737,0-.2,0-.427.024-.474-.264a17.156,17.156,0,0,1-.012-2.066c0-.733.024-1.466.012-2.2-.012-.42.154-.6.569-.589.865.012,1.742.012,2.619,0,.415-.012.581.168.569.589-.012.733,0,1.466.012,2.2A13.23,13.23,0,0,1,18.094,21.444Z" transform="translate(0.012 0.012)"/><path class="d" d="M29.989,16.134c0,.024-.012.048-.012.072-2.05.541-4.1,1.069-6.138,1.61-1.766.469-3.519.949-5.273,1.418-.166.048-.355.1-.379-.144-.012-.276-.154-.625.273-.745.462-.12.912-.252,1.374-.372q4.675-1.243,9.361-2.475C30,15.269,30,15.269,29.989,16.134Z" transform="translate(0.016 0.011)"/><path class="d" d="M2.467,16.194c0-.024-.012-.048-.012-.072-.012-.853,0-.865.806-.649l10.594,2.811a.573.573,0,0,1,.4.817c-.095.24-.273.108-.415.072-1.3-.336-2.607-.685-3.91-1.033C7.6,17.516,5.275,16.9,2.941,16.279A3.581,3.581,0,0,1,2.467,16.194Z" transform="translate(0.001 0.011)"/><path class="e" d="M14.329,19.374c0,.685,0,1.37.012,2.066A6.364,6.364,0,0,1,14.329,19.374Z" transform="translate(0.012 0.014)"/><path class="e" d="M18.092,21.441c0-.685.012-1.37.012-2.066A6.048,6.048,0,0,1,18.092,21.441Z" transform="translate(0.015 0.014)"/><path class="f" d="M15.062,19.124c0-.445.012-.9,0-1.346-.012-.288.119-.4.4-.4.5.012,1.007.012,1.5,0,.273,0,.415.084.4.384q-.018,1.37,0,2.739c0,.288-.119.4-.4.4-.5-.012-1.007-.012-1.5,0-.32.012-.415-.132-.4-.433C15.073,20.025,15.062,19.58,15.062,19.124Z" transform="translate(0.013 0.013)"/></g></g></svg>