<svg xmlns="http://www.w3.org/2000/svg" width="20" height="20" viewBox="0 0 20 20"><defs><style>.a{fill:#f6b333;}.b{fill:#fff;}.c{fill:#ed9e08;}</style></defs><path class="a" d="M5.047,0l-5,10,5,10a10,10,0,0,0,0-20Z" transform="translate(4.953)"/><path class="a" d="M0,10A10.033,10.033,0,0,0,10,20V0A10.033,10.033,0,0,0,0,10Z"/><path class="b" d="M3.7-.322l-4,8,4,8a8.276,8.276,0,0,0,8-8A8.276,8.276,0,0,0,3.7-.322Z" transform="translate(6.301 2.322)"/><path class="b" d="M-.322,7.678a8.276,8.276,0,0,0,8,8v-16A8.276,8.276,0,0,0-.322,7.678Z" transform="translate(2.322 2.322)"/><path class="c" d="M2.769,1.816l-2-2h-1l1,2,1,1Z" transform="translate(9.231 9.184)"/><path class="c" d="M1.143.139l-1,1,4,4v-2Z" transform="translate(5.857 5.861)"/><path class="c" d="M3.753.153l-3,3-1,2h1l4-4Z" transform="translate(9.247 5.847)"/><path class="c" d="M-.35,1.816l1,1,1-1v-2Z" transform="translate(8.35 9.184)"/><path class="c" d="M1.386.482h-1v1h1Z" transform="translate(9.614 3.518)"/><path class="c" d="M-.417.482h1v1h-1Z" transform="translate(9.417 3.518)"/><path class="c" d="M1.386-.321h-1v1h1Z" transform="translate(9.614 15.321)"/><path class="c" d="M-.417-.321h1v1h-1Z" transform="translate(9.417 15.321)"/><path class="c" d="M0,0H1.161V1.161H0Z" transform="translate(3.518 10.58) rotate(-90)"/><path class="c" d="M0,0H1.161V1.161H0Z" transform="translate(15.321 10.58) rotate(-90)"/></svg>