<svg xmlns="http://www.w3.org/2000/svg" width="20" height="20" viewBox="0 0 20 20"><defs><style>.a,.c{fill:#fff;}.a{opacity:0;}.b{fill:#f6b333;}</style></defs><g transform="translate(-1743.871 -713.871)"><rect class="a" width="20" height="20" transform="translate(1743.871 713.871)"/><g transform="translate(1745.871 715.871)"><g transform="translate(0 0)"><path class="b" d="M16,8A8,8,0,1,1,8,0,8,8,0,0,1,16,8Z"/><path class="b" d="M.011,0H0V16H.011A8.041,8.041,0,0,0,8.093,8,8.041,8.041,0,0,0,.011,0Z" transform="translate(7.906)"/><path class="c" d="M.105,3.7,3.317,6.967a.354.354,0,0,0,.507,0L9.1,1.6a.37.37,0,0,0,0-.516L8.137.107a.354.354,0,0,0-.507,0L3.795,4.01a.354.354,0,0,1-.507,0L1.569,2.261a.354.354,0,0,0-.5-.007l-.956.92A.37.37,0,0,0,.105,3.7Z" transform="translate(3.405 4.463)"/><path class="c" d="M3.617.107a.365.365,0,0,0-.516,0L0,3.207V6.194L4.594,1.6a.365.365,0,0,0,0-.516Z" transform="translate(7.955 4.47)"/></g></g></g></svg>