<svg xmlns="http://www.w3.org/2000/svg" width="28.258" height="19.783" viewBox="0 0 28.258 19.783"><defs><style>.a{fill:#fff;}</style></defs><path class="a" d="M27.683,3.11A3.538,3.538,0,0,0,25.2.617C22.984.01,14.139,0,14.139,0S5.295-.01,3.082.57A3.614,3.614,0,0,0,.589,3.081,37.411,37.411,0,0,0,0,9.878a37.182,37.182,0,0,0,.573,6.8,3.538,3.538,0,0,0,2.489,2.492c2.234.607,11.055.617,11.055.617s8.846.01,11.057-.569a3.551,3.551,0,0,0,2.495-2.489,37.244,37.244,0,0,0,.589-6.794,35.416,35.416,0,0,0-.575-6.821ZM11.309,14.126l.007-8.471L18.668,9.9l-7.359,4.229Z" transform="translate(0 0)"/></svg>