<svg xmlns="http://www.w3.org/2000/svg" width="24" height="24" viewBox="0 0 24 24"><defs><style>.a{fill:#f34a38;}.b,.c{fill:#fff;}.b{stroke:#707070;opacity:0;}.d{stroke:none;}.e{fill:none;}</style></defs><g transform="translate(12231 -5313)"><circle class="a" cx="12" cy="12" r="12" transform="translate(-12231 5313)"/><g transform="translate(2131.388 -11393.611)"><g class="b" transform="translate(-14356.388 16712.611)"><rect class="d" width="12" height="12"/><rect class="e" x="0.5" y="0.5" width="11" height="11"/></g><g transform="translate(-14355.981 16714.697)"><path class="c" d="M10.959,1.231A1.4,1.4,0,0,0,9.974.244,32.768,32.768,0,0,0,5.6,0,33.98,33.98,0,0,0,1.22.226a1.431,1.431,0,0,0-.987.994A14.81,14.81,0,0,0,0,3.91,14.719,14.719,0,0,0,.227,6.6a1.4,1.4,0,0,0,.985.986,32.831,32.831,0,0,0,4.376.244,34.057,34.057,0,0,0,4.377-.225,1.406,1.406,0,0,0,.988-.985,14.743,14.743,0,0,0,.233-2.689,14.02,14.02,0,0,0-.227-2.7ZM4.477,5.592l0-3.353,2.91,1.68L4.477,5.592Z" transform="translate(0 0)"/></g></g></g></svg>