<svg xmlns="http://www.w3.org/2000/svg" width="206" height="60" viewBox="0 0 206 60"><defs><style>.a{fill:#2a5798;}.b{fill:#f6b333;}</style></defs><path className="a" d="M15.582,3.534a1.84,1.84,0,0,0,1.31-.476,1.641,1.641,0,0,0,.391-.57,1.665,1.665,0,0,0,.124-.683,1.756,1.756,0,0,0-.12-.71,1.732,1.732,0,0,0-.394-.6,1.817,1.817,0,0,0-.609-.381A1.8,1.8,0,0,0,15.577,0H1.854a1.8,1.8,0,0,0-.709.127A1.807,1.807,0,0,0,.129,1.146,1.843,1.843,0,0,0,0,1.883V22.788a1.888,1.888,0,0,0,.135.725,1.863,1.863,0,0,0,.4.615,1.828,1.828,0,0,0,.6.408,1.8,1.8,0,0,0,.713.137H15.582a1.8,1.8,0,0,0,.706-.114,1.817,1.817,0,0,0,.609-.381,1.732,1.732,0,0,0,.394-.6,1.755,1.755,0,0,0,.12-.71,1.665,1.665,0,0,0-.123-.685,1.641,1.641,0,0,0-.391-.571,1.84,1.84,0,0,0-1.31-.476H3.707V14h8.442a1.82,1.82,0,0,0,1.287-.492,1.77,1.77,0,0,0,.39-.58,1.8,1.8,0,0,0,0-1.378,1.77,1.77,0,0,0-.39-.58,1.82,1.82,0,0,0-1.287-.492H3.707V3.534Z" transform="translate(66.787 34.513)"/><path className="a" d="M16.781.513a1.927,1.927,0,0,0-2.617,0,1.8,1.8,0,0,0-.4.616,1.819,1.819,0,0,0-.119.726V9.462a7.837,7.837,0,0,0-9.705-1.2,8.062,8.062,0,0,0-2.893,3.179A9.665,9.665,0,0,0,0,15.938a9.134,9.134,0,0,0,1.13,4.506,8.362,8.362,0,0,0,3.124,3.192,8.606,8.606,0,0,0,4.4,1.164,8.359,8.359,0,0,0,4.327-1.137,8.54,8.54,0,0,0,3.155-3.218A9.042,9.042,0,0,0,17.3,15.936V1.852a1.859,1.859,0,0,0-.123-.723,1.835,1.835,0,0,0-.392-.616ZM13.1,18.767a5.03,5.03,0,0,1-1.83,1.978h0a5.1,5.1,0,0,1-5.214,0,5.133,5.133,0,0,1-1.845-1.978,5.906,5.906,0,0,1-.679-2.831,5.834,5.834,0,0,1,.679-2.813,5.166,5.166,0,0,1,1.845-1.965A5,5,0,0,1,13.1,13.12a5.93,5.93,0,0,1,.667,2.816,6.018,6.018,0,0,1-.667,2.831Z" transform="translate(84.275 34.525)"/><path className="a" d="M15.628.519a1.927,1.927,0,0,0-2.617,0,1.8,1.8,0,0,0-.4.616,1.819,1.819,0,0,0-.119.726v8.706a3.3,3.3,0,0,1-.546,1.853,3.878,3.878,0,0,1-1.544,1.327,4.866,4.866,0,0,1-2.2.5,4.586,4.586,0,0,1-3.318-1.2A4.781,4.781,0,0,1,3.65,9.461V1.854A1.87,1.87,0,0,0,3.116.543a1.8,1.8,0,0,0-2.579,0A1.87,1.87,0,0,0,0,1.854V9.443a9.336,9.336,0,0,0,.975,4.409A6.775,6.775,0,0,0,3.7,16.667a8.258,8.258,0,0,0,6.854.4A7.125,7.125,0,0,0,12.5,15.9a1.772,1.772,0,0,0,.515,1.047,1.884,1.884,0,0,0,2.625,0,1.835,1.835,0,0,0,.386-.6,1.859,1.859,0,0,0,.129-.707V1.854a1.859,1.859,0,0,0-.123-.723,1.835,1.835,0,0,0-.392-.616Z" transform="translate(103.504 41.714)"/><path className="a" d="M8.5,3.34a4.9,4.9,0,0,1,1.943.364A4.59,4.59,0,0,1,12,4.853a1.805,1.805,0,0,0,.624.482,1.777,1.777,0,0,0,.766.167,1.442,1.442,0,0,0,.854-.262,1.612,1.612,0,0,0,.57-.582,1.646,1.646,0,0,0,.217-.792,1.442,1.442,0,0,0-.371-.987A7.859,7.859,0,0,0,11.907.728,7.732,7.732,0,0,0,8.5,0,8.6,8.6,0,0,0,4.116,1.134,7.922,7.922,0,0,0,1.082,4.3,9.577,9.577,0,0,0,0,8.864,9.235,9.235,0,0,0,1.113,13.37,8.176,8.176,0,0,0,4.2,16.549,8.731,8.731,0,0,0,8.651,17.7a7.949,7.949,0,0,0,5.662-2.151,1.426,1.426,0,0,0,.327-.469,1.446,1.446,0,0,0,.118-.562,1.742,1.742,0,0,0-.192-.748,1.712,1.712,0,0,0-.5-.587,1.769,1.769,0,0,0-2.255.162,4.746,4.746,0,0,1-3.166,1.015,5.081,5.081,0,0,1-2.669-.7,4.84,4.84,0,0,1-1.8-1.944,6.1,6.1,0,0,1-.651-2.85A5.746,5.746,0,0,1,4.914,4.839,4.708,4.708,0,0,1,6.55,3.7,4.641,4.641,0,0,1,8.5,3.34Z" transform="translate(121.103 41.623)"/><path className="a" d="M13.037,1.165A8.449,8.449,0,0,0,8.661,0,8.608,8.608,0,0,0,4.255,1.165a8.367,8.367,0,0,0-3.124,3.2A9.136,9.136,0,0,0,0,8.871a9.66,9.66,0,0,0,1.05,4.5,8.062,8.062,0,0,0,2.893,3.179,7.761,7.761,0,0,0,9.7-1.206v.413a1.883,1.883,0,0,0,.119.731,1.86,1.86,0,0,0,.391.626,1.824,1.824,0,0,0,.6.42,1.8,1.8,0,0,0,1.428,0,1.824,1.824,0,0,0,.6-.42,1.86,1.86,0,0,0,.391-.626,1.883,1.883,0,0,0,.119-.731V8.871A9.045,9.045,0,0,0,16.14,4.363a8.568,8.568,0,0,0-3.1-3.2ZM13.1,11.679a5.055,5.055,0,0,1-1.83,1.963h0a5.1,5.1,0,0,1-5.214,0,5.161,5.161,0,0,1-1.845-1.965,5.818,5.818,0,0,1-.679-2.813,5.908,5.908,0,0,1,.69-2.821A5.138,5.138,0,0,1,6.064,4.064a4.95,4.95,0,0,1,5.75.384,5.08,5.08,0,0,1,1.292,1.595,6.023,6.023,0,0,1,.667,2.834A5.927,5.927,0,0,1,13.1,11.69Z" transform="translate(136.745 41.618)"/><path className="a" d="M10.6,19.892A1.47,1.47,0,0,0,10.1,19.5a1.447,1.447,0,0,0-.622-.134H8.445a1.739,1.739,0,0,1-.8-.191,1.771,1.771,0,0,1-.628-.539,2.91,2.91,0,0,1-.607-1.892V9.394H8.726a1.718,1.718,0,0,0,1.22-.445,1.483,1.483,0,0,0,.363-.512,1.505,1.505,0,0,0,.121-.619,1.577,1.577,0,0,0-.114-.65,1.555,1.555,0,0,0-.37-.543,1.718,1.718,0,0,0-1.22-.445H6.41V2.015a1.861,1.861,0,0,0-.081-.755A1.839,1.839,0,0,0,5.953.6,1.8,1.8,0,0,0,5.348.157a1.775,1.775,0,0,0-1.462,0A1.8,1.8,0,0,0,3.281.6a1.839,1.839,0,0,0-.375.657,1.861,1.861,0,0,0-.081.755V6.183H1.7a1.715,1.715,0,0,0-1.217.445,1.555,1.555,0,0,0-.37.543A1.577,1.577,0,0,0,0,7.821a1.5,1.5,0,0,0,.121.619,1.48,1.48,0,0,0,.363.512A1.715,1.715,0,0,0,1.7,9.4H2.827v7.348a6.9,6.9,0,0,0,.726,3.2A5.749,5.749,0,0,0,5.578,22.2a5.23,5.23,0,0,0,2.865.83h.546a2.175,2.175,0,0,0,1.467-.5,1.661,1.661,0,0,0,.449-.592,1.688,1.688,0,0,0,.149-.732A1.9,1.9,0,0,0,10.6,19.9Z" transform="translate(153.469 36.187)"/><path className="a" d="M2.313,0A2.272,2.272,0,0,0,.851.521a2.341,2.341,0,0,0-.8,1.346,2.369,2.369,0,0,0,.22,1.559A2.31,2.31,0,0,0,1.41,4.488a2.261,2.261,0,0,0,1.547.082A2.3,2.3,0,0,0,4.2,3.634,2.363,2.363,0,0,0,3.919.683a2.2,2.2,0,0,0-.734-.51A2.169,2.169,0,0,0,2.313,0Z" transform="translate(164.65 35.541)"/><path className="a" d="M1.8,0a1.775,1.775,0,0,0-.695.131A1.754,1.754,0,0,0,.12,1.14,1.819,1.819,0,0,0,0,1.866V15.607a1.906,1.906,0,0,0,.326,1.026,1.859,1.859,0,0,0,.825.676,1.825,1.825,0,0,0,1.055.106,1.843,1.843,0,0,0,.939-.5,1.835,1.835,0,0,0,.386-.6,1.859,1.859,0,0,0,.129-.707V1.855a1.79,1.79,0,0,0-.113-.724A1.767,1.767,0,0,0,3.156.517a1.732,1.732,0,0,0-.6-.4A1.709,1.709,0,0,0,1.839,0Z" transform="translate(165.041 41.749)"/><path className="a" d="M13.1,1.134A8.746,8.746,0,0,0,8.664,0,8.89,8.89,0,0,0,4.186,1.134,8,8,0,0,0,1.1,4.274a10.052,10.052,0,0,0,0,9.133,7.987,7.987,0,0,0,3.088,3.14,9.385,9.385,0,0,0,8.941,0,8.027,8.027,0,0,0,3.065-3.14,9.988,9.988,0,0,0-.015-9.135A8.135,8.135,0,0,0,13.1,1.134Zm.018,10.58a4.837,4.837,0,0,1-1.8,1.944,5.312,5.312,0,0,1-5.279,0,4.937,4.937,0,0,1-1.827-1.947A5.992,5.992,0,0,1,3.54,8.864,6.085,6.085,0,0,1,4.206,6a4.923,4.923,0,0,1,1.827-1.96,5.31,5.31,0,0,1,5.279,0A4.817,4.817,0,0,1,13.114,6a6.2,6.2,0,0,1,.651,2.878,6.1,6.1,0,0,1-.651,2.837Z" transform="translate(170.755 41.626)"/><path className="a" d="M15.145,3.776A6.783,6.783,0,0,0,12.422.961h0A8.256,8.256,0,0,0,5.568.56,7.13,7.13,0,0,0,3.62,1.73,1.761,1.761,0,0,0,3.134.665a1.927,1.927,0,0,0-2.617,0,1.8,1.8,0,0,0-.4.616A1.819,1.819,0,0,0,0,2.007V15.779A1.906,1.906,0,0,0,.327,16.8a1.859,1.859,0,0,0,.825.676,1.831,1.831,0,0,0,1.994-.394,1.835,1.835,0,0,0,.386-.6,1.859,1.859,0,0,0,.129-.707V7.073a3.3,3.3,0,0,1,.546-1.853A3.891,3.891,0,0,1,5.751,3.894a4.871,4.871,0,0,1,2.2-.5,4.586,4.586,0,0,1,3.318,1.2,4.787,4.787,0,0,1,1.235,3.582v7.589a1.87,1.87,0,0,0,.534,1.311,1.8,1.8,0,0,0,2.579,0,1.87,1.87,0,0,0,.534-1.311V8.183a9.345,9.345,0,0,0-1.009-4.407Z" transform="translate(189.844 41.595)"/><path className="a" d="M13.735,1.984V.72a.726.726,0,0,0-.207-.509.7.7,0,0,0-.5-.211H5.121a.7.7,0,0,0-.5.211A.726.726,0,0,0,4.413.72v2.2a.726.726,0,0,0,.207.509.7.7,0,0,0,.5.211H9.949a.185.185,0,0,1,.073.013.188.188,0,0,1,.063.041.191.191,0,0,1,.042.063.194.194,0,0,1,.015.074c0,2.664,0,6.128-.018,7.507A13.758,13.758,0,0,1,8.668,17.26a14.488,14.488,0,0,1-5.4,5.94A25.949,25.949,0,0,1,.432,24.577a.711.711,0,0,0-.365.356.728.728,0,0,0-.037.513l.623,2.117a.726.726,0,0,0,.142.265.712.712,0,0,0,.236.183.692.692,0,0,0,.574,0A32.743,32.743,0,0,0,5.16,26.291a18.27,18.27,0,0,0,6.72-7.4,17.434,17.434,0,0,0,1.84-7.5C13.751,9.6,13.74,4.216,13.735,1.984Z" transform="translate(66.873 0.479)"/><path className="a" d="M4.2,16.549a9.385,9.385,0,0,0,8.941,0,8.027,8.027,0,0,0,3.065-3.14,9.38,9.38,0,0,0,1.1-4.551,9.342,9.342,0,0,0-1.114-4.585A8.135,8.135,0,0,0,13.1,1.134,8.746,8.746,0,0,0,8.665,0,8.89,8.89,0,0,0,4.186,1.134,7.992,7.992,0,0,0,1.1,4.274,9.441,9.441,0,0,0,0,8.856a9.374,9.374,0,0,0,1.1,4.551,7.986,7.986,0,0,0,3.1,3.143Zm0-10.564a4.923,4.923,0,0,1,1.827-1.96,5.31,5.31,0,0,1,5.279,0,4.817,4.817,0,0,1,1.8,1.957,6.2,6.2,0,0,1,.651,2.878,6.1,6.1,0,0,1-.631,2.837,4.84,4.84,0,0,1-1.8,1.944h0a5.312,5.312,0,0,1-5.279,0A4.937,4.937,0,0,1,4.217,11.7a5.991,5.991,0,0,1-.672-2.847,6.085,6.085,0,0,1,.661-2.863Z" transform="translate(81.101 11.395)"/><path className="a" d="M8.621,24.81a8.608,8.608,0,0,0,4.4-1.162,8.364,8.364,0,0,0,3.124-3.192,9.133,9.133,0,0,0,1.135-4.506,9.671,9.671,0,0,0-1.05-4.5A8.062,8.062,0,0,0,13.333,8.27a7.761,7.761,0,0,0-9.7,1.206V1.867A1.906,1.906,0,0,0,3.327.839,1.861,1.861,0,0,0,2.513.151a1.83,1.83,0,0,0-2,.36,1.8,1.8,0,0,0-.4.616A1.819,1.819,0,0,0,0,1.853v14.1a9.04,9.04,0,0,0,1.145,4.509A8.54,8.54,0,0,0,4.3,23.676a8.359,8.359,0,0,0,4.327,1.137Zm-5.1-8.86a5.925,5.925,0,0,1,.667-2.816A5.152,5.152,0,0,1,5.49,11.569a5.02,5.02,0,0,1,5.726-.4,5.174,5.174,0,0,1,1.845,1.965,5.834,5.834,0,0,1,.692,2.816,5.909,5.909,0,0,1-.679,2.831,5.137,5.137,0,0,1-1.858,1.976,4.95,4.95,0,0,1-5.75-.384,5.08,5.08,0,0,1-1.292-1.595,6.013,6.013,0,0,1-.656-2.829Z" transform="translate(99.835 4.722)"/><path className="a" d="M11.054,17a5.366,5.366,0,0,0,2.35-1.923,4.9,4.9,0,0,0,.806-2.735,4.263,4.263,0,0,0-.364-1.837,4.2,4.2,0,0,0-1.113-1.494A10.806,10.806,0,0,0,7.917,7.066a14.276,14.276,0,0,1-2.412-.68,2.457,2.457,0,0,1-1.029-.68,1.422,1.422,0,0,1-.257-.869,1.228,1.228,0,0,1,.749-1.1A4.6,4.6,0,0,1,7.132,3.3a6.146,6.146,0,0,1,1.977.277,4.287,4.287,0,0,1,1.513.947,2.329,2.329,0,0,0,1.611.659,1.666,1.666,0,0,0,1.029-.311,1.5,1.5,0,0,0,.443-.513A1.527,1.527,0,0,0,13.88,3.7a1.864,1.864,0,0,0-.463-1.151A6.353,6.353,0,0,0,10.843.671,9.478,9.478,0,0,0,7.2,0a9.044,9.044,0,0,0-3.13.542A5.658,5.658,0,0,0,1.647,2.2,4.146,4.146,0,0,0,.7,4.931C.7,7.563,2.733,9.3,6.751,10.083a8.992,8.992,0,0,1,3.088,1.023,1.594,1.594,0,0,1,.818,1.358,1.523,1.523,0,0,1-.226.787,1.489,1.489,0,0,1-.6.55,4.913,4.913,0,0,1-2.545.547,6.111,6.111,0,0,1-2.358-.458,4.439,4.439,0,0,1-1.639-1.065,1.755,1.755,0,0,0-2.574-.149,1.7,1.7,0,0,0-.534.622A1.732,1.732,0,0,0,0,14.1a1.593,1.593,0,0,0,.12.627,1.571,1.571,0,0,0,.356.527A7.725,7.725,0,0,0,3.434,17.02a11.832,11.832,0,0,0,3.979.665A8.878,8.878,0,0,0,11.054,17Z" transform="translate(117.511 11.39)"/><path className="a" d="M2.278,4.638a2.277,2.277,0,0,0,1.605-.684,2.34,2.34,0,0,0,.406-2.726A2.3,2.3,0,0,0,3.547.393,2.246,2.246,0,0,0,1.408.176a2.281,2.281,0,0,0-.89.671A2.343,2.343,0,0,0,.669,3.955a2.2,2.2,0,0,0,.735.51,2.169,2.169,0,0,0,.874.173Z" transform="translate(139 5.133)"/><path className="a" d="M1.8,0a1.775,1.775,0,0,0-.695.131A1.754,1.754,0,0,0,.12,1.142,1.819,1.819,0,0,0,0,1.868V15.609a1.906,1.906,0,0,0,.326,1.026,1.859,1.859,0,0,0,.825.676,1.825,1.825,0,0,0,1.055.106,1.843,1.843,0,0,0,.939-.5,1.835,1.835,0,0,0,.386-.6,1.859,1.859,0,0,0,.129-.707V1.855a1.79,1.79,0,0,0-.113-.724A1.767,1.767,0,0,0,3.156.517a1.732,1.732,0,0,0-.6-.4A1.709,1.709,0,0,0,1.839,0Z" transform="translate(139.478 11.499)"/><path className="a" d="M1.8,17.637a1.737,1.737,0,0,0,.714-.121,1.761,1.761,0,0,0,.606-.4,1.835,1.835,0,0,0,.386-.6,1.859,1.859,0,0,0,.129-.707V7.076a3.3,3.3,0,0,1,.546-1.853A3.891,3.891,0,0,1,5.72,3.9a4.871,4.871,0,0,1,2.2-.5,4.586,4.586,0,0,1,3.318,1.2,4.787,4.787,0,0,1,1.235,3.582v7.589a1.87,1.87,0,0,0,.534,1.311,1.8,1.8,0,0,0,2.579,0,1.87,1.87,0,0,0,.534-1.311V8.185a9.347,9.347,0,0,0-.975-4.409A6.783,6.783,0,0,0,12.425.961h0A8.256,8.256,0,0,0,5.571.56,7.13,7.13,0,0,0,3.623,1.73,1.761,1.761,0,0,0,3.134.667a1.927,1.927,0,0,0-2.617,0,1.8,1.8,0,0,0-.4.616A1.819,1.819,0,0,0,0,2.01V15.782a1.838,1.838,0,0,0,.127.716,1.814,1.814,0,0,0,.394.607,1.779,1.779,0,0,0,.6.4,1.755,1.755,0,0,0,.7.129Z" transform="translate(145.787 11.348)"/><path className="b" d="M26.94,59.209l1.367-4.722a.927.927,0,0,0-.045-.655.942.942,0,0,0-.469-.465,56.674,56.674,0,0,1-6.177-3.053A31.851,31.851,0,0,1,9.823,37.189a30.755,30.755,0,0,1-3.181-13.1C6.593,21.058,6.6,13.277,6.605,7.725a.9.9,0,0,1,.256-.646A.921.921,0,0,1,7.5,6.8H25.8a.924.924,0,0,0,.644-.28.9.9,0,0,0,.254-.648V.929A.905.905,0,0,0,26.437.28.926.926,0,0,0,25.793,0H.912A.926.926,0,0,0,.266.279.905.905,0,0,0,.009.929V3.74c0,4.834-.033,16.539.028,20.462a37.661,37.661,0,0,0,3.886,16.03,38.927,38.927,0,0,0,14.2,15.839,72.427,72.427,0,0,0,7.605,3.717.9.9,0,0,0,.74-.016.889.889,0,0,0,.3-.231.877.877,0,0,0,.174-.333Z" transform="translate(0)"/><path className="a" d="M11.158,0A35.1,35.1,0,0,1,6.731,3.446,58.174,58.174,0,0,1,.554,6.586a.955.955,0,0,0-.469.478.978.978,0,0,0-.045.674L1.409,12.6a.911.911,0,0,0,.171.345.893.893,0,0,0,.3.241.877.877,0,0,0,.742.022,71.362,71.362,0,0,0,7.605-3.823A41.2,41.2,0,0,0,15.858,4.92Z" transform="translate(31.167 46.724)"/><path className="a" d="M26.674,3.847V.955a.945.945,0,0,0-.256-.667A.914.914,0,0,0,25.773,0H.891A.915.915,0,0,0,.253.292.946.946,0,0,0,0,.955V6.039A.948.948,0,0,0,.062,6.4a.936.936,0,0,0,.192.308.919.919,0,0,0,.294.209.906.906,0,0,0,.35.079H19.19a.91.91,0,0,1,.634.29.94.94,0,0,1,.251.66c0,5.71,0,13.714-.036,16.834a32.361,32.361,0,0,1-3.184,13.466c-.391.824-.813,1.62-1.256,2.394l4.8,5.024a40.64,40.64,0,0,0,2.358-4.273A39.629,39.629,0,0,0,26.646,24.9C26.708,20.845,26.687,8.826,26.674,3.847Z" transform="translate(32.281 0.131)"/><path className="a" d="M41.648,36.993l-7.863-8.1L32.47,27.55l-.1-.1a18.1,18.1,0,0,0,1.243-2.193,17.477,17.477,0,0,0,1.7-7.576A17.644,17.644,0,0,0,8.444,2.6,17.959,17.959,0,0,0,5.562,4.81a17.7,17.7,0,0,0-4.8,7.71,16.766,16.766,0,0,0-.515,2.208,16.5,16.5,0,0,0-.229,2.208c0,.258-.018.5-.018.75a18.481,18.481,0,0,0,.167,2.425c.039.317.1.649.178,1.049.064.309.136.636.224.977a.343.343,0,0,0,.028.093A17.577,17.577,0,0,0,2.4,26.57,17.909,17.909,0,0,0,3.7,28.5c.394.515.772.93,1.12,1.306s.721.732,1.1,1.077a17.606,17.606,0,0,0,21.5,1.546l.057.057,9.165,9.441a3.511,3.511,0,0,0,5.006-4.924Zm-12-19.3a11.972,11.972,0,1,1-23.943,0,6.881,6.881,0,0,1,.026-.727,11.794,11.794,0,0,1,.324-2.134,11.97,11.97,0,0,1,23.593,2.855Z" transform="translate(11.652 9.054)"/><path className="b" d="M8.685,16.079c3.184-3.292,10.552-11.354,13.427-14.3,1.928-1.978,3.652-2.3,5-.984,1.395,1.366,1.068,3.226-.939,5.27C22.812,9.488,14.939,18.013,11.557,21.42c-2.121,2.138-3.346,2.127-5.467,0-1.642-1.646-3.284-3.292-4.89-4.972-1.5-1.6-1.585-3.326-.3-4.592,1.135-1.12,2.983-1.015,4.375.382C6.425,13.371,7.447,14.664,8.685,16.079Z" transform="translate(21.31 11.233)"/></svg>